<?xml version="1.0" encoding="UTF-8" standalone="no"?>
<!-- Created with Inkscape (http://www.inkscape.org/) -->

<svg
   xmlns:dc="http://purl.org/dc/elements/1.1/"
   xmlns:cc="http://creativecommons.org/ns#"
   xmlns:rdf="http://www.w3.org/1999/02/22-rdf-syntax-ns#"
   xmlns:svg="http://www.w3.org/2000/svg"
   xmlns="http://www.w3.org/2000/svg"
   xmlns:sodipodi="http://sodipodi.sourceforge.net/DTD/sodipodi-0.dtd"
   xmlns:inkscape="http://www.inkscape.org/namespaces/inkscape"
   width="71.049385mm"
   height="106.35839mm"
   viewBox="0 0 251.74979 376.86044"
   id="svg4159"
   version="1.1"
   inkscape:version="0.91 r13725"
   sodipodi:docname="Beastie_Shark.svg"
   inkscape:export-filename="C:\Users\awalker\Desktop\Chuck_Shark.png"
   inkscape:export-xdpi="150"
   inkscape:export-ydpi="150">
  <defs
     id="defs4161" />
  <sodipodi:namedview
     id="base"
     pagecolor="#ffffff"
     bordercolor="#666666"
     borderopacity="1.0"
     inkscape:pageopacity="0.0"
     inkscape:pageshadow="2"
     inkscape:zoom="1.4142136"
     inkscape:cx="-71.806092"
     inkscape:cy="101.50577"
     inkscape:document-units="px"
     inkscape:current-layer="layer1"
     showgrid="false"
     inkscape:window-width="1680"
     inkscape:window-height="1027"
     inkscape:window-x="1672"
     inkscape:window-y="-8"
     inkscape:window-maximized="1"
     fit-margin-top="0"
     fit-margin-left="0"
     fit-margin-right="0"
     fit-margin-bottom="0" />
  <metadata
     id="metadata4164">
    <rdf:RDF>
      <cc:Work
         rdf:about="">
        <dc:format>image/svg+xml</dc:format>
        <dc:type
           rdf:resource="http://purl.org/dc/dcmitype/StillImage" />
        <dc:title />
      </cc:Work>
    </rdf:RDF>
  </metadata>
  <g
     inkscape:label="Layer 1"
     inkscape:groupmode="layer"
     id="layer1"
     transform="translate(-294.1251,-155.36056)">
    <path
       style="fill:none;fill-rule:evenodd;stroke:#000000;stroke-width:1px;stroke-linecap:butt;stroke-linejoin:miter;stroke-opacity:1"
       d="m 390.69685,404.12192 c 1.98715,5.99988 6.29711,14.60877 -12.23585,20.05389 -1.4474,3.08415 2.33137,8.96844 5.42131,12.23778 1.62018,1.71425 7.68205,-1.81477 8.58231,-0.47187"
       id="path4305"
       inkscape:connector-curvature="0"
       sodipodi:nodetypes="ccsc" />
    <path
       style="fill:none;fill-rule:evenodd;stroke:#000000;stroke-width:1px;stroke-linecap:butt;stroke-linejoin:miter;stroke-opacity:1"
       d="m 393.85358,475.96902 -6.76454,-2.10601 c 5.41721,14.11415 0.79245,15.91879 -3.99412,17.52507 -32.50844,6.28416 -36.88104,3.19838 -55.70037,8.39623 -24.54195,7.02841 -12.09966,21.16474 2.84083,21.7069 l 23.33837,-0.5704"
       id="path4331"
       inkscape:connector-curvature="0"
       sodipodi:nodetypes="cccccc" />
    <path
       style="fill:none;fill-rule:evenodd;stroke:#000000;stroke-width:1px;stroke-linecap:butt;stroke-linejoin:miter;stroke-opacity:1"
       d="m 321.75394,508.54644 c 7.35008,3.91104 21.92578,1.55988 33.84011,1.51523"
       id="path4335"
       inkscape:connector-curvature="0"
       sodipodi:nodetypes="cc" />
    <path
       style="fill:none;fill-rule:evenodd;stroke:#000000;stroke-width:1px;stroke-linecap:butt;stroke-linejoin:miter;stroke-opacity:1"
       d="m 352.31105,495.79327 c 4.52469,2.20966 10.04865,3.42005 11.74303,8.46002"
       id="path4337"
       inkscape:connector-curvature="0"
       sodipodi:nodetypes="cc" />
    <path
       style="fill:none;fill-rule:evenodd;stroke:#000000;stroke-width:1px;stroke-linecap:butt;stroke-linejoin:miter;stroke-opacity:1"
       d="m 412.9202,482.28248 c -2.17159,5.24284 7.99115,11.90109 -10.05037,15.32279 -0.57689,0.10941 -1.18262,0.21551 -1.81851,0.31815 l -27.59855,3.90014 c -21.64954,3.65983 -32.68413,25.39098 3.14522,29.89678 20.88104,-0.43499 40.32789,1.01544 65.27451,-4.76426 0,0 31.96109,-6.644 26.52492,-16.42034 -4.52295,-10.51112 -9.64775,-20.88851 -11.28304,-32.04133"
       id="path4339"
       inkscape:connector-curvature="0"
       sodipodi:nodetypes="cscccccc" />
    <path
       style="fill:none;fill-rule:evenodd;stroke:#000000;stroke-width:1px;stroke-linecap:butt;stroke-linejoin:miter;stroke-opacity:1"
       d="m 358.2457,516.75393 c 33.93196,9.47486 76.30548,6.84345 108.5914,-9.21764"
       id="path4341"
       inkscape:connector-curvature="0"
       sodipodi:nodetypes="cc" />
    <path
       style="fill:none;fill-rule:evenodd;stroke:#000000;stroke-width:1px;stroke-linecap:butt;stroke-linejoin:miter;stroke-opacity:1"
       d="m 384.3834,500.71776 c 9.96889,3.99424 23.96068,4.60365 24.87501,21.08694"
       id="path4343"
       inkscape:connector-curvature="0"
       sodipodi:nodetypes="cc" />
    <path
       style="fill:none;fill-rule:evenodd;stroke:#000000;stroke-width:1px;stroke-linecap:butt;stroke-linejoin:miter;stroke-opacity:1"
       d="m 431.98684,479.63083 c 6.09998,14.03184 4.25295,23.46277 -15.15229,22.72843"
       id="path4345"
       inkscape:connector-curvature="0"
       sodipodi:nodetypes="cc" />
    <path
       style="fill:none;fill-rule:evenodd;stroke:#000000;stroke-width:1px;stroke-linecap:butt;stroke-linejoin:miter;stroke-opacity:1"
       d="m 446.82346,500.33895 c 2.11082,1.99207 5.67845,2.50061 8.77569,-2.08344 1.13798,-15.97278 -15.97496,-10.8792 -8.77569,2.08344 z"
       id="path4349"
       inkscape:connector-curvature="0"
       sodipodi:nodetypes="ccc" />
    <path
       style="fill:none;fill-rule:evenodd;stroke:#000000;stroke-width:1px;stroke-linecap:butt;stroke-linejoin:miter;stroke-opacity:1"
       d="m 351.53017,388.96521 -11.07143,-10.17857 c -19.63665,20.62262 -40.42636,-2.48765 -45.17857,-9.28572 6.72861,1.55247 13.08516,2.36079 18.39286,1.07143 l -3.39286,5.89286 c 10.47245,3.90361 18.03391,2.27633 23.75,-2.85714 l -11.25,-11.96429 -3.03571,3.92857 -7.67857,-16.42857 16.25,6.07143 -2.67858,3.57143 16.42858,8.39285 c 2.34643,-4.17997 2.49508,-9.65275 -3.21429,-18.57142 l -4.82143,3.57142 c -1.02346,-6.44456 -4.17174,-12.18085 -8.03571,-17.67857 14.15535,5.79393 30.17492,22.96086 21.60714,37.14286 l 8.03571,7.5 c -1.43554,2.96305 -0.53442,5.34194 -0.17857,7.85714 -1.30952,-0.10287 -2.61905,0.63971 -3.92857,1.96429 z"
       id="path4431"
       inkscape:connector-curvature="0"
       sodipodi:nodetypes="ccccccccccccccccccc" />
    <path
       style="fill:#000000;fill-opacity:1;fill-rule:evenodd;stroke:#000000;stroke-width:1px;stroke-linecap:butt;stroke-linejoin:miter;stroke-opacity:1"
       d="m 390.82312,330.88586 c -1.98631,-14.31141 0.55539,-23.44291 11.61675,-25.00127 -0.83045,2.64014 -1.30609,5.35913 -0.63134,8.33376 1.01221,-2.57543 1.99526,-5.1873 3.6618,-6.9448 3.10363,1.87484 15.07572,11.80731 -2.0203,32.57742 -5.63625,-1.21915 -10.43307,-3.80207 -12.62691,-8.96511 z"
       id="path4439"
       inkscape:connector-curvature="0"
       sodipodi:nodetypes="cccccc" />
    <path
       style="fill:#000000;fill-opacity:1;fill-rule:evenodd;stroke:#000000;stroke-width:1px;stroke-linecap:butt;stroke-linejoin:miter;stroke-opacity:1"
       d="m 372.33374,322.09021 c -2.80965,-12.35554 8.125,-20.17857 8.125,-20.17857 -0.54948,2.96708 -0.2052,4.59352 0.17858,6.16071 0.54224,-2.45545 1.35922,-4.7711 2.76785,-6.78571 12.37203,1.48927 -1.79952,25.24103 -4.01786,25.17857 0,0 -3.87812,1.41069 -7.05357,-4.375 z"
       id="path4441"
       inkscape:connector-curvature="0"
       sodipodi:nodetypes="cccccc" />
    <path
       style="opacity:1;fill:#0495d5;fill-opacity:1;fill-rule:evenodd;stroke:#000000;stroke-width:1;stroke-linecap:butt;stroke-linejoin:miter;stroke-miterlimit:4;stroke-dasharray:none;stroke-opacity:1"
       d="m 389.35657,405.09735 c -0.53504,-16.23051 -13.64803,-12.00806 -9.30302,-23.22233 0.85075,-3.36461 10.73513,1.64955 18.0377,4.64588 38.23364,2.86277 46.69488,-15.051 53.65542,-42.50881 8.89042,-84.01199 -33.25185,-89.85299 -57.66771,-86.44949 -5.58263,0.36597 -29.94311,5.71757 -32.35017,34.65123 -2.39153,-10.82969 -1.40074,-19.78512 -1.40653,-29.29279 5.70259,-30.48243 18.86724,-60.49106 28.3064,-90.73624 13.46988,-33.17127 29.60027,-6.68558 33.75672,0.17861 l 27.95477,45.90396 c 21.80007,5.41828 21.67971,16.69691 18.63651,28.75697 4.55343,10.8492 7.20221,29.19076 7.90936,38.92121 0,0 2.53162,22.43573 1.84082,46.70718 -3.0056,22.86425 -26.25059,41.15964 -22.32732,51.54786 15.72799,-0.31064 28.97085,-1.79081 35.22998,12.35752 -13.06674,-1.46533 -29.9442,11.19626 -24.7008,27.12388 -3.56184,-24.16292 -28.81831,-12.47781 -32.8642,-10.16178 -7.08267,4.0544 -20.2336,-15.21239 -32.51907,-13.27019 -3.7111,-0.1435 -7.48599,0.0319 -12.18886,4.84733 z"
       id="path4285"
       inkscape:connector-curvature="0"
       sodipodi:nodetypes="ccccccccccccccccscc" />
    <path
       style="fill:none;fill-rule:evenodd;stroke:#343333;stroke-width:1.12981343px;stroke-linecap:butt;stroke-linejoin:miter;stroke-opacity:1"
       d="m 403.38287,156.0691 c -6.49836,6.54288 -8.17892,66.08298 -12.0101,101.86773"
       id="path4170"
       inkscape:connector-curvature="0"
       sodipodi:nodetypes="cc" />
    <path
       style="fill:none;fill-rule:evenodd;stroke:#000000;stroke-width:1px;stroke-linecap:butt;stroke-linejoin:miter;stroke-opacity:1"
       d="m 456.3516,383.96521 c 8.16171,20.73618 7.88333,25.19506 9.82143,33.92857"
       id="path4288"
       inkscape:connector-curvature="0"
       sodipodi:nodetypes="cc" />
    <path
       style="fill:#0495d5;fill-opacity:1;fill-rule:evenodd;stroke:#000000;stroke-width:1px;stroke-linecap:butt;stroke-linejoin:miter;stroke-opacity:1"
       d="m 456.3516,477.98306 c -7.89342,1.81778 -15.91833,2.78086 -24.28571,1.51786 -10.22379,-6.53796 -14.29648,-1.7579 -18.75,2.32143 -2.60782,-1.88823 -6.39617,-8.92784 -6.60715,-0.35714 -4.71573,-8.49835 -8.84853,-8.05846 -12.85714,-5.71429 -4.20982,-5.24008 -8.4487,-10.44142 -11.96429,-16.60714 -2.08742,-9.15908 -3.13079,-17.63413 1.60715,-22.32143 2.98849,7.7135 8.09946,11.18203 13.92857,13.21429 22.46053,8.61788 20.5128,-0.66362 30.17857,-1.42857 l 21.60714,17.32142 c 4.04555,1.79597 6.875,0.71429 6.875,0.71429 2.35301,-2.21063 0.26786,-4.91072 0.26786,-4.91072 l -16.60714,-16.69642 c 9.41269,-0.70987 27.74415,-5.89231 27.14285,-19.46429 1.63012,6.14308 -1.87956,24.07936 -3.92856,31.60714 -1.737,8.02043 -4.17319,14.40939 -6.60715,20.80357 z"
       id="path4303"
       inkscape:connector-curvature="0"
       sodipodi:nodetypes="cccccccccccccccc" />
    <path
       style="fill:none;fill-rule:evenodd;stroke:#000000;stroke-width:1px;stroke-linecap:butt;stroke-linejoin:miter;stroke-opacity:1"
       d="m 397.51538,449.57879 5.68211,-1.38896"
       id="path4307"
       inkscape:connector-curvature="0" />
    <path
       style="fill:none;fill-rule:evenodd;stroke:#000000;stroke-width:1px;stroke-linecap:butt;stroke-linejoin:miter;stroke-opacity:1"
       d="m 389.43416,405.76342 c -3.5767,7.33429 -10.57097,9.7321 -17.04632,12.87945 0.5787,2.61532 1.69609,4.9368 5.93464,5.55584"
       id="path4309"
       inkscape:connector-curvature="0"
       sodipodi:nodetypes="ccc" />
    <path
       style="fill:none;fill-rule:evenodd;stroke:#000000;stroke-width:1px;stroke-linecap:butt;stroke-linejoin:miter;stroke-opacity:1"
       d="m 359.8872,375.83765 c 11.61808,-3.58598 14.6721,-0.0845 16.66752,4.29315 1.76211,2.53342 3.3035,12.18201 -8.96511,13.51079 -7.74022,1.06262 -18.63312,-10.19648 -7.70241,-17.80394 z"
       id="path4313"
       inkscape:connector-curvature="0"
       sodipodi:nodetypes="cccc" />
    <path
       style="fill:none;fill-rule:evenodd;stroke:#000000;stroke-width:1px;stroke-linecap:butt;stroke-linejoin:miter;stroke-opacity:1"
       d="m 349.91194,391.36875 c 0,0 -10.51542,20.28154 12.37437,20.20304 6.12823,-0.7071 13.2273,-7.94745 13.25825,-13.0057 0.83419,-3.09491 0.62865,-7.98848 -1.3265,-7.05867 -10.53717,5.01117 -14.40801,0.41697 -18.78312,-4.52981 -1.21436,-1.37303 -5.523,4.39114 -5.523,4.39114 z"
       id="path4315"
       inkscape:connector-curvature="0"
       sodipodi:nodetypes="cccssc" />
    <path
       style="fill:none;fill-rule:evenodd;stroke:#000000;stroke-width:1px;stroke-linecap:butt;stroke-linejoin:miter;stroke-opacity:1"
       d="m 358.49824,411.95061 c -0.36891,7.36086 6.54467,7.12259 13.76333,6.56599"
       id="path4317"
       inkscape:connector-curvature="0"
       sodipodi:nodetypes="cc" />
    <path
       style="fill:none;fill-rule:evenodd;stroke:#000000;stroke-width:1px;stroke-linecap:butt;stroke-linejoin:miter;stroke-opacity:1"
       d="m 386.27743,395.15682 c -2.52188,-2.44412 -5.45004,-3.73707 -9.97525,-0.50508"
       id="path4321"
       inkscape:connector-curvature="0"
       sodipodi:nodetypes="cc" />
    <path
       style="fill:none;fill-rule:evenodd;stroke:#000000;stroke-width:1px;stroke-linecap:butt;stroke-linejoin:miter;stroke-opacity:1"
       d="m 427.56742,448.5055 c 1.51901,-3.3776 9.53422,-2.8793 12.18496,-3.4724"
       id="path4327"
       inkscape:connector-curvature="0"
       sodipodi:nodetypes="cc" />
    <path
       style="fill:none;fill-rule:evenodd;stroke:#343333;stroke-width:1px;stroke-linecap:butt;stroke-linejoin:miter;stroke-opacity:1"
       d="m 453.07377,222.1682 c 14.7817,4.56577 13.65038,12.92036 14.89975,20.70812"
       id="path4398"
       inkscape:connector-curvature="0"
       sodipodi:nodetypes="cc" />
    <g
       transform="translate(107.6016,98.38872)"
       id="g4234">
      <path
         sodipodi:nodetypes="cccsc"
         inkscape:connector-curvature="0"
         id="path4206"
         d="m 264.10715,185.21935 c -2.41289,6.68012 -7.77403,18.18824 -7.18028,28.77699 -2.93852,8.98307 -12.49542,14.1191 -12.29493,18.39864 -6.1272,22.66824 8.39248,29.16898 25.47583,36.05172 2.59124,1.04399 2.31255,4.10777 21.0687,14.17926"
         style="fill:none;fill-rule:evenodd;stroke:#000000;stroke-width:1px;stroke-linecap:butt;stroke-linejoin:miter;stroke-opacity:1" />
      <path
         sodipodi:nodetypes="ccccc"
         inkscape:connector-curvature="0"
         id="path4208"
         d="m 306.96011,172.64561 3.91433,-2.90419 c 7.52375,-0.26869 14.36225,0.88744 17.67768,8.71256 l -0.63135,7.19734 c -1.71102,-9.48549 -5.28889,-17.14857 -20.96066,-13.00571 z"
         style="fill:#343333;fill-rule:evenodd;stroke:#000000;stroke-width:1px;stroke-linecap:butt;stroke-linejoin:miter;stroke-opacity:1;fill-opacity:1" />
      <path
         sodipodi:nodetypes="ccccc"
         inkscape:connector-curvature="0"
         id="path4208-2"
         d="m 295.68733,169.76419 -1.29857,-4.69786 c -5.76546,-4.84134 -11.99375,2.72127 -19.42219,6.84957 l -3.931,6.06198 c 7.18539,-6.42436 14.84726,-21.12258 24.65176,-8.21369 z"
         style="fill:#343333;fill-rule:evenodd;stroke:#000000;stroke-width:1px;stroke-linecap:butt;stroke-linejoin:miter;stroke-opacity:1;fill-opacity:1" />
      <path
         sodipodi:nodetypes="csc"
         inkscape:connector-curvature="0"
         id="path4225"
         d="m 258.22024,254.7205 c 5.5969,-4.3404 15.03572,22.82909 34.7062,23.90007 11.41565,0.62153 23.93078,-19.82139 36.00448,-13.29347"
         style="fill:none;fill-rule:evenodd;stroke:#000000;stroke-width:1px;stroke-linecap:butt;stroke-linejoin:miter;stroke-opacity:1" />
      <path
         sodipodi:nodetypes="cccc"
         inkscape:connector-curvature="0"
         id="path4227"
         d="m 278.17076,233.5073 c -8.23351,-8.65602 -32.32072,3.90225 -9.72272,17.04632 4.38787,0.24824 8.63619,-0.60999 12.54072,-0.7178 8.63869,3.1896 12.02592,3.10062 10.18771,-5.34311"
         style="fill:none;fill-rule:evenodd;stroke:#000000;stroke-width:1px;stroke-linecap:butt;stroke-linejoin:miter;stroke-opacity:1" />
      <path
         sodipodi:nodetypes="cccc"
         inkscape:connector-curvature="0"
         id="path4229"
         d="m 309.10668,181.86325 c -11.57787,-1.30962 -35.47466,39.39271 -23.61231,54.2957 2.58758,3.30971 17.15794,11.77887 30.24144,0.44194 13.6636,-12.89878 6.47863,-55.46642 -6.62913,-54.73764 z"
         style="fill:none;fill-rule:evenodd;stroke:#000000;stroke-width:1px;stroke-linecap:butt;stroke-linejoin:miter;stroke-opacity:1" />
      <path
         sodipodi:nodetypes="cccc"
         inkscape:connector-curvature="0"
         id="path4231"
         d="m 292.58929,177.00506 c 0.80964,1.99604 -9.55067,32.02381 -17.23215,48.03571 -1.437,2.09912 -6.27574,7.34258 -13.57143,-2.05357 -7.28482,-15.14868 15.98405,-48.26688 30.80358,-45.98214 z"
         style="fill:none;fill-rule:evenodd;stroke:#000000;stroke-width:1px;stroke-linecap:butt;stroke-linejoin:miter;stroke-opacity:1" />
    </g>
    <path
       style="opacity:1;fill:#0495d5;fill-opacity:1;fill-rule:evenodd;stroke:#000000;stroke-width:1;stroke-linecap:butt;stroke-linejoin:miter;stroke-miterlimit:4;stroke-dasharray:none;stroke-opacity:1"
       d="m 466.22732,417.58298 c 1.60668,5.89315 1.69163,14.61236 6.34585,14.8458 1.98258,0.18645 5.05309,1.52447 7.62872,2.33867 12.77031,-2.39109 25.52405,-3.66964 38.27743,-4.92351 5.89277,-1.56998 11.47568,-2.28501 17.13116,-3.20027 3.77547,-1.26688 7.8762,-2.74742 9.10093,-2.33868 3.50926,1.87056 -7.79152,18.08815 -13.11605,20.92491 -12.54884,4.84335 -24.50785,11.49491 -34.79767,23.26356 -2.81574,9.14758 -1.17598,18.71588 3.34594,28.55634 6.13841,11.92086 8.99321,24.87447 -0.66919,29.9103 -5.57178,-5.86828 -4.42181,-6.96103 -13.51756,-18.34007 -9.71455,-10.24193 -19.88645,-18.65449 -29.1398,-30.7412 6.99559,-24.14055 11.51437,-46.04054 9.41024,-60.29585 z"
       id="path4158"
       inkscape:connector-curvature="0"
       sodipodi:nodetypes="ccccccccccccc" />
    <path
       style="fill:#343333;fill-opacity:1;fill-rule:evenodd;stroke:none;stroke-width:1px;stroke-linecap:butt;stroke-linejoin:miter;stroke-opacity:1"
       d="m 409.13935,185.29071 c 2.11082,1.99207 5.67845,2.50061 8.77569,-2.08344 1.13798,-15.97278 -15.97496,-10.8792 -8.77569,2.08344 z"
       id="path4349-4"
       inkscape:connector-curvature="0"
       sodipodi:nodetypes="ccc" />
    <path
       style="fill:#343333;fill-opacity:1;fill-rule:evenodd;stroke:none;stroke-width:1px;stroke-linecap:butt;stroke-linejoin:miter;stroke-opacity:1"
       d="m 384.51689,185.29071 c 2.11082,1.99207 2.52172,2.37435 5.61896,-2.2097 1.13798,-15.97278 -2.84297,-11.51055 -5.61896,2.2097 z"
       id="path4349-4-5"
       inkscape:connector-curvature="0"
       sodipodi:nodetypes="ccc" />
    <path
       style="fill:#ffffff;fill-opacity:1;fill-rule:evenodd;stroke:#343333;stroke-width:0.1;stroke-linecap:butt;stroke-linejoin:miter;stroke-miterlimit:4;stroke-dasharray:none;stroke-opacity:1"
       d="m 458.09537,241.17482 c 4.00431,1.24305 6.54004,0.54436 7.84306,-6.78327 -8.22444,-20.1109 -25.25756,-4.97597 -7.84306,6.78327 z"
       id="path4349-4-9-2"
       inkscape:connector-curvature="0"
       sodipodi:nodetypes="ccc"
       inkscape:transform-center-x="-0.36763471"
       inkscape:transform-center-y="1.3558272" />
    <path
       style="fill:none;fill-rule:evenodd;stroke:#000000;stroke-width:0.50823981px;stroke-linecap:round;stroke-linejoin:miter;stroke-opacity:1"
       d="m 481.03198,435.31419 c 6.21982,21.55375 -0.51766,38.5969 -17.97359,50.18057"
       id="path4180"
       inkscape:connector-curvature="0"
       sodipodi:nodetypes="cc" />
    <path
       sodipodi:nodetypes="cc"
       style="fill:none;fill-rule:evenodd;stroke:#000000;stroke-width:0.50823981px;stroke-linecap:round;stroke-linejoin:miter;stroke-opacity:1"
       d="m 495.75407,469.1633 -14.93251,-4.87999"
       id="path4182"
       inkscape:connector-curvature="0" />
    <path
       style="fill:none;fill-rule:evenodd;stroke:#000000;stroke-width:0.50823981px;stroke-linecap:round;stroke-linejoin:miter;stroke-opacity:1"
       d="m 480.03283,465.47544 -4.98491,-0.35927 c -2.90491,-3.12521 -7.82105,-5.17204 -12.3094,-8.00601"
       id="path4184"
       inkscape:connector-curvature="0"
       sodipodi:nodetypes="ccc" />
    <path
       sodipodi:nodetypes="ccccc"
       style="opacity:0.25;fill:#000000;fill-opacity:1;fill-rule:evenodd;stroke:none;stroke-width:1px;stroke-linecap:butt;stroke-linejoin:miter;stroke-opacity:1"
       d="m 471.06187,431.98206 c 8.02825,11.70154 5.53747,22.42427 9.30993,33.27465 l -3.44992,-0.39539 -0.71866,-17.68695 z"
       id="path4188"
       inkscape:connector-curvature="0" />
    <path
       style="opacity:0.25;fill:#000000;fill-opacity:1;fill-rule:evenodd;stroke:none;stroke-width:1px;stroke-linecap:butt;stroke-linejoin:miter;stroke-opacity:1"
       d="m 475.43871,433.31726 6.89261,15.93985 -5.28657,-10.27782 z"
       id="path4190"
       inkscape:connector-curvature="0" />
    <path
       sodipodi:nodetypes="ccc"
       inkscape:connector-curvature="0"
       id="path4194"
       d="m 381.09923,389.91576 c 6.13868,3.03593 15.01481,4.16502 15.01481,4.16502 41.62031,4.18277 36.997,-9.01829 50.9229,-14.41807"
       style="fill:none;fill-rule:evenodd;stroke:#000000;stroke-width:1px;stroke-linecap:round;stroke-linejoin:miter;stroke-opacity:1" />
    <path
       style="fill:#343333;fill-opacity:1;fill-rule:evenodd;stroke:none;stroke-width:1px;stroke-linecap:butt;stroke-linejoin:miter;stroke-opacity:1"
       d="m 459.12123,238.39779 c 2.75067,0.92613 4.49253,0.40557 5.38761,-5.05385 -5.64959,-14.98355 -17.3501,-3.70733 -5.38761,5.05385 z"
       id="path4349-4-9"
       inkscape:connector-curvature="0"
       sodipodi:nodetypes="ccc" />
    <path
       style="opacity:1;fill:#343333;fill-opacity:1;stroke:none;stroke-width:0.25;stroke-miterlimit:4;stroke-dasharray:none;stroke-opacity:1"
       d="m 51.405798,227.6476 -4.963754,-4.65643 -0.995064,1.07794 c -7.49557,8.11985 -17.698893,9.53698 -27.152946,4.71369 -3.566134,-1.81938 -5.210529,-2.96983 -8.7546898,-5.99582 -2.6710125,-2.2805 -7.8101153,-7.70521 -7.5201438,-7.99518 0.071363,-0.0714 3.0540569,0.49761 5.1004298,0.80606 2.1584461,0.32534 5.3094008,0.5597 7.4195788,0.60224 l 4.417651,-0.61483 -1.666259,2.93304 c -0.612124,1.07749 -1.201816,2.23449 -1.398051,2.48835 -0.544006,0.70375 0.02275,0.45226 3.51847,1.4628 6.05488,1.75034 11.176653,1.44628 15.814684,-0.74786 2.223026,-1.05166 5.206294,-3.00797 5.043823,-3.45661 -0.160518,-0.44324 -11.225391,-12.10243 -11.469019,-12.09011 -0.114388,0.006 -0.540475,0.60829 -1.353286,1.50238 l -1.808221,1.98905 -3.378421,-7.44241 c -1.727077,-3.80462 -3.507038,-7.62241 -3.47228,-7.66329 0.03476,-0.0409 3.977888,1.16733 7.737685,2.55221 l 7.362756,2.71199 -1.619974,2.1497 c -0.660611,0.87663 -1.020375,1.47374 -1.016735,1.59281 0.0082,0.26791 16.209214,8.59085 16.721771,8.59085 0.203679,0 0.48233,-0.6027 0.889302,-1.69042 0.908807,-2.429 0.927417,-6.19507 0.116517,-8.96353 -0.678864,-2.31769 -3.644692,-8.61685 -4.149431,-8.61685 -0.195493,0 -1.038267,0.6684 -2.102396,1.47182 -1.064128,0.80343 -2.446048,1.74261 -2.509905,1.6758 -0.06386,-0.0668 -0.526049,-2.34786 -1.155999,-4.25257 -0.62995,-1.90471 -2.142248,-4.96111 -3.198622,-6.87304 -1.056373,-1.91192 -3.055205,-4.88287 -2.983441,-4.95464 0.18571,-0.18571 4.745581,2.30505 7.636382,3.98371 3.363494,1.95316 8.830199,7.94279 10.890239,11.06138 4.59025,6.94896 6.401275,14.17924 2.711039,19.65471 l -1.125187,1.66952 4.062185,3.56517 3.962749,3.90768 -0.381745,1.78959 c -0.176676,0.82825 -0.253209,2.1076 -0.09824,3.1083 l 0.371891,2.40146 -1.762805,0.78507 c -0.875678,0.38998 -1.754952,1.24911 -1.754952,1.24911 0.0037,-0.0685 -3.006205,-2.68792 -5.985586,-5.48284 z"
       id="path4197"
       inkscape:connector-curvature="0"
       transform="translate(294.1251,155.36056)"
       sodipodi:nodetypes="scssscsscssssscscscscscssssscsscssscccsscsss" />
    <path
       style="opacity:1;fill:#343333;fill-opacity:1;stroke:#000000;stroke-width:0.03156727;stroke-miterlimit:4;stroke-dasharray:none;stroke-opacity:1"
       d="m 158.09494,311.50839 c 0,0 -1.03877,-0.24205 -1.60174,-0.42115 l -1.34588,-0.75397 -10.72808,-8.54317 -10.6176,-8.60947 0.48357,-0.76978 c 0.31116,-0.39558 1.61928,-0.97035 2.66938,-1.29154 1.09394,-0.3346 2.97914,-0.60862 5.75998,-0.8439 1.25006,-0.10577 2.38673,-0.21782 2.52593,-0.249 0.19869,-0.0445 2.41811,1.72758 8.87286,8.2444 5.44428,5.49665 8.14521,8.33693 8.34116,8.71035 0.44602,0.84996 0.38144,2.74909 -0.0913,3.46349 -0.19381,0.29288 -0.80503,0.63117 -0.98014,0.69775 -1.22098,0.33753 -2.63298,0.48981 -3.21003,0.38162 z"
       id="path4199"
       inkscape:connector-curvature="0"
       transform="translate(294.1251,155.36056)"
       sodipodi:nodetypes="ccccccsscsscccc" />
    <g
       id="g5881"
       transform="matrix(0.15538119,-0.17925786,0.17925786,0.15538119,159.33825,301.3632)">
      <path
         id="path4222"
         d="m 330.892,357.885 c 0,25.898 -41.989,46.893 -93.785,46.893 -51.795,0 -93.784,-20.994 -93.784,-46.893 0,-25.899 41.989,-46.893 93.784,-46.893 51.795,10e-4 93.785,20.995 93.785,46.893 z"
         inkscape:connector-curvature="0"
         style="fill:url(#ag)" />
      <g
         id="g4231"
         transform="translate(8.99996,9.00046)" />
    </g>
    <path
       style="fill:#ffffff;fill-rule:evenodd;stroke:#000000;stroke-width:1px;stroke-linecap:butt;stroke-linejoin:miter;stroke-opacity:1;fill-opacity:1"
       d="m 361.67905,291.80469 c 2.25291,-26.663 24.13145,-33.46847 32.8931,-34.53459 57.39894,-5.99576 58.19073,49.94701 57.57869,68.1853 l -6.19749,-4.53173 2.57601,-4.85014 -5.34457,-4.65656 4.1895,-7.88248 -6.13265,-6.65393 2.71363,-8.38608 -6.53102,-3.64521 -0.0815,-9.97767 -9.95453,-0.0453 -2.38721,-8.81917 -8.9965,2.21189 -4.18932,-6.6919 -5.56502,5.80676 -8.04384,-7.66883 -6.86487,8.16075 -7.49158,-3.39752 -1.96775,8.2517 -8.23679,-1.02481 -0.32513,10.74333 -6.0915,2.40345 1.252,6.1248 z"
       id="path6717"
       inkscape:connector-curvature="0"
       sodipodi:nodetypes="ccccccccccccccccccccccccc" />
    <path
       style="fill:#ffffff;fill-rule:evenodd;stroke:#000000;stroke-width:1px;stroke-linecap:butt;stroke-linejoin:miter;stroke-opacity:1;fill-opacity:1"
       d="m 380.74568,380.69812 c 2.33876,0.0474 7.00697,1.36548 17.17259,5.68211 24.8334,2.87734 45.88824,-2.76385 53.9169,-42.17387 l 0.3788,-9.84899 -4.25418,4.09716 0.18237,8.37614 -4.03038,3.05158 -0.17348,9.37681 -5.34482,2.05504 -0.2422,8.47726 -7.8055,-0.91479 -0.74801,8.65361 -6.46647,-2.85802 -2.00673,6.23832 -5.82583,-3.35852 -4.82325,5.7962 -4.63565,-4.85732 -4.66325,4.45716 -5.3754,-5.1415 -5.13719,3.17132 -5.35594,-5.38575 z"
       id="path6719"
       inkscape:connector-curvature="0"
       sodipodi:nodetypes="cccccccccccccccccccccc" />
    <path
       style="opacity:1;fill:#cc1432;fill-opacity:1;stroke:#000000;stroke-width:0.12626907;stroke-miterlimit:4;stroke-dasharray:none;stroke-opacity:1"
       d="m 114.74962,297.67659 c -3.03399,-0.58469 -10.41738,-2.82039 -10.83096,-2.90311 0,0 2.22753,-1.01088 3.19737,-1.19282 1.05468,-0.19786 1.88961,-0.34197 1.88961,-0.78143 0,-0.90485 -0.57096,0.2147 -4.19941,1.1549 -2.92245,0.75728 -3.45341,-0.34407 -6.186922,-1.8694 -1.533096,-0.85549 -5.629325,-4.27156 -6.613371,-6.27084 l -2.035263,-4.13504 1.830858,0.13644 6.755351,-1.56358 c 0.568344,-0.13155 -1.463341,0.15859 -5.671275,0.70781 -2.772587,0.36191 -3.284792,-0.28259 -4.628147,-2.04382 -2.294244,-3.00791 -4.34054,-7.41928 -4.181531,-8.96878 0.132659,-1.29272 1.587246,-1.14566 4.473653,-2.18776 3.84704,-1.38893 6.338326,-3.1401 8.443892,-5.75452 1.930512,-2.39706 2.147891,-6.35062 0.89575,-10.02545 -0.448802,-1.31716 -0.784437,-2.8364 -0.784437,-3.18317 0,-0.34677 2.722175,-2.65697 4.299042,-2.92407 6.1011,-1.83215 10.58515,-1.36407 15.96292,1.43695 1.78597,0.92383 5.67591,4.0056 9.02958,6.20021 8.84416,5.78754 10.5089,6.41639 15.72964,3.78098 5.79909,-3.43432 16.29329,-5.51557 22.30933,-2.55523 4.81366,2.39874 8.02657,8.56127 8.06269,15.45183 0.0261,4.97802 -2.75126,9.43603 -5.01459,11.12228 -6.78835,5.05752 -13.2377,7.03465 -23.94253,8.16973 -6.53415,0.69285 -8.70191,1.60826 -9.85663,2.88422 -0.46422,0.51295 -1.27032,0.55435 -1.71341,0.5511 -0.44308,-0.003 -4.85148,2.13194 -7.38362,3.40146 -3.55974,1.85319 -7.50147,2.12304 -9.83759,1.36111 z"
       id="path6729"
       inkscape:connector-curvature="0"
       transform="translate(294.1251,155.36056)"
       sodipodi:nodetypes="cssssssccscssssssccsccssssccc" />
    <path
       style="opacity:1;fill:#cc1432;fill-opacity:1;stroke:#000000;stroke-width:0.12626907;stroke-miterlimit:4;stroke-dasharray:none;stroke-opacity:1"
       d="m 60.198977,255.16 c -6.172364,-2.1988 -8.171922,-8.35836 -5.926207,-15.75188 1.077846,-3.54858 4.935915,-7.65149 6.333761,-7.65149 0.32987,0 1.293737,1.26127 2.251055,2.25719 2.479553,2.57953 5.455182,4.24373 8.291806,4.55082 2.190475,0.23714 4.411866,-0.73945 9.132328,-2.23481 1.368656,-0.43357 1.612181,2.33439 1.052607,6.6246 -0.647772,4.96643 -5.201671,9.9687 -10.042327,12.16678 -2.522438,1.1454 -8.188722,1.0734 -11.093023,0.0388 z"
       id="path6731"
       inkscape:connector-curvature="0"
       transform="translate(294.1251,155.36056)"
       sodipodi:nodetypes="sssssssss" />
    <path
       style="opacity:1;fill:#cc1432;fill-opacity:1;stroke:#000000;stroke-width:0.12626907;stroke-miterlimit:4;stroke-dasharray:none;stroke-opacity:1"
       d="m 69.008606,262.77648 c -2.579286,-0.51103 -4.724258,-3.8854 -4.724258,-5.80952 0,-1.12686 1.136189,-0.3863 3.215848,-0.3863 2.983895,0 6.157171,-1.48762 9.506355,-4.54858 3.173099,-2.90004 4.541944,-5.82258 5.002875,-9.76123 0.316354,-2.70323 0.437392,-3.2153 2.25856,-4.03654 4.774053,-2.15279 9.560605,1.2438 10.523589,8.50313 0.305137,2.30024 0.232539,3.83469 -0.935597,5.59986 -3.071247,4.64097 -12.041509,10.30403 -17.907604,10.76529 -1.805648,0.14198 -5.689704,-0.0784 -6.939768,-0.32611 z"
       id="path6733"
       inkscape:connector-curvature="0"
       transform="translate(294.1251,155.36056)"
       sodipodi:nodetypes="ssssssssss" />
    <path
       style="opacity:1;fill:#cc1432;fill-opacity:1;stroke:#000000;stroke-width:0.12626907;stroke-miterlimit:4;stroke-dasharray:none;stroke-opacity:1"
       d="m 79.609336,266.62867 c -0.846786,-0.84679 -1.223937,-2.76217 -1.223937,-3.13754 0,-0.37536 2.575891,-1.16187 5.145465,-2.44227 2.922798,-1.45641 6.270502,-3.41432 8.266736,-5.68325 1.540756,-1.75124 2.385867,-3.55613 3.56548,-5.1239 l 0.86261,-1.14646 1.102462,3.06781 c 1.796477,4.99904 0.166693,9.46621 -3.295265,12.10677 -2.334056,1.78028 -7.253225,4.13756 -9.627853,4.45606 -1.69441,0.22727 -3.465955,-0.76745 -4.795698,-2.09722 z"
       id="path6735"
       inkscape:connector-curvature="0"
       transform="translate(294.1251,155.36056)"
       sodipodi:nodetypes="ssssscssss" />
    <path
       style="opacity:1;fill:#cc1432;fill-opacity:1;stroke:#000000;stroke-width:0.12626907;stroke-miterlimit:4;stroke-dasharray:none;stroke-opacity:1"
       d="m 68.192344,237.2356 c -2.512735,-1.18322 -5.491509,-4.42709 -6.291665,-6.85159 -0.729965,-2.21181 -0.04878,-5.67785 1.877747,-7.9674 1.708833,-2.03083 6.044236,-3.4102 10.578798,-3.15397 2.966617,0.16763 4.607561,1.64886 5.890678,2.87816 3.400174,3.25757 4.032093,9.16776 1.80911,12.23404 -2.349724,3.2411 -10.131151,4.61883 -13.864668,2.86076 z"
       id="path6737"
       inkscape:connector-curvature="0"
       transform="translate(294.1251,155.36056)"
       sodipodi:nodetypes="sssssss" />
    <path
       style="opacity:1;fill:#cc1432;fill-opacity:1;stroke:#000000;stroke-width:0.06313454;stroke-miterlimit:4;stroke-dasharray:none;stroke-opacity:1"
       d="m 111.97677,222.82843 -1.98025,1.90147 c -1.22181,1.17321 -2.60212,2.47115 -2.61984,2.59596 0,0 -1.31185,-1.18927 -2.21066,-2.10266 -0.89881,-0.9134 -2.18437,-2.03231 -2.70247,-2.44792 -0.92752,-0.74401 -0.56748,-0.6924 -1.36176,-0.41591 l -0.64073,0.49756 -3.244407,-1.76353 c -4.206681,-2.28657 -7.985522,-5.24031 -10.731164,-7.70692 -2.131061,-1.91448 -2.146153,-2.06841 -5.461137,-3.41635 -7.485272,-3.04366 -13.494221,-6.27655 -16.901749,-9.21242 -2.76153,-2.37929 -5.224769,-6.04342 -6.29881,-9.44085 -0.762458,-2.41183 -1.12837,-8.39075 -0.567206,-11.48349 0.759903,-4.18804 1.462448,-5.92477 2.049827,-6.92248 0.327088,-0.55558 2.076779,-2.65793 3.751793,-4.50821 3.880275,-4.28628 5.344541,-6.01104 6.674696,-8.68307 1.06111,-2.13157 0.824205,-2.17129 0.989035,-5.68211 0.299418,-6.37748 1.432547,-11.12999 5.528014,-21.86881 0.784136,-2.0561 1.243404,-3.88425 1.174926,-3.99505 -0.06848,-0.1108 0.790188,-0.47073 1.319769,-0.64551 l 0.54755,-0.22195 0.248243,-4.99116 c 0.141609,-2.84719 -0.03339,-6.00653 0.0096,-6.04955 0.122503,-0.12251 6.56438,1.10784 6.725934,1.26939 0.0793,0.0793 -0.755274,1.20571 -1.254423,1.95748 -0.873287,1.31527 -0.912407,1.07016 -0.467397,1.47289 0.438371,0.39672 0.579045,0.11794 2.700163,-2.10205 1.230732,-1.2881 2.802323,-3.50019 4.270748,-4.74532 l 2.635732,-2.60422 1.715532,0.72088 c 0.861792,0.36214 1.490539,0.63632 1.460848,0.63632 0,0 0.681713,-0.99503 1.780997,-2.31454 1.588666,-1.90693 2.167366,-3.03528 2.691186,-3.03528 1.16544,0 3.76227,1.83628 5.56186,3.6502 1.30666,1.31704 1.50954,1.72368 1.84138,1.59634 0.45176,-0.17335 -0.0617,-1.31859 -0.51439,-3.2494 -0.1591,-0.67821 0.56372,-0.0487 1.84261,1.1934 0.75082,0.72921 1.46993,1.51556 1.62532,1.51556 0.15538,0 1.34284,-1.4611 2.69335,-2.91951 1.35049,-1.45841 2.81247,-2.98647 2.92145,-2.98647 0.10897,0 1.36732,2.25293 2.38711,3.91524 1.30193,2.12222 1.76223,2.83506 2.09804,2.84073 0.14182,0.002 1.1023,-0.2753 1.09984,-0.11149 -0.004,0.23321 -1.06486,0.9718 -1.55995,1.34983 -1.23487,0.94289 -1.65272,0.95575 -1.30479,1.50487 0.18154,0.28651 0.49077,-0.0404 2.04609,-0.3997 2.1513,-0.49702 6.82062,-1.43677 8.23788,-0.56749 l 0.89472,0.54879 0.66185,2.29761 c 0.13132,0.76587 0.46333,1.02865 0.70648,2.24181 l 2.27605,0.0558 2.77794,-0.0316 0.84684,1.34116 c 0.94269,1.49296 1.28554,4.01442 1.73051,6.10872 0.26248,1.23545 0.23375,1.26269 0.70751,1.26269 0.47099,0 0.36062,-0.0228 0.49646,-1.01383 0.0883,-0.64442 0.22546,-1.79031 0.22759,-2.43068 0.001,-0.40114 0.17476,-2.42733 0.13722,-3.79509 -0.0189,-0.6897 -0.50279,-1.1055 -0.46138,-1.47313 0,0 0.96401,0.0163 1.01478,0.0948 0.13464,0.20834 -0.0349,5.99778 -0.0296,7.38674 l 0.01,2.30441 3.38937,1.82402 c 1.79626,0.96667 3.21507,1.57176 3.15267,1.7362 -0.49475,1.30371 -2.70164,8.15888 -2.69816,8.41965 0.003,0.18225 1.46676,1.30995 3.06115,3.04615 1.59439,1.7362 3.02604,3.46938 3.02604,3.46938 5e-4,0.10251 -0.95058,2.09628 -2.07488,4.19912 -1.96905,3.68284 -2.18488,3.71271 -1.73619,4.12268 0.6643,0.60695 5.04506,4.16409 5.04506,4.16409 0,0 -0.67417,1.3893 -1.38484,2.73924 -1.23227,2.34072 -1.30196,2.1552 -0.85432,2.4936 0.25817,0.19516 1.9286,1.30038 3.57075,2.60486 l 2.91195,2.31316 0.0974,4.00904 -0.31293,3.50396 -2.38062,2.46226 -2.12806,2.14657 0.0649,4.10374 0.0964,4.13532 -2.11417,1.65143 -2.01947,1.43046 -0.004,4.28322 c -0.002,2.39049 0.22537,4.82946 0.11984,4.99553 -0.10558,0.16608 -1.75167,0.82161 -3.18443,1.2156 l -2.26642,1.00834 -0.0947,3.65701 c -0.0694,2.16761 -0.10175,4.51565 -0.10175,4.51565 0,0 -2.25373,-0.18153 -4.15087,-0.4111 -1.89714,-0.22958 -3.40724,-0.48716 -3.58727,-0.41808 -0.22139,0.0849 -0.22835,0.93885 -0.35135,2.70426 -0.10002,1.43563 -0.12769,3.34519 -0.22533,4.12657 l -0.2013,1.61104 -3.44083,-1.42512 c -1.68177,-0.69655 -3.07249,-1.57351 -3.16243,-1.48478 -0.09,0.0887 -0.34721,1.60079 -0.84177,3.12864 -0.59144,1.82714 -0.69457,3.12813 -0.90794,3.07316 -0.17843,-0.046 -1.98028,-0.95195 -3.30963,-1.70464 -1.32935,-0.75268 -2.52585,-1.59353 -2.49125,-1.52634 0,0 -0.87515,1.28794 -2.08551,2.74635 -1.21037,1.4584 -2.8088,2.96732 -2.70503,2.96732 0,0 -1.31907,-1.3418 -2.54632,-2.59596 -0.47073,-0.47826 -1.30517,-1.27579 -1.97921,-1.9646 z m -1.43589,-1.54548 c 2.939,-1.02495 3.95972,-1.44795 14.53305,-8.63676 5.04374,-3.42923 7.92907,-4.71808 11.12916,-5.11791 1.48841,-0.18596 3.90037,0.21448 5.11222,0.83679 0.67507,0.34667 0.68871,0.45142 0.98628,0.0445 0.44588,-0.60977 0.33126,-0.56993 -1.3358,-1.20951 -2.15291,-0.82599 -5.235,-0.67199 -7.85061,0.21897 -2.77624,0.94568 -4.53023,1.81884 -8.20715,4.31792 -1.76509,1.19968 -4.73711,3.38718 -6.68165,4.7068 -5.76148,3.90987 -8.90313,5.04397 -12.58768,4.77059 -5.5591,-0.41246 -11.259457,-3.49499 -16.850694,-8.83432 -1.84712,-1.7639 -3.445536,-3.16154 -9.920304,-11.03556 -2.589745,-3.14941 -3.809773,-4.06721 -5.507245,-4.20797 -1.536906,-0.12746 -2.110879,-0.11131 -1.540308,0.66899 0.261322,0.35738 0.436676,-0.005 0.829389,-0.21511 0.723425,-0.38716 2.233823,0.51914 3.766492,2.02666 0.691336,0.68 2.778589,3.21088 4.63834,5.43322 5.949056,7.10891 10.765091,11.51006 15.29589,13.98117 4.56481,2.39154 9.31912,3.21485 14.19062,2.25154 z m -6.75242,-26.39174 c 0.40235,-0.24553 1.14421,-0.86275 1.34161,-1.3352 0.37063,-0.88706 0.37685,-3.41155 0.10212,-5.07367 -0.1319,-0.798 0.0289,-0.88388 -0.4994,-0.88388 -0.59631,0 -0.36642,-0.0254 -0.21048,1.01442 0.2215,1.4771 0.29894,3.87616 0.0906,4.53233 -0.0935,0.29452 -0.5818,0.84208 -1.00802,1.06249 -1.0327,0.53403 -2.7223,0.69189 -6.321759,-0.44789 l -3.040074,-1.10365 -4.207613,0.33587 c -2.334431,0.18635 -5.090296,0.46216 -6.091966,0.46216 -1.782439,0 -2.022658,-0.0291 -4.027491,-1.36443 -2.501364,-1.6661 -5.172028,-4.41444 -6.138765,-6.27704 -1.011817,-1.94945 -1.283005,-4.7114 -0.301518,-6.38099 2.967681,-5.04828 11.510848,-7.29779 16.396638,-3.96176 1.402185,0.95741 1.569128,1.30526 1.569128,0.426 0,-0.46155 -1.665712,-1.17837 -3.319526,-1.79514 -2.148698,-0.80133 -6.036916,-0.76233 -8.553863,0.11822 -2.257495,0.78978 -3.795518,1.87594 -5.176108,3.37371 -3.340197,3.62368 -2.738531,7.62028 1.599914,11.87906 1.01425,0.99563 2.641198,2.3183 3.808351,3.09359 2.098313,1.39384 2.111528,1.23602 3.964358,1.23602 1.030605,0 3.627157,-0.0236 5.982315,-0.24523 l 4.518862,-0.32413 2.280819,0.82979 c 2.678715,0.72092 5.065388,1.65758 7.241838,0.82935 z m 14.37575,-9.37328 c 4.79915,-0.85004 8.96283,-3.22335 12.1653,-6.6468 6.08754,-6.50761 8.26353,-21.0067 5.27772,-35.57167 -2.01762,-9.84208 -5.9824,-16.86185 -10.57253,-18.38644 -1.97494,-0.65597 -4.6525,-0.38947 -6.60481,0.60314 -9.27766,4.71704 -19.876618,22.42981 -22.448333,37.17012 -0.932601,5.34539 -0.383856,11.3772 1.267173,14.54229 2.018704,3.86995 6.8086,6.76443 12.91221,7.98866 2.03767,0.40871 6.01324,0.65317 8.00327,0.3007 z M 86.566473,170.79769 c 1.699213,-1.09038 2.449873,-2.08605 3.892956,-5.24897 6.716803,-14.72178 15.935161,-40.71501 15.943231,-44.96788 0.002,-0.90977 -0.15087,-0.58826 -1.25243,-0.75345 -2.27589,-0.34129 -5.908813,0.55914 -8.909042,2.36376 -3.755742,2.25905 -8.244157,6.56636 -11.567943,10.71701 -5.334502,6.66157 -9.699528,15.69621 -10.844562,22.44584 -0.683476,4.02889 -0.25891,8.11098 0.87164,10.29921 1.116775,2.16157 3.878139,4.66402 6.118538,5.56817 1.866815,0.75338 4.088669,0.64085 5.747612,-0.42369 z"
       id="path6739"
       inkscape:connector-curvature="0"
       transform="translate(294.1251,155.36056)"
       sodipodi:nodetypes="cssscscssssssssssscccscssssscsssssccssssscssssscccccsssccsscccsccscsccscscccccccccccscccscsscscscsssscccssscssssssssscsscccssssssscsscssssssssssscsccsssssssssssssssssssss" />
    <path
       style="opacity:1;fill:#cc1432;fill-opacity:1;stroke:#000000;stroke-width:0.12626907;stroke-miterlimit:4;stroke-dasharray:none;stroke-opacity:1"
       d="m 115.28512,363.64392 c -0.38003,-3.20878 -3.01108,-8.19266 -5.36007,-10.15334 -2.3726,-1.98039 -7.94083,-4.73068 -12.805147,-6.19332 -2.150288,-0.64656 -6.286741,-1.94736 -6.289342,-2.10769 -0.0026,-0.16033 4.35192,-0.71796 7.060392,-1.0673 12.436057,-1.60402 18.167367,-3.00446 20.616287,-5.35068 1.87831,-1.79953 1.75708,-3.42556 0.79338,-7.14461 -0.44473,-1.71624 -0.39222,-3.46755 -0.22977,-3.97936 0.34221,-1.07822 3.23411,-3.79671 5.58588,-5.00745 2.32706,-1.19803 6.12259,-1.81493 9.48126,-0.30767 2.71563,1.2187 3.43494,1.57917 4.44102,4.20824 1.7394,4.54532 2.70199,10.01835 1.92412,12.61465 -1.33351,4.45086 -5.84575,6.83005 -13.92166,7.53308 -5.75688,0.50115 -5.02031,0.98975 0.94766,0.72499 9.32494,-0.41368 13.65635,-4.29816 13.66896,-11.28661 0.003,-1.42456 -1.94309,-9.36469 -2.71749,-11.31664 -0.28534,-0.71925 1.88076,0.58916 9.17133,0.32008 4.52874,-0.16715 9.55458,-0.96859 11.35757,-1.37589 1.80299,-0.4073 3.65767,-0.8828 3.67588,-0.83385 0.0182,0.049 0.22427,2.0645 0.57562,3.87014 0.84376,4.33618 3.9164,11.35514 6.98307,18.64862 1.37147,3.26178 2.18108,6.15054 2.18108,6.40036 0,1.02161 -13.83697,6.4881 -23.29138,9.16415 -8.55887,2.42257 -26.76385,5.40048 -32.50462,5.40048 -1.83127,0 -1.04449,-0.23127 -1.34403,-2.7604 z m 44.61165,-18.62848 c 1.78948,-1.47504 1.94913,-1.45817 1.94913,-4.31884 0,-1.65544 -0.66693,-3.2959 -1.04996,-4.21261 -1.63777,-3.91973 -5.43044,-5.00667 -8.41733,-2.33789 -1.35736,1.21281 -1.30569,1.80155 -1.5079,4.23993 -0.2768,3.33784 0.57702,6.14248 2.28137,7.33626 1.86746,1.30802 4.61054,1.05229 6.74469,-0.70685 z"
       id="path6741"
       inkscape:connector-curvature="0"
       transform="translate(294.1251,155.36056)"
       sodipodi:nodetypes="ssssssscssssssccsscssssssssssssss" />
    <path
       style="opacity:1;fill:#cc1432;fill-opacity:1;stroke:#000000;stroke-width:0.12626907;stroke-miterlimit:4;stroke-dasharray:none;stroke-opacity:1"
       d="m 69.087168,346.52579 c -0.42587,-1.3418 -5.008574,-3.15114 -8.099036,-4.84117 -3.079228,-1.68389 -0.413634,-1.36776 5.249989,-1.90286 1.944543,-0.18372 8.598924,-1.1667 13.599179,-1.99534 10.491288,-1.73861 13.247033,-2.98453 14.595978,-5.58084 1.079651,-2.078 1.267198,-5.65147 0.18722,-9.17691 -0.421526,-1.376 -1.282253,-4.09175 -1.200653,-4.17335 0.0816,-0.0816 2.305354,0.72191 3.633517,1.17446 2.232254,0.76061 2.24552,0.99441 3.843378,0.23287 4.04704,-1.9299 7.8503,-0.40355 10.78504,5.27169 1.17332,2.26899 1.46518,2.69312 1.46518,0.0391 0,-1.23367 0.39285,-3.03387 0.62547,-3.17765 0.73574,-0.45471 5.32948,3.93735 4.98466,4.83595 -0.17186,0.44785 -0.24287,2.86151 0.20967,4.92092 0.76387,3.47632 0.27665,4.49885 -0.50133,5.68614 -1.93667,2.95573 -5.76622,3.85963 -26.951808,6.83372 -8.047517,1.12973 -16.026866,2.62681 -17.623857,3.1648 -3.574147,1.20404 -3.716643,1.26193 -4.084432,0.10314 z"
       id="path6743"
       inkscape:connector-curvature="0"
       transform="translate(294.1251,155.36056)"
       sodipodi:nodetypes="cssssssscssccccsscc" />
    <path
       style="opacity:1;fill:#cc1432;fill-opacity:1;stroke:#000000;stroke-width:0.00558036;stroke-miterlimit:4;stroke-dasharray:none;stroke-opacity:1"
       d="m 130.46653,112.55596 c -0.037,-0.0142 -0.91361,-0.11954 -1.28348,-0.15425 -0.59788,-0.0561 -1.3702,-0.10123 -2.08285,-0.12172 -0.37827,-0.0109 -0.69603,-0.028 -0.69603,-0.028 0,0 0.8573,-0.22083 1.9152,-0.48063 1.0579,-0.25981 2.22816,-0.54254 2.22816,-0.54254 0.007,-0.001 0.38115,1.34856 0.38115,1.34856 0,0 -0.43515,-0.0108 -0.46212,-0.0218 z"
       id="path6754"
       inkscape:connector-curvature="0"
       transform="translate(294.1251,155.36056)"
       sodipodi:nodetypes="ccccssccc" />
    <path
       style="opacity:1;fill:#cc1432;fill-opacity:1;stroke:#000000;stroke-width:0.01116071;stroke-miterlimit:4;stroke-dasharray:none;stroke-opacity:1"
       d="m 104.7856,106.12165 c -0.18416,-0.0322 -0.58259,-0.0754 -0.88542,-0.077 -0.30283,-0.002 -0.69624,0.0386 -0.68805,0.0176 0.0211,-0.0542 0.87684,-1.08027 0.90382,-1.0834 0,0 0.32032,0.28419 0.62724,0.57738 0.30692,0.29319 0.67243,0.67217 0.6356,0.67031 -0.17589,0.0312 -0.44665,-0.0823 -0.59319,-0.10485 z"
       id="path6756"
       inkscape:connector-curvature="0"
       transform="translate(294.1251,155.36056)"
       sodipodi:nodetypes="ccccscc" />
    <path
       style="opacity:1;fill:#cc1432;fill-opacity:1;stroke:#000000;stroke-width:0.01116071;stroke-miterlimit:4;stroke-dasharray:none;stroke-opacity:1"
       d="m 89.09444,113.75002 c 0.01156,-0.0442 0.188501,-0.87121 0.440952,-1.93806 0.25245,-1.06685 0.503463,-2.06404 0.519613,-2.08229 0.02197,-0.0248 3.084096,1.3703 3.183323,1.44845 0.03899,0.0307 -0.253857,0.32082 -0.617658,0.57996 -1.07213,0.76371 -3.466126,2.28714 -3.561173,2.28714 -0.01412,-0.0755 0.03494,-0.2952 0.03494,-0.2952 z"
       id="path6758"
       inkscape:connector-curvature="0"
       transform="translate(294.1251,155.36056)"
       sodipodi:nodetypes="csccscc" />
    <path
       inkscape:connector-curvature="0"
       id="path4188-7"
       d="m 447.0534,380.54931 c -3.17846,4.8337 -6.05021,12.68152 -18.08445,16.31577 -10.79802,3.26092 -35.03919,-0.91835 -40.45931,-1.28872 l -6.49864,-4.27378 17.18736,3.34635 c 34.79115,1.45167 31.6555,-4.34615 38.99126,-8.38557 2.56067,-3.38191 5.36542,-5.84847 8.86378,-5.71405 z"
       style="opacity:0.25;fill:#000000;fill-opacity:1;fill-rule:evenodd;stroke:none;stroke-width:1px;stroke-linecap:butt;stroke-linejoin:miter;stroke-opacity:1"
       sodipodi:nodetypes="csccccc" />
    <path
       style="fill:none;fill-rule:evenodd;stroke:#000000;stroke-width:1px;stroke-linecap:butt;stroke-linejoin:miter;stroke-opacity:1"
       d="m 470.53043,432.05311 5.03109,15.15617 0.96891,17.96883"
       id="path4211"
       inkscape:connector-curvature="0"
       sodipodi:nodetypes="ccc" />
    <path
       sodipodi:nodetypes="csscccccc"
       style="opacity:0.25;fill:#000000;fill-opacity:1;fill-rule:evenodd;stroke:none;stroke-width:1px;stroke-linecap:butt;stroke-linejoin:miter;stroke-opacity:1"
       d="m 466.86555,425.60434 c 5.50288,8.0207 8.45112,28.40895 5.5663,43.9237 -0.45072,2.424 13.17663,20.29507 12.72238,22.42648 0,0 15.62068,31.13955 14.23526,34.29453 l -20.97211,-26.06463 -11.77193,-10.74861 -9.21108,-11.68355 8.65051,-37.044 z"
       id="path4188-5"
       inkscape:connector-curvature="0" />
    <path
       inkscape:connector-curvature="0"
       id="path4188-7-3"
       d="m 466.58564,430.93243 c 0.75018,11.68038 -20.18286,18.03267 -22.82149,17.76189 l -2.87472,-3.30151 c 14.18994,-3.61191 9.72897,-1.18079 16.39309,-5.23116 7.33364,-5.06129 9.30312,-9.22922 9.30312,-9.22922 z"
       style="opacity:0.25;fill:#000000;fill-opacity:1;fill-rule:evenodd;stroke:none;stroke-width:1px;stroke-linecap:butt;stroke-linejoin:miter;stroke-opacity:1"
       sodipodi:nodetypes="ccccc" />
    <path
       inkscape:connector-curvature="0"
       id="path4188-7-3-0"
       d="m 427.52507,449.26646 c 0,0 3.72165,0.86765 2.751,1.65894 -2.71012,2.20932 -12.79563,3.19196 -16.02655,3.46342 l 7.33119,-3.84809 c 3.88649,-1.52576 5.94436,-1.27427 5.94436,-1.27427 z"
       style="opacity:0.25;fill:#000000;fill-opacity:1;fill-rule:evenodd;stroke:none;stroke-width:1px;stroke-linecap:butt;stroke-linejoin:miter;stroke-opacity:1"
       sodipodi:nodetypes="csccc" />
  </g>
</svg>
