<?xml version="1.0" encoding="UTF-8" standalone="no"?>
<svg
   xmlns:dc="http://purl.org/dc/elements/1.1/"
   xmlns:cc="http://creativecommons.org/ns#"
   xmlns:rdf="http://www.w3.org/1999/02/22-rdf-syntax-ns#"
   xmlns:svg="http://www.w3.org/2000/svg"
   xmlns="http://www.w3.org/2000/svg"
   version="1.1"
   id="svg3670"
   viewBox="0 0 127.99999 128"
   height="128"
   width="128">
  <defs
     id="defs3672" />
  <metadata
     id="metadata3675">
    <rdf:RDF>
      <cc:Work
         rdf:about="">
        <dc:format>image/svg+xml</dc:format>
        <dc:type
           rdf:resource="http://purl.org/dc/dcmitype/StillImage" />
        <dc:title></dc:title>
      </cc:Work>
    </rdf:RDF>
  </metadata>
  <g
     transform="translate(-271.73717,-103.7678)"
     id="layer1">
    <g
       transform="matrix(1.5207918,0,0,1.5207918,-174.84917,-87.372092)"
       id="g3710">
      <g
         transform="matrix(2.0511772,0,0,-2.0511772,341.97188,172.2897)"
         id="g226">
        <path
           id="path228"
           style="fill:#2b93dd;fill-opacity:1;fill-rule:nonzero;stroke:none"
           d="m 0,0 -0.406,-0.799 -4.98,-9.79 c 2.364,0.444 4.822,1.209 7.263,2.36 0.631,0.297 1.232,0.622 1.827,0.951 L 0.407,-0.799 0,0 Z" />
      </g>
      <g
         transform="matrix(2.0511772,0,0,-2.0511772,341.97352,160.86976)"
         id="g230">
        <path
           id="path232"
           style="fill:#2b93dd;fill-opacity:1;fill-rule:nonzero;stroke:none"
           d="M 0,0 0.406,0.797 5.02,9.838 C 2.176,10.014 -1.041,9.577 -4.335,8.495 L -0.407,0.797 0,0 Z" />
      </g>
      <g
         transform="matrix(2.0511772,0,0,-2.0511772,319.7447,157.82212)"
         id="g234">
        <path
           id="path236"
           style="fill:#2b93dd;fill-opacity:1;fill-rule:nonzero;stroke:none"
           d="m 0,0 c -0.656,0 -1.186,0.531 -1.186,1.185 0,10e-4 0,0.002 0,0.003 0,0.001 10e-4,0.002 10e-4,0.003 0,0.002 -10e-4,0.004 -10e-4,0.006 0,10e-4 0,0.002 0,0.003 0,0.001 0,0.001 0,0.002 0,0.645 0.522,1.168 1.168,1.168 10e-4,0 0.002,-10e-4 0.003,-10e-4 10e-4,0 0.002,10e-4 0.003,10e-4 0.002,0 0.004,-10e-4 0.006,-10e-4 0.001,0 0.002,0 0.003,0 0.001,0 0.002,10e-4 0.003,10e-4 0.654,0 1.183,-0.531 1.185,-1.185 C 1.185,0.531 0.654,0 0,0 m 1.149,-14.178 -1.889,0 -0.424,0 0,12.15 2.313,0 0,-12.15 z M 9.347,-4.316 9.24,-4.107 4.009,6.073 C 3.632,5.916 3.256,5.759 2.881,5.583 -6.704,1.067 -12.27,-7.266 -9.554,-13.029 c 1.706,-3.621 6.287,-5.344 11.828,-5.02 l 6.966,13.524 0.107,0.209 z" />
      </g>
      <g
         transform="matrix(2.0511772,0,0,-2.0511772,357.96122,141.50049)"
         id="g238">
        <path
           id="path240"
           style="fill:#2b93dd;fill-opacity:1;fill-rule:nonzero;stroke:none"
           d="m 0,0 -6.195,-12.064 -0.106,-0.208 0.107,-0.21 4.349,-8.444 C 5.158,-16.239 8.82,-9.515 6.517,-4.63 5.399,-2.259 3.041,-0.707 0,0" />
      </g>
      <g
         transform="matrix(2.0511772,0,0,-2.0511772,345.03716,166.67315)"
         id="g242">
        <path
           id="path244"
           style="fill:#ffffff;fill-opacity:1;fill-rule:nonzero;stroke:none"
           d="M 0,0 0.106,0.208 6.301,12.272 C 6.159,12.305 6.024,12.347 5.88,12.376 5.274,12.498 4.641,12.585 3.989,12.64 3.837,12.654 3.68,12.657 3.527,12.667 L -1.087,3.627 -1.494,2.829 -1.901,3.627 -5.829,11.324 C -5.964,11.28 -6.1,11.242 -6.236,11.195 c -0.565,-0.194 -1.13,-0.405 -1.697,-0.637 -0.13,-0.054 -0.26,-0.115 -0.389,-0.17 l 5.231,-10.18 0.107,-0.209 -0.107,-0.209 -6.966,-13.523 c 0.165,0.01 0.326,0.015 0.492,0.028 0.705,0.056 1.425,0.147 2.156,0.269 0.174,0.03 0.353,0.076 0.529,0.109 l 4.979,9.79 0.407,0.799 0.407,-0.799 3.296,-6.479 c 0.122,0.067 0.255,0.127 0.375,0.196 0.523,0.297 1.03,0.605 1.521,0.924 0.12,0.078 0.232,0.163 0.351,0.242 L 0.107,-0.21 0,0 Z" />
      </g>
      <g
         transform="matrix(2.0511772,0,0,-2.0511772,317.35816,186.90412)"
         id="g246">
        <path
           id="path248"
           style="fill:#ffffff;fill-opacity:1;fill-rule:nonzero;stroke:none"
           d="m 0,0 0.423,0 1.889,0 0,12.15 L 0,12.15 0,0 Z" />
      </g>
      <g
         transform="matrix(2.0511772,0,0,-2.0511772,319.76255,152.91797)"
         id="g250">
        <path
           id="path252"
           style="fill:#ffffff;fill-opacity:1;fill-rule:nonzero;stroke:none"
           d="m 0,0 c -0.001,0 -0.002,0 -0.003,0 -0.001,0 -0.002,-0.001 -0.003,-0.001 -0.668,-0.003 -1.206,-0.542 -1.209,-1.208 0,-10e-4 -10e-4,-0.002 -10e-4,-0.003 0,-0.001 0,-0.002 0,-0.003 0,-0.67 0.543,-1.214 1.216,-1.214 0.671,0 1.214,0.544 1.214,1.214 C 1.213,-0.544 0.671,0 0,0" />
      </g>
    </g>
  </g>
</svg>
