<?xml version="1.0" encoding="UTF-8" standalone="no"?>
<svg
   xmlns:dc="http://purl.org/dc/elements/1.1/"
   xmlns:cc="http://creativecommons.org/ns#"
   xmlns:rdf="http://www.w3.org/1999/02/22-rdf-syntax-ns#"
   xmlns:svg="http://www.w3.org/2000/svg"
   xmlns="http://www.w3.org/2000/svg"
   xmlns:sodipodi="http://sodipodi.sourceforge.net/DTD/sodipodi-0.dtd"
   xmlns:inkscape="http://www.inkscape.org/namespaces/inkscape"
   viewBox="0 0 268.63391 55.638709"
   height="55.63871"
   width="268.63391"
   xml:space="preserve"
   id="svg2"
   version="1.1"
   inkscape:version="0.92.3 (2405546, 2018-03-11)"
   sodipodi:docname="truenas-logo-ondark6.svg"><sodipodi:namedview
     pagecolor="#ffffff"
     bordercolor="#666666"
     borderopacity="1"
     objecttolerance="10"
     gridtolerance="10"
     guidetolerance="10"
     inkscape:pageopacity="0"
     inkscape:pageshadow="2"
     inkscape:window-width="847"
     inkscape:window-height="480"
     id="namedview24"
     showgrid="false"
     inkscape:zoom="0.79081633"
     inkscape:cx="73.341924"
     inkscape:cy="33.756558"
     inkscape:window-x="835"
     inkscape:window-y="335"
     inkscape:window-maximized="0"
     inkscape:current-layer="svg2" /><metadata
     id="metadata8"><rdf:RDF><cc:Work
         rdf:about=""><dc:format>image/svg+xml</dc:format><dc:type
           rdf:resource="http://purl.org/dc/dcmitype/StillImage" /><dc:title /></cc:Work></rdf:RDF></metadata><defs
     id="defs6"><clipPath
       id="clipPath38"
       clipPathUnits="userSpaceOnUse"><path
         id="path36"
         d="M 0,82.574 H 293.469 V 0.06 H 0 Z"
         inkscape:connector-curvature="0" /></clipPath><clipPath
       clipPathUnits="userSpaceOnUse"
       id="clipPath27"><rect
         style="fill:#00000a;fill-opacity:1;stroke-width:0.75"
         id="rect29"
         width="140.3613"
         height="116.65161"
         x="-60.696774"
         y="-99.580643"
         transform="scale(1,-1)" /></clipPath><clipPath
       clipPathUnits="userSpaceOnUse"
       id="clipPath55"><rect
         style="fill:#00000a;fill-opacity:1;stroke-width:0.75"
         id="rect57"
         width="236.14838"
         height="90.096771"
         x="85.354843"
         y="-83.458061"
         transform="scale(1,-1)" /></clipPath><clipPath
       clipPathUnits="userSpaceOnUse"
       id="clipPath68"><rect
         style="fill:#00000a;fill-opacity:1;stroke-width:0.75"
         id="rect70"
         width="204.85161"
         height="110.96129"
         x="97.683876"
         y="-97.743874"
         transform="scale(1,-1)" /></clipPath><clipPath
       clipPathUnits="userSpaceOnUse"
       id="clipPath74"><rect
         style="fill:#00000a;fill-opacity:1;stroke-width:0.75"
         id="rect76"
         width="218.12904"
         height="60.696774"
         x="84.406456"
         y="-69.292259"
         transform="scale(1,-1)" /></clipPath><clipPath
       clipPathUnits="userSpaceOnUse"
       id="clipPath80"><rect
         style="fill:#00000a;fill-opacity:1;stroke-width:0.75"
         id="rect82"
         width="207.69676"
         height="41.729034"
         x="91.993553"
         y="-57.911613"
         transform="scale(1,-1)" /></clipPath></defs><g
     transform="matrix(1.3333333,0,0,-1.3333333,-122.65807,77.215483)"
     id="g10"
     style="fill:#ffffff"
     clip-path="url(#clipPath80)"><path
       id="path12"
       style="fill:#ffffff;fill-opacity:1;fill-rule:nonzero;stroke:none"
       d="m 169.627,36.455 c 0,0 -0.002,0 -0.006,0 0.004,0 0.004,0 0.006,0"
       inkscape:connector-curvature="0" /><path
       id="path14"
       style="fill:#ffffff;fill-opacity:1;fill-rule:nonzero;stroke:none"
       d="m 136.107,37.748 -0.002,0.627 c 0,0.004 0,0.008 0,0.012 l -0.012,2.435 c 0,0.002 0,0.002 0,0.002 0,1.524 -1.196,1.43 -1.196,1.43 -7.442,0.117 -7.936,-3.68 -7.936,-3.68 v 1.33 c 0,0.018 0,0.034 0,0.051 v 0.803 c 0,0.76 -0.622,1.381 -1.382,1.381 h -3.106 c -0.761,0 -1.383,-0.621 -1.383,-1.381 V 20.467 c 0,-0.76 0.622,-1.381 1.383,-1.381 h 3.106 c 0.76,0 1.382,0.621 1.382,1.381 v 6.045 c 0,0.76 0.062,2 0.139,2.756 0,0 0.356,3.502 1.541,5.257 0.04,0.055 0.078,0.114 0.12,0.167 1.287,1.701 3.297,2.498 5.575,2.482 0.296,0 0.595,-0.016 0.899,-0.045 0,0 0.872,-0.168 0.872,0.619"
       inkscape:connector-curvature="0" /><path
       id="path16"
       style="fill:#ffffff;fill-opacity:1;fill-rule:nonzero;stroke:none"
       d="m 158.973,42.139 h -2.737 c -0.76,0 -1.381,-0.621 -1.381,-1.381 v -9.024 c 0,-0.759 -0.045,-2 -0.099,-2.757 0,0 -0.194,-2.639 -1.016,-4.086 -0.029,-0.049 -0.059,-0.098 -0.09,-0.147 -0.914,-1.412 -2.429,-2.041 -4.066,-2.019 -0.807,0 -1.556,0.133 -2.236,0.453 -0.679,0.318 -1.278,0.844 -1.706,1.527 -0.029,0.047 -0.056,0.096 -0.084,0.145 -0.779,1.443 -0.946,4.125 -0.946,4.125 -0.047,0.758 -0.085,2 -0.085,2.759 v 9.024 c 0,0.76 -0.622,1.381 -1.382,1.381 h -2.735 c -0.761,0 -1.382,-0.621 -1.382,-1.381 V 30.551 c 0,-4.559 0.922,-7.609 2.503,-9.408 1.574,-1.815 4.229,-2.868 8.182,-2.869 3.937,10e-4 6.576,1.058 8.144,2.876 1.58,1.809 2.498,4.86 2.498,9.401 v 10.207 c 0,0.76 -0.623,1.381 -1.382,1.381"
       inkscape:connector-curvature="0" /><path
       id="path18"
       style="fill:#ffffff;fill-opacity:1;fill-rule:nonzero;stroke:none"
       d="m 170.002,32.438 c 0,0 -0.002,0 -0.006,0 0.002,0 0.004,0 0.006,0"
       inkscape:connector-curvature="0" /><path
       id="path20"
       style="fill:#ffffff;fill-opacity:1;fill-rule:nonzero;stroke:none"
       d="m 168.619,32.434 c 0,0.002 0,0.004 0,0.004 0.74,3.298 3.689,5.771 7.205,5.771 3.524,0 6.477,-2.48 7.209,-5.785 -3.041,0.004 -10.424,0.008 -14.414,0.01 z m 13.463,-10.887 -2.223,1.818 c -0.83,0.692 -1.785,0.422 -1.785,0.422 -0.709,-0.226 -1.465,-0.351 -2.25,-0.351 -3.072,0 -5.713,1.888 -6.824,4.564 0,0.002 0,0.002 0,0.002 l 17.578,0.004 c 1.953,0 1.982,2.594 1.982,2.594 0.002,0.074 0.004,0.148 0.004,0.222 0,7.037 -5.703,12.741 -12.74,12.741 -7.035,0 -12.738,-5.704 -12.738,-12.741 0,-7.037 5.703,-12.74 12.738,-12.74 2.225,0 4.315,0.573 6.133,1.572 1.516,0.934 0.125,1.893 0.125,1.893"
       inkscape:connector-curvature="0" /><path
       id="path22"
       style="fill:#ffffff;fill-opacity:1;fill-rule:nonzero;stroke:none"
       d="m 246.715,33.754 c -0.053,0 -0.719,0 -1.479,0 h -4.185 c -0.76,0 -1.426,0 -1.481,0 -0.053,0 -0.082,0.043 -0.064,0.094 0.017,0.051 0.246,0.677 0.504,1.39 l 1.949,5.37 c 0.26,0.714 0.613,1.689 0.785,2.164 0.174,0.477 0.344,0.947 0.379,1.045 0.035,0.097 0.094,0.097 0.129,0 0.037,-0.098 0.207,-0.568 0.381,-1.045 0.173,-0.475 0.521,-1.452 0.773,-2.168 l 1.883,-5.362 c 0.252,-0.717 0.473,-1.343 0.49,-1.394 0.018,-0.051 -0.012,-0.094 -0.064,-0.094 z m 12.093,-14.512 c 0.76,0 1.153,0.579 0.873,1.286 l -12.863,32.497 c -0.281,0.708 -1.131,1.286 -1.89,1.286 h -3.455 c -0.76,0 -1.614,-0.577 -1.897,-1.282 l -7.199,-17.906 c -0.283,-0.705 -0.752,-1.857 -1.039,-2.56 L 230.332,30.1 c -0.289,-0.703 -0.742,-1.862 -1.01,-2.572 l -2.629,-6.993 c -0.267,-0.711 0.135,-1.293 0.895,-1.293 h 5.517 c 0.76,0 1.578,0.59 1.819,1.311 l 2.355,7.055 c 0.24,0.72 0.445,1.33 0.453,1.357 0.01,0.025 0.039,0.047 0.067,0.047 0.027,0 0.672,0 1.431,0 H 247 c 0.76,0 1.402,0 1.43,0 0.027,0 0.056,-0.022 0.066,-0.047 0.008,-0.025 0.223,-0.633 0.475,-1.35 l 2.482,-7.068 c 0.252,-0.717 1.08,-1.305 1.84,-1.305 h 5.515"
       inkscape:connector-curvature="0" /><path
       id="path24"
       style="fill:#ffffff;fill-opacity:1;fill-rule:nonzero;stroke:none"
       d="m 124.069,51.067 c 0.76,-0.002 1.382,0.619 1.382,1.378 l -0.002,3.09 c 0,0.76 -0.621,1.381 -1.381,1.381 h -22.776 c -0.759,0 -1.381,-0.621 -1.381,-1.381 v -3.09 c 0,-0.759 0.622,-1.382 1.381,-1.382 h 6.715 c 0.759,0 1.382,-0.621 1.382,-1.381 v -29.27 c 0,-0.76 0.621,-1.381 1.381,-1.381 h 3.822 c 0.759,0 1.381,0.621 1.381,1.381 v 29.283 c 0,0.76 0.622,1.381 1.382,1.379 l 6.714,-0.007"
       inkscape:connector-curvature="0" /><path
       id="path26"
       style="fill:#ffffff;fill-opacity:1;fill-rule:nonzero;stroke:none"
       d="m 197.32,54.223 c 0.76,0 1.736,-0.512 2.17,-1.135 l 16.863,-24.25 c 0.434,-0.623 0.789,-0.512 0.789,0.248 l 0.014,23.742 c 0,0.76 0.621,1.383 1.381,1.385 l 3.785,0.006 c 0.76,0.002 1.381,-0.619 1.381,-1.379 V 20.469 c 0,-0.76 -0.621,-1.383 -1.381,-1.383 h -4.467 c -0.759,0 -1.738,0.51 -2.172,1.133 l -16.902,24.185 c -0.433,0.624 -0.791,0.51 -0.791,-0.25 V 20.469 c 0,-0.76 -0.621,-1.383 -1.381,-1.383 h -3.822 c -0.76,0 -1.381,0.623 -1.381,1.383 v 27.304 c -0.5,4.516 -7.592,6.469 -7.592,6.469 l 13.506,-0.019"
       inkscape:connector-curvature="0" /><path
       id="path28"
       style="fill:#ffffff;fill-opacity:1;fill-rule:nonzero;stroke:none"
       d="m 284.943,36.072 c -1.476,1.547 -3.381,2.911 -7.269,3.875 -0.155,0.037 -0.362,0.088 -0.618,0.153 -2.089,0.513 -3.724,1.117 -4.968,1.943 -1.227,0.795 -2.139,2.016 -2.127,3.428 -0.035,1.31 0.754,2.582 1.929,3.271 1.168,0.723 2.594,1.012 4.186,1.014 1.518,0 3.035,-0.293 4.518,-0.856 0.658,-0.25 0.828,-0.349 1.451,-0.695 0,0 1.105,-0.67 1.709,0.737 l 1.072,2.345 c 0.57,1.172 -0.67,1.809 -0.67,1.809 -1.058,0.529 -1.795,0.773 -2.933,1.096 -1.823,0.513 -3.788,0.775 -5.909,0.775 -3.927,-0.01 -6.881,-0.986 -9.148,-2.873 -2.252,-1.908 -3.338,-4.248 -3.36,-7.436 0.012,-2.588 0.764,-4.472 2.227,-5.951 1.467,-1.48 3.951,-2.742 7.537,-3.613 2.912,-0.719 4.836,-1.354 6.123,-2.365 1.209,-0.977 1.809,-2.454 1.791,-3.993 0.024,-1.509 -0.691,-2.959 -1.941,-3.904 -1.237,-0.971 -2.84,-1.42 -4.567,-1.412 -2.011,-0.002 -3.941,0.432 -5.709,1.291 -0.736,0.357 -1.457,0.791 -2.158,1.295 -1.627,0.973 -2.418,-0.191 -2.418,-0.191 l -1.242,-1.799 c 0,0 -1.184,-1.35 0.397,-2.477 h -0.002 c 0.004,-0.002 0.019,-0.014 0.025,-0.017 0.021,-0.014 0.039,-0.03 0.062,-0.045 0.27,-0.18 0.54,-0.35 0.807,-0.516 0.348,-0.225 0.676,-0.437 0.715,-0.461 2.457,-1.502 5.33,-2.254 8.613,-2.254 3.742,0 6.869,0.688 9.35,2.348 0.057,0.037 0.113,0.076 0.17,0.115 0.148,0.104 0.303,0.197 0.447,0.309 -0.002,0.006 -0.002,0.011 -0.004,0.015 0.141,0.104 0.289,0.2 0.424,0.309 2.527,2.07 3.752,4.668 3.773,8.232 -0.007,2.871 -0.796,4.946 -2.283,6.498"
       inkscape:connector-curvature="0" /><path
       id="path30"
       style="fill:#ffffff;fill-opacity:1;fill-rule:nonzero;stroke:none"
       d="m 288.056,50.83 c 0.127,-0.319 0.307,-0.597 0.534,-0.831 0.226,-0.235 0.494,-0.419 0.802,-0.553 0.307,-0.134 0.643,-0.201 1.004,-0.201 0.354,0 0.686,0.067 0.991,0.201 0.306,0.134 0.572,0.318 0.798,0.553 0.227,0.234 0.405,0.512 0.534,0.831 0.129,0.32 0.191,0.668 0.191,1.045 0,0.366 -0.062,0.707 -0.191,1.024 -0.129,0.316 -0.307,0.591 -0.534,0.824 -0.226,0.231 -0.492,0.414 -0.798,0.548 -0.305,0.134 -0.637,0.201 -0.991,0.201 -0.361,0 -0.697,-0.067 -1.004,-0.201 -0.308,-0.134 -0.576,-0.317 -0.802,-0.548 -0.227,-0.233 -0.407,-0.508 -0.534,-0.824 -0.128,-0.317 -0.193,-0.658 -0.193,-1.024 0,-0.377 0.065,-0.725 0.193,-1.045 z m -0.501,2.249 c 0.162,0.372 0.384,0.694 0.666,0.967 0.281,0.273 0.609,0.487 0.982,0.643 0.375,0.156 0.773,0.233 1.193,0.233 0.42,0 0.817,-0.077 1.188,-0.233 0.371,-0.156 0.695,-0.37 0.974,-0.643 0.278,-0.273 0.5,-0.595 0.665,-0.967 0.164,-0.371 0.246,-0.773 0.246,-1.204 0,-0.442 -0.082,-0.85 -0.246,-1.225 -0.165,-0.374 -0.387,-0.699 -0.665,-0.975 -0.279,-0.276 -0.603,-0.49 -0.974,-0.643 -0.371,-0.152 -0.768,-0.23 -1.188,-0.23 -0.42,0 -0.818,0.078 -1.193,0.23 -0.373,0.153 -0.701,0.367 -0.982,0.643 -0.282,0.276 -0.504,0.601 -0.666,0.975 -0.166,0.375 -0.249,0.783 -0.249,1.225 0,0.431 0.083,0.833 0.249,1.204"
       inkscape:connector-curvature="0" /><g
       style="fill:#ffffff"
       id="g32"><g
         style="fill:#ffffff"
         clip-path="url(#clipPath38)"
         id="g34"><path
           id="path40"
           style="fill:#ffffff;fill-opacity:1;fill-rule:nonzero;stroke:none"
           d="m 290.256,52.023 c 0.115,0 0.22,0.003 0.32,0.01 0.102,0.007 0.191,0.028 0.27,0.062 0.078,0.035 0.14,0.087 0.187,0.159 0.047,0.07 0.068,0.17 0.068,0.296 0,0.109 -0.019,0.195 -0.062,0.259 -0.041,0.063 -0.094,0.112 -0.16,0.147 -0.067,0.035 -0.143,0.057 -0.231,0.069 -0.084,0.013 -0.168,0.019 -0.252,0.019 h -0.662 v -1.021 z m 0.22,1.426 c 0.383,0 0.668,-0.076 0.85,-0.229 0.184,-0.152 0.277,-0.382 0.277,-0.69 0,-0.29 -0.082,-0.502 -0.244,-0.637 -0.16,-0.135 -0.363,-0.214 -0.601,-0.239 l 0.918,-1.419 h -0.536 l -0.876,1.382 h -0.53 v -1.382 h -0.498 v 3.214 h 1.24"
           inkscape:connector-curvature="0" /><path
           id="path42"
           style="fill:#ffffff;fill-opacity:1;fill-rule:nonzero;stroke:none"
           d="m 76.689,48.324 c -0.065,0.147 -0.211,0.239 -0.365,0.239 -0.045,0 -0.091,-0.008 -0.136,-0.025 -0.197,-0.072 -0.305,-0.283 -0.246,-0.484 0.012,-0.041 1.167,-4.066 1.376,-8.08 0,-1.857 -0.357,-3.288 -1.062,-4.252 -0.692,-0.946 -1.725,-1.424 -3.073,-1.424 -1.558,0 -3.501,0.627 -5.775,1.864 -0.268,0.165 -7.313,4.526 -14.027,10.566 -3.988,3.588 -7.08,7.057 -9.188,10.308 -2.606,4.02 -3.703,7.708 -3.26,10.961 10e-4,0.008 0.002,0.015 0.002,0.022 10e-4,0.002 10e-4,0.004 10e-4,0.007 1.019,5.206 5.164,9.849 12.323,13.802 0.169,0.093 0.246,0.293 0.185,0.476 -0.056,0.163 -0.209,0.27 -0.377,0.27 -0.019,0 -0.039,-0.001 -0.059,-0.004 C 40.701,80.742 31.914,76.251 26.892,69.22 24.367,65.686 22.829,61.552 22.32,56.93 c -0.425,-3.851 -0.041,-7.236 0.359,-9.405 0.012,-0.152 0.028,-0.316 0.044,-0.493 0.215,-2.334 0.614,-6.681 -1.7,-9.217 -1.251,-1.371 -3.179,-2.067 -5.731,-2.067 -0.097,0 -0.195,0.002 -0.293,0.003 -3.522,0.247 -9.382,1.668 -9.166,8.414 0.047,0.435 0.099,0.817 0.159,1.167 1.307,7.639 7.051,16.033 7.11,16.118 0.113,0.164 0.086,0.388 -0.062,0.522 -0.076,0.067 -0.171,0.1 -0.266,0.1 -0.093,0 -0.185,-0.031 -0.26,-0.095 C 12.508,61.971 12.357,61.841 12.092,61.589 11.239,60.778 9.525,59.02 7.627,56.348 2.571,49.666 -2.6,38.243 1.461,21.767 1.463,21.759 1.486,21.67 1.536,21.508 L 1.549,21.467 C 2.394,18.695 3.619,16.141 5.192,13.881 8.22,9.526 12.257,6.605 17.189,5.197 18.221,4.904 19.288,4.675 20.36,4.521 21.463,4.36 22.543,4.28 23.571,4.28 c 7.203,0 12.884,3.811 18.999,12.743 0.007,0.008 0.012,0.017 0.018,0.028 0.016,0.028 1.616,2.809 4.199,5.549 2.356,2.5 6.038,5.479 10.2,5.479 2.628,0 5.191,-1.182 7.62,-3.513 C 70.25,18.385 68.855,9.26 61.051,1.311 L 60.999,1.269 C 60.918,1.203 60.838,1.136 60.755,1.069 60.608,0.949 60.46,0.83 60.308,0.71 60.141,0.578 60.108,0.337 60.233,0.165 60.311,0.057 60.432,0 60.556,0 c 0.075,0 0.152,0.021 0.219,0.065 l 0.056,0.038 0.047,0.033 c 0.195,0.129 0.389,0.26 0.58,0.391 0.647,0.442 1.289,0.904 1.908,1.368 5.77,4.335 10.063,9.475 12.758,15.274 2.157,4.644 3.3,9.715 3.398,15.075 0.166,9.115 -2.804,16.011 -2.833,16.08"
           inkscape:connector-curvature="0" /></g></g><path
       id="path44"
       style="fill:#ffffff;fill-opacity:1;fill-rule:nonzero;stroke:none"
       d="m 55.432,78.482 c 0.128,-0.319 0.307,-0.597 0.534,-0.831 0.226,-0.235 0.494,-0.419 0.802,-0.553 0.308,-0.134 0.644,-0.201 1.004,-0.201 0.355,0 0.686,0.067 0.991,0.201 0.306,0.134 0.572,0.318 0.799,0.553 0.227,0.234 0.405,0.512 0.534,0.831 0.127,0.32 0.191,0.668 0.191,1.045 0,0.366 -0.064,0.707 -0.191,1.024 -0.129,0.316 -0.307,0.591 -0.534,0.824 -0.227,0.231 -0.493,0.414 -0.799,0.548 -0.305,0.134 -0.636,0.201 -0.991,0.201 -0.36,0 -0.696,-0.067 -1.004,-0.201 -0.308,-0.134 -0.576,-0.317 -0.802,-0.548 -0.227,-0.233 -0.406,-0.508 -0.534,-0.824 -0.127,-0.317 -0.192,-0.658 -0.192,-1.024 0,-0.377 0.065,-0.725 0.192,-1.045 z m -0.502,2.249 c 0.164,0.372 0.386,0.693 0.667,0.967 0.281,0.273 0.609,0.487 0.983,0.643 0.374,0.156 0.772,0.233 1.192,0.233 0.42,0 0.817,-0.077 1.189,-0.233 0.37,-0.156 0.694,-0.37 0.973,-0.643 0.279,-0.274 0.501,-0.595 0.664,-0.967 0.166,-0.371 0.247,-0.773 0.247,-1.204 0,-0.442 -0.081,-0.851 -0.247,-1.225 -0.163,-0.374 -0.385,-0.699 -0.664,-0.975 -0.279,-0.276 -0.603,-0.49 -0.973,-0.643 -0.372,-0.152 -0.769,-0.23 -1.189,-0.23 -0.42,0 -0.818,0.078 -1.192,0.23 -0.374,0.153 -0.702,0.367 -0.983,0.643 -0.281,0.276 -0.503,0.601 -0.667,0.975 -0.165,0.374 -0.248,0.783 -0.248,1.225 0,0.431 0.083,0.833 0.248,1.204"
       inkscape:connector-curvature="0" /><path
       id="path46"
       style="fill:#ffffff;fill-opacity:1;fill-rule:nonzero;stroke:none"
       d="m 57.633,79.674 c 0.114,0 0.22,0.004 0.32,0.011 0.101,0.007 0.19,0.028 0.269,0.062 0.078,0.034 0.14,0.087 0.187,0.158 0.047,0.071 0.069,0.171 0.069,0.297 0,0.109 -0.02,0.195 -0.062,0.259 -0.041,0.063 -0.095,0.112 -0.161,0.147 -0.067,0.035 -0.143,0.057 -0.23,0.069 -0.085,0.013 -0.169,0.019 -0.252,0.019 H 57.11 v -1.022 z m 0.22,1.427 c 0.382,0 0.667,-0.076 0.85,-0.229 0.184,-0.152 0.276,-0.383 0.276,-0.69 0,-0.29 -0.081,-0.502 -0.244,-0.637 -0.16,-0.135 -0.363,-0.214 -0.601,-0.239 l 0.918,-1.419 h -0.536 l -0.877,1.382 H 57.11 v -1.382 h -0.498 v 3.214 h 1.241"
       inkscape:connector-curvature="0" /></g></svg>