<?xml version="1.0" encoding="UTF-8" standalone="no"?>
<svg
   xmlns:dc="http://purl.org/dc/elements/1.1/"
   xmlns:cc="http://creativecommons.org/ns#"
   xmlns:rdf="http://www.w3.org/1999/02/22-rdf-syntax-ns#"
   xmlns:svg="http://www.w3.org/2000/svg"
   xmlns="http://www.w3.org/2000/svg"
   id="svg2"
   version="1.1"
   xml:space="preserve"
   width="150.43124"
   height="53.75"
   viewBox="0 0 150.43124 53.75"><metadata
     id="metadata8"><rdf:RDF><cc:Work
         rdf:about=""><dc:format>image/svg+xml</dc:format><dc:type
           rdf:resource="http://purl.org/dc/dcmitype/StillImage" /><dc:title></dc:title></cc:Work></rdf:RDF></metadata><defs
     id="defs6"><clipPath
       clipPathUnits="userSpaceOnUse"
       id="clipPath36"><path
         d="m 0,42.493 180.37,0 0,-42.433 L 0,0.06 0,42.493 Z"
         id="path38" /></clipPath></defs><g
     style="fill:#343434;fill-opacity:1"
     id="g10"
     transform="matrix(1.25,0,0,-1.25,1.2512208e-4,53.75)"><path
       d="m -1.0009766e-4,9.182 2.29999999766,0 0,13.493 8.6050001,0 0,1.986 -8.6050001,0 0,6.487 10.4740001,0 0,1.951 -12.77400009766,0 0,-23.917"
       style="fill:#343434;fill-opacity:1;fill-rule:nonzero;stroke:none"
       id="path12" /><path
       d="m 18.2019,24.628 -0.211,-0.211 -0.017,2.158 -1.949,-1.939 0,-15.454 2.304,0 -0.004,10.912 c 0,2.25 1.83,4.08 4.08,4.08 l 2.656,0 0,1.951 -2.656,0 c -1.477,0 -3.181,-0.475 -4.203,-1.497"
       style="fill:#343434;fill-opacity:1;fill-rule:nonzero;stroke:none"
       id="path14" /><path
       d="m 30.8429,21.663 c 0,1.361 1.071,2.511 2.337,2.511 l 3.139,0 c 1.266,0 2.336,-1.15 2.336,-2.511 0,-1.232 -0.718,-2.188 -1.83,-2.436 l -5.982,-1.467 0,3.903 z m 6.499,-4.399 c 2.06,0.481 3.613,2.372 3.613,4.399 0,2.503 -2.036,4.462 -4.636,4.462 l -3.139,0 c -2.6,0 -4.636,-1.959 -4.636,-4.462 l 0,-5.997 c 0,-3.575 2.893,-6.484 6.45,-6.484 l 5.264,0 0,1.951 -5.264,0 c -2.289,0 -4.151,1.877 -4.151,4.185 l 0,0.366 6.499,1.58"
       style="fill:#343434;fill-opacity:1;fill-rule:nonzero;stroke:none"
       id="path16" /><path
       d="m 46.9849,21.663 c 0,1.361 1.07,2.511 2.336,2.511 l 3.139,0 c 1.266,0 2.336,-1.15 2.336,-2.511 0,-1.232 -0.718,-2.188 -1.83,-2.436 l -5.981,-1.467 0,3.903 z m 6.498,-4.399 c 2.06,0.481 3.613,2.372 3.613,4.399 0,2.503 -2.036,4.462 -4.636,4.462 l -3.139,0 c -2.6,0 -4.636,-1.959 -4.636,-4.462 l 0,-5.997 c 0,-3.575 2.893,-6.484 6.45,-6.484 l 5.264,0 0,1.951 -5.264,0 c -2.289,0 -4.15,1.877 -4.15,4.185 l 0,0.366 6.498,1.58"
       style="fill:#343434;fill-opacity:1;fill-rule:nonzero;stroke:none"
       id="path18" /><path
       d="m 73.4979,13.645 -10.398,19.454 -2.502,0 0,-23.917 2.3,0 0,19.489 10.433,-19.489 2.467,0 0,23.917 -2.3,0 0,-19.454"
       style="fill:#343434;fill-opacity:1;fill-rule:nonzero;stroke:none"
       id="path20" /><path
       d="m 84.6279,18.455 3.472,11.186 3.433,-11.186 -6.905,0 z m 2.256,14.644 -7.517,-23.917 2.414,0 2.267,7.322 8.101,0 2.266,-7.322 2.415,0 -7.516,23.917 -2.43,0"
       style="fill:#343434;fill-opacity:1;fill-rule:nonzero;stroke:none"
       id="path22" /><path
       d="m 108.8659,23.167 -4.652,0.976 c -1.436,0.291 -2.605,1.837 -2.605,3.448 0,1.928 1.626,3.557 3.55,3.557 l 7.822,0 0,1.951 -8.132,0 c -3.04,0 -5.513,-2.471 -5.513,-5.508 0,-2.717 1.723,-4.904 4.288,-5.444 l 4.824,-1.011 c 2.041,-0.442 3.638,-2.584 3.638,-4.877 0,-2.779 -2.32,-5.126 -5.066,-5.126 l -6.995,0 0,-1.951 7.305,0 c 3.857,0 6.995,3.175 6.995,7.077 0,3.336 -2.296,6.241 -5.459,6.908"
       style="fill:#343434;fill-opacity:1;fill-rule:nonzero;stroke:none"
       id="path24" /><path
       d="m 114.7339,32.745 0.984,0 0,-2.633 0.396,0 0,2.633 0.988,0 0,0.354 -2.368,0 0,-0.354"
       style="fill:#343434;fill-opacity:1;fill-rule:nonzero;stroke:none"
       id="path26" /><path
       d="m 119.8139,33.099 -0.716,-2.079 c -0.072,-0.21 -0.124,-0.369 -0.158,-0.478 -0.031,0.098 -0.078,0.245 -0.142,0.442 l -0.708,2.115 -0.595,0 0,-2.987 0.381,0 0,2.543 0.864,-2.543 0.356,0 0.868,2.499 0,-2.499 0.381,0 0,2.987 -0.531,0"
       style="fill:#343434;fill-opacity:1;fill-rule:nonzero;stroke:none"
       id="path28" /></g></svg>