<?xml version="1.0" encoding="UTF-8" standalone="no"?>
<!-- Generator: Adobe Illustrator 23.0.2, SVG Export Plug-In . SVG Version: 6.00 Build 0)  -->

<svg
   xmlns:dc="http://purl.org/dc/elements/1.1/"
   xmlns:cc="http://creativecommons.org/ns#"
   xmlns:rdf="http://www.w3.org/1999/02/22-rdf-syntax-ns#"
   xmlns:svg="http://www.w3.org/2000/svg"
   xmlns="http://www.w3.org/2000/svg"
   xmlns:sodipodi="http://sodipodi.sourceforge.net/DTD/sodipodi-0.dtd"
   xmlns:inkscape="http://www.inkscape.org/namespaces/inkscape"
   version="1.1"
   id="OnLight_TrueNAS_Logo"
   x="0px"
   y="0px"
   viewBox="0 0 73.971291 77.050003"
   xml:space="preserve"
   sodipodi:docname="TrueNAS_Logomark_OnDark.svg"
   width="73.971291"
   height="77.050003"
   inkscape:version="0.92.3 (2405546, 2018-03-11)"><metadata
   id="metadata21"><rdf:RDF><cc:Work
       rdf:about=""><dc:format>image/svg+xml</dc:format><dc:type
         rdf:resource="http://purl.org/dc/dcmitype/StillImage" /></cc:Work></rdf:RDF></metadata><defs
   id="defs19" /><sodipodi:namedview
   pagecolor="#ffffff"
   bordercolor="#666666"
   borderopacity="1"
   objecttolerance="10"
   gridtolerance="10"
   guidetolerance="10"
   inkscape:pageopacity="0"
   inkscape:pageshadow="2"
   inkscape:window-width="640"
   inkscape:window-height="480"
   id="namedview17"
   showgrid="false"
   inkscape:zoom="1.6388889"
   inkscape:cx="38.884594"
   inkscape:cy="38.52"
   inkscape:window-x="0"
   inkscape:window-y="0"
   inkscape:window-maximized="0"
   inkscape:current-layer="OnLight_TrueNAS_Logo" />
<style
   type="text/css"
   id="style2">
	.st0{fill:#FFFFFF;}
</style>
<g
   id="g14"
   transform="translate(-36.615406,-33.47)">
	<g
   id="g6">
		<path
   class="st0"
   d="m 107.95,65.59 c -0.06,-0.14 -0.2,-0.22 -0.34,-0.22 -0.04,0 -0.08,0.01 -0.13,0.02 -0.18,0.07 -0.28,0.26 -0.23,0.45 0.01,0.04 1.09,3.78 1.28,7.51 0,1.73 -0.33,3.06 -0.99,3.96 -0.64,0.88 -1.6,1.32 -2.86,1.32 -1.45,0 -3.26,-0.58 -5.37,-1.73 -0.25,-0.15 -6.8,-4.21 -13.05,-9.83 -3.71,-3.34 -6.58,-6.56 -8.55,-9.59 -2.42,-3.74 -3.44,-7.17 -3.03,-10.19 0,-0.01 0,-0.01 0,-0.02 0,0 0,0 0,-0.01 0.95,-4.84 4.8,-9.16 11.46,-12.84 0.16,-0.09 0.23,-0.27 0.17,-0.44 -0.05,-0.15 -0.19,-0.25 -0.35,-0.25 -0.02,0 -0.04,0 -0.05,0 -11.45,1.7 -19.62,5.88 -24.29,12.42 -2.35,3.29 -3.78,7.13 -4.25,11.43 -0.4,3.58 -0.04,6.73 0.33,8.75 0.01,0.14 0.03,0.29 0.04,0.46 0.2,2.17 0.57,6.21 -1.58,8.57 -1.16,1.28 -2.96,1.92 -5.33,1.92 -0.09,0 -0.18,0 -0.27,0 -3.28,-0.23 -8.73,-1.55 -8.52,-7.83 0.04,-0.4 0.09,-0.76 0.15,-1.09 1.22,-7.11 6.56,-14.91 6.61,-14.99 0.11,-0.15 0.08,-0.36 -0.06,-0.49 -0.07,-0.06 -0.16,-0.09 -0.25,-0.09 -0.09,0 -0.17,0.03 -0.24,0.09 -0.01,0.01 -0.15,0.13 -0.39,0.36 -0.79,0.75 -2.39,2.39 -4.15,4.87 -4.7,6.22 -9.51,16.84 -5.74,32.16 0,0.01 0.02,0.09 0.07,0.24 l 0.01,0.04 c 0.79,2.58 1.93,4.95 3.39,7.06 2.82,4.05 6.57,6.77 11.16,8.08 0.96,0.27 1.95,0.49 2.95,0.63 1.03,0.15 2.03,0.22 2.99,0.22 6.7,0 11.98,-3.54 17.67,-11.85 0.01,-0.01 0.01,-0.02 0.02,-0.03 0.01,-0.03 1.5,-2.61 3.91,-5.16 2.19,-2.33 5.62,-5.1 9.49,-5.1 2.44,0 4.83,1.1 7.09,3.27 5.25,5.75 3.95,14.24 -3.31,21.63 l -0.05,0.04 c -0.08,0.06 -0.15,0.12 -0.23,0.19 -0.14,0.11 -0.27,0.22 -0.42,0.33 -0.16,0.12 -0.19,0.35 -0.07,0.51 0.07,0.1 0.18,0.15 0.3,0.15 0.07,0 0.14,-0.02 0.2,-0.06 l 0.05,-0.03 0.04,-0.03 c 0.18,-0.12 0.36,-0.24 0.54,-0.36 0.6,-0.41 1.2,-0.84 1.78,-1.27 5.37,-4.03 9.36,-8.81 11.87,-14.21 2.01,-4.32 3.07,-9.04 3.16,-14.02 0.16,-8.47 -2.6,-14.89 -2.63,-14.95 z"
   id="path4"
   inkscape:connector-curvature="0"
   style="fill:#ffffff" />
	</g>
	<g
   id="g12">
		<path
   class="st0"
   d="m 88.78,35.31 c 0.16,-0.37 0.39,-0.69 0.67,-0.97 0.28,-0.27 0.61,-0.49 0.98,-0.64 0.37,-0.16 0.77,-0.23 1.19,-0.23 0.42,0 0.82,0.08 1.19,0.23 0.37,0.16 0.69,0.37 0.97,0.64 0.28,0.27 0.5,0.6 0.66,0.97 0.17,0.37 0.25,0.77 0.25,1.2 0,0.44 -0.08,0.85 -0.25,1.22 -0.16,0.37 -0.39,0.7 -0.66,0.98 -0.28,0.28 -0.6,0.49 -0.97,0.64 -0.37,0.15 -0.77,0.23 -1.19,0.23 -0.42,0 -0.82,-0.08 -1.19,-0.23 -0.37,-0.15 -0.7,-0.37 -0.98,-0.64 -0.28,-0.28 -0.5,-0.6 -0.67,-0.98 -0.17,-0.37 -0.25,-0.78 -0.25,-1.22 0,-0.43 0.08,-0.83 0.25,-1.2 z m 0.5,2.25 c 0.13,0.32 0.31,0.6 0.53,0.83 0.23,0.24 0.49,0.42 0.8,0.55 0.31,0.13 0.64,0.2 1,0.2 0.35,0 0.69,-0.07 0.99,-0.2 0.31,-0.13 0.57,-0.32 0.8,-0.55 0.23,-0.23 0.4,-0.51 0.53,-0.83 0.13,-0.32 0.19,-0.67 0.19,-1.04 0,-0.37 -0.06,-0.71 -0.19,-1.02 -0.13,-0.32 -0.31,-0.59 -0.53,-0.82 -0.23,-0.23 -0.49,-0.41 -0.8,-0.55 -0.3,-0.13 -0.64,-0.2 -0.99,-0.2 -0.36,0 -0.7,0.07 -1,0.2 -0.31,0.13 -0.58,0.32 -0.8,0.55 -0.23,0.23 -0.41,0.51 -0.53,0.82 -0.13,0.32 -0.19,0.66 -0.19,1.02 0,0.37 0.06,0.72 0.19,1.04 z"
   id="path8"
   inkscape:connector-curvature="0"
   style="fill:#ffffff" />
		<path
   class="st0"
   d="m 91.7,34.94 c 0.38,0 0.67,0.08 0.85,0.23 0.18,0.15 0.28,0.38 0.28,0.69 0,0.29 -0.08,0.5 -0.24,0.64 -0.16,0.13 -0.36,0.21 -0.6,0.24 l 0.92,1.42 h -0.54 l -0.88,-1.38 h -0.53 v 1.38 h -0.5 v -3.21 z m -0.22,1.42 c 0.11,0 0.22,0 0.32,-0.01 0.1,-0.01 0.19,-0.03 0.27,-0.06 0.08,-0.03 0.14,-0.09 0.19,-0.16 0.05,-0.07 0.07,-0.17 0.07,-0.3 0,-0.11 -0.02,-0.19 -0.06,-0.26 -0.04,-0.06 -0.09,-0.11 -0.16,-0.15 -0.07,-0.03 -0.14,-0.06 -0.23,-0.07 -0.08,-0.01 -0.17,-0.02 -0.25,-0.02 h -0.66 v 1.02 z"
   id="path10"
   inkscape:connector-curvature="0"
   style="fill:#ffffff" />
	</g>
</g>
</svg>