<svg id="disk-icon-large" xmlns="http://www.w3.org/2000/svg" xmlns:xlink="http://www.w3.org/1999/xlink" width="72" height="80" viewBox="0 0 72 80">
  <defs>
    <clipPath id="clip-path">
      <rect id="Mask_Rounded_Corners" data-name="Mask Rounded Corners" width="72" height="80" rx="4" transform="translate(-0.039)" fill="none" stroke="#414141" stroke-width="1"/>
    </clipPath>
    <filter id="BG_Fill" x="-9" y="-6" width="90" height="98" filterUnits="userSpaceOnUse">
      <feOffset dy="3" input="SourceAlpha"/>
      <feGaussianBlur stdDeviation="3" result="blur"/>
      <feFlood flood-opacity="0.161"/>
      <feComposite operator="in" in2="blur"/>
      <feComposite in="SourceGraphic"/>
    </filter>
  </defs>
  <g id="Normal" transform="translate(11)">
    <g id="BG_Masks" data-name="BG Masks" transform="translate(-10.961)" clip-path="url(#clip-path)">
      <g transform="matrix(1, 0, 0, 1, -0.04, 0)" filter="url(#BG_Fill)">
        <g id="BG_Fill-2" data-name="BG Fill" fill="#1e1e1e" stroke="#8f8f8f" stroke-width="1">
          <rect width="72" height="80" rx="4" stroke="none"/>
          <rect x="0.5" y="0.5" width="71" height="79" rx="3.5" fill="none"/>
        </g>
      </g>
      <rect id="BG_Top" data-name="BG Top" width="70.5" height="17.391" transform="translate(-0.039)" fill="rgba(255,255,255,0.5)" opacity="0.5"/>
      <path id="BG_Bottom" data-name="BG Bottom" d="M0,0H70.5V17.391H0Z" transform="translate(-0.039 62.609)" fill="rgba(255,255,255,0.5)" opacity="0.5"/>
    </g>
    @if (type() === DiskType.Hdd) {
      <g id="harddisk" transform="scale(1.2), translate(4 14)" opacity="0.5">
        <path id="harddisk-2" data-name="harddisk" d="M6.856,2H23.989a2.856,2.856,0,0,1,2.856,2.856V27.7a2.856,2.856,0,0,1-2.856,2.856H6.856A2.856,2.856,0,0,1,4,27.7V4.856A2.856,2.856,0,0,1,6.856,2Zm8.567,2.856a8.567,8.567,0,0,0-8.567,8.567,8.474,8.474,0,0,0,8.567,8.567l-1.428-2.856c-.394-.683.745-2.461,1.428-2.856h0c.683-.394,2.461-.683,2.856,0l2.856,4.283c1.963-1.57,2.856-4.43,2.856-7.139A8.567,8.567,0,0,0,15.422,4.856Zm0,7.139a1.428,1.428,0,1,1-1.428,1.428A1.428,1.428,0,0,1,15.422,11.995ZM8.283,24.845a1.428,1.428,0,1,0,1.428,1.428A1.428,1.428,0,0,0,8.283,24.845Zm7.139-7.139L19.706,27.7l2.856-2.856L16.85,17.706Z" transform="translate(0.098 3.322)" fill="#fff"/>
      </g>
    } @else if (type() === DiskType.Ssd) {
      <g id="ssd" transform="translate(-50 17.5) scale(0.5)" opacity="0.5">
        <path id="ssd-2" d="M 132.935 15.223 L 140.185 15.223 L 140.185 19.723 C 140.185 21.944 141.985 23.744 144.206 23.744 L 157.231 23.744 C 159.452 23.744 161.252 21.944 161.252 19.723 L 161.252 15.223 L 168.503 15.223 C 171.577 15.223 174.069 17.715 174.069 20.789 L 174.069 68.904 C 174.069 71.978 171.577 74.47 168.503 74.47 L 132.935 74.47 C 129.861 74.47 127.369 71.978 127.369 68.904 L 127.369 20.789 C 127.369 17.715 129.861 15.223 132.935 15.223 Z M 143.428 15.498 L 150.92 15.498 C 151.394 15.498 151.779 15.883 151.779 16.357 L 151.779 20.207 C 151.779 20.681 151.394 21.066 150.92 21.066 L 143.428 21.066 C 142.954 21.066 142.569 20.681 142.569 20.207 L 142.569 16.357 C 142.569 15.883 142.954 15.498 143.428 15.498 Z M 155.103 15.498 L 157.561 15.498 C 158.163 15.498 158.651 15.986 158.651 16.588 L 158.651 20.002 C 158.651 20.604 158.163 21.092 157.561 21.092 L 155.103 21.092 C 154.501 21.092 154.013 20.604 154.013 20.002 L 154.013 16.588 C 154.013 15.986 154.501 15.498 155.103 15.498 Z M 135.852 38.928 L 135.852 59.34 C 135.852 62.06 138.057 64.265 140.777 64.265 L 160.662 64.265 C 163.382 64.265 165.587 62.06 165.587 59.34 L 165.587 38.928 C 165.587 36.208 163.382 34.003 160.662 34.003 L 140.777 34.003 C 138.057 34.003 135.852 36.208 135.852 38.928 Z M 140.106 36.674 L 161.333 36.674 C 162.385 36.674 163.237 37.526 163.237 38.578 L 163.237 59.69 C 163.237 60.742 162.385 61.594 161.333 61.594 L 140.106 61.594 C 139.054 61.594 138.202 60.742 138.202 59.69 L 138.202 38.578 C 138.202 37.526 139.054 36.674 140.106 36.674 Z M 167.69 19.867 C 166.509 19.867 165.552 20.824 165.552 22.005 C 165.552 23.186 166.509 24.143 167.69 24.143 C 168.871 24.143 169.828 23.186 169.828 22.005 C 169.828 20.824 168.871 19.867 167.69 19.867 Z M 167.69 65.55 C 166.509 65.55 165.552 66.507 165.552 67.688 C 165.552 68.869 166.509 69.826 167.69 69.826 C 168.871 69.826 169.828 68.869 169.828 67.688 C 169.828 66.507 168.871 65.55 167.69 65.55 Z M 133.748 65.55 C 132.567 65.55 131.61 66.507 131.61 67.688 C 131.61 68.869 132.567 69.826 133.748 69.826 C 134.929 69.826 135.886 68.869 135.886 67.688 C 135.886 66.507 134.929 65.55 133.748 65.55 Z M 133.748 19.867 C 132.567 19.867 131.61 20.824 131.61 22.005 C 131.61 23.186 132.567 24.143 133.748 24.143 C 134.929 24.143 135.886 23.186 135.886 22.005 C 135.886 20.824 134.929 19.867 133.748 19.867 Z" style="fill: rgb(216, 216, 216);"></path>
      </g>
    }
    <g id="Labels" transform="translate(11.451 1.857)" opacity="0.998">
      <text id="disk-size" data-name="2 TiB" transform="translate(13 72.714)" fill="#fff" font-size="11" font-family="Inter" style="text-anchor: middle">
        <tspan x="0" y="0">{{ size() | ixFileSize }}</tspan>
      </text>
      <text id="disk-identifier" transform="translate(12.647 11)" fill="#fff" font-size="11" font-family="Inter" style="text-anchor: middle">
        <tspan x="0" y="0">{{ name() }}</tspan>
      </text>
    </g>
  </g>
</svg>
