<?xml version="1.0" encoding="UTF-8"?>
<svg id="ES24F" xmlns="http://www.w3.org/2000/svg" version="1.1" viewBox="0 0 1366.94 250.38">
  <defs>
    <style>
      .es24f-cls-1 {
        fill: #262626;
      }

      .es24f-cls-1, .es24f-cls-2, .es24f-cls-3, .es24f-cls-4, .es24f-cls-5, .es24f-cls-6, .es24f-cls-7, .es24f-cls-8, .es24f-cls-9, .es24f-cls-10, .es24f-cls-11, .es24f-cls-12, .es24f-cls-13 {
        stroke-width: .25px;
      }

      .es24f-cls-1, .es24f-cls-2, .es24f-cls-3, .es24f-cls-5, .es24f-cls-7, .es24f-cls-9, .es24f-cls-11, .es24f-cls-12, .es24f-cls-13 {
        stroke: #000;
      }

      .es24f-cls-1, .es24f-cls-2, .es24f-cls-3, .es24f-cls-5, .es24f-cls-9, .es24f-cls-11, .es24f-cls-12, .es24f-cls-13 {
        stroke-linecap: round;
        stroke-linejoin: round;
      }

      .es24f-cls-2 {
        fill: #000;
      }

      .es24f-cls-14, .es24f-cls-15, .es24f-cls-16, .es24f-cls-17, .es24f-cls-18 {
        stroke-width: 0px;
      }

      .es24f-cls-14, .es24f-cls-6 {
        fill: #cfcfce;
      }

      .es24f-cls-3 {
        fill: #2d2d2d;
      }

      .es24f-cls-4, .es24f-cls-6, .es24f-cls-7, .es24f-cls-8, .es24f-cls-10 {
        stroke-miterlimit: 10;
      }

      .es24f-cls-4, .es24f-cls-6, .es24f-cls-8, .es24f-cls-10 {
        stroke: #010101;
      }

      .es24f-cls-4, .es24f-cls-17 {
        fill: #010101;
      }

      .es24f-cls-15, .es24f-cls-10 {
        fill: none;
      }

      .es24f-cls-5, .es24f-cls-18 {
        fill: #fff;
      }

      .es24f-cls-16, .es24f-cls-7 {
        fill: #e6e7e8;
      }

      .es24f-cls-8 {
        fill: #454545;
      }

      .es24f-cls-9 {
        fill: #383838;
      }

      .es24f-cls-11 {
        fill: #0d0d0d;
      }

      .es24f-cls-12 {
        fill: #eaeaea;
      }

      .es24f-cls-13 {
        fill: #333;
      }

      /* Contrast Fixes */
      .sides {
        opacity: 0.75;
      }

      .chassis {
        opacity: 0.15;
      }

      /*#Controller_1_Indicators,
      #Controller_2_Indicators {
        opacity: 0.65;
      }*/
    </style>
  </defs>
  <g id="Chassis">
    <rect class="chassis es24f-cls-2" x="69.86" y="16.36" width="1227.22" height="212.15"/>
    <polygon class="chassis es24f-cls-12" points="1315.8 3.01 1315.8 22.8 1312.92 22.8 1312.92 5.89 1299.96 5.89 1299.96 247.37 66.98 247.37 66.98 5.89 54.02 5.89 54.02 22.8 51.14 22.8 51.14 3.01 69.86 3.01 69.86 244.49 1297.08 244.49 1297.08 3.01 1315.8 3.01"/>
    <polygon class="chassis es24f-cls-12" points="1318.68 .12 1318.68 22.8 1315.8 22.8 1315.8 3.01 51.14 3.01 51.14 22.8 48.26 22.8 48.26 .12 1318.68 .12"/>
    <rect class="chassis es24f-cls-12" x="69.86" y=".12" width="1227.22" height="2.88"/>
    <g class="sides">
      <g>
        <rect class="es24f-cls-13" x="1308.06" y="3.01" width="58.75" height="247.25"/>
        <rect class="es24f-cls-1" x="1299.96" y="3" width="8.1" height="51.66"/>
        <rect class="es24f-cls-1" x="1299.96" y="113.17" width="8.1" height="137.09"/>
        <rect class="es24f-cls-3" x="1302.77" y="44.76" width="5.29" height="39.6"/>
        <rect class="es24f-cls-3" x="1302.77" y="197.31" width="5.29" height="39.6"/>
        <rect class="es24f-cls-9" x="1312.38" y="25.22" width="54.43" height="119.52"/>
      </g>
      <g>
        <rect class="es24f-cls-11" x="1312.38" y="162.03" width="50.11" height="74.88"/>
        <path class="es24f-cls-5" d="M1322.57,189.99h0c0-5.44,4.41-9.84,9.85-9.84h10.04c5.44,0,9.85,4.41,9.85,9.84h0c0,5.44-4.41,9.84-9.85,9.84h-10.04c-5.44,0-9.85-4.41-9.85-9.84Z"/>
      </g>
      <g>
        <rect class="es24f-cls-13" x="1312.38" y="162.03" width="50.11" height="74.88"/>
        <circle class="es24f-cls-13" cx="1337.43" cy="173.29" r="1.8"/>
      </g>
    </g>
    <g class="sides">
      <g>
        <rect class="es24f-cls-13" x=".13" y="3.01" width="58.75" height="247.25"/>
        <rect class="es24f-cls-1" x="58.87" y="3.01" width="8.1" height="51.66"/>
        <rect class="es24f-cls-1" x="58.88" y="113.17" width="8.1" height="137.09"/>
        <rect class="es24f-cls-3" x="58.88" y="197.32" width="5.29" height="39.6"/>
        <g>
          <rect class="es24f-cls-9" x=".12" y="25.22" width="54.43" height="119.52"/>
          <circle class="es24f-cls-7" cx="15.68" cy="40.88" r="9.79"/>
          <circle class="es24f-cls-7" cx="15.68" cy="129.08" r="9.79"/>
          <g>
            <path class="es24f-cls-18" d="M16.05,54.95v2.99c0,.21-.17.37-.37.37s-.38-.17-.38-.37v-2.99c0-.21.18-.38.38-.38s.37.18.37.38Z"/>
            <g>
              <path class="es24f-cls-18" d="M15.68,53.24c-2.99,0-5.41,2.42-5.41,5.4s2.42,5.4,5.41,5.4,5.39-2.41,5.39-5.4-2.42-5.4-5.39-5.4ZM15.68,63.37c-2.61,0-4.74-2.12-4.74-4.73s2.13-4.73,4.74-4.73,4.73,2.12,4.73,4.73-2.12,4.73-4.73,4.73Z"/>
              <path class="es24f-cls-18" d="M18.8,58.87c0,1.75-1.4,3.17-3.12,3.17s-3.13-1.42-3.13-3.17c0-.84.33-1.63.92-2.23.14-.15.37-.16.53-.02.07.07.12.16.12.26s-.03.2-.1.26c-.47.48-.71,1.08-.71,1.72,0,1.33,1.07,2.41,2.38,2.41s2.37-1.08,2.37-2.41c0-.64-.24-1.24-.69-1.7-.07-.07-.12-.16-.12-.26s.04-.2.11-.26c.07-.08.16-.12.26-.12.09,0,.2.03.26.1.61.62.93,1.41.93,2.25h0Z"/>
            </g>
          </g>
          <g>
            <path class="es24f-cls-18" d="M10.23,105.54v9.99h1.16v-9.99h-1.16Z"/>
            <path class="es24f-cls-18" d="M19.82,106.83c-.86-.86-2.07-1.29-3.62-1.29h-3.06v9.99h2.76c1.69,0,2.97-.43,3.87-1.31.9-.87,1.34-2.13,1.34-3.78,0-1.54-.43-2.75-1.29-3.61ZM18.84,113.51c-.7.68-1.74,1.02-3.13,1.02h-1.41v-7.99h1.69c1.29,0,2.26.34,2.91,1,.66.66.98,1.64.98,2.94s-.35,2.35-1.04,3.03Z"/>
          </g>
          <circle class="es24f-cls-11" cx="14.63" cy="71.82" r="3.6"/>
          <circle class="es24f-cls-7" cx="46.37" cy="40.88" r="3.6"/>
          <g>
            <path class="es24f-cls-16" d="M46.36,45.6l-4.68,10.08h9.36l-4.68-10.08ZM46.36,46.71l3.91,8.42h-7.82l3.91-8.42Z"/>
            <rect class="es24f-cls-16" x="46.14" y="48.5" width=".45" height="4.63" rx=".19" ry=".19"/>
            <rect class="es24f-cls-16" x="45.99" y="53.84" width=".75" height=".75" rx=".37" ry=".37"/>
          </g>
          <g>
            <path class="es24f-cls-18" d="M6.62,149.29c-1.1,0-1.97.37-2.6,1.1s-.95,1.73-.95,3,.31,2.32.92,3.03c.61.71,1.49,1.07,2.62,1.07.7,0,1.49-.13,2.39-.38v1.02c-.69.26-1.55.39-2.56.39-1.47,0-2.61-.45-3.41-1.34s-1.2-2.16-1.2-3.81c0-1.03.19-1.93.58-2.71s.94-1.37,1.67-1.79,1.58-.63,2.57-.63c1.05,0,1.96.19,2.75.57l-.49,1c-.76-.36-1.51-.53-2.27-.53h-.02Z"/>
            <path class="es24f-cls-18" d="M14.25,158.39h-1.16v-8.96h-3.17v-1.03h7.49v1.03h-3.17v8.96h.01Z"/>
            <path class="es24f-cls-18" d="M20.08,154.23v4.16h-1.16v-9.99h2.74c1.23,0,2.13.23,2.72.7s.88,1.18.88,2.12c0,1.32-.67,2.21-2.01,2.68l2.71,4.49h-1.37l-2.42-4.16h-2.09ZM20.08,153.24h1.59c.82,0,1.42-.16,1.8-.49s.57-.81.57-1.47-.19-1.14-.58-1.43-1.02-.44-1.88-.44h-1.51v3.82h.01Z"/>
            <path class="es24f-cls-18" d="M27.57,158.39v-9.99h1.16v8.94h4.41v1.05h-5.57Z"/>
            <rect class="es24f-cls-18" x="43.92" y="148.25" width="8.94" height="1.16"/>
            <path class="es24f-cls-18" d="M48.39,150.08l2.02,2.49h-1.52v5.82h-1.01v-5.82h-1.52l2.02-2.49h0Z"/>
            <path class="es24f-cls-18" d="M38.35,158.39h-1.11v-7.12c0-.59.02-1.15.05-1.68-.1.1-.2.2-.32.3-.12.11-.66.55-1.63,1.33l-.6-.78,2.65-2.04h.96v9.99h0Z"/>
          </g>
        </g>
      </g>
      <g>
        <rect class="es24f-cls-11" x="4.44" y="162.04" width="50.11" height="74.88"/>
        <path class="es24f-cls-5" d="M14.64,189.98h0c0-5.44,4.41-9.84,9.85-9.84h10.04c5.44,0,9.85,4.41,9.85,9.85h0c0,5.44-4.41,9.84-9.85,9.84h-10.04c-5.44,0-9.85-4.41-9.85-9.85Z"/>
      </g>
      <g>
        <rect class="es24f-cls-13" x="4.44" y="162.04" width="50.11" height="74.88"/>
        <circle class="es24f-cls-13" cx="29.5" cy="173.29" r="1.8"/>
      </g>
    </g>
    <rect class="chassis es24f-cls-12" x="83.21" y="3" width="1200.51" height="13.36"/>
    <rect class="chassis es24f-cls-12" x="83.21" y="228.51" width="1200.51" height="15.98"/>
    <rect class="chassis es24f-cls-12" x="1283.72" y="3.01" width="13.36" height="241.49"/>
    <rect class="chassis es24f-cls-12" x="69.86" y="3" width="13.36" height="241.49"/>
    <path class="chassis es24f-cls-18" d="M16.21,77.88v7.12l-3.08-1.73h-1.58v-3.66h1.58s3.08-1.73,3.08-1.73ZM12.88,80.28h-.66v2.33h.66v-2.33ZM13.55,82.75l2,1.12v-4.85l-2,1.12v2.6h0ZM17.16,80.27l.71.7.71-.7.47.47-.71.71.71.71-.47.47-.71-.71-.71.71-.47-.47.71-.71-.71-.71.47-.47Z"/>
  </g>
  <g id="Drives">
    <g id="DRIVE_CAGE_1">
      <rect class="es24f-cls-8" x="85.36" y="20.02" width="41.04" height="204.84"/>
      <rect class="es24f-cls-4" x="93.71" y="43.86" width="25.67" height="181"/>
      <rect class="tint-target es24f-cls-6" x="95.03" y="47.4" width="23.04" height="185.76" rx="2.11" ry="2.11"/>
      <rect class="es24f-cls-10" x="112.47" y="29.84" width="7.16" height="2.88"/>
      <rect class="es24f-cls-10" x="93.47" y="29.84" width="7.16" height="2.88"/>
      <g>
        <line class="es24f-cls-10" x1="117.55" y1="73.78" x2="95.55" y2="73.78"/>
        <line class="es24f-cls-15" x1="117.55" y1="73.78" x2="95.55" y2="73.78"/>
      </g>
      <g>
        <path class="tint-target es24f-cls-14" d="M110.55,172.17h-8.01c-1.69,0-3.05,1.37-3.05,3.05v29.1c0,1.69,1.37,3.05,3.05,3.05h8.01c1.69,0,3.05-1.37,3.05-3.05v-29.1c0-1.69-1.37-3.05-3.05-3.05Z"/>
        <path class="es24f-cls-17" d="M102.54,172.3c-1.62,0-2.93,1.31-2.93,2.93v29.1c0,1.62,1.31,2.93,2.93,2.93h8.01c1.62,0,2.93-1.31,2.93-2.93v-29.1c0-1.62-1.31-2.93-2.93-2.93h-8.01M102.54,172.05h8.01c1.76,0,3.18,1.42,3.18,3.18v29.1c0,1.76-1.42,3.18-3.18,3.18h-8.01c-1.76,0-3.18-1.42-3.18-3.18v-29.1c0-1.76,1.42-3.18,3.18-3.18h0Z"/>
      </g>
    </g>
    <g id="DRIVE_CAGE_2">
      <rect class="es24f-cls-8" x="135.59" y="20.02" width="41.04" height="204.84"/>
      <rect class="es24f-cls-4" x="143.94" y="43.86" width="25.67" height="181"/>
      <rect class="tint-target es24f-cls-6" x="145.25" y="47.4" width="23.04" height="185.76" rx="2.11" ry="2.11"/>
      <rect class="es24f-cls-10" x="162.69" y="29.84" width="7.16" height="2.88"/>
      <rect class="es24f-cls-10" x="143.69" y="29.84" width="7.16" height="2.88"/>
      <g>
        <line class="es24f-cls-10" x1="167.77" y1="73.78" x2="145.77" y2="73.78"/>
        <line class="es24f-cls-15" x1="167.77" y1="73.78" x2="145.77" y2="73.78"/>
      </g>
      <g>
        <path class="tint-target es24f-cls-14" d="M160.77,172.17h-8.01c-1.69,0-3.05,1.37-3.05,3.05v29.1c0,1.69,1.37,3.05,3.05,3.05h8.01c1.69,0,3.05-1.37,3.05-3.05v-29.1c0-1.69-1.37-3.05-3.05-3.05Z"/>
        <path class="es24f-cls-17" d="M152.77,172.3c-1.62,0-2.93,1.31-2.93,2.93v29.1c0,1.62,1.31,2.93,2.93,2.93h8.01c1.62,0,2.93-1.31,2.93-2.93v-29.1c0-1.62-1.31-2.93-2.93-2.93h-8.01M152.77,172.05h8.01c1.76,0,3.18,1.42,3.18,3.18v29.1c0,1.76-1.42,3.18-3.18,3.18h-8.01c-1.76,0-3.18-1.42-3.18-3.18v-29.1c0-1.76,1.42-3.18,3.18-3.18h0Z"/>
      </g>
    </g>
    <g id="DRIVE_CAGE_3">
      <rect class="es24f-cls-8" x="185.81" y="20.02" width="41.04" height="204.84"/>
      <rect class="es24f-cls-4" x="194.16" y="43.86" width="25.67" height="181"/>
      <rect class="tint-target es24f-cls-6" x="195.48" y="47.4" width="23.04" height="185.76" rx="2.11" ry="2.11"/>
      <rect class="es24f-cls-10" x="212.92" y="29.84" width="7.16" height="2.88"/>
      <rect class="es24f-cls-10" x="193.92" y="29.84" width="7.16" height="2.88"/>
      <g>
        <line class="es24f-cls-10" x1="218" y1="73.78" x2="196" y2="73.78"/>
        <line class="es24f-cls-15" x1="218" y1="73.78" x2="196" y2="73.78"/>
      </g>
      <g>
        <path class="tint-target es24f-cls-14" d="M211,172.17h-8.01c-1.69,0-3.05,1.37-3.05,3.05v29.1c0,1.69,1.37,3.05,3.05,3.05h8c1.69,0,3.05-1.37,3.05-3.05v-29.1c0-1.69-1.37-3.05-3.05-3.05h.01Z"/>
        <path class="es24f-cls-17" d="M202.99,172.3c-1.62,0-2.93,1.31-2.93,2.93v29.1c0,1.62,1.31,2.93,2.93,2.93h8.01c1.62,0,2.93-1.31,2.93-2.93v-29.1c0-1.62-1.31-2.93-2.93-2.93h-8.01M202.99,172.05h8.01c1.76,0,3.18,1.42,3.18,3.18v29.1c0,1.76-1.42,3.18-3.18,3.18h-8.01c-1.76,0-3.18-1.42-3.18-3.18v-29.1c0-1.76,1.42-3.18,3.18-3.18h0Z"/>
      </g>
    </g>
    <g id="DRIVE_CAGE_4">
      <rect class="es24f-cls-8" x="236.04" y="20.02" width="41.04" height="204.84"/>
      <rect class="es24f-cls-4" x="244.39" y="43.86" width="25.67" height="181"/>
      <rect class="tint-target es24f-cls-6" x="245.7" y="47.4" width="23.04" height="185.76" rx="2.11" ry="2.11"/>
      <rect class="es24f-cls-10" x="263.14" y="29.84" width="7.16" height="2.88"/>
      <rect class="es24f-cls-10" x="244.14" y="29.84" width="7.16" height="2.88"/>
      <g>
        <line class="es24f-cls-10" x1="268.22" y1="73.78" x2="246.22" y2="73.78"/>
        <line class="es24f-cls-15" x1="268.22" y1="73.78" x2="246.22" y2="73.78"/>
      </g>
      <g>
        <path class="tint-target es24f-cls-14" d="M261.22,172.17h-8.01c-1.69,0-3.05,1.37-3.05,3.05v29.1c0,1.69,1.37,3.05,3.05,3.05h8.01c1.69,0,3.05-1.37,3.05-3.05v-29.1c0-1.69-1.37-3.05-3.05-3.05Z"/>
        <path class="es24f-cls-17" d="M253.22,172.3c-1.62,0-2.93,1.31-2.93,2.93v29.1c0,1.62,1.31,2.93,2.93,2.93h8.01c1.62,0,2.93-1.31,2.93-2.93v-29.1c0-1.62-1.31-2.93-2.93-2.93h-8.01M253.22,172.05h8.01c1.76,0,3.18,1.42,3.18,3.18v29.1c0,1.76-1.42,3.18-3.18,3.18h-8.01c-1.76,0-3.18-1.42-3.18-3.18v-29.1c0-1.76,1.42-3.18,3.18-3.18h0Z"/>
      </g>
    </g>
    <g id="DRIVE_CAGE_5">
      <rect class="es24f-cls-8" x="286.26" y="20.02" width="41.04" height="204.84"/>
      <rect class="es24f-cls-4" x="294.61" y="43.86" width="25.67" height="181"/>
      <rect class="tint-target es24f-cls-6" x="295.93" y="47.4" width="23.04" height="185.76" rx="2.11" ry="2.11"/>
      <rect class="es24f-cls-10" x="313.37" y="29.84" width="7.16" height="2.88"/>
      <rect class="es24f-cls-10" x="294.37" y="29.84" width="7.16" height="2.88"/>
      <g>
        <line class="es24f-cls-10" x1="318.45" y1="73.78" x2="296.45" y2="73.78"/>
        <line class="es24f-cls-15" x1="318.45" y1="73.78" x2="296.45" y2="73.78"/>
      </g>
      <g>
        <path class="tint-target es24f-cls-14" d="M311.45,172.17h-8.01c-1.69,0-3.05,1.37-3.05,3.05v29.1c0,1.69,1.37,3.05,3.05,3.05h8.01c1.69,0,3.05-1.37,3.05-3.05v-29.1c0-1.69-1.37-3.05-3.05-3.05Z"/>
        <path class="es24f-cls-17" d="M303.44,172.3c-1.62,0-2.93,1.31-2.93,2.93v29.1c0,1.62,1.31,2.93,2.93,2.93h8.01c1.62,0,2.93-1.31,2.93-2.93v-29.1c0-1.62-1.31-2.93-2.93-2.93h-8.01M303.44,172.05h8.01c1.76,0,3.18,1.42,3.18,3.18v29.1c0,1.76-1.42,3.18-3.18,3.18h-8.01c-1.76,0-3.18-1.42-3.18-3.18v-29.1c0-1.76,1.42-3.18,3.18-3.18h0Z"/>
      </g>
    </g>
    <g id="DRIVE_CAGE_6">
      <rect class="es24f-cls-8" x="336.49" y="20.02" width="41.04" height="204.84"/>
      <rect class="es24f-cls-4" x="344.84" y="43.86" width="25.67" height="181"/>
      <rect class="tint-target es24f-cls-6" x="346.15" y="47.4" width="23.04" height="185.76" rx="2.11" ry="2.11"/>
      <rect class="es24f-cls-10" x="363.59" y="29.84" width="7.16" height="2.88"/>
      <rect class="es24f-cls-10" x="344.59" y="29.84" width="7.16" height="2.88"/>
      <g>
        <line class="es24f-cls-10" x1="368.67" y1="73.78" x2="346.67" y2="73.78"/>
        <line class="es24f-cls-15" x1="368.67" y1="73.78" x2="346.67" y2="73.78"/>
      </g>
      <g>
        <path class="tint-target es24f-cls-14" d="M361.68,172.17h-8.01c-1.69,0-3.05,1.37-3.05,3.05v29.1c0,1.69,1.37,3.05,3.05,3.05h8c1.69,0,3.05-1.37,3.05-3.05v-29.1c0-1.69-1.37-3.05-3.05-3.05h.01Z"/>
        <path class="es24f-cls-17" d="M353.67,172.3c-1.62,0-2.93,1.31-2.93,2.93v29.1c0,1.62,1.31,2.93,2.93,2.93h8.01c1.62,0,2.93-1.31,2.93-2.93v-29.1c0-1.62-1.31-2.93-2.93-2.93h-8.01M353.67,172.05h8.01c1.76,0,3.18,1.42,3.18,3.18v29.1c0,1.76-1.42,3.18-3.18,3.18h-8.01c-1.76,0-3.18-1.42-3.18-3.18v-29.1c0-1.76,1.42-3.18,3.18-3.18h0Z"/>
      </g>
    </g>
    <g id="DRIVE_CAGE_7">
      <rect class="es24f-cls-8" x="386.71" y="20.02" width="41.04" height="204.84"/>
      <rect class="es24f-cls-4" x="395.06" y="43.86" width="25.67" height="181"/>
      <rect class="tint-target es24f-cls-6" x="396.38" y="47.4" width="23.04" height="185.76" rx="2.11" ry="2.11"/>
      <rect class="es24f-cls-10" x="413.82" y="29.84" width="7.16" height="2.88"/>
      <rect class="es24f-cls-10" x="394.82" y="29.84" width="7.16" height="2.88"/>
      <g>
        <line class="es24f-cls-10" x1="418.9" y1="73.78" x2="396.9" y2="73.78"/>
        <line class="es24f-cls-15" x1="418.9" y1="73.78" x2="396.9" y2="73.78"/>
      </g>
      <g>
        <path class="tint-target es24f-cls-14" d="M411.9,172.17h-8.01c-1.69,0-3.05,1.37-3.05,3.05v29.1c0,1.69,1.37,3.05,3.05,3.05h8.01c1.69,0,3.05-1.37,3.05-3.05v-29.1c0-1.69-1.37-3.05-3.05-3.05Z"/>
        <path class="es24f-cls-17" d="M403.9,172.3c-1.62,0-2.93,1.31-2.93,2.93v29.1c0,1.62,1.31,2.93,2.93,2.93h8.01c1.62,0,2.93-1.31,2.93-2.93v-29.1c0-1.62-1.31-2.93-2.93-2.93h-8.01M403.9,172.05h8.01c1.76,0,3.18,1.42,3.18,3.18v29.1c0,1.76-1.42,3.18-3.18,3.18h-8.01c-1.76,0-3.18-1.42-3.18-3.18v-29.1c0-1.76,1.42-3.18,3.18-3.18h0Z"/>
      </g>
    </g>
    <g id="DRIVE_CAGE_8">
      <rect class="es24f-cls-8" x="436.94" y="20.02" width="41.04" height="204.84"/>
      <rect class="es24f-cls-4" x="445.29" y="43.86" width="25.67" height="181"/>
      <rect class="tint-target es24f-cls-6" x="446.6" y="47.4" width="23.04" height="185.76" rx="2.11" ry="2.11"/>
      <rect class="es24f-cls-10" x="464.04" y="29.84" width="7.16" height="2.88"/>
      <rect class="es24f-cls-10" x="445.04" y="29.84" width="7.16" height="2.88"/>
      <g>
        <line class="es24f-cls-10" x1="469.12" y1="73.78" x2="447.12" y2="73.78"/>
        <line class="es24f-cls-15" x1="469.12" y1="73.78" x2="447.12" y2="73.78"/>
      </g>
      <g>
        <path class="tint-target es24f-cls-14" d="M462.13,172.17h-8.01c-1.69,0-3.05,1.37-3.05,3.05v29.1c0,1.69,1.37,3.05,3.05,3.05h8.01c1.69,0,3.05-1.37,3.05-3.05v-29.1c0-1.69-1.37-3.05-3.05-3.05Z"/>
        <path class="es24f-cls-17" d="M454.12,172.3c-1.62,0-2.93,1.31-2.93,2.93v29.1c0,1.62,1.31,2.93,2.93,2.93h8.01c1.62,0,2.93-1.31,2.93-2.93v-29.1c0-1.62-1.31-2.93-2.93-2.93h-8.01M454.12,172.05h8.01c1.76,0,3.18,1.42,3.18,3.18v29.1c0,1.76-1.42,3.18-3.18,3.18h-8.01c-1.76,0-3.18-1.42-3.18-3.18v-29.1c0-1.76,1.42-3.18,3.18-3.18h0Z"/>
      </g>
    </g>
    <g id="DRIVE_CAGE_9">
      <rect class="es24f-cls-8" x="487.16" y="20.02" width="41.04" height="204.84"/>
      <rect class="es24f-cls-4" x="495.51" y="43.86" width="25.67" height="181"/>
      <rect class="tint-target es24f-cls-6" x="496.83" y="47.4" width="23.04" height="185.76" rx="2.11" ry="2.11"/>
      <rect class="es24f-cls-10" x="514.27" y="29.84" width="7.16" height="2.88"/>
      <rect class="es24f-cls-10" x="495.27" y="29.84" width="7.16" height="2.88"/>
      <g>
        <line class="es24f-cls-10" x1="519.35" y1="73.78" x2="497.35" y2="73.78"/>
        <line class="es24f-cls-15" x1="519.35" y1="73.78" x2="497.35" y2="73.78"/>
      </g>
      <g>
        <path class="tint-target es24f-cls-14" d="M512.35,172.17h-8.01c-1.69,0-3.05,1.37-3.05,3.05v29.1c0,1.69,1.37,3.05,3.05,3.05h8c1.69,0,3.05-1.37,3.05-3.05v-29.1c0-1.69-1.37-3.05-3.05-3.05h.01Z"/>
        <path class="es24f-cls-17" d="M504.35,172.3c-1.62,0-2.93,1.31-2.93,2.93v29.1c0,1.62,1.31,2.93,2.93,2.93h8.01c1.62,0,2.93-1.31,2.93-2.93v-29.1c0-1.62-1.31-2.93-2.93-2.93h-8.01M504.35,172.05h8.01c1.76,0,3.18,1.42,3.18,3.18v29.1c0,1.76-1.42,3.18-3.18,3.18h-8.01c-1.76,0-3.18-1.42-3.18-3.18v-29.1c0-1.76,1.42-3.18,3.18-3.18h0Z"/>
      </g>
    </g>
    <g id="DRIVE_CAGE_10">
      <rect class="es24f-cls-8" x="537.39" y="20.02" width="41.04" height="204.84"/>
      <rect class="es24f-cls-4" x="545.74" y="43.86" width="25.67" height="181"/>
      <rect class="tint-target es24f-cls-6" x="547.05" y="47.4" width="23.04" height="185.76" rx="2.11" ry="2.11"/>
      <rect class="es24f-cls-10" x="564.5" y="29.84" width="7.16" height="2.88"/>
      <rect class="es24f-cls-10" x="545.5" y="29.84" width="7.16" height="2.88"/>
      <g>
        <line class="es24f-cls-10" x1="569.57" y1="73.78" x2="547.57" y2="73.78"/>
        <line class="es24f-cls-15" x1="569.57" y1="73.78" x2="547.57" y2="73.78"/>
      </g>
      <g>
        <path class="tint-target es24f-cls-14" d="M562.58,172.17h-8.01c-1.69,0-3.05,1.37-3.05,3.05v29.1c0,1.69,1.37,3.05,3.05,3.05h8.01c1.69,0,3.05-1.37,3.05-3.05v-29.1c0-1.69-1.37-3.05-3.05-3.05Z"/>
        <path class="es24f-cls-17" d="M554.57,172.3c-1.62,0-2.93,1.31-2.93,2.93v29.1c0,1.62,1.31,2.93,2.93,2.93h8.01c1.62,0,2.93-1.31,2.93-2.93v-29.1c0-1.62-1.31-2.93-2.93-2.93h-8.01M554.57,172.05h8.01c1.76,0,3.18,1.42,3.18,3.18v29.1c0,1.76-1.42,3.18-3.18,3.18h-8.01c-1.76,0-3.18-1.42-3.18-3.18v-29.1c0-1.76,1.42-3.18,3.18-3.18h0Z"/>
      </g>
    </g>
    <g id="DRIVE_CAGE_11">
      <rect class="es24f-cls-8" x="587.61" y="20.02" width="41.04" height="204.84"/>
      <rect class="es24f-cls-4" x="595.96" y="43.86" width="25.67" height="181"/>
      <rect class="tint-target es24f-cls-6" x="597.28" y="47.4" width="23.04" height="185.76" rx="2.11" ry="2.11"/>
      <rect class="es24f-cls-10" x="614.72" y="29.84" width="7.16" height="2.88"/>
      <rect class="es24f-cls-10" x="595.72" y="29.84" width="7.16" height="2.88"/>
      <g>
        <line class="es24f-cls-10" x1="619.8" y1="73.78" x2="597.8" y2="73.78"/>
        <line class="es24f-cls-15" x1="619.8" y1="73.78" x2="597.8" y2="73.78"/>
      </g>
      <g>
        <path class="tint-target es24f-cls-14" d="M612.8,172.17h-8.01c-1.69,0-3.05,1.37-3.05,3.05v29.1c0,1.69,1.37,3.05,3.05,3.05h8.01c1.69,0,3.05-1.37,3.05-3.05v-29.1c0-1.69-1.37-3.05-3.05-3.05Z"/>
        <path class="es24f-cls-17" d="M604.8,172.3c-1.62,0-2.93,1.31-2.93,2.93v29.1c0,1.62,1.31,2.93,2.93,2.93h8.01c1.62,0,2.93-1.31,2.93-2.93v-29.1c0-1.62-1.31-2.93-2.93-2.93h-8.01M604.8,172.05h8.01c1.76,0,3.18,1.42,3.18,3.18v29.1c0,1.76-1.42,3.18-3.18,3.18h-8.01c-1.76,0-3.18-1.42-3.18-3.18v-29.1c0-1.76,1.42-3.18,3.18-3.18h0Z"/>
      </g>
    </g>
    <g id="DRIVE_CAGE_12">
      <rect class="es24f-cls-8" x="637.84" y="20.02" width="41.04" height="204.84"/>
      <rect class="es24f-cls-4" x="646.19" y="43.86" width="25.67" height="181"/>
      <rect class="tint-target es24f-cls-6" x="647.5" y="47.4" width="23.04" height="185.76" rx="2.11" ry="2.11"/>
      <rect class="es24f-cls-10" x="664.95" y="29.84" width="7.16" height="2.88"/>
      <rect class="es24f-cls-10" x="645.95" y="29.84" width="7.16" height="2.88"/>
      <g>
        <line class="es24f-cls-10" x1="670.02" y1="73.78" x2="648.02" y2="73.78"/>
        <line class="es24f-cls-15" x1="670.02" y1="73.78" x2="648.02" y2="73.78"/>
      </g>
      <g>
        <path class="tint-target es24f-cls-14" d="M663.03,172.17h-8.01c-1.69,0-3.05,1.37-3.05,3.05v29.1c0,1.69,1.37,3.05,3.05,3.05h8.01c1.69,0,3.05-1.37,3.05-3.05v-29.1c0-1.69-1.37-3.05-3.05-3.05Z"/>
        <path class="es24f-cls-17" d="M655.02,172.3c-1.62,0-2.93,1.31-2.93,2.93v29.1c0,1.62,1.31,2.93,2.93,2.93h8.01c1.62,0,2.93-1.31,2.93-2.93v-29.1c0-1.62-1.31-2.93-2.93-2.93h-8.01M655.02,172.05h8.01c1.76,0,3.18,1.42,3.18,3.18v29.1c0,1.76-1.42,3.18-3.18,3.18h-8.01c-1.76,0-3.18-1.42-3.18-3.18v-29.1c0-1.76,1.42-3.18,3.18-3.18h0Z"/>
      </g>
    </g>
    <g id="DRIVE_CAGE_13">
      <rect class="es24f-cls-8" x="688.06" y="20.02" width="41.04" height="204.84"/>
      <rect class="es24f-cls-4" x="696.41" y="43.86" width="25.67" height="181"/>
      <rect class="tint-target es24f-cls-6" x="697.73" y="47.4" width="23.04" height="185.76" rx="2.11" ry="2.11"/>
      <rect class="es24f-cls-10" x="715.17" y="29.84" width="7.16" height="2.88"/>
      <rect class="es24f-cls-10" x="696.17" y="29.84" width="7.16" height="2.88"/>
      <g>
        <line class="es24f-cls-10" x1="720.25" y1="73.78" x2="698.25" y2="73.78"/>
        <line class="es24f-cls-15" x1="720.25" y1="73.78" x2="698.25" y2="73.78"/>
      </g>
      <g>
        <path class="tint-target es24f-cls-14" d="M713.25,172.17h-8.01c-1.69,0-3.05,1.37-3.05,3.05v29.1c0,1.69,1.37,3.05,3.05,3.05h8.01c1.69,0,3.05-1.37,3.05-3.05v-29.1c0-1.69-1.37-3.05-3.05-3.05Z"/>
        <path class="es24f-cls-17" d="M705.25,172.3c-1.62,0-2.93,1.31-2.93,2.93v29.1c0,1.62,1.31,2.93,2.93,2.93h8.01c1.62,0,2.93-1.31,2.93-2.93v-29.1c0-1.62-1.31-2.93-2.93-2.93h-8.01M705.25,172.05h8.01c1.76,0,3.18,1.42,3.18,3.18v29.1c0,1.76-1.42,3.18-3.18,3.18h-8.01c-1.76,0-3.18-1.42-3.18-3.18v-29.1c0-1.76,1.42-3.18,3.18-3.18h0Z"/>
      </g>
    </g>
    <g id="DRIVE_CAGE_14">
      <rect class="es24f-cls-8" x="738.29" y="20.02" width="41.04" height="204.84"/>
      <rect class="es24f-cls-4" x="746.64" y="43.86" width="25.67" height="181"/>
      <rect class="tint-target es24f-cls-6" x="747.95" y="47.4" width="23.04" height="185.76" rx="2.11" ry="2.11"/>
      <rect class="es24f-cls-10" x="765.4" y="29.84" width="7.16" height="2.88"/>
      <rect class="es24f-cls-10" x="746.4" y="29.84" width="7.16" height="2.88"/>
      <g>
        <line class="es24f-cls-10" x1="770.47" y1="73.78" x2="748.47" y2="73.78"/>
        <line class="es24f-cls-15" x1="770.47" y1="73.78" x2="748.47" y2="73.78"/>
      </g>
      <g>
        <path class="tint-target es24f-cls-14" d="M763.48,172.17h-8.01c-1.69,0-3.05,1.37-3.05,3.05v29.1c0,1.69,1.37,3.05,3.05,3.05h8c1.69,0,3.05-1.37,3.05-3.05v-29.1c0-1.69-1.37-3.05-3.05-3.05h.01Z"/>
        <path class="es24f-cls-17" d="M755.47,172.3c-1.62,0-2.93,1.31-2.93,2.93v29.1c0,1.62,1.31,2.93,2.93,2.93h8.01c1.62,0,2.93-1.31,2.93-2.93v-29.1c0-1.62-1.31-2.93-2.93-2.93h-8.01M755.47,172.05h8.01c1.76,0,3.18,1.42,3.18,3.18v29.1c0,1.76-1.42,3.18-3.18,3.18h-8.01c-1.76,0-3.18-1.42-3.18-3.18v-29.1c0-1.76,1.42-3.18,3.18-3.18h0Z"/>
      </g>
    </g>
    <g id="DRIVE_CAGE_15">
      <rect class="es24f-cls-8" x="788.52" y="20.02" width="41.04" height="204.84"/>
      <rect class="es24f-cls-4" x="796.86" y="43.86" width="25.67" height="181"/>
      <rect class="tint-target es24f-cls-6" x="798.18" y="47.4" width="23.04" height="185.76" rx="2.11" ry="2.11"/>
      <rect class="es24f-cls-10" x="815.62" y="29.84" width="7.16" height="2.88"/>
      <rect class="es24f-cls-10" x="796.62" y="29.84" width="7.16" height="2.88"/>
      <g>
        <line class="es24f-cls-10" x1="820.7" y1="73.78" x2="798.7" y2="73.78"/>
        <line class="es24f-cls-15" x1="820.7" y1="73.78" x2="798.7" y2="73.78"/>
      </g>
      <g>
        <path class="tint-target es24f-cls-14" d="M813.7,172.17h-8.01c-1.69,0-3.05,1.37-3.05,3.05v29.1c0,1.69,1.37,3.05,3.05,3.05h8c1.69,0,3.05-1.37,3.05-3.05v-29.1c0-1.69-1.37-3.05-3.05-3.05h.01Z"/>
        <path class="es24f-cls-17" d="M805.7,172.3c-1.62,0-2.93,1.31-2.93,2.93v29.1c0,1.62,1.31,2.93,2.93,2.93h8.01c1.62,0,2.93-1.31,2.93-2.93v-29.1c0-1.62-1.31-2.93-2.93-2.93h-8.01M805.7,172.05h8.01c1.76,0,3.18,1.42,3.18,3.18v29.1c0,1.76-1.42,3.18-3.18,3.18h-8.01c-1.76,0-3.18-1.42-3.18-3.18v-29.1c0-1.76,1.42-3.18,3.18-3.18h0Z"/>
      </g>
    </g>
    <g id="DRIVE_CAGE_16">
      <rect class="es24f-cls-8" x="838.74" y="20.02" width="41.04" height="204.84"/>
      <rect class="es24f-cls-4" x="847.09" y="43.86" width="25.67" height="181"/>
      <rect class="tint-target es24f-cls-6" x="848.4" y="47.4" width="23.04" height="185.76" rx="2.11" ry="2.11"/>
      <rect class="es24f-cls-10" x="865.85" y="29.84" width="7.16" height="2.88"/>
      <rect class="es24f-cls-10" x="846.85" y="29.84" width="7.16" height="2.88"/>
      <g>
        <line class="es24f-cls-10" x1="870.92" y1="73.78" x2="848.92" y2="73.78"/>
        <line class="es24f-cls-15" x1="870.92" y1="73.78" x2="848.92" y2="73.78"/>
      </g>
      <g>
        <path class="tint-target es24f-cls-14" d="M863.93,172.17h-8.01c-1.69,0-3.05,1.37-3.05,3.05v29.1c0,1.69,1.37,3.05,3.05,3.05h8.01c1.69,0,3.05-1.37,3.05-3.05v-29.1c0-1.69-1.37-3.05-3.05-3.05Z"/>
        <path class="es24f-cls-17" d="M855.92,172.3c-1.62,0-2.93,1.31-2.93,2.93v29.1c0,1.62,1.31,2.93,2.93,2.93h8.01c1.62,0,2.93-1.31,2.93-2.93v-29.1c0-1.62-1.31-2.93-2.93-2.93h-8.01M855.92,172.05h8.01c1.76,0,3.18,1.42,3.18,3.18v29.1c0,1.76-1.42,3.18-3.18,3.18h-8.01c-1.76,0-3.18-1.42-3.18-3.18v-29.1c0-1.76,1.42-3.18,3.18-3.18h0Z"/>
      </g>
    </g>
    <g id="DRIVE_CAGE_17">
      <rect class="es24f-cls-8" x="888.97" y="20.02" width="41.04" height="204.84"/>
      <rect class="es24f-cls-4" x="897.31" y="43.86" width="25.67" height="181"/>
      <rect class="tint-target es24f-cls-6" x="898.63" y="47.4" width="23.04" height="185.76" rx="2.11" ry="2.11"/>
      <rect class="es24f-cls-10" x="916.07" y="29.84" width="7.16" height="2.88"/>
      <rect class="es24f-cls-10" x="897.07" y="29.84" width="7.16" height="2.88"/>
      <g>
        <line class="es24f-cls-10" x1="921.15" y1="73.78" x2="899.15" y2="73.78"/>
        <line class="es24f-cls-15" x1="921.15" y1="73.78" x2="899.15" y2="73.78"/>
      </g>
      <g>
        <path class="tint-target es24f-cls-14" d="M914.15,172.17h-8.01c-1.69,0-3.05,1.37-3.05,3.05v29.1c0,1.69,1.37,3.05,3.05,3.05h8.01c1.69,0,3.05-1.37,3.05-3.05v-29.1c0-1.69-1.37-3.05-3.05-3.05Z"/>
        <path class="es24f-cls-17" d="M906.15,172.3c-1.62,0-2.93,1.31-2.93,2.93v29.1c0,1.62,1.31,2.93,2.93,2.93h8.01c1.62,0,2.93-1.31,2.93-2.93v-29.1c0-1.62-1.31-2.93-2.93-2.93h-8.01M906.15,172.05h8.01c1.76,0,3.18,1.42,3.18,3.18v29.1c0,1.76-1.42,3.18-3.18,3.18h-8.01c-1.76,0-3.18-1.42-3.18-3.18v-29.1c0-1.76,1.42-3.18,3.18-3.18h0Z"/>
      </g>
    </g>
    <g id="DRIVE_CAGE_18">
      <rect class="es24f-cls-8" x="939.19" y="20.02" width="41.04" height="204.84"/>
      <rect class="es24f-cls-4" x="947.54" y="43.86" width="25.67" height="181"/>
      <rect class="tint-target es24f-cls-6" x="948.86" y="47.4" width="23.04" height="185.76" rx="2.11" ry="2.11"/>
      <rect class="es24f-cls-10" x="966.3" y="29.84" width="7.16" height="2.88"/>
      <rect class="es24f-cls-10" x="947.3" y="29.84" width="7.16" height="2.88"/>
      <g>
        <line class="es24f-cls-10" x1="971.38" y1="73.78" x2="949.38" y2="73.78"/>
        <line class="es24f-cls-15" x1="971.38" y1="73.78" x2="949.38" y2="73.78"/>
      </g>
      <g>
        <path class="tint-target es24f-cls-14" d="M964.38,172.17h-8.01c-1.69,0-3.05,1.37-3.05,3.05v29.1c0,1.69,1.37,3.05,3.05,3.05h8c1.69,0,3.05-1.37,3.05-3.05v-29.1c0-1.69-1.37-3.05-3.05-3.05h.01Z"/>
        <path class="es24f-cls-17" d="M956.37,172.3c-1.62,0-2.93,1.31-2.93,2.93v29.1c0,1.62,1.31,2.93,2.93,2.93h8.01c1.62,0,2.93-1.31,2.93-2.93v-29.1c0-1.62-1.31-2.93-2.93-2.93h-8.01M956.37,172.05h8.01c1.76,0,3.18,1.42,3.18,3.18v29.1c0,1.76-1.42,3.18-3.18,3.18h-8.01c-1.76,0-3.18-1.42-3.18-3.18v-29.1c0-1.76,1.42-3.18,3.18-3.18h0Z"/>
      </g>
    </g>
    <g id="DRIVE_CAGE_19">
      <rect class="es24f-cls-8" x="989.42" y="20.02" width="41.04" height="204.84"/>
      <rect class="es24f-cls-4" x="997.76" y="43.86" width="25.67" height="181"/>
      <rect class="tint-target es24f-cls-6" x="999.08" y="47.4" width="23.04" height="185.76" rx="2.11" ry="2.11"/>
      <rect class="es24f-cls-10" x="1016.52" y="29.84" width="7.16" height="2.88"/>
      <rect class="es24f-cls-10" x="997.52" y="29.84" width="7.16" height="2.88"/>
      <g>
        <line class="es24f-cls-10" x1="1021.6" y1="73.78" x2="999.6" y2="73.78"/>
        <line class="es24f-cls-15" x1="1021.6" y1="73.78" x2="999.6" y2="73.78"/>
      </g>
      <g>
        <path class="tint-target es24f-cls-14" d="M1014.6,172.17h-8.01c-1.69,0-3.05,1.37-3.05,3.05v29.1c0,1.69,1.37,3.05,3.05,3.05h8c1.69,0,3.05-1.37,3.05-3.05v-29.1c0-1.69-1.37-3.05-3.05-3.05h.01Z"/>
        <path class="es24f-cls-17" d="M1006.6,172.3c-1.62,0-2.93,1.31-2.93,2.93v29.1c0,1.62,1.31,2.93,2.93,2.93h8.01c1.62,0,2.93-1.31,2.93-2.93v-29.1c0-1.62-1.31-2.93-2.93-2.93h-8.01M1006.6,172.05h8.01c1.76,0,3.18,1.42,3.18,3.18v29.1c0,1.76-1.42,3.18-3.18,3.18h-8.01c-1.76,0-3.18-1.42-3.18-3.18v-29.1c0-1.76,1.42-3.18,3.18-3.18h0Z"/>
      </g>
    </g>
    <g id="DRIVE_CAGE_20">
      <rect class="es24f-cls-8" x="1039.64" y="20.02" width="41.04" height="204.84"/>
      <rect class="es24f-cls-4" x="1047.99" y="43.86" width="25.67" height="181"/>
      <rect class="tint-target es24f-cls-6" x="1049.31" y="47.4" width="23.04" height="185.76" rx="2.11" ry="2.11"/>
      <rect class="es24f-cls-10" x="1066.75" y="29.84" width="7.16" height="2.88"/>
      <rect class="es24f-cls-10" x="1047.75" y="29.84" width="7.16" height="2.88"/>
      <g>
        <line class="es24f-cls-10" x1="1071.83" y1="73.78" x2="1049.83" y2="73.78"/>
        <line class="es24f-cls-15" x1="1071.83" y1="73.78" x2="1049.83" y2="73.78"/>
      </g>
      <g>
        <path class="tint-target es24f-cls-14" d="M1064.83,172.17h-8.01c-1.69,0-3.05,1.37-3.05,3.05v29.1c0,1.69,1.37,3.05,3.05,3.05h8.01c1.69,0,3.05-1.37,3.05-3.05v-29.1c0-1.69-1.37-3.05-3.05-3.05Z"/>
        <path class="es24f-cls-17" d="M1056.82,172.3c-1.62,0-2.93,1.31-2.93,2.93v29.1c0,1.62,1.31,2.93,2.93,2.93h8.01c1.62,0,2.93-1.31,2.93-2.93v-29.1c0-1.62-1.31-2.93-2.93-2.93h-8.01M1056.82,172.05h8.01c1.76,0,3.18,1.42,3.18,3.18v29.1c0,1.76-1.42,3.18-3.18,3.18h-8.01c-1.76,0-3.18-1.42-3.18-3.18v-29.1c0-1.76,1.42-3.18,3.18-3.18h0Z"/>
      </g>
    </g>
    <g id="DRIVE_CAGE_21">
      <rect class="es24f-cls-8" x="1089.87" y="20.02" width="41.04" height="204.84"/>
      <rect class="es24f-cls-4" x="1098.21" y="43.86" width="25.67" height="181"/>
      <rect class="tint-target es24f-cls-6" x="1099.53" y="47.4" width="23.04" height="185.76" rx="2.11" ry="2.11"/>
      <rect class="es24f-cls-10" x="1116.97" y="29.84" width="7.16" height="2.88"/>
      <rect class="es24f-cls-10" x="1097.97" y="29.84" width="7.16" height="2.88"/>
      <g>
        <line class="es24f-cls-10" x1="1122.05" y1="73.78" x2="1100.05" y2="73.78"/>
        <line class="es24f-cls-15" x1="1122.05" y1="73.78" x2="1100.05" y2="73.78"/>
      </g>
      <g>
        <path class="tint-target es24f-cls-14" d="M1115.05,172.17h-8.01c-1.69,0-3.05,1.37-3.05,3.05v29.1c0,1.69,1.37,3.05,3.05,3.05h8c1.69,0,3.05-1.37,3.05-3.05v-29.1c0-1.69-1.37-3.05-3.05-3.05h0Z"/>
        <path class="es24f-cls-17" d="M1107.05,172.3c-1.62,0-2.93,1.31-2.93,2.93v29.1c0,1.62,1.31,2.93,2.93,2.93h8.01c1.62,0,2.93-1.31,2.93-2.93v-29.1c0-1.62-1.31-2.93-2.93-2.93h-8.01M1107.05,172.05h8.01c1.76,0,3.18,1.42,3.18,3.18v29.1c0,1.76-1.42,3.18-3.18,3.18h-8.01c-1.76,0-3.18-1.42-3.18-3.18v-29.1c0-1.76,1.42-3.18,3.18-3.18h0Z"/>
      </g>
    </g>
    <g id="DRIVE_CAGE_22">
      <rect class="es24f-cls-8" x="1140.09" y="20.02" width="41.04" height="204.84"/>
      <rect class="es24f-cls-4" x="1148.44" y="43.86" width="25.67" height="181"/>
      <rect class="tint-target es24f-cls-6" x="1149.76" y="47.4" width="23.04" height="185.76" rx="2.11" ry="2.11"/>
      <rect class="es24f-cls-10" x="1167.2" y="29.84" width="7.16" height="2.88"/>
      <rect class="es24f-cls-10" x="1148.2" y="29.84" width="7.16" height="2.88"/>
      <g>
        <line class="es24f-cls-10" x1="1172.28" y1="73.78" x2="1150.28" y2="73.78"/>
        <line class="es24f-cls-15" x1="1172.28" y1="73.78" x2="1150.28" y2="73.78"/>
      </g>
      <g>
        <path class="tint-target es24f-cls-14" d="M1165.28,172.17h-8.01c-1.69,0-3.05,1.37-3.05,3.05v29.1c0,1.69,1.37,3.05,3.05,3.05h8c1.69,0,3.05-1.37,3.05-3.05v-29.1c0-1.69-1.37-3.05-3.05-3.05h0Z"/>
        <path class="es24f-cls-17" d="M1157.27,172.3c-1.62,0-2.93,1.31-2.93,2.93v29.1c0,1.62,1.31,2.93,2.93,2.93h8.01c1.62,0,2.93-1.31,2.93-2.93v-29.1c0-1.62-1.31-2.93-2.93-2.93h-8.01M1157.27,172.05h8.01c1.76,0,3.18,1.42,3.18,3.18v29.1c0,1.76-1.42,3.18-3.18,3.18h-8.01c-1.76,0-3.18-1.42-3.18-3.18v-29.1c0-1.76,1.42-3.18,3.18-3.18h0Z"/>
      </g>
    </g>
    <g id="DRIVE_CAGE_23">
      <rect class="es24f-cls-8" x="1190.32" y="20.02" width="41.04" height="204.84"/>
      <rect class="es24f-cls-4" x="1198.67" y="43.86" width="25.67" height="181"/>
      <rect class="tint-target es24f-cls-6" x="1199.98" y="47.4" width="23.04" height="185.76" rx="2.11" ry="2.11"/>
      <rect class="es24f-cls-10" x="1217.42" y="29.84" width="7.16" height="2.88"/>
      <rect class="es24f-cls-10" x="1198.42" y="29.84" width="7.16" height="2.88"/>
      <g>
        <line class="es24f-cls-10" x1="1222.5" y1="73.78" x2="1200.5" y2="73.78"/>
        <line class="es24f-cls-15" x1="1222.5" y1="73.78" x2="1200.5" y2="73.78"/>
      </g>
      <g>
        <path class="tint-target es24f-cls-14" d="M1215.5,172.17h-8.01c-1.69,0-3.05,1.37-3.05,3.05v29.1c0,1.69,1.37,3.05,3.05,3.05h8.01c1.69,0,3.05-1.37,3.05-3.05v-29.1c0-1.69-1.37-3.05-3.05-3.05Z"/>
        <path class="es24f-cls-17" d="M1207.5,172.3c-1.62,0-2.93,1.31-2.93,2.93v29.1c0,1.62,1.31,2.93,2.93,2.93h8.01c1.62,0,2.93-1.31,2.93-2.93v-29.1c0-1.62-1.31-2.93-2.93-2.93h-8.01M1207.5,172.05h8.01c1.76,0,3.18,1.42,3.18,3.18v29.1c0,1.76-1.42,3.18-3.18,3.18h-8.01c-1.76,0-3.18-1.42-3.18-3.18v-29.1c0-1.76,1.42-3.18,3.18-3.18h0Z"/>
      </g>
    </g>
    <g id="DRIVE_CAGE_24">
      <rect class="es24f-cls-8" x="1240.54" y="20.02" width="41.04" height="204.84"/>
      <rect class="es24f-cls-4" x="1248.89" y="43.86" width="25.67" height="181"/>
      <rect class="tint-target es24f-cls-6" x="1250.21" y="47.4" width="23.04" height="185.76" rx="2.11" ry="2.11"/>
      <rect class="es24f-cls-10" x="1267.65" y="29.84" width="7.16" height="2.88"/>
      <rect class="es24f-cls-10" x="1248.65" y="29.84" width="7.16" height="2.88"/>
      <g>
        <line class="es24f-cls-10" x1="1272.73" y1="73.78" x2="1250.73" y2="73.78"/>
        <line class="es24f-cls-15" x1="1272.73" y1="73.78" x2="1250.73" y2="73.78"/>
      </g>
      <g>
        <path class="tint-target es24f-cls-14" d="M1265.73,172.17h-8.01c-1.69,0-3.05,1.37-3.05,3.05v29.1c0,1.69,1.37,3.05,3.05,3.05h8.01c1.69,0,3.05-1.37,3.05-3.05v-29.1c0-1.69-1.37-3.05-3.05-3.05Z"/>
        <path class="es24f-cls-17" d="M1257.72,172.3c-1.62,0-2.93,1.31-2.93,2.93v29.1c0,1.62,1.31,2.93,2.93,2.93h8.01c1.62,0,2.93-1.31,2.93-2.93v-29.1c0-1.62-1.31-2.93-2.93-2.93h-8.01M1257.72,172.05h8.01c1.76,0,3.18,1.42,3.18,3.18v29.1c0,1.76-1.42,3.18-3.18,3.18h-8.01c-1.76,0-3.18-1.42-3.18-3.18v-29.1c0-1.76,1.42-3.18,3.18-3.18h0Z"/>
      </g>
    </g>
  </g>
</svg>
