<?xml version="1.0" encoding="UTF-8"?><svg id="Layer_2" xmlns="http://www.w3.org/2000/svg" xmlns:xlink="http://www.w3.org/1999/xlink" viewBox="0 0 1000 93.1088"><g id="Components"><g id="_2af23685-3d13-4686-8185-e958e22d31d1_1"><g id="logoMark"><a xlink:href="39.9666666666667"><polygon id="logoMark_PathItem_" points="117.3835 36.853 117.3835 61.8648 63.8324 92.7973 63.8324 67.7855 117.3835 36.853" style="fill:#31beec;"/></a><a xlink:href="56.178431372549"><path id="logoMark_PathItem_-2" d="M53.5866,67.7855v25.0118L0,61.8648v-25.0118l24.2142,13.9683c.0177.0176.0532.0354.0885.0531l29.2839,16.911Z" style="fill:#0095d5;"/></a><a xlink:href="31.9949019607843"><polygon id="logoMark_PathItem_-3" points="80.371 46.4074 58.7095 58.9223 37.0303 46.4074 58.7095 33.8927 80.371 46.4074" style="fill:#aeadae;"/></a><a xlink:href="56.178431372549"><polygon id="logoMark_PathItem_-4" points="112.2783 27.9899 90.5991 40.5047 63.8324 25.0295 63.8324 0 112.2783 27.9899" style="fill:#0095d5;"/></a><a xlink:href="39.9666666666667"><polygon id="logoMark_PathItem_-5" points="53.5866 0 53.5866 25.0295 26.7844 40.4869 5.1052 27.9899 53.5866 0" style="fill:#31beec;"/></a></g><g id="type"><path id="type_CompoundPathItem_" d="M201.8482,12.5666v8.9878h-24.1971v70.5174h-9.9087V21.5544h-24.1971v-8.9878h58.3029Z" style="fill:#0095d5;"/><path id="type_CompoundPathItem_-2" d="M233.0701,46.9044c-2.4201-3.3427-5.4148-4.8401-9.6768-4.8401-7.0317,0-12.3288,5.3006-12.3288,13.9422v36.0654h-9.2198v-57.6122h9.2198v5.6468c2.4166-4.0334,6.3358-6.5695,13.364-6.5695,7.8349,0,12.7892,2.6503,16.4765,7.8366l-7.8349,5.5308Z" style="fill:#0095d5;"/><path id="type_CompoundPathItem_-3" d="M292.8721,92.0719h-9.2198v-5.6451c-2.8805,4.3779-6.9105,6.5677-15.4378,6.5677-12.3288,0-20.9704-6.4535-20.9704-22.5855v-35.9494h9.2163v35.8352c0,11.6381,6.3358,14.1724,13.1355,14.1724,8.6416,0,14.0564-6.1073,14.0564-14.0581v-35.9494h9.2198v57.6122Z" style="fill:#0095d5;"/><path id="type_CompoundPathItem_-4" d="M347.4844,83.3143c-4.0334,7.0299-10.1407,9.6802-20.1637,9.6802-15.4413,0-24.661-10.0247-24.661-26.0407v-7.6064c0-16.3605,7.7206-25.8105,22.8157-25.8105,15.2093,0,22.8157,9.334,22.8157,25.8105v5.993h-36.4116v1.6134c0,9.9087,4.7259,17.7436,14.7488,17.7436,7.4887,0,11.2936-2.1881,13.7102-6.4518l7.1459,5.0686ZM311.8794,57.2736h27.0776c-.4605-9.6785-4.7224-15.4395-13.4817-15.4395-8.8701,0-13.0212,5.877-13.5959,15.4395Z" style="fill:#0095d5;"/><path id="type_CompoundPathItem_-5" d="M420.1899,12.5666v79.5052h-11.8683l-32.3782-54.041v54.041h-12.907V12.5666h11.5221l32.7244,54.7317V12.5666h12.907Z" style="fill:#0095d5;"/><path id="type_CompoundPathItem_-6" d="M429.1707,92.0719l27.6558-79.5052h12.675l27.6523,79.5052h-14.1707l-5.4183-16.4765h-28.691l-5.4148,16.4765h-14.2884ZM452.5612,64.0733h21.2023l-10.6012-32.148-10.6012,32.148Z" style="fill:#0095d5;"/><path id="type_CompoundPathItem_-7" d="M546.469,31.8094c-3.9192-5.4148-8.1811-8.6416-17.1689-8.6416-8.1811,0-13.0212,3.6872-13.0212,10.3692,0,7.6064,5.993,10.6012,17.0546,13.0212,16.016,3.457,24.3113,9.4483,24.3113,23.7366,0,11.8683-7.9526,22.814-27.0776,22.814-13.5959,0-23.1619-4.1477-29.7296-13.0195l10.4869-7.2602c4.7224,5.6468,9.4483,8.6416,18.5503,8.6416,10.9474,0,14.4026-4.8384,14.4026-10.5994,0-6.3375-3.5695-10.2549-17.3974-13.2514-15.327-3.2267-23.9686-10.6012-23.9686-24.0828,0-11.9826,7.8349-22.0073,26.5029-22.0073,12.675,0,21.5485,4.2637,27.1919,13.0212l-10.1372,7.2584Z" style="fill:#0095d5;"/></g><path d="M679.5915,41.6982c-6.5008,0-9.6609,4.5146-9.6609,12.2795v5.2367c0,7.0426,2.3475,12.5501,9.6609,12.5501,6.8619,0,9.5706-5.5076,9.5706-12.5501v-5.2367c0-7.8552-3.1602-12.2795-9.5706-12.2795Z" style="fill:#68c42c;"/><path d="M833.713,41.6982c-5.5979,0-8.2164,3.7923-8.6679,9.9319h17.2453c-.3611-6.5911-3.0698-9.9319-8.5774-9.9319Z" style="fill:#68c42c;"/><path d="M962.6175,11.5197h-384.8878v81.5861h384.8878l37.3825-41.1741-37.3825-40.4119ZM635.5307,71.7645c3.7922,0,6.862-1.3543,8.5774-4.4241l7.3134,5.0562c-2.9795,5.327-8.3066,7.6746-16.0714,7.6746-12.6405,0-19.8636-8.126-19.8636-20.4053v-6.1397c0-13.0016,7.3135-20.2248,20.2248-20.2248,6.8619,0,12.55,2.5282,15.7102,7.3134l-7.4036,5.1465c-1.7156-2.4378-4.6049-4.0631-8.4872-4.0631-7.0426,0-10.4735,4.5146-10.4735,12.2795v5.2367c0,7.0426,2.528,12.5501,10.4735,12.5501ZM698.7328,59.4852c0,12.0085-5.8689,20.586-19.1413,20.586-12.6406,0-19.2316-8.126-19.2316-20.586v-5.6882c0-13.2724,7.0424-20.4957,19.2316-20.4957s19.1413,7.2232,19.1413,20.4957v5.6882ZM749.2944,79.2586h-9.5706v-27.177c0-7.9455-3.6114-10.2028-8.5775-10.2028-5.959,0-9.2996,4.063-9.2996,10.1124v27.2673h-9.661v-45.1446h9.4803v4.0631c1.9864-2.7087,5.2367-4.8757,11.1959-4.8757,9.2998,0,16.4326,4.6951,16.4326,17.6967v28.2606ZM801.8418,79.2586h-9.5706v-27.177c0-7.9455-3.6115-10.2028-8.5775-10.2028-5.959,0-9.2997,4.063-9.2997,10.1124v27.2673h-9.6609v-45.1446h9.4803v4.0631c1.9864-2.7087,5.2368-4.8757,11.1959-4.8757,9.2999,0,16.4326,4.6951,16.4326,17.6967v28.2606ZM851.9514,59.0339h-26.9965v.1805c0,7.0426,2.7086,12.5501,9.8414,12.5501,5.3271,0,7.494-1.6251,9.2998-4.4241l7.2232,5.0562c-3.1602,5.5077-8.2163,7.6746-16.1618,7.6746-12.9113,0-19.7732-8.3969-19.7732-20.4053v-6.1397c0-13.2726,6.5008-20.2248,18.3287-20.2248,12.3696,0,18.2385,7.4037,18.2385,20.7665v4.966ZM884.4557,71.7645c3.7921,0,6.8619-1.3543,8.5773-4.4241l7.3134,5.0562c-2.9795,5.327-8.3065,7.6746-16.0714,7.6746-12.6404,0-19.8636-8.126-19.8636-20.4053v-6.1397c0-13.0016,7.3135-20.2248,20.2248-20.2248,6.8619,0,12.5501,2.5282,15.7102,7.3134l-7.4037,5.1465c-1.7153-2.4378-4.6047-4.0631-8.487-4.0631-7.0427,0-10.4736,4.5146-10.4736,12.2795v5.2367c0,7.0426,2.528,12.5501,10.4736,12.5501ZM932.85,42.4206h-9.5705v20.6762c0,5.2367.8126,7.4941,5.8688,7.4941h3.7017v8.6677h-4.4241c-10.8347,0-14.7171-3.7018-14.7171-14.356v-22.4819h-5.7785v-8.3067h5.7785v-9.9318h9.5706v9.9318h9.5705v8.3067Z" style="fill:#68c42c;"/></g></g></svg>