<?xml version="1.0" standalone="no"?>
<!DOCTYPE svg PUBLIC "-//W3C//DTD SVG 20010904//EN"
 "http://www.w3.org/TR/2001/REC-SVG-20010904/DTD/svg10.dtd">
<svg version="1.0" xmlns="http://www.w3.org/2000/svg"
 width="141.000000pt" height="141.000000pt" viewBox="0 0 141.000000 141.000000"
 preserveAspectRatio="xMidYMid meet">
<metadata>
Created by potrace 1.14, written by Peter Selinger 2001-2017
</metadata>
<g transform="translate(0.000000,141.000000) scale(0.100000,-0.100000)"
fill="#000000" stroke="none">
<path d="M735 1118 l0 -72 70 -42 c39 -24 75 -43 80 -43 6 0 36 14 69 33 l59
33 -54 32 c-62 38 -222 131 -223 131 -1 0 -1 -32 -1 -72z"/>
<path d="M536 1110 c-66 -38 -123 -73 -128 -78 -4 -4 20 -23 54 -41 l63 -34
75 44 74 44 1 68 c1 41 -3 67 -9 67 -6 0 -65 -32 -130 -70z"/>
<path d="M638 957 l-58 -33 62 -36 62 -37 58 32 c32 17 58 35 58 39 0 9 -100
68 -115 68 -5 0 -36 -15 -67 -33z"/>
<path d="M162 893 l-133 -76 63 -36 63 -37 77 45 78 46 0 67 c0 38 -3 68 -7
68 -5 0 -68 -34 -141 -77z"/>
<path d="M367 923 c1 -27 2 -58 2 -70 1 -16 19 -32 72 -62 39 -23 75 -41 80
-41 17 0 119 62 114 69 -6 10 -250 151 -261 151 -5 0 -8 -21 -7 -47z"/>
<path d="M905 899 c-66 -39 -124 -74 -128 -78 -8 -8 92 -71 112 -71 5 0 41 18
80 41 52 30 71 47 72 62 3 73 1 111 -7 114 -5 1 -63 -29 -129 -68z"/>
<path d="M1101 901 l2 -70 76 -43 77 -44 63 37 63 36 -84 49 c-45 26 -99 57
-118 67 -19 11 -39 23 -44 28 -6 5 -16 9 -23 9 -10 0 -13 -17 -12 -69z"/>
<path d="M273 747 c-29 -18 -53 -34 -53 -37 0 -3 27 -20 60 -38 l60 -33 61 37
61 37 -58 33 c-33 19 -63 33 -69 33 -5 0 -34 -15 -62 -32z"/>
<path d="M1007 746 l-59 -34 61 -36 61 -37 60 33 c33 18 60 35 60 38 0 7 -108
70 -118 70 -4 0 -33 -16 -65 -34z"/>
<path d="M0 692 l0 -70 148 -86 c82 -47 152 -86 155 -86 4 0 7 30 7 68 0 59
-3 69 -22 81 -50 31 -261 153 -274 158 -11 4 -14 -9 -14 -65z"/>
<path d="M533 682 c-73 -42 -129 -79 -125 -83 4 -4 32 -20 62 -37 l55 -30 75
43 75 44 0 71 c0 38 -2 70 -5 70 -3 0 -65 -35 -137 -78z"/>
<path d="M734 691 l-1 -69 80 -45 80 -45 51 30 c28 16 54 33 58 37 6 5 -248
161 -263 161 -2 0 -5 -31 -5 -69z"/>
<path d="M1248 673 l-148 -87 0 -69 c0 -58 2 -68 15 -63 9 3 79 42 155 87
l140 81 0 69 c0 38 -3 69 -7 69 -5 -1 -74 -40 -155 -87z"/>
<path d="M643 533 l-62 -37 61 -35 62 -34 63 33 c69 37 70 32 -17 83 l-45 26
-62 -36z"/>
<path d="M369 528 c-3 -48 -1 -119 2 -122 4 -3 171 -100 239 -138 19 -11 41
-25 48 -30 14 -12 14 -12 16 72 1 56 -2 67 -19 76 -11 6 -76 44 -145 84 -69
40 -128 74 -132 77 -5 2 -9 -6 -9 -19z"/>
<path d="M885 461 l-150 -87 0 -71 -1 -71 29 15 c16 8 63 35 104 59 41 24 77
44 79 44 2 0 23 12 47 27 23 15 44 28 45 29 6 4 8 113 2 128 -4 10 -44 -8
-155 -73z"/>
</g>
</svg>
