<?xml version="1.0" encoding="utf-8"?><!DOCTYPE svg PUBLIC "-//W3C//DTD SVG 1.1//EN" "http://www.w3.org/Graphics/SVG/1.1/DTD/svg11.dtd"><svg viewBox="0 0 294 90" xmlns="http://www.w3.org/2000/svg" xmlns:xlink="http://www.w3.org/1999/xlink"><style>:root>svg{display:none}:root>svg:target{display:block}</style><svg viewBox="0 0 24 24" id="apps" xmlns="http://www.w3.org/2000/svg"><path d="M4 8h4V4H4v4zm6 12h4v-4h-4v4zm-6 0h4v-4H4v4zm0-6h4v-4H4v4zm6 0h4v-4h-4v4zm6-10v4h4V4h-4zm-6 4h4V4h-4v4zm6 6h4v-4h-4v4zm0 6h4v-4h-4v4z"/></svg><svg viewBox="0 -960 960 960" fill="#D9D9D9" id="ix-cloud-off" xmlns="http://www.w3.org/2000/svg"><path d="M792-56 686-160H260q-92 0-156-64T40-380q0-77 47.5-137T210-594q3-8 6-15.5t6-16.5L56-792l56-56 736 736-56 56ZM260-240h346L284-562q-2 11-3 21t-1 21h-20q-58 0-99 41t-41 99q0 58 41 99t99 41Zm185-161Zm419 191-58-56q17-14 25.5-32.5T840-340q0-42-29-71t-71-29h-60v-80q0-83-58.5-141.5T480-720q-27 0-52 6.5T380-693l-58-58q35-24 74.5-36.5T480-800q117 0 198.5 81.5T760-520q69 8 114.5 59.5T920-340q0 39-15 72.5T864-210ZM593-479Z"/></svg><svg fill="none" viewBox="0 0 24 24" id="ix-dataset" xmlns="http://www.w3.org/2000/svg"><path d="M6 8c-.28 0-.52-.1-.71-.29A.973.973 0 0 1 5 7c0-.28.1-.52.29-.71C5.48 6.1 5.72 6 6 6h12c.28 0 .52.1.71.29.19.19.29.43.29.71 0 .28-.1.52-.29.71-.19.19-.43.29-.71.29H6Zm2-3c-.28 0-.52-.1-.71-.29A.973.973 0 0 1 7 4c0-.28.1-.52.29-.71C7.48 3.1 7.72 3 8 3h8c.28 0 .52.1.71.29.19.19.29.43.29.71 0 .28-.1.52-.29.71-.19.19-.43.29-.71.29H8ZM3 9l2 12h14l2-12H3Zm11.71 6.1c-.19.19-.43.29-.71.29h-4c-.28 0-.52-.1-.71-.29a.973.973 0 0 1-.29-.71c0-.28.1-.52.29-.71.19-.19.43-.29.71-.29h4c.28 0 .52.1.71.29.19.19.29.43.29.71 0 .28-.1.52-.29.71Z" fill="currentColor"/></svg><svg viewBox="0 0 24 24" id="ix-dataset-root" xmlns="http://www.w3.org/2000/svg"><path d="M3 3h6v4H3V3m12 7h6v4h-6v-4m0 7h6v4h-6v-4m-2-4H7v5h6v2H5V9h2v2h6v2Z"/></svg><svg viewBox="0 0 17.3 9.9" style="enable-background:new 0 0 17.3 9.9" xml:space="preserve" id="ix-enclosure" xmlns="http://www.w3.org/2000/svg"><path d="M17.2 9.9h-2s-.1-.1-.1-.2V.2c0-.1 0-.2.1-.2h2s.1.1.1.2v9.6s0 .1-.1.1zM2.1 9.9h-2c-.1 0-.1-.1-.1-.2V.2C0 .1 0 0 .1 0h2s.1.1.1.2v9.6l-.1.1zM8.2 2.8H2.5V0h5.9v2.7c0 .1-.1.1-.2.1zM14.5 2.8H8.8V0h5.9v2.7c0 .1-.1.1-.2.1zM8.2 6.3H2.5V3.5h5.9v2.7c0 .1-.1.1-.2.1zM14.5 6.3H8.8V3.5h5.9v2.7c0 .1-.1.1-.2.1zM8.2 9.8H2.5V7h5.9v2.7c0 .1-.1.1-.2.1zM14.5 9.8H8.8V7h5.9v2.7c0 .1-.1.1-.2.1z"/></svg><svg viewBox="126.7 15 49 59" id="ix-hdd"><path d="M132.044 15.622h37.985a4.546 4.546 0 0 1 4.546 4.546V68.68a4.546 4.546 0 0 1-4.546 4.546h-37.985a4.546 4.546 0 0 1-4.546-4.546V20.168a4.546 4.546 0 0 1 4.546-4.546Zm19.178 6.82c-9.516 0-17.23 7.714-17.23 17.23s7.714 17.23 17.23 17.23c.258 0 .516-.006.771-.017l-3.232-6.883 6.094-4.375 6.139 8.238c4.505-3.108 7.458-8.306 7.458-14.193 0-9.516-7.714-17.23-17.23-17.23Zm-16.008 39.049a3.491 3.491 0 1 0 0 6.982 3.491 3.491 0 0 0 0-6.982Zm19.142-21.819a3.134 3.134 0 1 1-6.268 0 3.134 3.134 0 0 1 6.268 0Zm4.758 27.671 6.597-3.803-11.286-15.143-3.146 2.259 7.835 16.687Z" style="fill:#cdcdcd"/></svg><svg viewBox="115 15.3 60 70" id="ix-hdd-mirror"><path d="M132.044 15.622h37.985a4.546 4.546 0 0 1 4.546 4.546V68.68a4.546 4.546 0 0 1-4.546 4.546h-37.985a4.546 4.546 0 0 1-4.546-4.546V20.168a4.546 4.546 0 0 1 4.546-4.546Zm19.178 6.82c-9.516 0-17.23 7.714-17.23 17.23s7.714 17.23 17.23 17.23c.258 0 .516-.006.771-.017l-3.232-6.883 6.094-4.375 6.139 8.238c4.505-3.108 7.458-8.306 7.458-14.193 0-9.516-7.714-17.23-17.23-17.23Zm-16.008 39.049a3.491 3.491 0 1 0 0 6.982 3.491 3.491 0 0 0 0-6.982Zm19.142-21.819a3.134 3.134 0 1 1-6.268 0 3.134 3.134 0 0 1 6.268 0Zm4.758 27.671 6.597-3.803-11.286-15.143-3.146 2.259Zm-40.048-37.714h3.558v49.512h36.317v2.503a3.38 3.38 0 0 1-3.379 3.379h-36.496a3.38 3.38 0 0 1-3.379-3.379V33.008a3.38 3.38 0 0 1 3.379-3.379Z" style="fill:#cdcdcd"/></svg><svg viewBox="0 0 23.999 24" id="ix-iscsi-share" xmlns="http://www.w3.org/2000/svg"><path d="M14.4 24H9.6a1.2 1.2 0 0 1-1.2-1.2H0v-2.4h8.4a1.2 1.2 0 0 1 1.2-1.2h1.2v-2.4H3.6a2.4 2.4 0 0 1-2.4-2.4v-12A2.4 2.4 0 0 1 3.6 0h7.2l2.4 2.4h7.2a2.4 2.4 0 0 1 2.4 2.4v9.6a2.4 2.4 0 0 1-2.4 2.4h-7.2v2.4h1.2a1.2 1.2 0 0 1 1.2 1.2H24v2.4h-8.4a1.2 1.2 0 0 1-1.2 1.2Zm.463-12.445-.1.8.324.063a8.921 8.921 0 0 0 1.692.18 2.228 2.228 0 0 0 1.508-.481 1.833 1.833 0 0 0 .553-1.454 1.483 1.483 0 0 0-.378-1.121 3.2 3.2 0 0 0-1.3-.612 5.2 5.2 0 0 1-1.193-.432.652.652 0 0 1-.27-.589c0-.531.385-.8 1.143-.8.345 0 .928.047 1.782.144l.081-.81-.315-.054a9.9 9.9 0 0 0-1.638-.162 2.392 2.392 0 0 0-1.508.427 1.518 1.518 0 0 0-.544 1.264 1.571 1.571 0 0 0 .432 1.224 3.088 3.088 0 0 0 1.314.607 3.853 3.853 0 0 1 1.134.405.664.664 0 0 1 .252.572c0 .657-.375.99-1.116.99a15.275 15.275 0 0 1-1.854-.162Zm-2.655-5.319a2.056 2.056 0 0 0-1.827.724 4.573 4.573 0 0 0-.486 2.435 4.731 4.731 0 0 0 .482 2.457 2.025 2.025 0 0 0 1.831.747 8.441 8.441 0 0 0 1.755-.2l-.027-.828a10.21 10.21 0 0 1-1.638.135 1.155 1.155 0 0 1-1.089-.481 4.013 4.013 0 0 1-.279-1.809 3.906 3.906 0 0 1 .288-1.809 1.178 1.178 0 0 1 1.1-.482 9.358 9.358 0 0 1 1.62.144l.036-.81a7.881 7.881 0 0 0-1.767-.223ZM5.08 11.555l-.1.8.324.063a8.921 8.921 0 0 0 1.692.18 2.229 2.229 0 0 0 1.508-.481 1.833 1.833 0 0 0 .553-1.454 1.483 1.483 0 0 0-.378-1.121 3.2 3.2 0 0 0-1.3-.612 5.2 5.2 0 0 1-1.193-.432.652.652 0 0 1-.27-.589c0-.531.385-.8 1.143-.8.347 0 .929.047 1.782.144l.081-.81-.315-.054a9.9 9.9 0 0 0-1.638-.162 2.391 2.391 0 0 0-1.507.427 1.516 1.516 0 0 0-.545 1.264 1.571 1.571 0 0 0 .432 1.224 3.088 3.088 0 0 0 1.314.607 3.841 3.841 0 0 1 1.134.405.664.664 0 0 1 .252.572c0 .657-.375.99-1.116.99a15.275 15.275 0 0 1-1.854-.162Zm14.841-5.22V12.5h1V6.335ZM2.965 8v4.5h.981V8Zm0-1.8v1.035h.981V6.2Z"/></svg><svg viewBox="0 0 24 17.59" id="ix-layout-full" xmlns="http://www.w3.org/2000/svg"><g stroke="#000" data-name="Layout 0"><path stroke="none" d="M0 0h24v17.59H0z"/><path fill="none" d="M.5.5h23v16.59H.5z"/></g></svg><svg viewBox="0 0 23.004 16.59" id="ix-layout-half-and-quarters" xmlns="http://www.w3.org/2000/svg"><g data-name="Layout 2"><path data-name="Rectangle 275" d="M0 0h23v7.43H0zM0 8.8h10.82v7.79H0zM12.184 8.8h10.82v7.79h-10.82z"/></g></svg><svg viewBox="0 0 23 16.593" id="ix-layout-halves" xmlns="http://www.w3.org/2000/svg"><g data-name="Layout 4"><path data-name="Rectangle 275" d="M23 16.593H0v-7.43h23zM23 7.43H0V0h23z"/></g></svg><svg viewBox="0 0 23.004 16.59" id="ix-layout-quarters" xmlns="http://www.w3.org/2000/svg"><g data-name="Layout 1"><path data-name="Rectangle 275" d="M0 8.8h10.82v7.79H0zM12.18 8.8H23v7.79H12.18zM0 0h10.82v7.43H0zM12.184 0h10.82v7.43h-10.82z"/></g></svg><svg viewBox="0 0 23.004 16.58" id="ix-layout-quarters-and-half" xmlns="http://www.w3.org/2000/svg"><g data-name="Layout 3"><path data-name="Rectangle 275" d="M23 16.58H0V9.15h23zM23.003 7.79h-10.82V0h10.82zM10.82 7.79H0V0h10.82z"/></g></svg><svg viewBox="0 0 24 24" id="ix-network-upload-download" xmlns="http://www.w3.org/2000/svg"><path d="m8.123.426 5.147 5.153-3.861-.031v9.015H6.824V5.548H2.98L8.123.426zM14.537 9.409l2.579-.016v9.015h3.877l-5.154 5.138-5.153-5.154h3.845l.006-8.983z" fill="#124b64"/></svg><svg viewBox="0 0 24 24" id="ix-network-upload-download-both" xmlns="http://www.w3.org/2000/svg"><path d="m8.123.426 5.147 5.153-3.861-.031v9.015H6.824V5.548H2.98L8.123.426zM14.537 9.409l2.579-.016v9.015h3.877l-5.154 5.138-5.153-5.154h3.845l.006-8.983z" fill="#33a9db"/></svg><svg viewBox="0 0 24 24" id="ix-network-upload-download-disabled" xmlns="http://www.w3.org/2000/svg"><path d="M14.767 17.85.457 3.54l1.548-1.537 20.03 20.042L20.5 23.58l-5.732-5.732zM8.11.404l-2.3 2.358 3.604 3.604v-.842l3.772.017L8.11.404z"/><path d="m6.83 9.902 2.584 2.61v2.038H6.82l.01-4.648zM14.538 9.448l2.585-.02v4.633l-2.598-2.578.013-2.035zM18.19 21.26l-2.367 2.332-5.166-5.185h3.857v-.825l3.675 3.677z"/></svg><svg viewBox="0 0 24 24" id="ix-network-upload-download-down" xmlns="http://www.w3.org/2000/svg"><path d="m8.123.426 5.147 5.153-3.861-.031v9.015H6.824V5.548H2.98L8.123.426z" fill="#124b64"/><path d="m14.537 9.409 2.579-.016v9.015h3.877l-5.154 5.138-5.153-5.154h3.845l.006-8.983z" fill="#33a9db"/></svg><svg viewBox="0 0 24 24" id="ix-network-upload-download-up" xmlns="http://www.w3.org/2000/svg"><path d="m8.123.426 5.147 5.153-3.861-.031v9.015H6.824V5.548H2.98L8.123.426z" fill="#33a9db"/><path d="m14.537 9.409 2.579-.016v9.015h3.877l-5.154 5.138-5.153-5.154h3.845l.006-8.983z" fill="#124b64"/></svg><svg viewBox="0 0 23.999 24" id="ix-nfs-share" xmlns="http://www.w3.org/2000/svg"><path d="M14.4 24H9.6a1.2 1.2 0 0 1-1.2-1.2H0v-2.4h8.4a1.2 1.2 0 0 1 1.2-1.2h1.2v-2.4H3.6a2.4 2.4 0 0 1-2.4-2.4v-12A2.4 2.4 0 0 1 3.6 0h7.2l2.4 2.4h7.2a2.4 2.4 0 0 1 2.4 2.4v9.6a2.4 2.4 0 0 1-2.4 2.4h-7.2v2.4h1.2a1.2 1.2 0 0 1 1.2 1.2H24v2.4h-8.4a1.2 1.2 0 0 1-1.2 1.2Zm1.147-12.445-.1.8.324.063a8.913 8.913 0 0 0 1.692.18 2.229 2.229 0 0 0 1.508-.481 1.833 1.833 0 0 0 .553-1.454 1.482 1.482 0 0 0-.378-1.121 3.2 3.2 0 0 0-1.3-.612 5.2 5.2 0 0 1-1.193-.432.652.652 0 0 1-.27-.589c0-.531.385-.8 1.143-.8.346 0 .929.047 1.782.144l.081-.81-.315-.054a9.9 9.9 0 0 0-1.638-.162 2.391 2.391 0 0 0-1.507.427 1.516 1.516 0 0 0-.545 1.264 1.571 1.571 0 0 0 .432 1.224 3.091 3.091 0 0 0 1.314.607 3.859 3.859 0 0 1 1.134.405.666.666 0 0 1 .252.572c0 .657-.375.99-1.116.99a15.275 15.275 0 0 1-1.854-.162Zm-4.554-5.22V12.5h1v-2.34h2.349v-.873h-2.349V7.208h2.826v-.873Zm-6.174 0V12.5h1V7.209h.126l1.917 5.292h1.71V6.336h-1v5.283h-.135L6.565 6.336Z"/></svg><svg viewBox="0 0 24 24" xml:space="preserve" style="fill-rule:evenodd;clip-rule:evenodd;stroke-linejoin:round;stroke-miterlimit:2" id="ix-nvme-share" xmlns="http://www.w3.org/2000/svg"><path d="M14.4 24H9.6c-.66 0-1.2-.54-1.2-1.2H0v-2.4h8.4c0-.66.54-1.2 1.2-1.2h1.2v-2.4H3.6c-1.32 0-2.4-1.08-2.4-2.4v-12C1.2 1.08 2.28 0 3.6 0h7.2l2.4 2.4h7.2c1.32 0 2.4 1.08 2.4 2.4v9.6c0 1.32-1.08 2.4-2.4 2.4h-7.2v2.4h1.2c.66 0 1.2.54 1.2 1.2H24v2.4h-8.4c0 .66-.54 1.2-1.2 1.2Zm6.74-12.26c-.36.03-.71.05-1.04.05-.34 0-.57-.09-.7-.25-.12-.16-.19-.41-.19-.76h2.22l.05-.65c0-1.27-.5-1.91-1.51-1.91-1.03 0-1.55.74-1.55 2.22 0 .75.12 1.29.35 1.63.23.34.61.51 1.14.51.42 0 .9-.07 1.45-.19l-.02-.68-.2.03Zm-.43-1.66H19.2c.01-.39.07-.68.19-.85.12-.17.32-.26.58-.26.27 0 .46.09.57.25.12.16.17.45.17.86Zm-8.14 2.41h.8V7.8h.11l1.16 4.45h.83l1.15-4.45h.11v4.69h.8V6.77h-1.38l-1.1 4.47-1.09-4.47h-1.39v5.72Zm-9.3 0h.8V7.58h.1l1.52 4.91h1.36V6.77h-.79v4.9h-.11l-1.49-4.9H3.27v5.72Zm7.69-5.72-.97 4.9h-.36l-.97-4.9h-.83l1.2 5.72h1.56l1.21-5.72h-.84Z"/></svg><svg viewBox="0 0 24 24" xml:space="preserve" style="fill-rule:evenodd;clip-rule:evenodd;stroke-linejoin:round;stroke-miterlimit:2" id="ix-replication" xmlns="http://www.w3.org/2000/svg"><path d="M61.03 19.16v13.01L33.19 48.25V35.24l27.84-16.08ZM27.86 35.24v13L0 32.17v-13l12.59 7.26s.03.02.05.03l15.23 8.79-.01-.01Zm13.93-11.11-11.26 6.51-11.28-6.51 11.28-6.51 11.26 6.51Zm16.59-9.58-11.27 6.51-13.92-8.05V0l25.19 14.55ZM27.86 0v13.01l-13.93 8.04-11.28-6.5L27.86 0Z" style="fill-rule:nonzero" transform="matrix(.18611 0 0 .18611 1.277 11.062)"/><path d="M61.03 19.16v13.01L33.19 48.25V35.24l27.84-16.08ZM27.86 35.24v13L0 32.17v-13l12.59 7.26s.03.02.05.03l15.23 8.79-.01-.01Zm13.93-11.11-11.26 6.51-11.28-6.51 11.28-6.51 11.26 6.51Zm16.59-9.58-11.27 6.51-13.92-8.05V0l25.19 14.55ZM27.86 0v13.01l-13.93 8.04-11.28-6.5L27.86 0Z" style="fill-rule:nonzero" transform="matrix(.18611 0 0 .18611 11.791 4.31)"/></svg><svg viewBox="0 0 23.999 24" id="ix-smb-share" xmlns="http://www.w3.org/2000/svg"><path d="M14.4 24H9.6a1.2 1.2 0 0 1-1.2-1.2H0v-2.4h8.4a1.2 1.2 0 0 1 1.2-1.2h1.2v-2.4H3.6a2.4 2.4 0 0 1-2.4-2.4v-12A2.4 2.4 0 0 1 3.6 0h7.2l2.4 2.4h7.2a2.4 2.4 0 0 1 2.4 2.4v9.6a2.4 2.4 0 0 1-2.4 2.4h-7.2v2.4h1.2a1.2 1.2 0 0 1 1.2 1.2H24v2.4h-8.4a1.2 1.2 0 0 1-1.2 1.2ZM3.518 11.555l-.1.8.324.063a8.921 8.921 0 0 0 1.692.18 2.229 2.229 0 0 0 1.508-.481 1.833 1.833 0 0 0 .553-1.454 1.483 1.483 0 0 0-.378-1.121 3.2 3.2 0 0 0-1.3-.612 5.2 5.2 0 0 1-1.193-.432.652.652 0 0 1-.27-.589c0-.531.385-.8 1.143-.8.346 0 .928.047 1.782.144l.081-.81-.315-.054a9.9 9.9 0 0 0-1.638-.162 2.391 2.391 0 0 0-1.508.427 1.518 1.518 0 0 0-.544 1.264 1.571 1.571 0 0 0 .432 1.224 3.094 3.094 0 0 0 1.314.607 3.841 3.841 0 0 1 1.134.405.664.664 0 0 1 .252.572c0 .657-.375.99-1.116.99a15.275 15.275 0 0 1-1.854-.162Zm12.708-5.22V12.5h2.412c1.3 0 1.962-.587 1.962-1.746a1.383 1.383 0 0 0-.882-1.431 1.354 1.354 0 0 0 .553-.522 1.79 1.79 0 0 0 .176-.864 1.489 1.489 0 0 0-.468-1.219 2.211 2.211 0 0 0-1.413-.383ZM13.67 7.442h.135V12.5h1.008V6.335h-1.746L11.69 11.15l-1.377-4.815H8.576V12.5h1V7.442h.135l1.458 4.806h1.044l1.458-4.805Zm4.914 4.194h-1.359V9.809h1.341a1.227 1.227 0 0 1 .72.2.808.808 0 0 1 .288.707.887.887 0 0 1-.248.711 1.145 1.145 0 0 1-.743.208Zm-.036-2.673h-1.323V7.2h1.287c.609 0 .918.288.918.855a.794.794 0 0 1-.882.908Z"/></svg><svg viewBox="126.7 15.3 49 59" id="ix-ssd"><path d="M132.935 15.223h7.25v4.5a4.02 4.02 0 0 0 4.021 4.021h13.025a4.02 4.02 0 0 0 4.021-4.021v-4.5h7.251a5.566 5.566 0 0 1 5.566 5.566v48.115a5.566 5.566 0 0 1-5.566 5.566h-35.568a5.566 5.566 0 0 1-5.566-5.566V20.789a5.566 5.566 0 0 1 5.566-5.566Zm10.493.275h7.492a.86.86 0 0 1 .859.859v3.85a.86.86 0 0 1-.859.859h-7.492a.86.86 0 0 1-.859-.859v-3.85a.86.86 0 0 1 .859-.859Zm11.675 0h2.458c.602 0 1.09.488 1.09 1.09v3.414a1.09 1.09 0 0 1-1.09 1.09h-2.458a1.09 1.09 0 0 1-1.09-1.09v-3.414c0-.602.488-1.09 1.09-1.09Zm-19.251 23.43V59.34a4.925 4.925 0 0 0 4.925 4.925h19.885a4.925 4.925 0 0 0 4.925-4.925V38.928a4.925 4.925 0 0 0-4.925-4.925h-19.885a4.925 4.925 0 0 0-4.925 4.925Zm4.254-2.254h21.227c1.052 0 1.904.852 1.904 1.904V59.69a1.903 1.903 0 0 1-1.904 1.904h-21.227a1.903 1.903 0 0 1-1.904-1.904V38.578c0-1.052.852-1.904 1.904-1.904Zm27.584-16.807a2.138 2.138 0 1 0 0 4.275 2.138 2.138 0 0 0 0-4.275Zm0 45.683a2.138 2.138 0 1 0 0 4.275 2.138 2.138 0 0 0 0-4.275Zm-33.942 0a2.138 2.138 0 1 0 0 4.275 2.138 2.138 0 0 0 0-4.275Zm0-45.683a2.138 2.138 0 1 0 0 4.275 2.138 2.138 0 0 0 0-4.275Z" style="fill:#d8d8d8"/></svg><svg viewBox="115 15.3 60 71" id="ix-ssd-mirror"><path d="M132.895 15.383h7.25v4.5a4.02 4.02 0 0 0 4.021 4.021h13.025a4.02 4.02 0 0 0 4.021-4.021v-4.5h7.251a5.566 5.566 0 0 1 5.566 5.566v48.115a5.566 5.566 0 0 1-5.566 5.566h-35.568a5.566 5.566 0 0 1-5.566-5.566V20.949a5.566 5.566 0 0 1 5.566-5.566Zm10.493.275h7.492a.86.86 0 0 1 .859.859v3.85a.86.86 0 0 1-.859.859h-7.492a.86.86 0 0 1-.859-.859v-3.85a.86.86 0 0 1 .859-.859Zm11.675 0h2.458c.602 0 1.09.488 1.09 1.09v3.414a1.09 1.09 0 0 1-1.09 1.09h-2.458a1.09 1.09 0 0 1-1.09-1.09v-3.414c0-.602.488-1.09 1.09-1.09Zm-19.251 23.43V59.5a4.925 4.925 0 0 0 4.925 4.925h19.885a4.925 4.925 0 0 0 4.925-4.925V39.088a4.925 4.925 0 0 0-4.925-4.925h-19.885a4.925 4.925 0 0 0-4.925 4.925Zm4.254-2.254h21.227c1.052 0 1.904.852 1.904 1.904V59.85a1.903 1.903 0 0 1-1.904 1.904h-21.227a1.903 1.903 0 0 1-1.904-1.904V38.738c0-1.052.852-1.904 1.904-1.904Zm27.584-16.807a2.138 2.138 0 1 0 0 4.275 2.138 2.138 0 0 0 0-4.275Zm0 45.683a2.138 2.138 0 1 0 0 4.275 2.138 2.138 0 0 0 0-4.275Zm-33.942 0a2.138 2.138 0 1 0 0 4.275 2.138 2.138 0 0 0 0-4.275Zm0-45.683a2.138 2.138 0 1 0 0 4.275 2.138 2.138 0 0 0 0-4.275Zm-14.84 11.05h3.558v49.512h36.317v2.503a3.38 3.38 0 0 1-3.379 3.379h-36.496a3.38 3.38 0 0 1-3.379-3.379V34.456a3.38 3.38 0 0 1 3.379-3.379Z" style="fill:#d8d8d8"/></svg><svg viewBox="0 0 24 24" xml:space="preserve" style="fill-rule:evenodd;clip-rule:evenodd;stroke-linejoin:round;stroke-miterlimit:2" id="ix-true-cloud" xmlns="http://www.w3.org/2000/svg"><path d="M6.5 20c-1.52 0-2.817-.523-3.89-1.57C1.537 17.377 1 16.093 1 14.58c0-1.3.39-2.46 1.17-3.48a5.188 5.188 0 0 1 3.08-1.95c.42-1.533 1.253-2.773 2.5-3.72A6.841 6.841 0 0 1 12 4c1.953 0 3.607.68 4.96 2.04C18.32 7.393 19 9.047 19 11c1.153.133 2.107.633 2.86 1.5a4.366 4.366 0 0 1 1.14 3c0 1.253-.437 2.317-1.31 3.19-.873.873-1.937 1.31-3.19 1.31m-12-2h12c.7 0 1.29-.243 1.77-.73.487-.48.73-1.07.73-1.77s-.243-1.29-.73-1.77c-.48-.487-1.07-.73-1.77-.73H17v-2c0-1.38-.487-2.56-1.46-3.54C14.567 6.487 13.387 6 12 6c-1.38 0-2.56.487-3.54 1.46C7.487 8.44 7 9.62 7 11h-.5c-.967 0-1.79.343-2.47 1.03A3.346 3.346 0 0 0 3 14.5c0 .967.343 1.8 1.03 2.5.68.667 1.503 1 2.47 1" style="fill-rule:nonzero"/><path d="M61.03 19.16v13.01L33.19 48.25V35.24l27.84-16.08ZM27.86 35.24v13L0 32.17v-13l12.59 7.26s.03.02.05.03l15.23 8.79-.01-.01Zm13.93-11.11-11.26 6.51-11.28-6.51 11.28-6.51 11.26 6.51Zm16.59-9.58-11.27 6.51-13.92-8.05V0l25.19 14.55ZM27.86 0v13.01l-13.93 8.04-11.28-6.5L27.86 0Z" style="fill-rule:nonzero" transform="matrix(.13512 0 0 .13512 7.72 10.217)"/></svg><svg viewBox="0 0 62.856 71.149" id="ix-truecommand-logo-mark-color" xmlns="http://www.w3.org/2000/svg"><path data-name="logoMark &lt;PathItem&gt;" style="fill:none" d="M28.961 9.106 7.388 24.743l2.8 27.732 18.773 8.943 22.345-13.973V19.963L28.961 9.106z"/><path data-name="logoMark &lt;CompoundPathItem&gt;" d="M51.304 47.443 32.538 58.27h-3.58L10.192 47.433V25.772l1.785-3.104 16.98-9.798h3.581l16.97 9.798 1.796 3.103v-.612l11.552-6.674L30.806 0 0 17.78v35.58l30.805 17.79 31.73-18.32-11.231-8.2Z" style="fill:#0095d5"/><path data-name="logoMark &lt;PathItem&gt;" style="fill:#aeadae" d="m38.403 29.124-7.587 4.38-7.598-4.38 7.598-4.38 7.587 4.38z"/><path data-name="logoMark &lt;CompoundPathItem&gt;" d="m32.539 49.519 18.765-10.836v-4.141L32.54 45.367Zm16.97-26.85-7.588 4.39-8.957-5.18-.425-.239v4.1l5.864 3.384-5.864 3.384v4.1l18.765-10.836ZM10.193 38.682l8.469 4.889.041.02 10.255 5.927v-4.152L10.193 34.532Zm9.372-11.624-7.587-4.39-1.785 3.103 8.469 4.899.041.02 10.255 5.917v-4.173l-5.74-3.311 5.74-3.31V21.64l-.696.404Z" style="fill:#0095d5"/><path data-name="logoMark &lt;PathItem&gt;" style="fill:#0095d5" d="M32.539 12.87v12.87l-1.723-.996-1.858 1.069V12.87h3.581zM32.539 32.508v25.761h-3.581V32.435l1.858 1.069 1.723-.996z"/><path data-name="logoMark &lt;PathItem&gt;" style="fill:#31beec" d="m0 17.78 11.977 4.888 16.981-9.798h3.581l16.97 9.798 1.795 2.491 11.552-6.674L30.805 0 0 17.78z"/><path data-name="logoMark &lt;PathItem&gt;" style="fill:#31beec" d="m0 53.359 10.192-5.926V25.772l1.785-3.104L0 17.78v35.579z"/></svg><svg viewBox="0 0 294 49" id="ix-truenas-logo" xmlns="http://www.w3.org/2000/svg"><path d="M108.63 3.46v4.67H96.05V44.8H90.9V8.13H78.32V3.46h30.31Zm16.23 17.85c-1.26-1.74-2.82-2.52-5.03-2.52-3.66 0-6.41 2.76-6.41 7.25v18.75h-4.79V14.84h4.79v2.94c1.26-2.1 3.29-3.42 6.95-3.42 4.07 0 6.65 1.38 8.57 4.07l-4.07 2.88h-.01Zm31.1 23.48h-4.79v-2.94c-1.5 2.28-3.59 3.41-8.03 3.41-6.41 0-10.9-3.36-10.9-11.74V14.84h4.79v18.63c0 6.05 3.29 7.37 6.83 7.37 4.49 0 7.31-3.18 7.31-7.31V14.84h4.79V44.8v-.01Zm28.39-4.55c-2.1 3.66-5.27 5.03-10.48 5.03-8.03 0-12.82-5.21-12.82-13.54v-3.95c0-8.51 4.01-13.42 11.86-13.42s11.86 4.85 11.86 13.42v3.12h-18.93v.84c0 5.15 2.46 9.23 7.67 9.23 3.89 0 5.87-1.14 7.13-3.35l3.72 2.64-.01-.02ZM165.84 26.7h14.08c-.24-5.03-2.46-8.03-7.01-8.03s-6.77 3.06-7.07 8.03Zm56.31-23.24V44.8h-6.17l-16.83-28.1v28.1h-6.71V3.46h5.99l17.01 28.46V3.46h6.71Zm4.67 41.33L241.2 3.45h6.59l14.38 41.34h-7.37l-2.82-8.57h-14.92l-2.82 8.57h-7.43.01Zm12.17-14.55h11.02l-5.51-16.72-5.51 16.72Zm48.82-16.78c-2.04-2.82-4.25-4.49-8.93-4.49-4.25 0-6.77 1.92-6.77 5.39 0 3.95 3.12 5.51 8.87 6.77 8.33 1.8 12.64 4.91 12.64 12.34 0 6.17-4.13 11.86-14.08 11.86-7.07 0-12.04-2.16-15.46-6.77l5.45-3.77c2.46 2.94 4.91 4.49 9.65 4.49 5.69 0 7.49-2.52 7.49-5.51 0-3.3-1.86-5.33-9.05-6.89-7.97-1.68-12.46-5.51-12.46-12.52 0-6.23 4.07-11.44 13.78-11.44 6.59 0 11.2 2.22 14.14 6.77l-5.27 3.77Zm-226.78 5.7v13.01L33.19 48.25V35.24l27.84-16.08ZM27.86 35.24v13L0 32.17v-13l12.59 7.26s.03.02.05.03l15.23 8.79-.01-.01Zm13.93-11.11-11.26 6.51-11.28-6.51 11.28-6.51 11.26 6.51Zm16.59-9.58-11.27 6.51-13.92-8.05V0l25.19 14.55ZM27.86 0v13.01l-13.93 8.04-11.28-6.5L27.86 0Z"/></svg><svg viewBox="0 0 294 49" id="ix-truenas-logo-ce" xmlns="http://www.w3.org/2000/svg"><path d="M108.63 3.46v4.67H96.05V44.8H90.9V8.13H78.32V3.46h30.31Zm16.23 17.85c-1.26-1.74-2.82-2.52-5.03-2.52-3.66 0-6.41 2.76-6.41 7.25v18.75h-4.79V14.84h4.79v2.94c1.26-2.1 3.29-3.42 6.95-3.42 4.07 0 6.65 1.38 8.57 4.07l-4.07 2.88h-.01Zm31.1 23.48h-4.79v-2.94c-1.5 2.28-3.59 3.41-8.03 3.41-6.41 0-10.9-3.36-10.9-11.74V14.84h4.79v18.63c0 6.05 3.29 7.37 6.83 7.37 4.49 0 7.31-3.18 7.31-7.31V14.84h4.79V44.8v-.01Zm28.39-4.55c-2.1 3.66-5.27 5.03-10.48 5.03-8.03 0-12.82-5.21-12.82-13.54v-3.95c0-8.51 4.01-13.42 11.86-13.42s11.86 4.85 11.86 13.42v3.12h-18.93v.84c0 5.15 2.46 9.23 7.67 9.23 3.89 0 5.87-1.14 7.13-3.35l3.72 2.64-.01-.02ZM165.84 26.7h14.08c-.24-5.03-2.46-8.03-7.01-8.03s-6.77 3.06-7.07 8.03Zm56.31-23.24V44.8h-6.17l-16.83-28.1v28.1h-6.71V3.46h5.99l17.01 28.46V3.46h6.71Zm4.67 41.33L241.2 3.45h6.59l14.38 41.34h-7.37l-2.82-8.57h-14.92l-2.82 8.57h-7.43.01Zm12.17-14.55h11.02l-5.51-16.72-5.51 16.72Zm48.82-16.78c-2.04-2.82-4.25-4.49-8.93-4.49-4.25 0-6.77 1.92-6.77 5.39 0 3.95 3.12 5.51 8.87 6.77 8.33 1.8 12.64 4.91 12.64 12.34 0 6.17-4.13 11.86-14.08 11.86-7.07 0-12.04-2.16-15.46-6.77l5.45-3.77c2.46 2.94 4.91 4.49 9.65 4.49 5.69 0 7.49-2.52 7.49-5.51 0-3.3-1.86-5.33-9.05-6.89-7.97-1.68-12.46-5.51-12.46-12.52 0-6.23 4.07-11.44 13.78-11.44 6.59 0 11.2 2.22 14.14 6.77l-5.27 3.77Zm-226.78 5.7v13.01L33.19 48.25V35.24l27.84-16.08ZM27.86 35.24v13L0 32.17v-13l12.59 7.26s.03.02.05.03l15.23 8.79-.01-.01Zm13.93-11.11-11.26 6.51-11.28-6.51 11.28-6.51 11.26 6.51Zm16.59-9.58-11.27 6.51-13.92-8.05V0l25.19 14.55ZM27.86 0v13.01l-13.93 8.04-11.28-6.5L27.86 0Z"/></svg><svg viewBox="0 0 293.68 83.01" id="ix-truenas-logo-ce-color" xmlns="http://www.w3.org/2000/svg"><path fill="#0a95d3" d="M108.63 3.46v4.67H96.05V44.8H90.9V8.13H78.32V3.46h30.31Zm16.23 17.85c-1.26-1.74-2.82-2.52-5.03-2.52-3.66 0-6.41 2.76-6.41 7.25v18.75h-4.79V14.84h4.79v2.94c1.26-2.1 3.29-3.42 6.95-3.42 4.07 0 6.65 1.38 8.57 4.07l-4.07 2.88h-.01Zm31.1 23.48h-4.79v-2.94c-1.5 2.28-3.59 3.41-8.03 3.41-6.41 0-10.9-3.36-10.9-11.74V14.84h4.79v18.63c0 6.05 3.29 7.37 6.83 7.37 4.49 0 7.31-3.18 7.31-7.31V14.84h4.79V44.8v-.01Zm28.39-4.55c-2.1 3.66-5.27 5.03-10.48 5.03-8.03 0-12.82-5.21-12.82-13.54v-3.95c0-8.51 4.01-13.42 11.86-13.42s11.86 4.85 11.86 13.42v3.12h-18.93v.84c0 5.15 2.46 9.23 7.67 9.23 3.89 0 5.87-1.14 7.13-3.35l3.72 2.64-.01-.02ZM165.84 26.7h14.08c-.24-5.03-2.46-8.03-7.01-8.03s-6.77 3.06-7.07 8.03Zm56.31-23.24V44.8h-6.17l-16.83-28.1v28.1h-6.71V3.46h5.99l17.01 28.46V3.46h6.71Zm4.67 41.33L241.2 3.45h6.59l14.38 41.34h-7.37l-2.82-8.57h-14.92l-2.82 8.57h-7.43.01Zm12.17-14.55h11.02l-5.51-16.72-5.51 16.72Zm48.82-16.78c-2.04-2.82-4.25-4.49-8.93-4.49-4.25 0-6.77 1.92-6.77 5.39 0 3.95 3.12 5.51 8.87 6.77 8.33 1.8 12.64 4.91 12.64 12.34 0 6.17-4.13 11.86-14.08 11.86-7.07 0-12.04-2.16-15.46-6.77l5.45-3.77c2.46 2.94 4.91 4.49 9.65 4.49 5.69 0 7.49-2.52 7.49-5.51 0-3.3-1.86-5.33-9.05-6.89-7.97-1.68-12.46-5.51-12.46-12.52 0-6.23 4.07-11.44 13.78-11.44 6.59 0 11.2 2.22 14.14 6.77l-5.27 3.77Z"/><a xmlns:xlink="http://www.w3.org/1999/xlink" xlink:href="39.967"><path fill="#35beeb" d="M61.03 19.16v13.01L33.19 48.25V35.24l27.84-16.08z"/></a><a xmlns:xlink="http://www.w3.org/1999/xlink" xlink:href="56.178"><path fill="#0a95d3" d="M27.86 35.24v13L0 32.17v-13l12.59 7.26s.03.02.05.03l15.23 8.79-.01-.01Z"/></a><a xmlns:xlink="http://www.w3.org/1999/xlink" xlink:href="31.995"><path fill="#afadae" d="m41.79 24.13-11.26 6.51-11.28-6.51 11.28-6.51 11.26 6.51z"/></a><a xmlns:xlink="http://www.w3.org/1999/xlink" xlink:href="56.178"><path fill="#0a95d3" d="m58.38 14.55-11.27 6.51-13.92-8.05V0l25.19 14.55z"/></a><a xmlns:xlink="http://www.w3.org/1999/xlink" xlink:href="39.967"><path fill="#35beeb" d="M27.86 0v13.01l-13.93 8.04-11.28-6.5L27.86 0z"/></a><path fill="#0a95d3" d="M118.29 64.97c-.51-.31-1.08-.46-1.73-.46s-1.22.15-1.73.46c-.51.31-.91.75-1.2 1.34-.29.59-.44 1.32-.44 2.18s.15 1.59.44 2.18.69 1.04 1.2 1.34c.51.31 1.08.46 1.73.46s1.22-.15 1.73-.46c.51-.3.91-.75 1.2-1.34.29-.59.44-1.32.44-2.18s-.15-1.59-.44-2.18c-.29-.59-.69-1.04-1.2-1.34Zm115.1.08c-.55-.3-1.23-.45-2.05-.45h-1.95v7.8h1.84c.85 0 1.56-.15 2.13-.46.56-.31.99-.75 1.27-1.33s.42-1.29.42-2.13-.14-1.54-.42-2.11c-.28-.58-.69-1.02-1.24-1.32Zm36.32-.08c-.51-.31-1.08-.46-1.73-.46s-1.22.15-1.73.46c-.51.31-.91.75-1.2 1.34s-.44 1.32-.44 2.18.15 1.59.44 2.18.69 1.04 1.2 1.34c.51.31 1.08.46 1.73.46s1.22-.15 1.73-.46c.51-.3.91-.75 1.2-1.34s.44-1.32.44-2.18-.15-1.59-.44-2.18c-.29-.59-.69-1.04-1.2-1.34Z"/><path fill="#0a95d3" d="M90.68 54.01v29h203v-29h-203Zm10.09 16.67c.29.59.7 1.04 1.21 1.34.51.3 1.08.45 1.72.45.35 0 .69-.05 1.01-.14s.61-.23.87-.41.48-.4.66-.66.31-.56.37-.9h1.71c-.09.53-.27 1-.53 1.44s-.59.81-1 1.13a4.5 4.5 0 0 1-1.39.73c-.52.17-1.09.26-1.71.26-.97 0-1.83-.22-2.59-.65a4.612 4.612 0 0 1-1.79-1.87c-.44-.81-.65-1.78-.65-2.91s.22-2.1.66-2.91 1.04-1.44 1.79-1.87c.75-.43 1.62-.65 2.59-.65.59 0 1.15.08 1.67.24s.98.39 1.39.7c.41.31.75.68 1.02 1.13.27.44.45.95.55 1.52h-1.71c-.07-.34-.19-.65-.37-.91s-.4-.48-.66-.67c-.26-.18-.55-.32-.87-.41-.32-.09-.66-.14-1.01-.14-.65 0-1.22.15-1.73.46s-.91.76-1.2 1.35c-.29.59-.44 1.32-.44 2.17s.15 1.59.44 2.18h-.01Zm20.18.73c-.44.81-1.04 1.44-1.8 1.87-.76.44-1.62.65-2.59.65s-1.83-.22-2.59-.65c-.76-.43-1.36-1.06-1.8-1.87-.44-.81-.66-1.78-.66-2.91s.22-2.1.66-2.91 1.04-1.44 1.8-1.87c.76-.43 1.63-.65 2.59-.65s1.83.22 2.59.65c.76.44 1.36 1.06 1.8 1.87s.66 1.78.66 2.91-.22 2.1-.66 2.91Zm15.66 2.38H135v-7.66h-.1l-3.3 7.65h-1.33l-3.3-7.65h-.1v7.67h-1.61V63.21h2.05l3.57 8.23h.13l3.57-8.23h2.05V73.8l-.02-.01Zm15.37 0h-1.61v-7.66h-.1l-3.3 7.65h-1.33l-3.3-7.65h-.1v7.67h-1.61V63.21h2.05l3.57 8.23h.13l3.57-8.23H152V73.8l-.02-.01Zm12.9-3.62c0 .74-.18 1.4-.55 1.97-.37.57-.89 1.02-1.55 1.34s-1.45.49-2.35.49-1.67-.16-2.34-.49c-.67-.33-1.19-.77-1.55-1.34-.37-.57-.55-1.23-.55-1.97v-6.96h1.69v6.84c0 .48.11.9.34 1.28.22.37.54.66.95.88.41.21.9.32 1.47.32s1.06-.11 1.47-.32.73-.5.95-.88c.22-.37.33-.8.33-1.28v-6.84h1.7v6.96h-.01Zm13.04 3.62h-1.55l-5.69-7.77h-.1v7.77h-1.69V63.2h1.56l5.7 7.78h.1V63.2h1.67v10.59Zm5.69 0h-1.69V63.2h1.69v10.59Zm12.11-9.21h-3.49v9.21h-1.68v-9.21h-3.49V63.2h8.67v1.38h-.01Zm8.34 5.05v4.16h-1.68v-4.16l-4.06-6.43h1.92l2.93 4.81h.12l2.93-4.81h1.92l-4.06 6.43h-.02Zm19.9 4.16h-7.09V63.2h7.02v1.38h-5.33v3.23h4.97v1.37h-4.97v3.24h5.4v1.38-.01Zm12.12-2.47c-.42.79-1.04 1.4-1.84 1.83-.8.43-1.77.64-2.91.64h-3.63V63.2h3.74c1.1 0 2.04.21 2.83.63.79.42 1.39 1.03 1.81 1.81.42.79.63 1.73.63 2.83s-.21 2.05-.64 2.84l.01.01Zm5.96 2.47h-1.69V63.2h1.69v10.59Zm12.12-9.21h-3.49v9.21h-1.68v-9.21h-3.49V63.2h8.67v1.38h-.01Zm5.14 9.21h-1.69V63.2h1.69v10.59Zm13.07-2.38c-.44.81-1.04 1.44-1.8 1.87-.76.44-1.62.65-2.59.65s-1.83-.22-2.59-.65a4.7 4.7 0 0 1-1.8-1.87c-.44-.81-.66-1.78-.66-2.91s.22-2.1.66-2.91 1.04-1.44 1.8-1.87c.76-.44 1.62-.65 2.59-.65s1.83.22 2.59.65c.76.44 1.36 1.06 1.8 1.87s.66 1.78.66 2.91-.22 2.1-.66 2.91Zm13.34 2.38h-1.55l-5.69-7.77h-.1v7.77h-1.69V63.2h1.56l5.7 7.78h.1V63.2h1.67v10.59Z"/></svg><svg viewBox="0 0 294 90" id="ix-truenas-logo-enterprise" xmlns="http://www.w3.org/2000/svg"><g clip-path="url(#bca)"><path d="M108.63 3.46v4.67H96.05V44.8H90.9V8.13H78.32V3.46h30.31Zm16.23 17.85c-1.26-1.74-2.82-2.52-5.03-2.52-3.66 0-6.41 2.76-6.41 7.25v18.75h-4.79V14.84h4.79v2.94c1.26-2.1 3.29-3.42 6.95-3.42 4.07 0 6.65 1.38 8.57 4.07l-4.07 2.88h-.01Zm31.1 23.48h-4.79v-2.94c-1.5 2.28-3.59 3.41-8.03 3.41-6.41 0-10.9-3.36-10.9-11.74V14.84h4.79v18.63c0 6.05 3.29 7.37 6.83 7.37 4.49 0 7.31-3.18 7.31-7.31V14.84h4.79V44.8v-.01Zm28.39-4.55c-2.1 3.66-5.27 5.03-10.48 5.03-8.03 0-12.82-5.21-12.82-13.54v-3.95c0-8.51 4.01-13.42 11.86-13.42s11.86 4.85 11.86 13.42v3.12h-18.93v.84c0 5.15 2.46 9.23 7.67 9.23 3.89 0 5.87-1.14 7.13-3.35l3.72 2.64-.01-.02ZM165.84 26.7h14.08c-.24-5.03-2.46-8.03-7.01-8.03s-6.77 3.06-7.07 8.03Zm56.31-23.24V44.8h-6.17l-16.83-28.1v28.1h-6.71V3.46h5.99l17.01 28.46V3.46h6.71Zm4.67 41.33L241.2 3.45h6.59l14.38 41.34h-7.37l-2.82-8.57h-14.92l-2.82 8.57h-7.43.01Zm12.17-14.55h11.02l-5.51-16.72-5.51 16.72Zm48.82-16.78c-2.04-2.82-4.25-4.49-8.93-4.49-4.25 0-6.77 1.92-6.77 5.39 0 3.95 3.12 5.51 8.87 6.77 8.33 1.8 12.64 4.91 12.64 12.34 0 6.17-4.13 11.86-14.08 11.86-7.07 0-12.04-2.16-15.46-6.77l5.45-3.77c2.46 2.94 4.91 4.49 9.65 4.49 5.69 0 7.49-2.52 7.49-5.51 0-3.3-1.86-5.33-9.05-6.89-7.97-1.68-12.46-5.51-12.46-12.52 0-6.23 4.07-11.44 13.78-11.44 6.59 0 11.2 2.22 14.14 6.77l-5.27 3.77Zm-226.78 5.7v13.01L33.19 48.25V35.24l27.84-16.08ZM27.86 35.24v13L0 32.17v-13l12.59 7.26s.03.02.05.03l15.23 8.79-.01-.01Zm13.93-11.11-11.26 6.51-11.28-6.51 11.28-6.51 11.26 6.51Zm16.59-9.58-11.27 6.51-13.92-8.05V0l25.19 14.55ZM27.86 0v13.01l-13.93 8.04-11.28-6.5L27.86 0Zm203.53 71.03c.61-.26 1.06-.65 1.35-1.15.29-.5.43-1.11.43-1.82s-.14-1.33-.43-1.85-.74-.92-1.35-1.2c-.61-.28-1.42-.42-2.41-.42h-3.78v6.84h3.82c.97 0 1.77-.13 2.38-.4h-.01Zm-40.74 0c.61-.26 1.06-.65 1.35-1.15.29-.5.43-1.11.43-1.82s-.14-1.33-.43-1.85-.74-.92-1.35-1.2c-.61-.28-1.42-.42-2.41-.42h-3.78v6.84h3.82c.97 0 1.77-.13 2.38-.4h-.01Zm20.45-5.97c-.61-.31-1.42-.47-2.42-.47h-3.78v7.38h3.82c.98 0 1.78-.16 2.39-.48.61-.32 1.06-.76 1.35-1.32.29-.56.43-1.19.43-1.91s-.14-1.35-.43-1.9c-.29-.55-.74-.99-1.35-1.3h-.01Z"/><path d="M90.89 54.11v35h203v-35h-203Zm20.73 26.91H98.99V62.15h12.52v2.45h-9.5v5.75h8.85v2.44h-8.85v5.78h9.62v2.45h-.01Zm22.77 0h-2.77l-10.15-13.84h-.19v13.84h-3.01V62.15h2.79l10.16 13.86h.19V62.15h2.98v18.87Zm21.6-16.42h-6.23v16.42h-3V64.6h-6.22v-2.45h15.45v2.45Zm18.78 16.42h-12.63V62.15h12.52v2.45h-9.5v5.75h8.85v2.44h-8.85v5.78h9.62v2.45h-.01Zm18.02 0-4.06-7.15h-4.28v7.14h-3.01V62.14h7.12c1.55 0 2.83.25 3.86.76 1.02.5 1.79 1.2 2.3 2.09.51.89.76 1.91.76 3.07s-.26 2.17-.77 3.05c-.51.88-1.28 1.56-2.3 2.04-.19.09-.39.16-.6.23l4.42 7.64h-3.44Zm22.35-9.63c-.51.92-1.28 1.66-2.3 2.19-1.02.54-2.31.81-3.86.81h-4.09v6.64h-3.01V62.16H209c1.55 0 2.84.27 3.86.8s1.78 1.26 2.29 2.19c.51.92.76 1.96.76 3.12 0 1.16-.26 2.2-.77 3.13v-.01Zm18.39 9.63-4.06-7.15h-4.28v7.14h-3.01V62.14h7.12c1.55 0 2.83.25 3.86.76 1.02.5 1.79 1.2 2.3 2.09.51.89.76 1.91.76 3.07s-.26 2.17-.77 3.05c-.51.88-1.28 1.56-2.3 2.04-.19.09-.39.16-.6.23l4.42 7.64h-3.44Zm12.1 0h-3.01V62.15h3.01v18.87Zm20.33-2.37c-.58.83-1.42 1.48-2.52 1.96s-2.43.72-3.99.72-2.79-.22-3.88-.67c-1.09-.45-1.95-1.09-2.56-1.91-.62-.83-.96-1.81-1.02-2.94h3.02c.06.68.29 1.25.71 1.7.41.45.94.79 1.59 1 .65.22 1.36.33 2.13.33.85 0 1.61-.13 2.28-.38.67-.25 1.19-.61 1.57-1.07.38-.46.58-.99.58-1.61 0-.56-.17-1.02-.5-1.37-.33-.36-.79-.65-1.35-.88-.57-.23-1.21-.44-1.93-.62l-2.36-.61c-1.6-.41-2.86-1.02-3.8-1.82-.93-.8-1.4-1.86-1.4-3.17 0-1.09.31-2.04.94-2.85.62-.81 1.47-1.44 2.53-1.89 1.07-.45 2.27-.68 3.61-.68 1.34 0 2.55.22 3.58.67 1.04.45 1.85 1.06 2.45 1.85.6.78.91 1.68.94 2.7h-2.9c-.1-.87-.53-1.55-1.29-2.03-.75-.48-1.7-.72-2.85-.72-.82 0-1.53.12-2.12.36-.6.24-1.06.57-1.39 1-.33.43-.49.9-.49 1.43 0 .45.11.84.34 1.16.22.33.52.6.89.82.37.22.76.4 1.18.54.42.14.83.26 1.22.35l1.95.48c.64.15 1.29.35 1.96.6.67.25 1.29.58 1.86 1 .57.41 1.03.92 1.39 1.53.35.61.53 1.34.53 2.18 0 1.07-.29 2.02-.87 2.85l-.03-.01Zm19.84 2.37h-12.63V62.15h12.52v2.45h-9.5v5.75h8.85v2.44h-8.85v5.78h9.62v2.45h-.01Z"/></g><defs><clipPath id="bca"><path d="M0 0h293.89v89.11H0z"/></clipPath></defs></svg><svg viewBox="0 0 293.89 89.11" id="ix-truenas-logo-enterprise-color" xmlns="http://www.w3.org/2000/svg"><path fill="#0a95d3" d="M108.63 3.46v4.67H96.05V44.8H90.9V8.13H78.32V3.46h30.31Zm16.23 17.85c-1.26-1.74-2.82-2.52-5.03-2.52-3.66 0-6.41 2.76-6.41 7.25v18.75h-4.79V14.84h4.79v2.94c1.26-2.1 3.29-3.42 6.95-3.42 4.07 0 6.65 1.38 8.57 4.07l-4.07 2.88h-.01Zm31.1 23.48h-4.79v-2.94c-1.5 2.28-3.59 3.41-8.03 3.41-6.41 0-10.9-3.36-10.9-11.74V14.84h4.79v18.63c0 6.05 3.29 7.37 6.83 7.37 4.49 0 7.31-3.18 7.31-7.31V14.84h4.79V44.8v-.01Zm28.39-4.55c-2.1 3.66-5.27 5.03-10.48 5.03-8.03 0-12.82-5.21-12.82-13.54v-3.95c0-8.51 4.01-13.42 11.86-13.42s11.86 4.85 11.86 13.42v3.12h-18.93v.84c0 5.15 2.46 9.23 7.67 9.23 3.89 0 5.87-1.14 7.13-3.35l3.72 2.64-.01-.02ZM165.84 26.7h14.08c-.24-5.03-2.46-8.03-7.01-8.03s-6.77 3.06-7.07 8.03Zm56.31-23.24V44.8h-6.17l-16.83-28.1v28.1h-6.71V3.46h5.99l17.01 28.46V3.46h6.71Zm4.67 41.33L241.2 3.45h6.59l14.38 41.34h-7.37l-2.82-8.57h-14.92l-2.82 8.57h-7.43.01Zm12.17-14.55h11.02l-5.51-16.72-5.51 16.72Zm48.82-16.78c-2.04-2.82-4.25-4.49-8.93-4.49-4.25 0-6.77 1.92-6.77 5.39 0 3.95 3.12 5.51 8.87 6.77 8.33 1.8 12.64 4.91 12.64 12.34 0 6.17-4.13 11.86-14.08 11.86-7.07 0-12.04-2.16-15.46-6.77l5.45-3.77c2.46 2.94 4.91 4.49 9.65 4.49 5.69 0 7.49-2.52 7.49-5.51 0-3.3-1.86-5.33-9.05-6.89-7.97-1.68-12.46-5.51-12.46-12.52 0-6.23 4.07-11.44 13.78-11.44 6.59 0 11.2 2.22 14.14 6.77l-5.27 3.77Z"/><a xmlns:xlink="http://www.w3.org/1999/xlink" xlink:href="39.967"><path fill="#35beeb" d="M61.03 19.16v13.01L33.19 48.25V35.24l27.84-16.08z"/></a><a xmlns:xlink="http://www.w3.org/1999/xlink" xlink:href="56.178"><path fill="#0a95d3" d="M27.86 35.24v13L0 32.17v-13l12.59 7.26s.03.02.05.03l15.23 8.79-.01-.01Z"/></a><a xmlns:xlink="http://www.w3.org/1999/xlink" xlink:href="31.995"><path fill="#afadae" d="m41.79 24.13-11.26 6.51-11.28-6.51 11.28-6.51 11.26 6.51z"/></a><a xmlns:xlink="http://www.w3.org/1999/xlink" xlink:href="56.178"><path fill="#0a95d3" d="m58.38 14.55-11.27 6.51-13.92-8.05V0l25.19 14.55z"/></a><a xmlns:xlink="http://www.w3.org/1999/xlink" xlink:href="39.967"><path fill="#35beeb" d="M27.86 0v13.01l-13.93 8.04-11.28-6.5L27.86 0z"/></a><path fill="#0a95d3" d="M231.39 71.03c.61-.26 1.06-.65 1.35-1.15.29-.5.43-1.11.43-1.82s-.14-1.33-.43-1.85-.74-.92-1.35-1.2-1.42-.42-2.41-.42h-3.78v6.84h3.82c.97 0 1.77-.13 2.38-.4h-.01Zm-40.74 0c.61-.26 1.06-.65 1.35-1.15.29-.5.43-1.11.43-1.82s-.14-1.33-.43-1.85-.74-.92-1.35-1.2-1.42-.42-2.41-.42h-3.78v6.84h3.82c.97 0 1.77-.13 2.38-.4h-.01Zm20.45-5.97c-.61-.31-1.42-.47-2.42-.47h-3.78v7.38h3.82c.98 0 1.78-.16 2.39-.48s1.06-.76 1.35-1.32c.29-.56.43-1.19.43-1.91s-.14-1.35-.43-1.9-.74-.99-1.35-1.3h-.01Z"/><path fill="#0a95d3" d="M90.89 54.11v35h203v-35h-203Zm20.73 26.91H98.99V62.15h12.52v2.45h-9.5v5.75h8.85v2.44h-8.85v5.78h9.62v2.45h-.01Zm22.77 0h-2.77l-10.15-13.84h-.19v13.84h-3.01V62.15h2.79l10.16 13.86h.19V62.15h2.98v18.87Zm21.6-16.42h-6.23v16.42h-3V64.6h-6.22v-2.45h15.45v2.45Zm18.78 16.42h-12.63V62.15h12.52v2.45h-9.5v5.75h8.85v2.44h-8.85v5.78h9.62v2.45h-.01Zm18.02 0-4.06-7.15h-4.28v7.14h-3.01V62.14h7.12c1.55 0 2.83.25 3.86.76 1.02.5 1.79 1.2 2.3 2.09.51.89.76 1.91.76 3.07s-.26 2.17-.77 3.05c-.51.88-1.28 1.56-2.3 2.04-.19.09-.39.16-.6.23l4.42 7.64h-3.44Zm22.35-9.63c-.51.92-1.28 1.66-2.3 2.19-1.02.54-2.31.81-3.86.81h-4.09v6.64h-3.01V62.16H209c1.55 0 2.84.27 3.86.8s1.78 1.26 2.29 2.19c.51.92.76 1.96.76 3.12s-.26 2.2-.77 3.13v-.01Zm18.39 9.63-4.06-7.15h-4.28v7.14h-3.01V62.14h7.12c1.55 0 2.83.25 3.86.76 1.02.5 1.79 1.2 2.3 2.09.51.89.76 1.91.76 3.07s-.26 2.17-.77 3.05-1.28 1.56-2.3 2.04c-.19.09-.39.16-.6.23l4.42 7.64h-3.44Zm12.1 0h-3.01V62.15h3.01v18.87Zm20.33-2.37c-.58.83-1.42 1.48-2.52 1.96s-2.43.72-3.99.72-2.79-.22-3.88-.67c-1.09-.45-1.95-1.09-2.56-1.91-.62-.83-.96-1.81-1.02-2.94h3.02c.06.68.29 1.25.71 1.7.41.45.94.79 1.59 1 .65.22 1.36.33 2.13.33.85 0 1.61-.13 2.28-.38s1.19-.61 1.57-1.07.58-.99.58-1.61c0-.56-.17-1.02-.5-1.37-.33-.36-.79-.65-1.35-.88-.57-.23-1.21-.44-1.93-.62l-2.36-.61c-1.6-.41-2.86-1.02-3.8-1.82-.93-.8-1.4-1.86-1.4-3.17 0-1.09.31-2.04.94-2.85.62-.81 1.47-1.44 2.53-1.89 1.07-.45 2.27-.68 3.61-.68s2.55.22 3.58.67c1.04.45 1.85 1.06 2.45 1.85.6.78.91 1.68.94 2.7h-2.9c-.1-.87-.53-1.55-1.29-2.03-.75-.48-1.7-.72-2.85-.72-.82 0-1.53.12-2.12.36-.6.24-1.06.57-1.39 1s-.49.9-.49 1.43c0 .45.11.84.34 1.16.22.33.52.6.89.82.37.22.76.4 1.18.54.42.14.83.26 1.22.35l1.95.48c.64.15 1.29.35 1.96.6.67.25 1.29.58 1.86 1 .57.41 1.03.92 1.39 1.53.35.61.53 1.34.53 2.18 0 1.07-.29 2.02-.87 2.85l-.03-.01Zm19.84 2.37h-12.63V62.15h12.52v2.45h-9.5v5.75h8.85v2.44h-8.85v5.78h9.62v2.45h-.01Z"/></svg><svg viewBox="0 0 62 49" id="ix-truenas-logo-mark" xmlns="http://www.w3.org/2000/svg"><path d="M61.03 19.16v13.01L33.19 48.25V35.24l27.84-16.08ZM27.86 35.24v13L0 32.17v-13l12.59 7.26s.03.02.05.03l15.23 8.79-.01-.01Zm13.93-11.11-11.26 6.51-11.28-6.51 11.28-6.51 11.26 6.51Zm16.59-9.58-11.27 6.51-13.92-8.05V0l25.19 14.55ZM27.86 0v13.01l-13.93 8.04-11.28-6.5L27.86 0Z"/></svg><svg viewBox="0 0 62 49" id="ix-truenas-logo-mark-color" xmlns="http://www.w3.org/2000/svg"><path fill="#35BEEB" d="M61.03 19.16v13.01L33.19 48.25V35.24l27.84-16.08Z"/><path fill="#0A95D3" d="M27.86 35.24v13L0 32.17v-13l12.59 7.26s.03.02.05.03l15.23 8.79-.01-.01Z"/><path fill="#AFADAE" d="m41.79 24.13-11.26 6.51-11.28-6.51 11.28-6.51 11.26 6.51Z"/><path fill="#0A95D3" d="m58.38 14.55-11.27 6.51-13.92-8.05V0l25.19 14.55Z"/><path fill="#35BEEB" d="M27.86 0v13.01l-13.93 8.04-11.28-6.5L27.86 0Z"/></svg><svg viewBox="0 0 216 44" id="ix-truenas-logo-type" xmlns="http://www.w3.org/2000/svg"><path d="M30.63 1.46v4.67H18.05V42.8H12.9V6.13H.32V1.46h30.31Zm16.23 17.85c-1.26-1.74-2.82-2.52-5.03-2.52-3.66 0-6.41 2.76-6.41 7.25v18.75h-4.79V12.84h4.79v2.94c1.26-2.1 3.29-3.42 6.95-3.42 4.07 0 6.65 1.38 8.57 4.07l-4.07 2.88h-.01Zm31.1 23.48h-4.79v-2.94c-1.5 2.28-3.59 3.41-8.03 3.41-6.41 0-10.9-3.36-10.9-11.74V12.84h4.79v18.63c0 6.05 3.29 7.37 6.83 7.37 4.49 0 7.31-3.18 7.31-7.31V12.84h4.79V42.8v-.01Zm28.39-4.55c-2.1 3.66-5.27 5.03-10.48 5.03-8.03 0-12.82-5.21-12.82-13.54v-3.95c0-8.51 4.01-13.42 11.86-13.42s11.86 4.85 11.86 13.42v3.12H87.84v.84c0 5.15 2.46 9.23 7.67 9.23 3.89 0 5.87-1.14 7.13-3.35l3.72 2.64-.01-.02ZM87.84 24.7h14.08c-.24-5.03-2.46-8.03-7.01-8.03s-6.77 3.06-7.07 8.03Zm56.31-23.24V42.8h-6.17l-16.83-28.1v28.1h-6.71V1.46h5.99l17.01 28.46V1.46h6.71Zm4.67 41.33L163.2 1.45h6.59l14.38 41.34h-7.37l-2.82-8.57h-14.92l-2.82 8.57h-7.43.01Zm12.17-14.55h11.02l-5.51-16.72-5.51 16.72Zm48.82-16.78c-2.04-2.82-4.25-4.49-8.93-4.49-4.25 0-6.77 1.92-6.77 5.39 0 3.95 3.12 5.51 8.87 6.77 8.33 1.8 12.64 4.91 12.64 12.34 0 6.17-4.13 11.86-14.08 11.86-7.07 0-12.04-2.16-15.46-6.77l5.45-3.77c2.46 2.94 4.91 4.49 9.65 4.49 5.69 0 7.49-2.52 7.49-5.51 0-3.3-1.86-5.33-9.05-6.89-7.97-1.68-12.46-5.51-12.46-12.52 0-6.23 4.07-11.44 13.78-11.44 6.59 0 11.2 2.22 14.14 6.77l-5.27 3.77Z"/></svg><svg viewBox="0 0 216 44" id="ix-truenas-logo-type-color" xmlns="http://www.w3.org/2000/svg"><path fill="#0A95D3" d="M30.63 1.46v4.67H18.05V42.8H12.9V6.13H.32V1.46h30.31Zm16.23 17.85c-1.26-1.74-2.82-2.52-5.03-2.52-3.66 0-6.41 2.76-6.41 7.25v18.75h-4.79V12.84h4.79v2.94c1.26-2.1 3.29-3.42 6.95-3.42 4.07 0 6.65 1.38 8.57 4.07l-4.07 2.88h-.01Zm31.1 23.48h-4.79v-2.94c-1.5 2.28-3.59 3.41-8.03 3.41-6.41 0-10.9-3.36-10.9-11.74V12.84h4.79v18.63c0 6.05 3.29 7.37 6.83 7.37 4.49 0 7.31-3.18 7.31-7.31V12.84h4.79V42.8v-.01Zm28.39-4.55c-2.1 3.66-5.27 5.03-10.48 5.03-8.03 0-12.82-5.21-12.82-13.54v-3.95c0-8.51 4.01-13.42 11.86-13.42s11.86 4.85 11.86 13.42v3.12H87.84v.84c0 5.15 2.46 9.23 7.67 9.23 3.89 0 5.87-1.14 7.13-3.35l3.72 2.64-.01-.02ZM87.84 24.7h14.08c-.24-5.03-2.46-8.03-7.01-8.03s-6.77 3.06-7.07 8.03Zm56.31-23.24V42.8h-6.17l-16.83-28.1v28.1h-6.71V1.46h5.99l17.01 28.46V1.46h6.71Zm4.67 41.33L163.2 1.45h6.59l14.38 41.34h-7.37l-2.82-8.57h-14.92l-2.82 8.57h-7.43.01Zm12.17-14.55h11.02l-5.51-16.72-5.51 16.72Zm48.82-16.78c-2.04-2.82-4.25-4.49-8.93-4.49-4.25 0-6.77 1.92-6.77 5.39 0 3.95 3.12 5.51 8.87 6.77 8.33 1.8 12.64 4.91 12.64 12.34 0 6.17-4.13 11.86-14.08 11.86-7.07 0-12.04-2.16-15.46-6.77l5.45-3.77c2.46 2.94 4.91 4.49 9.65 4.49 5.69 0 7.49-2.52 7.49-5.51 0-3.3-1.86-5.33-9.05-6.89-7.97-1.68-12.46-5.51-12.46-12.52 0-6.23 4.07-11.44 13.78-11.44 6.59 0 11.2 2.22 14.14 6.77l-5.27 3.77Z"/></svg><svg viewBox="0 -960 960 960" fill="#D9D9D9" id="ix-webshare" xmlns="http://www.w3.org/2000/svg"><path d="M360-406.67h260q39.2 0 66.27-27.57 27.06-27.58 27.06-66.83 0-39.26-28.04-66.26-28.04-27-67.29-27h-6l-.67-6q-7.33-49-44.51-81-37.17-32-86.74-32-39.08 0-71.08 20.66-32 20.67-49 56.34l-2 3.33-4 .67q-45.19 1.89-76.26 34.48-31.07 32.6-31.07 77.94 0 47.24 33.05 80.24 33.06 33 80.28 33Zm0-66.66q-19.83 0-33.25-13.39-13.42-13.38-13.42-33.16 0-19.79 13.42-33.29t33.25-13.5h43.33V-570q0-31.76 22.44-54.21 22.43-22.46 54.16-22.46 31.74 0 54.24 22.46 22.5 22.45 22.5 54.21v43.33H620q11.33 0 19 7.67t7.67 19q0 11.33-7.67 19t-19 7.67H360ZM329.33-120v-66.67h84V-280H146.67q-27 0-46.84-19.83Q80-319.67 80-346.67v-426.66q0-27 19.83-46.84Q119.67-840 146.67-840h666.66q27 0 46.84 19.83Q880-800.33 880-773.33v426.66q0 27-19.83 46.84Q840.33-280 813.33-280H546.67v93.33h84V-120H329.33ZM146.67-346.67h666.66v-426.66H146.67v426.66Zm0 0v-426.66 426.66Z"/></svg><svg viewBox="0 0 24 24" id="mdi-alert-octagon" xmlns="http://www.w3.org/2000/svg"><path d="M13 13h-2V7h2m-2 8h2v2h-2m4.73-14H8.27L3 8.27v7.46L8.27 21h7.46L21 15.73V8.27L15.73 3Z"/></svg><svg viewBox="0 0 24 24" id="mdi-format-list-text" xmlns="http://www.w3.org/2000/svg"><path d="M2 14h6v6H2M16 8h-6v2h6M2 10h6V4H2m8 0v2h12V4M10 20h6v-2h-6m0-2h12v-2H10"/></svg><svg viewBox="0 0 24 24" id="mdi-laptop" xmlns="http://www.w3.org/2000/svg"><path d="M4 6h16v10H4m16 2a2 2 0 0 0 2-2V6a2 2 0 0 0-2-2H4c-1.11 0-2 .89-2 2v10a2 2 0 0 0 2 2H0v2h24v-2h-4Z"/></svg><svg viewBox="0 0 24 24" id="mdi-magnify-scan" xmlns="http://www.w3.org/2000/svg"><path d="M17 22v-2h3v-3h2v3.5c0 .39-.16.74-.46 1.04-.3.3-.65.46-1.04.46H17M7 22H3.5c-.39 0-.74-.16-1.04-.46-.3-.3-.46-.65-.46-1.04V17h2v3h3v2M17 2h3.5c.39 0 .74.16 1.04.46.3.3.46.65.46 1.04V7h-2V4h-3V2M7 2v2H4v3H2V3.5c0-.39.16-.74.46-1.04.3-.3.65-.46 1.04-.46H7m3.5 4C13 6 15 8 15 10.5c0 .88-.25 1.7-.69 2.4l3.26 3.26-1.41 1.41-3.26-3.26c-.7.44-1.52.69-2.4.69C8 15 6 13 6 10.5S8 6 10.5 6m0 2a2.5 2.5 0 0 0 0 5 2.5 2.5 0 0 0 0-5Z"/></svg><svg viewBox="0 0 24 24" id="mdi-rocket" xmlns="http://www.w3.org/2000/svg"><path d="m20 22-3.86-1.55c.7-1.53 1.2-3.11 1.51-4.72L20 22M7.86 20.45 4 22l2.35-6.27c.31 1.61.81 3.19 1.51 4.72M12 2s5 2 5 10c0 3.1-.75 5.75-1.67 7.83A2 2 0 0 1 13.5 21h-3a2 2 0 0 1-1.83-1.17C7.76 17.75 7 15.1 7 12c0-8 5-10 5-10m0 10c1.1 0 2-.9 2-2s-.9-2-2-2-2 .9-2 2 .9 2 2 2Z"/></svg><svg viewBox="0 0 24 24" id="share" xmlns="http://www.w3.org/2000/svg"><path d="M18 16.08c-.76 0-1.44.3-1.96.77L8.91 12.7c.05-.23.09-.46.09-.7s-.04-.47-.09-.7l7.05-4.11c.54.5 1.25.81 2.04.81 1.66 0 3-1.34 3-3s-1.34-3-3-3-3 1.34-3 3c0 .24.04.47.09.7L8.04 9.81C7.5 9.31 6.79 9 6 9c-1.66 0-3 1.34-3 3s1.34 3 3 3c.79 0 1.5-.31 2.04-.81l7.12 4.16c-.05.21-.08.43-.08.65 0 1.61 1.31 2.92 2.92 2.92 1.61 0 2.92-1.31 2.92-2.92s-1.31-2.92-2.92-2.92z"/></svg></svg>