<?xml version="1.0" encoding="utf-8"?><svg viewBox="0 0 754.62 240" xmlns="http://www.w3.org/2000/svg" xmlns:xlink="http://www.w3.org/1999/xlink"><style>:root>svg{display:none}:root>svg:target{display:block}</style><svg viewBox="0 0 24 24" id="account_circle" xmlns="http://www.w3.org/2000/svg"><path d="M12 2C6.48 2 2 6.48 2 12s4.48 10 10 10 10-4.48 10-10S17.52 2 12 2zm0 4c1.93 0 3.5 1.57 3.5 3.5S13.93 13 12 13s-3.5-1.57-3.5-3.5S10.07 6 12 6zm0 14c-2.03 0-4.43-.82-6.14-2.88a9.947 9.947 0 0 1 12.28 0C16.43 19.18 14.03 20 12 20z"/></svg><svg viewBox="0 0 24 24" id="add" xmlns="http://www.w3.org/2000/svg"><path d="M19 13h-6v6h-2v-6H5v-2h6V5h2v6h6v2z"/></svg><svg viewBox="0 0 24 24" id="add_circle_outline" xmlns="http://www.w3.org/2000/svg"><path d="M13 7h-2v4H7v2h4v4h2v-4h4v-2h-4V7zm-1-5C6.48 2 2 6.48 2 12s4.48 10 10 10 10-4.48 10-10S17.52 2 12 2zm0 18c-4.41 0-8-3.59-8-8s3.59-8 8-8 8 3.59 8 8-3.59 8-8 8z"/></svg><svg viewBox="0 0 24 24" id="add_to_photos" xmlns="http://www.w3.org/2000/svg"><path d="M4 6H2v14c0 1.1.9 2 2 2h14v-2H4V6zm16-4H8c-1.1 0-2 .9-2 2v12c0 1.1.9 2 2 2h12c1.1 0 2-.9 2-2V4c0-1.1-.9-2-2-2zm-1 9h-4v4h-2v-4H9V9h4V5h2v4h4v2z"/></svg><svg viewBox="0 0 24 24" id="apps" xmlns="http://www.w3.org/2000/svg"><path d="M4 8h4V4H4v4zm6 12h4v-4h-4v4zm-6 0h4v-4H4v4zm0-6h4v-4H4v4zm6 0h4v-4h-4v4zm6-10v4h4V4h-4zm-6 4h4V4h-4v4zm6 6h4v-4h-4v4zm0 6h4v-4h-4v4z"/></svg><svg viewBox="0 0 24 24" id="arrow_back" xmlns="http://www.w3.org/2000/svg"><path d="M20 11H7.83l5.59-5.59L12 4l-8 8 8 8 1.41-1.41L7.83 13H20v-2z"/></svg><svg viewBox="0 0 24 24" id="arrow_circle_right" xmlns="http://www.w3.org/2000/svg"><path d="M22 12c0-5.52-4.48-10-10-10S2 6.48 2 12s4.48 10 10 10 10-4.48 10-10zm-10 1H8v-2h4V8l4 4-4 4v-3z"/></svg><svg viewBox="0 0 24 24" id="arrow_forward" xmlns="http://www.w3.org/2000/svg"><path d="m12 4-1.41 1.41L16.17 11H4v2h12.17l-5.58 5.59L12 20l8-8z"/></svg><svg viewBox="0 0 24 24" id="assignment" xmlns="http://www.w3.org/2000/svg"><path d="M19 3h-4.18C14.4 1.84 13.3 1 12 1c-1.3 0-2.4.84-2.82 2H5c-1.1 0-2 .9-2 2v14c0 1.1.9 2 2 2h14c1.1 0 2-.9 2-2V5c0-1.1-.9-2-2-2zm-7 0c.55 0 1 .45 1 1s-.45 1-1 1-1-.45-1-1 .45-1 1-1zm2 14H7v-2h7v2zm3-4H7v-2h10v2zm0-4H7V7h10v2z"/></svg><svg viewBox="0 0 24 24" id="autorenew" xmlns="http://www.w3.org/2000/svg"><path d="M12 6v3l4-4-4-4v3c-4.42 0-8 3.58-8 8 0 1.57.46 3.03 1.24 4.26L6.7 14.8A5.87 5.87 0 0 1 6 12c0-3.31 2.69-6 6-6zm6.76 1.74L17.3 9.2c.44.84.7 1.79.7 2.8 0 3.31-2.69 6-6 6v-3l-4 4 4 4v-3c4.42 0 8-3.58 8-8 0-1.57-.46-3.03-1.24-4.26z"/></svg><svg viewBox="0 0 24 24" id="beenhere" xmlns="http://www.w3.org/2000/svg"><path d="M19 1H5c-1.1 0-1.99.9-1.99 2L3 15.93c0 .69.35 1.3.88 1.66L12 23l8.11-5.41c.53-.36.88-.97.88-1.66L21 3c0-1.1-.9-2-2-2zm-9 15-5-5 1.41-1.41L10 13.17l7.59-7.59L19 7l-9 9z"/></svg><svg viewBox="0 0 24 24" id="block" xmlns="http://www.w3.org/2000/svg"><path d="M12 2C6.48 2 2 6.48 2 12s4.48 10 10 10 10-4.48 10-10S17.52 2 12 2zM4 12c0-4.42 3.58-8 8-8 1.85 0 3.55.63 4.9 1.69L5.69 16.9A7.902 7.902 0 0 1 4 12zm8 8c-1.85 0-3.55-.63-4.9-1.69L18.31 7.1A7.902 7.902 0 0 1 20 12c0 4.42-3.58 8-8 8z"/></svg><svg viewBox="0 0 24 24" id="bookmark" xmlns="http://www.w3.org/2000/svg"><path d="M17 3H7c-1.1 0-1.99.9-1.99 2L5 21l7-3 7 3V5c0-1.1-.9-2-2-2z"/></svg><svg viewBox="0 0 24 24" id="bookmark_border" xmlns="http://www.w3.org/2000/svg"><path d="M17 3H7c-1.1 0-1.99.9-1.99 2L5 21l7-3 7 3V5c0-1.1-.9-2-2-2zm0 15-5-2.18L7 18V5h10v13z"/></svg><svg viewBox="0 0 24 24" id="build" xmlns="http://www.w3.org/2000/svg"><path d="m22.7 19-9.1-9.1c.9-2.3.4-5-1.5-6.9-2-2-5-2.4-7.4-1.3L9 6 6 9 1.6 4.7C.4 7.1.9 10.1 2.9 12.1c1.9 1.9 4.6 2.4 6.9 1.5l9.1 9.1c.4.4 1 .4 1.4 0l2.3-2.3c.5-.4.5-1.1.1-1.4z"/></svg><svg viewBox="0 0 24 24" id="cancel" xmlns="http://www.w3.org/2000/svg"><path d="M12 2C6.47 2 2 6.47 2 12s4.47 10 10 10 10-4.47 10-10S17.53 2 12 2zm5 13.59L15.59 17 12 13.41 8.41 17 7 15.59 10.59 12 7 8.41 8.41 7 12 10.59 15.59 7 17 8.41 13.41 12 17 15.59z"/></svg><svg viewBox="0 0 24 24" id="check" xmlns="http://www.w3.org/2000/svg"><path d="M9 16.17 4.83 12l-1.42 1.41L9 19 21 7l-1.41-1.41z"/></svg><svg viewBox="0 0 24 24" id="check_circle" xmlns="http://www.w3.org/2000/svg"><path d="M12 2C6.48 2 2 6.48 2 12s4.48 10 10 10 10-4.48 10-10S17.52 2 12 2zm-2 15-5-5 1.41-1.41L10 14.17l7.59-7.59L19 8l-9 9z"/></svg><svg viewBox="0 0 24 24" id="check_circle_outline" xmlns="http://www.w3.org/2000/svg"><path d="M16.59 7.58 10 14.17l-3.59-3.58L5 12l5 5 8-8zM12 2C6.48 2 2 6.48 2 12s4.48 10 10 10 10-4.48 10-10S17.52 2 12 2zm0 18c-4.42 0-8-3.58-8-8s3.58-8 8-8 8 3.58 8 8-3.58 8-8 8z"/></svg><svg viewBox="0 0 24 24" id="chevron_left" xmlns="http://www.w3.org/2000/svg"><path d="M15.41 7.41 14 6l-6 6 6 6 1.41-1.41L10.83 12z"/></svg><svg viewBox="0 0 24 24" id="chevron_right" xmlns="http://www.w3.org/2000/svg"><path d="M10 6 8.59 7.41 13.17 12l-4.58 4.59L10 18l6-6z"/></svg><svg viewBox="0 0 24 24" id="circle" xmlns="http://www.w3.org/2000/svg"><path d="M12 2C6.47 2 2 6.47 2 12s4.47 10 10 10 10-4.47 10-10S17.53 2 12 2z"/></svg><svg viewBox="0 0 24 24" id="clear" xmlns="http://www.w3.org/2000/svg"><path d="M19 6.41 17.59 5 12 10.59 6.41 5 5 6.41 10.59 12 5 17.59 6.41 19 12 13.41 17.59 19 19 17.59 13.41 12z"/></svg><svg viewBox="0 0 24 24" id="computer" xmlns="http://www.w3.org/2000/svg"><path d="M20 18c1.1 0 1.99-.9 1.99-2L22 6c0-1.1-.9-2-2-2H4c-1.1 0-2 .9-2 2v10c0 1.1.9 2 2 2H0v2h24v-2h-4zM4 6h16v10H4V6z"/></svg><svg viewBox="0 0 24 24" id="content_paste" xmlns="http://www.w3.org/2000/svg"><path d="M19 2h-4.18C14.4.84 13.3 0 12 0c-1.3 0-2.4.84-2.82 2H5c-1.1 0-2 .9-2 2v16c0 1.1.9 2 2 2h14c1.1 0 2-.9 2-2V4c0-1.1-.9-2-2-2zm-7 0c.55 0 1 .45 1 1s-.45 1-1 1-1-.45-1-1 .45-1 1-1zm7 18H5V4h2v3h10V4h2v16z"/></svg><svg viewBox="0 0 24 24" id="copyright" xmlns="http://www.w3.org/2000/svg"><path d="M11.88 9.14c1.28.06 1.61 1.15 1.63 1.66h1.79c-.08-1.98-1.49-3.19-3.45-3.19C9.64 7.61 8 9 8 12.14c0 1.94.93 4.24 3.84 4.24 2.22 0 3.41-1.65 3.44-2.95h-1.79c-.03.59-.45 1.38-1.63 1.44-1.31-.04-1.86-1.06-1.86-2.73 0-2.89 1.28-2.98 1.88-3zM12 2C6.48 2 2 6.48 2 12s4.48 10 10 10 10-4.48 10-10S17.52 2 12 2zm0 18c-4.41 0-8-3.59-8-8s3.59-8 8-8 8 3.59 8 8-3.59 8-8 8z"/></svg><svg viewBox="0 0 24 24" id="create_new_folder" xmlns="http://www.w3.org/2000/svg"><path d="M20 6h-8l-2-2H4c-1.11 0-1.99.89-1.99 2L2 18c0 1.11.89 2 2 2h16c1.11 0 2-.89 2-2V8c0-1.11-.89-2-2-2zm-1 8h-3v3h-2v-3h-3v-2h3V9h2v3h3v2z"/></svg><svg viewBox="0 0 24 24" id="dashboard" xmlns="http://www.w3.org/2000/svg"><path d="M3 13h8V3H3v10zm0 8h8v-6H3v6zm10 0h8V11h-8v10zm0-18v6h8V3h-8z"/></svg><svg viewBox="0 0 24 24" id="delete_sweep" xmlns="http://www.w3.org/2000/svg"><path d="M15 16h4v2h-4zm0-8h7v2h-7zm0 4h6v2h-6zM3 18c0 1.1.9 2 2 2h6c1.1 0 2-.9 2-2V8H3v10zM14 5h-3l-1-1H6L5 5H2v2h12z"/></svg><svg viewBox="0 0 24 24" id="device_hub" xmlns="http://www.w3.org/2000/svg"><path d="m17 16-4-4V8.82C14.16 8.4 15 7.3 15 6c0-1.66-1.34-3-3-3S9 4.34 9 6c0 1.3.84 2.4 2 2.82V12l-4 4H3v5h5v-3.05l4-4.2 4 4.2V21h5v-5h-4z"/></svg><svg viewBox="0 0 24 24" id="dialpad" xmlns="http://www.w3.org/2000/svg"><path d="M12 19c-1.1 0-2 .9-2 2s.9 2 2 2 2-.9 2-2-.9-2-2-2zM6 1c-1.1 0-2 .9-2 2s.9 2 2 2 2-.9 2-2-.9-2-2-2zm0 6c-1.1 0-2 .9-2 2s.9 2 2 2 2-.9 2-2-.9-2-2-2zm0 6c-1.1 0-2 .9-2 2s.9 2 2 2 2-.9 2-2-.9-2-2-2zm12-8c1.1 0 2-.9 2-2s-.9-2-2-2-2 .9-2 2 .9 2 2 2zm-6 8c-1.1 0-2 .9-2 2s.9 2 2 2 2-.9 2-2-.9-2-2-2zm6 0c-1.1 0-2 .9-2 2s.9 2 2 2 2-.9 2-2-.9-2-2-2zm0-6c-1.1 0-2 .9-2 2s.9 2 2 2 2-.9 2-2-.9-2-2-2zm-6 0c-1.1 0-2 .9-2 2s.9 2 2 2 2-.9 2-2-.9-2-2-2zm0-6c-1.1 0-2 .9-2 2s.9 2 2 2 2-.9 2-2-.9-2-2-2z"/></svg><svg viewBox="0 0 24 24" id="dns" xmlns="http://www.w3.org/2000/svg"><path d="M20 13H4c-.55 0-1 .45-1 1v6c0 .55.45 1 1 1h16c.55 0 1-.45 1-1v-6c0-.55-.45-1-1-1zM7 19c-1.1 0-2-.9-2-2s.9-2 2-2 2 .9 2 2-.9 2-2 2zM20 3H4c-.55 0-1 .45-1 1v6c0 .55.45 1 1 1h16c.55 0 1-.45 1-1V4c0-.55-.45-1-1-1zM7 9c-1.1 0-2-.9-2-2s.9-2 2-2 2 .9 2 2-.9 2-2 2z"/></svg><svg viewBox="0 0 24 24" id="done" xmlns="http://www.w3.org/2000/svg"><path d="M9 16.2 4.8 12l-1.4 1.4L9 19 21 7l-1.4-1.4L9 16.2z"/></svg><svg viewBox="0 0 24 24" id="drag_indicator" xmlns="http://www.w3.org/2000/svg"><path d="M11 18c0 1.1-.9 2-2 2s-2-.9-2-2 .9-2 2-2 2 .9 2 2zm-2-8c-1.1 0-2 .9-2 2s.9 2 2 2 2-.9 2-2-.9-2-2-2zm0-6c-1.1 0-2 .9-2 2s.9 2 2 2 2-.9 2-2-.9-2-2-2zm6 4c1.1 0 2-.9 2-2s-.9-2-2-2-2 .9-2 2 .9 2 2 2zm0 2c-1.1 0-2 .9-2 2s.9 2 2 2 2-.9 2-2-.9-2-2-2zm0 6c-1.1 0-2 .9-2 2s.9 2 2 2 2-.9 2-2-.9-2-2-2z"/></svg><svg viewBox="0 0 24 24" id="edit" xmlns="http://www.w3.org/2000/svg"><path d="M3 17.25V21h3.75L17.81 9.94l-3.75-3.75L3 17.25zM20.71 7.04a.996.996 0 0 0 0-1.41l-2.34-2.34a.996.996 0 0 0-1.41 0l-1.83 1.83 3.75 3.75 1.83-1.83z"/></svg><svg viewBox="0 0 24 24" id="error" xmlns="http://www.w3.org/2000/svg"><path d="M12 2C6.48 2 2 6.48 2 12s4.48 10 10 10 10-4.48 10-10S17.52 2 12 2zm1 15h-2v-2h2v2zm0-4h-2V7h2v6z"/></svg><svg viewBox="0 0 24 24" id="exit_to_app" xmlns="http://www.w3.org/2000/svg"><path d="M10.09 15.59 11.5 17l5-5-5-5-1.41 1.41L12.67 11H3v2h9.67l-2.58 2.59zM19 3H5a2 2 0 0 0-2 2v4h2V5h14v14H5v-4H3v4a2 2 0 0 0 2 2h14c1.1 0 2-.9 2-2V5c0-1.1-.9-2-2-2z"/></svg><svg viewBox="0 0 24 24" id="expand_less" xmlns="http://www.w3.org/2000/svg"><path d="m12 8-6 6 1.41 1.41L12 10.83l4.59 4.58L18 14z"/></svg><svg viewBox="0 0 24 24" id="expand_more" xmlns="http://www.w3.org/2000/svg"><path d="M16.59 8.59 12 13.17 7.41 8.59 6 10l6 6 6-6z"/></svg><svg viewBox="0 0 24 24" id="filter_none" xmlns="http://www.w3.org/2000/svg"><path d="M3 5H1v16c0 1.1.9 2 2 2h16v-2H3V5zm18-4H7c-1.1 0-2 .9-2 2v14c0 1.1.9 2 2 2h14c1.1 0 2-.9 2-2V3c0-1.1-.9-2-2-2zm0 16H7V3h14v14z"/></svg><svg viewBox="0 0 24 24" id="first_page" xmlns="http://www.w3.org/2000/svg"><path d="M18.41 16.59 13.82 12l4.59-4.59L17 6l-6 6 6 6zM6 6h2v12H6z"/></svg><svg viewBox="0 0 24 24" id="folder_open" xmlns="http://www.w3.org/2000/svg"><path d="M20 6h-8l-2-2H4c-1.1 0-1.99.9-1.99 2L2 18c0 1.1.9 2 2 2h16c1.1 0 2-.9 2-2V8c0-1.1-.9-2-2-2zm0 12H4V8h16v10z"/></svg><svg viewBox="0 0 24 24" id="folder_shared" xmlns="http://www.w3.org/2000/svg"><path d="M20 6h-8l-2-2H4c-1.1 0-1.99.9-1.99 2L2 18c0 1.1.9 2 2 2h16c1.1 0 2-.9 2-2V8c0-1.1-.9-2-2-2zm-5 3c1.1 0 2 .9 2 2s-.9 2-2 2-2-.9-2-2 .9-2 2-2zm4 8h-8v-1c0-1.33 2.67-2 4-2s4 .67 4 2v1z"/></svg><svg viewBox="0 0 24 24" id="format_list_bulleted" xmlns="http://www.w3.org/2000/svg"><path d="M4 10.5c-.83 0-1.5.67-1.5 1.5s.67 1.5 1.5 1.5 1.5-.67 1.5-1.5-.67-1.5-1.5-1.5zm0-6c-.83 0-1.5.67-1.5 1.5S3.17 7.5 4 7.5 5.5 6.83 5.5 6 4.83 4.5 4 4.5zm0 12c-.83 0-1.5.68-1.5 1.5s.68 1.5 1.5 1.5 1.5-.68 1.5-1.5-.67-1.5-1.5-1.5zM7 19h14v-2H7v2zm0-6h14v-2H7v2zm0-8v2h14V5H7z"/></svg><svg viewBox="0 0 24 24" id="group" xmlns="http://www.w3.org/2000/svg"><path d="M16 11c1.66 0 2.99-1.34 2.99-3S17.66 5 16 5c-1.66 0-3 1.34-3 3s1.34 3 3 3zm-8 0c1.66 0 2.99-1.34 2.99-3S9.66 5 8 5C6.34 5 5 6.34 5 8s1.34 3 3 3zm0 2c-2.33 0-7 1.17-7 3.5V19h14v-2.5c0-2.33-4.67-3.5-7-3.5zm8 0c-.29 0-.62.02-.97.05 1.16.84 1.97 1.97 1.97 3.45V19h6v-2.5c0-2.33-4.67-3.5-7-3.5z"/></svg><svg viewBox="0 0 24 24" id="groups" xmlns="http://www.w3.org/2000/svg"><path d="M12 12.75c1.63 0 3.07.39 4.24.9 1.08.48 1.76 1.56 1.76 2.73V18H6v-1.61c0-1.18.68-2.26 1.76-2.73 1.17-.52 2.61-.91 4.24-.91zM4 13c1.1 0 2-.9 2-2s-.9-2-2-2-2 .9-2 2 .9 2 2 2zm1.13 1.1c-.37-.06-.74-.1-1.13-.1-.99 0-1.93.21-2.78.58A2.01 2.01 0 0 0 0 16.43V18h4.5v-1.61c0-.83.23-1.61.63-2.29zM20 13c1.1 0 2-.9 2-2s-.9-2-2-2-2 .9-2 2 .9 2 2 2zm4 3.43c0-.81-.48-1.53-1.22-1.85A6.95 6.95 0 0 0 20 14c-.39 0-.76.04-1.13.1.4.68.63 1.46.63 2.29V18H24v-1.57zM12 6c1.66 0 3 1.34 3 3s-1.34 3-3 3-3-1.34-3-3 1.34-3 3-3z"/></svg><svg viewBox="0 0 24 24" id="help" xmlns="http://www.w3.org/2000/svg"><path d="M12 2C6.48 2 2 6.48 2 12s4.48 10 10 10 10-4.48 10-10S17.52 2 12 2zm1 17h-2v-2h2v2zm2.07-7.75-.9.92C13.45 12.9 13 13.5 13 15h-2v-.5c0-1.1.45-2.1 1.17-2.83l1.24-1.26c.37-.36.59-.86.59-1.41 0-1.1-.9-2-2-2s-2 .9-2 2H8c0-2.21 1.79-4 4-4s4 1.79 4 4c0 .88-.36 1.68-.93 2.25z"/></svg><svg viewBox="0 0 24 24" id="help_outline" xmlns="http://www.w3.org/2000/svg"><path d="M11 18h2v-2h-2v2zm1-16C6.48 2 2 6.48 2 12s4.48 10 10 10 10-4.48 10-10S17.52 2 12 2zm0 18c-4.41 0-8-3.59-8-8s3.59-8 8-8 8 3.59 8 8-3.59 8-8 8zm0-14c-2.21 0-4 1.79-4 4h2c0-1.1.9-2 2-2s2 .9 2 2c0 2-3 1.75-3 5h2c0-2.25 3-2.5 3-5 0-2.21-1.79-4-4-4z"/></svg><svg viewBox="0 0 24 24" id="highlight" xmlns="http://www.w3.org/2000/svg"><path d="m6 14 3 3v5h6v-5l3-3V9H6v5zm5-12h2v3h-2V2zM3.5 5.88l1.41-1.41 2.12 2.12L5.62 8 3.5 5.88zm13.46.71 2.12-2.12 1.41 1.41L18.38 8l-1.42-1.41z"/></svg><svg viewBox="0 0 24 24" id="highlight_off" xmlns="http://www.w3.org/2000/svg"><path d="M14.59 8 12 10.59 9.41 8 8 9.41 10.59 12 8 14.59 9.41 16 12 13.41 14.59 16 16 14.59 13.41 12 16 9.41 14.59 8zM12 2C6.47 2 2 6.47 2 12s4.47 10 10 10 10-4.47 10-10S17.53 2 12 2zm0 18c-4.41 0-8-3.59-8-8s3.59-8 8-8 8 3.59 8 8-3.59 8-8 8z"/></svg><svg viewBox="0 0 24 24" id="info" xmlns="http://www.w3.org/2000/svg"><path d="M12 2C6.48 2 2 6.48 2 12s4.48 10 10 10 10-4.48 10-10S17.52 2 12 2zm1 15h-2v-6h2v6zm0-8h-2V7h2v2z"/></svg><svg viewBox="0 0 24 24" id="insert_chart" xmlns="http://www.w3.org/2000/svg"><path d="M19 3H5c-1.1 0-2 .9-2 2v14c0 1.1.9 2 2 2h14c1.1 0 2-.9 2-2V5c0-1.1-.9-2-2-2zM9 17H7v-7h2v7zm4 0h-2V7h2v10zm4 0h-2v-4h2v4z"/></svg><svg viewBox="0 0 24 24" id="insert_drive_file" xmlns="http://www.w3.org/2000/svg"><path d="M6 2c-1.1 0-1.99.9-1.99 2L4 20c0 1.1.89 2 1.99 2H18c1.1 0 2-.9 2-2V8l-6-6H6zm7 7V3.5L18.5 9H13z"/></svg><svg fill="none" viewBox="0 0 24 24" id="ix-dataset" xmlns="http://www.w3.org/2000/svg"><path d="M6 8c-.28 0-.52-.1-.71-.29A.973.973 0 0 1 5 7c0-.28.1-.52.29-.71C5.48 6.1 5.72 6 6 6h12c.28 0 .52.1.71.29.19.19.29.43.29.71 0 .28-.1.52-.29.71-.19.19-.43.29-.71.29H6Zm2-3c-.28 0-.52-.1-.71-.29A.973.973 0 0 1 7 4c0-.28.1-.52.29-.71C7.48 3.1 7.72 3 8 3h8c.28 0 .52.1.71.29.19.19.29.43.29.71 0 .28-.1.52-.29.71-.19.19-.43.29-.71.29H8ZM3 9l2 12h14l2-12H3Zm11.71 6.1c-.19.19-.43.29-.71.29h-4c-.28 0-.52-.1-.71-.29a.973.973 0 0 1-.29-.71c0-.28.1-.52.29-.71.19-.19.43-.29.71-.29h4c.28 0 .52.1.71.29.19.19.29.43.29.71 0 .28-.1.52-.29.71Z" fill="currentColor"/></svg><svg viewBox="0 0 24 24" id="ix-dataset-root" xmlns="http://www.w3.org/2000/svg"><path d="M3 3h6v4H3V3m12 7h6v4h-6v-4m0 7h6v4h-6v-4m-2-4H7v5h6v2H5V9h2v2h6v2Z"/></svg><svg viewBox="0 0 17.3 9.9" style="enable-background:new 0 0 17.3 9.9" xml:space="preserve" id="ix-enclosure" xmlns="http://www.w3.org/2000/svg"><path d="M17.2 9.9h-2s-.1-.1-.1-.2V.2c0-.1 0-.2.1-.2h2s.1.1.1.2v9.6s0 .1-.1.1zM2.1 9.9h-2c-.1 0-.1-.1-.1-.2V.2C0 .1 0 0 .1 0h2s.1.1.1.2v9.6l-.1.1zM8.2 2.8H2.5V0h5.9v2.7c0 .1-.1.1-.2.1zM14.5 2.8H8.8V0h5.9v2.7c0 .1-.1.1-.2.1zM8.2 6.3H2.5V3.5h5.9v2.7c0 .1-.1.1-.2.1zM14.5 6.3H8.8V3.5h5.9v2.7c0 .1-.1.1-.2.1zM8.2 9.8H2.5V7h5.9v2.7c0 .1-.1.1-.2.1zM14.5 9.8H8.8V7h5.9v2.7c0 .1-.1.1-.2.1z"/></svg><svg viewBox="0 0 216 216" style="enable-background:new 0 0 216 216" xml:space="preserve" id="ix-ha-disabled" xmlns="http://www.w3.org/2000/svg"><path class="adst0" d="M89.7 129.9H67.3v-21.2H55.1v55.4h12.2v-23.9h22.4v23.9h12.2v-55.4H89.7zm38-21.2-20.9 55.4H119l4.3-12.3H144l4.2 12.3h12.6l-20.7-55.4h-12.4zm-1.2 34 7.2-20.3h.2l7 20.3h-14.4z" style="fill:none"/><path d="m133.8 122.3-7.3 20.4h14.4l-7-20.4z"/><path d="M142 100.5c-4.2 0-8.1-1.6-11.1-4.6-6.1-6.1-6.1-16.1 0-22.2l6-6c-8.4-5.2-18.3-8.2-28.9-8.2-22.2 0-41.3 13.2-50.1 32.1h-2.5c-24 2.5-42.5 22.7-42.5 47.3 0 26.3 21.3 47.6 47.6 47.6h103.1c21.9 0 39.7-17.8 39.7-39.7s-17.8-39.7-39.7-39.7h-.8c-.8-5.6-2.5-11-4.9-16l-4.8 4.8c-3 2.9-6.9 4.6-11.1 4.6zm-40.1 63.6H89.7v-23.9H67.3v23.9H55.1v-55.4h12.2V130h22.4v-21.3h12.2v55.4zm46.4 0-4.2-12.3h-20.7l-4.3 12.3h-12.3l20.9-55.4h12.5l20.7 55.4h-12.6z"/><path d="m167.3 65.8 22.1 22.1c.9.9 2 1.3 3.2 1.3s2.3-.4 3.2-1.3c1.8-1.8 1.8-4.6 0-6.4l-22.1-22.1 22.1-22.1c1.7-1.7 1.7-4.6 0-6.3-.9-.9-2-1.3-3.2-1.3s-2.3.4-3.2 1.3l-22.1 22-22.1-22.1c-.9-.9-2-1.3-3.2-1.3s-2.3.4-3.2 1.3c-1.8 1.8-1.8 4.6 0 6.4l22.1 22.1-22.1 22.1c-1.8 1.8-1.8 4.6 0 6.4.9.9 2 1.3 3.2 1.3s2.3-.4 3.2-1.3l22.1-22.1z"/></svg><svg viewBox="0 0 216 216" style="enable-background:new 0 0 216 216" xml:space="preserve" id="ix-ha-enabled" xmlns="http://www.w3.org/2000/svg"><path class="aest0" d="m121.1 109.4-20.9 55.4h12.3l4.3-12.3h20.7l4.2 12.3h12.6l-20.7-55.4h-12.5zm-1.1 33.9 7.2-20.3h.2l7 20.3H120zm-36.9-12.7H60.7v-21.2H48.5v55.4h12.2v-23.9h22.4v23.9h12.2v-55.4H83.1z" style="fill:none"/><path d="m127.2 123-7.2 20.3h14.3l-7-20.3z"/><path d="M151.8 114.1c-2.9 0-5.7-1.1-7.9-3.3l-27-27c-2.1-2.1-3.3-5-3.3-7.9 0-3 1.2-5.8 3.3-7.9l4.2-4.2c-6.1-2.4-12.8-3.7-19.8-3.7-22.2 0-41.3 13.2-50.1 32.1h-2.5c-24 2.5-42.5 22.7-42.5 47.3 0 26.3 21.3 47.6 47.6 47.6H157c21.9 0 39.7-17.8 39.7-39.7 0-20.1-15-36.5-34.3-39.1l-2.6 2.6c-2.3 2.1-5.1 3.2-8 3.2zm-56.5 50.7H83.1v-23.9H60.7v23.9H48.5v-55.4h12.2v21.3h22.4v-21.3h12.2v55.4zm46.4 0-4.2-12.3h-20.7l-4.3 12.3h-12.3l20.9-55.4h12.5l20.7 55.4h-12.6z"/><path d="m151.8 89.3-20.1-20.2-6.9 6.8 27 27 58-58-6.8-6.8z"/></svg><svg viewBox="0 0 216 216" style="enable-background:new 0 0 216 216" xml:space="preserve" id="ix-ha-reconnecting" xmlns="http://www.w3.org/2000/svg"><path class="afst0" d="m118.8 108-20.9 55.4h12.3l4.3-12.3h20.7l4.2 12.3H152L131.2 108h-12.4zm-1.2 34 7.2-20.3h.2l7 20.3h-14.4zm-36.9-12.8H58.3V108H46.1v55.4h12.2v-23.9h22.4v23.9h12.2V108H80.7z" style="fill:none"/><path d="m124.8 121.6-7.2 20.4h14.3l-6.9-20.4z"/><path d="M144.1 110c-5-2-8.7-6.4-9.8-11.7-.5-2.3-.4-4.5.1-6.7-1.8.9-3.9 1.4-6 1.4-3.6 0-7.1-1.4-9.7-4l-13.6-13.6c-4-3.9-5.2-9.7-3.1-14.9.2-.6.6-1 .9-1.6-1.3-.1-2.6-.2-3.9-.2-22.2 0-41.3 13.2-50.1 32.1h-2.5c-24 2.5-42.5 22.7-42.5 47.3 0 26.3 21.3 47.6 47.6 47.6h103.1c21.9 0 39.7-17.8 39.7-39.7 0-14.5-7.9-27-19.5-34-3.9.9-7.8 1.6-12 1.6-6.5.1-12.8-1.2-18.7-3.6zm-51.2 53.4H80.7v-23.9H58.3v23.9H46.1V108h12.2v21.3h22.4V108h12.2v55.4zm46.4 0-4.2-12.3h-20.7l-4.3 12.3H97.8l20.9-55.4h12.5l20.7 55.4h-12.6z"/><path d="M202.2 63.1h8.8c2.2 0 3.3-2.7 1.7-4.2L199 45.2c-.5-.5-1.1-.7-1.7-.7-.6 0-1.2.2-1.7.7l-13.7 13.7c-1.6 1.6-.5 4.2 1.7 4.2h8.8c0 16.3-13.2 29.5-29.5 29.5-3.9 0-7.7-.7-11.1-2.2-.5-.2-1.1-.3-1.7-.3-1.3 0-2.5.5-3.4 1.5-2.5 2.5-1.6 6.7 1.7 8.1 4.5 1.8 9.4 2.8 14.5 2.8 21.7 0 39.3-17.6 39.3-39.4zm-58.3 4.2c1.5-1.5.4-4.2-1.8-4.2h-8.8c0-16.3 13.2-29.5 29.5-29.5 3.9 0 7.7.7 11.1 2.2.5.2 1.1.3 1.7.3 1.3 0 2.5-.5 3.4-1.5 2.5-2.5 1.6-6.7-1.7-8.1-4.5-1.8-9.4-2.8-14.5-2.8-21.7 0-39.3 17.6-39.3 39.3h-8.8c-2.2 0-3.3 2.7-1.7 4.2L126.7 81c.5.5 1.1.7 1.7.7.6 0 1.3-.2 1.7-.7l13.8-13.7z"/></svg><svg viewBox="126.7 15 49 59" id="ix-hdd"><path d="M132.044 15.622h37.985a4.546 4.546 0 0 1 4.546 4.546V68.68a4.546 4.546 0 0 1-4.546 4.546h-37.985a4.546 4.546 0 0 1-4.546-4.546V20.168a4.546 4.546 0 0 1 4.546-4.546Zm19.178 6.82c-9.516 0-17.23 7.714-17.23 17.23s7.714 17.23 17.23 17.23c.258 0 .516-.006.771-.017l-3.232-6.883 6.094-4.375 6.139 8.238c4.505-3.108 7.458-8.306 7.458-14.193 0-9.516-7.714-17.23-17.23-17.23Zm-16.008 39.049a3.491 3.491 0 1 0 0 6.982 3.491 3.491 0 0 0 0-6.982Zm19.142-21.819a3.134 3.134 0 1 1-6.268 0 3.134 3.134 0 0 1 6.268 0Zm4.758 27.671 6.597-3.803-11.286-15.143-3.146 2.259 7.835 16.687Z" style="fill:#cdcdcd"/></svg><svg viewBox="115 15.3 60 70" id="ix-hdd-mirror"><path d="M132.044 15.622h37.985a4.546 4.546 0 0 1 4.546 4.546V68.68a4.546 4.546 0 0 1-4.546 4.546h-37.985a4.546 4.546 0 0 1-4.546-4.546V20.168a4.546 4.546 0 0 1 4.546-4.546Zm19.178 6.82c-9.516 0-17.23 7.714-17.23 17.23s7.714 17.23 17.23 17.23c.258 0 .516-.006.771-.017l-3.232-6.883 6.094-4.375 6.139 8.238c4.505-3.108 7.458-8.306 7.458-14.193 0-9.516-7.714-17.23-17.23-17.23Zm-16.008 39.049a3.491 3.491 0 1 0 0 6.982 3.491 3.491 0 0 0 0-6.982Zm19.142-21.819a3.134 3.134 0 1 1-6.268 0 3.134 3.134 0 0 1 6.268 0Zm4.758 27.671 6.597-3.803-11.286-15.143-3.146 2.259Zm-40.048-37.714h3.558v49.512h36.317v2.503a3.38 3.38 0 0 1-3.379 3.379h-36.496a3.38 3.38 0 0 1-3.379-3.379V33.008a3.38 3.38 0 0 1 3.379-3.379Z" style="fill:#cdcdcd"/></svg><svg viewBox="0 0 23.999 24" id="ix-iscsi-share" xmlns="http://www.w3.org/2000/svg"><path d="M14.4 24H9.6a1.2 1.2 0 0 1-1.2-1.2H0v-2.4h8.4a1.2 1.2 0 0 1 1.2-1.2h1.2v-2.4H3.6a2.4 2.4 0 0 1-2.4-2.4v-12A2.4 2.4 0 0 1 3.6 0h7.2l2.4 2.4h7.2a2.4 2.4 0 0 1 2.4 2.4v9.6a2.4 2.4 0 0 1-2.4 2.4h-7.2v2.4h1.2a1.2 1.2 0 0 1 1.2 1.2H24v2.4h-8.4a1.2 1.2 0 0 1-1.2 1.2Zm.463-12.445-.1.8.324.063a8.921 8.921 0 0 0 1.692.18 2.228 2.228 0 0 0 1.508-.481 1.833 1.833 0 0 0 .553-1.454 1.483 1.483 0 0 0-.378-1.121 3.2 3.2 0 0 0-1.3-.612 5.2 5.2 0 0 1-1.193-.432.652.652 0 0 1-.27-.589c0-.531.385-.8 1.143-.8.345 0 .928.047 1.782.144l.081-.81-.315-.054a9.9 9.9 0 0 0-1.638-.162 2.392 2.392 0 0 0-1.508.427 1.518 1.518 0 0 0-.544 1.264 1.571 1.571 0 0 0 .432 1.224 3.088 3.088 0 0 0 1.314.607 3.853 3.853 0 0 1 1.134.405.664.664 0 0 1 .252.572c0 .657-.375.99-1.116.99a15.275 15.275 0 0 1-1.854-.162Zm-2.655-5.319a2.056 2.056 0 0 0-1.827.724 4.573 4.573 0 0 0-.486 2.435 4.731 4.731 0 0 0 .482 2.457 2.025 2.025 0 0 0 1.831.747 8.441 8.441 0 0 0 1.755-.2l-.027-.828a10.21 10.21 0 0 1-1.638.135 1.155 1.155 0 0 1-1.089-.481 4.013 4.013 0 0 1-.279-1.809 3.906 3.906 0 0 1 .288-1.809 1.178 1.178 0 0 1 1.1-.482 9.358 9.358 0 0 1 1.62.144l.036-.81a7.881 7.881 0 0 0-1.767-.223ZM5.08 11.555l-.1.8.324.063a8.921 8.921 0 0 0 1.692.18 2.229 2.229 0 0 0 1.508-.481 1.833 1.833 0 0 0 .553-1.454 1.483 1.483 0 0 0-.378-1.121 3.2 3.2 0 0 0-1.3-.612 5.2 5.2 0 0 1-1.193-.432.652.652 0 0 1-.27-.589c0-.531.385-.8 1.143-.8.347 0 .929.047 1.782.144l.081-.81-.315-.054a9.9 9.9 0 0 0-1.638-.162 2.391 2.391 0 0 0-1.507.427 1.516 1.516 0 0 0-.545 1.264 1.571 1.571 0 0 0 .432 1.224 3.088 3.088 0 0 0 1.314.607 3.841 3.841 0 0 1 1.134.405.664.664 0 0 1 .252.572c0 .657-.375.99-1.116.99a15.275 15.275 0 0 1-1.854-.162Zm14.841-5.22V12.5h1V6.335ZM2.965 8v4.5h.981V8Zm0-1.8v1.035h.981V6.2Z"/></svg><svg xml:space="preserve" style="enable-background:new 0 0 378 144" viewBox="0 0 378 144" id="ix-ix-logo" xmlns="http://www.w3.org/2000/svg"><path d="M50.55 50.18h-.04c-1.77 0-3.2 1.43-3.2 3.2v.04a3.265 3.265 0 0 1 3.24-3.24zm94.33 27.15-9.31-2.43c-2.25-.6-3.77-2.66-3.77-5.12.01-2.85 2.27-5.27 4.94-5.29h13.14v-3.33h-13.13c-5.03.01-8.97 3.79-8.97 8.62 0 4 2.77 7.31 7.07 8.43l9.04 2.29c2.52.64 4.07 2.65 4.05 5.26-.01 2.85-2.27 5.26-4.93 5.28h-14.53v3.34H143c5.03 0 8.96-3.79 8.96-8.62 0-3.94-2.85-7.33-7.08-8.43zm61.18.01-9.32-2.44c-2.26-.6-3.77-2.66-3.77-5.12.01-2.85 2.27-5.27 4.94-5.29h13.13v-3.33h-13.13c-5.03 0-8.96 3.79-8.96 8.62 0 4 2.77 7.31 7.07 8.43l9.04 2.29c2.53.64 4.08 2.66 4.05 5.26-.01 2.84-2.27 5.26-4.93 5.28h-14.53v3.33h14.52c5.03 0 8.97-3.79 8.97-8.61-.01-3.94-2.85-7.33-7.08-8.42zm18.45-16.17V45.78l-4.03 1.28v38.77c0 4.79 3.94 8.54 8.96 8.55h3.4v-3.34h-3.4c-2.72-.01-4.93-2.35-4.93-5.21V64.49h8.34v-3.33h-8.34zm19.94 20.31.17-.04 13.01-3.16c3.93-.9 6.99-4.64 6.98-8.49 0-4.83-3.94-8.61-8.96-8.62h-6.26c-5.03 0-8.97 3.79-8.97 8.62v11.95c0 7.09 5.53 12.65 12.58 12.65h10.22v-3.34H253c-4.71 0-8.55-3.87-8.55-8.62v-.95zm0-3.84v-7.85c0-2.9 2.22-5.27 4.94-5.29h6.26c2.67.02 4.92 2.44 4.93 5.28.01 2.57-1.53 4.62-3.85 5.12l-11.33 2.78-.68.17-.27.06v-.27zm92.13-.3-9.32-2.44c-2.26-.6-3.77-2.66-3.77-5.12.01-2.85 2.26-5.27 4.93-5.28h13.13v-3.33h-13.13c-5.03 0-8.96 3.79-8.96 8.62 0 3.99 2.77 7.31 7.07 8.43l9.04 2.29c2.52.65 4.07 2.67 4.04 5.26-.01 2.84-2.27 5.26-4.93 5.28h-14.53v3.33h14.53c5.02 0 8.96-3.79 8.96-8.61.02-3.95-2.82-7.34-7.06-8.43zM177.51 61.17h-.04v24.87c0 4.21-4.38 5.11-6.92 5.12-2.54-.01-6.92-.91-6.92-5.12V61.17h-4.02v24.6c0 7.15 6.1 9.06 10.92 9.08h.06c2.29-.01 4.86-.45 6.93-1.67v5.2c0 4.75-3.87 8.62-8.62 8.62h-7.37v3.33h7.23c7.04 0 12.77-5.58 12.79-12.44V61.12h-4.03v.05zm123.48-.32h-.06c-3.15.01-6.83.84-9.01 3.4-2.18-2.56-5.86-3.39-9.01-3.4h-.06c-2.26.01-4.81.45-6.87 1.64v-2.83l-4.03 1.28-.01 33.59h4.03l.02-24.99c.09-4.1 4.39-4.99 6.9-5 2.53 0 6.92.91 6.92 5.11v24.87h4.24V69.66c0-4.2 4.38-5.11 6.92-5.11s6.92.91 6.92 5.11v24.87h4.02v-24.6c0-7.15-6.1-9.06-10.92-9.08zM80.27 76.01l-1.11 2.19-13.65 26.84a82.334 82.334 0 0 0 19.91-6.47c1.73-.81 3.38-1.71 5.01-2.61L81.39 78.2l-1.12-2.19zm.01-15.26 1.11-2.19 12.65-24.78c-7.8-.48-16.62.71-25.65 3.68l10.77 21.1 1.12 2.19z" class="amst2"/><path d="m76.19 68.5-.29-.57-14.34-27.91c-1.03.43-2.06.86-3.09 1.34-26.28 12.39-41.54 35.23-34.09 51.03 4.68 9.93 17.23 14.65 32.42 13.76l19.1-37.07.29-.58zM53.72 95.54h-6.34V62.23h6.34v33.31zm-3.15-38.87a3.25 3.25 0 0 1-3.25-3.25v-.06c0-1.77 1.43-3.2 3.2-3.2h.06c1.79 0 3.24 1.45 3.25 3.25a3.267 3.267 0 0 1-3.26 3.26zm51.07-21.81L84.66 67.93l-.29.57.29.57 11.92 23.15c19.2-12.85 29.24-31.28 22.92-44.67-3.06-6.5-9.52-10.75-17.86-12.69zm242.91 26.95h1.82v4.87h.74v-4.87h1.82v-.66h-4.38zm9.4-.66L352.63 65c-.13.39-.23.68-.29.89-.06-.18-.14-.45-.26-.82l-1.31-3.91h-1.1v5.53h.71v-4.71l1.6 4.71h.66l1.61-4.63v4.63h.71v-5.53h-1.01z" class="amst2"/></svg><svg viewBox="0 0 99.601 37.734" id="ix-ix-logo-color" xmlns="http://www.w3.org/2000/svg"><path d="m122.384 43.66-9.315-2.431a5.158 5.158 0 0 1-3.766-5.118 5.226 5.226 0 0 1 4.938-5.287l13.135-.004v-3.332h-13.13a8.716 8.716 0 0 0-8.967 8.623c0 3.995 2.775 7.308 7.07 8.431l9.039 2.295a5.159 5.159 0 0 1 4.046 5.259 5.222 5.222 0 0 1-4.934 5.282h-14.529v3.336h14.525a8.709 8.709 0 0 0 8.962-8.623c.005-3.941-2.838-7.332-7.074-8.432z" style="fill:#fff" transform="translate(5.82 8.722) scale(.26458)"/><path d="m183.567 43.663-9.32-2.44a5.145 5.145 0 0 1-3.766-5.115 5.223 5.223 0 0 1 4.939-5.287l13.133-.002v-3.326H175.42a8.707 8.707 0 0 0-8.964 8.615c0 3.998 2.772 7.307 7.068 8.434l9.037 2.29a5.364 5.364 0 0 1-.885 10.546H167.15v3.332h14.523a8.71 8.71 0 0 0 8.966-8.614c0-3.951-2.842-7.337-7.072-8.433zm18.454-16.171V12.108l-4.029 1.28v38.775a8.689 8.689 0 0 0 8.964 8.551h3.404v-3.336h-3.404a5.098 5.098 0 0 1-4.935-5.215V30.82h8.339v-3.328h-8.339zM221.96 47.81l.169-.041 13.007-3.164a9.119 9.119 0 0 0 6.983-8.494 8.709 8.709 0 0 0-8.962-8.618h-6.256a8.709 8.709 0 0 0-8.966 8.618v11.953a12.49 12.49 0 0 0 12.577 12.65h10.217v-3.336h-10.217a8.598 8.598 0 0 1-8.551-8.623zm0-3.848v-7.851a5.157 5.157 0 0 1 4.94-5.291l6.257.004a5.218 5.218 0 0 1 4.933 5.284 4.984 4.984 0 0 1-3.854 5.12l-11.326 2.784-.678.167-.271.064zm92.13-.299-9.317-2.44a5.143 5.143 0 0 1-3.765-5.115 5.215 5.215 0 0 1 4.932-5.284l13.133-.004v-3.33H305.94a8.706 8.706 0 0 0-8.96 8.618c0 3.993 2.771 7.307 7.066 8.434l9.044 2.29a5.365 5.365 0 0 1-.887 10.546h-14.531v3.332h14.527a8.706 8.706 0 0 0 8.961-8.614c.002-3.946-2.837-7.337-7.07-8.433zM155.013 27.492h-.045v24.87c0 4.21-4.381 5.11-6.916 5.12-2.537-.01-6.92-.91-6.92-5.12v-24.87h-4.025l-.004 24.604c0 7.147 6.097 9.058 10.918 9.075v.005c.009 0 .018-.005.031-.005h.028a14.03 14.03 0 0 0 6.934-1.674v5.204a8.627 8.627 0 0 1-8.618 8.619h-7.369v3.332h7.229a12.649 12.649 0 0 0 12.786-12.44V27.445h-4.029zm123.487-.316v-.003c-.01 0-.018.003-.03.003h-.029c-3.145.01-6.827.841-9.011 3.399-2.181-2.558-5.864-3.388-9.012-3.399v-.003c-.01 0-.018.003-.027.003h-.032a14.104 14.104 0 0 0-6.871 1.639v-2.827l-4.027 1.28-.015 33.587h4.026l.016-24.989c.09-4.096 4.39-4.992 6.903-4.997 2.534.005 6.915.91 6.915 5.115v24.87h4.247v-24.87c0-4.205 4.381-5.11 6.917-5.115 2.538.005 6.92.91 6.92 5.115v24.87h4.023l.005-24.6c0-7.148-6.097-9.06-10.917-9.078z" data-name="fullLogo" style="fill:#fff" transform="translate(5.82 8.722) scale(.26458)"/><path d="m57.78 42.333-1.113 2.19-13.65 26.837a82.485 82.485 0 0 0 19.91-6.468c1.729-.815 3.377-1.707 5.006-2.608l-9.037-17.76Zm.003-15.261 1.113-2.186L71.546.104A69.505 69.505 0 0 0 45.9 3.784l10.767 21.101z" data-name="logoMark &lt;PathItem&gt;" style="fill:#0096d6" transform="translate(5.82 8.722) scale(.26458)"/><path d="m53.698 34.83-.294-.573L39.064 6.35c-1.031.432-2.063.86-3.091 1.345C9.699 20.074-5.56 42.917 1.886 58.713 6.562 68.64 19.12 73.365 34.31 72.473l19.094-37.07ZM31.225 61.865h-6.338V28.557h6.338zm-3.15-38.866a3.249 3.249 0 0 1-3.25-3.248v-.009l.002-.007-.002-.017v-.015a3.2 3.2 0 0 1 3.203-3.2h.015l.017.001h.008l.008-.001a3.248 3.248 0 0 1 0 6.496z" data-name="logoMark &lt;CompoundPathItem&gt;" style="fill:#0096d6" transform="translate(5.82 8.722) scale(.26458)"/><path d="M79.15 1.186 62.166 34.257l-.29.57.294.575L74.09 58.55c19.198-12.85 29.235-31.281 22.923-44.673-3.064-6.5-9.528-10.752-17.865-12.69Z" data-name="logoMark &lt;PathItem&gt;" style="fill:#0096d6" transform="translate(5.82 8.722) scale(.26458)"/><path d="m61.877 34.827.29-.57L79.15 1.187c-.389-.092-.758-.205-1.154-.284a46.354 46.354 0 0 0-5.183-.726c-.416-.037-.846-.046-1.267-.073l-12.65 24.782-1.113 2.186-1.116-2.186L45.9 3.784c-.372.123-.743.226-1.116.356q-2.326.797-4.653 1.747c-.355.147-.711.314-1.066.463l14.34 27.907.293.573-.294.572L34.31 72.474c.45-.027.892-.041 1.347-.078q2.899-.23 5.911-.738c.477-.08.969-.208 1.449-.298l13.65-26.836 1.114-2.19 1.115 2.19 9.037 17.76c.335-.185.697-.347 1.027-.539q2.15-1.221 4.17-2.533c.33-.213.635-.444.961-.662l-11.92-23.148zM31.225 61.864V28.558h-6.338v33.306h1.16zM28.1 16.445h-.009l-.007.001a3.326 3.326 0 0 0-3.315 3.312l-.001.008-.001.009a3.33 3.33 0 1 0 3.333-3.33z" data-name="logoMark &lt;PathItem&gt;" style="fill:#fff" transform="translate(5.82 8.722) scale(.26458)"/><path d="M323.88 28.134v4.874h.732v-4.874h1.828v-.653h-4.382v.653zm7.579-.654-1.323 3.847c-.135.39-.231.684-.294.886q-.084-.272-.263-.818l-1.31-3.914h-1.101v5.527h.705v-4.706l1.6 4.706h.659l1.606-4.625v4.625h.706v-5.527z" data-name="fullLogo" style="fill:#fff" transform="translate(5.82 8.722) scale(.26458)"/></svg><svg xml:space="preserve" viewBox="0 0 144 144" id="ix-ix-logo-mark" xmlns="http://www.w3.org/2000/svg"><path d="M50.55 50.18h-.04c-1.77 0-3.2 1.43-3.2 3.2v.04a3.265 3.265 0 0 1 3.24-3.24zm29.72 25.83-1.11 2.19-13.65 26.84a82.334 82.334 0 0 0 19.91-6.47c1.73-.81 3.38-1.71 5.01-2.61L81.39 78.2Zm.01-15.26 1.11-2.19 12.65-24.78c-7.8-.48-16.62.71-25.65 3.68l10.77 21.1z" class="alst2"/><path d="m76.19 68.5-.29-.57-14.34-27.91c-1.03.43-2.06.86-3.09 1.34-26.28 12.39-41.54 35.23-34.09 51.03 4.68 9.93 17.23 14.65 32.42 13.76l19.1-37.07ZM53.72 95.54h-6.34V62.23h6.34zm-3.15-38.87a3.25 3.25 0 0 1-3.25-3.25v-.06c0-1.77 1.43-3.2 3.2-3.2h.06c1.79 0 3.24 1.45 3.25 3.25a3.267 3.267 0 0 1-3.26 3.26zm51.07-21.81L84.66 67.93l-.29.57.29.57 11.92 23.15c19.2-12.85 29.24-31.28 22.92-44.67-3.06-6.5-9.52-10.75-17.86-12.69zm245.47 26.95h1.82v-.66h-4.38v.66h1.82v4.87h.74zm6.84-.66L352.63 65c-.13.39-.23.68-.29.89-.06-.18-.14-.45-.26-.82l-1.31-3.91h-1.1v5.53h.71v-4.71l1.6 4.71h.66l1.61-4.63v4.63h.71v-5.53h-1.01z" class="alst2"/></svg><svg viewBox="0 0 38.1 38.1" id="ix-ix-logo-mark-color" xmlns="http://www.w3.org/2000/svg"><path d="m57.78 42.333-1.113 2.19-13.65 26.837a82.485 82.485 0 0 0 19.91-6.468c1.729-.815 3.377-1.707 5.006-2.608l-9.037-17.76Zm.003-15.261 1.113-2.186L71.546.104A69.505 69.505 0 0 0 45.9 3.784l10.767 21.101z" data-name="logoMark &lt;PathItem&gt;" style="fill:#0096d6" transform="translate(5.967 9.444) scale(.26458)"/><path d="m53.698 34.83-.294-.573L39.064 6.35c-1.031.432-2.063.86-3.091 1.345C9.699 20.074-5.56 42.917 1.886 58.713 6.562 68.64 19.12 73.365 34.31 72.473l19.094-37.07ZM31.225 61.865h-6.338V28.557h6.338zm-3.15-38.866a3.249 3.249 0 0 1-3.25-3.248v-.009l.002-.007-.002-.017v-.015a3.2 3.2 0 0 1 3.203-3.2h.015l.017.001h.008l.008-.001a3.248 3.248 0 0 1 0 6.496z" data-name="logoMark &lt;CompoundPathItem&gt;" style="fill:#0096d6" transform="translate(5.967 9.444) scale(.26458)"/><path d="M79.15 1.186 62.166 34.257l-.29.57.294.575L74.09 58.55c19.198-12.85 29.235-31.281 22.923-44.673-3.064-6.5-9.528-10.752-17.865-12.69Z" data-name="logoMark &lt;PathItem&gt;" style="fill:#0096d6" transform="translate(5.967 9.444) scale(.26458)"/><path d="m61.877 34.827.29-.57L79.15 1.187c-.389-.092-.758-.205-1.154-.284a46.354 46.354 0 0 0-5.183-.726c-.416-.037-.846-.046-1.267-.073l-12.65 24.782-1.113 2.186-1.116-2.186L45.9 3.784c-.372.123-.743.226-1.116.356q-2.326.797-4.653 1.747c-.355.147-.711.314-1.066.463l14.34 27.907.293.573-.294.572L34.31 72.474c.45-.027.892-.041 1.347-.078q2.899-.23 5.911-.738c.477-.08.969-.208 1.449-.298l13.65-26.836 1.114-2.19 1.115 2.19 9.037 17.76c.335-.185.697-.347 1.027-.539q2.15-1.221 4.17-2.533c.33-.213.635-.444.961-.662l-11.92-23.148zM31.225 61.864V28.558h-6.338v33.306h1.16zM28.1 16.445h-.009l-.007.001a3.326 3.326 0 0 0-3.315 3.312l-.001.008-.001.009a3.33 3.33 0 1 0 3.333-3.33z" data-name="logoMark &lt;PathItem&gt;" style="fill:#fff" transform="translate(5.967 9.444) scale(.26458)"/></svg><svg viewBox="0 0 24 17.59" id="ix-layout-full" xmlns="http://www.w3.org/2000/svg"><g stroke="#000" data-name="Layout 0"><path stroke="none" d="M0 0h24v17.59H0z"/><path fill="none" d="M.5.5h23v16.59H.5z"/></g></svg><svg viewBox="0 0 23.004 16.59" id="ix-layout-half-and-quarters" xmlns="http://www.w3.org/2000/svg"><g data-name="Layout 2"><path data-name="Rectangle 275" d="M0 0h23v7.43H0zM0 8.8h10.82v7.79H0zM12.184 8.8h10.82v7.79h-10.82z"/></g></svg><svg viewBox="0 0 23 16.593" id="ix-layout-halves" xmlns="http://www.w3.org/2000/svg"><g data-name="Layout 4"><path data-name="Rectangle 275" d="M23 16.593H0v-7.43h23zM23 7.43H0V0h23z"/></g></svg><svg viewBox="0 0 23.004 16.59" id="ix-layout-quarters" xmlns="http://www.w3.org/2000/svg"><g data-name="Layout 1"><path data-name="Rectangle 275" d="M0 8.8h10.82v7.79H0zM12.18 8.8H23v7.79H12.18zM0 0h10.82v7.43H0zM12.184 0h10.82v7.43h-10.82z"/></g></svg><svg viewBox="0 0 23.004 16.58" id="ix-layout-quarters-and-half" xmlns="http://www.w3.org/2000/svg"><g data-name="Layout 3"><path data-name="Rectangle 275" d="M23 16.58H0V9.15h23zM23.003 7.79h-10.82V0h10.82zM10.82 7.79H0V0h10.82z"/></g></svg><svg viewBox="0 0 24 24" id="ix-network-upload-download" xmlns="http://www.w3.org/2000/svg"><path d="m8.123.426 5.147 5.153-3.861-.031v9.015H6.824V5.548H2.98L8.123.426zM14.537 9.409l2.579-.016v9.015h3.877l-5.154 5.138-5.153-5.154h3.845l.006-8.983z" fill="#124b64"/></svg><svg viewBox="0 0 24 24" id="ix-network-upload-download-both" xmlns="http://www.w3.org/2000/svg"><path d="m8.123.426 5.147 5.153-3.861-.031v9.015H6.824V5.548H2.98L8.123.426zM14.537 9.409l2.579-.016v9.015h3.877l-5.154 5.138-5.153-5.154h3.845l.006-8.983z" fill="#33a9db"/></svg><svg viewBox="0 0 240 240" id="ix-network-upload-download-disabled" xmlns="http://www.w3.org/2000/svg"><path d="M14.767 17.85.457 3.54l1.548-1.537 20.03 20.042L20.5 23.58l-5.732-5.732zM8.11.404l-2.3 2.358 3.604 3.604v-.842l3.772.017L8.11.404z"/><path d="m6.83 9.902 2.584 2.61v2.038H6.82l.01-4.648zM14.538 9.448l2.585-.02v4.633l-2.598-2.578.013-2.035zM18.19 21.26l-2.367 2.332-5.166-5.185h3.857v-.825l3.675 3.677z"/></svg><svg viewBox="0 0 24 24" id="ix-network-upload-download-down" xmlns="http://www.w3.org/2000/svg"><path d="m8.123.426 5.147 5.153-3.861-.031v9.015H6.824V5.548H2.98L8.123.426z" fill="#124b64"/><path d="m14.537 9.409 2.579-.016v9.015h3.877l-5.154 5.138-5.153-5.154h3.845l.006-8.983z" fill="#33a9db"/></svg><svg viewBox="0 0 24 24" id="ix-network-upload-download-up" xmlns="http://www.w3.org/2000/svg"><path d="m8.123.426 5.147 5.153-3.861-.031v9.015H6.824V5.548H2.98L8.123.426z" fill="#33a9db"/><path d="m14.537 9.409 2.579-.016v9.015h3.877l-5.154 5.138-5.153-5.154h3.845l.006-8.983z" fill="#124b64"/></svg><svg viewBox="0 0 23.999 24" id="ix-nfs-share" xmlns="http://www.w3.org/2000/svg"><path d="M14.4 24H9.6a1.2 1.2 0 0 1-1.2-1.2H0v-2.4h8.4a1.2 1.2 0 0 1 1.2-1.2h1.2v-2.4H3.6a2.4 2.4 0 0 1-2.4-2.4v-12A2.4 2.4 0 0 1 3.6 0h7.2l2.4 2.4h7.2a2.4 2.4 0 0 1 2.4 2.4v9.6a2.4 2.4 0 0 1-2.4 2.4h-7.2v2.4h1.2a1.2 1.2 0 0 1 1.2 1.2H24v2.4h-8.4a1.2 1.2 0 0 1-1.2 1.2Zm1.147-12.445-.1.8.324.063a8.913 8.913 0 0 0 1.692.18 2.229 2.229 0 0 0 1.508-.481 1.833 1.833 0 0 0 .553-1.454 1.482 1.482 0 0 0-.378-1.121 3.2 3.2 0 0 0-1.3-.612 5.2 5.2 0 0 1-1.193-.432.652.652 0 0 1-.27-.589c0-.531.385-.8 1.143-.8.346 0 .929.047 1.782.144l.081-.81-.315-.054a9.9 9.9 0 0 0-1.638-.162 2.391 2.391 0 0 0-1.507.427 1.516 1.516 0 0 0-.545 1.264 1.571 1.571 0 0 0 .432 1.224 3.091 3.091 0 0 0 1.314.607 3.859 3.859 0 0 1 1.134.405.666.666 0 0 1 .252.572c0 .657-.375.99-1.116.99a15.275 15.275 0 0 1-1.854-.162Zm-4.554-5.22V12.5h1v-2.34h2.349v-.873h-2.349V7.208h2.826v-.873Zm-6.174 0V12.5h1V7.209h.126l1.917 5.292h1.71V6.336h-1v5.283h-.135L6.565 6.336Z"/></svg><svg viewBox="0 0 23.999 24" id="ix-smb-share" xmlns="http://www.w3.org/2000/svg"><path d="M14.4 24H9.6a1.2 1.2 0 0 1-1.2-1.2H0v-2.4h8.4a1.2 1.2 0 0 1 1.2-1.2h1.2v-2.4H3.6a2.4 2.4 0 0 1-2.4-2.4v-12A2.4 2.4 0 0 1 3.6 0h7.2l2.4 2.4h7.2a2.4 2.4 0 0 1 2.4 2.4v9.6a2.4 2.4 0 0 1-2.4 2.4h-7.2v2.4h1.2a1.2 1.2 0 0 1 1.2 1.2H24v2.4h-8.4a1.2 1.2 0 0 1-1.2 1.2ZM3.518 11.555l-.1.8.324.063a8.921 8.921 0 0 0 1.692.18 2.229 2.229 0 0 0 1.508-.481 1.833 1.833 0 0 0 .553-1.454 1.483 1.483 0 0 0-.378-1.121 3.2 3.2 0 0 0-1.3-.612 5.2 5.2 0 0 1-1.193-.432.652.652 0 0 1-.27-.589c0-.531.385-.8 1.143-.8.346 0 .928.047 1.782.144l.081-.81-.315-.054a9.9 9.9 0 0 0-1.638-.162 2.391 2.391 0 0 0-1.508.427 1.518 1.518 0 0 0-.544 1.264 1.571 1.571 0 0 0 .432 1.224 3.094 3.094 0 0 0 1.314.607 3.841 3.841 0 0 1 1.134.405.664.664 0 0 1 .252.572c0 .657-.375.99-1.116.99a15.275 15.275 0 0 1-1.854-.162Zm12.708-5.22V12.5h2.412c1.3 0 1.962-.587 1.962-1.746a1.383 1.383 0 0 0-.882-1.431 1.354 1.354 0 0 0 .553-.522 1.79 1.79 0 0 0 .176-.864 1.489 1.489 0 0 0-.468-1.219 2.211 2.211 0 0 0-1.413-.383ZM13.67 7.442h.135V12.5h1.008V6.335h-1.746L11.69 11.15l-1.377-4.815H8.576V12.5h1V7.442h.135l1.458 4.806h1.044l1.458-4.805Zm4.914 4.194h-1.359V9.809h1.341a1.227 1.227 0 0 1 .72.2.808.808 0 0 1 .288.707.887.887 0 0 1-.248.711 1.145 1.145 0 0 1-.743.208Zm-.036-2.673h-1.323V7.2h1.287c.609 0 .918.288.918.855a.794.794 0 0 1-.882.908Z"/></svg><svg viewBox="126.7 15.3 49 59" id="ix-ssd"><path d="M132.935 15.223h7.25v4.5a4.02 4.02 0 0 0 4.021 4.021h13.025a4.02 4.02 0 0 0 4.021-4.021v-4.5h7.251a5.566 5.566 0 0 1 5.566 5.566v48.115a5.566 5.566 0 0 1-5.566 5.566h-35.568a5.566 5.566 0 0 1-5.566-5.566V20.789a5.566 5.566 0 0 1 5.566-5.566Zm10.493.275h7.492a.86.86 0 0 1 .859.859v3.85a.86.86 0 0 1-.859.859h-7.492a.86.86 0 0 1-.859-.859v-3.85a.86.86 0 0 1 .859-.859Zm11.675 0h2.458c.602 0 1.09.488 1.09 1.09v3.414a1.09 1.09 0 0 1-1.09 1.09h-2.458a1.09 1.09 0 0 1-1.09-1.09v-3.414c0-.602.488-1.09 1.09-1.09Zm-19.251 23.43V59.34a4.925 4.925 0 0 0 4.925 4.925h19.885a4.925 4.925 0 0 0 4.925-4.925V38.928a4.925 4.925 0 0 0-4.925-4.925h-19.885a4.925 4.925 0 0 0-4.925 4.925Zm4.254-2.254h21.227c1.052 0 1.904.852 1.904 1.904V59.69a1.903 1.903 0 0 1-1.904 1.904h-21.227a1.903 1.903 0 0 1-1.904-1.904V38.578c0-1.052.852-1.904 1.904-1.904Zm27.584-16.807a2.138 2.138 0 1 0 0 4.275 2.138 2.138 0 0 0 0-4.275Zm0 45.683a2.138 2.138 0 1 0 0 4.275 2.138 2.138 0 0 0 0-4.275Zm-33.942 0a2.138 2.138 0 1 0 0 4.275 2.138 2.138 0 0 0 0-4.275Zm0-45.683a2.138 2.138 0 1 0 0 4.275 2.138 2.138 0 0 0 0-4.275Z" style="fill:#d8d8d8"/></svg><svg viewBox="115 15.3 60 71" id="ix-ssd-mirror"><path d="M132.895 15.383h7.25v4.5a4.02 4.02 0 0 0 4.021 4.021h13.025a4.02 4.02 0 0 0 4.021-4.021v-4.5h7.251a5.566 5.566 0 0 1 5.566 5.566v48.115a5.566 5.566 0 0 1-5.566 5.566h-35.568a5.566 5.566 0 0 1-5.566-5.566V20.949a5.566 5.566 0 0 1 5.566-5.566Zm10.493.275h7.492a.86.86 0 0 1 .859.859v3.85a.86.86 0 0 1-.859.859h-7.492a.86.86 0 0 1-.859-.859v-3.85a.86.86 0 0 1 .859-.859Zm11.675 0h2.458c.602 0 1.09.488 1.09 1.09v3.414a1.09 1.09 0 0 1-1.09 1.09h-2.458a1.09 1.09 0 0 1-1.09-1.09v-3.414c0-.602.488-1.09 1.09-1.09Zm-19.251 23.43V59.5a4.925 4.925 0 0 0 4.925 4.925h19.885a4.925 4.925 0 0 0 4.925-4.925V39.088a4.925 4.925 0 0 0-4.925-4.925h-19.885a4.925 4.925 0 0 0-4.925 4.925Zm4.254-2.254h21.227c1.052 0 1.904.852 1.904 1.904V59.85a1.903 1.903 0 0 1-1.904 1.904h-21.227a1.903 1.903 0 0 1-1.904-1.904V38.738c0-1.052.852-1.904 1.904-1.904Zm27.584-16.807a2.138 2.138 0 1 0 0 4.275 2.138 2.138 0 0 0 0-4.275Zm0 45.683a2.138 2.138 0 1 0 0 4.275 2.138 2.138 0 0 0 0-4.275Zm-33.942 0a2.138 2.138 0 1 0 0 4.275 2.138 2.138 0 0 0 0-4.275Zm0-45.683a2.138 2.138 0 1 0 0 4.275 2.138 2.138 0 0 0 0-4.275Zm-14.84 11.05h3.558v49.512h36.317v2.503a3.38 3.38 0 0 1-3.379 3.379h-36.496a3.38 3.38 0 0 1-3.379-3.379V34.456a3.38 3.38 0 0 1 3.379-3.379Z" style="fill:#d8d8d8"/></svg><svg viewBox="0 0 62.856 71.149" id="ix-truecommand-logo-mark" xmlns="http://www.w3.org/2000/svg"><path data-name="logoMark &lt;CompoundPathItem&gt;" d="M51.304 47.443 32.538 58.27h-3.58L10.192 47.433V25.772l1.785-3.104 16.98-9.798h3.581l16.97 9.798 1.796 3.103v-.612l11.552-6.674L30.806 0 0 17.78v35.58l30.805 17.79 31.73-18.32-11.231-8.2Z"/><path data-name="logoMark &lt;CompoundPathItem&gt;" d="m32.539 49.519 18.765-10.836v-4.141L32.54 45.367Zm16.97-26.85-7.588 4.39-8.957-5.18-.425-.239v4.1l5.864 3.384-5.864 3.384v4.1l18.765-10.836ZM10.193 38.682l8.469 4.889.041.02 10.255 5.927v-4.152L10.193 34.532Zm9.372-11.624-7.587-4.39-1.785 3.103 8.469 4.899.041.02 10.255 5.917v-4.173l-5.74-3.311 5.74-3.31V21.64l-.696.404Z"/><path data-name="logoMark &lt;PathItem&gt;" d="M32.539 12.87v12.87l-1.723-.996-1.858 1.069V12.87h3.581zM32.539 32.508v25.761h-3.581V32.435l1.858 1.069 1.723-.996z"/><path data-name="logoMark &lt;PathItem&gt;" d="m0 17.78 11.977 4.888 16.981-9.798h3.581l16.97 9.798 1.795 2.491 11.552-6.674L30.805 0 0 17.78z"/><path data-name="logoMark &lt;PathItem&gt;" d="m0 53.359 10.192-5.926V25.772l1.785-3.104L0 17.78v35.579z"/></svg><svg viewBox="0 0 62.856 71.149" id="ix-truecommand-logo-mark-color" xmlns="http://www.w3.org/2000/svg"><path data-name="logoMark &lt;PathItem&gt;" style="fill:none" d="M28.961 9.106 7.388 24.743l2.8 27.732 18.773 8.943 22.345-13.973V19.963L28.961 9.106z"/><path data-name="logoMark &lt;CompoundPathItem&gt;" d="M51.304 47.443 32.538 58.27h-3.58L10.192 47.433V25.772l1.785-3.104 16.98-9.798h3.581l16.97 9.798 1.796 3.103v-.612l11.552-6.674L30.806 0 0 17.78v35.58l30.805 17.79 31.73-18.32-11.231-8.2Z" style="fill:#0095d5"/><path data-name="logoMark &lt;PathItem&gt;" style="fill:#aeadae" d="m38.403 29.124-7.587 4.38-7.598-4.38 7.598-4.38 7.587 4.38z"/><path data-name="logoMark &lt;CompoundPathItem&gt;" d="m32.539 49.519 18.765-10.836v-4.141L32.54 45.367Zm16.97-26.85-7.588 4.39-8.957-5.18-.425-.239v4.1l5.864 3.384-5.864 3.384v4.1l18.765-10.836ZM10.193 38.682l8.469 4.889.041.02 10.255 5.927v-4.152L10.193 34.532Zm9.372-11.624-7.587-4.39-1.785 3.103 8.469 4.899.041.02 10.255 5.917v-4.173l-5.74-3.311 5.74-3.31V21.64l-.696.404Z" style="fill:#0095d5"/><path data-name="logoMark &lt;PathItem&gt;" style="fill:#0095d5" d="M32.539 12.87v12.87l-1.723-.996-1.858 1.069V12.87h3.581zM32.539 32.508v25.761h-3.581V32.435l1.858 1.069 1.723-.996z"/><path data-name="logoMark &lt;PathItem&gt;" style="fill:#31beec" d="m0 17.78 11.977 4.888 16.981-9.798h3.581l16.97 9.798 1.795 2.491 11.552-6.674L30.805 0 0 17.78z"/><path data-name="logoMark &lt;PathItem&gt;" style="fill:#31beec" d="m0 53.359 10.192-5.926V25.772l1.785-3.104L0 17.78v35.579z"/></svg><svg viewBox="0 0 754.615 163.031" id="ix-truenas-logo" xmlns="http://www.w3.org/2000/svg"><path d="m119.546 38.499-17.927 10.354-17.991-10.384 17.949-10.354 17.969 10.384zm26.468-15.291-17.978 10.388-22.214-12.833V.004l40.192 23.204zM97.332 0v20.763L75.134 33.566 57.156 23.187 97.332 0zM44.43 107.52.007 81.867 0 61.117l20.033 11.568c.05.03.106.063.161.093l24.223 13.987Zm22.218-38.457L48.7 79.43 30.713 69.046l17.961-10.362 17.974 10.379zm-22.253-17.71-22.176 12.79L4.241 53.764l40.146-23.17.008 20.759zM93.1 53.785 75.16 64.148 52.945 51.319V30.603L72.91 42.128c.05.034.106.064.161.094Zm57.198 38.138v20.759L146.282 115l-40.422 23.339v-20.75l22.448-12.964 8.486-4.903 13.504-7.799zm-30.714 7.934-17.969 10.38-17.987-10.384 17.987-10.379 17.969 10.383zM97.37 61.363v20.758l-4.054 2.339-18.182 10.49-.2-.115-17.778-10.268 18.177-10.49 8.491-4.899 13.508-7.794.038-.021zm0 56.227v20.745l-40.4-23.323-4.05-2.339-.008-20.75.034.022 13.503 7.794 6.495 3.748c.055.034.11.068.166.098l1.83 1.057Zm105.889-56.469v20.763l-44.437 25.653V86.791l44.437-25.67zm-30.713 7.938-17.969 10.379-17.987-10.387 17.987-10.375 17.969 10.383zm26.468-15.291-17.978 10.388-22.214-12.829V30.565l40.192 23.203zM150.332 30.56v20.763l-22.236 12.829-17.978-10.384 40.214-23.208zm-4.279 54.007-17.745 10.256h-.004l-22.423-12.948-.008-20.504 13.491 7.786 8.49 4.903 18.199 10.507zm169.452-64.459v11.093h-29.863v87.03h-12.229V31.2H243.55V20.108Zm38.533 42.379c-2.987-4.126-6.683-5.974-11.943-5.974-8.678 0-15.216 6.542-15.216 17.207v44.51h-11.378V47.128h11.378v6.97c2.983-4.979 7.82-8.109 16.494-8.109 9.67 0 15.784 3.271 20.334 9.672Zm73.805 55.743h-11.379v-6.966c-3.555 5.403-8.528 8.105-19.052 8.105-15.216 0-25.881-7.964-25.881-27.874V47.128h11.374v44.226c0 14.364 7.82 17.491 16.212 17.491 10.665 0 17.347-7.537 17.347-17.35V47.128h11.379Zm67.4-10.808c-4.978 8.676-12.515 11.947-24.885 11.947-19.057 0-30.436-12.372-30.436-32.138v-9.387c0-20.192 9.529-31.855 28.159-31.855 18.77 0 28.158 11.52 28.158 31.855v7.396H451.3v1.991c0 12.229 5.832 21.898 18.202 21.898 9.243 0 13.939-2.7 16.921-7.962Zm-43.942-32.138h33.418c-.568-11.945-5.828-19.055-16.638-19.055-10.947 0-16.071 7.253-16.78 19.055Zm133.672-55.176v98.123h-14.647l-39.96-66.695v66.695h-15.93V20.108h14.22l40.388 67.548V20.11Zm11.084 98.122 34.132-98.122h15.643l34.127 98.123H662.47l-6.687-20.335h-35.409l-6.683 20.335Zm28.868-34.554h26.167L638.008 44Zm115.897-39.819c-4.837-6.683-10.097-10.665-21.19-10.665-10.096 0-16.07 4.55-16.07 12.797 0 9.388 7.397 13.084 21.049 16.07 19.766 4.267 30.004 11.661 30.004 29.295 0 14.648-9.815 28.156-33.418 28.156-16.78 0-28.586-5.119-36.692-16.068l12.943-8.96c5.828 6.97 11.66 10.665 22.894 10.665 13.51 0 17.775-5.971 17.775-13.081 0-7.822-4.405-12.656-21.47-16.354-18.917-3.983-29.582-13.084-29.582-29.723 0-14.788 9.67-27.16 32.709-27.16 15.643 0 26.594 5.262 33.559 16.07ZM286.121 144.17a5.704 5.704 0 0 0-5.282-2.658c-2.518 0-4.007 1.135-4.007 3.19 0 2.34 1.844 3.263 5.247 4.006 4.928 1.064 7.481 2.908 7.481 7.304 0 3.652-2.446 7.019-8.331 7.019-4.183 0-7.126-1.276-9.147-4.006l3.226-2.233a6.55 6.55 0 0 0 5.708 2.658c3.367 0 4.431-1.489 4.431-3.26 0-1.95-1.099-3.155-5.353-4.078-4.715-.992-7.373-3.26-7.373-7.41 0-3.687 2.41-6.77 8.153-6.77 3.9 0 6.63 1.312 8.367 4.006Zm24.206 1.667c-.637-2.978-2.232-4.324-4.927-4.324-3.262 0-5.034 2.125-5.034 7.409v3.119c0 5.21 1.772 7.41 5.033 7.41 2.801 0 4.29-1.347 4.928-4.325h3.936c-.816 5.495-4.006 7.905-8.863 7.905-5.46 0-9.147-3.297-9.147-10.99v-3.12c0-7.693 3.687-10.99 9.147-10.99 4.857 0 8.083 2.588 8.898 7.905Zm8.501 16.876 8.508-24.463h3.9l8.509 24.463h-4.36l-1.667-5.07h-8.828l-1.665 5.07Zm7.197-8.617h6.523l-3.261-9.89Zm24.169 5.07h10.884v3.546h-14.996V138.25h4.112Zm32.255-20.916v3.58h-10.884v6.453h9.82v3.544h-9.82v7.339h10.884v3.546h-14.997V138.25Z"/></svg><svg viewBox="0 0 203.26 138.339" id="ix-truenas-logo-mark" xmlns="http://www.w3.org/2000/svg"><path d="m119.546 38.499-17.927 10.354-17.991-10.384 17.949-10.354 17.969 10.384zm26.468-15.291-17.978 10.388-22.214-12.833V.004l40.192 23.204zM97.332 0v20.763L75.134 33.566 57.156 23.187 97.332 0zM44.43 107.52.007 81.867 0 61.117l20.033 11.568c.05.03.106.063.161.093l24.223 13.987Zm22.218-38.457L48.7 79.43 30.713 69.046l17.961-10.362 17.974 10.379zm-22.253-17.71-22.176 12.79L4.241 53.764l40.146-23.17.008 20.759zM93.1 53.785 75.16 64.148 52.945 51.319V30.603L72.91 42.128c.05.034.106.064.161.094Zm57.198 38.138v20.759L146.282 115l-40.422 23.339v-20.75l22.448-12.964 8.486-4.903 13.504-7.799zm-30.714 7.934-17.969 10.38-17.987-10.384 17.987-10.379 17.969 10.383zM97.37 61.363v20.758l-4.054 2.339-18.182 10.49-.2-.115-17.778-10.268 18.177-10.49 8.491-4.899 13.508-7.794.038-.021zm0 56.227v20.745l-40.4-23.323-4.05-2.339-.008-20.75.034.022 13.503 7.794 6.495 3.748c.055.034.11.068.166.098l1.83 1.057Zm105.889-56.469v20.763l-44.437 25.653V86.791l44.437-25.67zm-30.713 7.938-17.969 10.379-17.987-10.387 17.987-10.375 17.969 10.383zm26.468-15.291-17.978 10.388-22.214-12.829V30.565l40.192 23.203zM150.332 30.56v20.763l-22.236 12.829-17.978-10.384 40.214-23.208zm-4.279 54.007-17.745 10.256h-.004l-22.423-12.948-.008-20.504 13.491 7.786 8.49 4.903 18.199 10.507z"/></svg><svg viewBox="0 0 102.662 69.872" id="ix-truenas-logo-mark-color" xmlns="http://www.w3.org/2000/svg"><path style="fill:#aeadae" d="m60.38 19.445-9.054 5.229-9.087-5.244 9.065-5.23 9.076 5.245z"/><path style="fill:#0095d5" d="m73.749 11.722-9.08 5.247-11.221-6.482V.002l20.301 11.72z"/><path style="fill:#31beec" d="M49.16 0v10.487l-11.211 6.466-9.081-5.242L49.16 0z"/><path d="M22.44 54.306.004 41.35 0 30.87l10.118 5.843.082.047 12.234 7.065Z" style="fill:#0095d5"/><path style="fill:#aeadae" d="m33.663 34.883-9.066 5.235-9.084-5.244 9.071-5.234 9.079 5.243z"/><path style="fill:#31beec" d="m22.423 25.937-11.201 6.461-9.08-5.243 20.277-11.702.004 10.484z"/><path d="M47.023 27.166 37.96 32.4l-11.22-6.48V15.457l10.084 5.821c.026.017.054.032.082.047Z" style="fill:#0095d5"/><path style="fill:#31beec" d="M75.912 46.429v10.484l-2.028 1.171-20.416 11.788v-10.48l11.338-6.548 4.286-2.477 6.82-3.938z"/><path style="fill:#aeadae" d="m60.4 50.436-9.076 5.242-9.085-5.244 9.085-5.243 9.076 5.245z"/><path style="fill:#31beec" d="M49.179 30.993v10.485l-2.047 1.181-9.183 5.298-.101-.058-8.98-5.186 9.181-5.298 4.289-2.475 6.822-3.936.019-.011z"/><path d="M49.18 59.392V69.87L28.774 58.09l-2.046-1.181-.004-10.48.017.01 6.82 3.937 3.28 1.894.084.049.925.534Z" style="fill:#0095d5"/><path style="fill:#31beec" d="M102.662 30.871v10.487L80.218 54.315V43.836l22.444-12.965z"/><path style="fill:#aeadae" d="m87.15 34.88-9.076 5.243-9.085-5.247 9.085-5.24 9.076 5.244z"/><path style="fill:#0095d5" d="m100.518 27.157-9.08 5.247-11.22-6.48V15.438l20.3 11.719z"/><path style="fill:#31beec" d="M75.929 15.435v10.487l-11.23 6.48-9.081-5.245 20.311-11.722z"/><path style="fill:#0095d5" d="m73.768 42.713-8.962 5.18h-.002l-11.326-6.54-.004-10.356 6.814 3.933 4.288 2.476 9.192 5.307z"/></svg><svg viewBox="0 0 512 163" id="ix-truenas-logo-type" xmlns="http://www.w3.org/2000/svg"><path d="M71.955 20.108v11.093H42.092v87.03H29.863V31.2H0V20.108Zm38.533 42.379c-2.987-4.126-6.683-5.974-11.943-5.974-8.678 0-15.216 6.542-15.216 17.207v44.51H71.951V47.128h11.378v6.97c2.983-4.979 7.82-8.109 16.494-8.109 9.67 0 15.784 3.271 20.334 9.672zm73.805 55.743h-11.379v-6.966c-3.555 5.403-8.528 8.105-19.052 8.105-15.216 0-25.881-7.964-25.881-27.874V47.128h11.374v44.226c0 14.364 7.82 17.491 16.212 17.491 10.665 0 17.347-7.537 17.347-17.35V47.128h11.379zm67.4-10.808c-4.978 8.676-12.515 11.947-24.885 11.947-19.057 0-30.436-12.372-30.436-32.138v-9.387c0-20.192 9.529-31.855 28.159-31.855 18.77 0 28.158 11.52 28.158 31.854v7.397H207.75v1.991c0 12.229 5.832 21.898 18.202 21.898 9.243 0 13.938-2.7 16.921-7.962zm-43.942-32.138h33.418c-.568-11.945-5.828-19.055-16.638-19.055-10.948 0-16.071 7.253-16.78 19.055zm133.672-55.176v98.123h-14.647l-39.96-66.695v66.695h-15.93V20.108h14.22l40.388 67.548V20.11Zm11.084 98.122 34.132-98.122h15.643l34.127 98.123H418.92l-6.687-20.335h-35.409l-6.683 20.335zm28.868-34.554h26.167L394.458 44Zm115.897-39.819c-4.837-6.683-10.097-10.665-21.19-10.665-10.096 0-16.07 4.55-16.07 12.797 0 9.388 7.397 13.084 21.049 16.07 19.766 4.267 30.004 11.661 30.004 29.295 0 14.648-9.815 28.156-33.418 28.156-16.78 0-28.586-5.119-36.691-16.068l12.942-8.96c5.828 6.97 11.66 10.665 22.894 10.665 13.51 0 17.775-5.971 17.775-13.081 0-7.822-4.405-12.656-21.47-16.354-18.917-3.983-29.582-13.084-29.582-29.723 0-14.788 9.67-27.16 32.709-27.16 15.643 0 26.594 5.262 33.559 16.07zM42.571 144.17a5.704 5.704 0 0 0-5.282-2.658c-2.518 0-4.007 1.135-4.007 3.19 0 2.34 1.844 3.263 5.247 4.006 4.928 1.064 7.481 2.908 7.481 7.304 0 3.652-2.446 7.019-8.331 7.019-4.183 0-7.126-1.276-9.147-4.006l3.226-2.233a6.55 6.55 0 0 0 5.708 2.658c3.367 0 4.431-1.489 4.431-3.26 0-1.95-1.099-3.155-5.353-4.078-4.715-.992-7.373-3.26-7.373-7.41 0-3.687 2.41-6.77 8.153-6.77 3.9 0 6.63 1.312 8.367 4.006zm24.206 1.667c-.638-2.978-2.232-4.324-4.928-4.324-3.26 0-5.033 2.125-5.033 7.409v3.119c0 5.21 1.772 7.41 5.033 7.41 2.801 0 4.29-1.347 4.928-4.325h3.935c-.815 5.495-4.005 7.905-8.863 7.905-5.46 0-9.146-3.297-9.146-10.99v-3.12c0-7.693 3.687-10.99 9.146-10.99 4.858 0 8.084 2.588 8.899 7.905zm8.501 16.876 8.508-24.463h3.9l8.509 24.463h-4.36l-1.667-5.07H81.34l-1.665 5.07zm7.197-8.617h6.523l-3.261-9.89zm24.169 5.07h10.884v3.546h-14.997V138.25h4.113zm32.255-20.916v3.58h-10.884v6.453h9.82v3.544h-9.82v7.339h10.884v3.546h-14.997V138.25Z"/></svg><svg viewBox="0 0 258.128 72.834" id="ix-truenas-logo-type-color" xmlns="http://www.w3.org/2000/svg"><path d="M36.343.646V6.25H21.26v43.957h-6.177V6.249H0V.646ZM55.805 22.05a6.823 6.823 0 0 0-6.032-3.016c-4.383 0-7.685 3.304-7.685 8.69v22.482h-5.747V14.293h5.747v3.52c1.506-2.514 3.95-4.095 8.33-4.095 4.884 0 7.972 1.652 10.27 4.885Zm37.278 28.156h-5.748v-3.519c-1.795 2.729-4.307 4.094-9.623 4.094-7.685 0-13.071-4.023-13.071-14.079V14.293h5.745v22.338c0 7.255 3.949 8.835 8.188 8.835a8.369 8.369 0 0 0 8.762-8.764V14.293h5.747Zm34.042-5.459c-2.514 4.382-6.321 6.034-12.569 6.034-9.625 0-15.372-6.249-15.372-16.232v-4.742c0-10.198 4.812-16.089 14.222-16.089 9.48 0 14.222 5.818 14.222 16.09v3.735h-22.697v1.006c0 6.176 2.946 11.06 9.194 11.06 4.668 0 7.04-1.364 8.546-4.022Zm-22.194-16.233h16.879c-.287-6.033-2.944-9.624-8.404-9.624-5.53 0-8.117 3.664-8.475 9.624ZM172.446.646v49.56h-7.398L144.865 16.52v33.686h-8.045V.646h7.182l20.399 34.117V.646Zm5.598 49.56 17.24-49.56h7.9l17.237 49.56h-8.833l-3.377-10.27h-17.885l-3.375 10.27Zm14.58-17.453h13.217l-6.608-20.04Zm58.538-20.112c-2.443-3.375-5.1-5.386-10.702-5.386-5.1 0-8.117 2.298-8.117 6.463 0 4.742 3.736 6.608 10.631 8.117 9.983 2.155 15.154 5.89 15.154 14.796 0 7.398-4.957 14.221-16.878 14.221-8.475 0-14.438-2.585-18.532-8.116l6.537-4.525c2.943 3.52 5.89 5.387 11.563 5.387 6.824 0 8.978-3.016 8.978-6.608 0-3.95-2.225-6.392-10.845-8.26-9.554-2.01-14.94-6.608-14.94-15.012C224.01 6.248 228.893 0 240.53 0c7.9 0 13.432 2.658 16.95 8.117Z" style="fill:#0095d5"/><path d="M21.502 63.307a2.881 2.881 0 0 0-2.668-1.342c-1.272 0-2.024.573-2.024 1.611 0 1.182.931 1.648 2.65 2.023 2.489.538 3.778 1.469 3.778 3.69 0 1.844-1.235 3.545-4.207 3.545a5.284 5.284 0 0 1-4.62-2.024l1.629-1.127a3.308 3.308 0 0 0 2.883 1.342c1.7 0 2.238-.752 2.238-1.647 0-.985-.555-1.594-2.703-2.06-2.382-.5-3.725-1.646-3.725-3.742 0-1.862 1.217-3.42 4.118-3.42a4.61 4.61 0 0 1 4.226 2.024Zm12.226.843a2.35 2.35 0 0 0-2.489-2.185c-1.647 0-2.542 1.074-2.542 3.742v1.576c0 2.632.895 3.742 2.542 3.742a2.32 2.32 0 0 0 2.489-2.184h1.988c-.412 2.775-2.024 3.993-4.477 3.993-2.758 0-4.62-1.666-4.62-5.551v-1.576c0-3.885 1.862-5.55 4.62-5.55 2.453 0 4.083 1.306 4.494 3.992Zm4.293 8.523 4.298-12.356h1.97l4.297 12.356h-2.202l-.842-2.56h-4.459l-.84 2.56Zm3.635-4.352h3.295l-1.647-4.995Zm12.208 2.561h5.497v1.79h-7.574V60.318h2.077Zm16.291-10.565v1.809h-5.497v3.259h4.96v1.79h-4.96v3.706h5.497v1.791H62.58V60.317Z" style="fill:#aeadae"/></svg><svg viewBox="0 0 24 24" id="ix-two-factor-auth" xmlns="http://www.w3.org/2000/svg"><path d="M2 7v2h4v2H4a2 2 0 0 0-2 2v4h6v-2H4v-2h2a2 2 0 0 0 2-2V9a2 2 0 0 0-2-2H2m7 0v10h2v-4h3v-2h-3V9h4V7H9m9 0a2 2 0 0 0-2 2v8h2v-3h2v3h2V9a2 2 0 0 0-2-2h-2m0 2h2v3h-2V9Z"/></svg><svg viewBox="0 0 24 24" id="keyboard_arrow_right" xmlns="http://www.w3.org/2000/svg"><path d="M8.59 16.59 13.17 12 8.59 7.41 10 6l6 6-6 6-1.41-1.41z"/></svg><svg viewBox="0 0 24 24" id="laptop" xmlns="http://www.w3.org/2000/svg"><path d="M20 18c1.1 0 2-.9 2-2V6c0-1.1-.9-2-2-2H4c-1.1 0-2 .9-2 2v10c0 1.1.9 2 2 2H0v2h24v-2h-4zM4 6h16v10H4V6z"/></svg><svg viewBox="0 0 24 24" id="last_page" xmlns="http://www.w3.org/2000/svg"><path d="M5.59 7.41 10.18 12l-4.59 4.59L7 18l6-6-6-6zM16 6h2v12h-2z"/></svg><svg viewBox="0 0 24 24" id="launch" xmlns="http://www.w3.org/2000/svg"><path d="M19 19H5V5h7V3H5a2 2 0 0 0-2 2v14a2 2 0 0 0 2 2h14c1.1 0 2-.9 2-2v-7h-2v7zM14 3v2h3.59l-9.83 9.83 1.41 1.41L19 6.41V10h2V3h-7z"/></svg><svg viewBox="0 0 24 24" id="library_books" xmlns="http://www.w3.org/2000/svg"><path d="M4 6H2v14c0 1.1.9 2 2 2h14v-2H4V6zm16-4H8c-1.1 0-2 .9-2 2v12c0 1.1.9 2 2 2h12c1.1 0 2-.9 2-2V4c0-1.1-.9-2-2-2zm-1 9H9V9h10v2zm-4 4H9v-2h6v2zm4-8H9V5h10v2z"/></svg><svg viewBox="0 0 24 24" id="list" xmlns="http://www.w3.org/2000/svg"><path d="M3 13h2v-2H3v2zm0 4h2v-2H3v2zm0-8h2V7H3v2zm4 4h14v-2H7v2zm0 4h14v-2H7v2zM7 7v2h14V7H7z"/></svg><svg viewBox="0 0 24 24" id="mail" xmlns="http://www.w3.org/2000/svg"><path d="M20 4H4c-1.1 0-1.99.9-1.99 2L2 18c0 1.1.9 2 2 2h16c1.1 0 2-.9 2-2V6c0-1.1-.9-2-2-2zm0 4-8 5-8-5V6l8 5 8-5v2z"/></svg><svg viewBox="0 0 24 24" id="mdi-account" xmlns="http://www.w3.org/2000/svg"><path d="M12 4a4 4 0 0 1 4 4 4 4 0 0 1-4 4 4 4 0 0 1-4-4 4 4 0 0 1 4-4m0 10c4.42 0 8 1.79 8 4v2H4v-2c0-2.21 3.58-4 8-4Z"/></svg><svg viewBox="0 0 24 24" id="mdi-account-box" xmlns="http://www.w3.org/2000/svg"><path d="M6 17c0-2 4-3.1 6-3.1s6 1.1 6 3.1v1H6m9-9a3 3 0 0 1-3 3 3 3 0 0 1-3-3 3 3 0 0 1 3-3 3 3 0 0 1 3 3M3 5v14a2 2 0 0 0 2 2h14a2 2 0 0 0 2-2V5a2 2 0 0 0-2-2H5a2 2 0 0 0-2 2Z"/></svg><svg viewBox="0 0 24 24" id="mdi-alert" xmlns="http://www.w3.org/2000/svg"><path d="M13 14h-2V9h2m0 9h-2v-2h2M1 21h22L12 2 1 21Z"/></svg><svg viewBox="0 0 24 24" id="mdi-alert-circle" xmlns="http://www.w3.org/2000/svg"><path d="M13 13h-2V7h2m0 10h-2v-2h2M12 2A10 10 0 0 0 2 12a10 10 0 0 0 10 10 10 10 0 0 0 10-10A10 10 0 0 0 12 2Z"/></svg><svg viewBox="0 0 24 24" id="mdi-alert-octagon" xmlns="http://www.w3.org/2000/svg"><path d="M13 13h-2V7h2m-2 8h2v2h-2m4.73-14H8.27L3 8.27v7.46L8.27 21h7.46L21 15.73V8.27L15.73 3Z"/></svg><svg viewBox="0 0 24 24" id="mdi-arrow-down" xmlns="http://www.w3.org/2000/svg"><path d="M11 4h2v12l5.5-5.5 1.42 1.42L12 19.84l-7.92-7.92L5.5 10.5 11 16V4Z"/></svg><svg viewBox="0 0 24 24" id="mdi-arrow-right-thin" xmlns="http://www.w3.org/2000/svg"><path d="M14 16.94v-4H5.08l-.03-2.01H14V6.94l5 5Z"/></svg><svg viewBox="0 0 24 24" id="mdi-arrow-up" xmlns="http://www.w3.org/2000/svg"><path d="M13 20h-2V8l-5.5 5.5-1.42-1.42L12 4.16l7.92 7.92-1.42 1.42L13 8v12Z"/></svg><svg viewBox="0 0 24 24" id="mdi-attachment-minus" xmlns="http://www.w3.org/2000/svg"><path d="M16.61 13.5c-.8.35-1.5.86-2.07 1.5H9.5a2.5 2.5 0 0 1 0-5H17v1.5H9.5c-.55 0-1 .45-1 1s.45 1 1 1h7.11m-13.11-1c0-2.21 1.79-4 4-4H18a2.495 2.495 0 0 1 1.45 4.53c.6.04 1.18.17 1.72.38.52-.67.83-1.5.83-2.41 0-2.21-1.79-4-4-4H7.5C4.46 7 2 9.46 2 12.5S4.46 18 7.5 18h5.59c.09-.53.25-1.03.46-1.5H7.5c-2.21 0-4-1.79-4-4M15 18v2h8v-2h-8Z"/></svg><svg viewBox="0 0 24 24" id="mdi-attachment-plus" xmlns="http://www.w3.org/2000/svg"><path d="M7.5 16.5h6.05c-.21.47-.37.97-.46 1.5H7.5C4.46 18 2 15.54 2 12.5S4.46 7 7.5 7H18c2.21 0 4 1.79 4 4 0 .91-.31 1.74-.83 2.41-.54-.21-1.12-.34-1.72-.38A2.495 2.495 0 0 0 18 8.5H7.5c-2.21 0-4 1.79-4 4s1.79 4 4 4m2-3c-.55 0-1-.45-1-1s.45-1 1-1H17V10H9.5a2.5 2.5 0 0 0 0 5h5.04a5.96 5.96 0 0 1 2.07-1.5H9.5M20 18v-3h-2v3h-3v2h3v3h2v-3h3v-2h-3Z"/></svg><svg viewBox="0 0 24 24" id="mdi-check-circle" xmlns="http://www.w3.org/2000/svg"><path d="M12 2C6.5 2 2 6.5 2 12s4.5 10 10 10 10-4.5 10-10S17.5 2 12 2m-2 15-5-5 1.41-1.41L10 14.17l7.59-7.59L19 8l-9 9Z"/></svg><svg viewBox="0 0 24 24" id="mdi-check-circle-outline" xmlns="http://www.w3.org/2000/svg"><path d="M12 2C6.5 2 2 6.5 2 12s4.5 10 10 10 10-4.5 10-10S17.5 2 12 2m0 18c-4.41 0-8-3.59-8-8s3.59-8 8-8 8 3.59 8 8-3.59 8-8 8m4.59-12.42L10 14.17l-2.59-2.58L6 13l4 4 8-8-1.41-1.42Z"/></svg><svg viewBox="0 0 24 24" id="mdi-check-decagram" xmlns="http://www.w3.org/2000/svg"><path d="m23 12-2.44-2.78.34-3.68-3.61-.82-1.89-3.18L12 3 8.6 1.54 6.71 4.72l-3.61.81.34 3.68L1 12l2.44 2.78-.34 3.69 3.61.82 1.89 3.18L12 21l3.4 1.46 1.89-3.18 3.61-.82-.34-3.68L23 12m-13 5-4-4 1.41-1.41L10 14.17l6.59-6.59L18 9l-8 8Z"/></svg><svg viewBox="0 0 24 24" id="mdi-chevron-double-left" xmlns="http://www.w3.org/2000/svg"><path d="M18.41 7.41 17 6l-6 6 6 6 1.41-1.41L13.83 12l4.58-4.59m-6 0L11 6l-6 6 6 6 1.41-1.41L7.83 12l4.58-4.59Z"/></svg><svg viewBox="0 0 24 24" id="mdi-chevron-double-right" xmlns="http://www.w3.org/2000/svg"><path d="M5.59 7.41 7 6l6 6-6 6-1.41-1.41L10.17 12 5.59 7.41m6 0L13 6l6 6-6 6-1.41-1.41L16.17 12l-4.58-4.59Z"/></svg><svg viewBox="0 0 24 24" id="mdi-chevron-down" xmlns="http://www.w3.org/2000/svg"><path d="M7.41 8.58 12 13.17l4.59-4.59L18 10l-6 6-6-6 1.41-1.42Z"/></svg><svg viewBox="0 0 24 24" id="mdi-chevron-left" xmlns="http://www.w3.org/2000/svg"><path d="M15.41 16.58 10.83 12l4.58-4.59L14 6l-6 6 6 6 1.41-1.42Z"/></svg><svg viewBox="0 0 24 24" id="mdi-chevron-right" xmlns="http://www.w3.org/2000/svg"><path d="M8.59 16.58 13.17 12 8.59 7.41 10 6l6 6-6 6-1.41-1.42Z"/></svg><svg viewBox="0 0 24 24" id="mdi-chevron-up" xmlns="http://www.w3.org/2000/svg"><path d="M7.41 15.41 12 10.83l4.59 4.58L18 14l-6-6-6 6 1.41 1.41Z"/></svg><svg viewBox="0 0 24 24" id="mdi-circle-outline" xmlns="http://www.w3.org/2000/svg"><path d="M12 20a8 8 0 0 1-8-8 8 8 0 0 1 8-8 8 8 0 0 1 8 8 8 8 0 0 1-8 8m0-18A10 10 0 0 0 2 12a10 10 0 0 0 10 10 10 10 0 0 0 10-10A10 10 0 0 0 12 2Z"/></svg><svg viewBox="0 0 24 24" id="mdi-close" xmlns="http://www.w3.org/2000/svg"><path d="M19 6.41 17.59 5 12 10.59 6.41 5 5 6.41 10.59 12 5 17.59 6.41 19 12 13.41 17.59 19 19 17.59 13.41 12 19 6.41Z"/></svg><svg viewBox="0 0 24 24" id="mdi-close-circle" xmlns="http://www.w3.org/2000/svg"><path d="M12 2c5.53 0 10 4.47 10 10s-4.47 10-10 10S2 17.53 2 12 6.47 2 12 2m3.59 5L12 10.59 8.41 7 7 8.41 10.59 12 7 15.59 8.41 17 12 13.41 15.59 17 17 15.59 13.41 12 17 8.41 15.59 7Z"/></svg><svg viewBox="0 0 24 24" id="mdi-cog" xmlns="http://www.w3.org/2000/svg"><path d="M12 15.5A3.5 3.5 0 0 1 8.5 12 3.5 3.5 0 0 1 12 8.5a3.5 3.5 0 0 1 3.5 3.5 3.5 3.5 0 0 1-3.5 3.5m7.43-2.53c.04-.32.07-.64.07-.97 0-.33-.03-.66-.07-1l2.11-1.63c.19-.15.24-.42.12-.64l-2-3.46c-.12-.22-.39-.31-.61-.22l-2.49 1c-.52-.39-1.06-.73-1.69-.98l-.37-2.65A.506.506 0 0 0 14 2h-4c-.25 0-.46.18-.5.42l-.37 2.65c-.63.25-1.17.59-1.69.98l-2.49-1c-.22-.09-.49 0-.61.22l-2 3.46c-.13.22-.07.49.12.64L4.57 11c-.04.34-.07.67-.07 1 0 .33.03.65.07.97l-2.11 1.66c-.19.15-.25.42-.12.64l2 3.46c.12.22.39.3.61.22l2.49-1.01c.52.4 1.06.74 1.69.99l.37 2.65c.04.24.25.42.5.42h4c.25 0 .46-.18.5-.42l.37-2.65c.63-.26 1.17-.59 1.69-.99l2.49 1.01c.22.08.49 0 .61-.22l2-3.46c.12-.22.07-.49-.12-.64l-2.11-1.66Z"/></svg><svg viewBox="0 0 24 24" id="mdi-console" xmlns="http://www.w3.org/2000/svg"><path d="M20 19V7H4v12h16m0-16a2 2 0 0 1 2 2v14a2 2 0 0 1-2 2H4a2 2 0 0 1-2-2V5a2 2 0 0 1 2-2h16m-7 14v-2h5v2h-5m-3.42-4L5.57 9H8.4l3.3 3.3c.39.39.39 1.03 0 1.42L8.42 17H5.59l3.99-4Z"/></svg><svg viewBox="0 0 24 24" id="mdi-content-copy" xmlns="http://www.w3.org/2000/svg"><path d="M19 21H8V7h11m0-2H8a2 2 0 0 0-2 2v14a2 2 0 0 0 2 2h11a2 2 0 0 0 2-2V7a2 2 0 0 0-2-2m-3-4H4a2 2 0 0 0-2 2v14h2V3h12V1Z"/></svg><svg viewBox="0 0 24 24" id="mdi-database" xmlns="http://www.w3.org/2000/svg"><path d="M12 3C7.58 3 4 4.79 4 7s3.58 4 8 4 8-1.79 8-4-3.58-4-8-4M4 9v3c0 2.21 3.58 4 8 4s8-1.79 8-4V9c0 2.21-3.58 4-8 4s-8-1.79-8-4m0 5v3c0 2.21 3.58 4 8 4s8-1.79 8-4v-3c0 2.21-3.58 4-8 4s-8-1.79-8-4Z"/></svg><svg viewBox="0 0 24 24" id="mdi-delete" xmlns="http://www.w3.org/2000/svg"><path d="M19 4h-3.5l-1-1h-5l-1 1H5v2h14M6 19a2 2 0 0 0 2 2h8a2 2 0 0 0 2-2V7H6v12Z"/></svg><svg viewBox="0 0 24 24" id="mdi-download" xmlns="http://www.w3.org/2000/svg"><path d="M5 20h14v-2H5m14-9h-4V3H9v6H5l7 7 7-7Z"/></svg><svg viewBox="0 0 24 24" id="mdi-drag-horizontal" xmlns="http://www.w3.org/2000/svg"><path d="M3 15v-2h2v2H3m0-4V9h2v2H3m4 4v-2h2v2H7m0-4V9h2v2H7m4 4v-2h2v2h-2m0-4V9h2v2h-2m4 4v-2h2v2h-2m0-4V9h2v2h-2m4 4v-2h2v2h-2m0-4V9h2v2h-2Z"/></svg><svg viewBox="0 0 24 24" id="mdi-emoticon" xmlns="http://www.w3.org/2000/svg"><path d="M12 2C6.47 2 2 6.5 2 12a10 10 0 0 0 10 10 10 10 0 0 0 10-10A10 10 0 0 0 12 2m3.5 6A1.5 1.5 0 0 1 17 9.5a1.5 1.5 0 0 1-1.5 1.5A1.5 1.5 0 0 1 14 9.5 1.5 1.5 0 0 1 15.5 8m-7 0A1.5 1.5 0 0 1 10 9.5 1.5 1.5 0 0 1 8.5 11 1.5 1.5 0 0 1 7 9.5 1.5 1.5 0 0 1 8.5 8m3.5 9.5c-2.33 0-4.31-1.46-5.11-3.5h10.22c-.81 2.04-2.78 3.5-5.11 3.5Z"/></svg><svg viewBox="0 0 24 24" id="mdi-fast-forward" xmlns="http://www.w3.org/2000/svg"><path d="M13 6v12l8.5-6M4 18l8.5-6L4 6v12Z"/></svg><svg viewBox="0 0 24 24" id="mdi-file-replace" xmlns="http://www.w3.org/2000/svg"><path d="M14 12h5.5L14 6.5V12M8 5h7l6 6v10a2 2 0 0 1-2 2H8a2 2 0 0 1-2-2v-3h5v2l4-3-4-3v2H6V7a2 2 0 0 1 2-2m5.5-2H4v13h2v2H4a2 2 0 0 1-2-2V3a2 2 0 0 1 2-2h7.5l2 2Z"/></svg><svg viewBox="0 0 24 24" id="mdi-folder-lock" xmlns="http://www.w3.org/2000/svg"><path d="M13 20H4a2 2 0 0 1-2-2V6c0-1.11.89-2 2-2h6l2 2h8a2 2 0 0 1 2 2v3.04A4.911 4.911 0 0 0 19 10c-2.6 0-4.8 2.06-4.8 4.5v.24c-.7.6-1.2 1.5-1.2 2.46V20m10-2.7v3.5c0 .6-.6 1.2-1.3 1.2h-5.5c-.6 0-1.2-.6-1.2-1.3v-3.5c0-.6.6-1.2 1.2-1.2v-1.5c0-1.4 1.4-2.5 2.8-2.5s2.8 1.1 2.8 2.5V16c.6 0 1.2.6 1.2 1.3m-2.5-2.8c0-.8-.7-1.3-1.5-1.3s-1.5.5-1.5 1.3V16h3v-1.5Z"/></svg><svg viewBox="0 0 24 24" id="mdi-folder-outline" xmlns="http://www.w3.org/2000/svg"><path d="M20 18H4V8h16m0-2h-8l-2-2H4c-1.11 0-2 .89-2 2v12a2 2 0 0 0 2 2h16a2 2 0 0 0 2-2V8a2 2 0 0 0-2-2Z"/></svg><svg viewBox="0 0 24 24" id="mdi-format-list-text" xmlns="http://www.w3.org/2000/svg"><path d="M2 14h6v6H2M16 8h-6v2h6M2 10h6V4H2m8 0v2h12V4M10 20h6v-2h-6m0-2h12v-2H10"/></svg><svg viewBox="0 0 24 24" id="mdi-help-circle" xmlns="http://www.w3.org/2000/svg"><path d="m15.07 11.25-.9.92C13.45 12.89 13 13.5 13 15h-2v-.5c0-1.11.45-2.11 1.17-2.83l1.24-1.26c.37-.36.59-.86.59-1.41a2 2 0 0 0-2-2 2 2 0 0 0-2 2H8a4 4 0 0 1 4-4 4 4 0 0 1 4 4 3.2 3.2 0 0 1-.93 2.25M13 19h-2v-2h2M12 2A10 10 0 0 0 2 12a10 10 0 0 0 10 10 10 10 0 0 0 10-10c0-5.53-4.5-10-10-10Z"/></svg><svg viewBox="0 0 24 24" id="mdi-information-outline" xmlns="http://www.w3.org/2000/svg"><path d="M11 9h2V7h-2m1 13c-4.41 0-8-3.59-8-8s3.59-8 8-8 8 3.59 8 8-3.59 8-8 8m0-18A10 10 0 0 0 2 12a10 10 0 0 0 10 10 10 10 0 0 0 10-10A10 10 0 0 0 12 2m-1 15h2v-6h-2v6Z"/></svg><svg viewBox="0 0 24 24" id="mdi-lightbulb-off-outline" xmlns="http://www.w3.org/2000/svg"><path d="M12 2C9.76 2 7.78 3.05 6.5 4.68l1.43 1.43C8.84 4.84 10.32 4 12 4a5 5 0 0 1 5 5c0 1.68-.84 3.16-2.11 4.06l1.42 1.44C17.94 13.21 19 11.24 19 9a7 7 0 0 0-7-7M3.28 4 2 5.27 5.04 8.3C5 8.53 5 8.76 5 9c0 2.38 1.19 4.47 3 5.74V17a1 1 0 0 0 1 1h5.73l4 4L20 20.72 3.28 4m3.95 6.5 5.5 5.5H10v-2.42a5.004 5.004 0 0 1-2.77-3.08M9 20v1a1 1 0 0 0 1 1h4a1 1 0 0 0 1-1v-1H9Z"/></svg><svg viewBox="0 0 24 24" id="mdi-lightbulb-on" xmlns="http://www.w3.org/2000/svg"><path d="M12 6a6 6 0 0 1 6 6c0 2.22-1.21 4.16-3 5.2V19a1 1 0 0 1-1 1h-4a1 1 0 0 1-1-1v-1.8c-1.79-1.04-3-2.98-3-5.2a6 6 0 0 1 6-6m2 15v1a1 1 0 0 1-1 1h-2a1 1 0 0 1-1-1v-1h4m6-10h3v2h-3v-2M1 11h3v2H1v-2M13 1v3h-2V1h2M4.92 3.5l2.13 2.14-1.42 1.41L3.5 4.93 4.92 3.5m12.03 2.13 2.12-2.13 1.43 1.43-2.13 2.12-1.42-1.42Z"/></svg><svg viewBox="0 0 24 24" id="mdi-lightbulb-question-outline" xmlns="http://www.w3.org/2000/svg"><path d="M8 2c3.9 0 7 3.1 7 7 0 2.4-1.2 4.5-3 5.7V17c0 .6-.4 1-1 1H5c-.6 0-1-.4-1-1v-2.3C2.2 13.5 1 11.4 1 9c0-3.9 3.1-7 7-7M5 21v-1h6v1c0 .6-.4 1-1 1H6c-.6 0-1-.4-1-1M8 4C5.2 4 3 6.2 3 9c0 2.1 1.2 3.8 3 4.6V16h4v-2.4c1.8-.8 3-2.5 3-4.6 0-2.8-2.2-5-5-5m12.5 10.5V16H19v-1.5h1.5m-2-5H17V9c0-1.7 1.3-3 3-3s3 1.3 3 3c0 1-.5 1.9-1.3 2.4l-.3.2c-.6.4-.9 1-.9 1.7v.2H19v-.2c0-1.2.6-2.3 1.6-2.9l.3-.2c.4-.3.6-.7.6-1.2 0-.8-.7-1.5-1.5-1.5s-1.5.7-1.5 1.5v.5Z"/></svg><svg viewBox="0 0 24 24" id="mdi-lock" xmlns="http://www.w3.org/2000/svg"><path d="M12 17a2 2 0 0 0 2-2 2 2 0 0 0-2-2 2 2 0 0 0-2 2 2 2 0 0 0 2 2m6-9a2 2 0 0 1 2 2v10a2 2 0 0 1-2 2H6a2 2 0 0 1-2-2V10a2 2 0 0 1 2-2h1V6a5 5 0 0 1 5-5 5 5 0 0 1 5 5v2h1m-6-5a3 3 0 0 0-3 3v2h6V6a3 3 0 0 0-3-3Z"/></svg><svg viewBox="0 0 24 24" id="mdi-lock-outline" xmlns="http://www.w3.org/2000/svg"><path d="M12 17a2 2 0 0 1-2-2c0-1.11.89-2 2-2a2 2 0 0 1 2 2 2 2 0 0 1-2 2m6 3V10H6v10h12m0-12a2 2 0 0 1 2 2v10a2 2 0 0 1-2 2H6a2 2 0 0 1-2-2V10c0-1.11.89-2 2-2h1V6a5 5 0 0 1 5-5 5 5 0 0 1 5 5v2h1m-6-5a3 3 0 0 0-3 3v2h6V6a3 3 0 0 0-3-3Z"/></svg><svg viewBox="0 0 24 24" id="mdi-magnify-minus" xmlns="http://www.w3.org/2000/svg"><path d="M9 2a7 7 0 0 1 7 7c0 1.57-.5 3-1.39 4.19l.8.81H16l6 6-2 2-6-6v-.59l-.81-.8A6.916 6.916 0 0 1 9 16a7 7 0 0 1-7-7 7 7 0 0 1 7-7M5 8v2h8V8H5Z"/></svg><svg viewBox="0 0 24 24" id="mdi-magnify-plus" xmlns="http://www.w3.org/2000/svg"><path d="M9 2a7 7 0 0 1 7 7c0 1.57-.5 3-1.39 4.19l.8.81H16l6 6-2 2-6-6v-.59l-.81-.8A6.916 6.916 0 0 1 9 16a7 7 0 0 1-7-7 7 7 0 0 1 7-7M8 5v3H5v2h3v3h2v-3h3V8h-3V5H8Z"/></svg><svg viewBox="0 0 24 24" id="mdi-magnify-scan" xmlns="http://www.w3.org/2000/svg"><path d="M17 22v-2h3v-3h2v3.5c0 .39-.16.74-.46 1.04-.3.3-.65.46-1.04.46H17M7 22H3.5c-.39 0-.74-.16-1.04-.46-.3-.3-.46-.65-.46-1.04V17h2v3h3v2M17 2h3.5c.39 0 .74.16 1.04.46.3.3.46.65.46 1.04V7h-2V4h-3V2M7 2v2H4v3H2V3.5c0-.39.16-.74.46-1.04.3-.3.65-.46 1.04-.46H7m3.5 4C13 6 15 8 15 10.5c0 .88-.25 1.7-.69 2.4l3.26 3.26-1.41 1.41-3.26-3.26c-.7.44-1.52.69-2.4.69C8 15 6 13 6 10.5S8 6 10.5 6m0 2a2.5 2.5 0 0 0 0 5 2.5 2.5 0 0 0 0-5Z"/></svg><svg viewBox="0 0 24 24" id="mdi-menu-down" xmlns="http://www.w3.org/2000/svg"><path d="m7 10 5 5 5-5H7Z"/></svg><svg viewBox="0 0 24 24" id="mdi-menu-up" xmlns="http://www.w3.org/2000/svg"><path d="m7 15 5-5 5 5H7Z"/></svg><svg viewBox="0 0 24 24" id="mdi-minus-circle" xmlns="http://www.w3.org/2000/svg"><path d="M17 13H7v-2h10m-5-9A10 10 0 0 0 2 12a10 10 0 0 0 10 10 10 10 0 0 0 10-10A10 10 0 0 0 12 2Z"/></svg><svg viewBox="0 0 24 24" id="mdi-open-in-new" xmlns="http://www.w3.org/2000/svg"><path d="M14 3v2h3.59l-9.83 9.83 1.41 1.41L19 6.41V10h2V3m-2 16H5V5h7V3H5a2 2 0 0 0-2 2v14a2 2 0 0 0 2 2h14a2 2 0 0 0 2-2v-7h-2v7Z"/></svg><svg viewBox="0 0 24 24" id="mdi-pencil" xmlns="http://www.w3.org/2000/svg"><path d="M20.71 7.04c.39-.39.39-1.04 0-1.41l-2.34-2.34c-.37-.39-1.02-.39-1.41 0l-1.84 1.83 3.75 3.75M3 17.25V21h3.75L17.81 9.93l-3.75-3.75L3 17.25Z"/></svg><svg viewBox="0 0 24 24" id="mdi-play-circle" xmlns="http://www.w3.org/2000/svg"><path d="M10 16.5v-9l6 4.5M12 2A10 10 0 0 0 2 12a10 10 0 0 0 10 10 10 10 0 0 0 10-10A10 10 0 0 0 12 2Z"/></svg><svg viewBox="0 0 24 24" id="mdi-progress-clock" xmlns="http://www.w3.org/2000/svg"><path d="M13 2.03v2.02c4.39.54 7.5 4.53 6.96 8.92-.46 3.64-3.32 6.53-6.96 6.96v2c5.5-.55 9.5-5.43 8.95-10.93-.45-4.75-4.22-8.5-8.95-8.97m-2 .03c-1.95.19-3.81.94-5.33 2.2L7.1 5.74c1.12-.9 2.47-1.48 3.9-1.68v-2M4.26 5.67A9.885 9.885 0 0 0 2.05 11h2c.19-1.42.75-2.77 1.64-3.9L4.26 5.67M2.06 13c.2 1.96.97 3.81 2.21 5.33l1.42-1.43A8.002 8.002 0 0 1 4.06 13h-2m5.04 5.37-1.43 1.37A9.994 9.994 0 0 0 11 22v-2a8.002 8.002 0 0 1-3.9-1.63M12.5 7v5.25l4.5 2.67-.75 1.23L11 13V7h1.5Z"/></svg><svg viewBox="0 0 24 24" id="mdi-progress-wrench" xmlns="http://www.w3.org/2000/svg"><path d="M13 2.03v2.02c4.39.54 7.5 4.53 6.96 8.92-.46 3.64-3.32 6.53-6.96 6.96v2c5.5-.55 9.5-5.43 8.95-10.93-.45-4.75-4.22-8.5-8.95-8.97m-2 .03c-1.95.19-3.81.94-5.33 2.2L7.1 5.74c1.12-.9 2.47-1.48 3.9-1.68v-2M4.26 5.67A9.885 9.885 0 0 0 2.05 11h2c.19-1.42.75-2.77 1.64-3.9L4.26 5.67M2.06 13c.2 1.96.97 3.81 2.21 5.33l1.42-1.43A8.002 8.002 0 0 1 4.06 13h-2m5.04 5.37-1.43 1.37A9.994 9.994 0 0 0 11 22v-2a8.002 8.002 0 0 1-3.9-1.63m9.72-3.18-4.11-4.11c.41-1.04.18-2.26-.68-3.11-.9-.91-2.25-1.09-3.34-.59l1.94 1.94-1.35 1.36-1.99-1.95c-.54 1.09-.29 2.44.59 3.35.86.86 2.08 1.08 3.12.68l4.11 4.1c.18.19.45.19.63 0l1.04-1.03c.22-.18.22-.5.04-.64Z"/></svg><svg viewBox="0 0 24 24" id="mdi-rename-box" xmlns="http://www.w3.org/2000/svg"><path d="M18 17h-7.5l2-2H18M6 17v-2.5l7.88-7.85c.19-.2.51-.2.71 0l1.76 1.76c.2.2.2.51 0 .71L8.47 17M19 3H5c-1.11 0-2 .89-2 2v14a2 2 0 0 0 2 2h14a2 2 0 0 0 2-2V5a2 2 0 0 0-2-2Z"/></svg><svg viewBox="0 0 24 24" id="mdi-restart" xmlns="http://www.w3.org/2000/svg"><path d="M12 4c2.1 0 4.1.8 5.6 2.3 3.1 3.1 3.1 8.2 0 11.3-1.8 1.9-4.3 2.6-6.7 2.3l.5-2c1.7.2 3.5-.4 4.8-1.7 2.3-2.3 2.3-6.1 0-8.5C15.1 6.6 13.5 6 12 6v4.6l-5-5 5-5V4M6.3 17.6C3.7 15 3.3 11 5.1 7.9l1.5 1.5c-1.1 2.2-.7 5 1.2 6.8.5.5 1.1.9 1.8 1.2l-.6 2c-1-.4-1.9-1-2.7-1.8Z"/></svg><svg viewBox="0 0 24 24" id="mdi-rewind" xmlns="http://www.w3.org/2000/svg"><path d="m11.5 12 8.5 6V6m-9 12V6l-8.5 6 8.5 6Z"/></svg><svg viewBox="0 0 24 24" id="mdi-rocket" xmlns="http://www.w3.org/2000/svg"><path d="m20 22-3.86-1.55c.7-1.53 1.2-3.11 1.51-4.72L20 22M7.86 20.45 4 22l2.35-6.27c.31 1.61.81 3.19 1.51 4.72M12 2s5 2 5 10c0 3.1-.75 5.75-1.67 7.83A2 2 0 0 1 13.5 21h-3a2 2 0 0 1-1.83-1.17C7.76 17.75 7 15.1 7 12c0-8 5-10 5-10m0 10c1.1 0 2-.9 2-2s-.9-2-2-2-2 .9-2 2 .9 2 2 2Z"/></svg><svg viewBox="0 0 24 24" id="mdi-star" xmlns="http://www.w3.org/2000/svg"><path d="M12 17.27 18.18 21l-1.64-7.03L22 9.24l-7.19-.62L12 2 9.19 8.62 2 9.24l5.45 4.73L5.82 21 12 17.27Z"/></svg><svg viewBox="0 0 24 24" id="mdi-star-outline" xmlns="http://www.w3.org/2000/svg"><path d="m12 15.39-3.76 2.27.99-4.28-3.32-2.88 4.38-.37L12 6.09l1.71 4.04 4.38.37-3.32 2.88.99 4.28M22 9.24l-7.19-.61L12 2 9.19 8.63 2 9.24l5.45 4.73L5.82 21 12 17.27 18.18 21l-1.64-7.03L22 9.24Z"/></svg><svg viewBox="0 0 24 24" id="mdi-stop-circle" xmlns="http://www.w3.org/2000/svg"><path d="M12 2A10 10 0 0 0 2 12a10 10 0 0 0 10 10 10 10 0 0 0 10-10A10 10 0 0 0 12 2M9 9h6v6H9"/></svg><svg viewBox="0 0 24 24" id="mdi-sync-off" xmlns="http://www.w3.org/2000/svg"><path d="M20 4h-6v6l2.24-2.24A6.003 6.003 0 0 1 18 12c0 1-.25 1.94-.68 2.77l1.46 1.46a7.925 7.925 0 0 0-1.14-9.87L20 4M2.86 5.41l2.36 2.36a7.925 7.925 0 0 0 1.14 9.87L4 20h6v-6l-2.24 2.24A6.003 6.003 0 0 1 6 12c0-1 .25-1.94.68-2.77l8.08 8.08c-.26.13-.5.25-.76.34v2.09c.79-.21 1.54-.54 2.22-.96l2.36 2.36 1.27-1.27L4.14 4.14 2.86 5.41m7.14.94V4.26c-.8.21-1.55.54-2.23.96l1.46 1.46c.27-.12.5-.24.77-.33Z"/></svg><svg viewBox="0 0 24 24" id="mdi-text-box" xmlns="http://www.w3.org/2000/svg"><path d="M14 17H7v-2h7m3-2H7v-2h10m0-2H7V7h10m2-4H5c-1.11 0-2 .89-2 2v14a2 2 0 0 0 2 2h14a2 2 0 0 0 2-2V5a2 2 0 0 0-2-2Z"/></svg><svg viewBox="0 0 24 24" id="mdi-text-search-variant" xmlns="http://www.w3.org/2000/svg"><path d="M9 6v2H2V6h7m0 5v2H2v-2h7m9 5v2H2v-2h16m1.31-4.5c.44-.68.69-1.5.69-2.39 0-2.5-2-4.5-4.5-4.5s-4.5 2-4.5 4.5 2 4.5 4.5 4.5c.87 0 1.69-.25 2.38-.68L21 16l1.39-1.39-3.08-3.11m-3.81.11c-1.38 0-2.5-1.11-2.5-2.5s1.12-2.5 2.5-2.5a2.5 2.5 0 0 1 0 5Z"/></svg><svg viewBox="0 0 24 24" id="mdi-timer-cog-outline" xmlns="http://www.w3.org/2000/svg"><path d="M22.8 19.4c.1 0 .1.1 0 .2l-1 1.7c-.1.1-.2.1-.3.1l-1.2-.4c-.3.2-.5.3-.8.5l-.2 1.3c0 .1-.1.2-.2.2h-2c-.1 0-.2-.1-.3-.2l-.2-1.3c-.3-.1-.6-.3-.8-.5l-1.2.5c-.1 0-.2 0-.3-.1l-1-1.7c-.1-.1 0-.2.1-.3l1.1-.8v-1l-1.1-.8c-.1-.1-.1-.2-.1-.3l1-1.7c.1-.1.2-.1.3-.1l1.2.5c.3-.2.5-.3.8-.5l.2-1.3c0-.1.1-.2.3-.2h2c.1 0 .2.1.2.2l.2 1.3c.3.1.6.3.9.5l1.2-.5c.1 0 .3 0 .3.1l1 1.7c.1.1 0 .2-.1.3l-1.1.8v1l1.1.8M19.5 18c0-.8-.7-1.5-1.5-1.5s-1.5.7-1.5 1.5.7 1.5 1.5 1.5 1.5-.7 1.5-1.5M13 14V8h-2v6m4-13H9v2h6V1m-3.7 19C7.8 19.6 5 16.6 5 13c0-3.9 3.1-7 7-7 3.2 0 5.9 2.1 6.7 5 .8.1 1.5.3 2.2.6-.3-1.6-.9-3-1.9-4.2L20.5 6c-.5-.5-1-1-1.5-1.4L17.6 6c-1.5-1.3-3.5-2-5.6-2-5 0-9 4-9 9s4 9 9 9h.3c-.5-.6-.8-1.3-1-2Z"/></svg><svg viewBox="0 0 24 24" id="mdi-undo" xmlns="http://www.w3.org/2000/svg"><path d="M12.5 8c-2.65 0-5.05 1-6.9 2.6L2 7v9h9l-3.62-3.62c1.39-1.16 3.16-1.88 5.12-1.88 3.54 0 6.55 2.31 7.6 5.5l2.37-.78C21.08 11.03 17.15 8 12.5 8Z"/></svg><svg viewBox="0 0 24 24" id="mdi-view-dashboard" xmlns="http://www.w3.org/2000/svg"><path d="M13 3v6h8V3m-8 18h8V11h-8M3 21h8v-6H3m0-2h8V3H3v10Z"/></svg><svg viewBox="0 0 24 24" id="mdi-web" xmlns="http://www.w3.org/2000/svg"><path d="M16.36 14c.08-.66.14-1.32.14-2 0-.68-.06-1.34-.14-2h3.38c.16.64.26 1.31.26 2s-.1 1.36-.26 2m-5.15 5.56c.6-1.11 1.06-2.31 1.38-3.56h2.95a8.03 8.03 0 0 1-4.33 3.56M14.34 14H9.66c-.1-.66-.16-1.32-.16-2 0-.68.06-1.35.16-2h4.68c.09.65.16 1.32.16 2 0 .68-.07 1.34-.16 2M12 19.96c-.83-1.2-1.5-2.53-1.91-3.96h3.82c-.41 1.43-1.08 2.76-1.91 3.96M8 8H5.08A7.923 7.923 0 0 1 9.4 4.44C8.8 5.55 8.35 6.75 8 8m-2.92 8H8c.35 1.25.8 2.45 1.4 3.56A8.008 8.008 0 0 1 5.08 16m-.82-2C4.1 13.36 4 12.69 4 12s.1-1.36.26-2h3.38c-.08.66-.14 1.32-.14 2 0 .68.06 1.34.14 2M12 4.03c.83 1.2 1.5 2.54 1.91 3.97h-3.82c.41-1.43 1.08-2.77 1.91-3.97M18.92 8h-2.95a15.65 15.65 0 0 0-1.38-3.56c1.84.63 3.37 1.9 4.33 3.56M12 2C6.47 2 2 6.5 2 12a10 10 0 0 0 10 10 10 10 0 0 0 10-10A10 10 0 0 0 12 2Z"/></svg><svg viewBox="0 0 24 24" id="mdi-widgets" xmlns="http://www.w3.org/2000/svg"><path d="M3 3h8v4.34l5.66-5.65 5.65 5.65L16.66 13H21v8h-8v-8h3.66L11 7.34V11H3V3m0 10h8v8H3v-8Z"/></svg><svg viewBox="0 0 24 24" id="menu" xmlns="http://www.w3.org/2000/svg"><path d="M3 18h18v-2H3v2zm0-5h18v-2H3v2zm0-7v2h18V6H3z"/></svg><svg viewBox="0 0 24 24" id="more_vert" xmlns="http://www.w3.org/2000/svg"><path d="M12 8c1.1 0 2-.9 2-2s-.9-2-2-2-2 .9-2 2 .9 2 2 2zm0 2c-1.1 0-2 .9-2 2s.9 2 2 2 2-.9 2-2-.9-2-2-2zm0 6c-1.1 0-2 .9-2 2s.9 2 2 2 2-.9 2-2-.9-2-2-2z"/></svg><svg viewBox="0 0 24 24" id="move_to_inbox" xmlns="http://www.w3.org/2000/svg"><path d="M19 3H4.99c-1.11 0-1.98.9-1.98 2L3 19c0 1.1.88 2 1.99 2H19c1.1 0 2-.9 2-2V5c0-1.1-.9-2-2-2zm0 12h-4c0 1.66-1.35 3-3 3s-3-1.34-3-3H4.99V5H19v10zm-3-5h-2V7h-4v3H8l4 4 4-4z"/></svg><svg viewBox="0 0 24 24" id="notifications" xmlns="http://www.w3.org/2000/svg"><path d="M12 22c1.1 0 2-.9 2-2h-4a2 2 0 0 0 2 2zm6-6v-5c0-3.07-1.64-5.64-4.5-6.32V4c0-.83-.67-1.5-1.5-1.5s-1.5.67-1.5 1.5v.68C7.63 5.36 6 7.92 6 11v5l-2 2v1h16v-1l-2-2z"/></svg><svg viewBox="0 0 24 24" id="notifications_active" xmlns="http://www.w3.org/2000/svg"><path d="M7.58 4.08 6.15 2.65C3.75 4.48 2.17 7.3 2.03 10.5h2a8.445 8.445 0 0 1 3.55-6.42zm12.39 6.42h2c-.15-3.2-1.73-6.02-4.12-7.85l-1.42 1.43a8.495 8.495 0 0 1 3.54 6.42zM18 11c0-3.07-1.64-5.64-4.5-6.32V4c0-.83-.67-1.5-1.5-1.5s-1.5.67-1.5 1.5v.68C7.63 5.36 6 7.92 6 11v5l-2 2v1h16v-1l-2-2v-5zm-6 11c.14 0 .27-.01.4-.04.65-.14 1.18-.58 1.44-1.18.1-.24.15-.5.15-.78h-4c.01 1.1.9 2 2.01 2z"/></svg><svg viewBox="0 0 24 24" id="open_in_new" xmlns="http://www.w3.org/2000/svg"><path d="M19 19H5V5h7V3H5a2 2 0 0 0-2 2v14a2 2 0 0 0 2 2h14c1.1 0 2-.9 2-2v-7h-2v7zM14 3v2h3.59l-9.83 9.83 1.41 1.41L19 6.41V10h2V3h-7z"/></svg><svg viewBox="0 0 24 24" id="pause_circle_filled" xmlns="http://www.w3.org/2000/svg"><path d="M12 2C6.48 2 2 6.48 2 12s4.48 10 10 10 10-4.48 10-10S17.52 2 12 2zm-1 14H9V8h2v8zm4 0h-2V8h2v8z"/></svg><svg viewBox="0 0 24 24" id="pending" xmlns="http://www.w3.org/2000/svg"><path d="M12 2C6.48 2 2 6.48 2 12s4.48 10 10 10 10-4.48 10-10S17.52 2 12 2zM7 13.5c-.83 0-1.5-.67-1.5-1.5s.67-1.5 1.5-1.5 1.5.67 1.5 1.5-.67 1.5-1.5 1.5zm5 0c-.83 0-1.5-.67-1.5-1.5s.67-1.5 1.5-1.5 1.5.67 1.5 1.5-.67 1.5-1.5 1.5zm5 0c-.83 0-1.5-.67-1.5-1.5s.67-1.5 1.5-1.5 1.5.67 1.5 1.5-.67 1.5-1.5 1.5z"/></svg><svg viewBox="0 0 24 24" id="people" xmlns="http://www.w3.org/2000/svg"><path d="M16 11c1.66 0 2.99-1.34 2.99-3S17.66 5 16 5c-1.66 0-3 1.34-3 3s1.34 3 3 3zm-8 0c1.66 0 2.99-1.34 2.99-3S9.66 5 8 5C6.34 5 5 6.34 5 8s1.34 3 3 3zm0 2c-2.33 0-7 1.17-7 3.5V19h14v-2.5c0-2.33-4.67-3.5-7-3.5zm8 0c-.29 0-.62.02-.97.05 1.16.84 1.97 1.97 1.97 3.45V19h6v-2.5c0-2.33-4.67-3.5-7-3.5z"/></svg><svg viewBox="0 0 24 24" id="person" xmlns="http://www.w3.org/2000/svg"><path d="M12 12c2.21 0 4-1.79 4-4s-1.79-4-4-4-4 1.79-4 4 1.79 4 4 4zm0 2c-2.67 0-8 1.34-8 4v2h16v-2c0-2.66-5.33-4-8-4z"/></svg><svg viewBox="0 0 24 24" id="phonelink" xmlns="http://www.w3.org/2000/svg"><path d="M4 6h18V4H4c-1.1 0-2 .9-2 2v11H0v3h14v-3H4V6zm19 2h-6c-.55 0-1 .45-1 1v10c0 .55.45 1 1 1h6c.55 0 1-.45 1-1V9c0-.55-.45-1-1-1zm-1 9h-4v-7h4v7z"/></svg><svg viewBox="0 0 24 24" id="play_arrow" xmlns="http://www.w3.org/2000/svg"><path d="M8 5v14l11-7z"/></svg><svg viewBox="0 0 24 24" id="power_settings_new" xmlns="http://www.w3.org/2000/svg"><path d="M13 3h-2v10h2V3zm4.83 2.17-1.42 1.42A6.92 6.92 0 0 1 19 12c0 3.87-3.13 7-7 7A6.995 6.995 0 0 1 7.58 6.58L6.17 5.17A8.932 8.932 0 0 0 3 12a9 9 0 0 0 18 0c0-2.74-1.23-5.18-3.17-6.83z"/></svg><svg viewBox="0 0 24 24" id="radio_button_checked" xmlns="http://www.w3.org/2000/svg"><path d="M12 7c-2.76 0-5 2.24-5 5s2.24 5 5 5 5-2.24 5-5-2.24-5-5-5zm0-5C6.48 2 2 6.48 2 12s4.48 10 10 10 10-4.48 10-10S17.52 2 12 2zm0 18c-4.42 0-8-3.58-8-8s3.58-8 8-8 8 3.58 8 8-3.58 8-8 8z"/></svg><svg viewBox="0 0 24 24" id="receipt_long" xmlns="http://www.w3.org/2000/svg"><path d="M19.5 3.5 18 2l-1.5 1.5L15 2l-1.5 1.5L12 2l-1.5 1.5L9 2 7.5 3.5 6 2v14H3v3c0 1.66 1.34 3 3 3h12c1.66 0 3-1.34 3-3V2l-1.5 1.5zM19 19c0 .55-.45 1-1 1s-1-.45-1-1v-3H8V5h11v14z"/><path d="M9 7h6v2H9zm7 0h2v2h-2zm-7 3h6v2H9zm7 0h2v2h-2z"/></svg><svg viewBox="0 0 24 24" id="refresh" xmlns="http://www.w3.org/2000/svg"><path d="M17.65 6.35A7.958 7.958 0 0 0 12 4c-4.42 0-7.99 3.58-7.99 8s3.57 8 7.99 8c3.73 0 6.84-2.55 7.73-6h-2.08A5.99 5.99 0 0 1 12 18c-3.31 0-6-2.69-6-6s2.69-6 6-6c1.66 0 3.14.69 4.22 1.78L13 11h7V4l-2.35 2.35z"/></svg><svg viewBox="0 0 24 24" id="remove" xmlns="http://www.w3.org/2000/svg"><path d="M19 13H5v-2h14v2z"/></svg><svg viewBox="0 0 24 24" id="remove_circle" xmlns="http://www.w3.org/2000/svg"><path d="M12 2C6.48 2 2 6.48 2 12s4.48 10 10 10 10-4.48 10-10S17.52 2 12 2zm5 11H7v-2h10v2z"/></svg><svg viewBox="0 0 24 24" id="remove_circle_outline" xmlns="http://www.w3.org/2000/svg"><path d="M7 11v2h10v-2H7zm5-9C6.48 2 2 6.48 2 12s4.48 10 10 10 10-4.48 10-10S17.52 2 12 2zm0 18c-4.41 0-8-3.59-8-8s3.59-8 8-8 8 3.59 8 8-3.59 8-8 8z"/></svg><svg viewBox="0 0 24 24" id="replay" xmlns="http://www.w3.org/2000/svg"><path d="M12 5V1L7 6l5 5V7c3.31 0 6 2.69 6 6s-2.69 6-6 6-6-2.69-6-6H4c0 4.42 3.58 8 8 8s8-3.58 8-8-3.58-8-8-8z"/></svg><svg viewBox="0 0 24 24" id="report" xmlns="http://www.w3.org/2000/svg"><path d="M15.73 3H8.27L3 8.27v7.46L8.27 21h7.46L21 15.73V8.27L15.73 3zM12 17.3c-.72 0-1.3-.58-1.3-1.3 0-.72.58-1.3 1.3-1.3.72 0 1.3.58 1.3 1.3 0 .72-.58 1.3-1.3 1.3zm1-4.3h-2V7h2v6z"/></svg><svg viewBox="0 0 24 24" id="restore" xmlns="http://www.w3.org/2000/svg"><path d="M13 3a9 9 0 0 0-9 9H1l3.89 3.89.07.14L9 12H6c0-3.87 3.13-7 7-7s7 3.13 7 7-3.13 7-7 7c-1.93 0-3.68-.79-4.94-2.06l-1.42 1.42A8.954 8.954 0 0 0 13 21a9 9 0 0 0 0-18zm-1 5v5l4.28 2.54.72-1.21-3.5-2.08V8H12z"/></svg><svg viewBox="0 0 24 24" id="router" xmlns="http://www.w3.org/2000/svg"><path d="m20.2 5.9.8-.8C19.6 3.7 17.8 3 16 3s-3.6.7-5 2.1l.8.8C13 4.8 14.5 4.2 16 4.2s3 .6 4.2 1.7zm-.9.8c-.9-.9-2.1-1.4-3.3-1.4s-2.4.5-3.3 1.4l.8.8c.7-.7 1.6-1 2.5-1 .9 0 1.8.3 2.5 1l.8-.8zM19 13h-2V9h-2v4H5c-1.1 0-2 .9-2 2v4c0 1.1.9 2 2 2h14c1.1 0 2-.9 2-2v-4c0-1.1-.9-2-2-2zM8 18H6v-2h2v2zm3.5 0h-2v-2h2v2zm3.5 0h-2v-2h2v2z"/></svg><svg viewBox="0 0 24 24" id="save_alt" xmlns="http://www.w3.org/2000/svg"><path d="M19 12v7H5v-7H3v7c0 1.1.9 2 2 2h14c1.1 0 2-.9 2-2v-7h-2zm-6 .67 2.59-2.58L17 11.5l-5 5-5-5 1.41-1.41L11 12.67V3h2z"/></svg><svg viewBox="0 0 24 24" id="schedule" xmlns="http://www.w3.org/2000/svg"><path d="M11.99 2C6.47 2 2 6.48 2 12s4.47 10 9.99 10C17.52 22 22 17.52 22 12S17.52 2 11.99 2zM12 20c-4.42 0-8-3.58-8-8s3.58-8 8-8 8 3.58 8 8-3.58 8-8 8z"/><path d="M12.5 7H11v6l5.25 3.15.75-1.23-4.5-2.67z"/></svg><svg viewBox="0 0 24 24" id="search" xmlns="http://www.w3.org/2000/svg"><path d="M15.5 14h-.79l-.28-.27A6.471 6.471 0 0 0 16 9.5 6.5 6.5 0 1 0 9.5 16c1.61 0 3.09-.59 4.23-1.57l.27.28v.79l5 4.99L20.49 19l-4.99-5zm-6 0C7.01 14 5 11.99 5 9.5S7.01 5 9.5 5 14 7.01 14 9.5 11.99 14 9.5 14z"/></svg><svg viewBox="0 0 24 24" id="security" xmlns="http://www.w3.org/2000/svg"><path d="M12 1 3 5v6c0 5.55 3.84 10.74 9 12 5.16-1.26 9-6.45 9-12V5l-9-4zm0 10.99h7c-.53 4.12-3.28 7.79-7 8.94V12H5V6.3l7-3.11v8.8z"/></svg><svg viewBox="0 0 24 24" id="settings" xmlns="http://www.w3.org/2000/svg"><path d="M19.14 12.94c.04-.3.06-.61.06-.94 0-.32-.02-.64-.07-.94l2.03-1.58a.49.49 0 0 0 .12-.61l-1.92-3.32a.488.488 0 0 0-.59-.22l-2.39.96c-.5-.38-1.03-.7-1.62-.94l-.36-2.54a.484.484 0 0 0-.48-.41h-3.84c-.24 0-.43.17-.47.41l-.36 2.54c-.59.24-1.13.57-1.62.94l-2.39-.96c-.22-.08-.47 0-.59.22L2.74 8.87c-.12.21-.08.47.12.61l2.03 1.58c-.05.3-.09.63-.09.94s.02.64.07.94l-2.03 1.58a.49.49 0 0 0-.12.61l1.92 3.32c.12.22.37.29.59.22l2.39-.96c.5.38 1.03.7 1.62.94l.36 2.54c.05.24.24.41.48.41h3.84c.24 0 .44-.17.47-.41l.36-2.54c.59-.24 1.13-.56 1.62-.94l2.39.96c.22.08.47 0 .59-.22l1.92-3.32c.12-.22.07-.47-.12-.61l-2.01-1.58zM12 15.6c-1.98 0-3.6-1.62-3.6-3.6s1.62-3.6 3.6-3.6 3.6 1.62 3.6 3.6-1.62 3.6-3.6 3.6z"/></svg><svg viewBox="0 0 24 24" id="settings_ethernet" xmlns="http://www.w3.org/2000/svg"><path d="M7.77 6.76 6.23 5.48.82 12l5.41 6.52 1.54-1.28L3.42 12l4.35-5.24zM7 13h2v-2H7v2zm10-2h-2v2h2v-2zm-6 2h2v-2h-2v2zm6.77-7.52-1.54 1.28L20.58 12l-4.35 5.24 1.54 1.28L23.18 12l-5.41-6.52z"/></svg><svg viewBox="0 0 24 24" id="share" xmlns="http://www.w3.org/2000/svg"><path d="M18 16.08c-.76 0-1.44.3-1.96.77L8.91 12.7c.05-.23.09-.46.09-.7s-.04-.47-.09-.7l7.05-4.11c.54.5 1.25.81 2.04.81 1.66 0 3-1.34 3-3s-1.34-3-3-3-3 1.34-3 3c0 .24.04.47.09.7L8.04 9.81C7.5 9.31 6.79 9 6 9c-1.66 0-3 1.34-3 3s1.34 3 3 3c.79 0 1.5-.31 2.04-.81l7.12 4.16c-.05.21-.08.43-.08.65 0 1.61 1.31 2.92 2.92 2.92 1.61 0 2.92-1.31 2.92-2.92s-1.31-2.92-2.92-2.92z"/></svg><svg viewBox="0 0 24 24" id="stop_circle" xmlns="http://www.w3.org/2000/svg"><path d="M12 2C6.48 2 2 6.48 2 12s4.48 10 10 10 10-4.48 10-10S17.52 2 12 2zm4 14H8V8h8v8z"/></svg><svg viewBox="0 0 24 24" id="sync" xmlns="http://www.w3.org/2000/svg"><path d="M12 4V1L8 5l4 4V6c3.31 0 6 2.69 6 6 0 1.01-.25 1.97-.7 2.8l1.46 1.46A7.93 7.93 0 0 0 20 12c0-4.42-3.58-8-8-8zm0 14c-3.31 0-6-2.69-6-6 0-1.01.25-1.97.7-2.8L5.24 7.74A7.93 7.93 0 0 0 4 12c0 4.42 3.58 8 8 8v3l4-4-4-4v3z"/></svg><svg viewBox="0 0 24 24" id="system_update_alt" xmlns="http://www.w3.org/2000/svg"><path d="m12 16.5 4-4h-3v-9h-2v9H8l4 4zm9-13h-6v1.99h6v14.03H3V5.49h6V3.5H3c-1.1 0-2 .9-2 2v14c0 1.1.9 2 2 2h18c1.1 0 2-.9 2-2v-14c0-1.1-.9-2-2-2z"/></svg><svg viewBox="0 0 24 24" id="update" xmlns="http://www.w3.org/2000/svg"><path d="M21 10.12h-6.78l2.74-2.82c-2.73-2.7-7.15-2.8-9.88-.1-2.73 2.71-2.73 7.08 0 9.79s7.15 2.71 9.88 0C18.32 15.65 19 14.08 19 12.1h2c0 1.98-.88 4.55-2.64 6.29-3.51 3.48-9.21 3.48-12.72 0-3.5-3.47-3.53-9.11-.02-12.58s9.14-3.47 12.65 0L21 3v7.12zM12.5 8v4.25l3.5 2.08-.72 1.21L11 13V8h1.5z"/></svg><svg viewBox="0 0 24 24" id="visibility" xmlns="http://www.w3.org/2000/svg"><path d="M12 4.5C7 4.5 2.73 7.61 1 12c1.73 4.39 6 7.5 11 7.5s9.27-3.11 11-7.5c-1.73-4.39-6-7.5-11-7.5zM12 17c-2.76 0-5-2.24-5-5s2.24-5 5-5 5 2.24 5 5-2.24 5-5 5zm0-8c-1.66 0-3 1.34-3 3s1.34 3 3 3 3-1.34 3-3-1.34-3-3-3z"/></svg><svg viewBox="0 0 24 24" id="visibility_off" xmlns="http://www.w3.org/2000/svg"><path d="M12 7c2.76 0 5 2.24 5 5 0 .65-.13 1.26-.36 1.83l2.92 2.92c1.51-1.26 2.7-2.89 3.43-4.75-1.73-4.39-6-7.5-11-7.5-1.4 0-2.74.25-3.98.7l2.16 2.16C10.74 7.13 11.35 7 12 7zM2 4.27l2.28 2.28.46.46A11.804 11.804 0 0 0 1 12c1.73 4.39 6 7.5 11 7.5 1.55 0 3.03-.3 4.38-.84l.42.42L19.73 22 21 20.73 3.27 3 2 4.27zM7.53 9.8l1.55 1.55c-.05.21-.08.43-.08.65 0 1.66 1.34 3 3 3 .22 0 .44-.03.65-.08l1.55 1.55c-.67.33-1.41.53-2.2.53-2.76 0-5-2.24-5-5 0-.79.2-1.53.53-2.2zm4.31-.78 3.15 3.15.02-.16c0-1.66-1.34-3-3-3l-.17.01z"/></svg><svg viewBox="0 0 24 24" id="vpn_key" xmlns="http://www.w3.org/2000/svg"><path d="M12.65 10A5.99 5.99 0 0 0 7 6c-3.31 0-6 2.69-6 6s2.69 6 6 6a5.99 5.99 0 0 0 5.65-4H17v4h4v-4h2v-4H12.65zM7 14c-1.1 0-2-.9-2-2s.9-2 2-2 2 .9 2 2-.9 2-2 2z"/></svg><svg viewBox="0 0 24 24" id="warning" xmlns="http://www.w3.org/2000/svg"><path d="M1 21h22L12 2 1 21zm12-3h-2v-2h2v2zm0-4h-2v-4h2v4z"/></svg></svg>