<svg xmlns="http://www.w3.org/2000/svg" width="24" height="24">
  <path d="M12 1a5 5 0 0 0-5 5v2H6a2 2 0 0 0-2 2v10a2 2 0 0 0 2 2h12a2 2 0 0 0 2-2V10a2 2 0 0 0-2-2h-1V6a5 5 0 0 0-5-5zm0 2a3 3 0 0 1 3 3v2H9V6a3 3 0 0 1 3-3zm.072 6.885a5 5 0 0 1 5 5 5 5 0 0 1-5 5 5 5 0 0 1-5-5 5 5 0 0 1 5-5zm0 1a4 4 0 0 0-4 4c0 .925.315 1.775.84 2.455l5.615-5.615a4.003 4.003 0 0 0-2.455-.84zm3.16 1.545-5.615 5.615c.68.525 1.53.84 2.455.84a4 4 0 0 0 4-4c0-.925-.315-1.775-.84-2.455z" style="display:inline"/>
</svg>
