<svg xmlns="http://www.w3.org/2000/svg" viewBox="0 0 18 18">
  <path fill="currentColor" stroke-width="0" d="M3 5c-.28 0-.52-.1-.71-.29S2 4.28 2 4s.1-.52.29-.71S2.72 3 3 3h12c.28 0 .52.1.71.29s.29.43.29.71-.1.52-.29.71S15.28 5 15 5H3Zm2-3c-.28 0-.52-.1-.71-.29S4 1.28 4 1s.1-.52.29-.71S4.72 0 5 0h8c.28 0 .52.1.71.29S14 .72 14 1s-.1.52-.29.71S13.28 2 13 2H5ZM3.68 16h10.65H3.68ZM0 6l2 12h14l2-12H0Zm11.71 6.1c-.19.19-.43.29-.71.29H7c-.28 0-.52-.1-.71-.29-.19-.19-.29-.43-.29-.71s.1-.52.29-.71c.19-.19.43-.29.71-.29h4c.28 0 .52.1.71.29.19.19.29.43.29.71s-.1.52-.29.71Z"/>
</svg>
