<?xml version="1.0" encoding="utf-8"?>
<!-- Generator: Adobe Illustrator 26.3.1, SVG Export Plug-In . SVG Version: 6.00 Build 0)  -->
<svg version="1.1" id="Layer_1" xmlns="http://www.w3.org/2000/svg" xmlns:xlink="http://www.w3.org/1999/xlink" x="0px" y="0px"
	 viewBox="0 0 17.3 9.9" style="enable-background:new 0 0 17.3 9.9;" xml:space="preserve">
<g id="Enclosure_Icon_2_cols_3_rows" transform="translate(0 0)">
	<path id="right-ear" d="M17.2,9.9h-2c0,0-0.1-0.1-0.1-0.2V0.2c0-0.1,0-0.2,0.1-0.2h2c0,0,0.1,0.1,0.1,0.2v9.6
		C17.3,9.8,17.3,9.9,17.2,9.9z"/>
	<path id="left-ear" d="M2.1,9.9h-2C0,9.9,0,9.8,0,9.7V0.2C0,0.1,0,0,0.1,0h2c0,0,0.1,0.1,0.1,0.2v9.6C2.2,9.8,2.1,9.9,2.1,9.9z"/>
	<path id="drivetray" d="M8.2,2.8H2.7c-0.1,0-0.2,0-0.2,0V0c0,0,0.1,0,0.2,0h5.5c0.1,0,0.2,0,0.2,0v2.7C8.4,2.8,8.3,2.8,8.2,2.8z"/>
	<path id="drivetray-2" d="M14.5,2.8H9c-0.1,0-0.2,0-0.2,0V0c0,0,0.1,0,0.2,0h5.5c0.1,0,0.2,0,0.2,0v2.7C14.7,2.8,14.6,2.8,14.5,2.8
		z"/>
	<path id="drivetray-3" d="M8.2,6.3H2.7c-0.1,0-0.2,0-0.2,0V3.5c0,0,0.1,0,0.2,0h5.5c0.1,0,0.2,0,0.2,0v2.7C8.4,6.3,8.3,6.3,8.2,6.3
		z"/>
	<path id="drivetray-4" d="M14.5,6.3H9c-0.1,0-0.2,0-0.2,0V3.5c0,0,0.1,0,0.2,0h5.5c0.1,0,0.2,0,0.2,0v2.7
		C14.7,6.3,14.6,6.3,14.5,6.3z"/>
	<path id="drivetray-5" d="M8.2,9.8H2.7c-0.1,0-0.2,0-0.2,0V7c0,0,0.1,0,0.2,0h5.5c0.1,0,0.2,0,0.2,0v2.7C8.4,9.8,8.3,9.8,8.2,9.8z"
		/>
	<path id="drivetray-6" d="M14.5,9.8H9c-0.1,0-0.2,0-0.2,0V7c0,0,0.1,0,0.2,0h5.5c0.1,0,0.2,0,0.2,0v2.7C14.7,9.8,14.6,9.8,14.5,9.8
		z"/>
</g>
</svg>
