<svg xmlns="http://www.w3.org/2000/svg" viewBox="0 0 216 216" style="enable-background:new 0 0 216 216" xml:space="preserve">
  <path class="st0" d="M89.7 129.9H67.3v-21.2H55.1v55.4h12.2v-23.9h22.4v23.9h12.2v-55.4H89.7zm38-21.2-20.9 55.4H119l4.3-12.3H144l4.2 12.3h12.6l-20.7-55.4h-12.4zm-1.2 34 7.2-20.3h.2l7 20.3h-14.4z" style="fill:none"/>
  <path d="m133.8 122.3-7.3 20.4h14.4l-7-20.4z"/>
  <path d="M142 100.5c-4.2 0-8.1-1.6-11.1-4.6-6.1-6.1-6.1-16.1 0-22.2l6-6c-8.4-5.2-18.3-8.2-28.9-8.2-22.2 0-41.3 13.2-50.1 32.1h-2.5c-24 2.5-42.5 22.7-42.5 47.3 0 26.3 21.3 47.6 47.6 47.6h103.1c21.9 0 39.7-17.8 39.7-39.7s-17.8-39.7-39.7-39.7h-.8c-.8-5.6-2.5-11-4.9-16l-4.8 4.8c-3 2.9-6.9 4.6-11.1 4.6zm-40.1 63.6H89.7v-23.9H67.3v23.9H55.1v-55.4h12.2V130h22.4v-21.3h12.2v55.4zm46.4 0-4.2-12.3h-20.7l-4.3 12.3h-12.3l20.9-55.4h12.5l20.7 55.4h-12.6z"/>
  <path d="m167.3 65.8 22.1 22.1c.9.9 2 1.3 3.2 1.3s2.3-.4 3.2-1.3c1.8-1.8 1.8-4.6 0-6.4l-22.1-22.1 22.1-22.1c1.7-1.7 1.7-4.6 0-6.3-.9-.9-2-1.3-3.2-1.3s-2.3.4-3.2 1.3l-22.1 22-22.1-22.1c-.9-.9-2-1.3-3.2-1.3s-2.3.4-3.2 1.3c-1.8 1.8-1.8 4.6 0 6.4l22.1 22.1-22.1 22.1c-1.8 1.8-1.8 4.6 0 6.4.9.9 2 1.3 3.2 1.3s2.3-.4 3.2-1.3l22.1-22.1z"/>
</svg>
