<?xml version="1.0" encoding="utf-8"?>
<!-- Generator: Adobe Illustrator 23.0.2, SVG Export Plug-In . SVG Version: 6.00 Build 0)  -->
<svg version="1.1" id="Layer_1" xmlns="http://www.w3.org/2000/svg" xmlns:xlink="http://www.w3.org/1999/xlink" x="0px" y="0px"
	 viewBox="0 0 216 216" style="enable-background:new 0 0 216 216;" xml:space="preserve">
<style type="text/css">
	.st0{fill:none;}
</style>
<g>
	<polygon class="st0" points="89.7,129.9 67.3,129.9 67.3,108.7 55.1,108.7 55.1,164.1 67.3,164.1 67.3,140.2 89.7,140.2 
		89.7,164.1 101.9,164.1 101.9,108.7 89.7,108.7 	"/>
	<path class="st0" d="M127.7,108.7l-20.9,55.4H119l4.3-12.3H144l4.2,12.3h12.6l-20.7-55.4C140.1,108.7,127.7,108.7,127.7,108.7z
		 M126.5,142.7l7.2-20.3h0.2l7,20.3H126.5z"/>
	<polygon points="133.8,122.3 126.5,142.7 140.9,142.7 133.9,122.3 	"/>
	<path d="M142,100.5c-4.2,0-8.1-1.6-11.1-4.6c-6.1-6.1-6.1-16.1,0-22.2l6-6c-8.4-5.2-18.3-8.2-28.9-8.2c-22.2,0-41.3,13.2-50.1,32.1
		h-2.5c-24,2.5-42.5,22.7-42.5,47.3c0,26.3,21.3,47.6,47.6,47.6h103.1c21.9,0,39.7-17.8,39.7-39.7s-17.8-39.7-39.7-39.7h-0.8
		c-0.8-5.6-2.5-11-4.9-16l-4.8,4.8C150.1,98.8,146.2,100.5,142,100.5z M101.9,164.1H89.7v-23.9H67.3v23.9H55.1v-55.4h12.2V130h22.4
		v-21.3h12.2C101.9,108.7,101.9,164.1,101.9,164.1z M148.3,164.1l-4.2-12.3h-20.7l-4.3,12.3h-12.3l20.9-55.4h12.5l20.7,55.4H148.3z"
		/>
	<path d="M167.3,65.8l22.1,22.1c0.9,0.9,2,1.3,3.2,1.3s2.3-0.4,3.2-1.3c1.8-1.8,1.8-4.6,0-6.4l-22.1-22.1l22.1-22.1
		c1.7-1.7,1.7-4.6,0-6.3c-0.9-0.9-2-1.3-3.2-1.3s-2.3,0.4-3.2,1.3l-22.1,22l-22.1-22.1c-0.9-0.9-2-1.3-3.2-1.3s-2.3,0.4-3.2,1.3
		c-1.8,1.8-1.8,4.6,0,6.4l22.1,22.1l-22.1,22.1c-1.8,1.8-1.8,4.6,0,6.4c0.9,0.9,2,1.3,3.2,1.3s2.3-0.4,3.2-1.3L167.3,65.8z"/>
</g>
</svg>
