<?xml version="1.0" encoding="utf-8"?>
<!-- Generator: Adobe Illustrator 23.0.2, SVG Export Plug-In . SVG Version: 6.00 Build 0)  -->
<svg version="1.1" id="Layer_1" xmlns="http://www.w3.org/2000/svg" xmlns:xlink="http://www.w3.org/1999/xlink" x="0px" y="0px"
	 viewBox="0 0 216 216" style="enable-background:new 0 0 216 216;" xml:space="preserve">
<style type="text/css">
	.st0{fill:none;}
</style>
<g>
	<path class="st0" d="M121.1,109.4l-20.9,55.4h12.3l4.3-12.3h20.7l4.2,12.3h12.6l-20.7-55.4H121.1z M120,143.3l7.2-20.3h0.2l7,20.3
		H120z"/>
	<polygon class="st0" points="83.1,130.6 60.7,130.6 60.7,109.4 48.5,109.4 48.5,164.8 60.7,164.8 60.7,140.9 83.1,140.9 
		83.1,164.8 95.3,164.8 95.3,109.4 83.1,109.4 	"/>
	<polygon points="127.2,123 120,143.3 134.3,143.3 127.3,123 	"/>
	<path d="M151.8,114.1c-2.9,0-5.7-1.1-7.9-3.3l-27-27c-2.1-2.1-3.3-5-3.3-7.9c0-3,1.2-5.8,3.3-7.9l4.2-4.2
		c-6.1-2.4-12.8-3.7-19.8-3.7c-22.2,0-41.3,13.2-50.1,32.1h-2.5c-24,2.5-42.5,22.7-42.5,47.3c0,26.3,21.3,47.6,47.6,47.6H157
		c21.9,0,39.7-17.8,39.7-39.7c0-20.1-15-36.5-34.3-39.1l-2.6,2.6C157.5,113,154.7,114.1,151.8,114.1z M95.3,164.8H83.1v-23.9H60.7
		v23.9H48.5v-55.4h12.2v21.3h22.4v-21.3h12.2V164.8z M141.7,164.8l-4.2-12.3h-20.7l-4.3,12.3h-12.3l20.9-55.4h12.5l20.7,55.4H141.7z
		"/>
	<polygon points="151.8,89.3 131.7,69.1 124.8,75.9 151.8,102.9 209.8,44.9 203,38.1 	"/>
</g>
</svg>
