<svg version="1.1" id="ha_enabled_icon" xmlns="http://www.w3.org/2000/svg" x="0" y="0" viewBox="0 0 216 216" style="enable-background:new 0 0 216 216" xml:space="preserve">
  <style>
    #ha_enabled .st0{fill:none}
  </style>
  <g id="ha_enabled">
    <path class="st0" d="m121.1 109.4-20.9 55.4h12.3l4.3-12.3h20.7l4.2 12.3h12.6l-20.7-55.4h-12.5zm-1.1 33.9 7.2-20.3h.2l7 20.3H120zM83.1 130.6H60.7v-21.2H48.5v55.4h12.2v-23.9h22.4v23.9h12.2v-55.4H83.1z"/>
    <path d="m127.2 123-7.2 20.3h14.3l-7-20.3z"/>
    <path d="M151.8 114.1c-2.9 0-5.7-1.1-7.9-3.3l-27-27c-2.1-2.1-3.3-5-3.3-7.9 0-3 1.2-5.8 3.3-7.9l4.2-4.2c-6.1-2.4-12.8-3.7-19.8-3.7-22.2 0-41.3 13.2-50.1 32.1h-2.5c-24 2.5-42.5 22.7-42.5 47.3 0 26.3 21.3 47.6 47.6 47.6H157c21.9 0 39.7-17.8 39.7-39.7 0-20.1-15-36.5-34.3-39.1l-2.6 2.6c-2.3 2.1-5.1 3.2-8 3.2zm-56.5 50.7H83.1v-23.9H60.7v23.9H48.5v-55.4h12.2v21.3h22.4v-21.3h12.2v55.4zm46.4 0-4.2-12.3h-20.7l-4.3 12.3h-12.3l20.9-55.4h12.5l20.7 55.4h-12.6z"/>
    <path d="m151.8 89.3-20.1-20.2-6.9 6.8 27 27 58-58-6.8-6.8z"/>
  </g>
</svg>
