<svg version="1.1" id="ha_reconnecting_icon" xmlns="http://www.w3.org/2000/svg" x="0" y="0" viewBox="0 0 216 216" style="enable-background:new 0 0 216 216" xml:space="preserve">
    <style>
      #ha_reconnecting .st0{fill:none}
    </style>
    <g id="ha_reconnecting">
      <path class="st0" d="m118.8 108-20.9 55.4h12.3l4.3-12.3h20.7l4.2 12.3H152L131.2 108h-12.4zm-1.2 34 7.2-20.3h.2l7 20.3h-14.4zM80.7 129.2H58.3V108H46.1v55.4h12.2v-23.9h22.4v23.9h12.2V108H80.7z"/>
      <path d="m124.8 121.6-7.2 20.4h14.3l-6.9-20.4z"/>
      <path d="M144.1 110c-5-2-8.7-6.4-9.8-11.7-.5-2.3-.4-4.5.1-6.7-1.8.9-3.9 1.4-6 1.4-3.6 0-7.1-1.4-9.7-4l-13.6-13.6c-4-3.9-5.2-9.7-3.1-14.9.2-.6.6-1 .9-1.6-1.3-.1-2.6-.2-3.9-.2-22.2 0-41.3 13.2-50.1 32.1h-2.5c-24 2.5-42.5 22.7-42.5 47.3 0 26.3 21.3 47.6 47.6 47.6h103.1c21.9 0 39.7-17.8 39.7-39.7 0-14.5-7.9-27-19.5-34-3.9.9-7.8 1.6-12 1.6-6.5.1-12.8-1.2-18.7-3.6zm-51.2 53.4H80.7v-23.9H58.3v23.9H46.1V108h12.2v21.3h22.4V108h12.2v55.4zm46.4 0-4.2-12.3h-20.7l-4.3 12.3H97.8l20.9-55.4h12.5l20.7 55.4h-12.6z"/>
      <path d="M202.2 63.1h8.8c2.2 0 3.3-2.7 1.7-4.2L199 45.2c-.5-.5-1.1-.7-1.7-.7-.6 0-1.2.2-1.7.7l-13.7 13.7c-1.6 1.6-.5 4.2 1.7 4.2h8.8c0 16.3-13.2 29.5-29.5 29.5-3.9 0-7.7-.7-11.1-2.2-.5-.2-1.1-.3-1.7-.3-1.3 0-2.5.5-3.4 1.5-2.5 2.5-1.6 6.7 1.7 8.1 4.5 1.8 9.4 2.8 14.5 2.8 21.7 0 39.3-17.6 39.3-39.4zM143.9 67.3c1.5-1.5.4-4.2-1.8-4.2h-8.8c0-16.3 13.2-29.5 29.5-29.5 3.9 0 7.7.7 11.1 2.2.5.2 1.1.3 1.7.3 1.3 0 2.5-.5 3.4-1.5 2.5-2.5 1.6-6.7-1.7-8.1-4.5-1.8-9.4-2.8-14.5-2.8-21.7 0-39.3 17.6-39.3 39.3h-8.8c-2.2 0-3.3 2.7-1.7 4.2L126.7 81c.5.5 1.1.7 1.7.7.6 0 1.3-.2 1.7-.7l13.8-13.7z"/>
    </g>
</svg>
