<?xml version="1.0" encoding="utf-8"?>
<!-- Generator: Adobe Illustrator 23.0.2, SVG Export Plug-In . SVG Version: 6.00 Build 0)  -->
<svg version="1.1" id="Layer_1" xmlns="http://www.w3.org/2000/svg" xmlns:xlink="http://www.w3.org/1999/xlink" x="0px" y="0px"
	 viewBox="0 0 216 216" style="enable-background:new 0 0 216 216;" xml:space="preserve">
<style type="text/css">
	.st0{fill:none;}
</style>
<g>
	<path class="st0" d="M118.8,108l-20.9,55.4h12.3l4.3-12.3h20.7l4.2,12.3H152L131.2,108H118.8z M117.6,142l7.2-20.3h0.2l7,20.3
		H117.6z"/>
	<polygon class="st0" points="80.7,129.2 58.3,129.2 58.3,108 46.1,108 46.1,163.4 58.3,163.4 58.3,139.5 80.7,139.5 80.7,163.4 
		92.9,163.4 92.9,108 80.7,108 	"/>
	<polygon points="124.8,121.6 117.6,142 131.9,142 125,121.6 	"/>
	<path d="M144.1,110c-5-2-8.7-6.4-9.8-11.7c-0.5-2.3-0.4-4.5,0.1-6.7c-1.8,0.9-3.9,1.4-6,1.4c-3.6,0-7.1-1.4-9.7-4l-13.6-13.6
		c-4-3.9-5.2-9.7-3.1-14.9c0.2-0.6,0.6-1,0.9-1.6c-1.3-0.1-2.6-0.2-3.9-0.2c-22.2,0-41.3,13.2-50.1,32.1h-2.5
		c-24,2.5-42.5,22.7-42.5,47.3c0,26.3,21.3,47.6,47.6,47.6h103.1c21.9,0,39.7-17.8,39.7-39.7c0-14.5-7.9-27-19.5-34
		c-3.9,0.9-7.8,1.6-12,1.6C156.3,113.7,150,112.4,144.1,110z M92.9,163.4H80.7v-23.9H58.3v23.9H46.1V108h12.2v21.3h22.4V108h12.2
		C92.9,108,92.9,163.4,92.9,163.4z M139.3,163.4l-4.2-12.3h-20.7l-4.3,12.3H97.8l20.9-55.4h12.5l20.7,55.4H139.3z"/>
	<path d="M202.2,63.1h8.8c2.2,0,3.3-2.7,1.7-4.2L199,45.2c-0.5-0.5-1.1-0.7-1.7-0.7c-0.6,0-1.2,0.2-1.7,0.7l-13.7,13.7
		c-1.6,1.6-0.5,4.2,1.7,4.2h8.8c0,16.3-13.2,29.5-29.5,29.5c-3.9,0-7.7-0.7-11.1-2.2c-0.5-0.2-1.1-0.3-1.7-0.3
		c-1.3,0-2.5,0.5-3.4,1.5c-2.5,2.5-1.6,6.7,1.7,8.1c4.5,1.8,9.4,2.8,14.5,2.8C184.6,102.5,202.2,84.9,202.2,63.1z"/>
	<path d="M143.9,67.3c1.5-1.5,0.4-4.2-1.8-4.2h-8.8c0-16.3,13.2-29.5,29.5-29.5c3.9,0,7.7,0.7,11.1,2.2c0.5,0.2,1.1,0.3,1.7,0.3
		c1.3,0,2.5-0.5,3.4-1.5c2.5-2.5,1.6-6.7-1.7-8.1c-4.5-1.8-9.4-2.8-14.5-2.8c-21.7,0-39.3,17.6-39.3,39.3h-8.8
		c-2.2,0-3.3,2.7-1.7,4.2L126.7,81c0.5,0.5,1.1,0.7,1.7,0.7c0.6,0,1.3-0.2,1.7-0.7L143.9,67.3z"/>
</g>
</svg>
