<svg xmlns="http://www.w3.org/2000/svg" width="23.999" height="24" viewBox="0 0 23.999 24">
  <path id="iscsi-share" d="M-3527.6,3184.5h-4.8a1.2,1.2,0,0,1-1.2-1.2h-8.4v-2.4h8.4a1.2,1.2,0,0,1,1.2-1.2h1.2v-2.4h-7.2a2.4,2.4,0,0,1-2.4-2.4v-12a2.4,2.4,0,0,1,2.4-2.4h7.2l2.4,2.4h7.2a2.4,2.4,0,0,1,2.4,2.4v9.6a2.4,2.4,0,0,1-2.4,2.4h-7.2v2.4h1.2a1.2,1.2,0,0,1,1.2,1.2h8.4v2.4h-8.4A1.2,1.2,0,0,1-3527.6,3184.5Zm.463-12.445h0l-.1.8.324.063a8.921,8.921,0,0,0,1.692.18,2.228,2.228,0,0,0,1.508-.481,1.833,1.833,0,0,0,.553-1.454,1.483,1.483,0,0,0-.378-1.121,3.2,3.2,0,0,0-1.3-.612,5.2,5.2,0,0,1-1.193-.432.652.652,0,0,1-.27-.589c0-.531.385-.8,1.143-.8.345,0,.928.047,1.782.144l.081-.81-.315-.054a9.9,9.9,0,0,0-1.638-.162,2.392,2.392,0,0,0-1.508.427,1.518,1.518,0,0,0-.544,1.264,1.571,1.571,0,0,0,.432,1.224,3.088,3.088,0,0,0,1.314.607,3.853,3.853,0,0,1,1.134.405.664.664,0,0,1,.252.572c0,.657-.375.99-1.116.99a15.275,15.275,0,0,1-1.854-.162Zm-2.655-5.319a2.056,2.056,0,0,0-1.827.724,4.573,4.573,0,0,0-.486,2.435,4.731,4.731,0,0,0,.482,2.457,2.025,2.025,0,0,0,1.831.747,8.441,8.441,0,0,0,1.755-.2l-.027-.828a10.21,10.21,0,0,1-1.638.135,1.155,1.155,0,0,1-1.089-.481,4.013,4.013,0,0,1-.279-1.809,3.906,3.906,0,0,1,.288-1.809,1.178,1.178,0,0,1,1.1-.482,9.358,9.358,0,0,1,1.62.144l.036-.81A7.881,7.881,0,0,0-3529.793,3166.736Zm-7.128,5.319h0l-.1.8.324.063a8.921,8.921,0,0,0,1.692.18,2.229,2.229,0,0,0,1.508-.481,1.833,1.833,0,0,0,.553-1.454,1.483,1.483,0,0,0-.378-1.121,3.2,3.2,0,0,0-1.3-.612,5.2,5.2,0,0,1-1.193-.432.652.652,0,0,1-.27-.589c0-.531.385-.8,1.143-.8.347,0,.929.047,1.782.144l.081-.81-.315-.054a9.9,9.9,0,0,0-1.638-.162,2.391,2.391,0,0,0-1.507.427,1.516,1.516,0,0,0-.545,1.264,1.571,1.571,0,0,0,.432,1.224,3.088,3.088,0,0,0,1.314.607,3.841,3.841,0,0,1,1.134.405.664.664,0,0,1,.252.572c0,.657-.375.99-1.116.99a15.275,15.275,0,0,1-1.854-.162Zm14.841-5.22V3173h1v-6.165Zm-16.956,1.665v4.5h.981v-4.5Zm0-1.8v1.035h.981V3166.7Z" transform="translate(3542 -3160.5)"/>
</svg>
