<svg xmlns="http://www.w3.org/2000/svg" width="24" height="24" viewBox="0 0 24 24">
    <path d="M15.408 21h-9.908c-3.037 0-5.5-2.463-5.5-5.5 0-2.702 1.951-4.945 4.521-5.408.212-3.951 3.473-7.092 7.479-7.092 3.267 0 6.037 2.089 7.063 5.003l-.063-.003c-.681 0-1.336.102-1.958.283-.878-2.025-2.73-3.283-5.042-3.283-3.359 0-5.734 2.562-5.567 6.78-1.954-.113-4.433.923-4.433 3.72 0 1.93 1.57 3.5 3.5 3.5h7.76c.566.81 1.3 1.49 2.148 2zm2.257-8.669c.402-.206.852-.331 1.335-.331 1.455 0 2.67 1.042 2.941 2.418l1.96-.398c-.456-2.291-2.475-4.02-4.901-4.02-.957 0-1.845.278-2.604.745l-1.396-1.745-1 5h5l-1.335-1.669zm5.335 8.669l-1.396-1.745c-.759.467-1.647.745-2.604.745-2.426 0-4.445-1.729-4.901-4.02l1.96-.398c.271 1.376 1.486 2.418 2.941 2.418.483 0 .933-.125 1.335-.331l-1.335-1.669h5l-1 5z" />
</svg>