<svg aria-labelledby="ix-hdd" role="img" viewBox="126.7 15 49 59">
    <path d="M 132.044 15.622 L 170.029 15.622 C 172.54 15.622 174.575 17.657 174.575 20.168 L 174.575 68.68 C 174.575 71.191 172.54 73.226 170.029 73.226 L 132.044 73.226 C 129.533 73.226 127.498 71.191 127.498 68.68 L 127.498 20.168 C 127.498 17.657 129.533 15.622 132.044 15.622 Z M 151.222 22.442 C 141.706 22.442 133.992 30.156 133.992 39.672 C 133.992 49.188 141.706 56.902 151.222 56.902 C 151.48 56.902 151.738 56.896 151.993 56.885 L 148.761 50.002 L 154.855 45.627 L 160.994 53.865 C 165.499 50.757 168.452 45.559 168.452 39.672 C 168.452 30.156 160.738 22.442 151.222 22.442 Z M 135.214 61.491 C 133.286 61.491 131.723 63.054 131.723 64.982 C 131.723 66.91 133.286 68.473 135.214 68.473 C 137.142 68.473 138.705 66.91 138.705 64.982 C 138.705 63.054 137.142 61.491 135.214 61.491 Z M 154.356 39.672 C 154.356 41.403 152.953 42.806 151.222 42.806 C 149.491 42.806 148.088 41.403 148.088 39.672 C 148.088 37.941 149.491 36.538 151.222 36.538 C 152.953 36.538 154.356 37.941 154.356 39.672 Z M 159.114 67.343 L 165.711 63.54 L 154.425 48.397 L 151.279 50.656 L 159.114 67.343 Z" style="fill: rgb(205, 205, 205);"></path>
</svg>
