<?xml version="1.0" encoding="UTF-8" standalone="no"?>

<svg
   xmlns:dc="http://purl.org/dc/elements/1.1/"
   xmlns:cc="http://creativecommons.org/ns#"
   xmlns:rdf="http://www.w3.org/1999/02/22-rdf-syntax-ns#"
   xmlns:svg="http://www.w3.org/2000/svg"
   xmlns="http://www.w3.org/2000/svg"
   xmlns:sodipodi="http://sodipodi.sourceforge.net/DTD/sodipodi-0.dtd"
   xmlns:inkscape="http://www.inkscape.org/namespaces/inkscape"
   width="376.44351"
   height="142.61826"
   viewBox="0 0 99.600603 37.734386"
   version="1.1"
   id="svg1015"
   inkscape:version="0.92.4 (5da689c313, 2019-01-14)"
   sodipodi:docname="ix_full_logo_rgb.svg">
  <defs
     id="defs1009" />
  <sodipodi:namedview
     id="base"
     pagecolor="#ffffff"
     bordercolor="#666666"
     borderopacity="1.0"
     inkscape:pageopacity="0.0"
     inkscape:pageshadow="2"
     inkscape:zoom="0.7"
     inkscape:cx="15.216869"
     inkscape:cy="-57.943965"
     inkscape:document-units="mm"
     inkscape:current-layer="layer1"
     showgrid="false"
     fit-margin-top="0"
     fit-margin-left="0"
     fit-margin-right="0"
     fit-margin-bottom="0"
     units="px"
     inkscape:window-width="1920"
     inkscape:window-height="1029"
     inkscape:window-x="-8"
     inkscape:window-y="-8"
     inkscape:window-maximized="1" />
  <metadata
     id="metadata1012">
    <rdf:RDF>
      <cc:Work
         rdf:about="">
        <dc:format>image/svg+xml</dc:format>
        <dc:type
           rdf:resource="http://purl.org/dc/dcmitype/StillImage" />
        <dc:title></dc:title>
      </cc:Work>
    </rdf:RDF>
  </metadata>
  <g
     inkscape:label="Layer 1"
     inkscape:groupmode="layer"
     id="layer1"
     transform="translate(-18.386563,-122.596)">
    <g
       id="invert-rgb"
       transform="matrix(0.26458333,0,0,0.26458333,24.207402,131.31822)">
      <path
         style="fill:#ffffff"
         d="m 122.3836,43.6594 -9.3145,-2.4306 a 5.158,5.158 0 0 1 -3.7661,-5.1182 5.2263,5.2263 0 0 1 4.938,-5.2866 l 13.1352,-0.0044 v -3.3315 h -13.1308 a 8.7155,8.7155 0 0 0 -8.9663,8.6225 c 0,3.9951 2.7749,7.3086 7.07,8.4317 l 9.0385,2.2949 a 5.1587,5.1587 0 0 1 4.0464,5.2588 5.2219,5.2219 0 0 1 -4.9336,5.2822 h -14.529 v 3.3359 h 14.5245 a 8.7089,8.7089 0 0 0 8.9624,-8.623 c 0.005,-3.9411 -2.8383,-7.332 -7.0747,-8.4317 z"
         id="fullLogo"
         inkscape:connector-curvature="0" />
      <path
         style="fill:#ffffff"
         d="m 183.5671,43.6634 -9.3193,-2.44 a 5.145,5.145 0 0 1 -3.7666,-5.1157 5.2229,5.2229 0 0 1 4.9385,-5.2866 l 13.1328,-0.002 V 27.4925 H 175.42 a 8.7071,8.7071 0 0 0 -8.9644,8.6157 c 0,3.9975 2.772,7.3071 7.0689,8.4341 l 9.0361,2.289 a 5.3641,5.3641 0 0 1 -0.8848,10.5469 H 167.15 V 60.71 h 14.5234 a 8.7093,8.7093 0 0 0 8.9658,-8.6142 c 2e-4,-3.951 -2.8426,-7.3367 -7.0721,-8.4324 z"
         data-name="fullLogo"
         id="fullLogo-2"
         inkscape:connector-curvature="0" />
      <path
         style="fill:#ffffff"
         d="M 202.0212,27.4925 V 12.1077 l -4.0292,1.2808 v 38.7749 a 8.6888,8.6888 0 0 0 8.9638,8.5507 h 3.4042 v -3.3359 h -3.4043 a 5.098,5.098 0 0 1 -4.9346,-5.2148 V 30.82 h 8.3389 v -3.3275 h -8.3389 z"
         data-name="fullLogo"
         id="fullLogo-3"
         inkscape:connector-curvature="0" />
      <path
         style="fill:#ffffff"
         d="m 221.9607,47.81 0.168,-0.041 13.0068,-3.164 a 9.1186,9.1186 0 0 0 6.9834,-8.4942 8.7085,8.7085 0 0 0 -8.9619,-8.6181 h -6.2559 a 8.7088,8.7088 0 0 0 -8.9658,8.6181 v 11.9529 a 12.49,12.49 0 0 0 12.5772,12.65 h 10.2168 v -3.3355 h -10.2168 a 8.5983,8.5983 0 0 1 -8.5518,-8.623 z m 0,-3.8476 v -7.8518 a 5.1565,5.1565 0 0 1 4.9385,-5.291 l 6.2578,0.0044 a 5.2182,5.2182 0 0 1 4.9326,5.2842 4.9835,4.9835 0 0 1 -3.8535,5.1206 l -11.3261,2.7832 -0.6777,0.167 -0.2715,0.0644 z"
         data-name="fullLogo"
         id="fullLogo-4"
         inkscape:connector-curvature="0" />
      <path
         style="fill:#ffffff"
         d="m 314.0906,43.6634 -9.3174,-2.44 A 5.1431,5.1431 0 0 1 301.0076,36.1077 5.2155,5.2155 0 0 1 305.94,30.824 L 319.073,30.82 V 27.4905 H 305.94 a 8.7063,8.7063 0 0 0 -8.9609,8.6177 c 0,3.9927 2.7724,7.3071 7.0673,8.4341 l 9.044,2.289 a 5.3647,5.3647 0 0 1 -0.8877,10.5469 H 297.6716 V 60.71 h 14.5274 a 8.7062,8.7062 0 0 0 8.961,-8.614 c 0.002,-3.946 -2.837,-7.3369 -7.0694,-8.4326 z"
         data-name="fullLogo"
         id="fullLogo-5"
         inkscape:connector-curvature="0" />
      <path
         style="fill:#ffffff"
         d="m 155.0134,27.4925 h -0.0449 v 24.87 c 0,4.21 -4.3818,5.11 -6.9165,5.1191 -2.5366,-0.0088 -6.9209,-0.9092 -6.9209,-5.1191 v -24.87 h -4.0239 l -0.004,24.6035 c 0,7.1474 6.0972,9.0576 10.9175,9.0752 v 0.0049 c 0.009,0 0.018,-0.0049 0.0317,-0.0049 h 0.0274 a 14.03,14.03 0 0 0 6.934,-1.6739 v 5.2041 a 8.6268,8.6268 0 0 1 -8.6181,8.6182 h -7.3687 v 3.332 h 7.2285 A 12.6485,12.6485 0 0 0 159.0418,64.2122 V 27.4451 h -4.0284 z"
         data-name="fullLogo"
         id="fullLogo-6"
         inkscape:connector-curvature="0" />
      <path
         style="fill:#ffffff"
         d="m 278.5007,27.1761 v -0.003 c -0.01,0 -0.0185,0.003 -0.0312,0.003 h -0.0283 c -3.1455,0.0107 -6.8272,0.8413 -9.0117,3.3989 -2.1807,-2.5576 -5.8633,-3.3882 -9.0118,-3.3989 v -0.003 c -0.009,0 -0.0175,0.003 -0.0263,0.003 h -0.0323 a 14.104,14.104 0 0 0 -6.8711,1.6386 v -2.8271 l -4.0273,1.2812 -0.0146,33.586 h 4.0263 L 253.488,35.866 c 0.0909,-4.0962 4.3907,-4.9922 6.9034,-4.9971 2.5341,0.0049 6.915,0.91 6.915,5.1148 v 24.8711 h 4.2461 V 35.9837 c 0,-4.2046 4.3818,-5.11 6.917,-5.1148 2.5381,0.0049 6.92,0.91 6.92,5.1148 v 24.8711 h 4.0235 l 0.005,-24.6016 c -1e-4,-7.147 -6.0967,-9.0591 -10.9171,-9.0771 z"
         data-name="fullLogo"
         id="fullLogo-7"
         inkscape:connector-curvature="0" />
      <g
         id="logoMark">
        <path
           style="fill:#0096d6"
           d="m 57.7805,42.3333 -1.1133,2.19 L 43.0164,71.36 A 82.4847,82.4847 0 0 0 62.927,64.8919 c 1.729,-0.8145 3.3765,-1.7071 5.0059,-2.6075 L 58.8962,44.5237 Z"
           data-name="logoMark &lt;PathItem&gt;"
           id="logoMark_PathItem_"
           inkscape:connector-curvature="0" />
        <path
           style="fill:#0096d6"
           d="M 57.783,27.0716 58.8962,24.8855 71.5452,0.1043 A 69.5054,69.5054 0 0 0 45.9,3.7844 l 10.7672,21.1011 z"
           data-name="logoMark &lt;PathItem&gt;"
           id="logoMark_PathItem_2"
           inkscape:connector-curvature="0" />
        <path
           style="fill:#0096d6"
           d="M 53.698,34.83 53.4041,34.2572 39.0647,6.35 C 38.033,6.7821 37.0007,7.21 35.9729,7.6947 9.6985,20.074 -5.5593,42.9173 1.8865,58.7132 6.5618,68.64 19.12,73.3645 34.31,72.4739 L 53.4041,35.4021 Z M 31.2254,61.8645 H 24.8865 V 28.5584 h 6.3389 z M 28.0759,22.9988 a 3.2488,3.2488 0 0 1 -3.2509,-3.248 l 9e-4,-0.0083 10e-4,-0.0074 -0.0019,-0.0171 9e-4,-0.0078 -9e-4,-0.0073 a 3.1992,3.1992 0 0 1 3.2026,-3.2 l 0.0078,0.001 0.0078,-0.001 0.0171,0.0015 0.0073,-5e-4 0.0083,-0.001 a 3.2481,3.2481 0 0 1 0,6.4961 z"
           data-name="logoMark &lt;CompoundPathItem&gt;"
           id="logoMark_CompoundPathItem_"
           inkscape:connector-curvature="0" />
        <path
           style="fill:#0096d6"
           d="m 79.1492,1.1863 -16.9824,33.0708 -0.29,0.57 0.294,0.5747 11.92,23.148 C 93.2885,45.6998 103.3261,27.2685 97.0141,13.8774 93.95,7.3777 87.4861,3.1253 79.1492,1.1863 Z"
           data-name="logoMark &lt;PathItem&gt;"
           id="logoMark_PathItem_3"
           inkscape:connector-curvature="0" />
        <path
           style="fill:#ffffff"
           d="m 61.8772,34.8274 0.29,-0.57 16.982,-33.0711 C 78.76,1.0955 78.3909,0.9822 77.9949,0.9031 A 46.3539,46.3539 0 0 0 72.8123,0.177 C 72.3962,0.14 71.9661,0.1311 71.5452,0.1043 L 58.8962,24.8855 57.783,27.0716 56.6672,24.8855 45.9,3.7844 C 45.5284,3.9065 45.1573,4.01 44.7838,4.1399 Q 42.4584,4.9368 40.1309,5.8865 C 39.7755,6.0335 39.42,6.2014 39.065,6.3504 L 53.4041,34.2571 53.698,34.8299 53.4041,35.4021 34.31,72.4739 c 0.45,-0.0273 0.8921,-0.041 1.3467,-0.0781 q 2.8989,-0.23 5.9116,-0.7373 c 0.4771,-0.0811 0.9683,-0.208 1.4483,-0.2989 l 13.6506,-26.8359 1.1133,-2.19 1.1157,2.19 9.0367,17.7607 c 0.3349,-0.1855 0.6972,-0.3476 1.0273,-0.539 q 2.15,-1.2217 4.169,-2.5332 c 0.3305,-0.2129 0.6362,-0.4444 0.9619,-0.6621 l -11.92,-23.148 z"
           data-name="logoMark &lt;PathItem&gt;"
           id="logoMark_PathItem_4"
           inkscape:connector-curvature="0" />
        <polygon
           style="fill:#ffffff"
           points="31.225,61.864 31.225,28.558 24.887,28.558 24.887,61.864 26.047,61.864 "
           data-name="logoMark &lt;PathItem&gt;"
           id="logoMark_PathItem_5" />
        <path
           style="fill:#ffffff"
           d="m 28.1,16.4446 -0.0088,10e-4 -0.0074,5e-4 a 3.3256,3.3256 0 0 0 -3.3149,3.312 l -10e-4,0.0078 -9e-4,0.0088 a 3.3308,3.3308 0 1 0 3.333,-3.33 z"
           data-name="logoMark &lt;PathItem&gt;"
           id="logoMark_PathItem_6"
           inkscape:connector-curvature="0" />
      </g>
      <polygon
         style="fill:#ffffff"
         points="323.88,28.134 323.88,33.008 324.612,33.008 324.612,28.134 326.44,28.134 326.44,27.481 322.058,27.481 322.058,28.134 "
         data-name="fullLogo"
         id="fullLogo-8" />
      <path
         style="fill:#ffffff"
         d="m 331.4587,27.4807 -1.3232,3.8462 c -0.1348,0.3892 -0.2305,0.6846 -0.2939,0.8858 q -0.0836,-0.2718 -0.2627,-0.8179 l -1.3106,-3.9141 h -1.1006 v 5.5274 h 0.7051 V 28.302 l 1.6,4.7061 h 0.6592 l 1.6064,-4.6255 v 4.6255 h 0.7051 v -5.5274 z"
         data-name="fullLogo"
         id="fullLogo-9"
         inkscape:connector-curvature="0" />
    </g>
  </g>
</svg>
