<?xml version="1.0" encoding="UTF-8"?>
<svg xmlns="http://www.w3.org/2000/svg" xmlns:xlink="http://www.w3.org/1999/xlink" width="27pt" height="22pt" viewBox="0 0 27 22" version="1.1">
<g id="surface1">
<path d="M 0.609375 0 L 26.390625 0 C 26.722656 0 26.988281 0.273438 26.988281 0.613281 L 26.988281 1.257812 C 26.988281 1.597656 26.722656 1.871094 26.390625 1.871094 L 0.609375 1.871094 C 0.277344 1.871094 0.0117188 1.597656 0.0117188 1.257812 L 0.0117188 0.613281 C 0.0117188 0.273438 0.277344 0 0.609375 0 Z M 0.609375 0 "/>
<path d="M 0.609375 20.128906 L 26.390625 20.128906 C 26.722656 20.128906 26.988281 20.402344 26.988281 20.742188 L 26.988281 21.386719 C 26.988281 21.726562 26.722656 22 26.390625 22 L 0.609375 22 C 0.277344 22 0.0117188 21.726562 0.0117188 21.386719 L 0.0117188 20.742188 C 0.0117188 20.402344 0.277344 20.128906 0.609375 20.128906 Z M 0.609375 20.128906 "/>
<path d="M 1.703125 2.335938 L 4.03125 2.335938 L 4.03125 19.582031 L 1.703125 19.582031 Z M 1.703125 2.335938 "/>
<path d="M 22.949219 2.335938 L 25.277344 2.335938 L 25.277344 19.582031 L 22.949219 19.582031 Z M 22.949219 2.335938 "/>
<path d="M 9.355469 4.492188 L 9.355469 2.335938 L 7.03125 2.335938 L 7.03125 6.855469 C 7.632812 5.90625 8.425781 5.101562 9.355469 4.492188 Z M 9.355469 4.492188 "/>
<path d="M 7.03125 15.398438 L 7.03125 19.582031 L 9.355469 19.582031 L 9.355469 17.757812 C 8.425781 17.152344 7.632812 16.347656 7.03125 15.398438 Z M 7.03125 15.398438 "/>
<path d="M 12.328125 18.894531 L 12.328125 19.585938 L 14.65625 19.585938 L 14.65625 18.886719 C 14.261719 18.949219 13.863281 18.980469 13.464844 18.980469 C 13.082031 18.980469 12.703125 18.953125 12.328125 18.894531 Z M 12.328125 18.894531 "/>
<path d="M 14.65625 3.363281 L 14.65625 2.335938 L 12.328125 2.335938 L 12.328125 3.355469 C 12.703125 3.300781 13.082031 3.269531 13.464844 3.269531 C 13.863281 3.269531 14.261719 3.300781 14.65625 3.363281 Z M 14.65625 3.363281 "/>
<path d="M 19.949219 6.9375 L 19.949219 2.335938 L 17.621094 2.335938 L 17.621094 4.527344 C 18.558594 5.148438 19.355469 5.96875 19.949219 6.9375 Z M 19.949219 6.9375 "/>
<path d="M 17.621094 17.726562 L 17.621094 19.582031 L 19.949219 19.582031 L 19.949219 15.3125 C 19.355469 16.28125 18.558594 17.101562 17.621094 17.726562 Z M 17.621094 17.726562 "/>
<path d="M 13.464844 3.988281 C 17.3125 3.988281 20.429688 7.183594 20.429688 11.125 C 20.429688 15.066406 17.3125 18.261719 13.464844 18.261719 C 9.613281 18.261719 6.496094 15.066406 6.496094 11.125 C 6.5 7.1875 9.617188 3.992188 13.464844 3.988281 M 13.464844 3.269531 C 9.226562 3.269531 5.792969 6.789062 5.792969 11.125 C 5.792969 15.464844 9.230469 18.980469 13.464844 18.980469 C 17.699219 18.980469 21.132812 15.464844 21.132812 11.125 C 21.132812 6.785156 17.699219 3.269531 13.464844 3.269531 Z M 13.464844 3.269531 "/>
<path d="M 17.953125 6.96875 C 18.4375 7.46875 17.09375 9.644531 16.863281 9.878906 C 16.636719 10.113281 16.0625 9.898438 15.578125 9.398438 C 15.097656 8.902344 14.890625 8.3125 15.109375 8.082031 C 15.332031 7.855469 17.464844 6.46875 17.953125 6.96875 Z M 17.953125 6.96875 "/>
<path d="M 11.160156 7.496094 C 10.417969 7.066406 9.367188 6.585938 9.03125 6.929688 C 8.695312 7.277344 9.175781 8.378906 9.597656 9.140625 C 9.976562 8.46875 10.511719 7.902344 11.160156 7.496094 Z M 11.160156 7.496094 "/>
<path d="M 17.214844 9.707031 C 17.277344 9.941406 17.265625 10.136719 17.160156 10.253906 C 16.902344 10.519531 16.203125 10.238281 15.574219 9.628906 C 15.53125 9.585938 15.484375 9.546875 15.441406 9.503906 C 15.234375 9.296875 15.0625 9.058594 14.925781 8.796875 C 14.703125 8.386719 14.648438 8.035156 14.816406 7.871094 C 14.90625 7.78125 15.050781 7.757812 15.230469 7.789062 C 15.34375 7.714844 15.484375 7.628906 15.632812 7.542969 C 14.269531 6.8125 12.636719 6.867188 11.324219 7.683594 C 10.011719 8.496094 9.207031 9.953125 9.207031 11.527344 C 9.207031 13.414062 10.355469 15.101562 12.082031 15.753906 C 13.8125 16.402344 15.753906 15.882812 16.949219 14.445312 C 18.144531 13.011719 18.335938 10.964844 17.433594 9.320312 C 17.355469 9.460938 17.277344 9.589844 17.214844 9.707031 Z M 17.214844 9.707031 "/>
</g>
</svg>
