<?xml version="1.0" encoding="UTF-8" standalone="no"?>
<svg
   xmlns:dc="http://purl.org/dc/elements/1.1/"
   xmlns:cc="http://creativecommons.org/ns#"
   xmlns:rdf="http://www.w3.org/1999/02/22-rdf-syntax-ns#"
   xmlns:svg="http://www.w3.org/2000/svg"
   xmlns="http://www.w3.org/2000/svg"
   xmlns:sodipodi="http://sodipodi.sourceforge.net/DTD/sodipodi-0.dtd"
   xmlns:inkscape="http://www.inkscape.org/namespaces/inkscape"
   version="1.1"
   width="24"
   height="24"
   viewBox="0 0 24 24"
   id="svg4"
   sodipodi:docname="multipath.svg"
   inkscape:version="0.92.4 (5da689c313, 2019-01-14)">
  <metadata
     id="metadata10">
    <rdf:RDF>
      <cc:Work
         rdf:about="">
        <dc:format>image/svg+xml</dc:format>
        <dc:type
           rdf:resource="http://purl.org/dc/dcmitype/StillImage" />
        <dc:title></dc:title>
      </cc:Work>
    </rdf:RDF>
  </metadata>
  <defs
     id="defs8" />
  <sodipodi:namedview
     pagecolor="#ffffff"
     bordercolor="#666666"
     borderopacity="1"
     objecttolerance="10"
     gridtolerance="10"
     guidetolerance="10"
     inkscape:pageopacity="0"
     inkscape:pageshadow="2"
     inkscape:window-width="1920"
     inkscape:window-height="1023"
     id="namedview6"
     showgrid="false"
     inkscape:zoom="9.8333333"
     inkscape:cx="12"
     inkscape:cy="12"
     inkscape:window-x="0"
     inkscape:window-y="28"
     inkscape:window-maximized="1"
     inkscape:current-layer="g4012" />
  <g
     inkscape:label="circle"
     id="g4012"
     inkscape:groupmode="layer">
    <path
       d="M 12 2.4003906 A 9.6000004 9.6000004 0 0 0 2.4003906 12 A 9.6000004 9.6000004 0 0 0 12 21.599609 A 9.6000004 9.6000004 0 0 0 21.599609 12 A 9.6000004 9.6000004 0 0 0 12 2.4003906 z M 12.019531 4.4121094 L 15.746094 8.140625 L 12.847656 8.140625 L 12.847656 13.451172 L 7.8769531 18.421875 L 6.7089844 17.253906 L 11.189453 12.771484 L 11.189453 8.140625 L 8.2910156 8.140625 L 12.019531 4.4121094 z M 14.503906 14.427734 L 17.328125 17.253906 L 16.160156 18.421875 L 13.335938 15.595703 L 14.503906 14.427734 z "
       id="circle4010" />
  </g>
  <g
     style="display:inline"
     inkscape:label="merge copy"
     id="g4008"
     inkscape:groupmode="layer" />
</svg>
