<svg xmlns="http://www.w3.org/2000/svg" width="23.999" height="24" viewBox="0 0 23.999 24">
  <path id="nfs-share" d="M-3527.6,3184.5h-4.8a1.2,1.2,0,0,1-1.2-1.2h-8.4v-2.4h8.4a1.2,1.2,0,0,1,1.2-1.2h1.2v-2.4h-7.2a2.4,2.4,0,0,1-2.4-2.4v-12a2.4,2.4,0,0,1,2.4-2.4h7.2l2.4,2.4h7.2a2.4,2.4,0,0,1,2.4,2.4v9.6a2.4,2.4,0,0,1-2.4,2.4h-7.2v2.4h1.2a1.2,1.2,0,0,1,1.2,1.2h8.4v2.4h-8.4A1.2,1.2,0,0,1-3527.6,3184.5Zm1.147-12.445h0l-.1.8.324.063a8.913,8.913,0,0,0,1.692.18,2.229,2.229,0,0,0,1.508-.481,1.833,1.833,0,0,0,.553-1.454,1.482,1.482,0,0,0-.378-1.121,3.2,3.2,0,0,0-1.3-.612,5.2,5.2,0,0,1-1.193-.432.652.652,0,0,1-.27-.589c0-.531.385-.8,1.143-.8.346,0,.929.047,1.782.144l.081-.81-.315-.054a9.9,9.9,0,0,0-1.638-.162,2.391,2.391,0,0,0-1.507.427,1.516,1.516,0,0,0-.545,1.264,1.571,1.571,0,0,0,.432,1.224,3.091,3.091,0,0,0,1.314.607,3.859,3.859,0,0,1,1.134.405.666.666,0,0,1,.252.572c0,.657-.375.99-1.116.99a15.275,15.275,0,0,1-1.854-.162Zm-4.554-5.22V3173h1v-2.34h2.349v-.873h-2.349v-2.079h2.826v-.873Zm-6.174,0V3173h1v-5.291h.126l1.917,5.292h1.71v-6.165h-1v5.283h-.135l-1.872-5.283Z" transform="translate(3542 -3160.5)"/>
</svg>
