<svg xmlns="http://www.w3.org/2000/svg" width="13.937" height="14" viewBox="0 0 13.937 14">
  <path id="openzfs" d="M11.241,1.988a.368.368,0,0,1-.524,0,.374.374,0,0,1,0-.527.369.369,0,0,1,.524,0,.373.373,0,0,1,0,.527M11.159,12.4a.648.648,0,1,1,0-.918.644.644,0,0,1,0,.918M9,11.15a.648.648,0,1,1,.915,0,.65.65,0,0,1-.915,0M8.664,12.4a.648.648,0,1,1,0-.918.644.644,0,0,1,0,.918M6.5,11.15a.648.648,0,1,1,.915,0,.65.65,0,0,1-.915,0M6.168,12.4a.648.648,0,1,1,0-.918.643.643,0,0,1,0,.918M4,11.15a.65.65,0,0,1,0-.918.648.648,0,1,1,0,.918M3.672,12.4a.644.644,0,0,1-.915,0,.648.648,0,1,1,.915,0m-1-10.9a.369.369,0,0,1,.525,0,.374.374,0,0,1,0,.527.369.369,0,0,1-.525,0,.374.374,0,0,1,0-.527m.805.809a.37.37,0,0,1,.525,0,.375.375,0,0,1,0,.528.37.37,0,0,1-.525,0,.374.374,0,0,1,0-.528m.805.809a.369.369,0,0,1,.525,0,.373.373,0,0,1,0,.527.369.369,0,0,1-.524,0,.373.373,0,0,1,0-.527m0-1.617a.368.368,0,0,1,.524,0,.373.373,0,0,1,0,.527.369.369,0,0,1-.524,0,.373.373,0,0,1,0-.527m.805,2.426a.37.37,0,0,1,.525,0,.372.372,0,1,1-.525,0m0-1.617a.37.37,0,0,1,.524,0,.374.374,0,0,1,0,.528.37.37,0,0,1-.525,0,.375.375,0,0,1,0-.528M5.9,1.508a.369.369,0,0,1,.525,0,.374.374,0,0,1,0,.527.37.37,0,0,1-.525,0,.374.374,0,0,1,0-.527M6.7,3.934a.37.37,0,0,1,.525,0,.375.375,0,0,1,0,.528.371.371,0,0,1-.525,0,.374.374,0,0,1,0-.528m0-1.617a.372.372,0,1,1,0,.528.375.375,0,0,1,0-.528m.805-.809a.369.369,0,0,1,.525,0,.374.374,0,0,1,0,.527.37.37,0,0,1-.525,0,.374.374,0,0,1,0-.527m.248,7.469a.648.648,0,1,1,0,.918.644.644,0,0,1,0-.918M8.033,5.25a.37.37,0,0,1-.525,0,.375.375,0,0,1,0-.528.37.37,0,0,1,.525,0,.374.374,0,0,1,0,.527m0-1.617a.369.369,0,0,1-.525,0,.374.374,0,0,1,0-.527.369.369,0,0,1,.525,0,.374.374,0,0,1,0,.527M6.7,5.531a.371.371,0,0,1,.525,0,.375.375,0,0,1,0,.528.37.37,0,0,1-.525,0,.375.375,0,0,1,0-.528m-.2,2.193a.648.648,0,1,1,0,.919.644.644,0,0,1,0-.919M6.173,8.978a.648.648,0,1,1-.915,0,.65.65,0,0,1,.915,0M5.9,3.1a.369.369,0,0,1,.525,0,.374.374,0,0,1,0,.527.369.369,0,0,1-.525,0,.374.374,0,0,1,0-.527m0,1.617a.37.37,0,0,1,.525,0,.376.376,0,0,1,0,.528.37.37,0,0,1-.525,0,.374.374,0,0,1,0-.527m2.416-.809a.37.37,0,0,1,.525,0,.375.375,0,0,1,0,.528.371.371,0,0,1-.525,0,.375.375,0,0,1,0-.528m0-1.617a.371.371,0,0,1,.525,0,.375.375,0,0,1,0,.528.37.37,0,0,1-.525,0,.375.375,0,0,1,0-.528m.805.809a.369.369,0,0,1,.525,0,.374.374,0,0,1,0,.527.369.369,0,0,1-.525,0,.374.374,0,0,1,0-.527m0-1.617a.369.369,0,0,1,.525,0,.374.374,0,0,1,0,.527.369.369,0,0,1-.525,0,.374.374,0,0,1,0-.527m.805.809a.37.37,0,0,1,.525,0,.375.375,0,0,1,0,.528.369.369,0,0,1-.525,0,.375.375,0,0,1,0-.528M13.937,1.07A1.067,1.067,0,0,0,12.872,0H1.065A1.067,1.067,0,0,0,0,1.07V5.14H1.583L0,8.861v4.071A1.067,1.067,0,0,0,1.065,14H12.872a1.067,1.067,0,0,0,1.065-1.069V8.861H12.353L13.937,5.14Z" transform="translate(0 -0.001)"/>
</svg>
