<svg xmlns="http://www.w3.org/2000/svg" width="12" height="12" viewBox="0 0 12 12">
  <path id="quota-fill" d="M-3536,3172.5a6.006,6.006,0,0,1-6-6,6.006,6.006,0,0,1,6-6,6.007,6.007,0,0,1,6,6A6.007,6.007,0,0,1-3536,3172.5Zm0-9.413a2.627,2.627,0,0,0-1.029.2,2.143,2.143,0,0,0-.791.575,2.655,2.655,0,0,0-.509.941,4.286,4.286,0,0,0-.179,1.3,4.379,4.379,0,0,0,.15,1.2,2.821,2.821,0,0,0,.425.9,2.14,2.14,0,0,0,.666.6,2.3,2.3,0,0,0,.883.284v.442a.964.964,0,0,0,.229.675.94.94,0,0,0,.721.25h.824v-.783h-.891v-.6a2.207,2.207,0,0,0,1.466-.913,3.473,3.473,0,0,0,.541-2.054,4.309,4.309,0,0,0-.178-1.3,2.655,2.655,0,0,0-.509-.941,2.143,2.143,0,0,0-.792-.575A2.618,2.618,0,0,0-3536,3163.086Zm0,5.173a1.566,1.566,0,0,1-.616-.117,1.3,1.3,0,0,1-.471-.338,1.574,1.574,0,0,1-.3-.537,2.218,2.218,0,0,1-.108-.717v-.916a2.224,2.224,0,0,1,.108-.716,1.572,1.572,0,0,1,.3-.537,1.315,1.315,0,0,1,.471-.337,1.578,1.578,0,0,1,.616-.116,1.587,1.587,0,0,1,.613.116,1.3,1.3,0,0,1,.474.337,1.559,1.559,0,0,1,.3.537,2.2,2.2,0,0,1,.108.716v.916a2.169,2.169,0,0,1-.108.717,1.558,1.558,0,0,1-.3.537,1.288,1.288,0,0,1-.474.338A1.575,1.575,0,0,1-3536,3168.259Z" transform="translate(3542 -3160.5)"/>
</svg>
