<svg xmlns="http://www.w3.org/2000/svg" width="12" height="12" viewBox="0 0 12 12">
  <path id="Quota_Fill" data-name="Quota Fill" d="M-22713-5315.475a5.946,5.946,0,0,1-2.334-.471,5.982,5.982,0,0,1-1.908-1.286,5.993,5.993,0,0,1-1.287-1.907,5.966,5.966,0,0,1-.471-2.335,5.968,5.968,0,0,1,.471-2.335,5.99,5.99,0,0,1,1.287-1.907,5.969,5.969,0,0,1,1.908-1.287,5.946,5.946,0,0,1,2.334-.472,5.963,5.963,0,0,1,2.336.472,5.947,5.947,0,0,1,1.906,1.287,5.969,5.969,0,0,1,1.287,1.907,5.972,5.972,0,0,1,.471,2.335,5.967,5.967,0,0,1-.471,2.335,5.967,5.967,0,0,1-1.287,1.907,5.952,5.952,0,0,1-1.906,1.286A5.962,5.962,0,0,1-22713-5315.475Zm0-9.413a2.638,2.638,0,0,0-1.027.194,2.141,2.141,0,0,0-.793.576,2.644,2.644,0,0,0-.508.942,4.291,4.291,0,0,0-.178,1.295,4.284,4.284,0,0,0,.15,1.195,2.777,2.777,0,0,0,.422.9,2.185,2.185,0,0,0,.668.6,2.306,2.306,0,0,0,.883.285v.44a.959.959,0,0,0,.23.675.93.93,0,0,0,.721.251h.824v-.783h-.893v-.6a2.209,2.209,0,0,0,1.467-.912,3.477,3.477,0,0,0,.541-2.054,4.354,4.354,0,0,0-.178-1.295,2.647,2.647,0,0,0-.51-.942,2.134,2.134,0,0,0-.791-.576A2.648,2.648,0,0,0-22713-5324.887Zm0,5.172a1.582,1.582,0,0,1-.617-.117,1.293,1.293,0,0,1-.469-.335,1.577,1.577,0,0,1-.3-.539,2.2,2.2,0,0,1-.109-.715v-.917a2.2,2.2,0,0,1,.109-.716,1.563,1.563,0,0,1,.3-.537,1.277,1.277,0,0,1,.469-.338,1.59,1.59,0,0,1,.617-.116,1.592,1.592,0,0,1,.613.116,1.279,1.279,0,0,1,.475.338,1.545,1.545,0,0,1,.3.537,2.213,2.213,0,0,1,.107.716v.917a2.215,2.215,0,0,1-.107.715,1.591,1.591,0,0,1-.3.539,1.279,1.279,0,0,1-.475.335A1.583,1.583,0,0,1-22713-5319.715Z" transform="translate(22719.002 5327.474)" fill="#ccc"/>
</svg>
