<svg xmlns="http://www.w3.org/2000/svg" width="12" height="12" viewBox="0 0 12 12">
  <path id="reservation-fill" d="M-3504.267,3196.867a5.961,5.961,0,0,1-2.336-.471,5.981,5.981,0,0,1-1.907-1.286,5.976,5.976,0,0,1-1.286-1.907,5.964,5.964,0,0,1-.471-2.335,5.964,5.964,0,0,1,.471-2.335,5.973,5.973,0,0,1,1.286-1.907,5.973,5.973,0,0,1,1.907-1.286,5.962,5.962,0,0,1,2.336-.472,5.961,5.961,0,0,1,2.335.472,5.973,5.973,0,0,1,1.907,1.286,5.981,5.981,0,0,1,1.286,1.907,5.96,5.96,0,0,1,.471,2.335,5.959,5.959,0,0,1-.471,2.335,5.98,5.98,0,0,1-1.286,1.907,5.981,5.981,0,0,1-1.907,1.286A5.961,5.961,0,0,1-3504.267,3196.867Zm-1.093-5.221h1.44l1.45,2.922h1.305l-1.564-3.046a1.9,1.9,0,0,0,1.052-.72,2.214,2.214,0,0,0,.357-1.29,2.215,2.215,0,0,0-.56-1.59,2.029,2.029,0,0,0-1.533-.585h-3.118v7.231h1.171v-2.921Zm1.865-.984h-1.865v-2.3h1.865a.978.978,0,0,1,.694.233.874.874,0,0,1,.249.668v.5a.875.875,0,0,1-.249.668A.98.98,0,0,1-3503.495,3190.662Z" transform="translate(3510.267 -3184.867)"/>
</svg>
