<svg xmlns="http://www.w3.org/2000/svg" width="23.999" height="24" viewBox="0 0 23.999 24">
  <path id="smb-share" d="M-3527.6,3184.5h-4.8a1.2,1.2,0,0,1-1.2-1.2h-8.4v-2.4h8.4a1.2,1.2,0,0,1,1.2-1.2h1.2v-2.4h-7.2a2.4,2.4,0,0,1-2.4-2.4v-12a2.4,2.4,0,0,1,2.4-2.4h7.2l2.4,2.4h7.2a2.4,2.4,0,0,1,2.4,2.4v9.6a2.4,2.4,0,0,1-2.4,2.4h-7.2v2.4h1.2a1.2,1.2,0,0,1,1.2,1.2h8.4v2.4h-8.4A1.2,1.2,0,0,1-3527.6,3184.5Zm-10.882-12.445h0l-.1.8.324.063a8.921,8.921,0,0,0,1.692.18,2.229,2.229,0,0,0,1.508-.481,1.833,1.833,0,0,0,.553-1.454,1.483,1.483,0,0,0-.378-1.121,3.2,3.2,0,0,0-1.3-.612,5.2,5.2,0,0,1-1.193-.432.652.652,0,0,1-.27-.589c0-.531.385-.8,1.143-.8.346,0,.928.047,1.782.144l.081-.81-.315-.054a9.9,9.9,0,0,0-1.638-.162,2.391,2.391,0,0,0-1.508.427,1.518,1.518,0,0,0-.544,1.264,1.571,1.571,0,0,0,.432,1.224,3.094,3.094,0,0,0,1.314.607,3.841,3.841,0,0,1,1.134.405.664.664,0,0,1,.252.572c0,.657-.375.99-1.116.99a15.275,15.275,0,0,1-1.854-.162Zm12.708-5.22V3173h2.412c1.3,0,1.962-.587,1.962-1.746a1.383,1.383,0,0,0-.882-1.431,1.354,1.354,0,0,0,.553-.522,1.79,1.79,0,0,0,.176-.864,1.489,1.489,0,0,0-.468-1.219,2.211,2.211,0,0,0-1.413-.383Zm-2.556,1.107h.135V3173h1.008v-6.165h-1.746l-1.377,4.815-1.377-4.815h-1.737V3173h1v-5.058h.135l1.458,4.806h1.044l1.458-4.805Zm4.914,4.194h-1.359v-1.827h1.341a1.227,1.227,0,0,1,.72.2.808.808,0,0,1,.288.707.887.887,0,0,1-.248.711A1.145,1.145,0,0,1-3523.417,3172.135Zm-.036-2.673h-1.323V3167.7h1.287c.609,0,.918.288.918.855A.794.794,0,0,1-3523.452,3169.463Z" transform="translate(3542 -3160.5)"/>
</svg>
