<?xml version="1.0" encoding="UTF-8" standalone="no"?>
<svg
   xmlns:dc="http://purl.org/dc/elements/1.1/"
   xmlns:cc="http://creativecommons.org/ns#"
   xmlns:rdf="http://www.w3.org/1999/02/22-rdf-syntax-ns#"
   xmlns:svg="http://www.w3.org/2000/svg"
   xmlns="http://www.w3.org/2000/svg"
   xmlns:sodipodi="http://sodipodi.sourceforge.net/DTD/sodipodi-0.dtd"
   xmlns:inkscape="http://www.inkscape.org/namespaces/inkscape"
   viewBox="0 0 467.00002 137.7172"
   version="1.1"
   id="svg23"
   sodipodi:docname="truenas_core_logotype.svg"
   width="467"
   height="137.71719"
   inkscape:version="0.92.4 (5da689c313, 2019-01-14)">
  <metadata
     id="metadata29">
    <rdf:RDF>
      <cc:Work
         rdf:about="">
        <dc:format>image/svg+xml</dc:format>
        <dc:type
           rdf:resource="http://purl.org/dc/dcmitype/StillImage" />
        <dc:title>truenas_core-logo-one-color-rgb</dc:title>
      </cc:Work>
    </rdf:RDF>
  </metadata>
  <defs
     id="defs27" />
  <sodipodi:namedview
     pagecolor="#ffffff"
     bordercolor="#666666"
     borderopacity="1"
     objecttolerance="10"
     gridtolerance="10"
     guidetolerance="10"
     inkscape:pageopacity="0"
     inkscape:pageshadow="2"
     inkscape:window-width="1493"
     inkscape:window-height="994"
     id="namedview25"
     showgrid="false"
     showborder="true"
     inkscape:showpageshadow="false"
     inkscape:zoom="0.49694014"
     inkscape:cx="317.94574"
     inkscape:cy="68.858597"
     inkscape:window-x="0"
     inkscape:window-y="28"
     inkscape:window-maximized="0"
     inkscape:current-layer="black-rgb" />
  <title
     id="title2">truenas_core-logo-one-color-rgb</title>
  <g
     id="black-rgb">
    <g
       id="type"
       transform="translate(-169.6012)">
      <path
         id="type_CompoundPathItem_"
         data-name="type &lt;CompoundPathItem&gt;"
         d="M 235.2522,7.4836 V 17.6042 H 208.0055 V 97.0093 H 196.8479 V 17.6042 H 169.6012 V 7.4836 Z"
         inkscape:connector-curvature="0" />
      <path
         id="type_CompoundPathItem_2"
         data-name="type &lt;CompoundPathItem&gt;"
         d="m 270.4091,46.1492 a 12.3261,12.3261 0 0 0 -10.8964,-5.45 c -7.9179,0 -13.8826,5.9687 -13.8826,15.6994 V 97.0093 H 235.2483 V 32.1359 H 245.63 v 6.3585 c 2.7212,-4.5418 7.1343,-7.3974 15.0483,-7.3974 8.8223,0 14.4011,2.9843 18.553,8.8243 z"
         inkscape:connector-curvature="0" />
      <path
         id="type_CompoundPathItem_3"
         data-name="type &lt;CompoundPathItem&gt;"
         d="m 337.7482,97.0093 h -10.3817 v -6.3566 c -3.2436,4.93 -7.7815,7.3955 -17.3835,7.3955 -13.8827,0 -23.6134,-7.2668 -23.6134,-25.432 v -40.48 h 10.3779 v 40.3514 c 0,13.1048 7.1343,15.9586 14.791,15.9586 9.7307,0 15.828,-6.877 15.828,-15.83 v -40.48 h 10.3817 z"
         inkscape:connector-curvature="0" />
      <path
         id="type_CompoundPathItem_4"
         data-name="type &lt;CompoundPathItem&gt;"
         d="m 399.2435,87.1479 c -4.5418,7.916 -11.4188,10.9 -22.705,10.9 -17.3874,0 -27.7692,-11.2882 -27.7692,-29.3227 V 60.16 c 0,-18.4224 8.6937,-29.0634 25.6913,-29.0634 17.1262,0 25.6912,10.51 25.6912,29.0634 v 6.7484 h -41.0007 v 1.8167 c 0,11.1576 5.3215,19.98 16.6077,19.98 8.4325,0 12.717,-2.4639 15.4381,-7.2649 z M 359.1511,57.8252 h 30.49 c -0.5185,-10.8983 -5.3176,-17.3854 -15.1808,-17.3854 -9.9877,2e-4 -14.662,6.6177 -15.3092,17.3854 z"
         inkscape:connector-curvature="0" />
      <path
         id="type_CompoundPathItem_5"
         data-name="type &lt;CompoundPathItem&gt;"
         d="m 481.1124,7.4836 v 89.5257 h -13.3641 l -36.459,-60.852 v 60.852 H 416.7556 V 7.4836 H 429.73 l 36.8488,61.63 v -61.63 z"
         inkscape:connector-curvature="0" />
      <path
         id="type_CompoundPathItem_6"
         data-name="type &lt;CompoundPathItem&gt;"
         d="M 491.2252,97.0093 522.3665,7.4836 h 14.2725 l 31.1375,89.5257 H 551.82 l -6.1012,-18.5531 h -32.3072 l -6.0972,18.5531 z m 26.3384,-31.5274 h 23.8745 l -11.9373,-36.2 z"
         inkscape:connector-curvature="0" />
      <path
         id="type_CompoundPathItem_7"
         data-name="type &lt;CompoundPathItem&gt;"
         d="m 623.307,29.1516 c -4.4131,-6.0973 -9.2122,-9.7307 -19.3327,-9.7307 -9.2122,0 -14.6624,4.1519 -14.6624,11.6761 0,8.565 6.7484,11.9372 19.2041,14.6623 18.0346,3.8927 27.3755,10.6391 27.3755,26.7283 0,13.3641 -8.9549,25.6893 -30.49,25.6893 -15.31,0 -26.0811,-4.6705 -33.4766,-14.66 l 11.8087,-8.1752 c 5.3175,6.3585 10.639,9.7307 20.8882,9.7307 12.3271,0 16.2179,-5.4482 16.2179,-11.9353 0,-7.1363 -4.0194,-11.5475 -19.59,-14.9216 C 583.9905,54.5817 574.26,46.2778 574.26,31.097 c 0,-13.4928 8.8223,-24.781 29.8431,-24.781 14.2725,0 24.2644,4.8011 30.619,14.6624 z"
         inkscape:connector-curvature="0" />
      <path
         id="type_CompoundPathItem_8"
         data-name="type &lt;CompoundPathItem&gt;"
         d="m 208.7655,122.03 c -0.5818,-2.7173 -2.037,-3.9463 -4.496,-3.9463 -2.9755,0 -4.5924,1.9405 -4.5924,6.76 v 2.8463 c 0,4.7542 1.6169,6.76 4.5924,6.76 2.5555,0 3.9142,-1.229 4.496,-3.9463 h 3.59 c -0.7436,5.0135 -3.6548,7.2132 -8.0865,7.2132 -4.98,0 -8.3447,-3.0086 -8.3447,-10.0269 v -2.8469 c 0,-7.0193 3.3644,-10.027 8.3447,-10.027 4.4317,0 7.3751,2.3615 8.1187,7.2132 z"
         inkscape:connector-curvature="0" />
      <path
         id="type_CompoundPathItem_9"
         data-name="type &lt;CompoundPathItem&gt;"
         d="m 226.3547,137.7172 c -4.98,0 -8.3448,-3.0086 -8.3448,-10.0269 v -2.8469 c 0,-7.0193 3.3644,-10.027 8.3448,-10.027 5.0135,0 8.3779,3.0077 8.3779,10.027 v 2.8466 c 0,7.0186 -3.3644,10.0272 -8.3779,10.0272 z M 221.7622,127.69 c 0,4.82 1.6169,6.76 4.5925,6.76 2.9756,0 4.6256,-1.94 4.6256,-6.76 v -2.8469 c 0,-4.82 -1.6491,-6.76 -4.6256,-6.76 -2.9765,0 -4.5925,1.9405 -4.5925,6.76 z"
         inkscape:connector-curvature="0" />
      <path
         id="type_CompoundPathItem_10"
         data-name="type &lt;CompoundPathItem&gt;"
         d="m 254.36,137.4258 -4.302,-9.0562 h -4.3342 v 9.0562 h -3.7523 v -22.318 h 7.6011 c 5.1431,0 8.2161,2.2319 8.2161,6.6625 a 5.8293,5.8293 0 0 1 -4.0427,5.9843 l 4.7542,9.6712 z m -5.0457,-12.291 c 3.1695,0 4.7221,-0.8411 4.7221,-3.3645 0,-2.5234 -1.5526,-3.3956 -4.7221,-3.3956 h -3.59 v 6.76 z"
         inkscape:connector-curvature="0" />
      <path
         id="type_CompoundPathItem_11"
         data-name="type &lt;CompoundPathItem&gt;"
         d="m 278.6436,115.1078 v 3.2669 h -9.93 v 5.8868 h 8.96 v 3.2338 h -8.96 v 6.6957 h 9.93 v 3.2348 h -13.6829 v -22.318 z"
         inkscape:connector-curvature="0" />
    </g>
  </g>
</svg>
