<svg xmlns="http://www.w3.org/2000/svg" viewBox="0 0 258.128 72.834">
  <title>truenas_scale-logotype-full-color-rgb</title>
  <path d="M36.343.646V6.25H21.26v43.957h-6.177V6.249H0V.646ZM55.805 22.05a6.823 6.823 0 0 0-6.032-3.016c-4.383 0-7.685 3.304-7.685 8.69v22.482h-5.747V14.293h5.747v3.52c1.506-2.514 3.95-4.095 8.33-4.095 4.884 0 7.972 1.652 10.27 4.885ZM93.083 50.206h-5.748v-3.519c-1.795 2.729-4.307 4.094-9.623 4.094-7.685 0-13.071-4.023-13.071-14.079V14.293h5.745v22.338c0 7.255 3.949 8.835 8.188 8.835a8.369 8.369 0 0 0 8.762-8.764V14.293h5.747ZM127.125 44.747c-2.514 4.382-6.321 6.034-12.569 6.034-9.625 0-15.372-6.249-15.372-16.232v-4.742c0-10.198 4.812-16.089 14.222-16.089 9.48 0 14.222 5.818 14.222 16.09v3.735h-22.697v1.006c0 6.176 2.946 11.06 9.194 11.06 4.668 0 7.04-1.364 8.546-4.022Zm-22.194-16.233h16.879c-.287-6.033-2.944-9.624-8.404-9.624-5.53 0-8.117 3.664-8.475 9.624ZM172.446.646v49.56h-7.398L144.865 16.52v33.686h-8.045V.646h7.182l20.399 34.117V.646ZM178.044 50.206l17.24-49.56h7.9l17.237 49.56h-8.833l-3.377-10.27h-17.885l-3.375 10.27Zm14.58-17.453h13.217l-6.608-20.04ZM251.162 12.641c-2.443-3.375-5.1-5.386-10.702-5.386-5.1 0-8.117 2.298-8.117 6.463 0 4.742 3.736 6.608 10.631 8.117 9.983 2.155 15.154 5.89 15.154 14.796 0 7.398-4.957 14.221-16.878 14.221-8.475 0-14.438-2.585-18.532-8.116l6.537-4.525c2.943 3.52 5.89 5.387 11.563 5.387 6.824 0 8.978-3.016 8.978-6.608 0-3.95-2.225-6.392-10.845-8.26-9.554-2.01-14.94-6.608-14.94-15.012C224.01 6.248 228.893 0 240.53 0c7.9 0 13.432 2.658 16.95 8.117Z" style="fill:#0095d5"/>
  <path d="M21.502 63.307a2.881 2.881 0 0 0-2.668-1.342c-1.272 0-2.024.573-2.024 1.611 0 1.182.931 1.648 2.65 2.023 2.489.538 3.778 1.469 3.778 3.69 0 1.844-1.235 3.545-4.207 3.545a5.284 5.284 0 0 1-4.62-2.024l1.629-1.127a3.308 3.308 0 0 0 2.883 1.342c1.7 0 2.238-.752 2.238-1.647 0-.985-.555-1.594-2.703-2.06-2.382-.5-3.725-1.646-3.725-3.742 0-1.862 1.217-3.42 4.118-3.42a4.61 4.61 0 0 1 4.226 2.024ZM33.728 64.15a2.35 2.35 0 0 0-2.489-2.185c-1.647 0-2.542 1.074-2.542 3.742v1.576c0 2.632.895 3.742 2.542 3.742a2.32 2.32 0 0 0 2.489-2.184h1.988c-.412 2.775-2.024 3.993-4.477 3.993-2.758 0-4.62-1.666-4.62-5.551v-1.576c0-3.885 1.862-5.55 4.62-5.55 2.453 0 4.083 1.306 4.494 3.992ZM38.021 72.673l4.298-12.356h1.97l4.297 12.356h-2.202l-.842-2.56h-4.459l-.84 2.56Zm3.635-4.352h3.295l-1.647-4.995ZM53.864 70.882h5.497v1.79h-7.574V60.318h2.077ZM70.155 60.317v1.809h-5.497v3.259h4.96v1.79h-4.96v3.706h5.497v1.791H62.58V60.317Z" style="fill:#aeadae"/>
</svg>
