<svg xmlns="http://www.w3.org/2000/svg" viewBox="0 0 807.9951 200.7383">
  <title>truenas_enterprise-logo-one-color-rgb</title>
  <g id="black-rgb">
    <g id="logoMark">
      <polygon id="logoMark_PathItem_" data-name="logoMark &lt;PathItem&gt;" points="160.494 39.984 129.522 57.881 92.94 36.76 91.239 35.77 91.239 0 160.494 39.984"/>
      <polygon id="logoMark_PathItem_2" data-name="logoMark &lt;PathItem&gt;" points="76.616 0 76.616 35.77 73.748 37.42 38.282 57.881 7.311 39.984 76.616 0"/>
      <polygon id="logoMark_PathItem_3" data-name="logoMark &lt;PathItem&gt;" points="167.805 105.329 167.805 141.098 91.239 185.296 91.239 149.552 167.805 105.329"/>
      <polygon id="logoMark_PathItem_4" data-name="logoMark &lt;PathItem&gt;" points="167.805 52.664 167.805 88.434 91.239 132.632 91.239 96.888 167.805 52.664"/>
      <polygon id="logoMark_PathItem_5" data-name="logoMark &lt;PathItem&gt;" points="76.616 149.552 76.616 185.296 0.025 141.073 0 105.329 34.602 125.308 34.754 125.384 76.616 149.552"/>
      <polygon id="logoMark_PathItem_6" data-name="logoMark &lt;PathItem&gt;" points="76.616 96.888 76.616 132.632 0.025 88.409 0 52.664 34.602 72.644 34.754 72.72 76.616 96.888"/>
      <polygon id="logoMark_PathItem_7" data-name="logoMark &lt;PathItem&gt;" points="115.153 66.348 84.182 84.22 53.185 66.348 84.182 48.45 115.153 66.348"/>
    </g>
    <g id="type">
      <path id="type_CompoundPathItem_" data-name="type &lt;CompoundPathItem&gt;" d="M298.4446,35.7169V48.5886H263.7909V149.58H249.6V48.5886H214.9466V35.7169Z"/>
      <path id="type_CompoundPathItem_2" data-name="type &lt;CompoundPathItem&gt;" d="M343.1586,84.8934c-3.4659-4.7873-7.7548-6.9317-13.8585-6.9317-10.07,0-17.6565,7.5911-17.6565,19.9671V149.58H298.44V67.0707h13.204v8.087c3.4609-5.7764,9.0737-9.4084,19.1391-9.4084,11.2206,0,18.3159,3.7956,23.5965,11.2232Z"/>
      <path id="type_CompoundPathItem_3" data-name="type &lt;CompoundPathItem&gt;" d="M428.8035,149.58H415.6v-8.0846c-4.1253,6.27-9.8968,9.406-22.1091,9.406-17.6565,0-30.0325-9.2423-30.0325-32.3456V67.0707h13.199v51.321c0,16.6674,9.0737,20.2968,18.8119,20.2968,12.3759,0,20.1307-8.7464,20.1307-20.1332V67.0707h13.204Z"/>
      <path id="type_CompoundPathItem_4" data-name="type &lt;CompoundPathItem&gt;" d="M507.0158,137.0374c-5.7764,10.0679-14.5229,13.8635-28.8772,13.8635-22.114,0-35.318-14.3568-35.318-37.294V102.7135c0-23.43,11.057-36.9642,32.6753-36.9642,21.7818,0,32.6752,13.3676,32.6752,36.9642v8.5829H456.0246v2.31c0,14.1907,6.7681,25.4114,21.1224,25.4114,10.7248,0,16.174-3.1337,19.6349-9.24ZM456.0246,99.7435h38.7789c-.6594-13.8609-6.7631-22.1116-19.3076-22.1116C462.7927,77.6319,456.8477,86.0487,456.0246,99.7435Z"/>
      <path id="type_CompoundPathItem_5" data-name="type &lt;CompoundPathItem&gt;" d="M611.14,35.7169V149.58H594.1432l-46.37-77.3943V149.58H529.2886V35.7169H545.79L592.6557,114.1V35.7169Z"/>
      <path id="type_CompoundPathItem_6" data-name="type &lt;CompoundPathItem&gt;" d="M624.0022,149.58,663.6091,35.7169h18.1524L721.3635,149.58H701.0692l-7.76-23.5966H652.22L644.4651,149.58Zm33.4983-40.0979h30.3647l-15.1824-46.04Z"/>
      <path id="type_CompoundPathItem_7" data-name="type &lt;CompoundPathItem&gt;" d="M791.99,63.2751c-5.6128-7.7547-11.7165-12.3759-24.5883-12.3759-11.7165,0-18.6482,5.2806-18.6482,14.85,0,10.8934,8.5828,15.1824,24.4246,18.6482,22.9372,4.9509,34.8173,13.5313,34.8173,33.9942,0,16.9971-11.3892,32.6728-38.7789,32.6728-19.4713,0-33.1711-5.94-42.577-18.6457l15.0187-10.3976c6.7631,8.087,13.5312,12.3759,26.5666,12.3759,15.6782,0,20.6266-6.9292,20.6266-15.18,0-9.0762-5.1121-14.6865-24.9155-18.978-21.9505-4.6211-34.3264-15.1823-34.3264-34.49,0-17.1607,11.2206-31.5174,37.9558-31.5174,18.1524,0,30.8606,6.1061,38.9426,18.6482Z"/>
      <path id="type_CompoundPathItem_8" data-name="type &lt;CompoundPathItem&gt;" d="M266.98,171.9826v4.1551H254.35v7.487h11.3954v4.1129H254.35v8.5159h12.63v4.1154H249.5777V171.9826Z"/>
      <path id="type_CompoundPathItem_9" data-name="type &lt;CompoundPathItem&gt;" d="M296.0148,171.9826v28.3863h-4.2369l-11.56-19.2952v19.2952H275.61V171.9826h4.1141l11.6831,19.5407V171.9826Z"/>
      <path id="type_CompoundPathItem_10" data-name="type &lt;CompoundPathItem&gt;" d="M324.6378,171.9826v4.1551h-8.1452v24.2312h-4.7711V176.1377H303.534v-4.1551Z"/>
      <path id="type_CompoundPathItem_11" data-name="type &lt;CompoundPathItem&gt;" d="M349.56,171.9826v4.1551H336.93v7.487h11.3954v4.1129H336.93v8.5159h12.63v4.1154H332.1571V171.9826Z"/>
      <path id="type_CompoundPathItem_12" data-name="type &lt;CompoundPathItem&gt;" d="M373.9458,200.3689l-5.4715-11.5181h-5.5124v11.5181H358.19V171.9826h9.6674c6.5413,0,10.45,2.8386,10.45,8.4738,0,3.91-1.8519,6.4185-5.1418,7.611l6.0467,12.3015Zm-6.4173-15.6335c4.0311,0,6.0057-1.0685,6.0057-4.279,0-3.2081-1.9746-4.3187-6.0057-4.3187h-4.5666v8.5977Z"/>
      <path id="type_CompoundPathItem_13" data-name="type &lt;CompoundPathItem&gt;" d="M392.2022,190.0011v10.3678H387.43V171.9826h9.6674c6.5413,0,10.45,3.1262,10.45,8.97,0,5.7591-3.8675,9.0489-10.45,9.0489Zm4.4018-4.1129c4.3608,0,6.1706-1.6883,6.1706-4.936,0-3.0866-1.81-4.8145-6.1706-4.8145h-4.4018v9.7505Z"/>
      <path id="type_CompoundPathItem_14" data-name="type &lt;CompoundPathItem&gt;" d="M431.5216,200.3689,426.05,188.8508h-5.5124v11.5181h-4.7723V171.9826h9.6674c6.5413,0,10.45,2.8386,10.45,8.4738,0,3.91-1.852,6.4185-5.1418,7.611l6.0467,12.3015Zm-6.4173-15.6335c4.0311,0,6.0058-1.0685,6.0058-4.279,0-3.2081-1.9747-4.3187-6.0058-4.3187h-4.5666v8.5977Z"/>
      <path id="type_CompoundPathItem_15" data-name="type &lt;CompoundPathItem&gt;" d="M450.1884,200.3689h-4.7723V171.9826h4.7723Z"/>
      <path id="type_CompoundPathItem_16" data-name="type &lt;CompoundPathItem&gt;" d="M475.69,178.8523a6.6194,6.6194,0,0,0-6.13-3.084c-2.9216,0-4.65,1.3164-4.65,3.7014,0,2.7146,2.1395,3.7856,6.0888,4.6484,5.7182,1.2346,8.6807,3.3741,8.6807,8.4762,0,4.2369-2.8386,8.144-9.6674,8.144-4.8542,0-8.2692-1.48-10.6145-4.6484l3.7435-2.5907a7.6016,7.6016,0,0,0,6.6243,3.0841c3.9072,0,5.1418-1.728,5.1418-3.7832,0-2.2635-1.2756-3.6617-6.2115-4.7327-5.4715-1.15-8.5568-3.7832-8.5568-8.5977,0-4.2791,2.7964-7.8565,9.4616-7.8565,4.5245,0,7.6929,1.5222,9.7084,4.6484Z"/>
      <path id="type_CompoundPathItem_17" data-name="type &lt;CompoundPathItem&gt;" d="M506.0016,171.9826v4.1551h-12.63v7.487H504.767v4.1129H493.3716v8.5159h12.63v4.1154H488.5992V171.9826Z"/>
    </g>
  </g>
</svg>
