<?xml version="1.0" encoding="UTF-8" standalone="no"?>
<svg
   xmlns:dc="http://purl.org/dc/elements/1.1/"
   xmlns:cc="http://creativecommons.org/ns#"
   xmlns:rdf="http://www.w3.org/1999/02/22-rdf-syntax-ns#"
   xmlns:svg="http://www.w3.org/2000/svg"
   xmlns="http://www.w3.org/2000/svg"
   xmlns:sodipodi="http://sodipodi.sourceforge.net/DTD/sodipodi-0.dtd"
   xmlns:inkscape="http://www.inkscape.org/namespaces/inkscape"
   viewBox="0 0 593.99999 200.7383"
   version="1.1"
   id="svg31"
   sodipodi:docname="truenas_enterprise_logotype.svg"
   width="594"
   height="200.7383"
   inkscape:version="0.92.4 (5da689c313, 2019-01-14)">
  <metadata
     id="metadata37">
    <rdf:RDF>
      <cc:Work
         rdf:about="">
        <dc:format>image/svg+xml</dc:format>
        <dc:type
           rdf:resource="http://purl.org/dc/dcmitype/StillImage" />
        <dc:title>truenas_enterprise-logo-one-color-rgb</dc:title>
      </cc:Work>
    </rdf:RDF>
  </metadata>
  <defs
     id="defs35" />
  <sodipodi:namedview
     pagecolor="#ffffff"
     bordercolor="#666666"
     borderopacity="1"
     objecttolerance="10"
     gridtolerance="10"
     guidetolerance="10"
     inkscape:pageopacity="0"
     inkscape:pageshadow="2"
     inkscape:window-width="1920"
     inkscape:window-height="1023"
     id="namedview33"
     showgrid="false"
     inkscape:showpageshadow="false"
     inkscape:zoom="0.39109147"
     inkscape:cx="403.99756"
     inkscape:cy="100.36915"
     inkscape:window-x="0"
     inkscape:window-y="28"
     inkscape:window-maximized="1"
     inkscape:current-layer="black-rgb" />
  <title
     id="title2">truenas_enterprise-logo-one-color-rgb</title>
  <g
     id="black-rgb">
    <g
       id="type"
       transform="translate(-214.9466)">
      <path
         id="type_CompoundPathItem_"
         data-name="type &lt;CompoundPathItem&gt;"
         d="M 298.4446,35.7169 V 48.5886 H 263.7909 V 149.58 H 249.6 V 48.5886 H 214.9466 V 35.7169 Z"
         inkscape:connector-curvature="0" />
      <path
         id="type_CompoundPathItem_2"
         data-name="type &lt;CompoundPathItem&gt;"
         d="m 343.1586,84.8934 c -3.4659,-4.7873 -7.7548,-6.9317 -13.8585,-6.9317 -10.07,0 -17.6565,7.5911 -17.6565,19.9671 V 149.58 H 298.44 V 67.0707 h 13.204 v 8.087 c 3.4609,-5.7764 9.0737,-9.4084 19.1391,-9.4084 11.2206,0 18.3159,3.7956 23.5965,11.2232 z"
         inkscape:connector-curvature="0" />
      <path
         id="type_CompoundPathItem_3"
         data-name="type &lt;CompoundPathItem&gt;"
         d="M 428.8035,149.58 H 415.6 v -8.0846 c -4.1253,6.27 -9.8968,9.406 -22.1091,9.406 -17.6565,0 -30.0325,-9.2423 -30.0325,-32.3456 V 67.0707 h 13.199 v 51.321 c 0,16.6674 9.0737,20.2968 18.8119,20.2968 12.3759,0 20.1307,-8.7464 20.1307,-20.1332 V 67.0707 h 13.204 z"
         inkscape:connector-curvature="0" />
      <path
         id="type_CompoundPathItem_4"
         data-name="type &lt;CompoundPathItem&gt;"
         d="m 507.0158,137.0374 c -5.7764,10.0679 -14.5229,13.8635 -28.8772,13.8635 -22.114,0 -35.318,-14.3568 -35.318,-37.294 v -10.8934 c 0,-23.43 11.057,-36.9642 32.6753,-36.9642 21.7818,0 32.6752,13.3676 32.6752,36.9642 v 8.5829 h -52.1465 v 2.31 c 0,14.1907 6.7681,25.4114 21.1224,25.4114 10.7248,0 16.174,-3.1337 19.6349,-9.24 z M 456.0246,99.7435 h 38.7789 c -0.6594,-13.8609 -6.7631,-22.1116 -19.3076,-22.1116 -12.7032,0 -18.6482,8.4168 -19.4713,22.1116 z"
         inkscape:connector-curvature="0" />
      <path
         id="type_CompoundPathItem_5"
         data-name="type &lt;CompoundPathItem&gt;"
         d="M 611.14,35.7169 V 149.58 h -16.9968 l -46.37,-77.3943 V 149.58 H 529.2886 V 35.7169 H 545.79 L 592.6557,114.1 V 35.7169 Z"
         inkscape:connector-curvature="0" />
      <path
         id="type_CompoundPathItem_6"
         data-name="type &lt;CompoundPathItem&gt;"
         d="M 624.0022,149.58 663.6091,35.7169 h 18.1524 l 39.602,113.8631 h -20.2943 l -7.76,-23.5966 H 652.22 l -7.7549,23.5966 z m 33.4983,-40.0979 h 30.3647 l -15.1824,-46.04 z"
         inkscape:connector-curvature="0" />
      <path
         id="type_CompoundPathItem_7"
         data-name="type &lt;CompoundPathItem&gt;"
         d="m 791.99,63.2751 c -5.6128,-7.7547 -11.7165,-12.3759 -24.5883,-12.3759 -11.7165,0 -18.6482,5.2806 -18.6482,14.85 0,10.8934 8.5828,15.1824 24.4246,18.6482 22.9372,4.9509 34.8173,13.5313 34.8173,33.9942 0,16.9971 -11.3892,32.6728 -38.7789,32.6728 -19.4713,0 -33.1711,-5.94 -42.577,-18.6457 l 15.0187,-10.3976 c 6.7631,8.087 13.5312,12.3759 26.5666,12.3759 15.6782,0 20.6266,-6.9292 20.6266,-15.18 0,-9.0762 -5.1121,-14.6865 -24.9155,-18.978 -21.9505,-4.6211 -34.3264,-15.1823 -34.3264,-34.49 0,-17.1607 11.2206,-31.5174 37.9558,-31.5174 18.1524,0 30.8606,6.1061 38.9426,18.6482 z"
         inkscape:connector-curvature="0" />
      <path
         id="type_CompoundPathItem_8"
         data-name="type &lt;CompoundPathItem&gt;"
         d="m 266.98,171.9826 v 4.1551 h -12.63 v 7.487 h 11.3954 v 4.1129 H 254.35 v 8.5159 h 12.63 v 4.1154 h -17.4023 v -28.3863 z"
         inkscape:connector-curvature="0" />
      <path
         id="type_CompoundPathItem_9"
         data-name="type &lt;CompoundPathItem&gt;"
         d="m 296.0148,171.9826 v 28.3863 h -4.2369 l -11.56,-19.2952 v 19.2952 H 275.61 v -28.3863 h 4.1141 l 11.6831,19.5407 v -19.5407 z"
         inkscape:connector-curvature="0" />
      <path
         id="type_CompoundPathItem_10"
         data-name="type &lt;CompoundPathItem&gt;"
         d="m 324.6378,171.9826 v 4.1551 h -8.1452 v 24.2312 h -4.7711 v -24.2312 h -8.1875 v -4.1551 z"
         inkscape:connector-curvature="0" />
      <path
         id="type_CompoundPathItem_11"
         data-name="type &lt;CompoundPathItem&gt;"
         d="m 349.56,171.9826 v 4.1551 h -12.63 v 7.487 h 11.3954 v 4.1129 H 336.93 v 8.5159 h 12.63 v 4.1154 h -17.4029 v -28.3863 z"
         inkscape:connector-curvature="0" />
      <path
         id="type_CompoundPathItem_12"
         data-name="type &lt;CompoundPathItem&gt;"
         d="m 373.9458,200.3689 -5.4715,-11.5181 h -5.5124 v 11.5181 H 358.19 v -28.3863 h 9.6674 c 6.5413,0 10.45,2.8386 10.45,8.4738 0,3.91 -1.8519,6.4185 -5.1418,7.611 l 6.0467,12.3015 z m -6.4173,-15.6335 c 4.0311,0 6.0057,-1.0685 6.0057,-4.279 0,-3.2081 -1.9746,-4.3187 -6.0057,-4.3187 h -4.5666 v 8.5977 z"
         inkscape:connector-curvature="0" />
      <path
         id="type_CompoundPathItem_13"
         data-name="type &lt;CompoundPathItem&gt;"
         d="m 392.2022,190.0011 v 10.3678 H 387.43 v -28.3863 h 9.6674 c 6.5413,0 10.45,3.1262 10.45,8.97 0,5.7591 -3.8675,9.0489 -10.45,9.0489 z m 4.4018,-4.1129 c 4.3608,0 6.1706,-1.6883 6.1706,-4.936 0,-3.0866 -1.81,-4.8145 -6.1706,-4.8145 h -4.4018 v 9.7505 z"
         inkscape:connector-curvature="0" />
      <path
         id="type_CompoundPathItem_14"
         data-name="type &lt;CompoundPathItem&gt;"
         d="M 431.5216,200.3689 426.05,188.8508 h -5.5124 v 11.5181 h -4.7723 v -28.3863 h 9.6674 c 6.5413,0 10.45,2.8386 10.45,8.4738 0,3.91 -1.852,6.4185 -5.1418,7.611 l 6.0467,12.3015 z m -6.4173,-15.6335 c 4.0311,0 6.0058,-1.0685 6.0058,-4.279 0,-3.2081 -1.9747,-4.3187 -6.0058,-4.3187 h -4.5666 v 8.5977 z"
         inkscape:connector-curvature="0" />
      <path
         id="type_CompoundPathItem_15"
         data-name="type &lt;CompoundPathItem&gt;"
         d="m 450.1884,200.3689 h -4.7723 v -28.3863 h 4.7723 z"
         inkscape:connector-curvature="0" />
      <path
         id="type_CompoundPathItem_16"
         data-name="type &lt;CompoundPathItem&gt;"
         d="m 475.69,178.8523 a 6.6194,6.6194 0 0 0 -6.13,-3.084 c -2.9216,0 -4.65,1.3164 -4.65,3.7014 0,2.7146 2.1395,3.7856 6.0888,4.6484 5.7182,1.2346 8.6807,3.3741 8.6807,8.4762 0,4.2369 -2.8386,8.144 -9.6674,8.144 -4.8542,0 -8.2692,-1.48 -10.6145,-4.6484 l 3.7435,-2.5907 a 7.6016,7.6016 0 0 0 6.6243,3.0841 c 3.9072,0 5.1418,-1.728 5.1418,-3.7832 0,-2.2635 -1.2756,-3.6617 -6.2115,-4.7327 -5.4715,-1.15 -8.5568,-3.7832 -8.5568,-8.5977 0,-4.2791 2.7964,-7.8565 9.4616,-7.8565 4.5245,0 7.6929,1.5222 9.7084,4.6484 z"
         inkscape:connector-curvature="0" />
      <path
         id="type_CompoundPathItem_17"
         data-name="type &lt;CompoundPathItem&gt;"
         d="m 506.0016,171.9826 v 4.1551 h -12.63 v 7.487 h 11.3954 v 4.1129 h -11.3954 v 8.5159 h 12.63 v 4.1154 h -17.4024 v -28.3863 z"
         inkscape:connector-curvature="0" />
    </g>
  </g>
</svg>
