<svg xmlns="http://www.w3.org/2000/svg" viewBox="0 0 754.6148 163.0308">
  <title>truenas_scale-logo-one-color-rgb</title>
  <g id="black-rgb">
    <g id="logoMark">
      <polygon id="logoMark_PathItem_" data-name="logoMark &lt;PathItem&gt;" points="119.546 38.499 101.619 48.853 83.628 38.469 101.577 28.115 119.546 38.499"/>
      <polygon id="logoMark_PathItem_2" data-name="logoMark &lt;PathItem&gt;" points="146.014 23.208 128.036 33.596 105.822 20.763 105.822 0.004 146.014 23.208"/>
      <polygon id="logoMark_PathItem_3" data-name="logoMark &lt;PathItem&gt;" points="97.332 0 97.332 20.763 75.134 33.566 57.156 23.187 97.332 0"/>
      <path id="logoMark_PathItem_4" data-name="logoMark &lt;PathItem&gt;" d="M44.4291,107.52.0085,81.8667,0,61.1166,20.0326,72.6845c.051.03.1061.0637.1614.0934L44.4165,86.7655Z"/>
      <polygon id="logoMark_PathItem_5" data-name="logoMark &lt;PathItem&gt;" points="66.648 69.063 48.7 79.43 30.713 69.046 48.674 58.684 66.648 69.063"/>
      <polygon id="logoMark_PathItem_6" data-name="logoMark &lt;PathItem&gt;" points="44.395 51.353 22.219 64.143 4.241 53.764 44.387 30.594 44.395 51.353"/>
      <path id="logoMark_PathItem_7" data-name="logoMark &lt;PathItem&gt;" d="M93.0992,53.7854,75.16,64.1476,52.9448,51.319V30.6029L72.91,42.1283c.0509.034.1062.0637.1614.0934Z"/>
      <polygon id="logoMark_PathItem_8" data-name="logoMark &lt;PathItem&gt;" points="150.298 91.923 150.298 112.682 146.282 115 105.86 138.339 105.86 117.589 128.308 104.625 136.794 99.722 150.298 91.923"/>
      <polygon id="logoMark_PathItem_9" data-name="logoMark &lt;PathItem&gt;" points="119.584 99.857 101.615 110.237 83.628 99.853 101.615 89.474 119.584 99.857"/>
      <polygon id="logoMark_PathItem_10" data-name="logoMark &lt;PathItem&gt;" points="97.37 61.363 97.37 82.121 93.316 84.46 75.134 94.95 74.934 94.835 57.156 84.567 75.333 74.077 83.824 69.178 97.332 61.384 97.37 61.363"/>
      <path id="logoMark_PathItem_11" data-name="logoMark &lt;PathItem&gt;" d="M97.37,117.5892V138.335l-40.4-23.3226-4.05-2.3391-.0085-20.75.034.0212,13.5037,7.794,6.495,3.7484c.0552.034.11.068.1655.0977l1.83,1.057Z"/>
      <polygon id="logoMark_PathItem_12" data-name="logoMark &lt;PathItem&gt;" points="203.259 61.121 203.259 81.884 158.822 107.537 158.822 86.791 203.259 61.121"/>
      <polygon id="logoMark_PathItem_13" data-name="logoMark &lt;PathItem&gt;" points="172.546 69.059 154.577 79.438 136.59 69.051 154.577 58.676 172.546 69.059"/>
      <polygon id="logoMark_PathItem_14" data-name="logoMark &lt;PathItem&gt;" points="199.014 53.768 181.036 64.156 158.822 51.327 158.822 30.565 199.014 53.768"/>
      <polygon id="logoMark_PathItem_15" data-name="logoMark &lt;PathItem&gt;" points="150.332 30.56 150.332 51.323 128.096 64.152 110.118 53.768 150.332 30.56"/>
      <polygon id="logoMark_PathItem_16" data-name="logoMark &lt;PathItem&gt;" points="146.053 84.567 128.308 94.823 128.304 94.823 105.881 81.875 105.873 61.371 119.364 69.157 127.854 74.06 146.053 84.567"/>
    </g>
    <g id="type">
      <path id="type_CompoundPathItem_" data-name="type &lt;CompoundPathItem&gt;" d="M315.505,20.1085V31.2009H285.6419v87.03H273.413v-87.03H243.55V20.1085Z"/>
      <path id="type_CompoundPathItem_2" data-name="type &lt;CompoundPathItem&gt;" d="M354.0377,62.4868c-2.9867-4.1254-6.6827-5.9734-11.9426-5.9734-8.6782,0-15.2157,6.5417-15.2157,17.2068v44.51H315.5007V47.128h11.3787v6.9691c2.9825-4.9779,7.8193-8.1078,16.4933-8.1078,9.6695,0,15.7839,3.2709,20.3345,9.6716Z"/>
      <path id="type_CompoundPathItem_3" data-name="type &lt;CompoundPathItem&gt;" d="M427.843,118.2307H416.4643v-6.9669c-3.555,5.403-8.5286,8.1056-19.0527,8.1056-15.2157,0-25.8807-7.9646-25.8807-27.8741V47.128h11.3743V91.3543c0,14.3633,7.8194,17.491,16.2113,17.491,10.6651,0,17.3478-7.5373,17.3478-17.35V47.128H427.843Z"/>
      <path id="type_CompoundPathItem_4" data-name="type &lt;CompoundPathItem&gt;" d="M495.2432,107.4224c-4.9779,8.6761-12.5153,11.947-24.8852,11.947-19.057,0-30.4356-12.3721-30.4356-32.1384V77.8435c0-20.1914,9.5285-31.8542,28.1582-31.8542,18.7707,0,28.1582,11.52,28.1582,31.8542V85.24H451.301V87.231c0,12.229,5.8325,21.8985,18.2024,21.8985,9.2422,0,13.9381-2.7,16.9206-7.9625ZM451.301,75.2841h33.4181c-.5683-11.9448-5.8282-19.0549-16.6385-19.0549C457.1335,56.2292,452.01,63.4824,451.301,75.2841Z"/>
      <path id="type_CompoundPathItem_5" data-name="type &lt;CompoundPathItem&gt;" d="M584.9734,20.1085v98.1222H570.326l-39.96-66.6952v66.6952H514.4369V20.1085h14.22l40.3871,67.5477V20.1085Z"/>
      <path id="type_CompoundPathItem_6" data-name="type &lt;CompoundPathItem&gt;" d="M596.0572,118.2307l34.1317-98.1222h15.6429l34.1274,98.1222H662.47l-6.6871-20.3346H620.3741l-6.6828,20.3346ZM624.9247,83.676h26.167L638.0082,44Z"/>
      <path id="type_CompoundPathItem_7" data-name="type &lt;CompoundPathItem&gt;" d="M740.8219,43.8571c-4.8368-6.6827-10.0967-10.665-21.1891-10.665-10.0968,0-16.07,4.5506-16.07,12.7972,0,9.3875,7.3964,13.0835,21.0482,16.07C744.377,66.326,754.6148,73.72,754.6148,91.3543c0,14.6474-9.8148,28.1561-33.4181,28.1561-16.78,0-28.5855-5.1189-36.6912-16.0681l12.9426-8.96c5.8282,6.969,11.6606,10.665,22.894,10.665,13.5108,0,17.7751-5.9713,17.7751-13.0813,0-7.8215-4.4053-12.6563-21.4711-16.3544C697.73,71.729,687.065,62.6278,687.065,45.9893c0-14.7884,9.6695-27.16,32.7088-27.16,15.643,0,26.5943,5.2621,33.5591,16.07Z"/>
      <path id="type_CompoundPathItem_8" data-name="type &lt;CompoundPathItem&gt;" d="M286.1214,144.17a5.7044,5.7044,0,0,0-5.2823-2.6577c-2.5178,0-4.0069,1.1344-4.0069,3.19,0,2.3393,1.8437,3.2623,5.2471,4.0058,4.9276,1.0639,7.4807,2.9076,7.4807,7.3044,0,3.6512-2.4462,7.0182-8.331,7.0182-4.1832,0-7.1261-1.2754-9.1472-4.0058l3.226-2.2326a6.5508,6.5508,0,0,0,5.7086,2.6578c3.367,0,4.4309-1.4891,4.4309-3.26,0-1.9506-1.0992-3.1556-5.3528-4.0785-4.7151-.9913-7.3739-3.26-7.3739-7.4091,0-3.6875,2.41-6.77,8.1537-6.77,3.899,0,6.6294,1.3118,8.3663,4.0058Z"/>
      <path id="type_CompoundPathItem_9" data-name="type &lt;CompoundPathItem&gt;" d="M310.3272,145.8368c-.6377-2.9782-2.2326-4.3241-4.9277-4.3241-3.2613,0-5.0334,2.1257-5.0334,7.4091v3.1192c0,5.2108,1.7721,7.4092,5.0334,7.4092,2.8009,0,4.29-1.346,4.9277-4.3242h3.9353c-.8151,5.4949-4.0058,7.9048-8.863,7.9048-5.46,0-9.1461-3.2965-9.1461-10.99v-3.1192c0-7.6933,3.6864-10.99,9.1461-10.99,4.8572,0,8.0832,2.5872,8.8982,7.9048Z"/>
      <path id="type_CompoundPathItem_10" data-name="type &lt;CompoundPathItem&gt;" d="M318.828,162.7125l8.5084-24.4622h3.9l8.5083,24.4622h-4.3605l-1.6664-5.07H324.89l-1.6654,5.07Zm7.1966-8.6163h6.5236l-3.2612-9.8895Z"/>
      <path id="type_CompoundPathItem_11" data-name="type &lt;CompoundPathItem&gt;" d="M350.1941,159.166h10.8841v3.5465H346.0815V138.25h4.1126Z"/>
      <path id="type_CompoundPathItem_12" data-name="type &lt;CompoundPathItem&gt;" d="M382.4489,138.25v3.5807H371.5648v6.452h9.82v3.5444h-9.82v7.3386h10.8841v3.5465H367.4522V138.25Z"/>
    </g>
  </g>
</svg>
