<?xml version="1.0" encoding="utf-8"?>
<!-- Generator: Adobe Illustrator 24.0.3, SVG Export Plug-In . SVG Version: 6.00 Build 0)  -->
<svg version="1.1" id="Layer_1" xmlns="http://www.w3.org/2000/svg" xmlns:xlink="http://www.w3.org/1999/xlink" x="0px" y="0px"
	 viewBox="0 0 720 216" style="enable-background:new 0 0 720 216;" xml:space="preserve">
<g>
	<g>
		<path class="st0" d="M342.53,191.22V194h-15.57v-25.66h15.36v2.78h-11.97v8.16h9.55v2.78h-9.55v9.16H342.53z"/>
		<path class="st0" d="M380.21,168.34V194h-2.78c-2.03-7.66-7.34-16.29-12.47-20.77V194h-3.28v-25.66h2.35
			c5.49,4.35,10.09,10.7,12.9,16.54v-16.54H380.21z"/>
		<path class="st0" d="M418.74,171.23h-8.45V194h-3.38v-22.77h-8.45v-2.89h20.28V171.23z"/>
		<path class="st0" d="M452.54,191.22V194h-15.57v-25.66h15.36v2.78h-11.97v8.16h9.55v2.78h-9.55v9.16H452.54z"/>
		<path class="st0" d="M481.02,184.88c-1.07-0.96-1.75-1.21-2.82-1.21h-3.13V194h-3.39v-25.66h8.13c5.66,0,9.05,2.28,9.05,7.06
			c0,4.73-3.32,6.66-6.77,7.26v0.11c0.89,0.29,1.82,0.85,2.74,1.78c2.35,2.18,4.17,5.77,4.81,9.45h-3.67
			C485.05,190.04,483.45,187.02,481.02,184.88z M479.84,171.13h-4.77v9.83h4.03c3.35,0,6.3-1.38,6.3-5.16
			C485.4,172.65,483.41,171.13,479.84,171.13z"/>
		<path class="st0" d="M526.43,176.9c0,5.66-3.49,8.51-9.19,8.51h-4.84V194h-3.39v-25.66h8.23
			C522.94,168.34,526.43,171.19,526.43,176.9z M522.98,176.9c0-3.82-1.96-5.77-5.74-5.77h-4.84v11.54h4.84
			C521.02,182.66,522.98,180.67,522.98,176.9z"/>
		<path class="st0" d="M554.74,184.88c-1.07-0.96-1.75-1.21-2.82-1.21h-3.13V194h-3.39v-25.66h8.13c5.66,0,9.05,2.28,9.05,7.06
			c0,4.73-3.32,6.66-6.77,7.26v0.11c0.89,0.29,1.82,0.85,2.74,1.78c2.35,2.18,4.17,5.77,4.81,9.45h-3.67
			C558.77,190.04,557.16,187.02,554.74,184.88z M553.56,171.13h-4.77v9.83h4.03c3.35,0,6.3-1.38,6.3-5.16
			C559.12,172.65,557.13,171.13,553.56,171.13z"/>
		<path class="st0" d="M586.12,168.34V194h-3.39v-25.66H586.12z"/>
		<path class="st0" d="M614.39,170.95c-3.67,0-4.92,1.71-4.92,3.92c0,2.14,1.53,3.42,5.49,4.34c5.1,1.21,7.73,3.32,7.73,7.59
			c0,4.34-3.42,7.55-9.23,7.55c-2.39,0-4.49-0.39-6.16-1.03c-1.17-0.43-1.46-0.93-1.46-1.71c0-0.72,0.25-1.57,0.71-2.24
			c2.35,1.35,4.6,2.02,7.02,2.02c3.85,0,5.59-1.67,5.59-4.2c0-2.39-1.46-3.88-5.98-4.95c-4.67-1.07-7.2-3.28-7.2-6.98
			c0-3.96,2.64-7.27,8.45-7.27c2.18,0,3.74,0.25,5.42,0.75c1.18,0.32,1.5,0.82,1.5,1.57c0,0.75-0.29,1.6-0.71,2.24
			C618.67,171.48,616.67,170.95,614.39,170.95z"/>
		<path class="st0" d="M657.81,191.22V194h-15.57v-25.66h15.36v2.78h-11.97v8.16h9.55v2.78h-9.55v9.16H657.81z"/>
	</g>
	<g>
		<path class="st0" d="M256.62,81.06v57.98h-16.63V81.06h-15.66V67.03h47.93v14.03H256.62z"/>
		<path class="st0" d="M280.44,90.89h15.55v7.56c1.4-2.7,3.56-5.19,6.04-6.7c2.59-1.62,5.29-2.05,8.31-2.05
			c1.95,0,3.35,0.22,5.08,0.75l-0.87,14.58c-2.05-1.08-4.32-1.73-7.02-1.73c-3.35,0-5.83,1.19-7.78,3.24
			c-3.45,3.67-3.78,8.85-3.78,12.95v19.54h-15.55V90.89z"/>
		<path class="st0" d="M343.15,90.89v26.55c0,2.16,0.21,5.51,2.69,7.78c1.08,0.97,3.03,2.27,6.48,2.27c2.91,0,5.18-0.97,6.59-2.27
			c2.27-2.16,2.59-5.4,2.59-7.78V90.89h15.55v28.07c0,5.51-0.54,10.69-5.4,15.44c-5.51,5.4-13.61,6.26-19.33,6.26
			c-5.94,0-13.92-0.87-19.43-6.26c-4.43-4.32-5.29-9.18-5.29-14.47V90.89H343.15z"/>
		<path class="st0" d="M444.15,117.66H408.2c0,2.59,0.97,6.04,2.91,8.2c2.38,2.59,5.62,3.03,7.99,3.03c2.27,0,4.64-0.44,6.26-1.41
			c0.21-0.11,2.05-1.29,3.34-3.99L443.4,125c-2.16,6.8-6.48,10.36-9.29,12.1c-4.64,2.81-9.82,3.56-15.22,3.56
			c-7.23,0-13.6-1.29-19.22-6.91c-4.22-4.21-7.23-10.58-7.23-18.57c0-6.91,2.48-14.04,7.34-19c5.83-5.83,13.07-6.91,18.46-6.91
			s13.17,0.97,19.11,7.23c5.72,6.04,6.8,13.6,6.8,19.54V117.66z M429.79,108.38c-0.11-0.43-0.87-3.45-3.13-5.61
			c-1.73-1.63-4.22-2.7-7.35-2.7c-3.99,0-6.37,1.62-7.88,3.13c-1.19,1.29-2.27,3.02-2.69,5.18H429.79z"/>
		<path class="st0" d="M461.39,139.04V67.03h14.47l39.09,46.43V67.03h16.63v72.01H517.1L478.02,92.4v46.64H461.39z"/>
		<path class="st0" d="M595.32,125.44h-27.21l-5.5,13.6h-17.27l29.04-72.01h15.23L618,139.04h-17.27L595.32,125.44z M590.79,112.7
			l-8.85-24.18l-8.96,24.18H590.79z"/>
		<path class="st0" d="M668.91,84.63c-5.4-4.86-10.04-5.19-12.09-5.19c-2.27,0-5.07,0.32-7.02,2.48c-1.08,1.08-1.83,2.7-1.83,4.54
			c0,1.72,0.53,3.02,1.62,3.99c1.72,1.62,4.21,2.27,9.07,4.1l5.4,2.05c3.13,1.19,7.02,2.81,9.82,5.5c4.22,4,5.29,9.18,5.29,13.39
			c0,7.45-2.59,13.92-6.37,17.82c-6.38,6.69-15.66,7.34-20.41,7.34c-5.19,0-9.72-0.75-14.26-3.02c-3.67-1.84-7.88-5.19-10.58-7.89
			l8.63-11.87c1.84,1.83,4.75,4.31,6.69,5.5c2.81,1.73,5.73,2.59,9.07,2.59c2.16,0,5.19-0.43,7.56-2.48c1.41-1.19,2.6-3.13,2.6-5.83
			c0-2.38-0.97-3.88-2.48-5.19c-1.94-1.62-6.37-3.24-8.42-3.99l-5.94-2.05c-3.35-1.19-7.23-2.69-10.04-5.72
			c-3.78-4-4.32-9.07-4.32-12.52c0-6.37,1.95-11.76,6.26-16.19c5.07-5.19,11.12-6.59,17.82-6.59c4.97,0,12.95,0.86,21.38,7.12
			L668.91,84.63z"/>
	</g>
	<g>
		<g>
			<polygon class="st0" points="678.23,68.21 682.11,68.21 682.11,78.61 683.68,78.61 683.68,68.21 687.58,68.21 687.58,66.81 
				678.23,66.81 			"/>
		</g>
		<g>
			<path class="st0" d="M698.29,66.81l-2.83,8.21c-0.29,0.83-0.49,1.46-0.63,1.89c-0.12-0.39-0.31-0.97-0.56-1.74l-2.8-8.35h-2.35
				v11.8h1.5V68.56l3.41,10.04h1.41l3.43-9.87v9.87h1.5v-11.8H698.29z"/>
		</g>
	</g>
	<g>
		<path class="st0" d="M179.23,177.44C127.09,87.99,55.81,43,26.89,25.26c-3.39-2.09-7.38,1.56-5.61,5.13
			C26.71,41.33,34.31,59.07,39.7,81.4c0.28,1.15,1.06,2.14,2.13,2.65c0,0,7.26,3.27,12.94,6.16c5.69,2.89,2.94,5.69,0.54,6.04
			c-2.39,0.36-8.48,1.26-8.48,1.26c-2.09,0.36-3.45,2.25-3.22,4.36c2.67,25.41-8.34,61.37-25.58,81c-2.3,2.62-0.6,6.71,2.89,6.7
			l151.7-0.33C182.68,189.57,183.08,184.05,179.23,177.44z M162.74,180.28H78.71c-9.59,0-8.71-0.72,0.08-1.6
			c10.47-1.06,23.08-2.36,28.07-2.98c14.62-1.85,23.72-6.54,17.41-23.32c0,0-13.77-44.9-68.73-93.75c-4.54-4.04-8.88-8.12,0.43-0.38
			c22.89,19.05,68.23,60.5,107.99,119.29C165.08,179.2,163.89,180.28,162.74,180.28z"/>
	</g>
</g>
</svg>
