<?xml version="1.0" encoding="utf-8"?>
<!-- Generator: Adobe Illustrator 24.0.3, SVG Export Plug-In . SVG Version: 6.00 Build 0)  -->
<svg version="1.1" id="Layer_1" xmlns="http://www.w3.org/2000/svg" xmlns:xlink="http://www.w3.org/1999/xlink" x="0px" y="0px"
	 viewBox="0 0 720 216" style="enable-background:new 0 0 720 216;" xml:space="preserve">
<g>
	<g>
		<path class="st0" d="M525.94,166.64c1.68,0,3.23,0.2,4.94,0.67c1.07,0.3,1.41,0.8,1.41,1.48c0,0.74-0.27,1.38-0.64,1.95
			c-1.82-0.98-3.76-1.45-5.61-1.45c-4.07,0-6.75,2.89-6.75,9.74c0,6.82,2.68,9.81,6.75,9.81c1.92,0,4.14-0.57,5.91-1.54
			c0.38,0.6,0.64,1.24,0.64,1.94c0,0.71-0.3,1.18-1.41,1.48c-1.72,0.5-3.43,0.77-5.21,0.77c-5.98,0-9.95-3.83-9.95-12.46
			C516.02,170.37,520.09,166.64,525.94,166.64z"/>
		<path class="st0" d="M549.2,179.04c0-8.67,3.8-12.4,9.98-12.4c6.22,0,10.01,3.73,10.01,12.4c0,8.64-3.8,12.46-10.01,12.46
			C553,191.5,549.2,187.68,549.2,179.04z M565.97,179.04c0-6.86-2.48-9.74-6.79-9.74c-4.27,0-6.72,2.89-6.72,9.74
			c0,6.82,2.46,9.81,6.72,9.81C563.48,188.85,565.97,185.86,565.97,179.04z"/>
		<path class="st0" d="M596.39,182.57c-1.01-0.91-1.65-1.14-2.65-1.14h-2.95v9.74h-3.19v-24.2h7.66c5.34,0,8.54,2.15,8.54,6.66
			c0,4.46-3.13,6.28-6.39,6.85v0.11c0.84,0.27,1.72,0.8,2.59,1.67c2.21,2.05,3.93,5.44,4.54,8.91h-3.46
			C600.18,187.44,598.67,184.58,596.39,182.57z M595.28,169.6h-4.5v9.27h3.79c3.17,0,5.95-1.31,5.95-4.87
			C600.52,171.04,598.64,169.6,595.28,169.6z"/>
		<path class="st0" d="M637.46,188.55v2.62h-14.68v-24.2h14.49v2.63h-11.29v7.69h9.01v2.62h-9.01v8.64H637.46z"/>
	</g>
	<g>
		<path class="st0" d="M259.16,84.67v54.67h-15.68V84.67h-14.76V71.45h45.2v13.23H259.16z"/>
		<path class="st0" d="M281.63,93.94h14.66v7.13c1.32-2.55,3.36-4.89,5.7-6.32c2.44-1.53,4.99-1.93,7.84-1.93
			c1.84,0,3.16,0.21,4.79,0.71l-0.82,13.75c-1.94-1.02-4.07-1.63-6.61-1.63c-3.16,0-5.5,1.12-7.33,3.06
			c-3.26,3.46-3.56,8.35-3.56,12.21v18.42h-14.66V93.94z"/>
		<path class="st0" d="M340.75,93.94v25.04c0,2.04,0.2,5.2,2.54,7.33c1.02,0.92,2.85,2.14,6.12,2.14c2.74,0,4.88-0.92,6.2-2.14
			c2.14-2.04,2.44-5.09,2.44-7.33V93.94h14.66v26.47c0,5.2-0.51,10.08-5.08,14.56c-5.2,5.09-12.83,5.91-18.23,5.91
			c-5.61,0-13.13-0.82-18.33-5.91c-4.17-4.07-4.99-8.65-4.99-13.64V93.94H340.75z"/>
		<path class="st0" d="M436,119.19h-33.9c0,2.44,0.91,5.7,2.74,7.74c2.24,2.44,5.29,2.85,7.54,2.85c2.14,0,4.37-0.41,5.91-1.33
			c0.2-0.1,1.93-1.22,3.15-3.76l13.85,1.42c-2.04,6.42-6.12,9.77-8.76,11.41c-4.37,2.65-9.27,3.36-14.35,3.36
			c-6.83,0-12.83-1.22-18.13-6.52c-3.97-3.97-6.81-9.98-6.81-17.51c0-6.52,2.34-13.24,6.91-17.91c5.51-5.5,12.32-6.52,17.42-6.52
			c5.08,0,12.42,0.92,18.01,6.82c5.39,5.7,6.42,12.83,6.42,18.42V119.19z M422.46,110.43c-0.1-0.4-0.81-3.26-2.95-5.29
			c-1.63-1.53-3.97-2.55-6.93-2.55c-3.76,0-6,1.53-7.42,2.95c-1.12,1.22-2.14,2.85-2.54,4.88H422.46z"/>
		<path class="st0" d="M452.25,139.35v-67.9h13.64l36.86,43.78V71.45h15.67v67.9h-13.64l-36.85-43.98v43.98H452.25z"/>
		<path class="st0" d="M578.54,126.52h-25.65l-5.2,12.83h-16.28l27.38-67.9h14.35l26.77,67.9h-16.28L578.54,126.52z M574.27,114.51
			l-8.35-22.8l-8.45,22.8H574.27z"/>
		<path class="st0" d="M647.93,88.04c-5.08-4.58-9.47-4.89-11.4-4.89c-2.13,0-4.78,0.31-6.61,2.34c-1.02,1.02-1.73,2.55-1.73,4.28
			c0,1.63,0.51,2.85,1.53,3.76c1.62,1.53,3.96,2.14,8.55,3.87l5.1,1.94c2.95,1.12,6.61,2.65,9.26,5.19c3.97,3.77,5,8.66,5,12.63
			c0,7.03-2.44,13.13-6,16.8c-6.02,6.31-14.76,6.92-19.25,6.92c-4.88,0-9.16-0.71-13.44-2.85c-3.45-1.73-7.42-4.89-9.96-7.44
			l8.13-11.19c1.73,1.72,4.49,4.07,6.32,5.19c2.64,1.63,5.39,2.44,8.55,2.44c2.04,0,4.9-0.4,7.13-2.34c1.33-1.12,2.46-2.95,2.46-5.5
			c0-2.24-0.92-3.66-2.34-4.89c-1.83-1.53-6-3.05-7.95-3.76l-5.59-1.94c-3.17-1.12-6.83-2.54-9.47-5.39
			c-3.56-3.77-4.07-8.55-4.07-11.81c0-6,1.83-11.09,5.91-15.27c4.78-4.89,10.49-6.21,16.79-6.21c4.68,0,12.22,0.81,20.16,6.71
			L647.93,88.04z"/>
	</g>
	<g>
		<g>
			<polygon class="st0" points="656.72,72.55 660.39,72.55 660.39,82.36 661.86,82.36 661.86,72.55 665.54,72.55 665.54,71.24 
				656.72,71.24 			"/>
		</g>
		<g>
			<path class="st0" d="M675.64,71.24l-2.66,7.74c-0.27,0.78-0.46,1.37-0.59,1.78c-0.11-0.36-0.29-0.91-0.53-1.64l-2.64-7.88H667
				v11.12h1.42v-9.47l3.22,9.47h1.33l3.23-9.31v9.31h1.42V71.24H675.64z"/>
		</g>
	</g>
	<g>
		<path class="st0" d="M186.19,174.84C137.02,90.5,69.82,48.07,42.55,31.34c-3.21-1.96-6.97,1.48-5.3,4.84
			c5.12,10.32,12.29,27.05,17.38,48.1c0.26,1.08,0.99,2.02,2,2.5c0,0,6.85,3.09,12.21,5.81c5.36,2.72,2.76,5.37,0.51,5.7
			c-2.26,0.34-8,1.19-8,1.19c-1.97,0.34-3.25,2.12-3.04,4.1c2.52,23.97-7.87,57.87-24.12,76.38c-2.17,2.48-0.57,6.33,2.73,6.32
			l143.04-0.31C189.45,186.28,189.83,181.08,186.19,174.84z M170.64,177.52H91.4c-9.03,0-8.21-0.67,0.08-1.51
			c9.88-0.99,21.76-2.22,26.47-2.81c13.79-1.74,22.36-6.17,16.42-21.99c0,0-12.99-42.33-64.81-88.4c-4.28-3.81-8.38-7.66,0.4-0.35
			c21.59,17.96,64.35,57.04,101.83,112.48C172.85,176.5,171.72,177.52,170.64,177.52z"/>
	</g>
</g>
</svg>
