<svg xmlns="http://www.w3.org/2000/svg" viewBox="0 0 203.2595 138.3392">
  <title>truenas_scale-logo-mark-one-color-rgb</title>
  <g id="black-rgb">
    <g id="logoMark">
      <polygon id="logoMark_PathItem_" data-name="logoMark &lt;PathItem&gt;" points="119.546 38.499 101.619 48.853 83.628 38.469 101.577 28.115 119.546 38.499"/>
      <polygon id="logoMark_PathItem_2" data-name="logoMark &lt;PathItem&gt;" points="146.014 23.208 128.036 33.596 105.822 20.763 105.822 0.004 146.014 23.208"/>
      <polygon id="logoMark_PathItem_3" data-name="logoMark &lt;PathItem&gt;" points="97.332 0 97.332 20.763 75.134 33.566 57.156 23.187 97.332 0"/>
      <path id="logoMark_PathItem_4" data-name="logoMark &lt;PathItem&gt;" d="M44.4291,107.52.0085,81.8667,0,61.1166,20.0326,72.6845c.051.03.1061.0637.1614.0934L44.4165,86.7655Z"/>
      <polygon id="logoMark_PathItem_5" data-name="logoMark &lt;PathItem&gt;" points="66.648 69.063 48.7 79.43 30.713 69.046 48.674 58.684 66.648 69.063"/>
      <polygon id="logoMark_PathItem_6" data-name="logoMark &lt;PathItem&gt;" points="44.395 51.353 22.219 64.143 4.241 53.764 44.387 30.594 44.395 51.353"/>
      <path id="logoMark_PathItem_7" data-name="logoMark &lt;PathItem&gt;" d="M93.0992,53.7854,75.16,64.1476,52.9448,51.319V30.6029L72.91,42.1283c.0509.034.1062.0637.1614.0934Z"/>
      <polygon id="logoMark_PathItem_8" data-name="logoMark &lt;PathItem&gt;" points="150.298 91.923 150.298 112.682 146.282 115 105.86 138.339 105.86 117.589 128.308 104.625 136.794 99.722 150.298 91.923"/>
      <polygon id="logoMark_PathItem_9" data-name="logoMark &lt;PathItem&gt;" points="119.584 99.857 101.615 110.237 83.628 99.853 101.615 89.474 119.584 99.857"/>
      <polygon id="logoMark_PathItem_10" data-name="logoMark &lt;PathItem&gt;" points="97.37 61.363 97.37 82.121 93.316 84.46 75.134 94.95 74.934 94.835 57.156 84.567 75.333 74.077 83.824 69.178 97.332 61.384 97.37 61.363"/>
      <path id="logoMark_PathItem_11" data-name="logoMark &lt;PathItem&gt;" d="M97.37,117.5892V138.335l-40.4-23.3226-4.05-2.3391-.0085-20.75.034.0212,13.5037,7.794,6.495,3.7484c.0552.034.11.068.1655.0977l1.83,1.057Z"/>
      <polygon id="logoMark_PathItem_12" data-name="logoMark &lt;PathItem&gt;" points="203.259 61.121 203.259 81.884 158.822 107.537 158.822 86.791 203.259 61.121"/>
      <polygon id="logoMark_PathItem_13" data-name="logoMark &lt;PathItem&gt;" points="172.546 69.059 154.577 79.438 136.59 69.051 154.577 58.676 172.546 69.059"/>
      <polygon id="logoMark_PathItem_14" data-name="logoMark &lt;PathItem&gt;" points="199.014 53.768 181.036 64.156 158.822 51.327 158.822 30.565 199.014 53.768"/>
      <polygon id="logoMark_PathItem_15" data-name="logoMark &lt;PathItem&gt;" points="150.332 30.56 150.332 51.323 128.096 64.152 110.118 53.768 150.332 30.56"/>
      <polygon id="logoMark_PathItem_16" data-name="logoMark &lt;PathItem&gt;" points="146.053 84.567 128.308 94.823 128.304 94.823 105.881 81.875 105.873 61.371 119.364 69.157 127.854 74.06 146.053 84.567"/>
    </g>
  </g>
</svg>
