<?xml version="1.0" encoding="UTF-8" standalone="no"?>
<svg
   xmlns:dc="http://purl.org/dc/elements/1.1/"
   xmlns:cc="http://creativecommons.org/ns#"
   xmlns:rdf="http://www.w3.org/1999/02/22-rdf-syntax-ns#"
   xmlns:svg="http://www.w3.org/2000/svg"
   xmlns="http://www.w3.org/2000/svg"
   xmlns:sodipodi="http://sodipodi.sourceforge.net/DTD/sodipodi-0.dtd"
   xmlns:inkscape="http://www.inkscape.org/namespaces/inkscape"
   viewBox="0 0 512 163.0308"
   version="1.1"
   id="svg35"
   sodipodi:docname="truenas_scale_logotype.svg"
   width="512"
   height="163.03081"
   inkscape:version="0.92.4 (5da689c313, 2019-01-14)">
  <metadata
     id="metadata41">
    <rdf:RDF>
      <cc:Work
         rdf:about="">
        <dc:format>image/svg+xml</dc:format>
        <dc:type
           rdf:resource="http://purl.org/dc/dcmitype/StillImage" />
        <dc:title>truenas_scale-logo-one-color-rgb</dc:title>
      </cc:Work>
    </rdf:RDF>
  </metadata>
  <defs
     id="defs39" />
  <sodipodi:namedview
     pagecolor="#ffffff"
     bordercolor="#666666"
     borderopacity="1"
     objecttolerance="10"
     gridtolerance="10"
     guidetolerance="10"
     inkscape:pageopacity="0"
     inkscape:pageshadow="2"
     inkscape:window-width="1920"
     inkscape:window-height="1023"
     id="namedview37"
     showgrid="false"
     inkscape:showpageshadow="false"
     inkscape:zoom="0.41875669"
     inkscape:cx="377.3074"
     inkscape:cy="81.515404"
     inkscape:window-x="0"
     inkscape:window-y="28"
     inkscape:window-maximized="1"
     inkscape:current-layer="black-rgb" />
  <title
     id="title2">truenas_scale-logo-one-color-rgb</title>
  <g
     id="black-rgb">
    <g
       id="type"
       transform="translate(-243.55)">
      <path
         id="type_CompoundPathItem_"
         data-name="type &lt;CompoundPathItem&gt;"
         d="m 315.505,20.1085 v 11.0924 h -29.8631 v 87.03 H 273.413 v -87.03 H 243.55 V 20.1085 Z"
         inkscape:connector-curvature="0" />
      <path
         id="type_CompoundPathItem_2"
         data-name="type &lt;CompoundPathItem&gt;"
         d="m 354.0377,62.4868 c -2.9867,-4.1254 -6.6827,-5.9734 -11.9426,-5.9734 -8.6782,0 -15.2157,6.5417 -15.2157,17.2068 v 44.51 H 315.5007 V 47.128 h 11.3787 v 6.9691 c 2.9825,-4.9779 7.8193,-8.1078 16.4933,-8.1078 9.6695,0 15.7839,3.2709 20.3345,9.6716 z"
         inkscape:connector-curvature="0" />
      <path
         id="type_CompoundPathItem_3"
         data-name="type &lt;CompoundPathItem&gt;"
         d="m 427.843,118.2307 h -11.3787 v -6.9669 c -3.555,5.403 -8.5286,8.1056 -19.0527,8.1056 -15.2157,0 -25.8807,-7.9646 -25.8807,-27.8741 V 47.128 h 11.3743 v 44.2263 c 0,14.3633 7.8194,17.491 16.2113,17.491 10.6651,0 17.3478,-7.5373 17.3478,-17.35 V 47.128 h 11.3787 z"
         inkscape:connector-curvature="0" />
      <path
         id="type_CompoundPathItem_4"
         data-name="type &lt;CompoundPathItem&gt;"
         d="m 495.2432,107.4224 c -4.9779,8.6761 -12.5153,11.947 -24.8852,11.947 -19.057,0 -30.4356,-12.3721 -30.4356,-32.1384 v -9.3875 c 0,-20.1914 9.5285,-31.8542 28.1582,-31.8542 18.7707,0 28.1582,11.52 28.1582,31.8542 V 85.24 H 451.301 v 1.991 c 0,12.229 5.8325,21.8985 18.2024,21.8985 9.2422,0 13.9381,-2.7 16.9206,-7.9625 z M 451.301,75.2841 h 33.4181 c -0.5683,-11.9448 -5.8282,-19.0549 -16.6385,-19.0549 -10.9471,0 -16.0706,7.2532 -16.7796,19.0549 z"
         inkscape:connector-curvature="0" />
      <path
         id="type_CompoundPathItem_5"
         data-name="type &lt;CompoundPathItem&gt;"
         d="m 584.9734,20.1085 v 98.1222 H 570.326 l -39.96,-66.6952 v 66.6952 H 514.4369 V 20.1085 h 14.22 L 569.044,87.6562 V 20.1085 Z"
         inkscape:connector-curvature="0" />
      <path
         id="type_CompoundPathItem_6"
         data-name="type &lt;CompoundPathItem&gt;"
         d="m 596.0572,118.2307 34.1317,-98.1222 h 15.6429 l 34.1274,98.1222 H 662.47 l -6.6871,-20.3346 h -35.4088 l -6.6828,20.3346 z M 624.9247,83.676 h 26.167 L 638.0082,44 Z"
         inkscape:connector-curvature="0" />
      <path
         id="type_CompoundPathItem_7"
         data-name="type &lt;CompoundPathItem&gt;"
         d="m 740.8219,43.8571 c -4.8368,-6.6827 -10.0967,-10.665 -21.1891,-10.665 -10.0968,0 -16.07,4.5506 -16.07,12.7972 0,9.3875 7.3964,13.0835 21.0482,16.07 19.766,4.2667 30.0038,11.6607 30.0038,29.295 0,14.6474 -9.8148,28.1561 -33.4181,28.1561 -16.78,0 -28.5855,-5.1189 -36.6912,-16.0681 l 12.9426,-8.96 c 5.8282,6.969 11.6606,10.665 22.894,10.665 13.5108,0 17.7751,-5.9713 17.7751,-13.0813 0,-7.8215 -4.4053,-12.6563 -21.4711,-16.3544 C 697.73,71.729 687.065,62.6278 687.065,45.9893 c 0,-14.7884 9.6695,-27.16 32.7088,-27.16 15.643,0 26.5943,5.2621 33.5591,16.07 z"
         inkscape:connector-curvature="0" />
      <path
         id="type_CompoundPathItem_8"
         data-name="type &lt;CompoundPathItem&gt;"
         d="m 286.1214,144.17 a 5.7044,5.7044 0 0 0 -5.2823,-2.6577 c -2.5178,0 -4.0069,1.1344 -4.0069,3.19 0,2.3393 1.8437,3.2623 5.2471,4.0058 4.9276,1.0639 7.4807,2.9076 7.4807,7.3044 0,3.6512 -2.4462,7.0182 -8.331,7.0182 -4.1832,0 -7.1261,-1.2754 -9.1472,-4.0058 l 3.226,-2.2326 a 6.5508,6.5508 0 0 0 5.7086,2.6578 c 3.367,0 4.4309,-1.4891 4.4309,-3.26 0,-1.9506 -1.0992,-3.1556 -5.3528,-4.0785 -4.7151,-0.9913 -7.3739,-3.26 -7.3739,-7.4091 0,-3.6875 2.41,-6.77 8.1537,-6.77 3.899,0 6.6294,1.3118 8.3663,4.0058 z"
         inkscape:connector-curvature="0" />
      <path
         id="type_CompoundPathItem_9"
         data-name="type &lt;CompoundPathItem&gt;"
         d="m 310.3272,145.8368 c -0.6377,-2.9782 -2.2326,-4.3241 -4.9277,-4.3241 -3.2613,0 -5.0334,2.1257 -5.0334,7.4091 v 3.1192 c 0,5.2108 1.7721,7.4092 5.0334,7.4092 2.8009,0 4.29,-1.346 4.9277,-4.3242 h 3.9353 c -0.8151,5.4949 -4.0058,7.9048 -8.863,7.9048 -5.46,0 -9.1461,-3.2965 -9.1461,-10.99 v -3.1192 c 0,-7.6933 3.6864,-10.99 9.1461,-10.99 4.8572,0 8.0832,2.5872 8.8982,7.9048 z"
         inkscape:connector-curvature="0" />
      <path
         id="type_CompoundPathItem_10"
         data-name="type &lt;CompoundPathItem&gt;"
         d="m 318.828,162.7125 8.5084,-24.4622 h 3.9 l 8.5083,24.4622 h -4.3605 l -1.6664,-5.07 H 324.89 l -1.6654,5.07 z m 7.1966,-8.6163 h 6.5236 l -3.2612,-9.8895 z"
         inkscape:connector-curvature="0" />
      <path
         id="type_CompoundPathItem_11"
         data-name="type &lt;CompoundPathItem&gt;"
         d="m 350.1941,159.166 h 10.8841 v 3.5465 H 346.0815 V 138.25 h 4.1126 z"
         inkscape:connector-curvature="0" />
      <path
         id="type_CompoundPathItem_12"
         data-name="type &lt;CompoundPathItem&gt;"
         d="m 382.4489,138.25 v 3.5807 h -10.8841 v 6.452 h 9.82 v 3.5444 h -9.82 v 7.3386 h 10.8841 v 3.5465 H 367.4522 V 138.25 Z"
         inkscape:connector-curvature="0" />
    </g>
  </g>
</svg>
