<svg xmlns="http://www.w3.org/2000/svg" viewBox="0 0 635.8915 137.7172">
  <title>truenas_core-logo-one-color-rgb</title>
  <g id="black-rgb">
    <g id="logoMark">
      <polygon id="logoMark_PathItem_" data-name="logoMark &lt;PathItem&gt;" points="132.178 41.498 132.178 69.662 71.878 104.493 71.878 76.329 132.178 41.498"/>
      <path id="logoMark_PathItem_2" data-name="logoMark &lt;PathItem&gt;" d="M60.34,76.3288v28.1641L0,69.6619V41.4978L27.266,57.2266a.439.439,0,0,0,.1.06Z"/>
      <polygon id="logoMark_PathItem_3" data-name="logoMark &lt;PathItem&gt;" points="90.5 52.256 66.109 66.349 41.697 52.256 66.109 38.164 90.5 52.256"/>
      <polygon id="logoMark_PathItem_4" data-name="logoMark &lt;PathItem&gt;" points="126.429 31.518 102.018 45.61 71.878 28.184 71.878 0 126.429 31.518"/>
      <polygon id="logoMark_PathItem_5" data-name="logoMark &lt;PathItem&gt;" points="60.34 0 60.34 28.184 30.16 45.59 5.749 31.518 60.34 0"/>
    </g>
    <g id="type">
      <path id="type_CompoundPathItem_" data-name="type &lt;CompoundPathItem&gt;" d="M235.2522,7.4836V17.6042H208.0055V97.0093H196.8479V17.6042H169.6012V7.4836Z"/>
      <path id="type_CompoundPathItem_2" data-name="type &lt;CompoundPathItem&gt;" d="M270.4091,46.1492a12.3261,12.3261,0,0,0-10.8964-5.45c-7.9179,0-13.8826,5.9687-13.8826,15.6994V97.0093H235.2483V32.1359H245.63v6.3585c2.7212-4.5418,7.1343-7.3974,15.0483-7.3974,8.8223,0,14.4011,2.9843,18.553,8.8243Z"/>
      <path id="type_CompoundPathItem_3" data-name="type &lt;CompoundPathItem&gt;" d="M337.7482,97.0093H327.3665V90.6527c-3.2436,4.93-7.7815,7.3955-17.3835,7.3955-13.8827,0-23.6134-7.2668-23.6134-25.432v-40.48h10.3779V72.4876c0,13.1048,7.1343,15.9586,14.791,15.9586,9.7307,0,15.828-6.877,15.828-15.83v-40.48h10.3817Z"/>
      <path id="type_CompoundPathItem_4" data-name="type &lt;CompoundPathItem&gt;" d="M399.2435,87.1479c-4.5418,7.916-11.4188,10.9-22.705,10.9-17.3874,0-27.7692-11.2882-27.7692-29.3227V60.16c0-18.4224,8.6937-29.0634,25.6913-29.0634,17.1262,0,25.6912,10.51,25.6912,29.0634v6.7484H359.1511v1.8167c0,11.1576,5.3215,19.98,16.6077,19.98,8.4325,0,12.717-2.4639,15.4381-7.2649ZM359.1511,57.8252h30.49c-.5185-10.8983-5.3176-17.3854-15.1808-17.3854C364.4726,40.44,359.7983,47.0575,359.1511,57.8252Z"/>
      <path id="type_CompoundPathItem_5" data-name="type &lt;CompoundPathItem&gt;" d="M481.1124,7.4836V97.0093H467.7483l-36.459-60.852v60.852H416.7556V7.4836H429.73l36.8488,61.63V7.4836Z"/>
      <path id="type_CompoundPathItem_6" data-name="type &lt;CompoundPathItem&gt;" d="M491.2252,97.0093,522.3665,7.4836H536.639l31.1375,89.5257H551.82l-6.1012-18.5531H513.4116l-6.0972,18.5531Zm26.3384-31.5274h23.8745l-11.9373-36.2Z"/>
      <path id="type_CompoundPathItem_7" data-name="type &lt;CompoundPathItem&gt;" d="M623.307,29.1516c-4.4131-6.0973-9.2122-9.7307-19.3327-9.7307-9.2122,0-14.6624,4.1519-14.6624,11.6761,0,8.565,6.7484,11.9372,19.2041,14.6623,18.0346,3.8927,27.3755,10.6391,27.3755,26.7283,0,13.3641-8.9549,25.6893-30.49,25.6893-15.31,0-26.0811-4.6705-33.4766-14.66l11.8087-8.1752c5.3175,6.3585,10.639,9.7307,20.8882,9.7307,12.3271,0,16.2179-5.4482,16.2179-11.9353,0-7.1363-4.0194-11.5475-19.59-14.9216C583.9905,54.5817,574.26,46.2778,574.26,31.097c0-13.4928,8.8223-24.781,29.8431-24.781,14.2725,0,24.2644,4.8011,30.619,14.6624Z"/>
      <path id="type_CompoundPathItem_8" data-name="type &lt;CompoundPathItem&gt;" d="M208.7655,122.03c-.5818-2.7173-2.037-3.9463-4.496-3.9463-2.9755,0-4.5924,1.9405-4.5924,6.76V127.69c0,4.7542,1.6169,6.76,4.5924,6.76,2.5555,0,3.9142-1.229,4.496-3.9463h3.59c-.7436,5.0135-3.6548,7.2132-8.0865,7.2132-4.98,0-8.3447-3.0086-8.3447-10.0269v-2.8469c0-7.0193,3.3644-10.027,8.3447-10.027,4.4317,0,7.3751,2.3615,8.1187,7.2132Z"/>
      <path id="type_CompoundPathItem_9" data-name="type &lt;CompoundPathItem&gt;" d="M226.3547,137.7172c-4.98,0-8.3448-3.0086-8.3448-10.0269v-2.8469c0-7.0193,3.3644-10.027,8.3448-10.027,5.0135,0,8.3779,3.0077,8.3779,10.027V127.69C234.7326,134.7086,231.3682,137.7172,226.3547,137.7172ZM221.7622,127.69c0,4.82,1.6169,6.76,4.5925,6.76s4.6256-1.94,4.6256-6.76v-2.8469c0-4.82-1.6491-6.76-4.6256-6.76s-4.5925,1.9405-4.5925,6.76Z"/>
      <path id="type_CompoundPathItem_10" data-name="type &lt;CompoundPathItem&gt;" d="M254.36,137.4258l-4.302-9.0562h-4.3342v9.0562h-3.7523v-22.318h7.6011c5.1431,0,8.2161,2.2319,8.2161,6.6625a5.8293,5.8293,0,0,1-4.0427,5.9843l4.7542,9.6712Zm-5.0457-12.291c3.1695,0,4.7221-.8411,4.7221-3.3645s-1.5526-3.3956-4.7221-3.3956h-3.59v6.76Z"/>
      <path id="type_CompoundPathItem_11" data-name="type &lt;CompoundPathItem&gt;" d="M278.6436,115.1078v3.2669h-9.93v5.8868h8.96v3.2338h-8.96v6.6957h9.93v3.2348H264.9607v-22.318Z"/>
    </g>
  </g>
</svg>
