<svg xmlns="http://www.w3.org/2000/svg" viewBox="0 0 102.6622 69.8723">
  <title>truenas_scale-logo-mark-full-color-rgb</title>
  <g id="full-rgb">
    <g id="logoMark">
      <polygon id="logoMark_PathItem_" data-name="logoMark &lt;PathItem&gt;" points="60.38 19.445 51.326 24.674 42.239 19.43 51.304 14.2 60.38 19.445" style="fill: #aeadae"/>
      <polygon id="logoMark_PathItem_2" data-name="logoMark &lt;PathItem&gt;" points="73.749 11.722 64.669 16.969 53.448 10.487 53.448 0.002 73.749 11.722" style="fill: #0095d5"/>
      <polygon id="logoMark_PathItem_3" data-name="logoMark &lt;PathItem&gt;" points="49.16 0 49.16 10.487 37.949 16.953 28.868 11.711 49.16 0" style="fill: #31beec"/>
      <path id="logoMark_PathItem_4" data-name="logoMark &lt;PathItem&gt;" d="M22.44,54.3061.0043,41.3492,0,30.8688l10.118,5.8427c.0258.015.0537.0321.0816.0471l12.2343,7.0649Z" style="fill: #0095d5"/>
      <polygon id="logoMark_PathItem_5" data-name="logoMark &lt;PathItem&gt;" points="33.663 34.883 24.597 40.118 15.513 34.874 24.584 29.64 33.663 34.883" style="fill: #aeadae"/>
      <polygon id="logoMark_PathItem_6" data-name="logoMark &lt;PathItem&gt;" points="22.423 25.937 11.222 32.398 2.142 27.155 22.419 15.453 22.423 25.937" style="fill: #31beec"/>
      <path id="logoMark_PathItem_7" data-name="logoMark &lt;PathItem&gt;" d="M47.0225,27.1659,37.9615,32.4l-11.22-6.48V15.4569l10.0837,5.8213c.0257.0171.0536.0321.0815.0471Z" style="fill: #0095d5"/>
      <polygon id="logoMark_PathItem_8" data-name="logoMark &lt;PathItem&gt;" points="75.912 46.429 75.912 56.913 73.884 58.084 53.468 69.872 53.468 59.392 64.806 52.844 69.092 50.367 75.912 46.429" style="fill: #31beec"/>
      <polygon id="logoMark_PathItem_9" data-name="logoMark &lt;PathItem&gt;" points="60.4 50.436 51.324 55.678 42.239 50.434 51.324 45.191 60.4 50.436" style="fill: #aeadae"/>
      <polygon id="logoMark_PathItem_10" data-name="logoMark &lt;PathItem&gt;" points="49.179 30.993 49.179 41.478 47.132 42.659 37.949 47.957 37.848 47.899 28.868 42.713 38.049 37.415 42.338 34.94 49.16 31.004 49.179 30.993" style="fill: #31beec"/>
      <path id="logoMark_PathItem_11" data-name="logoMark &lt;PathItem&gt;" d="M49.18,59.3919V69.87L28.774,58.09,26.7285,56.909l-.0043-10.48.0172.0107,6.82,3.9366,3.2805,1.8932c.0278.0172.0557.0344.0836.0494l.9241.5339Z" style="fill: #0095d5"/>
      <polygon id="logoMark_PathItem_12" data-name="logoMark &lt;PathItem&gt;" points="102.662 30.871 102.662 41.358 80.218 54.315 80.218 43.836 102.662 30.871" style="fill: #31beec"/>
      <polygon id="logoMark_PathItem_13" data-name="logoMark &lt;PathItem&gt;" points="87.15 34.88 78.074 40.123 68.989 34.876 78.074 29.636 87.15 34.88" style="fill: #aeadae"/>
      <polygon id="logoMark_PathItem_14" data-name="logoMark &lt;PathItem&gt;" points="100.518 27.157 91.438 32.404 80.218 25.924 80.218 15.438 100.518 27.157" style="fill: #0095d5"/>
      <polygon id="logoMark_PathItem_15" data-name="logoMark &lt;PathItem&gt;" points="75.929 15.435 75.929 25.922 64.699 32.402 55.618 27.157 75.929 15.435" style="fill: #31beec"/>
      <polygon id="logoMark_PathItem_16" data-name="logoMark &lt;PathItem&gt;" points="73.768 42.713 64.806 47.893 64.804 47.893 53.478 41.353 53.474 30.997 60.288 34.93 64.576 37.406 73.768 42.713" style="fill: #0095d5"/>
    </g>
  </g>
</svg>
