<svg xmlns="http://www.w3.org/2000/svg" viewBox="0 0 258.1284 72.8335">
  <title>truenas_scale-logotype-full-color-rgb</title>
  <g id="full-rgb">
    <g id="type">
      <path id="type_CompoundPathItem_" data-name="type &lt;CompoundPathItem&gt;" d="M36.343.6464V6.2489H21.26V50.2058H15.0832V6.2489H0V.6464Z" style="fill: #0095d5"/>
      <path id="type_CompoundPathItem_2" data-name="type &lt;CompoundPathItem&gt;" d="M55.8051,22.0508a6.8234,6.8234,0,0,0-6.032-3.0171c-4.3831,0-7.6851,3.3041-7.6851,8.6908V50.2058H36.3409V14.2933H42.088v3.52c1.5064-2.5143,3.9494-4.0951,8.33-4.0951,4.8839,0,7.9722,1.6521,10.2706,4.8849Z" style="fill: #0095d5"/>
      <path id="type_CompoundPathItem_3" data-name="type &lt;CompoundPathItem&gt;" d="M93.0827,50.2058H87.3355V46.687c-1.7955,2.729-4.3076,4.094-9.6231,4.094-7.6851,0-13.0718-4.0228-13.0718-14.0786V14.2933h5.7449V36.6312c0,7.2545,3.9494,8.8343,8.188,8.8343a8.3688,8.3688,0,0,0,8.762-8.7631V14.2933h5.7472Z" style="fill: #0095d5"/>
      <path id="type_CompoundPathItem_4" data-name="type &lt;CompoundPathItem&gt;" d="M127.1251,44.7468c-2.5142,4.3821-6.3212,6.0342-12.569,6.0342-9.6253,0-15.3724-6.2489-15.3724-16.2324V29.8071c0-10.1983,4.8127-16.0889,14.2221-16.0889,9.4807,0,14.2222,5.8183,14.2222,16.0889v3.7358H104.9308v1.0057c0,6.1765,2.9459,11.06,9.1937,11.06,4.668,0,7.04-1.3639,8.5462-4.0217ZM104.9308,28.5144H121.81c-.287-6.0331-2.9437-9.6242-8.4038-9.6242C107.8767,18.89,105.2891,22.5536,104.9308,28.5144Z" style="fill: #0095d5"/>
      <path id="type_CompoundPathItem_5" data-name="type &lt;CompoundPathItem&gt;" d="M172.446.6464V50.2058h-7.3981L144.865,16.52V50.2058H136.82V.6464h7.1823l20.3987,34.1169V.6464Z" style="fill: #0095d5"/>
      <path id="type_CompoundPathItem_6" data-name="type &lt;CompoundPathItem&gt;" d="M178.0442,50.2058,195.2834.6464h7.901l17.237,49.5594h-8.8332l-3.3775-10.2705H190.3262l-3.3753,10.2705Zm14.58-17.4528H205.841l-6.6082-20.0394Z" style="fill: #0095d5"/>
      <path id="type_CompoundPathItem_7" data-name="type &lt;CompoundPathItem&gt;" d="M251.1619,12.6413c-2.443-3.3753-5.1-5.3867-10.7022-5.3867-5.1,0-8.1167,2.2984-8.1167,6.4636,0,4.7414,3.7357,6.6082,10.631,8.1168,9.9835,2.1549,15.1544,5.8895,15.1544,14.7962,0,7.3981-4.9572,14.221-16.8788,14.221-8.475,0-14.4379-2.5854-18.5319-8.1157l6.537-4.5256c2.9437,3.52,5.8895,5.3867,11.5633,5.3867,6.824,0,8.9778-3.016,8.9778-6.6071,0-3.95-2.225-6.3924-10.8446-8.26-9.5541-2.0114-14.9408-6.6082-14.9408-15.012C224.01,6.2489,228.8943,0,240.531,0c7.9009,0,13.4322,2.6577,16.95,8.1168Z" style="fill: #0095d5"/>
      <path id="type_CompoundPathItem_8" data-name="type &lt;CompoundPathItem&gt;" d="M21.502,63.3075a2.8813,2.8813,0,0,0-2.668-1.3424c-1.2717,0-2.0238.573-2.0238,1.6111,0,1.1815.9312,1.6477,2.65,2.0232,2.4888.5374,3.7783,1.4686,3.7783,3.6893,0,1.8442-1.2355,3.5448-4.2078,3.5448a5.2836,5.2836,0,0,1-4.62-2.0233L16.04,69.6826a3.3085,3.3085,0,0,0,2.8832,1.3424c1.7006,0,2.238-.7521,2.238-1.6467,0-.9852-.5552-1.5938-2.7036-2.06-2.3815-.5007-3.7244-1.6467-3.7244-3.7422,0-1.8625,1.2172-3.42,4.1183-3.42A4.61,4.61,0,0,1,23.0774,62.18Z" style="fill: #aeadae"/>
      <path id="type_CompoundPathItem_9" data-name="type &lt;CompoundPathItem&gt;" d="M33.7278,64.1491a2.35,2.35,0,0,0-2.4888-2.184c-1.6472,0-2.5423,1.0737-2.5423,3.7422v1.5755c0,2.6318.8951,3.7422,2.5423,3.7422a2.3193,2.3193,0,0,0,2.4888-2.1841h1.9877c-.4117,2.7754-2.0233,3.9926-4.4765,3.9926-2.7576,0-4.62-1.665-4.62-5.5507V65.7073c0-3.8857,1.8619-5.5507,4.62-5.5507,2.4532,0,4.0826,1.3067,4.4943,3.9925Z" style="fill: #aeadae"/>
      <path id="type_CompoundPathItem_10" data-name="type &lt;CompoundPathItem&gt;" d="M38.0214,72.6727l4.2974-12.3553h1.97l4.2974,12.3553H46.3837l-.8417-2.5606H41.0833l-.8411,2.5606Zm3.6349-4.3519h3.2949l-1.6472-4.995Z" style="fill: #aeadae"/>
      <path id="type_CompoundPathItem_11" data-name="type &lt;CompoundPathItem&gt;" d="M53.8638,70.8815h5.4973v1.7912H51.7866V60.3174h2.0772Z" style="fill: #aeadae"/>
      <path id="type_CompoundPathItem_12" data-name="type &lt;CompoundPathItem&gt;" d="M70.155,60.3174v1.8085H64.6577v3.2588h4.96v1.79h-4.96v3.7066H70.155v1.7912H62.5805V60.3174Z" style="fill: #aeadae"/>
    </g>
  </g>
</svg>
