<svg xmlns="http://www.w3.org/2000/svg" viewBox="0 0 258.7626 72.9196">
  <title>truenas_core-logotype-full-color-rgb</title>
  <g id="full-rgb">
    <g id="type">
      <path id="type_CompoundPathItem_" data-name="type &lt;CompoundPathItem&gt;" d="M36.4323.648V6.2642H21.312v44.065H15.12V6.2642H0V.648Z" style="fill: #0095d5"/>
      <path id="type_CompoundPathItem_2" data-name="type &lt;CompoundPathItem&gt;" d="M55.9422,22.105a6.84,6.84,0,0,0-6.0468-3.0245c-4.3939,0-7.704,3.3122-7.704,8.7121V50.3292H36.43V14.3285h5.7612V17.857c1.51-2.52,3.9591-4.1051,8.3509-4.1051,4.8959,0,7.9917,1.6561,10.2958,4.897Z" style="fill: #0095d5"/>
      <path id="type_CompoundPathItem_3" data-name="type &lt;CompoundPathItem&gt;" d="M93.3113,50.3292H87.55V46.8017c-1.8,2.7357-4.3182,4.104-9.6468,4.104-7.704,0-13.1039-4.0326-13.1039-14.1132V14.3285h5.759V36.7212c0,7.2724,3.9591,8.856,8.2081,8.856A8.3894,8.3894,0,0,0,87.55,36.7925V14.3285h5.7612Z" style="fill: #0095d5"/>
      <path id="type_CompoundPathItem_4" data-name="type &lt;CompoundPathItem&gt;" d="M127.4374,44.8568c-2.52,4.3928-6.3367,6.0489-12.6,6.0489-9.649,0-15.41-6.2642-15.41-16.2723V29.88c0-10.2234,4.8245-16.1285,14.2571-16.1285,9.504,0,14.257,5.8326,14.257,16.1285v3.7449H105.1886v1.0081c0,6.1918,2.9531,11.0877,9.2163,11.0877,4.68,0,7.0571-1.3673,8.5672-4.0316ZM105.1886,28.5845h16.92c-.2877-6.0479-2.9509-9.6479-8.4244-9.6479C108.1417,18.9366,105.5478,22.609,105.1886,28.5845Z" style="fill: #0095d5"/>
      <path id="type_CompoundPathItem_5" data-name="type &lt;CompoundPathItem&gt;" d="M172.87.648V50.3292h-7.4163L145.2209,16.56V50.3292h-8.0653V.648h7.2l20.4489,34.2007V.648Z" style="fill: #0095d5"/>
      <path id="type_CompoundPathItem_6" data-name="type &lt;CompoundPathItem&gt;" d="M178.4817,50.3292,195.7632.648h7.92L220.963,50.3292h-8.855l-3.3858-10.2958H190.7938L187.41,50.3292Zm14.6162-17.4957h13.2489l-6.6245-20.0887Z" style="fill: #0095d5"/>
      <path id="type_CompoundPathItem_7" data-name="type &lt;CompoundPathItem&gt;" d="M251.779,12.6724c-2.449-3.3837-5.1122-5.4-10.7285-5.4-5.1122,0-8.1367,2.3041-8.1367,6.4795,0,4.7531,3.7449,6.6245,10.6571,8.1367,10.0081,2.16,15.1917,5.904,15.1917,14.8326,0,7.4162-4.9694,14.2559-16.92,14.2559-8.4958,0-14.4734-2.5918-18.5774-8.1356l6.553-4.5367c2.951,3.5286,5.9041,5.4,11.5917,5.4,6.8408,0,9-3.0234,9-6.6233,0-3.96-2.2306-6.4081-10.8713-8.2806-9.5776-2.0163-14.9775-6.6245-14.9775-15.0489C224.5608,6.2642,229.4566,0,241.1219,0c7.92,0,13.4653,2.6643,16.9917,8.1367Z" style="fill: #0095d5"/>
      <path id="type_CompoundPathItem_8" data-name="type &lt;CompoundPathItem&gt;" d="M21.7338,64.214a2.356,2.356,0,0,0-2.495-2.19c-1.6512,0-2.5485,1.0769-2.5485,3.7514v1.58c0,2.6383.8973,3.7514,2.5485,3.7514a2.3255,2.3255,0,0,0,2.495-2.19h1.9926c-.4127,2.7822-2.0283,4.0029-4.4876,4.0029-2.7638,0-4.6308-1.67-4.6308-5.5643v-1.58c0-3.8953,1.867-5.5644,4.6308-5.5644,2.4593,0,4.0927,1.3106,4.5054,4.003Z" style="fill: #aeadae"/>
      <path id="type_CompoundPathItem_9" data-name="type &lt;CompoundPathItem&gt;" d="M31.4947,72.92c-2.7638,0-4.6308-1.67-4.6308-5.5643v-1.58c0-3.8953,1.867-5.5644,4.6308-5.5644,2.7822,0,4.6493,1.6691,4.6493,5.5644v1.58C36.144,71.25,34.2769,72.92,31.4947,72.92Zm-2.5485-5.5643c0,2.6745.8973,3.7514,2.5485,3.7514s2.5669-1.0769,2.5669-3.7514v-1.58c0-2.6745-.9151-3.7514-2.5669-3.7514s-2.5485,1.0769-2.5485,3.7514Z" style="fill: #aeadae"/>
      <path id="type_CompoundPathItem_10" data-name="type &lt;CompoundPathItem&gt;" d="M47.0358,72.7579l-2.3874-5.0257H42.2432v5.0257H40.1609V60.3728h4.2182c2.8541,0,4.5594,1.2385,4.5594,3.6973a3.2349,3.2349,0,0,1-2.2434,3.3209l2.6383,5.3669Zm-2.8-6.8208c1.7588,0,2.62-.4667,2.62-1.867s-.8616-1.8844-2.62-1.8844H42.2432v3.7514Z" style="fill: #aeadae"/>
      <path id="type_CompoundPathItem_11" data-name="type &lt;CompoundPathItem&gt;" d="M60.5119,60.3728v1.8129H55.001v3.2668h4.9722v1.7946H55.001v3.7157h5.5109v1.7951H52.9187V60.3728Z" style="fill: #aeadae"/>
    </g>
  </g>
</svg>
