<svg xmlns="http://www.w3.org/2000/svg" viewBox="0 0 258.7626 72.6511">
  <title>truenas_enterprise-logotype-full-color-rgb</title>
  <g id="full-rgb">
    <g id="type">
      <path id="type_CompoundPathItem_" data-name="type &lt;CompoundPathItem&gt;" d="M36.4323.648V6.2642H21.312v44.065H15.12V6.2642H0V.648Z" style="fill: #0095d5"/>
      <path id="type_CompoundPathItem_2" data-name="type &lt;CompoundPathItem&gt;" d="M55.9422,22.105a6.84,6.84,0,0,0-6.0468-3.0245c-4.3939,0-7.704,3.3122-7.704,8.7121V50.3292H36.43V14.3285h5.7612V17.857c1.51-2.52,3.9591-4.1051,8.3509-4.1051,4.8959,0,7.9917,1.6561,10.2958,4.897Z" style="fill: #0095d5"/>
      <path id="type_CompoundPathItem_3" data-name="type &lt;CompoundPathItem&gt;" d="M93.3113,50.3292H87.55V46.8017c-1.8,2.7357-4.3182,4.104-9.6468,4.104-7.704,0-13.1039-4.0326-13.1039-14.1132V14.3285h5.759V36.7212c0,7.2724,3.9591,8.856,8.2081,8.856A8.3894,8.3894,0,0,0,87.55,36.7925V14.3285h5.7612Z" style="fill: #0095d5"/>
      <path id="type_CompoundPathItem_4" data-name="type &lt;CompoundPathItem&gt;" d="M127.4374,44.8568c-2.52,4.3928-6.3367,6.0489-12.6,6.0489-9.649,0-15.41-6.2642-15.41-16.2723V29.88c0-10.2234,4.8245-16.1285,14.2571-16.1285,9.504,0,14.257,5.8326,14.257,16.1285v3.7449H105.1886v1.0081c0,6.1918,2.9531,11.0877,9.2163,11.0877,4.68,0,7.0571-1.3673,8.5672-4.0316ZM105.1886,28.5845h16.92c-.2877-6.0479-2.9509-9.6479-8.4244-9.6479C108.1417,18.9366,105.5478,22.609,105.1886,28.5845Z" style="fill: #0095d5"/>
      <path id="type_CompoundPathItem_5" data-name="type &lt;CompoundPathItem&gt;" d="M172.87.648V50.3292h-7.4163L145.2209,16.56V50.3292h-8.0653V.648h7.2l20.4489,34.2007V.648Z" style="fill: #0095d5"/>
      <path id="type_CompoundPathItem_6" data-name="type &lt;CompoundPathItem&gt;" d="M178.4817,50.3292,195.7632.648h7.92L220.963,50.3292h-8.855l-3.3858-10.2958H190.7938L187.41,50.3292Zm14.6162-17.4957h13.2489l-6.6245-20.0887Z" style="fill: #0095d5"/>
      <path id="type_CompoundPathItem_7" data-name="type &lt;CompoundPathItem&gt;" d="M251.779,12.6724c-2.449-3.3837-5.1122-5.4-10.7285-5.4-5.1122,0-8.1367,2.3041-8.1367,6.4795,0,4.7531,3.7449,6.6245,10.6571,8.1367,10.0081,2.16,15.1917,5.904,15.1917,14.8326,0,7.4162-4.9694,14.2559-16.92,14.2559-8.4958,0-14.4734-2.5918-18.5774-8.1356l6.553-4.5367c2.951,3.5286,5.9041,5.4,11.5917,5.4,6.8408,0,9-3.0234,9-6.6233,0-3.96-2.2306-6.4081-10.8713-8.2806-9.5776-2.0163-14.9775-6.6245-14.9775-15.0489C224.5608,6.2642,229.4566,0,241.1219,0c7.92,0,13.4653,2.6643,16.9917,8.1367Z" style="fill: #0095d5"/>
      <path id="type_CompoundPathItem_8" data-name="type &lt;CompoundPathItem&gt;" d="M22.7036,60.1043v1.8129H17.1928V65.184h4.9721v1.7946H17.1928v3.7157h5.5108V72.49H15.1105V60.1043Z" style="fill: #aeadae"/>
      <path id="type_CompoundPathItem_9" data-name="type &lt;CompoundPathItem&gt;" d="M35.3721,60.1043V72.49H33.5235l-5.0441-8.4191V72.49h-2.01V60.1043h1.7951L33.3618,68.63V60.1043Z" style="fill: #aeadae"/>
      <path id="type_CompoundPathItem_10" data-name="type &lt;CompoundPathItem&gt;" d="M47.8611,60.1043v1.8129H44.3072V72.49H42.2254V61.9172H38.653V60.1043Z" style="fill: #aeadae"/>
      <path id="type_CompoundPathItem_11" data-name="type &lt;CompoundPathItem&gt;" d="M58.7351,60.1043v1.8129H53.2243V65.184h4.9721v1.7946H53.2243v3.7157h5.5108V72.49H51.142V60.1043Z" style="fill: #aeadae"/>
      <path id="type_CompoundPathItem_12" data-name="type &lt;CompoundPathItem&gt;" d="M69.3755,72.49l-2.3874-5.0257H64.5829V72.49H62.5006V60.1043h4.2182c2.8541,0,4.5594,1.2385,4.5594,3.6973a3.2339,3.2339,0,0,1-2.2435,3.3209L71.6731,72.49Zm-2.8-6.8214c1.7589,0,2.62-.4662,2.62-1.867s-.8616-1.8844-2.62-1.8844H64.5829v3.7514Z" style="fill: #aeadae"/>
      <path id="type_CompoundPathItem_13" data-name="type &lt;CompoundPathItem&gt;" d="M77.3413,67.9662V72.49H75.259V60.1043h4.2181c2.8541,0,4.56,1.364,4.56,3.9136,0,2.5129-1.6875,3.9483-4.56,3.9483Zm1.9206-1.7946c1.9027,0,2.6924-.7366,2.6924-2.1537,0-1.3467-.79-2.1007-2.6924-2.1007H77.3413v4.2544Z" style="fill: #aeadae"/>
      <path id="type_CompoundPathItem_14" data-name="type &lt;CompoundPathItem&gt;" d="M94.4973,72.49,92.11,67.4643H89.7048V72.49H87.6225V60.1043h4.2181c2.8542,0,4.56,1.2385,4.56,3.6973a3.2341,3.2341,0,0,1-2.2435,3.3209L96.7949,72.49Zm-2.8-6.8214c1.7589,0,2.6205-.4662,2.6205-1.867s-.8616-1.8844-2.6205-1.8844H89.7048v3.7514Z" style="fill: #aeadae"/>
      <path id="type_CompoundPathItem_15" data-name="type &lt;CompoundPathItem&gt;" d="M102.6422,72.49H100.56V60.1043h2.0824Z" style="fill: #aeadae"/>
      <path id="type_CompoundPathItem_16" data-name="type &lt;CompoundPathItem&gt;" d="M113.7693,63.1017a2.8884,2.8884,0,0,0-2.6746-1.3456c-1.2748,0-2.0287.5743-2.0287,1.615,0,1.1844.9335,1.6517,2.6567,2.0282,2.4949.5387,3.7876,1.4722,3.7876,3.6984,0,1.8486-1.2386,3.5534-4.2182,3.5534a5.2964,5.2964,0,0,1-4.6313-2.0282l1.6333-1.13a3.3168,3.3168,0,0,0,2.89,1.3457c1.7048,0,2.2435-.754,2.2435-1.6507,0-.9876-.5566-1.5977-2.71-2.065-2.3873-.502-3.7335-1.6507-3.7335-3.7514,0-1.8671,1.22-3.428,4.1284-3.428a4.6217,4.6217,0,0,1,4.236,2.0282Z" style="fill: #aeadae"/>
      <path id="type_CompoundPathItem_17" data-name="type &lt;CompoundPathItem&gt;" d="M126.9949,60.1043v1.8129h-5.5108V65.184h4.9721v1.7946h-4.9721v3.7157h5.5108V72.49h-7.5931V60.1043Z" style="fill: #aeadae"/>
    </g>
  </g>
</svg>
