<svg xmlns="http://www.w3.org/2000/svg" viewBox="0 0 102.662 69.872">
    <title>truenas_scale-logo-mark-full-color-rgb</title>
    <path style="fill:#aeadae" d="m60.38 19.445-9.054 5.229-9.087-5.244 9.065-5.23 9.076 5.245z"/>
    <path style="fill:#0095d5" d="m73.749 11.722-9.08 5.247-11.221-6.482V.002l20.301 11.72z"/>
    <path style="fill:#31beec" d="M49.16 0v10.487l-11.211 6.466-9.081-5.242L49.16 0z"/>
    <path d="M22.44 54.306.004 41.35 0 30.87l10.118 5.843.082.047 12.234 7.065Z" style="fill:#0095d5"/>
    <path style="fill:#aeadae" d="m33.663 34.883-9.066 5.235-9.084-5.244 9.071-5.234 9.079 5.243z"/>
    <path style="fill:#31beec" d="m22.423 25.937-11.201 6.461-9.08-5.243 20.277-11.702.004 10.484z"/>
    <path d="M47.023 27.166 37.96 32.4l-11.22-6.48V15.457l10.084 5.821c.026.017.054.032.082.047Z" style="fill:#0095d5"/>
    <path style="fill:#31beec" d="M75.912 46.429v10.484l-2.028 1.171-20.416 11.788v-10.48l11.338-6.548 4.286-2.477 6.82-3.938z"/>
    <path style="fill:#aeadae" d="m60.4 50.436-9.076 5.242-9.085-5.244 9.085-5.243 9.076 5.245z"/>
    <path style="fill:#31beec" d="M49.179 30.993v10.485l-2.047 1.181-9.183 5.298-.101-.058-8.98-5.186 9.181-5.298 4.289-2.475 6.822-3.936.019-.011z"/>
    <path d="M49.18 59.392V69.87L28.774 58.09l-2.046-1.181-.004-10.48.017.01 6.82 3.937 3.28 1.894.084.049.925.534Z" style="fill:#0095d5"/>
    <path style="fill:#31beec" d="M102.662 30.871v10.487L80.218 54.315V43.836l22.444-12.965z"/>
    <path style="fill:#aeadae" d="m87.15 34.88-9.076 5.243-9.085-5.247 9.085-5.24 9.076 5.244z"/>
    <path style="fill:#0095d5" d="m100.518 27.157-9.08 5.247-11.22-6.48V15.438l20.3 11.719z"/>
    <path style="fill:#31beec" d="M75.929 15.435v10.487l-11.23 6.48-9.081-5.245 20.311-11.722z"/>
    <path style="fill:#0095d5" d="m73.768 42.713-8.962 5.18h-.002l-11.326-6.54-.004-10.356 6.814 3.933 4.288 2.476 9.192 5.307z"/>
</svg>
