<?xml version="1.0" encoding="utf-8"?>
<!-- Generator: Adobe Illustrator 24.0.3, SVG Export Plug-In . SVG Version: 6.00 Build 0)  -->
<svg version="1.1" id="Layer_1" xmlns="http://www.w3.org/2000/svg" xmlns:xlink="http://www.w3.org/1999/xlink" x="0px" y="0px"
	 viewBox="0 0 720 216" style="enable-background:new 0 0 720 216;" xml:space="preserve">
<g>
	<g>
		<path class="st0" d="M473.35,161.91c2.51,0,4.83,0.3,7.39,1.01c1.6,0.45,2.11,1.2,2.11,2.21c0,1.1-0.4,2.06-0.96,2.92
			c-2.72-1.47-5.63-2.17-8.4-2.17c-6.09,0-10.11,4.32-10.11,14.58c0,10.21,4.02,14.68,10.11,14.68c2.87,0,6.19-0.85,8.84-2.3
			c0.56,0.9,0.96,1.86,0.96,2.91c0,1.06-0.45,1.76-2.1,2.21c-2.57,0.75-5.13,1.16-7.8,1.16c-8.95,0-14.89-5.73-14.89-18.65
			C458.51,167.49,464.6,161.91,473.35,161.91z"/>
		<path class="st0" d="M508.16,180.47c0-12.98,5.68-18.56,14.93-18.56c9.3,0,14.99,5.58,14.99,18.56c0,12.93-5.68,18.65-14.99,18.65
			C513.85,199.12,508.16,193.4,508.16,180.47z M533.25,180.47c0-10.26-3.72-14.58-10.15-14.58c-6.38,0-10.06,4.32-10.06,14.58
			c0,10.21,3.68,14.68,10.06,14.68C529.54,195.15,533.25,190.68,533.25,180.47z"/>
		<path class="st0" d="M578.78,185.75c-1.51-1.36-2.46-1.71-3.97-1.71h-4.42v14.58h-4.78v-36.21h11.46c8,0,12.78,3.22,12.78,9.96
			c0,6.68-4.68,9.4-9.56,10.25v0.16c1.26,0.4,2.57,1.2,3.88,2.51c3.31,3.07,5.88,8.15,6.79,13.33h-5.18
			C584.46,193.03,582.2,188.76,578.78,185.75z M577.12,166.34h-6.73v13.87h5.67c4.74,0,8.9-1.95,8.9-7.29
			C584.96,168.5,582.15,166.34,577.12,166.34z"/>
		<path class="st0" d="M640.25,194.7v3.92h-21.98v-36.21h21.68v3.93h-16.9v11.51h13.48v3.92h-13.48v12.93H640.25z"/>
	</g>
	<g>
		<path class="st0" d="M74.09,39.24v81.83H50.63V39.24H28.54v-19.8h67.64v19.8H74.09z"/>
		<path class="st0" d="M107.71,53.12h21.94v10.66c1.98-3.81,5.02-7.32,8.53-9.45c3.65-2.28,7.47-2.89,11.73-2.89
			c2.75,0,4.73,0.31,7.17,1.06l-1.22,20.57c-2.9-1.53-6.1-2.44-9.9-2.44c-4.73,0-8.23,1.68-10.97,4.58
			c-4.88,5.17-5.33,12.49-5.33,18.28v27.58h-21.94V53.12z"/>
		<path class="st0" d="M196.2,53.12v37.47c0,3.05,0.3,7.78,3.8,10.97c1.53,1.37,4.27,3.2,9.15,3.2c4.11,0,7.31-1.37,9.29-3.2
			c3.2-3.05,3.65-7.62,3.65-10.97V53.12h21.94v39.61c0,7.78-0.76,15.08-7.62,21.79c-7.78,7.62-19.2,8.83-27.28,8.83
			c-8.38,0-19.65-1.21-27.43-8.83c-6.25-6.1-7.47-12.95-7.47-20.42V53.12H196.2z"/>
		<path class="st0" d="M338.74,90.9h-50.73c0,3.65,1.37,8.53,4.11,11.58c3.36,3.65,7.92,4.27,11.28,4.27c3.2,0,6.54-0.62,8.84-1.99
			c0.3-0.15,2.89-1.83,4.72-5.63l20.72,2.12c-3.05,9.6-9.15,14.63-13.11,17.07c-6.54,3.95-13.86,5.01-21.48,5.01
			c-10.21,0-19.19-1.83-27.12-9.75c-5.95-5.94-10.21-14.93-10.21-26.2c0-9.75,3.51-19.81,10.36-26.81
			c8.23-8.23,18.44-9.75,26.06-9.75c7.62,0,18.59,1.37,26.97,10.21c8.07,8.53,9.59,19.19,9.59,27.57V90.9z M318.48,77.79
			c-0.16-0.61-1.22-4.88-4.42-7.91c-2.44-2.29-5.95-3.81-10.37-3.81c-5.63,0-8.99,2.28-11.12,4.42c-1.68,1.83-3.2,4.26-3.8,7.31
			H318.48z"/>
		<path class="st0" d="M363.07,121.07V19.45h20.42l55.16,65.52V19.45h23.46v101.63h-20.43l-55.15-65.83v65.83H363.07z"/>
		<path class="st0" d="M552.09,101.87h-38.4l-7.76,19.2h-24.38l40.98-101.63h21.49l40.07,101.63H559.7L552.09,101.87z M545.68,83.89
			l-12.49-34.13l-12.64,34.13H545.68z"/>
		<path class="st0" d="M655.93,44.28c-7.62-6.86-14.17-7.32-17.06-7.32c-3.2,0-7.16,0.46-9.91,3.51c-1.52,1.53-2.58,3.81-2.58,6.41
			c0,2.43,0.75,4.26,2.28,5.63c2.43,2.28,5.94,3.21,12.8,5.79l7.62,2.9c4.42,1.68,9.9,3.96,13.86,7.76
			c5.95,5.64,7.47,12.96,7.47,18.9c0,10.52-3.65,19.65-8.99,25.14c-9,9.44-22.09,10.35-28.8,10.35c-7.32,0-13.71-1.06-20.12-4.25
			c-5.17-2.6-11.12-7.32-14.92-11.14l12.18-16.75c2.59,2.58,6.7,6.09,9.44,7.76c3.96,2.44,8.08,3.65,12.8,3.65
			c3.05,0,7.32-0.61,10.66-3.49c1.99-1.68,3.66-4.42,3.66-8.23c0-3.36-1.37-5.48-3.51-7.32c-2.74-2.28-8.99-4.57-11.89-5.63
			l-8.38-2.9c-4.73-1.68-10.21-3.8-14.17-8.07c-5.33-5.64-6.1-12.8-6.1-17.67c0-8.99,2.75-16.6,8.84-22.85
			c7.16-7.32,15.7-9.29,25.14-9.29c7.01,0,18.28,1.21,30.17,10.05L655.93,44.28z"/>
	</g>
	<g>
		<g>
			<polygon class="st0" points="669.07,21.11 674.56,21.11 674.56,35.78 676.77,35.78 676.77,21.11 682.27,21.11 682.27,19.14 
				669.07,19.14 			"/>
		</g>
		<g>
			<path class="st0" d="M697.39,19.14l-3.99,11.59c-0.41,1.17-0.69,2.06-0.88,2.66c-0.17-0.54-0.43-1.36-0.79-2.46l-3.95-11.79
				h-3.32v16.65h2.12V21.61l4.82,14.17h1.99l4.84-13.93v13.93h2.12V19.14H697.39z"/>
		</g>
	</g>
</g>
</svg>
