<?xml version="1.0" encoding="utf-8"?>
<!-- Generator: Adobe Illustrator 24.0.3, SVG Export Plug-In . SVG Version: 6.00 Build 0)  -->
<svg version="1.1" id="Layer_1" xmlns="http://www.w3.org/2000/svg" xmlns:xlink="http://www.w3.org/1999/xlink" x="0px" y="0px"
	 viewBox="0 0 720 216" style="enable-background:new 0 0 720 216;" xml:space="preserve">
<g>
	<g>
		<path class="st0" d="M504.08,166.58c-3.57,0-4.79,1.66-4.79,3.81c0,2.08,1.49,3.33,5.34,4.23c4.96,1.18,7.53,3.23,7.53,7.39
			c0,4.23-3.33,7.35-8.98,7.35c-2.32,0-4.37-0.38-6-1.01c-1.15-0.42-1.42-0.9-1.42-1.66c0-0.69,0.24-1.53,0.69-2.18
			c2.29,1.32,4.47,1.98,6.83,1.98c3.75,0,5.45-1.63,5.45-4.09c0-2.32-1.42-3.78-5.83-4.82c-4.54-1.04-7.01-3.19-7.01-6.8
			c0-3.85,2.57-7.08,8.22-7.08c2.12,0,3.64,0.24,5.27,0.73c1.15,0.31,1.46,0.8,1.46,1.53c0,0.73-0.28,1.56-0.69,2.19
			C508.24,167.1,506.3,166.58,504.08,166.58z"/>
		<path class="st0" d="M539.98,163.7c1.73,0,3.33,0.21,5.1,0.69c1.11,0.31,1.46,0.83,1.46,1.53c0,0.76-0.28,1.42-0.66,2.01
			c-1.87-1.01-3.88-1.49-5.79-1.49c-4.2,0-6.97,2.98-6.97,10.06c0,7.04,2.77,10.13,6.97,10.13c1.98,0,4.27-0.59,6.1-1.6
			c0.38,0.62,0.66,1.28,0.66,2.01c0,0.73-0.31,1.21-1.46,1.53c-1.77,0.52-3.54,0.8-5.38,0.8c-6.17,0-10.27-3.95-10.27-12.87
			C529.75,167.55,533.94,163.7,539.98,163.7z"/>
		<path class="st0" d="M579.66,182.74h-11.45c-0.31,2.01-0.52,4.13-0.62,6.28h-3.43c0.63-10.02,3.75-19.74,8.29-24.97h2.98
			c4.51,5.24,7.74,14.95,8.29,24.97h-3.4C580.18,186.87,579.97,184.75,579.66,182.74z M579.18,180.04
			c-1.01-5.13-2.74-9.68-5.24-13.32c-2.5,3.64-4.2,8.19-5.24,13.32H579.18z"/>
		<path class="st0" d="M602.87,164.05h3.29v22.16h11.17v2.81h-14.46V164.05z"/>
		<path class="st0" d="M650.77,186.31v2.71h-15.16v-24.97h14.95v2.71h-11.65v7.94h9.3v2.71h-9.3v8.91H650.77z"/>
	</g>
	<g>
		<path class="st0" d="M259.99,79.04v56.44H243.8V79.04h-15.24V65.37h46.67v13.66H259.99z"/>
		<path class="st0" d="M283.22,88.6h15.13v7.36c1.37-2.63,3.47-5.04,5.89-6.52c2.52-1.58,5.15-2,8.09-2c1.89,0,3.26,0.21,4.94,0.74
			l-0.84,14.19c-2-1.05-4.2-1.68-6.83-1.68c-3.26,0-5.68,1.16-7.57,3.15c-3.36,3.57-3.68,8.62-3.68,12.61v19.02h-15.13V88.6z"/>
		<path class="st0" d="M344.28,88.6v25.86c0,2.1,0.21,5.36,2.63,7.57c1.05,0.95,2.94,2.21,6.31,2.21c2.84,0,5.04-0.95,6.41-2.21
			c2.21-2.1,2.52-5.25,2.52-7.57V88.6h15.14v27.33c0,5.36-0.53,10.41-5.26,15.03c-5.36,5.25-13.24,6.1-18.81,6.1
			c-5.78,0-13.56-0.84-18.92-6.1c-4.31-4.2-5.15-8.93-5.15-14.08V88.6H344.28z"/>
		<path class="st0" d="M442.66,114.67h-35c0,2.52,0.95,5.89,2.84,7.99c2.31,2.52,5.47,2.94,7.78,2.94c2.21,0,4.52-0.42,6.1-1.37
			c0.21-0.11,2-1.26,3.26-3.89l14.29,1.47c-2.1,6.62-6.31,10.09-9.04,11.77c-4.52,2.73-9.56,3.47-14.82,3.47
			c-7.04,0-13.24-1.26-18.71-6.73c-4.1-4.1-7.04-10.3-7.04-18.08c0-6.73,2.42-13.66,7.15-18.5c5.68-5.68,12.72-6.73,17.97-6.73
			c5.26,0,12.82,0.95,18.6,7.04c5.57,5.89,6.62,13.24,6.62,19.02V114.67z M428.68,105.63c-0.1-0.42-0.84-3.36-3.05-5.47
			c-1.68-1.58-4.1-2.63-7.15-2.63c-3.89,0-6.2,1.58-7.67,3.05c-1.16,1.26-2.21,2.94-2.63,5.04H428.68z"/>
		<path class="st0" d="M459.48,135.48v-70.1h14.08l38.05,45.19V65.37h16.19v70.1h-14.08l-38.05-45.4v45.4H459.48z"/>
		<path class="st0" d="M589.91,122.23h-26.49l-5.36,13.24h-16.82l28.27-70.1h14.82l27.64,70.1h-16.82L589.91,122.23z M585.5,109.83
			l-8.62-23.54l-8.72,23.54H585.5z"/>
		<path class="st0" d="M661.59,82.5c-5.25-4.73-9.77-5.04-11.77-5.04c-2.21,0-4.94,0.32-6.83,2.42c-1.05,1.05-1.79,2.63-1.79,4.41
			c0,1.68,0.53,2.94,1.58,3.89c1.68,1.58,4.1,2.21,8.83,3.99l5.25,2c3.05,1.16,6.83,2.73,9.56,5.36c4.1,3.89,5.15,8.93,5.15,13.03
			c0,7.25-2.52,13.56-6.2,17.34c-6.2,6.52-15.24,7.15-19.86,7.15c-5.05,0-9.46-0.74-13.87-2.94c-3.57-1.79-7.67-5.04-10.3-7.67
			l8.41-11.56c1.79,1.79,4.62,4.2,6.52,5.36c2.73,1.68,5.57,2.52,8.83,2.52c2.1,0,5.04-0.42,7.36-2.42
			c1.37-1.16,2.52-3.05,2.52-5.68c0-2.31-0.95-3.78-2.42-5.04c-1.89-1.58-6.2-3.15-8.2-3.89l-5.78-2c-3.26-1.16-7.04-2.63-9.77-5.57
			c-3.68-3.89-4.2-8.83-4.2-12.19c0-6.2,1.89-11.46,6.1-15.77c4.94-5.05,10.82-6.41,17.34-6.41c4.83,0,12.61,0.84,20.81,6.94
			L661.59,82.5z"/>
	</g>
	<g>
		<g>
			<polygon class="st0" points="670.68,66.49 674.47,66.49 674.47,76.62 675.99,76.62 675.99,66.49 679.79,66.49 679.79,65.13
				670.68,65.13 			"/>
		</g>
		<g>
			<path class="st0" d="M690.22,65.13l-2.75,8c-0.28,0.81-0.48,1.42-0.61,1.84c-0.12-0.38-0.3-0.94-0.55-1.7l-2.72-8.14h-2.29v11.49
				h1.46v-9.78l3.33,9.78h1.37L690.8,67v9.62h1.47V65.13H690.22z"/>
		</g>
	</g>
	<g>
		<path class="st0" d="M184.62,172.89C133.84,85.76,64.41,41.93,36.24,24.65c-3.31-2.03-7.19,1.52-5.47,5
			c5.29,10.66,12.7,27.94,17.95,49.68c0.27,1.13,1.03,2.09,2.07,2.59c0,0,7.07,3.19,12.61,6c5.53,2.81,2.85,5.54,0.52,5.89
			c-2.33,0.34-8.26,1.22-8.26,1.22c-2.03,0.35-3.36,2.19-3.14,4.25c2.61,24.75-8.12,59.77-24.91,78.9
			c-2.25,2.55-0.59,6.53,2.81,6.52l147.77-0.32C187.99,184.7,188.38,179.32,184.62,172.89z M168.57,175.65H86.71
			c-9.34,0-8.49-0.69,0.08-1.56c10.2-1.02,22.48-2.29,27.34-2.9c14.24-1.8,23.1-6.37,16.97-22.71c0,0-13.42-43.74-66.96-91.33
			c-4.42-3.93-8.65-7.9,0.42-0.36c22.3,18.56,66.47,58.93,105.19,116.2C170.84,174.6,169.68,175.65,168.57,175.65z"/>
	</g>
</g>
</svg>
