<?xml version="1.0" encoding="utf-8"?>
<!-- Generator: Adobe Illustrator 24.0.3, SVG Export Plug-In . SVG Version: 6.00 Build 0)  -->
<svg version="1.1" id="Layer_1" xmlns="http://www.w3.org/2000/svg" xmlns:xlink="http://www.w3.org/1999/xlink" x="0px" y="0px"
	 viewBox="0 0 720 216" style="enable-background:new 0 0 720 216;" xml:space="preserve">
<g>
	<g>
		<path class="st0" d="M412.4,163.26c-4.94,0-6.62,2.3-6.62,5.28c0,2.88,2.06,4.6,7.38,5.84c6.86,1.63,10.41,4.47,10.41,10.22
			c0,5.84-4.6,10.16-12.42,10.16c-3.21,0-6.04-0.53-8.3-1.39c-1.58-0.58-1.97-1.25-1.97-2.3c0-0.96,0.33-2.12,0.96-3.02
			c3.16,1.81,6.18,2.72,9.45,2.72c5.18,0,7.53-2.25,7.53-5.65c0-3.21-1.97-5.23-8.05-6.67c-6.29-1.44-9.69-4.42-9.69-9.4
			c0-5.33,3.55-9.79,11.37-9.79c2.93,0,5.03,0.33,7.29,1c1.59,0.44,2.02,1.1,2.02,2.12c0,1-0.38,2.16-0.96,3.02
			C418.15,163.98,415.47,163.26,412.4,163.26z"/>
		<path class="st0" d="M462,159.28c2.4,0,4.6,0.28,7.05,0.96c1.54,0.43,2.02,1.14,2.02,2.11c0,1.05-0.38,1.97-0.91,2.79
			c-2.59-1.4-5.37-2.07-8.01-2.07c-5.8,0-9.64,4.12-9.64,13.91c0,9.73,3.83,14,9.64,14c2.73,0,5.9-0.81,8.44-2.2
			c0.53,0.86,0.91,1.77,0.91,2.78c0,1.01-0.43,1.68-2.01,2.11c-2.45,0.72-4.89,1.1-7.43,1.1c-8.53,0-14.2-5.46-14.2-17.79
			C447.85,164.6,453.66,159.28,462,159.28z"/>
		<path class="st0" d="M516.83,185.61h-15.83c-0.43,2.79-0.72,5.7-0.86,8.68h-4.75c0.87-13.86,5.18-27.29,11.46-34.53h4.13
			c6.23,7.24,10.69,20.67,11.46,34.53h-4.7C517.55,191.31,517.26,188.39,516.83,185.61z M516.16,181.87
			c-1.39-7.1-3.79-13.38-7.24-18.42c-3.45,5.03-5.8,11.31-7.24,18.42H516.16z"/>
		<path class="st0" d="M548.88,159.76h4.56v30.65h15.44v3.88h-20V159.76z"/>
		<path class="st0" d="M615.07,190.55v3.74h-20.96v-34.53h20.67v3.75h-16.11v10.98h12.85v3.74h-12.85v12.33H615.07z"/>
	</g>
	<g>
		<path class="st1" d="M75.18,42.3v78.03H52.8V42.3H31.74V23.41h64.5V42.3H75.18z"/>
		<path class="st1" d="M107.24,55.52h20.93v10.17c1.88-3.64,4.79-6.98,8.13-9.02c3.48-2.18,7.12-2.76,11.18-2.76
			c2.62,0,4.51,0.29,6.84,1.01l-1.16,19.62c-2.77-1.46-5.81-2.33-9.44-2.33c-4.51,0-7.85,1.6-10.46,4.37
			c-4.65,4.93-5.08,11.91-5.08,17.43v26.3h-20.93V55.52z"/>
		<path class="st1" d="M191.63,55.52v35.74c0,2.91,0.28,7.41,3.63,10.46c1.46,1.31,4.07,3.05,8.72,3.05c3.92,0,6.97-1.31,8.86-3.05
			c3.05-2.91,3.48-7.26,3.48-10.46V55.52h20.93V93.3c0,7.41-0.73,14.38-7.26,20.78c-7.41,7.26-18.31,8.43-26.01,8.43
			c-7.99,0-18.74-1.16-26.15-8.43c-5.96-5.81-7.12-12.35-7.12-19.47V55.52H191.63z"/>
		<path class="st1" d="M327.55,91.55h-48.38c0,3.48,1.31,8.13,3.92,11.04c3.2,3.48,7.56,4.07,10.76,4.07c3.05,0,6.24-0.59,8.43-1.89
			c0.28-0.14,2.76-1.74,4.5-5.37l19.76,2.03c-2.91,9.16-8.72,13.95-12.5,16.28c-6.24,3.78-13.22,4.79-20.48,4.79
			c-9.73,0-18.3-1.74-25.86-9.3c-5.67-5.66-9.73-14.24-9.73-24.99c0-9.3,3.34-18.89,9.88-25.57c7.85-7.85,17.58-9.3,24.85-9.3
			s17.73,1.31,25.72,9.73c7.7,8.13,9.15,18.3,9.15,26.3V91.55z M308.24,79.06c-0.15-0.58-1.16-4.65-4.21-7.55
			c-2.33-2.19-5.67-3.64-9.89-3.64c-5.37,0-8.57,2.18-10.61,4.21c-1.6,1.74-3.05,4.06-3.63,6.97H308.24z"/>
		<path class="st0" d="M350.76,120.32V23.41h19.47l52.6,62.48V23.41h22.38v96.91h-19.48l-52.59-62.77v62.77H350.76z"/>
		<path class="st0" d="M531,102.02h-36.62l-7.4,18.3h-23.25l39.08-96.91h20.49l38.21,96.91h-23.25L531,102.02z M524.9,84.87
			l-11.91-32.55l-12.05,32.55H524.9z"/>
		<path class="st0" d="M630.03,47.1c-7.26-6.54-13.51-6.98-16.27-6.98c-3.05,0-6.83,0.44-9.45,3.34c-1.45,1.46-2.46,3.64-2.46,6.11
			c0,2.32,0.72,4.06,2.18,5.37c2.32,2.18,5.66,3.06,12.21,5.52l7.26,2.77c4.21,1.6,9.44,3.78,13.22,7.4
			c5.67,5.38,7.12,12.36,7.12,18.02c0,10.03-3.48,18.74-8.57,23.98c-8.58,9.01-21.07,9.88-27.46,9.88c-6.98,0-13.08-1.01-19.19-4.06
			c-4.93-2.47-10.61-6.98-14.23-10.62l11.62-15.97c2.47,2.46,6.39,5.8,9.01,7.4c3.78,2.33,7.71,3.48,12.21,3.48
			c2.91,0,6.98-0.58,10.17-3.33c1.89-1.6,3.49-4.21,3.49-7.85c0-3.2-1.31-5.23-3.34-6.98c-2.61-2.18-8.57-4.36-11.33-5.37
			l-7.99-2.77c-4.51-1.6-9.73-3.63-13.51-7.7c-5.08-5.38-5.81-12.21-5.81-16.86c0-8.57,2.62-15.83,8.43-21.79
			c6.83-6.98,14.97-8.86,23.98-8.86c6.69,0,17.43,1.15,28.77,9.58L630.03,47.1z"/>
	</g>
	<g>
		<g>
			<polygon class="st0" points="642.57,25 647.8,25 647.8,39 649.91,39 649.91,25 655.16,25 655.16,23.12 642.57,23.12 			"/>
		</g>
		<g>
			<path class="st0" d="M669.57,23.12l-3.8,11.05c-0.39,1.12-0.66,1.96-0.84,2.54c-0.16-0.52-0.41-1.3-0.76-2.35l-3.76-11.24h-3.16
				V39h2.02V25.48l4.6,13.52h1.89l4.61-13.28V39h2.03V23.12H669.57z"/>
		</g>
	</g>
</g>
</svg>
