<?xml version="1.0" encoding="utf-8"?>
<!-- Generator: Adobe Illustrator 24.0.3, SVG Export Plug-In . SVG Version: 6.00 Build 0)  -->
<svg version="1.1" id="Layer_1" xmlns="http://www.w3.org/2000/svg" xmlns:xlink="http://www.w3.org/1999/xlink" x="0px" y="0px"
	 viewBox="0 0 216 216" style="enable-background:new 0 0 720 216;" xml:space="preserve">
<g>
	<g>
		<path class="st0" d="M186.19,174.84C137.02,90.5,69.82,48.07,42.55,31.34c-3.21-1.96-6.97,1.48-5.3,4.84
			c5.12,10.32,12.29,27.05,17.38,48.1c0.26,1.08,0.99,2.02,2,2.5c0,0,6.85,3.09,12.21,5.81c5.36,2.72,2.76,5.37,0.51,5.7
			c-2.26,0.34-8,1.19-8,1.19c-1.97,0.34-3.25,2.12-3.04,4.1c2.52,23.97-7.87,57.87-24.12,76.38c-2.17,2.48-0.57,6.33,2.73,6.32
			l143.04-0.31C189.45,186.28,189.83,181.08,186.19,174.84z M170.64,177.52H91.4c-9.03,0-8.21-0.67,0.08-1.51
			c9.88-0.99,21.76-2.22,26.47-2.81c13.79-1.74,22.36-6.17,16.42-21.99c0,0-12.99-42.33-64.81-88.4c-4.28-3.81-8.38-7.66,0.4-0.35
			c21.59,17.96,64.35,57.04,101.83,112.48C172.85,176.5,171.72,177.52,170.64,177.52z"/>
	</g>
</g>
</svg>
