<svg xmlns="http://www.w3.org/2000/svg" viewBox="0 0 167.8047 185.2963">
  <title>truenas_enterprise-logo-mark-one-color-rgb</title>
  <g id="black-rgb">
    <g id="logoMark">
      <polygon id="logoMark_PathItem_" data-name="logoMark &lt;PathItem&gt;" points="160.494 39.984 129.522 57.881 92.94 36.76 91.239 35.77 91.239 0 160.494 39.984"/>
      <polygon id="logoMark_PathItem_2" data-name="logoMark &lt;PathItem&gt;" points="76.616 0 76.616 35.77 73.748 37.42 38.282 57.881 7.311 39.984 76.616 0"/>
      <polygon id="logoMark_PathItem_3" data-name="logoMark &lt;PathItem&gt;" points="167.805 105.329 167.805 141.098 91.239 185.296 91.239 149.552 167.805 105.329"/>
      <polygon id="logoMark_PathItem_4" data-name="logoMark &lt;PathItem&gt;" points="167.805 52.664 167.805 88.434 91.239 132.632 91.239 96.888 167.805 52.664"/>
      <polygon id="logoMark_PathItem_5" data-name="logoMark &lt;PathItem&gt;" points="76.616 149.552 76.616 185.296 0.025 141.073 0 105.329 34.602 125.308 34.754 125.384 76.616 149.552"/>
      <polygon id="logoMark_PathItem_6" data-name="logoMark &lt;PathItem&gt;" points="76.616 96.888 76.616 132.632 0.025 88.409 0 52.664 34.602 72.644 34.754 72.72 76.616 96.888"/>
      <polygon id="logoMark_PathItem_7" data-name="logoMark &lt;PathItem&gt;" points="115.153 66.348 84.182 84.22 53.185 66.348 84.182 48.45 115.153 66.348"/>
    </g>
  </g>
</svg>
