<svg xmlns="http://www.w3.org/2000/svg" width="23.999" height="24" viewBox="0 0 23.999 24">
  <path id="webdav-share" d="M-3527.6,3184.5h-4.8a1.2,1.2,0,0,1-1.2-1.2h-8.4v-2.4h8.4a1.2,1.2,0,0,1,1.2-1.2h1.2v-2.4h-7.2a2.4,2.4,0,0,1-2.4-2.4v-12a2.4,2.4,0,0,1,2.4-2.4h7.2l2.4,2.4h7.2a2.4,2.4,0,0,1,2.4,2.4v9.6a2.4,2.4,0,0,1-2.4,2.4h-7.2v2.4h1.2a1.2,1.2,0,0,1,1.2,1.2h8.4v2.4h-8.4A1.2,1.2,0,0,1-3527.6,3184.5Zm.185-14.48h0l1.344,5.48h1.744l1.345-5.48h-.929l-1.088,4.7h-.4l-1.088-4.7Zm-3.384,4.3h2.1l.3,1.176h.9l-1.36-5.48h-1.768l-1.352,5.48h.887l.3-1.176Zm-5.744-4.3v5.48h1.9a1.894,1.894,0,0,0,1.777-.776,2.7,2.7,0,0,0,.324-.876,6.473,6.473,0,0,0,.092-1.18,3.476,3.476,0,0,0-.463-2.008,2.018,2.018,0,0,0-1.729-.64Zm10.524-6.184v5.656l.272.024c.55.048.94.072,1.193.072a2.043,2.043,0,0,0,1.52-.46,2.39,2.39,0,0,0,.432-1.628,2.717,2.717,0,0,0-.365-1.628,1.43,1.43,0,0,0-1.188-.46,2.549,2.549,0,0,0-1,.24v-1.816Zm-2.52,1.576c-1.152,0-1.736.716-1.736,2.129a2.525,2.525,0,0,0,.388,1.56,1.543,1.543,0,0,0,1.276.488,8.353,8.353,0,0,0,1.616-.184l-.016-.648-.224.023c-.4.032-.792.049-1.168.049a1.025,1.025,0,0,1-.776-.232,1.1,1.1,0,0,1-.216-.728h2.48l.056-.624C-3526.86,3166.028-3527.425,3165.412-3528.54,3165.412Zm-8.072-1.392h-.936l1.072,5.48h1.44l.935-4.387h0l.943,4.387h1.432l1.08-5.48h-.936l-.784,4.712h-.176l-1.04-4.7h-1.041l-1.039,4.7h-.168Zm1.964,10.7h-1.008v-3.92h1.008a1.076,1.076,0,0,1,1.024.44,3.08,3.08,0,0,1,.249,1.432,6.42,6.42,0,0,1-.044.833,2.374,2.374,0,0,1-.172.632A1.047,1.047,0,0,1-3534.648,3174.716Zm5.776-1.176h-1.751l.679-2.776h.4l.671,2.774Zm4.316-4.728c-.108,0-.31-.011-.6-.032v-2.432l.128-.04a2.577,2.577,0,0,1,.769-.121.64.64,0,0,1,.588.292,2.065,2.065,0,0,1,.18,1.012,1.839,1.839,0,0,1-.212,1.02A.988.988,0,0,1-3524.556,3168.812Zm-3.16-1.616h-1.688a1.32,1.32,0,0,1,.212-.815.8.8,0,0,1,.652-.249.772.772,0,0,1,.636.236,1.372,1.372,0,0,1,.188.827Z" transform="translate(3542 -3160.5)"/>
</svg>
