<svg id="Share_Icon" data-name="Share Icon" xmlns="http://www.w3.org/2000/svg" width="24" height="24" viewBox="0 0 24 24">
  <path id="folder-network" d="M3.2,17.4V5.4A2.4,2.4,0,0,1,5.6,3h7.2l2.4,2.4h7.2a2.4,2.4,0,0,1,2.4,2.4v9.6a2.4,2.4,0,0,1-2.4,2.4H15.2v2.4h1.2a1.2,1.2,0,0,1,1.2,1.2H26v2.4H17.6A1.2,1.2,0,0,1,16.4,27H11.6a1.2,1.2,0,0,1-1.2-1.2H2V23.4h8.4a1.2,1.2,0,0,1,1.2-1.2h1.2V19.8H5.6A2.4,2.4,0,0,1,3.2,17.4Z" transform="translate(-2 -3)" fill="#ccc"/>
  <text id="Web_DAV" data-name="Web
DAV" transform="translate(12 9)" fill="#242424" font-size="8" font-family="TitilliumWeb-SemiBold, Titillium Web" font-weight="600"><tspan x="-7.74" y="0">Web</tspan><tspan x="-7.176" y="6">DAV</tspan></text>
</svg>
