<?xml version="1.0" encoding="UTF-8"?>
<svg id="Layer_1" data-name="Layer 1" xmlns="http://www.w3.org/2000/svg" version="1.1" viewBox="0 0 1366.9 250.4">
  <defs>
    <style>
      .hseries-cls-1 {
        fill-rule: evenodd;
      }

      .hseries-cls-1, .hseries-cls-2, .hseries-cls-3 {
        fill: #fff;
      }

      .hseries-cls-1, .hseries-cls-4, .hseries-cls-3 {
        stroke-width: 0px;
      }

      .hseries-cls-5 {
        stroke-miterlimit: 10;
        stroke-width: .2px;
      }

      .hseries-cls-5, .hseries-cls-6, .hseries-cls-7, .hseries-cls-8, .hseries-cls-9, .hseries-cls-10, .hseries-cls-11, .hseries-cls-12, .hseries-cls-2, .hseries-cls-13, .hseries-cls-14, .hseries-cls-15, .hseries-cls-16, .hseries-cls-17, .hseries-cls-18, .hseries-cls-19, .hseries-cls-20, .hseries-cls-21, .hseries-cls-22 {
        stroke: #000;
      }

      .hseries-cls-5, .hseries-cls-4 {
        fill: #e6e7e8;
      }

      .hseries-cls-6 {
        fill: #262626;
      }

      .hseries-cls-6, .hseries-cls-7, .hseries-cls-8, .hseries-cls-9, .hseries-cls-10, .hseries-cls-11, .hseries-cls-12, .hseries-cls-2, .hseries-cls-13, .hseries-cls-14, .hseries-cls-15, .hseries-cls-16, .hseries-cls-17, .hseries-cls-18, .hseries-cls-19, .hseries-cls-20, .hseries-cls-21, .hseries-cls-22 {
        stroke-linecap: round;
        stroke-linejoin: round;
        stroke-width: .2px;
      }

      .hseries-cls-7 {
        fill: #d8d8d8;
      }

      .hseries-cls-8, .hseries-cls-14 {
        fill: #000;
      }

      .hseries-cls-9 {
        fill: #1e1e1e;
      }

      .hseries-cls-10 {
        fill: #b5b5b6;
      }

      .hseries-cls-11 {
        fill: #adc174;
      }

      .hseries-cls-12 {
        fill: #2d2d2d;
      }

      .hseries-cls-13 {
        fill: #3a3a3a;
      }

      .hseries-cls-14 {
        isolation: isolate;
        opacity: .8;
      }

      .hseries-cls-15 {
        fill: #2b2b2b;
      }

      .hseries-cls-16 {
        fill: #383838;
      }

      .hseries-cls-17 {
        fill: #e5e5e5;
      }

      .hseries-cls-18 {
        fill: #cccccb;
      }

      .hseries-cls-19 {
        fill: #181818;
      }

      .hseries-cls-20 {
        fill: #0d0d0d;
      }

      .hseries-cls-21 {
        fill: #eaeaea;
      }

      .hseries-cls-22 {
        fill: #333;
      }

      /* Contrast Fixes */
      .sides {
        opacity: 0.75;
      }

      .chassis {
        opacity: 0.1;
      }

    </style>
  </defs>
  <g id="System">
    <rect class="chassis hseries-cls-8" x="69.9" y="3" width="1227.2" height="241.5"/>
    <polygon class="chassis hseries-cls-21" points="1315.8 3 1315.8 22.8 1312.9 22.8 1312.9 5.9 1300 5.9 1300 247.4 67 247.4 67 5.9 54 5.9 54 22.8 51.1 22.8 51.1 3 69.9 3 69.9 244.5 1297.1 244.5 1297.1 3 1315.8 3"/>
    <polygon class="chassis hseries-cls-21" points="1318.7 .1 1318.7 22.8 1315.8 22.8 1315.8 3 51.1 3 51.1 22.8 48.3 22.8 48.3 .1 1318.7 .1"/>
    <rect class="chassis hseries-cls-21" x="69.9" y=".1" width="1227.2" height="2.9"/>
    <g class="chassis">
      <rect class="hseries-cls-21" x="1284.1" y="3" width="13" height="241.5"/>
      <g>
        <rect class="hseries-cls-10" x="1287" y="20.6" width="7.2" height="6.3"/>
        <rect class="hseries-cls-10" x="1287" y="66.8" width="7.2" height="6.3"/>
      </g>
      <g>
        <rect class="hseries-cls-10" x="1287" y="100.6" width="7.2" height="6.3"/>
        <rect class="hseries-cls-10" x="1287" y="146.8" width="7.2" height="6.3"/>
      </g>
      <g>
        <rect class="hseries-cls-10" x="1287" y="180.6" width="7.2" height="6.3"/>
        <rect class="hseries-cls-10" x="1287" y="226.9" width="7.2" height="6.3"/>
      </g>
    </g>
    <g class="chassis">
      <rect class="hseries-cls-21" x="363.7" y="3" width="13" height="241.5"/>
      <g>
        <rect class="hseries-cls-10" x="366.6" y="20.5" width="7.2" height="6.3"/>
        <rect class="hseries-cls-10" x="366.6" y="66.8" width="7.2" height="6.3"/>
      </g>
      <g>
        <rect class="hseries-cls-10" x="366.6" y="100.6" width="7.2" height="6.3"/>
        <rect class="hseries-cls-10" x="366.6" y="146.8" width="7.2" height="6.3"/>
      </g>
      <g>
        <rect class="hseries-cls-10" x="366.6" y="180.6" width="7.2" height="6.3"/>
        <rect class="hseries-cls-10" x="366.6" y="226.9" width="7.2" height="6.3"/>
      </g>
    </g>
    <g class="chassis">
      <rect class="hseries-cls-21" x="670.5" y="3" width="13" height="241.5"/>
      <g>
        <rect class="hseries-cls-10" x="673.4" y="20.5" width="7.2" height="6.3"/>
        <rect class="hseries-cls-10" x="673.4" y="66.8" width="7.2" height="6.3"/>
      </g>
      <g>
        <rect class="hseries-cls-10" x="673.4" y="100.6" width="7.2" height="6.3"/>
        <rect class="hseries-cls-10" x="673.4" y="146.8" width="7.2" height="6.3"/>
      </g>
      <g>
        <rect class="hseries-cls-10" x="673.4" y="180.6" width="7.2" height="6.3"/>
        <rect class="hseries-cls-10" x="673.4" y="226.9" width="7.2" height="6.3"/>
      </g>
    </g>
    <g class="chassis">
      <rect class="hseries-cls-21" x="977.3" y="3" width="13" height="241.5"/>
      <g>
        <rect class="hseries-cls-10" x="980.2" y="20.5" width="7.2" height="6.3"/>
        <rect class="hseries-cls-10" x="980.2" y="66.8" width="7.2" height="6.3"/>
      </g>
      <g>
        <rect class="hseries-cls-10" x="980.2" y="100.6" width="7.2" height="6.3"/>
        <rect class="hseries-cls-10" x="980.2" y="146.9" width="7.2" height="6.3"/>
      </g>
      <g>
        <rect class="hseries-cls-10" x="980.2" y="180.6" width="7.2" height="6.3"/>
        <rect class="hseries-cls-10" x="980.2" y="226.9" width="7.2" height="6.3"/>
      </g>
    </g>
    <g class="sides">
      <g>
        <rect class="hseries-cls-22" x="1308.1" y="3" width="58.8" height="247.2"/>
        <rect class="hseries-cls-6" x="1300" y="3" width="8.1" height="51.7"/>
        <rect class="hseries-cls-6" x="1300" y="113.2" width="8.1" height="137.1"/>
        <rect class="hseries-cls-12" x="1302.8" y="44.8" width="5.3" height="39.6"/>
        <rect class="hseries-cls-12" x="1302.8" y="197.3" width="5.3" height="39.6"/>
        <g>
          <rect class="hseries-cls-16" x="1312.4" y="25.2" width="54.4" height="119.5"/>
          <g>
            <path class="hseries-cls-3" d="M1316.2,156.4c-.6-.7-.9-1.7-.9-3s.3-2.3,1-3c.6-.7,1.5-1.1,2.6-1.1s1.5.2,2.3.5l.5-1c-.8-.4-1.7-.6-2.8-.6s-1.8.2-2.6.6c-.7.4-1.3,1-1.7,1.8-.4.8-.6,1.7-.6,2.7,0,1.6.4,2.9,1.2,3.8.8.9,1.9,1.3,3.4,1.3s1.9-.1,2.6-.4v-1c-.9.2-1.7.4-2.4.4-1.1,0-2-.4-2.6-1.1h0Z"/>
            <path class="hseries-cls-3" d="M1322.2,148.4v1h3.2v9h1.2v-9h3.2v-1h-7.5Z"/>
            <path class="hseries-cls-3" d="M1335.5,153.9c1.3-.5,2-1.4,2-2.7s-.3-1.6-.9-2.1c-.6-.5-1.5-.7-2.7-.7h-2.8v10h1.2v-4.2h2.1l2.4,4.2h1.4l-2.7-4.5h0ZM1333.9,153.2h-1.6v-3.8h1.5c.9,0,1.5.1,1.9.4.4.3.6.8.6,1.4s-.2,1.1-.6,1.5c-.4.3-1,.5-1.8.5Z"/>
            <path class="hseries-cls-3" d="M1341,157.3v-8.9h-1.2v10h5.6v-1.1h-4.4,0Z"/>
            <path class="hseries-cls-3" d="M1347.8,157.3h0c0,0,2.2-2.2,2.2-2.2,1-.9,1.6-1.7,2-2.4.3-.6.5-1.2.5-1.9s-.3-1.5-.8-1.9-1.3-.7-2.2-.7-2.1.4-3,1.1l.6.8c.4-.4.9-.6,1.2-.8.4-.1.8-.2,1.2-.2s1,.1,1.3.5c.3.3.5.7.5,1.3s0,.7-.2,1.1c-.1.3-.3.7-.6,1-.2.3-.8.9-1.6,1.7l-2.6,2.6v1h6.6v-1.1h-5.1Z"/>
            <rect class="hseries-cls-3" x="1356.2" y="148.2" width="8.9" height="1.2"/>
            <path class="hseries-cls-3" d="M1360.6,150.1l-2,2.5h1.5v5.8h1v-5.8h1.5l-2-2.5Z"/>
          </g>
          <g>
            <path class="hseries-cls-3" d="M1328.3,55v3c0,.2-.2.4-.4.4s-.4-.2-.4-.4v-3c0-.2.2-.4.4-.4s.4.2.4.4Z"/>
            <g>
              <path class="hseries-cls-3" d="M1327.9,53.2c-3,0-5.4,2.4-5.4,5.4s2.4,5.4,5.4,5.4,5.4-2.4,5.4-5.4-2.4-5.4-5.4-5.4ZM1327.9,63.4c-2.6,0-4.7-2.1-4.7-4.7s2.1-4.7,4.7-4.7,4.7,2.1,4.7,4.7-2.1,4.7-4.7,4.7Z"/>
              <path class="hseries-cls-3" d="M1331.1,58.9c0,1.8-1.4,3.2-3.1,3.2s-3.1-1.4-3.1-3.2.3-1.6.9-2.2c.1-.2.4-.2.5,0,0,0,.1.2.1.3s0,.2,0,.3c-.5.5-.7,1.1-.7,1.7,0,1.3,1.1,2.4,2.4,2.4s2.4-1.1,2.4-2.4-.2-1.2-.7-1.7c0,0-.1-.2-.1-.3s0-.2.1-.3c0,0,.2-.1.3-.1s.2,0,.3,0c.6.6.9,1.4.9,2.2h0Z"/>
            </g>
          </g>
          <g>
            <path class="hseries-cls-1" d="M1327.9,81.7c-3.1,0-5.5,2.5-5.5,5.5s2.5,5.5,5.5,5.5,5.5-2.5,5.5-5.5-2.5-5.5-5.5-5.5ZM1327.9,92.1c-2.7,0-4.8-2.2-4.8-4.8s2.2-4.8,4.8-4.8,4.8,2.2,4.8,4.8-2.2,4.8-4.8,4.8Z"/>
            <polygon class="hseries-cls-3" points="1331.9 86.8 1331.9 87.6 1330.8 87.6 1327.9 90.5 1327.4 89.9 1325.1 87.6 1323.9 87.6 1323.9 86.8 1325.4 86.8 1326.1 87.6 1327.9 89.4 1330.5 86.8 1331.9 86.8"/>
          </g>
          <g>
            <path class="hseries-cls-3" d="M1322.5,105.5v10h1.2v-10h-1.2Z"/>
            <path class="hseries-cls-3" d="M1332.1,106.8c-.9-.9-2.1-1.3-3.6-1.3h-3.1v10h2.8c1.7,0,3-.4,3.9-1.3.9-.9,1.3-2.1,1.3-3.8s-.4-2.8-1.3-3.6h0ZM1331.1,113.5c-.7.7-1.7,1-3.1,1h-1.4v-8h1.7c1.3,0,2.3.3,2.9,1,.7.7,1,1.6,1,2.9s-.3,2.3-1,3h0Z"/>
          </g>
          <circle class="hseries-cls-20" cx="1327.9" cy="98.9" r="3.6"/>
          <path class="hseries-cls-3" d="M1363.2,95.3h-1.4v-1.3h1.4c0,0,.1,0,.1-.2s0-.2-.1-.2h-4.4v-1.3h1.4c0,0,.1,0,.1-.2v-3.2c0,0,0-.2-.1-.2h-3c0,0-.1,0-.1.2v3.2c0,0,0,.2.1.2h1.4v1.3h-4.4c0,0-.1,0-.1.2s0,.2.1.2h1.4v1.3h-1.4c0,0-.1,0-.1.2v3.2c0,0,0,.2.1.2h3c0,0,.1,0,.1-.2v-3.2c0-.1,0-.2-.1-.2h-1.4v-1.3h5.8v1.3h-1.4c0,0-.1,0-.1.2v3.2c0,0,0,.2.1.2h3c0,0,.1,0,.1-.2v-3.2c0-.1,0-.2-.1-.2ZM1357,95.6v2.9h-2.8v-2.9h2.8ZM1357.2,92v-2.9h2.8v2.9h-2.8ZM1363,98.5h-2.8v-2.9h2.8v2.9Z"/>
          <path class="hseries-cls-3" d="M1363.2,73.7h-1.4v-1.3h1.4c0,0,.1,0,.1-.2s0-.2-.1-.2h-4.4v-1.3h1.4c0,0,.1,0,.1-.2v-3.2c0,0,0-.2-.1-.2h-3c0,0-.1,0-.1.2v3.2c0,0,0,.2.1.2h1.4v1.3h-4.4c0,0-.1,0-.1.2s0,.2.1.2h1.4v1.3h-1.4c0,0-.1,0-.1.2v3.2c0,0,0,.2.1.2h3c0,0,.1,0,.1-.2v-3.2c0-.1,0-.2-.1-.2h-1.4v-1.3h5.8v1.3h-1.4c0,0-.1,0-.1.2v3.2c0,0,0,.2.1.2h3c0,0,.1,0,.1-.2v-3.2c0-.1,0-.2-.1-.2ZM1357,74v2.9h-2.8v-2.9h2.8ZM1357.2,70.4v-2.9h2.8v2.9h-2.8ZM1363,76.9h-2.8v-2.9h2.8v2.9Z"/>
          <g>
            <path class="hseries-cls-4" d="M1358.6,45.6l-4.7,10.1h9.4l-4.7-10.1h0ZM1358.6,46.7l3.9,8.4h-7.8l3.9-8.4h0Z"/>
            <rect class="hseries-cls-4" x="1358.4" y="48.5" width=".4" height="4.6" rx=".2" ry=".2"/>
            <rect class="hseries-cls-4" x="1358.2" y="53.8" width=".8" height=".8" rx=".4" ry=".4"/>
          </g>
        </g>
      </g>
      <g>
        <rect class="hseries-cls-20" x="1312.4" y="162" width="50.1" height="74.9"/>
        <path class="hseries-cls-2" d="M1322.6,190h0c0-5.4,4.4-9.8,9.9-9.8h10c5.4,0,9.9,4.4,9.9,9.8h0c0,5.4-4.4,9.8-9.9,9.8h-10c-5.4,0-9.9-4.4-9.9-9.8Z"/>
      </g>
      <g>
        <rect class="hseries-cls-22" x="1312.4" y="162" width="50.1" height="74.9"/>
        <circle class="hseries-cls-22" cx="1337.4" cy="173.3" r="1.8"/>
      </g>
    </g>
    <g class="sides">
      <g>
        <rect class="hseries-cls-22" x=".1" y="3" width="58.8" height="247.2"/>
        <rect class="hseries-cls-6" x="58.9" y="3" width="8.1" height="51.7"/>
        <rect class="hseries-cls-6" x="58.9" y="113.2" width="8.1" height="137.1"/>
        <rect class="hseries-cls-12" x="58.9" y="197.3" width="5.3" height="39.6"/>
        <g>
          <rect class="hseries-cls-16" x=".1" y="25.2" width="54.4" height="119.5"/>
          <g>
            <path class="hseries-cls-3" d="M16,55v3c0,.2-.2.4-.4.4s-.4-.2-.4-.4v-3c0-.2.2-.4.4-.4s.4.2.4.4Z"/>
            <g>
              <path class="hseries-cls-3" d="M15.7,53.2c-3,0-5.4,2.4-5.4,5.4s2.4,5.4,5.4,5.4,5.4-2.4,5.4-5.4-2.4-5.4-5.4-5.4ZM15.7,63.4c-2.6,0-4.7-2.1-4.7-4.7s2.1-4.7,4.7-4.7,4.7,2.1,4.7,4.7-2.1,4.7-4.7,4.7Z"/>
              <path class="hseries-cls-3" d="M18.8,58.9c0,1.8-1.4,3.2-3.1,3.2s-3.1-1.4-3.1-3.2.3-1.6.9-2.2c.1-.2.4-.2.5,0,0,0,.1.2.1.3s0,.2-.1.3c-.5.5-.7,1.1-.7,1.7,0,1.3,1.1,2.4,2.4,2.4s2.4-1.1,2.4-2.4-.2-1.2-.7-1.7c0,0-.1-.2-.1-.3s0-.2.1-.3c0,0,.2-.1.3-.1s.2,0,.3,0c.6.6.9,1.4.9,2.2h0Z"/>
            </g>
          </g>
          <g>
            <path class="hseries-cls-1" d="M15.7,81.7c-3.1,0-5.5,2.5-5.5,5.5s2.5,5.5,5.5,5.5,5.5-2.5,5.5-5.5-2.5-5.5-5.5-5.5ZM15.7,92.1c-2.7,0-4.9-2.2-4.9-4.8s2.2-4.8,4.9-4.8,4.8,2.2,4.8,4.8-2.2,4.8-4.8,4.8Z"/>
            <polygon class="hseries-cls-3" points="19.7 86.8 19.7 87.6 18.5 87.6 15.7 90.5 15.1 89.9 12.8 87.6 11.7 87.6 11.7 86.8 13.1 86.8 13.9 87.6 15.7 89.4 18.2 86.8 19.7 86.8"/>
          </g>
          <g>
            <path class="hseries-cls-3" d="M10.2,105.5v10h1.2v-10h-1.2Z"/>
            <path class="hseries-cls-3" d="M19.8,106.8c-.9-.9-2.1-1.3-3.6-1.3h-3.1v10h2.8c1.7,0,3-.4,3.9-1.3.9-.9,1.3-2.1,1.3-3.8s-.4-2.8-1.3-3.6ZM18.8,113.5c-.7.7-1.7,1-3.1,1h-1.4v-8h1.7c1.3,0,2.3.3,2.9,1,.7.7,1,1.6,1,2.9s-.4,2.3-1,3Z"/>
          </g>
          <circle class="hseries-cls-20" cx="15.7" cy="98.9" r="3.6"/>
          <path class="hseries-cls-3" d="M50.9,95.3h-1.4v-1.3h1.4c0,0,.1,0,.1-.2s0-.2-.1-.2h-4.4v-1.3h1.4c0,0,.1,0,.1-.2v-3.2c0,0,0-.2-.1-.2h-3c0,0-.1,0-.1.2v3.2c0,0,0,.2.1.2h1.4v1.3h-4.4c0,0-.1,0-.1.2s0,.2.1.2h1.4v1.3h-1.4c0,0-.1,0-.1.2v3.2c0,0,0,.2.1.2h3c0,0,.1,0,.1-.2v-3.2c0-.1,0-.2-.1-.2h-1.4v-1.3h5.8v1.3h-1.4c0,0-.1,0-.1.2v3.2c0,0,0,.2.1.2h3c0,0,.1,0,.1-.2v-3.2c0-.1,0-.2-.1-.2ZM44.7,95.6v2.9h-2.8v-2.9h2.8ZM45,92v-2.9h2.8v2.9h-2.8ZM50.8,98.5h-2.8v-2.9h2.8v2.9Z"/>
          <path class="hseries-cls-3" d="M50.9,73.7h-1.4v-1.3h1.4c0,0,.1,0,.1-.2s0-.2-.1-.2h-4.4v-1.3h1.4c0,0,.1,0,.1-.2v-3.2c0,0,0-.2-.1-.2h-3c0,0-.1,0-.1.2v3.2c0,0,0,.2.1.2h1.4v1.3h-4.4c0,0-.1,0-.1.2s0,.2.1.2h1.4v1.3h-1.4c0,0-.1,0-.1.2v3.2c0,0,0,.2.1.2h3c0,0,.1,0,.1-.2v-3.2c0-.1,0-.2-.1-.2h-1.4v-1.3h5.8v1.3h-1.4c0,0-.1,0-.1.2v3.2c0,0,0,.2.1.2h3c0,0,.1,0,.1-.2v-3.2c0-.1,0-.2-.1-.2ZM44.7,74v2.9h-2.8v-2.9h2.8ZM45,70.4v-2.9h2.8v2.9h-2.8ZM50.8,76.9h-2.8v-2.9h2.8v2.9Z"/>
          <g>
            <path class="hseries-cls-4" d="M46.4,45.6l-4.7,10.1h9.4l-4.7-10.1ZM46.4,46.7l3.9,8.4h-7.8l3.9-8.4Z"/>
            <rect class="hseries-cls-4" x="46.1" y="48.5" width=".5" height="4.6" rx=".2" ry=".2"/>
            <rect class="hseries-cls-4" x="46" y="53.8" width=".8" height=".8" rx=".4" ry=".4"/>
          </g>
          <g>
            <path class="hseries-cls-3" d="M6.6,149.3c-1.1,0-2,.4-2.6,1.1s-1,1.7-1,3,.3,2.3.9,3c.6.7,1.5,1.1,2.6,1.1s1.5-.1,2.4-.4v1c-.7.3-1.6.4-2.6.4-1.5,0-2.6-.4-3.4-1.3s-1.2-2.2-1.2-3.8.2-1.9.6-2.7.9-1.4,1.7-1.8,1.6-.6,2.6-.6,2,.2,2.8.6l-.5,1c-.8-.4-1.5-.5-2.3-.5h0Z"/>
            <path class="hseries-cls-3" d="M14.2,158.4h-1.2v-9h-3.2v-1h7.5v1h-3.2v9h0Z"/>
            <path class="hseries-cls-3" d="M20.1,154.2v4.2h-1.2v-10h2.7c1.2,0,2.1.2,2.7.7s.9,1.2.9,2.1-.7,2.2-2,2.7l2.7,4.5h-1.4l-2.4-4.2h-2.1ZM20.1,153.2h1.6c.8,0,1.4-.2,1.8-.5s.6-.8.6-1.5-.2-1.1-.6-1.4-1-.4-1.9-.4h-1.5v3.8h0Z"/>
            <path class="hseries-cls-3" d="M27.6,158.4v-10h1.2v8.9h4.4v1.1h-5.6Z"/>
            <rect class="hseries-cls-3" x="43.9" y="148.3" width="8.9" height="1.2"/>
            <path class="hseries-cls-3" d="M48.4,150.1l2,2.5h-1.5v5.8h-1v-5.8h-1.5l2-2.5h0Z"/>
            <path class="hseries-cls-3" d="M38.3,158.4h-1.1v-7.1c0-.6,0-1.1,0-1.7,0,.1-.2.2-.3.3-.1.1-.7.6-1.6,1.3l-.6-.8,2.7-2h1v10h0Z"/>
          </g>
        </g>
      </g>
      <g>
        <rect class="hseries-cls-20" x="4.4" y="162" width="50.1" height="74.9"/>
        <path class="hseries-cls-2" d="M14.6,190h0c0-5.4,4.4-9.8,9.9-9.8h10c5.4,0,9.9,4.4,9.9,9.8h0c0,5.4-4.4,9.8-9.9,9.8h-10c-5.4,0-9.9-4.4-9.9-9.8Z"/>
      </g>
      <g>
        <rect class="hseries-cls-22" x="4.4" y="162" width="50.1" height="74.9"/>
        <circle class="hseries-cls-22" cx="29.5" cy="173.3" r="1.8"/>
      </g>
    </g>
  </g>
  <g id="Drives">
    <g id="DRIVE_CAGE_1" data-name="DRIVE CAGE 0">
      <g>
        <g>
          <rect class="hseries-cls-19" x="72.9" y="70.9" width="287.7" height="9.7"/>
          <rect class="hseries-cls-12" x="335.2" y="10" width="25.5" height="11.2"/>
          <rect class="hseries-cls-17" x="121.3" y="10" width="213.9" height="11.2"/>
          <rect class="hseries-cls-12" x="72.9" y="10" width="48.4" height="11.2"/>
          <rect class="hseries-cls-13" x="72.9" y="21.2" width="287.7" height="28.1"/>
          <rect class="hseries-cls-12" x="72.9" y="49.3" width="287.7" height="21.6"/>
          <polygon class="hseries-cls-13" points="347.7 49.3 360.6 49.3 360.6 82.7 353.4 82.7 351.4 70.9 347.7 49.3"/>
          <polygon class="hseries-cls-13" points="80.1 82.7 72.9 82.7 72.9 49.3 85.9 49.3 80.1 82.7"/>
          <rect class="hseries-cls-11" x="83.6" y="80.5" width="266.4" height="2.2"/>
          <path class="hseries-cls-12" d="M279.8,70.9l-7.9,10.4c-.7.9-1.7,1.4-2.9,1.4h-104.4c-1.1,0-2.2-.5-2.9-1.4l-7.9-10.4h126,0Z"/>
          <rect class="hseries-cls-13" x="121.3" y="10" width="213.9" height="11.2"/>
          <polygon class="hseries-cls-22" points="336 82.7 336 70.9 351.4 70.9 353.4 82.7 336 82.7"/>
          <polygon class="hseries-cls-22" points="97.6 82.7 97.6 70.9 82.2 70.9 80.1 82.7 97.6 82.7"/>
          <path class="hseries-cls-18" d="M335.2,17.6v-7.6h25.5v7.6c0,2-1.6,3.6-3.6,3.6h-18.3c-2,0-3.6-1.6-3.6-3.6h0Z"/>
          <path class="hseries-cls-18" d="M72.9,17.6v-7.6h48.4v7.6c0,2-1.6,3.6-3.6,3.6h-41.2c-2,0-3.6-1.6-3.6-3.6Z"/>
          <path class="hseries-cls-17" d="M121.3,17.6v-7.6h213.9v7.6c0,2-1.6,3.6-3.6,3.6H124.9c-2,0-3.6-1.6-3.6-3.6Z"/>
          <polygon class="hseries-cls-15" points="353.4 82.7 347.7 49.3 335.6 49.3 335.6 82.7 353.4 82.7"/>
          <polygon class="hseries-cls-15" points="98 49.3 85.9 49.3 80.1 82.7 98 82.7 98 49.3"/>
          <rect class="hseries-cls-13" x="98" y="49.3" width="237.6" height="33.4"/>
          <rect class="hseries-cls-13" x="182.2" y="49.3" width="69.1" height="33.4"/>
        </g>
        <rect class="hseries-cls-14" x="72.9" y="10" width="287.7" height="72.7"/>
      </g>
      <path class="hseries-cls-19" d="M70.1,10v73.6h293.5V10H70.1ZM298.3,20.6h7.7l2.8,4.8-3.3,5.8h-6.6l-3.3-5.8,2.8-4.8ZM293.2,26.8l3.3,5.8-3.3,5.8h-6.6l-3.3-5.8,3.3-5.8s6.6,0,6.6,0ZM198,46.8l-3.3,5.8h-6.6l-3.3-5.8,3.3-5.8h6.6l3.3,5.8ZM197,39.7l3.3-5.8h6.6l3.3,5.8-3.3,5.8h-6.6l-3.3-5.8ZM200.3,48.2h6.6l3.3,5.8-3.3,5.8h-6.6l-3.3-5.8,3.3-5.8ZM209.3,46.8l3.3-5.8h6.6l3.3,5.8-3.3,5.8h-6.6l-3.3-5.8ZM221.6,39.7l3.3-5.8h6.6l3.3,5.8-3.3,5.8h-6.6l-3.3-5.8ZM224.9,48.2h6.6l3.3,5.8-3.3,5.8h-6.6l-3.3-5.8,3.3-5.8ZM233.9,46.8l3.3-5.8h6.6l3.3,5.8-3.3,5.8h-6.6l-3.3-5.8ZM246.2,39.7l3.3-5.8h6.6l3.3,5.8-3.3,5.8h-6.6l-3.3-5.8ZM249.6,48.2h6.6l3.3,5.8-3.3,5.8h-6.6l-3.3-5.8,3.3-5.8ZM258.6,46.8l3.3-5.8h6.6l3.3,5.8-3.3,5.8h-6.6l-3.3-5.8ZM270.9,39.7l3.3-5.8h6.6l3.3,5.8-3.3,5.8h-6.6l-3.3-5.8ZM274.2,48.2h6.6l3.3,5.8-3.3,5.8h-6.6l-3.3-5.8,3.3-5.8ZM283.2,46.8l3.3-5.8h6.6l3.3,5.8-3.3,5.8h-6.6l-3.3-5.8ZM273.7,20.6h7.7l2.8,4.8-3.3,5.8h-6.6l-3.3-5.8,2.8-4.8ZM268.5,26.8l3.3,5.8-3.3,5.8h-6.6l-3.3-5.8,3.3-5.8s6.6,0,6.6,0ZM249,20.6h7.7l2.8,4.8-3.3,5.8h-6.6l-3.3-5.8,2.8-4.8ZM243.9,26.8l3.3,5.8-3.3,5.8h-6.6l-3.3-5.8,3.3-5.8s6.6,0,6.6,0ZM224.4,20.6h7.7l2.8,4.8-3.3,5.8h-6.6l-3.3-5.8,2.8-4.8ZM219.3,26.8l3.3,5.8-3.3,5.8h-6.6l-3.3-5.8,3.3-5.8s6.6,0,6.6,0ZM199.8,20.6h7.7l2.8,4.8-3.3,5.8h-6.6l-3.3-5.8,2.8-4.8ZM194.6,26.8l3.3,5.8-3.3,5.8h-6.6l-3.3-5.8,3.3-5.8s6.6,0,6.6,0ZM175.2,20.6h7.7l2.8,4.8-3.3,5.8h-6.6l-3.3-5.8,2.8-4.8ZM175.7,34h6.6l3.3,5.8-3.3,5.8h-6.6l-3.3-5.8s3.3-5.8,3.3-5.8ZM175.7,48.2h6.6l3.3,5.8-3.3,5.8h-6.6l-3.3-5.8,3.3-5.8ZM112.6,73h-11.2v-8.6h11.2s0,8.6,0,8.6ZM112.6,29.3h-11.2v-8.6h11.2s0,8.6,0,8.6ZM153.9,73h-11v-8.6h11v8.6ZM153.9,29.3h-11v-8.6h11v8.6ZM182.9,73h-7.7l-2.8-4.8,3.3-5.8h6.6l3.3,5.8s-2.8,4.8-2.8,4.8ZM188,66.8l-3.3-5.8,3.3-5.8h6.6l3.3,5.8-3.3,5.8h-6.6ZM207.5,73h-7.7l-2.8-4.8,3.3-5.8h6.6l3.3,5.8s-2.8,4.8-2.8,4.8ZM212.6,66.8l-3.3-5.8,3.3-5.8h6.6l3.3,5.8-3.3,5.8h-6.6ZM232.1,73h-7.7l-2.8-4.8,3.3-5.8h6.6l3.3,5.8s-2.8,4.8-2.8,4.8ZM237.3,66.8l-3.3-5.8,3.3-5.8h6.6l3.3,5.8-3.3,5.8h-6.6ZM256.8,73h-7.7l-2.8-4.8,3.3-5.8h6.6l3.3,5.8s-2.8,4.8-2.8,4.8ZM261.9,66.8l-3.3-5.8,3.3-5.8h6.6l3.3,5.8-3.3,5.8h-6.6ZM281.4,73h-7.7l-2.8-4.8,3.3-5.8h6.6l3.3,5.8s-2.8,4.8-2.8,4.8ZM286.5,66.8l-3.3-5.8,3.3-5.8h6.6l3.3,5.8-3.3,5.8h-6.6ZM306,73h-7.7l-2.8-4.8,3.3-5.8h6.6l3.3,5.8s-2.8,4.8-2.8,4.8ZM305.5,59.7h-6.6l-3.3-5.8,3.3-5.8h6.6l3.3,5.8s-3.3,5.8-3.3,5.8ZM305.5,45.5h-6.6l-3.3-5.8,3.3-5.8h6.6l3.3,5.8-3.3,5.8ZM328,73h-8.6v-8.6h8.6v8.6ZM328,29.3h-8.6v-8.6h8.6v8.6Z"/>
      <rect class="hseries-cls-9" x="112.6" y="20.6" width="30.3" height="52.3"/>
      <rect class="tint-target hseries-cls-7" x="108.3" y="30.8" width="33.8" height="32.1"/>
      <g>
        <rect class="tint-target hseries-cls-7" x="142.1" y="30.8" width="224" height="32.1"/>
        <rect class="tint-target hseries-cls-18" x="315.7" y="37.5" width="43.2" height="18.7" rx="4.4" ry="4.4"/>
      </g>
      <g>
        <polygon class="hseries-cls-6" points="328 28.8 328 20.6 101.4 20.6 101.4 73 328 73 328 64.8 363.5 64.8 363.5 84.4 70.1 84.4 70.1 9.2 363.5 9.2 363.5 28.8 328 28.8"/>
        <g>
          <path class="hseries-cls-8" d="M355.5,70.6l-.8,5-.8-5c0-.5.2-.9.7-1s.9.2,1,.7c0,0,0,.2,0,.3"/>
          <circle class="hseries-cls-8" cx="354.7" cy="79.2" r=".5"/>
        </g>
        <path class="hseries-cls-8" d="M354.7,14c-1.8,0-3.2.8-3.2,1.9v6.3c0,1.1,1.4,1.9,3.2,1.9s3.2-.8,3.2-1.9v-6.3c0-1.1-1.4-1.9-3.2-1.9M354.7,14.7c1.5,0,2.5.6,2.5,1.2s-1,1.2-2.5,1.2-2.5-.6-2.5-1.2,1-1.2,2.5-1.2M354.7,23.3c-1.5,0-2.5-.6-2.5-1.2v-5.1c.6.4,1.5.7,2.5.7s1.9-.3,2.5-.7v5.1c0,.5-1,1.2-2.5,1.2"/>
      </g>
    </g>
    <g id="DRIVE_CAGE_2" data-name="DRIVE CAGE 1">
      <g>
        <g>
          <rect class="hseries-cls-19" x="379.7" y="70.9" width="287.7" height="9.7"/>
          <rect class="hseries-cls-12" x="642" y="10" width="25.5" height="11.2"/>
          <rect class="hseries-cls-17" x="428.1" y="10" width="213.9" height="11.2"/>
          <rect class="hseries-cls-12" x="379.7" y="10" width="48.4" height="11.2"/>
          <rect class="hseries-cls-13" x="379.7" y="21.2" width="287.7" height="28.1"/>
          <rect class="hseries-cls-12" x="379.7" y="49.3" width="287.7" height="21.6"/>
          <polygon class="hseries-cls-13" points="654.5 49.3 667.4 49.3 667.4 82.7 660.2 82.7 658.2 70.9 654.5 49.3"/>
          <polygon class="hseries-cls-13" points="386.9 82.7 379.7 82.7 379.7 49.3 392.7 49.3 386.9 82.7"/>
          <rect class="hseries-cls-11" x="390.4" y="80.5" width="266.4" height="2.2"/>
          <path class="hseries-cls-12" d="M586.6,70.9l-7.9,10.4c-.7.9-1.7,1.4-2.9,1.4h-104.4c-1.1,0-2.2-.5-2.9-1.4l-7.9-10.4h126,0Z"/>
          <rect class="hseries-cls-13" x="428.1" y="10" width="213.9" height="11.2"/>
          <polygon class="hseries-cls-22" points="642.8 82.7 642.8 70.9 658.2 70.9 660.2 82.7 642.8 82.7"/>
          <polygon class="hseries-cls-22" points="404.4 82.7 404.4 70.9 389 70.9 386.9 82.7 404.4 82.7"/>
          <path class="hseries-cls-18" d="M642,17.6v-7.6h25.5v7.6c0,2-1.6,3.6-3.6,3.6h-18.3c-2,0-3.6-1.6-3.6-3.6h0Z"/>
          <path class="hseries-cls-18" d="M379.7,17.6v-7.6h48.4v7.6c0,2-1.6,3.6-3.6,3.6h-41.2c-2,0-3.6-1.6-3.6-3.6Z"/>
          <path class="hseries-cls-17" d="M428.1,17.6v-7.6h213.9v7.6c0,2-1.6,3.6-3.6,3.6h-206.7c-2,0-3.6-1.6-3.6-3.6Z"/>
          <polygon class="hseries-cls-15" points="660.2 82.7 654.5 49.3 642.4 49.3 642.4 82.7 660.2 82.7"/>
          <polygon class="hseries-cls-15" points="404.8 49.3 392.7 49.3 386.9 82.7 404.8 82.7 404.8 49.3"/>
          <rect class="hseries-cls-13" x="404.8" y="49.3" width="237.6" height="33.4"/>
          <rect class="hseries-cls-13" x="489" y="49.3" width="69.1" height="33.4"/>
        </g>
        <rect class="hseries-cls-14" x="379.7" y="10" width="287.7" height="72.7"/>
      </g>
      <path class="hseries-cls-19" d="M376.9,10v73.6h293.5V10h-293.5ZM605.1,20.6h7.7l2.8,4.8-3.3,5.8h-6.7l-3.3-5.8,2.8-4.8h0ZM600,26.8l3.3,5.8-3.3,5.8h-6.7l-3.3-5.8,3.3-5.8s6.7,0,6.7,0ZM504.8,46.8l-3.3,5.8h-6.6l-3.3-5.8,3.3-5.8h6.6l3.3,5.8ZM503.8,39.7l3.3-5.8h6.7l3.3,5.8-3.3,5.8h-6.6l-3.3-5.8h0ZM507.1,48.2h6.7l3.3,5.8-3.3,5.8h-6.6l-3.3-5.8,3.3-5.8h0ZM516.1,46.8l3.3-5.8h6.7l3.3,5.8-3.3,5.8h-6.7l-3.3-5.8ZM528.4,39.7l3.3-5.8h6.6l3.3,5.8-3.3,5.8h-6.6l-3.3-5.8ZM531.8,48.2h6.6l3.3,5.8-3.3,5.8h-6.6l-3.3-5.8,3.3-5.8ZM540.7,46.8l3.3-5.8h6.7l3.3,5.8-3.3,5.8h-6.7l-3.3-5.8ZM553,39.7l3.3-5.8h6.6l3.3,5.8-3.3,5.8h-6.6l-3.3-5.8ZM556.4,48.2h6.6l3.3,5.8-3.3,5.8h-6.6l-3.3-5.8,3.3-5.8ZM565.4,46.8l3.3-5.8h6.7l3.3,5.8-3.3,5.8h-6.7l-3.3-5.8ZM577.7,39.7l3.3-5.8h6.7l3.3,5.8-3.3,5.8h-6.7l-3.3-5.8ZM581,48.2h6.7l3.3,5.8-3.3,5.8h-6.7l-3.3-5.8,3.3-5.8ZM590,46.8l3.3-5.8h6.7l3.3,5.8-3.3,5.8h-6.7l-3.3-5.8ZM580.5,20.6h7.7l2.8,4.8-3.3,5.8h-6.7l-3.3-5.8,2.8-4.8h0ZM575.3,26.8l3.3,5.8-3.3,5.8h-6.7l-3.3-5.8,3.3-5.8s6.7,0,6.7,0ZM555.8,20.6h7.7l2.8,4.8-3.3,5.8h-6.7l-3.3-5.8,2.8-4.8h0ZM550.7,26.8l3.3,5.8-3.3,5.8h-6.7l-3.3-5.8,3.3-5.8s6.7,0,6.7,0ZM531.2,20.6h7.7l2.8,4.8-3.3,5.8h-6.7l-3.3-5.8,2.8-4.8h0ZM526.1,26.8l3.3,5.8-3.3,5.8h-6.7l-3.3-5.8,3.3-5.8s6.7,0,6.7,0ZM506.6,20.6h7.7l2.8,4.8-3.3,5.8h-6.6l-3.3-5.8,2.8-4.8h0ZM501.5,26.8l3.3,5.8-3.3,5.8h-6.6l-3.3-5.8,3.3-5.8s6.6,0,6.6,0ZM482,20.6h7.7l2.8,4.8-3.3,5.8h-6.6l-3.3-5.8,2.8-4.8ZM482.5,34h6.6l3.3,5.8-3.3,5.8h-6.6l-3.3-5.8s3.3-5.8,3.3-5.8ZM482.5,48.2h6.6l3.3,5.8-3.3,5.8h-6.6l-3.3-5.8,3.3-5.8ZM419.4,73h-11.2v-8.6h11.2v8.6ZM419.4,29.3h-11.2v-8.6h11.2v8.6ZM460.7,73h-11v-8.6h11v8.6ZM460.7,29.3h-11v-8.6h11v8.6ZM489.7,73h-7.7l-2.8-4.8,3.3-5.8h6.6l3.3,5.8s-2.8,4.8-2.8,4.8ZM494.8,66.8l-3.3-5.8,3.3-5.8h6.6l3.3,5.8-3.3,5.8h-6.6ZM514.3,73h-7.7l-2.8-4.8,3.3-5.8h6.6l3.3,5.8s-2.8,4.8-2.8,4.8ZM519.4,66.8l-3.3-5.8,3.3-5.8h6.7l3.3,5.8-3.3,5.8h-6.7ZM538.9,73h-7.7l-2.8-4.8,3.3-5.8h6.7l3.3,5.8-2.8,4.8h0ZM544.1,66.8l-3.3-5.8,3.3-5.8h6.7l3.3,5.8-3.3,5.8h-6.7ZM563.5,73h-7.7l-2.8-4.8,3.3-5.8h6.7l3.3,5.8-2.8,4.8h0ZM568.7,66.8l-3.3-5.8,3.3-5.8h6.7l3.3,5.8-3.3,5.8h-6.7ZM588.2,73h-7.7l-2.8-4.8,3.3-5.8h6.7l3.3,5.8-2.8,4.8h0ZM593.3,66.8l-3.3-5.8,3.3-5.8h6.7l3.3,5.8-3.3,5.8h-6.7ZM612.8,73h-7.7l-2.8-4.8,3.3-5.8h6.7l3.3,5.8-2.8,4.8h0ZM612.3,59.7h-6.7l-3.3-5.8,3.3-5.8h6.7l3.3,5.8s-3.3,5.8-3.3,5.8ZM612.3,45.5h-6.7l-3.3-5.8,3.3-5.8h6.7l3.3,5.8-3.3,5.8ZM634.8,73h-8.6v-8.6h8.6v8.6ZM634.8,29.3h-8.6v-8.6h8.6v8.6Z"/>
      <rect class="hseries-cls-9" x="419.4" y="20.6" width="30.3" height="52.3"/>
      <rect class="tint-target hseries-cls-7" x="415.2" y="30.8" width="33.8" height="32.1"/>
      <g>
        <rect class="tint-target hseries-cls-7" x="448.9" y="30.8" width="224" height="32.1"/>
        <rect class="tint-target hseries-cls-18" x="622.5" y="37.5" width="43.2" height="18.7" rx="4.4" ry="4.4"/>
      </g>
      <g>
        <polygon class="hseries-cls-6" points="634.8 28.8 634.8 20.6 408.2 20.6 408.2 73 634.8 73 634.8 64.8 670.3 64.8 670.3 84.4 376.9 84.4 376.9 9.2 670.3 9.2 670.3 28.8 634.8 28.8"/>
        <g>
          <path class="hseries-cls-8" d="M662.3,70.6l-.8,5-.8-5c0-.5.2-.9.7-1s.9.2,1,.7c0,0,0,.2,0,.3"/>
          <circle class="hseries-cls-8" cx="661.5" cy="79.2" r=".5"/>
        </g>
        <path class="hseries-cls-8" d="M661.5,14c-1.8,0-3.2.8-3.2,1.9v6.3c0,1.1,1.4,1.9,3.2,1.9s3.2-.8,3.2-1.9v-6.3c0-1.1-1.4-1.9-3.2-1.9M661.5,14.7c1.5,0,2.5.6,2.5,1.2s-1,1.2-2.5,1.2-2.5-.6-2.5-1.2,1-1.2,2.5-1.2M661.5,23.3c-1.5,0-2.5-.6-2.5-1.2v-5.1c.6.4,1.5.7,2.5.7s1.9-.3,2.5-.7v5.1c0,.5-1,1.2-2.5,1.2"/>
      </g>
    </g>
    <g id="DRIVE_CAGE_3" data-name="DRIVE CAGE 2">
      <g>
        <g>
          <rect class="hseries-cls-19" x="686.5" y="70.9" width="287.7" height="9.7"/>
          <rect class="hseries-cls-12" x="948.8" y="10" width="25.5" height="11.2"/>
          <rect class="hseries-cls-17" x="734.9" y="10" width="213.9" height="11.2"/>
          <rect class="hseries-cls-12" x="686.5" y="10" width="48.4" height="11.2"/>
          <rect class="hseries-cls-13" x="686.5" y="21.2" width="287.7" height="28.1"/>
          <rect class="hseries-cls-12" x="686.5" y="49.3" width="287.7" height="21.6"/>
          <polygon class="hseries-cls-13" points="961.3 49.3 974.2 49.3 974.2 82.7 967 82.7 965 70.9 961.3 49.3"/>
          <polygon class="hseries-cls-13" points="693.7 82.7 686.5 82.7 686.5 49.3 699.5 49.3 693.7 82.7"/>
          <rect class="hseries-cls-11" x="697.2" y="80.5" width="266.4" height="2.2"/>
          <path class="hseries-cls-12" d="M893.4,70.9l-7.9,10.4c-.7.9-1.7,1.4-2.9,1.4h-104.4c-1.1,0-2.2-.5-2.9-1.4l-7.9-10.4h126,0Z"/>
          <rect class="hseries-cls-13" x="734.9" y="10" width="213.9" height="11.2"/>
          <polygon class="hseries-cls-22" points="949.6 82.7 949.6 70.9 965 70.9 967 82.7 949.6 82.7"/>
          <polygon class="hseries-cls-22" points="711.2 82.7 711.2 70.9 695.8 70.9 693.7 82.7 711.2 82.7"/>
          <path class="hseries-cls-18" d="M948.8,17.6v-7.6h25.5v7.6c0,2-1.6,3.6-3.6,3.6h-18.3c-2,0-3.6-1.6-3.6-3.6h0Z"/>
          <path class="hseries-cls-18" d="M686.5,17.6v-7.6h48.4v7.6c0,2-1.6,3.6-3.6,3.6h-41.2c-2,0-3.6-1.6-3.6-3.6h0Z"/>
          <path class="hseries-cls-17" d="M734.9,17.6v-7.6h213.9v7.6c0,2-1.6,3.6-3.6,3.6h-206.7c-2,0-3.6-1.6-3.6-3.6h0Z"/>
          <polygon class="hseries-cls-15" points="967 82.7 961.3 49.3 949.2 49.3 949.2 82.7 967 82.7"/>
          <polygon class="hseries-cls-15" points="711.6 49.3 699.5 49.3 693.7 82.7 711.6 82.7 711.6 49.3"/>
          <rect class="hseries-cls-13" x="711.6" y="49.3" width="237.6" height="33.4"/>
          <rect class="hseries-cls-13" x="795.8" y="49.3" width="69.1" height="33.4"/>
        </g>
        <rect class="hseries-cls-14" x="686.5" y="10" width="287.7" height="72.7"/>
      </g>
      <path class="hseries-cls-19" d="M683.7,10v73.6h293.5V10h-293.5ZM911.9,20.6h7.7l2.8,4.8-3.3,5.8h-6.7l-3.3-5.8,2.8-4.8h0ZM906.8,26.8l3.3,5.8-3.3,5.8h-6.7l-3.3-5.8,3.3-5.8s6.7,0,6.7,0ZM811.6,46.8l-3.3,5.8h-6.7l-3.3-5.8,3.3-5.8h6.7l3.3,5.8ZM810.6,39.7l3.3-5.8h6.7l3.3,5.8-3.3,5.8h-6.7l-3.3-5.8ZM813.9,48.2h6.7l3.3,5.8-3.3,5.8h-6.7l-3.3-5.8,3.3-5.8ZM822.9,46.8l3.3-5.8h6.7l3.3,5.8-3.3,5.8h-6.7l-3.3-5.8ZM835.2,39.7l3.3-5.8h6.6l3.3,5.8-3.3,5.8h-6.6l-3.3-5.8ZM838.6,48.2h6.6l3.3,5.8-3.3,5.8h-6.6l-3.3-5.8,3.3-5.8ZM847.5,46.8l3.3-5.8h6.7l3.3,5.8-3.3,5.8h-6.7l-3.3-5.8ZM859.9,39.7l3.3-5.8h6.6l3.3,5.8-3.3,5.8h-6.6l-3.3-5.8ZM863.2,48.2h6.6l3.3,5.8-3.3,5.8h-6.6l-3.3-5.8,3.3-5.8ZM872.2,46.8l3.3-5.8h6.7l3.3,5.8-3.3,5.8h-6.7l-3.3-5.8ZM884.5,39.7l3.3-5.8h6.7l3.3,5.8-3.3,5.8h-6.7l-3.3-5.8ZM887.8,48.2h6.7l3.3,5.8-3.3,5.8h-6.7l-3.3-5.8,3.3-5.8ZM896.8,46.8l3.3-5.8h6.7l3.3,5.8-3.3,5.8h-6.7l-3.3-5.8ZM887.3,20.6h7.7l2.8,4.8-3.3,5.8h-6.7l-3.3-5.8,2.8-4.8h0ZM882.2,26.8l3.3,5.8-3.3,5.8h-6.7l-3.3-5.8,3.3-5.8s6.7,0,6.7,0ZM862.7,20.6h7.7l2.8,4.8-3.3,5.8h-6.7l-3.3-5.8,2.8-4.8h0ZM857.5,26.8l3.3,5.8-3.3,5.8h-6.7l-3.3-5.8,3.3-5.8s6.7,0,6.7,0ZM838,20.6h7.7l2.8,4.8-3.3,5.8h-6.7l-3.3-5.8,2.8-4.8h0ZM832.9,26.8l3.3,5.8-3.3,5.8h-6.7l-3.3-5.8,3.3-5.8s6.7,0,6.7,0ZM813.4,20.6h7.7l2.8,4.8-3.3,5.8h-6.6l-3.3-5.8,2.8-4.8h0ZM808.3,26.8l3.3,5.8-3.3,5.8h-6.7l-3.3-5.8,3.3-5.8s6.7,0,6.7,0ZM788.8,20.6h7.7l2.8,4.8-3.3,5.8h-6.6l-3.3-5.8,2.8-4.8h0ZM789.3,34h6.7l3.3,5.8-3.3,5.8h-6.7l-3.3-5.8s3.3-5.8,3.3-5.8ZM789.3,48.2h6.7l3.3,5.8-3.3,5.8h-6.7l-3.3-5.8,3.3-5.8ZM726.2,73h-11.2v-8.6h11.2v8.6ZM726.2,29.3h-11.2v-8.6h11.2v8.6ZM767.5,73h-11v-8.6h11v8.6ZM767.5,29.3h-11v-8.6h11v8.6ZM796.5,73h-7.7l-2.8-4.8,3.3-5.8h6.6l3.3,5.8-2.8,4.8h0ZM801.6,66.8l-3.3-5.8,3.3-5.8h6.7l3.3,5.8-3.3,5.8h-6.7ZM821.1,73h-7.7l-2.8-4.8,3.3-5.8h6.6l3.3,5.8-2.8,4.8h0ZM826.2,66.8l-3.3-5.8,3.3-5.8h6.7l3.3,5.8-3.3,5.8h-6.7ZM845.7,73h-7.7l-2.8-4.8,3.3-5.8h6.7l3.3,5.8-2.8,4.8h0ZM850.9,66.8l-3.3-5.8,3.3-5.8h6.7l3.3,5.8-3.3,5.8h-6.7ZM870.4,73h-7.7l-2.8-4.8,3.3-5.8h6.7l3.3,5.8-2.8,4.8h0ZM875.5,66.8l-3.3-5.8,3.3-5.8h6.7l3.3,5.8-3.3,5.8h-6.7ZM895,73h-7.7l-2.8-4.8,3.3-5.8h6.7l3.3,5.8-2.8,4.8h0ZM900.1,66.8l-3.3-5.8,3.3-5.8h6.7l3.3,5.8-3.3,5.8h-6.7ZM919.6,73h-7.7l-2.8-4.8,3.3-5.8h6.7l3.3,5.8-2.8,4.8h0ZM919.1,59.7h-6.7l-3.3-5.8,3.3-5.8h6.7l3.3,5.8s-3.3,5.8-3.3,5.8ZM919.1,45.5h-6.7l-3.3-5.8,3.3-5.8h6.7l3.3,5.8-3.3,5.8ZM941.6,73h-8.6v-8.6h8.6v8.6ZM941.6,29.3h-8.6v-8.6h8.6v8.6Z"/>
      <rect class="hseries-cls-9" x="726.2" y="20.6" width="30.3" height="52.3"/>
      <rect class="tint-target hseries-cls-7" x="722" y="30.8" width="33.8" height="32.1"/>
      <g>
        <rect class="tint-target hseries-cls-7" x="755.7" y="30.8" width="224" height="32.1"/>
        <rect class="tint-target hseries-cls-18" x="929.3" y="37.5" width="43.2" height="18.7" rx="4.4" ry="4.4"/>
      </g>
      <g>
        <polygon class="hseries-cls-6" points="941.6 28.8 941.6 20.6 715 20.6 715 73 941.6 73 941.6 64.8 977.1 64.8 977.1 84.4 683.7 84.4 683.7 9.2 977.1 9.2 977.1 28.8 941.6 28.8"/>
        <g>
          <path class="hseries-cls-8" d="M969.1,70.6l-.8,5-.8-5c0-.5.2-.9.7-1s.9.2,1,.7c0,0,0,.2,0,.3"/>
          <circle class="hseries-cls-8" cx="968.3" cy="79.2" r=".5"/>
        </g>
        <path class="hseries-cls-8" d="M968.3,14c-1.8,0-3.2.8-3.2,1.9v6.3c0,1.1,1.4,1.9,3.2,1.9s3.2-.8,3.2-1.9v-6.3c0-1.1-1.4-1.9-3.2-1.9M968.3,14.7c1.5,0,2.5.6,2.5,1.2s-1,1.2-2.5,1.2-2.5-.6-2.5-1.2,1-1.2,2.5-1.2M968.3,23.3c-1.5,0-2.5-.6-2.5-1.2v-5.1c.6.4,1.5.7,2.5.7s1.9-.3,2.5-.7v5.1c0,.5-1,1.2-2.5,1.2"/>
      </g>
    </g>
    <g id="DRIVE_CAGE_4" data-name="DRIVE CAGE 3">
      <g>
        <g>
          <rect class="hseries-cls-19" x="993.3" y="70.9" width="287.7" height="9.7"/>
          <rect class="hseries-cls-12" x="1255.6" y="10" width="25.5" height="11.2"/>
          <rect class="hseries-cls-17" x="1041.7" y="10" width="213.9" height="11.2"/>
          <rect class="hseries-cls-12" x="993.3" y="10" width="48.4" height="11.2"/>
          <rect class="hseries-cls-13" x="993.3" y="21.2" width="287.7" height="28.1"/>
          <rect class="hseries-cls-12" x="993.3" y="49.3" width="287.7" height="21.6"/>
          <polygon class="hseries-cls-13" points="1268.1 49.3 1281.1 49.3 1281.1 82.7 1273.8 82.7 1271.8 70.9 1268.1 49.3"/>
          <polygon class="hseries-cls-13" points="1000.5 82.7 993.3 82.7 993.3 49.3 1006.3 49.3 1000.5 82.7"/>
          <rect class="hseries-cls-11" x="1004" y="80.5" width="266.4" height="2.2"/>
          <path class="hseries-cls-12" d="M1200.2,70.9l-7.9,10.4c-.7.9-1.7,1.4-2.9,1.4h-104.4c-1.1,0-2.2-.5-2.9-1.4l-7.9-10.4h126,0Z"/>
          <rect class="hseries-cls-13" x="1041.7" y="10" width="213.9" height="11.2"/>
          <polygon class="hseries-cls-22" points="1256.4 82.7 1256.4 70.9 1271.8 70.9 1273.8 82.7 1256.4 82.7"/>
          <polygon class="hseries-cls-22" points="1018 82.7 1018 70.9 1002.6 70.9 1000.5 82.7 1018 82.7"/>
          <path class="hseries-cls-18" d="M1255.6,17.6v-7.6h25.5v7.6c0,2-1.6,3.6-3.6,3.6h-18.3c-2,0-3.6-1.6-3.6-3.6Z"/>
          <path class="hseries-cls-18" d="M993.3,17.6v-7.6h48.4v7.6c0,2-1.6,3.6-3.6,3.6h-41.2c-2,0-3.6-1.6-3.6-3.6h0Z"/>
          <path class="hseries-cls-17" d="M1041.7,17.6v-7.6h213.9v7.6c0,2-1.6,3.6-3.6,3.6h-206.7c-2,0-3.6-1.6-3.6-3.6h0Z"/>
          <polygon class="hseries-cls-15" points="1273.8 82.7 1268.1 49.3 1256 49.3 1256 82.7 1273.8 82.7"/>
          <polygon class="hseries-cls-15" points="1018.4 49.3 1006.3 49.3 1000.5 82.7 1018.4 82.7 1018.4 49.3"/>
          <rect class="hseries-cls-13" x="1018.4" y="49.3" width="237.6" height="33.4"/>
          <rect class="hseries-cls-13" x="1102.6" y="49.3" width="69.1" height="33.4"/>
        </g>
        <rect class="hseries-cls-14" x="993.3" y="10" width="287.7" height="72.7"/>
      </g>
      <path class="hseries-cls-19" d="M990.5,10v73.6h293.5V10h-293.5ZM1218.7,20.6h7.7l2.8,4.8-3.3,5.8h-6.7l-3.3-5.8,2.8-4.8h0ZM1213.6,26.8l3.3,5.8-3.3,5.8h-6.7l-3.3-5.8,3.3-5.8s6.7,0,6.7,0ZM1118.4,46.8l-3.3,5.8h-6.7l-3.3-5.8,3.3-5.8h6.7l3.3,5.8ZM1117.4,39.7l3.3-5.8h6.7l3.3,5.8-3.3,5.8h-6.7l-3.3-5.8ZM1120.7,48.2h6.7l3.3,5.8-3.3,5.8h-6.7l-3.3-5.8,3.3-5.8ZM1129.7,46.8l3.3-5.8h6.7l3.3,5.8-3.3,5.8h-6.7l-3.3-5.8ZM1142,39.7l3.3-5.8h6.6l3.3,5.8-3.3,5.8h-6.6l-3.3-5.8ZM1145.4,48.2h6.6l3.3,5.8-3.3,5.8h-6.6l-3.3-5.8,3.3-5.8ZM1154.3,46.8l3.3-5.8h6.7l3.3,5.8-3.3,5.8h-6.7l-3.3-5.8ZM1166.7,39.7l3.3-5.8h6.6l3.3,5.8-3.3,5.8h-6.6l-3.3-5.8ZM1170,48.2h6.6l3.3,5.8-3.3,5.8h-6.6l-3.3-5.8,3.3-5.8ZM1179,46.8l3.3-5.8h6.7l3.3,5.8-3.3,5.8h-6.7l-3.3-5.8ZM1191.3,39.7l3.3-5.8h6.7l3.3,5.8-3.3,5.8h-6.7l-3.3-5.8ZM1194.6,48.2h6.7l3.3,5.8-3.3,5.8h-6.7l-3.3-5.8,3.3-5.8ZM1203.6,46.8l3.3-5.8h6.7l3.3,5.8-3.3,5.8h-6.7l-3.3-5.8ZM1194.1,20.6h7.7l2.8,4.8-3.3,5.8h-6.7l-3.3-5.8,2.8-4.8h0ZM1188.9,26.8l3.3,5.8-3.3,5.8h-6.7l-3.3-5.8,3.3-5.8s6.7,0,6.7,0ZM1169.4,20.6h7.7l2.8,4.8-3.3,5.8h-6.7l-3.3-5.8,2.8-4.8h0ZM1164.3,26.8l3.3,5.8-3.3,5.8h-6.7l-3.3-5.8,3.3-5.8s6.7,0,6.7,0ZM1144.8,20.6h7.7l2.8,4.8-3.3,5.8h-6.7l-3.3-5.8,2.8-4.8h0ZM1139.7,26.8l3.3,5.8-3.3,5.8h-6.7l-3.3-5.8,3.3-5.8s6.7,0,6.7,0ZM1120.2,20.6h7.7l2.8,4.8-3.3,5.8h-6.6l-3.3-5.8,2.8-4.8h0ZM1115.1,26.8l3.3,5.8-3.3,5.8h-6.7l-3.3-5.8,3.3-5.8s6.7,0,6.7,0ZM1095.6,20.6h7.7l2.8,4.8-3.3,5.8h-6.6l-3.3-5.8,2.8-4.8h0ZM1096.1,34h6.7l3.3,5.8-3.3,5.8h-6.7l-3.3-5.8s3.3-5.8,3.3-5.8ZM1096.1,48.2h6.7l3.3,5.8-3.3,5.8h-6.7l-3.3-5.8,3.3-5.8ZM1033,73h-11.2v-8.6h11.2v8.6ZM1033,29.3h-11.2v-8.6h11.2v8.6ZM1074.3,73h-11v-8.6h11v8.6ZM1074.3,29.3h-11v-8.6h11v8.6ZM1103.3,73h-7.7l-2.8-4.8,3.3-5.8h6.6l3.3,5.8-2.8,4.8h0ZM1108.4,66.8l-3.3-5.8,3.3-5.8h6.7l3.3,5.8-3.3,5.8h-6.7ZM1127.9,73h-7.7l-2.8-4.8,3.3-5.8h6.6l3.3,5.8-2.8,4.8h0ZM1133,66.8l-3.3-5.8,3.3-5.8h6.7l3.3,5.8-3.3,5.8h-6.7ZM1152.5,73h-7.7l-2.8-4.8,3.3-5.8h6.7l3.3,5.8-2.8,4.8h0ZM1157.7,66.8l-3.3-5.8,3.3-5.8h6.7l3.3,5.8-3.3,5.8h-6.7ZM1177.2,73h-7.7l-2.8-4.8,3.3-5.8h6.7l3.3,5.8-2.8,4.8h0ZM1182.3,66.8l-3.3-5.8,3.3-5.8h6.7l3.3,5.8-3.3,5.8h-6.7ZM1201.8,73h-7.7l-2.8-4.8,3.3-5.8h6.7l3.3,5.8-2.8,4.8h0ZM1206.9,66.8l-3.3-5.8,3.3-5.8h6.7l3.3,5.8-3.3,5.8h-6.7ZM1226.4,73h-7.7l-2.8-4.8,3.3-5.8h6.7l3.3,5.8-2.8,4.8h0ZM1225.9,59.7h-6.7l-3.3-5.8,3.3-5.8h6.7l3.3,5.8s-3.3,5.8-3.3,5.8ZM1225.9,45.5h-6.7l-3.3-5.8,3.3-5.8h6.7l3.3,5.8-3.3,5.8ZM1248.4,73h-8.6v-8.6h8.6v8.6ZM1248.4,29.3h-8.6v-8.6h8.6v8.6Z"/>
      <rect class="hseries-cls-9" x="1033" y="20.6" width="30.3" height="52.3"/>
      <rect class="tint-target hseries-cls-7" x="1028.8" y="30.8" width="33.8" height="32.1"/>
      <g>
        <rect class="tint-target hseries-cls-7" x="1062.5" y="30.8" width="224" height="32.1"/>
        <rect class="tint-target hseries-cls-18" x="1236.1" y="37.5" width="43.2" height="18.7" rx="4.4" ry="4.4"/>
      </g>
      <g>
        <polygon class="hseries-cls-6" points="1248.4 28.8 1248.4 20.6 1021.8 20.6 1021.8 73 1248.4 73 1248.4 64.8 1283.9 64.8 1283.9 84.4 990.5 84.4 990.5 9.2 1283.9 9.2 1283.9 28.8 1248.4 28.8"/>
        <g>
          <path class="hseries-cls-8" d="M1275.9,70.6l-.8,5-.8-5c0-.5.2-.9.7-1s.9.2,1,.7c0,0,0,.2,0,.3"/>
          <circle class="hseries-cls-8" cx="1275.1" cy="79.2" r=".5"/>
        </g>
        <path class="hseries-cls-8" d="M1275.1,14c-1.8,0-3.2.8-3.2,1.9v6.3c0,1.1,1.4,1.9,3.2,1.9s3.2-.8,3.2-1.9v-6.3c0-1.1-1.4-1.9-3.2-1.9M1275.1,14.7c1.5,0,2.5.6,2.5,1.2s-1,1.2-2.5,1.2-2.5-.6-2.5-1.2,1-1.2,2.5-1.2M1275.1,23.3c-1.5,0-2.5-.6-2.5-1.2v-5.1c.6.4,1.5.7,2.5.7s1.9-.3,2.5-.7v5.1c0,.5-1,1.2-2.5,1.2"/>
      </g>
    </g>
    <g id="DRIVE_CAGE_5" data-name="DRIVE CAGE 4">
      <g>
        <g>
          <rect class="hseries-cls-19" x="72.9" y="150.9" width="287.7" height="9.6"/>
          <rect class="hseries-cls-12" x="335.2" y="90" width="25.5" height="11.2"/>
          <rect class="hseries-cls-17" x="121.3" y="90" width="213.9" height="11.2"/>
          <rect class="hseries-cls-12" x="72.9" y="90" width="48.4" height="11.2"/>
          <rect class="hseries-cls-13" x="72.9" y="101.2" width="287.7" height="28.1"/>
          <rect class="hseries-cls-12" x="72.9" y="129.3" width="287.7" height="21.6"/>
          <polygon class="hseries-cls-13" points="347.7 129.3 360.6 129.3 360.6 162.7 353.4 162.7 351.4 150.9 347.7 129.3"/>
          <polygon class="hseries-cls-13" points="80.1 162.7 72.9 162.7 72.9 129.3 85.9 129.3 80.1 162.7"/>
          <rect class="hseries-cls-11" x="83.6" y="160.6" width="266.4" height="2.2"/>
          <path class="hseries-cls-12" d="M279.8,150.9l-7.9,10.4c-.7.9-1.7,1.4-2.9,1.4h-104.4c-1.1,0-2.2-.5-2.9-1.4l-7.9-10.4h126,0Z"/>
          <rect class="hseries-cls-13" x="121.3" y="90" width="213.9" height="11.2"/>
          <polygon class="hseries-cls-22" points="336 162.7 336 150.9 351.4 150.9 353.4 162.7 336 162.7"/>
          <polygon class="hseries-cls-22" points="97.6 162.7 97.6 150.9 82.2 150.9 80.1 162.7 97.6 162.7"/>
          <path class="hseries-cls-18" d="M335.2,97.6v-7.6h25.5v7.6c0,2-1.6,3.6-3.6,3.6h-18.3c-2,0-3.6-1.6-3.6-3.6h0Z"/>
          <path class="hseries-cls-18" d="M72.9,97.6v-7.6h48.4v7.6c0,2-1.6,3.6-3.6,3.6h-41.2c-2,0-3.6-1.6-3.6-3.6Z"/>
          <path class="hseries-cls-17" d="M121.3,97.6v-7.6h213.9v7.6c0,2-1.6,3.6-3.6,3.6H124.9c-2,0-3.6-1.6-3.6-3.6Z"/>
          <polygon class="hseries-cls-15" points="353.4 162.7 347.7 129.3 335.6 129.3 335.6 162.7 353.4 162.7"/>
          <polygon class="hseries-cls-15" points="98 129.3 85.9 129.3 80.1 162.7 98 162.7 98 129.3"/>
          <rect class="hseries-cls-13" x="98" y="129.3" width="237.6" height="33.4"/>
          <rect class="hseries-cls-13" x="182.2" y="129.3" width="69.1" height="33.4"/>
        </g>
        <rect class="hseries-cls-14" x="72.9" y="90" width="287.7" height="72.7"/>
      </g>
      <path class="hseries-cls-19" d="M70.1,90v73.7h293.5v-73.7H70.1ZM298.3,100.7h7.7l2.8,4.8-3.3,5.8h-6.6l-3.3-5.8,2.8-4.8ZM293.2,106.9l3.3,5.8-3.3,5.8h-6.6l-3.3-5.8,3.3-5.8h6.6ZM198,126.8l-3.3,5.8h-6.6l-3.3-5.8,3.3-5.8h6.6s3.3,5.8,3.3,5.8ZM197,119.7l3.3-5.8h6.6l3.3,5.8-3.3,5.8h-6.6l-3.3-5.8ZM200.3,128.2h6.6l3.3,5.8-3.3,5.8h-6.6l-3.3-5.8,3.3-5.8ZM209.3,126.8l3.3-5.8h6.6l3.3,5.8-3.3,5.8h-6.6s-3.3-5.8-3.3-5.8ZM221.6,119.7l3.3-5.8h6.6l3.3,5.8-3.3,5.8h-6.6l-3.3-5.8ZM224.9,128.2h6.6l3.3,5.8-3.3,5.8h-6.6l-3.3-5.8,3.3-5.8ZM233.9,126.8l3.3-5.8h6.6l3.3,5.8-3.3,5.8h-6.6s-3.3-5.8-3.3-5.8ZM246.2,119.7l3.3-5.8h6.6l3.3,5.8-3.3,5.8h-6.6l-3.3-5.8ZM249.6,128.2h6.6l3.3,5.8-3.3,5.8h-6.6l-3.3-5.8,3.3-5.8ZM258.6,126.8l3.3-5.8h6.6l3.3,5.8-3.3,5.8h-6.6s-3.3-5.8-3.3-5.8ZM270.9,119.7l3.3-5.8h6.6l3.3,5.8-3.3,5.8h-6.6l-3.3-5.8ZM274.2,128.2h6.6l3.3,5.8-3.3,5.8h-6.6l-3.3-5.8,3.3-5.8ZM283.2,126.8l3.3-5.8h6.6l3.3,5.8-3.3,5.8h-6.6s-3.3-5.8-3.3-5.8ZM273.7,100.7h7.7l2.8,4.8-3.3,5.8h-6.6l-3.3-5.8,2.8-4.8ZM268.5,106.9l3.3,5.8-3.3,5.8h-6.6l-3.3-5.8,3.3-5.8h6.6ZM249,100.7h7.7l2.8,4.8-3.3,5.8h-6.6l-3.3-5.8,2.8-4.8ZM243.9,106.9l3.3,5.8-3.3,5.8h-6.6l-3.3-5.8,3.3-5.8h6.6ZM224.4,100.7h7.7l2.8,4.8-3.3,5.8h-6.6l-3.3-5.8,2.8-4.8ZM219.3,106.9l3.3,5.8-3.3,5.8h-6.6l-3.3-5.8,3.3-5.8h6.6ZM199.8,100.7h7.7l2.8,4.8-3.3,5.8h-6.6l-3.3-5.8,2.8-4.8ZM194.6,106.9l3.3,5.8-3.3,5.8h-6.6l-3.3-5.8,3.3-5.8h6.6ZM175.2,100.7h7.7l2.8,4.8-3.3,5.8h-6.6l-3.3-5.8,2.8-4.8ZM175.7,114h6.6l3.3,5.8-3.3,5.8h-6.6l-3.3-5.8,3.3-5.8ZM175.7,128.2h6.6l3.3,5.8-3.3,5.8h-6.6l-3.3-5.8,3.3-5.8ZM112.6,153h-11.2v-8.6h11.2s0,8.6,0,8.6ZM112.6,109.3h-11.2v-8.6h11.2s0,8.6,0,8.6ZM153.9,153h-11v-8.6h11v8.6ZM153.9,109.3h-11v-8.6h11v8.6ZM182.9,153h-7.7l-2.8-4.8,3.3-5.8h6.6l3.3,5.8-2.8,4.8ZM188,146.8l-3.3-5.8,3.3-5.8h6.6l3.3,5.8-3.3,5.8h-6.6ZM207.5,153h-7.7l-2.8-4.8,3.3-5.8h6.6l3.3,5.8-2.8,4.8ZM212.6,146.8l-3.3-5.8,3.3-5.8h6.6l3.3,5.8-3.3,5.8h-6.6ZM232.1,153h-7.7l-2.8-4.8,3.3-5.8h6.6l3.3,5.8-2.8,4.8ZM237.3,146.8l-3.3-5.8,3.3-5.8h6.6l3.3,5.8-3.3,5.8h-6.6ZM256.8,153h-7.7l-2.8-4.8,3.3-5.8h6.6l3.3,5.8-2.8,4.8ZM261.9,146.8l-3.3-5.8,3.3-5.8h6.6l3.3,5.8-3.3,5.8h-6.6ZM281.4,153h-7.7l-2.8-4.8,3.3-5.8h6.6l3.3,5.8-2.8,4.8ZM286.5,146.8l-3.3-5.8,3.3-5.8h6.6l3.3,5.8-3.3,5.8h-6.6ZM306,153h-7.7l-2.8-4.8,3.3-5.8h6.6l3.3,5.8-2.8,4.8ZM305.5,139.7h-6.6l-3.3-5.8,3.3-5.8h6.6l3.3,5.8-3.3,5.8ZM305.5,125.5h-6.6l-3.3-5.8,3.3-5.8h6.6l3.3,5.8-3.3,5.8ZM328,153h-8.6v-8.6h8.6v8.6ZM328,109.3h-8.6v-8.6h8.6v8.6Z"/>
      <rect class="hseries-cls-9" x="112.6" y="100.7" width="30.3" height="52.3"/>
      <rect class="tint-target hseries-cls-7" x="108.3" y="110.8" width="33.8" height="32.1"/>
      <g>
        <rect class="tint-target hseries-cls-7" x="142.1" y="110.8" width="224" height="32.1"/>
        <rect class="tint-target hseries-cls-18" x="315.7" y="117.5" width="43.2" height="18.7" rx="4.4" ry="4.4"/>
      </g>
      <g>
        <polygon class="hseries-cls-6" points="328 108.8 328 100.7 101.4 100.7 101.4 153 328 153 328 144.8 363.5 144.8 363.5 164.5 70.1 164.5 70.1 89.2 363.5 89.2 363.5 108.8 328 108.8"/>
        <g>
          <path class="hseries-cls-8" d="M355.5,150.6l-.8,5-.8-5c0-.5.2-.9.7-1s.9.2,1,.7c0,0,0,.2,0,.3"/>
          <circle class="hseries-cls-8" cx="354.7" cy="159.2" r=".5"/>
        </g>
        <path class="hseries-cls-8" d="M354.7,94c-1.8,0-3.2.8-3.2,1.9v6.3c0,1.1,1.4,1.9,3.2,1.9s3.2-.8,3.2-1.9v-6.3c0-1.1-1.4-1.9-3.2-1.9M354.7,94.7c1.5,0,2.5.6,2.5,1.2s-1,1.2-2.5,1.2-2.5-.6-2.5-1.2,1-1.2,2.5-1.2M354.7,103.4c-1.5,0-2.5-.6-2.5-1.2v-5.1c.6.4,1.5.7,2.5.7s1.9-.3,2.5-.7v5.1c0,.6-1,1.2-2.5,1.2"/>
      </g>
    </g>
    <g id="DRIVE_CAGE_6" data-name="DRIVE CAGE 5">
      <g>
        <g>
          <rect class="hseries-cls-19" x="379.7" y="150.9" width="287.7" height="9.6"/>
          <rect class="hseries-cls-12" x="642" y="90" width="25.5" height="11.2"/>
          <rect class="hseries-cls-17" x="428.1" y="90" width="213.9" height="11.2"/>
          <rect class="hseries-cls-12" x="379.7" y="90" width="48.4" height="11.2"/>
          <rect class="hseries-cls-13" x="379.7" y="101.2" width="287.7" height="28.1"/>
          <rect class="hseries-cls-12" x="379.7" y="129.3" width="287.7" height="21.6"/>
          <polygon class="hseries-cls-13" points="654.5 129.3 667.4 129.3 667.4 162.7 660.2 162.7 658.2 150.9 654.5 129.3"/>
          <polygon class="hseries-cls-13" points="386.9 162.7 379.7 162.7 379.7 129.3 392.7 129.3 386.9 162.7"/>
          <rect class="hseries-cls-11" x="390.4" y="160.6" width="266.4" height="2.2"/>
          <path class="hseries-cls-12" d="M586.6,150.9l-7.9,10.4c-.7.9-1.7,1.4-2.9,1.4h-104.4c-1.1,0-2.2-.5-2.9-1.4l-7.9-10.4h126,0Z"/>
          <rect class="hseries-cls-13" x="428.1" y="90" width="213.9" height="11.2"/>
          <polygon class="hseries-cls-22" points="642.8 162.7 642.8 150.9 658.2 150.9 660.2 162.7 642.8 162.7"/>
          <polygon class="hseries-cls-22" points="404.4 162.7 404.4 150.9 389 150.9 386.9 162.7 404.4 162.7"/>
          <path class="hseries-cls-18" d="M642,97.6v-7.6h25.5v7.6c0,2-1.6,3.6-3.6,3.6h-18.3c-2,0-3.6-1.6-3.6-3.6h0Z"/>
          <path class="hseries-cls-18" d="M379.7,97.6v-7.6h48.4v7.6c0,2-1.6,3.6-3.6,3.6h-41.2c-2,0-3.6-1.6-3.6-3.6Z"/>
          <path class="hseries-cls-17" d="M428.1,97.6v-7.6h213.9v7.6c0,2-1.6,3.6-3.6,3.6h-206.7c-2,0-3.6-1.6-3.6-3.6Z"/>
          <polygon class="hseries-cls-15" points="660.2 162.7 654.5 129.3 642.4 129.3 642.4 162.7 660.2 162.7"/>
          <polygon class="hseries-cls-15" points="404.8 129.3 392.7 129.3 386.9 162.7 404.8 162.7 404.8 129.3"/>
          <rect class="hseries-cls-13" x="404.8" y="129.3" width="237.6" height="33.4"/>
          <rect class="hseries-cls-13" x="489" y="129.3" width="69.1" height="33.4"/>
        </g>
        <rect class="hseries-cls-14" x="379.7" y="90" width="287.7" height="72.7"/>
      </g>
      <path class="hseries-cls-19" d="M376.9,90v73.7h293.5v-73.7h-293.5ZM605.1,100.7h7.7l2.8,4.8-3.3,5.8h-6.7l-3.3-5.8,2.8-4.8h0ZM600,106.9l3.3,5.8-3.3,5.8h-6.7l-3.3-5.8,3.3-5.8h6.7ZM504.8,126.8l-3.3,5.8h-6.6l-3.3-5.8,3.3-5.8h6.6s3.3,5.8,3.3,5.8ZM503.8,119.7l3.3-5.8h6.7l3.3,5.8-3.3,5.8h-6.6l-3.3-5.8h0ZM507.1,128.2h6.7l3.3,5.8-3.3,5.8h-6.6l-3.3-5.8,3.3-5.8h0ZM516.1,126.8l3.3-5.8h6.7l3.3,5.8-3.3,5.8h-6.7s-3.3-5.8-3.3-5.8ZM528.4,119.7l3.3-5.8h6.6l3.3,5.8-3.3,5.8h-6.6l-3.3-5.8ZM531.8,128.2h6.6l3.3,5.8-3.3,5.8h-6.6l-3.3-5.8,3.3-5.8ZM540.7,126.8l3.3-5.8h6.7l3.3,5.8-3.3,5.8h-6.7s-3.3-5.8-3.3-5.8ZM553,119.7l3.3-5.8h6.6l3.3,5.8-3.3,5.8h-6.6l-3.3-5.8ZM556.4,128.2h6.6l3.3,5.8-3.3,5.8h-6.6l-3.3-5.8,3.3-5.8ZM565.4,126.8l3.3-5.8h6.7l3.3,5.8-3.3,5.8h-6.7s-3.3-5.8-3.3-5.8ZM577.7,119.7l3.3-5.8h6.7l3.3,5.8-3.3,5.8h-6.7l-3.3-5.8ZM581,128.2h6.7l3.3,5.8-3.3,5.8h-6.7l-3.3-5.8,3.3-5.8ZM590,126.8l3.3-5.8h6.7l3.3,5.8-3.3,5.8h-6.7s-3.3-5.8-3.3-5.8ZM580.5,100.7h7.7l2.8,4.8-3.3,5.8h-6.7l-3.3-5.8,2.8-4.8h0ZM575.3,106.9l3.3,5.8-3.3,5.8h-6.7l-3.3-5.8,3.3-5.8h6.7ZM555.8,100.7h7.7l2.8,4.8-3.3,5.8h-6.7l-3.3-5.8,2.8-4.8h0ZM550.7,106.9l3.3,5.8-3.3,5.8h-6.7l-3.3-5.8,3.3-5.8h6.7ZM531.2,100.7h7.7l2.8,4.8-3.3,5.8h-6.7l-3.3-5.8,2.8-4.8h0ZM526.1,106.9l3.3,5.8-3.3,5.8h-6.7l-3.3-5.8,3.3-5.8h6.7ZM506.6,100.7h7.7l2.8,4.8-3.3,5.8h-6.6l-3.3-5.8,2.8-4.8h0ZM501.5,106.9l3.3,5.8-3.3,5.8h-6.6l-3.3-5.8,3.3-5.8h6.6ZM482,100.7h7.7l2.8,4.8-3.3,5.8h-6.6l-3.3-5.8,2.8-4.8ZM482.5,114h6.6l3.3,5.8-3.3,5.8h-6.6l-3.3-5.8,3.3-5.8ZM482.5,128.2h6.6l3.3,5.8-3.3,5.8h-6.6l-3.3-5.8,3.3-5.8ZM419.4,153h-11.2v-8.6h11.2v8.6ZM419.4,109.3h-11.2v-8.6h11.2v8.6ZM460.7,153h-11v-8.6h11v8.6ZM460.7,109.3h-11v-8.6h11v8.6ZM489.7,153h-7.7l-2.8-4.8,3.3-5.8h6.6l3.3,5.8-2.8,4.8ZM494.8,146.8l-3.3-5.8,3.3-5.8h6.6l3.3,5.8-3.3,5.8h-6.6ZM514.3,153h-7.7l-2.8-4.8,3.3-5.8h6.6l3.3,5.8-2.8,4.8ZM519.4,146.8l-3.3-5.8,3.3-5.8h6.7l3.3,5.8-3.3,5.8h-6.7ZM538.9,153h-7.7l-2.8-4.8,3.3-5.8h6.7l3.3,5.8-2.8,4.8h0ZM544.1,146.8l-3.3-5.8,3.3-5.8h6.7l3.3,5.8-3.3,5.8h-6.7ZM563.5,153h-7.7l-2.8-4.8,3.3-5.8h6.7l3.3,5.8-2.8,4.8h0ZM568.7,146.8l-3.3-5.8,3.3-5.8h6.7l3.3,5.8-3.3,5.8h-6.7ZM588.2,153h-7.7l-2.8-4.8,3.3-5.8h6.7l3.3,5.8-2.8,4.8h0ZM593.3,146.8l-3.3-5.8,3.3-5.8h6.7l3.3,5.8-3.3,5.8h-6.7ZM612.8,153h-7.7l-2.8-4.8,3.3-5.8h6.7l3.3,5.8-2.8,4.8h0ZM612.3,139.7h-6.7l-3.3-5.8,3.3-5.8h6.7l3.3,5.8-3.3,5.8ZM612.3,125.5h-6.7l-3.3-5.8,3.3-5.8h6.7l3.3,5.8-3.3,5.8ZM634.8,153h-8.6v-8.6h8.6v8.6ZM634.8,109.3h-8.6v-8.6h8.6v8.6Z"/>
      <rect class="hseries-cls-9" x="419.4" y="100.7" width="30.3" height="52.3"/>
      <rect class="tint-target hseries-cls-7" x="415.2" y="110.8" width="33.8" height="32.1"/>
      <g>
        <rect class="tint-target hseries-cls-7" x="448.9" y="110.8" width="224" height="32.1"/>
        <rect class="tint-target hseries-cls-18" x="622.5" y="117.5" width="43.2" height="18.7" rx="4.4" ry="4.4"/>
      </g>
      <g>
        <polygon class="hseries-cls-6" points="634.8 108.8 634.8 100.7 408.2 100.7 408.2 153 634.8 153 634.8 144.8 670.3 144.8 670.3 164.5 376.9 164.5 376.9 89.2 670.3 89.2 670.3 108.8 634.8 108.8"/>
        <g>
          <path class="hseries-cls-8" d="M662.3,150.6l-.8,5-.8-5c0-.5.2-.9.7-1s.9.2,1,.7c0,0,0,.2,0,.3"/>
          <circle class="hseries-cls-8" cx="661.5" cy="159.2" r=".5"/>
        </g>
        <path class="hseries-cls-8" d="M661.5,94c-1.8,0-3.2.8-3.2,1.9v6.3c0,1.1,1.4,1.9,3.2,1.9s3.2-.8,3.2-1.9v-6.3c0-1.1-1.4-1.9-3.2-1.9M661.5,94.7c1.5,0,2.5.6,2.5,1.2s-1,1.2-2.5,1.2-2.5-.6-2.5-1.2,1-1.2,2.5-1.2M661.5,103.4c-1.5,0-2.5-.6-2.5-1.2v-5.1c.6.4,1.5.7,2.5.7s1.9-.3,2.5-.7v5.1c0,.6-1,1.2-2.5,1.2"/>
      </g>
    </g>
    <g id="DRIVE_CAGE_7" data-name="DRIVE CAGE 6">
      <g>
        <g>
          <rect class="hseries-cls-19" x="686.5" y="150.9" width="287.7" height="9.6"/>
          <rect class="hseries-cls-12" x="948.8" y="90" width="25.5" height="11.2"/>
          <rect class="hseries-cls-17" x="734.9" y="90" width="213.9" height="11.2"/>
          <rect class="hseries-cls-12" x="686.5" y="90" width="48.4" height="11.2"/>
          <rect class="hseries-cls-13" x="686.5" y="101.2" width="287.7" height="28.1"/>
          <rect class="hseries-cls-12" x="686.5" y="129.3" width="287.7" height="21.6"/>
          <polygon class="hseries-cls-13" points="961.3 129.3 974.2 129.3 974.2 162.7 967 162.7 965 150.9 961.3 129.3"/>
          <polygon class="hseries-cls-13" points="693.7 162.7 686.5 162.7 686.5 129.3 699.5 129.3 693.7 162.7"/>
          <rect class="hseries-cls-11" x="697.2" y="160.6" width="266.4" height="2.2"/>
          <path class="hseries-cls-12" d="M893.4,150.9l-7.9,10.4c-.7.9-1.7,1.4-2.9,1.4h-104.4c-1.1,0-2.2-.5-2.9-1.4l-7.9-10.4h126,0Z"/>
          <rect class="hseries-cls-13" x="734.9" y="90" width="213.9" height="11.2"/>
          <polygon class="hseries-cls-22" points="949.6 162.7 949.6 150.9 965 150.9 967 162.7 949.6 162.7"/>
          <polygon class="hseries-cls-22" points="711.2 162.7 711.2 150.9 695.8 150.9 693.7 162.7 711.2 162.7"/>
          <path class="hseries-cls-18" d="M948.8,97.6v-7.6h25.5v7.6c0,2-1.6,3.6-3.6,3.6h-18.3c-2,0-3.6-1.6-3.6-3.6h0Z"/>
          <path class="hseries-cls-18" d="M686.5,97.6v-7.6h48.4v7.6c0,2-1.6,3.6-3.6,3.6h-41.2c-2,0-3.6-1.6-3.6-3.6h0Z"/>
          <path class="hseries-cls-17" d="M734.9,97.6v-7.6h213.9v7.6c0,2-1.6,3.6-3.6,3.6h-206.7c-2,0-3.6-1.6-3.6-3.6h0Z"/>
          <polygon class="hseries-cls-15" points="967 162.7 961.3 129.3 949.2 129.3 949.2 162.7 967 162.7"/>
          <polygon class="hseries-cls-15" points="711.6 129.3 699.5 129.3 693.7 162.7 711.6 162.7 711.6 129.3"/>
          <rect class="hseries-cls-13" x="711.6" y="129.3" width="237.6" height="33.4"/>
          <rect class="hseries-cls-13" x="795.8" y="129.3" width="69.1" height="33.4"/>
        </g>
        <rect class="hseries-cls-14" x="686.5" y="90" width="287.7" height="72.7"/>
      </g>
      <path class="hseries-cls-19" d="M683.7,90v73.7h293.5v-73.7h-293.5ZM911.9,100.7h7.7l2.8,4.8-3.3,5.8h-6.7l-3.3-5.8,2.8-4.8h0ZM906.8,106.9l3.3,5.8-3.3,5.8h-6.7l-3.3-5.8,3.3-5.8h6.7ZM811.6,126.8l-3.3,5.8h-6.7l-3.3-5.8,3.3-5.8h6.7s3.3,5.8,3.3,5.8ZM810.6,119.7l3.3-5.8h6.7l3.3,5.8-3.3,5.8h-6.7l-3.3-5.8ZM813.9,128.2h6.7l3.3,5.8-3.3,5.8h-6.7l-3.3-5.8,3.3-5.8ZM822.9,126.8l3.3-5.8h6.7l3.3,5.8-3.3,5.8h-6.7s-3.3-5.8-3.3-5.8ZM835.2,119.7l3.3-5.8h6.6l3.3,5.8-3.3,5.8h-6.6l-3.3-5.8ZM838.6,128.2h6.6l3.3,5.8-3.3,5.8h-6.6l-3.3-5.8,3.3-5.8ZM847.5,126.8l3.3-5.8h6.7l3.3,5.8-3.3,5.8h-6.7s-3.3-5.8-3.3-5.8ZM859.9,119.7l3.3-5.8h6.6l3.3,5.8-3.3,5.8h-6.6l-3.3-5.8ZM863.2,128.2h6.6l3.3,5.8-3.3,5.8h-6.6l-3.3-5.8,3.3-5.8ZM872.2,126.8l3.3-5.8h6.7l3.3,5.8-3.3,5.8h-6.7s-3.3-5.8-3.3-5.8ZM884.5,119.7l3.3-5.8h6.7l3.3,5.8-3.3,5.8h-6.7l-3.3-5.8ZM887.8,128.2h6.7l3.3,5.8-3.3,5.8h-6.7l-3.3-5.8,3.3-5.8ZM896.8,126.8l3.3-5.8h6.7l3.3,5.8-3.3,5.8h-6.7s-3.3-5.8-3.3-5.8ZM887.3,100.7h7.7l2.8,4.8-3.3,5.8h-6.7l-3.3-5.8,2.8-4.8h0ZM882.2,106.9l3.3,5.8-3.3,5.8h-6.7l-3.3-5.8,3.3-5.8h6.7ZM862.7,100.7h7.7l2.8,4.8-3.3,5.8h-6.7l-3.3-5.8,2.8-4.8h0ZM857.5,106.9l3.3,5.8-3.3,5.8h-6.7l-3.3-5.8,3.3-5.8h6.7ZM838,100.7h7.7l2.8,4.8-3.3,5.8h-6.7l-3.3-5.8,2.8-4.8h0ZM832.9,106.9l3.3,5.8-3.3,5.8h-6.7l-3.3-5.8,3.3-5.8h6.7ZM813.4,100.7h7.7l2.8,4.8-3.3,5.8h-6.6l-3.3-5.8,2.8-4.8h0ZM808.3,106.9l3.3,5.8-3.3,5.8h-6.7l-3.3-5.8,3.3-5.8h6.7ZM788.8,100.7h7.7l2.8,4.8-3.3,5.8h-6.6l-3.3-5.8,2.8-4.8h0ZM789.3,114h6.7l3.3,5.8-3.3,5.8h-6.7l-3.3-5.8,3.3-5.8ZM789.3,128.2h6.7l3.3,5.8-3.3,5.8h-6.7l-3.3-5.8,3.3-5.8ZM726.2,153h-11.2v-8.6h11.2v8.6ZM726.2,109.3h-11.2v-8.6h11.2v8.6ZM767.5,153h-11v-8.6h11v8.6ZM767.5,109.3h-11v-8.6h11v8.6ZM796.5,153h-7.7l-2.8-4.8,3.3-5.8h6.6l3.3,5.8-2.8,4.8h0ZM801.6,146.8l-3.3-5.8,3.3-5.8h6.7l3.3,5.8-3.3,5.8h-6.7ZM821.1,153h-7.7l-2.8-4.8,3.3-5.8h6.6l3.3,5.8-2.8,4.8h0ZM826.2,146.8l-3.3-5.8,3.3-5.8h6.7l3.3,5.8-3.3,5.8h-6.7ZM845.7,153h-7.7l-2.8-4.8,3.3-5.8h6.7l3.3,5.8-2.8,4.8h0ZM850.9,146.8l-3.3-5.8,3.3-5.8h6.7l3.3,5.8-3.3,5.8h-6.7ZM870.4,153h-7.7l-2.8-4.8,3.3-5.8h6.7l3.3,5.8-2.8,4.8h0ZM875.5,146.8l-3.3-5.8,3.3-5.8h6.7l3.3,5.8-3.3,5.8h-6.7ZM895,153h-7.7l-2.8-4.8,3.3-5.8h6.7l3.3,5.8-2.8,4.8h0ZM900.1,146.8l-3.3-5.8,3.3-5.8h6.7l3.3,5.8-3.3,5.8h-6.7ZM919.6,153h-7.7l-2.8-4.8,3.3-5.8h6.7l3.3,5.8-2.8,4.8h0ZM919.1,139.7h-6.7l-3.3-5.8,3.3-5.8h6.7l3.3,5.8-3.3,5.8ZM919.1,125.5h-6.7l-3.3-5.8,3.3-5.8h6.7l3.3,5.8-3.3,5.8ZM941.6,153h-8.6v-8.6h8.6v8.6ZM941.6,109.3h-8.6v-8.6h8.6v8.6Z"/>
      <rect class="hseries-cls-9" x="726.2" y="100.7" width="30.3" height="52.3"/>
      <rect class="tint-target hseries-cls-7" x="722" y="110.8" width="33.8" height="32.1"/>
      <g>
        <rect class="tint-target hseries-cls-7" x="755.7" y="110.8" width="224" height="32.1"/>
        <rect class="tint-target hseries-cls-18" x="929.3" y="117.5" width="43.2" height="18.7" rx="4.4" ry="4.4"/>
      </g>
      <g>
        <polygon class="hseries-cls-6" points="941.6 108.8 941.6 100.7 715 100.7 715 153 941.6 153 941.6 144.8 977.1 144.8 977.1 164.5 683.7 164.5 683.7 89.2 977.1 89.2 977.1 108.8 941.6 108.8"/>
        <g>
          <path class="hseries-cls-8" d="M969.1,150.6l-.8,5-.8-5c0-.5.2-.9.7-1s.9.2,1,.7c0,0,0,.2,0,.3"/>
          <circle class="hseries-cls-8" cx="968.3" cy="159.2" r=".5"/>
        </g>
        <path class="hseries-cls-8" d="M968.3,94c-1.8,0-3.2.8-3.2,1.9v6.3c0,1.1,1.4,1.9,3.2,1.9s3.2-.8,3.2-1.9v-6.3c0-1.1-1.4-1.9-3.2-1.9M968.3,94.7c1.5,0,2.5.6,2.5,1.2s-1,1.2-2.5,1.2-2.5-.6-2.5-1.2,1-1.2,2.5-1.2M968.3,103.4c-1.5,0-2.5-.6-2.5-1.2v-5.1c.6.4,1.5.7,2.5.7s1.9-.3,2.5-.7v5.1c0,.6-1,1.2-2.5,1.2"/>
      </g>
    </g>
    <g id="DRIVE_CAGE_8" data-name="DRIVE CAGE 7">
      <g>
        <g>
          <rect class="hseries-cls-19" x="993.3" y="150.9" width="287.7" height="9.6"/>
          <rect class="hseries-cls-12" x="1255.6" y="90" width="25.5" height="11.2"/>
          <rect class="hseries-cls-17" x="1041.7" y="90" width="213.9" height="11.2"/>
          <rect class="hseries-cls-12" x="993.3" y="90" width="48.4" height="11.2"/>
          <rect class="hseries-cls-13" x="993.3" y="101.2" width="287.7" height="28.1"/>
          <rect class="hseries-cls-12" x="993.3" y="129.3" width="287.7" height="21.6"/>
          <polygon class="hseries-cls-13" points="1268.1 129.3 1281.1 129.3 1281.1 162.7 1273.8 162.7 1271.8 150.9 1268.1 129.3"/>
          <polygon class="hseries-cls-13" points="1000.5 162.7 993.3 162.7 993.3 129.3 1006.3 129.3 1000.5 162.7"/>
          <rect class="hseries-cls-11" x="1004" y="160.6" width="266.4" height="2.2"/>
          <path class="hseries-cls-12" d="M1200.2,150.9l-7.9,10.4c-.7.9-1.7,1.4-2.9,1.4h-104.4c-1.1,0-2.2-.5-2.9-1.4l-7.9-10.4h126,0Z"/>
          <rect class="hseries-cls-13" x="1041.7" y="90" width="213.9" height="11.2"/>
          <polygon class="hseries-cls-22" points="1256.4 162.7 1256.4 150.9 1271.8 150.9 1273.8 162.7 1256.4 162.7"/>
          <polygon class="hseries-cls-22" points="1018 162.7 1018 150.9 1002.6 150.9 1000.5 162.7 1018 162.7"/>
          <path class="hseries-cls-18" d="M1255.6,97.6v-7.6h25.5v7.6c0,2-1.6,3.6-3.6,3.6h-18.3c-2,0-3.6-1.6-3.6-3.6Z"/>
          <path class="hseries-cls-18" d="M993.3,97.6v-7.6h48.4v7.6c0,2-1.6,3.6-3.6,3.6h-41.2c-2,0-3.6-1.6-3.6-3.6h0Z"/>
          <path class="hseries-cls-17" d="M1041.7,97.6v-7.6h213.9v7.6c0,2-1.6,3.6-3.6,3.6h-206.7c-2,0-3.6-1.6-3.6-3.6h0Z"/>
          <polygon class="hseries-cls-15" points="1273.8 162.7 1268.1 129.3 1256 129.3 1256 162.7 1273.8 162.7"/>
          <polygon class="hseries-cls-15" points="1018.4 129.3 1006.3 129.3 1000.5 162.7 1018.4 162.7 1018.4 129.3"/>
          <rect class="hseries-cls-13" x="1018.4" y="129.3" width="237.6" height="33.4"/>
          <rect class="hseries-cls-13" x="1102.6" y="129.3" width="69.1" height="33.4"/>
        </g>
        <rect class="hseries-cls-14" x="993.3" y="90" width="287.7" height="72.7"/>
      </g>
      <path class="hseries-cls-19" d="M990.5,90v73.7h293.5v-73.7h-293.5ZM1218.7,100.7h7.7l2.8,4.8-3.3,5.8h-6.7l-3.3-5.8,2.8-4.8h0ZM1213.6,106.9l3.3,5.8-3.3,5.8h-6.7l-3.3-5.8,3.3-5.8h6.7ZM1118.4,126.8l-3.3,5.8h-6.7l-3.3-5.8,3.3-5.8h6.7s3.3,5.8,3.3,5.8ZM1117.4,119.7l3.3-5.8h6.7l3.3,5.8-3.3,5.8h-6.7l-3.3-5.8ZM1120.7,128.2h6.7l3.3,5.8-3.3,5.8h-6.7l-3.3-5.8,3.3-5.8ZM1129.7,126.8l3.3-5.8h6.7l3.3,5.8-3.3,5.8h-6.7s-3.3-5.8-3.3-5.8ZM1142,119.7l3.3-5.8h6.6l3.3,5.8-3.3,5.8h-6.6l-3.3-5.8ZM1145.4,128.2h6.6l3.3,5.8-3.3,5.8h-6.6l-3.3-5.8,3.3-5.8ZM1154.3,126.8l3.3-5.8h6.7l3.3,5.8-3.3,5.8h-6.7s-3.3-5.8-3.3-5.8ZM1166.7,119.7l3.3-5.8h6.6l3.3,5.8-3.3,5.8h-6.6l-3.3-5.8ZM1170,128.2h6.6l3.3,5.8-3.3,5.8h-6.6l-3.3-5.8,3.3-5.8ZM1179,126.8l3.3-5.8h6.7l3.3,5.8-3.3,5.8h-6.7s-3.3-5.8-3.3-5.8ZM1191.3,119.7l3.3-5.8h6.7l3.3,5.8-3.3,5.8h-6.7l-3.3-5.8ZM1194.6,128.2h6.7l3.3,5.8-3.3,5.8h-6.7l-3.3-5.8,3.3-5.8ZM1203.6,126.8l3.3-5.8h6.7l3.3,5.8-3.3,5.8h-6.7s-3.3-5.8-3.3-5.8ZM1194.1,100.7h7.7l2.8,4.8-3.3,5.8h-6.7l-3.3-5.8,2.8-4.8h0ZM1188.9,106.9l3.3,5.8-3.3,5.8h-6.7l-3.3-5.8,3.3-5.8h6.7ZM1169.4,100.7h7.7l2.8,4.8-3.3,5.8h-6.7l-3.3-5.8,2.8-4.8h0ZM1164.3,106.9l3.3,5.8-3.3,5.8h-6.7l-3.3-5.8,3.3-5.8h6.7ZM1144.8,100.7h7.7l2.8,4.8-3.3,5.8h-6.7l-3.3-5.8,2.8-4.8h0ZM1139.7,106.9l3.3,5.8-3.3,5.8h-6.7l-3.3-5.8,3.3-5.8h6.7ZM1120.2,100.7h7.7l2.8,4.8-3.3,5.8h-6.6l-3.3-5.8,2.8-4.8h0ZM1115.1,106.9l3.3,5.8-3.3,5.8h-6.7l-3.3-5.8,3.3-5.8h6.7ZM1095.6,100.7h7.7l2.8,4.8-3.3,5.8h-6.6l-3.3-5.8,2.8-4.8h0ZM1096.1,114h6.7l3.3,5.8-3.3,5.8h-6.7l-3.3-5.8,3.3-5.8ZM1096.1,128.2h6.7l3.3,5.8-3.3,5.8h-6.7l-3.3-5.8,3.3-5.8ZM1033,153h-11.2v-8.6h11.2v8.6ZM1033,109.3h-11.2v-8.6h11.2v8.6ZM1074.3,153h-11v-8.6h11v8.6ZM1074.3,109.3h-11v-8.6h11v8.6ZM1103.3,153h-7.7l-2.8-4.8,3.3-5.8h6.6l3.3,5.8-2.8,4.8h0ZM1108.4,146.8l-3.3-5.8,3.3-5.8h6.7l3.3,5.8-3.3,5.8h-6.7ZM1127.9,153h-7.7l-2.8-4.8,3.3-5.8h6.6l3.3,5.8-2.8,4.8h0ZM1133,146.8l-3.3-5.8,3.3-5.8h6.7l3.3,5.8-3.3,5.8h-6.7ZM1152.5,153h-7.7l-2.8-4.8,3.3-5.8h6.7l3.3,5.8-2.8,4.8h0ZM1157.7,146.8l-3.3-5.8,3.3-5.8h6.7l3.3,5.8-3.3,5.8h-6.7ZM1177.2,153h-7.7l-2.8-4.8,3.3-5.8h6.7l3.3,5.8-2.8,4.8h0ZM1182.3,146.8l-3.3-5.8,3.3-5.8h6.7l3.3,5.8-3.3,5.8h-6.7ZM1201.8,153h-7.7l-2.8-4.8,3.3-5.8h6.7l3.3,5.8-2.8,4.8h0ZM1206.9,146.8l-3.3-5.8,3.3-5.8h6.7l3.3,5.8-3.3,5.8h-6.7ZM1226.4,153h-7.7l-2.8-4.8,3.3-5.8h6.7l3.3,5.8-2.8,4.8h0ZM1225.9,139.7h-6.7l-3.3-5.8,3.3-5.8h6.7l3.3,5.8-3.3,5.8ZM1225.9,125.5h-6.7l-3.3-5.8,3.3-5.8h6.7l3.3,5.8-3.3,5.8ZM1248.4,153h-8.6v-8.6h8.6v8.6ZM1248.4,109.3h-8.6v-8.6h8.6v8.6Z"/>
      <rect class="hseries-cls-9" x="1033" y="100.7" width="30.3" height="52.3"/>
      <rect class="tint-target hseries-cls-7" x="1028.8" y="110.8" width="33.8" height="32.1"/>
      <g>
        <rect class="tint-target hseries-cls-7" x="1062.5" y="110.8" width="224" height="32.1"/>
        <rect class="tint-target hseries-cls-18" x="1236.1" y="117.5" width="43.2" height="18.7" rx="4.4" ry="4.4"/>
      </g>
      <g>
        <polygon class="hseries-cls-6" points="1248.4 108.8 1248.4 100.7 1021.8 100.7 1021.8 153 1248.4 153 1248.4 144.8 1283.9 144.8 1283.9 164.5 990.5 164.5 990.5 89.2 1283.9 89.2 1283.9 108.8 1248.4 108.8"/>
        <g>
          <path class="hseries-cls-8" d="M1275.9,150.6l-.8,5-.8-5c0-.5.2-.9.7-1s.9.2,1,.7c0,0,0,.2,0,.3"/>
          <circle class="hseries-cls-8" cx="1275.1" cy="159.2" r=".5"/>
        </g>
        <path class="hseries-cls-8" d="M1275.1,94c-1.8,0-3.2.8-3.2,1.9v6.3c0,1.1,1.4,1.9,3.2,1.9s3.2-.8,3.2-1.9v-6.3c0-1.1-1.4-1.9-3.2-1.9M1275.1,94.7c1.5,0,2.5.6,2.5,1.2s-1,1.2-2.5,1.2-2.5-.6-2.5-1.2,1-1.2,2.5-1.2M1275.1,103.4c-1.5,0-2.5-.6-2.5-1.2v-5.1c.6.4,1.5.7,2.5.7s1.9-.3,2.5-.7v5.1c0,.6-1,1.2-2.5,1.2"/>
      </g>
    </g>
    <g id="DRIVE_CAGE_9" data-name="DRIVE CAGE 8">
      <g>
        <g>
          <rect class="hseries-cls-19" x="72.9" y="230.9" width="287.7" height="9.6"/>
          <rect class="hseries-cls-12" x="335.2" y="170" width="25.5" height="11.2"/>
          <rect class="hseries-cls-17" x="121.3" y="170" width="213.9" height="11.2"/>
          <rect class="hseries-cls-12" x="72.9" y="170" width="48.4" height="11.2"/>
          <rect class="hseries-cls-13" x="72.9" y="181.3" width="287.7" height="28.1"/>
          <rect class="hseries-cls-12" x="72.9" y="209.3" width="287.7" height="21.6"/>
          <polygon class="hseries-cls-13" points="347.7 209.4 360.6 209.4 360.6 242.8 353.4 242.8 351.4 231 347.7 209.4"/>
          <polygon class="hseries-cls-13" points="80.1 242.8 72.9 242.8 72.9 209.4 85.9 209.4 80.1 242.8"/>
          <rect class="hseries-cls-11" x="83.6" y="240.6" width="266.4" height="2.2"/>
          <path class="hseries-cls-12" d="M279.8,231l-7.9,10.4c-.7.9-1.7,1.4-2.9,1.4h-104.4c-1.1,0-2.2-.5-2.9-1.4l-7.9-10.4h126,0Z"/>
          <rect class="hseries-cls-13" x="121.3" y="170" width="213.9" height="11.2"/>
          <polygon class="hseries-cls-22" points="336 242.8 336 231 351.4 231 353.4 242.8 336 242.8"/>
          <polygon class="hseries-cls-22" points="97.6 242.8 97.6 231 82.2 231 80.1 242.8 97.6 242.8"/>
          <path class="hseries-cls-18" d="M335.2,177.7v-7.6h25.5v7.6c0,2-1.6,3.6-3.6,3.6h-18.3c-2,0-3.6-1.6-3.6-3.6h0Z"/>
          <path class="hseries-cls-18" d="M72.9,177.7v-7.6h48.4v7.6c0,2-1.6,3.6-3.6,3.6h-41.2c-2,0-3.6-1.6-3.6-3.6Z"/>
          <path class="hseries-cls-17" d="M121.3,177.7v-7.6h213.9v7.6c0,2-1.6,3.6-3.6,3.6H124.9c-2,0-3.6-1.6-3.6-3.6Z"/>
          <polygon class="hseries-cls-15" points="353.4 242.8 347.7 209.4 335.6 209.4 335.6 242.8 353.4 242.8"/>
          <polygon class="hseries-cls-15" points="98 209.4 85.9 209.4 80.1 242.8 98 242.8 98 209.4"/>
          <rect class="hseries-cls-13" x="98" y="209.3" width="237.6" height="33.4"/>
          <rect class="hseries-cls-13" x="182.2" y="209.3" width="69.1" height="33.4"/>
        </g>
        <rect class="hseries-cls-14" x="72.9" y="170" width="287.7" height="72.7"/>
      </g>
      <path class="hseries-cls-19" d="M70.1,170.1v73.7h293.5v-73.6H70.1ZM298.3,180.7h7.7l2.8,4.8-3.3,5.8h-6.6l-3.3-5.8,2.8-4.8ZM293.2,186.9l3.3,5.8-3.3,5.8h-6.6l-3.3-5.8,3.3-5.8h6.6ZM198,206.9l-3.3,5.8h-6.6l-3.3-5.8,3.3-5.8h6.6l3.3,5.8ZM197,199.8l3.3-5.8h6.6l3.3,5.8-3.3,5.8h-6.6l-3.3-5.8ZM200.3,208.2h6.6l3.3,5.8-3.3,5.8h-6.6l-3.3-5.8,3.3-5.8ZM209.3,206.9l3.3-5.8h6.6l3.3,5.8-3.3,5.8h-6.6l-3.3-5.8ZM221.6,199.8l3.3-5.8h6.6l3.3,5.8-3.3,5.8h-6.6l-3.3-5.8ZM224.9,208.2h6.6l3.3,5.8-3.3,5.8h-6.6l-3.3-5.8,3.3-5.8ZM233.9,206.9l3.3-5.8h6.6l3.3,5.8-3.3,5.8h-6.6l-3.3-5.8ZM246.2,199.8l3.3-5.8h6.6l3.3,5.8-3.3,5.8h-6.6l-3.3-5.8ZM249.6,208.2h6.6l3.3,5.8-3.3,5.8h-6.6l-3.3-5.8,3.3-5.8ZM258.6,206.9l3.3-5.8h6.6l3.3,5.8-3.3,5.8h-6.6l-3.3-5.8ZM270.9,199.8l3.3-5.8h6.6l3.3,5.8-3.3,5.8h-6.6l-3.3-5.8ZM274.2,208.2h6.6l3.3,5.8-3.3,5.8h-6.6l-3.3-5.8,3.3-5.8ZM283.2,206.9l3.3-5.8h6.6l3.3,5.8-3.3,5.8h-6.6l-3.3-5.8ZM273.7,180.7h7.7l2.8,4.8-3.3,5.8h-6.6l-3.3-5.8,2.8-4.8ZM268.5,186.9l3.3,5.8-3.3,5.8h-6.6l-3.3-5.8,3.3-5.8h6.6ZM249,180.7h7.7l2.8,4.8-3.3,5.8h-6.6l-3.3-5.8,2.8-4.8ZM243.9,186.9l3.3,5.8-3.3,5.8h-6.6l-3.3-5.8,3.3-5.8h6.6ZM224.4,180.7h7.7l2.8,4.8-3.3,5.8h-6.6l-3.3-5.8,2.8-4.8ZM219.3,186.9l3.3,5.8-3.3,5.8h-6.6l-3.3-5.8,3.3-5.8h6.6ZM199.8,180.7h7.7l2.8,4.8-3.3,5.8h-6.6l-3.3-5.8,2.8-4.8ZM194.6,186.9l3.3,5.8-3.3,5.8h-6.6l-3.3-5.8,3.3-5.8h6.6ZM175.2,180.7h7.7l2.8,4.8-3.3,5.8h-6.6l-3.3-5.8,2.8-4.8ZM175.7,194h6.6l3.3,5.8-3.3,5.8h-6.6l-3.3-5.8,3.3-5.8ZM175.7,208.2h6.6l3.3,5.8-3.3,5.8h-6.6l-3.3-5.8,3.3-5.8ZM112.6,233.1h-11.2v-8.6h11.2s0,8.6,0,8.6ZM112.6,189.3h-11.2v-8.6h11.2s0,8.6,0,8.6ZM153.9,233.1h-11v-8.6h11v8.6ZM153.9,189.3h-11v-8.6h11v8.6ZM182.9,233.1h-7.7l-2.8-4.8,3.3-5.8h6.6l3.3,5.8-2.8,4.8ZM188,226.9l-3.3-5.8,3.3-5.8h6.6l3.3,5.8-3.3,5.8h-6.6ZM207.5,233.1h-7.7l-2.8-4.8,3.3-5.8h6.6l3.3,5.8-2.8,4.8ZM212.6,226.9l-3.3-5.8,3.3-5.8h6.6l3.3,5.8-3.3,5.8h-6.6ZM232.1,233.1h-7.7l-2.8-4.8,3.3-5.8h6.6l3.3,5.8-2.8,4.8ZM237.3,226.9l-3.3-5.8,3.3-5.8h6.6l3.3,5.8-3.3,5.8h-6.6ZM256.8,233.1h-7.7l-2.8-4.8,3.3-5.8h6.6l3.3,5.8-2.8,4.8ZM261.9,226.9l-3.3-5.8,3.3-5.8h6.6l3.3,5.8-3.3,5.8h-6.6ZM281.4,233.1h-7.7l-2.8-4.8,3.3-5.8h6.6l3.3,5.8-2.8,4.8ZM286.5,226.9l-3.3-5.8,3.3-5.8h6.6l3.3,5.8-3.3,5.8h-6.6ZM306,233.1h-7.7l-2.8-4.8,3.3-5.8h6.6l3.3,5.8-2.8,4.8ZM305.5,219.8h-6.6l-3.3-5.8,3.3-5.8h6.6l3.3,5.8-3.3,5.8ZM305.5,205.5h-6.6l-3.3-5.8,3.3-5.8h6.6l3.3,5.8-3.3,5.8ZM328,233.1h-8.6v-8.6h8.6v8.6ZM328,189.3h-8.6v-8.6h8.6v8.6Z"/>
      <rect class="hseries-cls-9" x="112.6" y="180.7" width="30.3" height="52.3"/>
      <rect class="tint-target hseries-cls-7" x="108.3" y="190.8" width="33.8" height="32.1"/>
      <g>
        <rect class="tint-target hseries-cls-7" x="142.1" y="190.8" width="224" height="32.1"/>
        <rect class="tint-target hseries-cls-18" x="315.7" y="197.5" width="43.2" height="18.7" rx="4.4" ry="4.4"/>
      </g>
      <g>
        <polygon class="hseries-cls-6" points="328 188.9 328 180.7 101.4 180.7 101.4 233.1 328 233.1 328 224.9 363.5 224.9 363.5 244.5 70.1 244.5 70.1 169.3 363.5 169.3 363.5 188.9 328 188.9"/>
        <g>
          <path class="hseries-cls-8" d="M355.5,230.6l-.8,5-.8-5c0-.5.2-.9.7-1s.9.2,1,.7c0,0,0,.2,0,.3"/>
          <circle class="hseries-cls-8" cx="354.7" cy="239.2" r=".5"/>
        </g>
        <path class="hseries-cls-8" d="M354.7,174c-1.8,0-3.2.8-3.2,1.9v6.3c0,1.1,1.4,1.9,3.2,1.9s3.2-.8,3.2-1.9v-6.3c0-1.1-1.4-1.9-3.2-1.9M354.7,174.8c1.5,0,2.5.6,2.5,1.2s-1,1.2-2.5,1.2-2.5-.6-2.5-1.2,1-1.2,2.5-1.2M354.7,183.4c-1.5,0-2.5-.6-2.5-1.2v-5.1c.6.4,1.5.7,2.5.7s1.9-.3,2.5-.7v5.1c0,.6-1,1.2-2.5,1.2"/>
      </g>
    </g>
    <g id="DRIVE_CAGE_10" data-name="DRIVE CAGE 9">
      <g>
        <g>
          <rect class="hseries-cls-19" x="379.7" y="230.9" width="287.7" height="9.6"/>
          <rect class="hseries-cls-12" x="642" y="170" width="25.5" height="11.2"/>
          <rect class="hseries-cls-17" x="428.1" y="170" width="213.9" height="11.2"/>
          <rect class="hseries-cls-12" x="379.7" y="170" width="48.4" height="11.2"/>
          <rect class="hseries-cls-13" x="379.7" y="181.3" width="287.7" height="28.1"/>
          <rect class="hseries-cls-12" x="379.7" y="209.3" width="287.7" height="21.6"/>
          <polygon class="hseries-cls-13" points="654.5 209.4 667.4 209.4 667.4 242.8 660.2 242.8 658.2 231 654.5 209.4"/>
          <polygon class="hseries-cls-13" points="386.9 242.8 379.7 242.8 379.7 209.4 392.7 209.4 386.9 242.8"/>
          <rect class="hseries-cls-11" x="390.4" y="240.6" width="266.4" height="2.2"/>
          <path class="hseries-cls-12" d="M586.6,231l-7.9,10.4c-.7.9-1.7,1.4-2.9,1.4h-104.4c-1.1,0-2.2-.5-2.9-1.4l-7.9-10.4h126,0Z"/>
          <rect class="hseries-cls-13" x="428.1" y="170" width="213.9" height="11.2"/>
          <polygon class="hseries-cls-22" points="642.8 242.8 642.8 231 658.2 231 660.2 242.8 642.8 242.8"/>
          <polygon class="hseries-cls-22" points="404.4 242.8 404.4 231 389 231 386.9 242.8 404.4 242.8"/>
          <path class="hseries-cls-18" d="M642,177.7v-7.6h25.5v7.6c0,2-1.6,3.6-3.6,3.6h-18.3c-2,0-3.6-1.6-3.6-3.6h0Z"/>
          <path class="hseries-cls-18" d="M379.7,177.7v-7.6h48.4v7.6c0,2-1.6,3.6-3.6,3.6h-41.2c-2,0-3.6-1.6-3.6-3.6Z"/>
          <path class="hseries-cls-17" d="M428.1,177.7v-7.6h213.9v7.6c0,2-1.6,3.6-3.6,3.6h-206.7c-2,0-3.6-1.6-3.6-3.6Z"/>
          <polygon class="hseries-cls-15" points="660.2 242.8 654.5 209.4 642.4 209.4 642.4 242.8 660.2 242.8"/>
          <polygon class="hseries-cls-15" points="404.8 209.4 392.7 209.4 386.9 242.8 404.8 242.8 404.8 209.4"/>
          <rect class="hseries-cls-13" x="404.8" y="209.3" width="237.6" height="33.4"/>
          <rect class="hseries-cls-13" x="489" y="209.3" width="69.1" height="33.4"/>
        </g>
        <rect class="hseries-cls-14" x="379.7" y="170" width="287.7" height="72.7"/>
      </g>
      <path class="hseries-cls-19" d="M376.9,170.1v73.7h293.5v-73.6h-293.5ZM605.1,180.7h7.7l2.8,4.8-3.3,5.8h-6.7l-3.3-5.8,2.8-4.8h0ZM600,186.9l3.3,5.8-3.3,5.8h-6.7l-3.3-5.8,3.3-5.8h6.7ZM504.8,206.9l-3.3,5.8h-6.6l-3.3-5.8,3.3-5.8h6.6l3.3,5.8ZM503.8,199.8l3.3-5.8h6.7l3.3,5.8-3.3,5.8h-6.6l-3.3-5.8h0ZM507.1,208.2h6.7l3.3,5.8-3.3,5.8h-6.6l-3.3-5.8,3.3-5.8h0ZM516.1,206.9l3.3-5.8h6.7l3.3,5.8-3.3,5.8h-6.7l-3.3-5.8ZM528.4,199.8l3.3-5.8h6.6l3.3,5.8-3.3,5.8h-6.6l-3.3-5.8ZM531.8,208.2h6.6l3.3,5.8-3.3,5.8h-6.6l-3.3-5.8,3.3-5.8ZM540.7,206.9l3.3-5.8h6.7l3.3,5.8-3.3,5.8h-6.7l-3.3-5.8ZM553,199.8l3.3-5.8h6.6l3.3,5.8-3.3,5.8h-6.6l-3.3-5.8ZM556.4,208.2h6.6l3.3,5.8-3.3,5.8h-6.6l-3.3-5.8,3.3-5.8ZM565.4,206.9l3.3-5.8h6.7l3.3,5.8-3.3,5.8h-6.7l-3.3-5.8ZM577.7,199.8l3.3-5.8h6.7l3.3,5.8-3.3,5.8h-6.7l-3.3-5.8ZM581,208.2h6.7l3.3,5.8-3.3,5.8h-6.7l-3.3-5.8,3.3-5.8ZM590,206.9l3.3-5.8h6.7l3.3,5.8-3.3,5.8h-6.7l-3.3-5.8ZM580.5,180.7h7.7l2.8,4.8-3.3,5.8h-6.7l-3.3-5.8,2.8-4.8h0ZM575.3,186.9l3.3,5.8-3.3,5.8h-6.7l-3.3-5.8,3.3-5.8h6.7ZM555.8,180.7h7.7l2.8,4.8-3.3,5.8h-6.7l-3.3-5.8,2.8-4.8h0ZM550.7,186.9l3.3,5.8-3.3,5.8h-6.7l-3.3-5.8,3.3-5.8h6.7ZM531.2,180.7h7.7l2.8,4.8-3.3,5.8h-6.7l-3.3-5.8,2.8-4.8h0ZM526.1,186.9l3.3,5.8-3.3,5.8h-6.7l-3.3-5.8,3.3-5.8h6.7ZM506.6,180.7h7.7l2.8,4.8-3.3,5.8h-6.6l-3.3-5.8,2.8-4.8h0ZM501.5,186.9l3.3,5.8-3.3,5.8h-6.6l-3.3-5.8,3.3-5.8h6.6ZM482,180.7h7.7l2.8,4.8-3.3,5.8h-6.6l-3.3-5.8,2.8-4.8ZM482.5,194h6.6l3.3,5.8-3.3,5.8h-6.6l-3.3-5.8,3.3-5.8ZM482.5,208.2h6.6l3.3,5.8-3.3,5.8h-6.6l-3.3-5.8,3.3-5.8ZM419.4,233.1h-11.2v-8.6h11.2v8.6ZM419.4,189.3h-11.2v-8.6h11.2v8.6ZM460.7,233.1h-11v-8.6h11v8.6ZM460.7,189.3h-11v-8.6h11v8.6ZM489.7,233.1h-7.7l-2.8-4.8,3.3-5.8h6.6l3.3,5.8-2.8,4.8ZM494.8,226.9l-3.3-5.8,3.3-5.8h6.6l3.3,5.8-3.3,5.8h-6.6ZM514.3,233.1h-7.7l-2.8-4.8,3.3-5.8h6.6l3.3,5.8-2.8,4.8ZM519.4,226.9l-3.3-5.8,3.3-5.8h6.7l3.3,5.8-3.3,5.8h-6.7ZM538.9,233.1h-7.7l-2.8-4.8,3.3-5.8h6.7l3.3,5.8-2.8,4.8h0ZM544.1,226.9l-3.3-5.8,3.3-5.8h6.7l3.3,5.8-3.3,5.8h-6.7ZM563.5,233.1h-7.7l-2.8-4.8,3.3-5.8h6.7l3.3,5.8-2.8,4.8h0ZM568.7,226.9l-3.3-5.8,3.3-5.8h6.7l3.3,5.8-3.3,5.8h-6.7ZM588.2,233.1h-7.7l-2.8-4.8,3.3-5.8h6.7l3.3,5.8-2.8,4.8h0ZM593.3,226.9l-3.3-5.8,3.3-5.8h6.7l3.3,5.8-3.3,5.8h-6.7ZM612.8,233.1h-7.7l-2.8-4.8,3.3-5.8h6.7l3.3,5.8-2.8,4.8h0ZM612.3,219.8h-6.7l-3.3-5.8,3.3-5.8h6.7l3.3,5.8-3.3,5.8ZM612.3,205.5h-6.7l-3.3-5.8,3.3-5.8h6.7l3.3,5.8-3.3,5.8ZM634.8,233.1h-8.6v-8.6h8.6v8.6ZM634.8,189.3h-8.6v-8.6h8.6v8.6Z"/>
      <rect class="hseries-cls-9" x="419.4" y="180.7" width="30.3" height="52.3"/>
      <rect class="tint-target hseries-cls-7" x="415.2" y="190.8" width="33.8" height="32.1"/>
      <g>
        <rect class="tint-target hseries-cls-7" x="448.9" y="190.8" width="224" height="32.1"/>
        <rect class="tint-target hseries-cls-18" x="622.5" y="197.5" width="43.2" height="18.7" rx="4.4" ry="4.4"/>
      </g>
      <g>
        <polygon class="hseries-cls-6" points="634.8 188.9 634.8 180.7 408.2 180.7 408.2 233.1 634.8 233.1 634.8 224.9 670.3 224.9 670.3 244.5 376.9 244.5 376.9 169.3 670.3 169.3 670.3 188.9 634.8 188.9"/>
        <g>
          <path class="hseries-cls-8" d="M662.3,230.6l-.8,5-.8-5c0-.5.2-.9.7-1s.9.2,1,.7c0,0,0,.2,0,.3"/>
          <circle class="hseries-cls-8" cx="661.5" cy="239.2" r=".5"/>
        </g>
        <path class="hseries-cls-8" d="M661.5,174c-1.8,0-3.2.8-3.2,1.9v6.3c0,1.1,1.4,1.9,3.2,1.9s3.2-.8,3.2-1.9v-6.3c0-1.1-1.4-1.9-3.2-1.9M661.5,174.8c1.5,0,2.5.6,2.5,1.2s-1,1.2-2.5,1.2-2.5-.6-2.5-1.2,1-1.2,2.5-1.2M661.5,183.4c-1.5,0-2.5-.6-2.5-1.2v-5.1c.6.4,1.5.7,2.5.7s1.9-.3,2.5-.7v5.1c0,.6-1,1.2-2.5,1.2"/>
      </g>
    </g>
    <g id="DRIVE_CAGE_11" data-name="DRIVE CAGE 10">
      <g>
        <g>
          <rect class="hseries-cls-19" x="686.5" y="230.9" width="287.7" height="9.6"/>
          <rect class="hseries-cls-12" x="948.8" y="170" width="25.5" height="11.2"/>
          <rect class="hseries-cls-17" x="734.9" y="170" width="213.9" height="11.2"/>
          <rect class="hseries-cls-12" x="686.5" y="170" width="48.4" height="11.2"/>
          <rect class="hseries-cls-13" x="686.5" y="181.3" width="287.7" height="28.1"/>
          <rect class="hseries-cls-12" x="686.5" y="209.3" width="287.7" height="21.6"/>
          <polygon class="hseries-cls-13" points="961.3 209.4 974.2 209.4 974.2 242.8 967 242.8 965 231 961.3 209.4"/>
          <polygon class="hseries-cls-13" points="693.7 242.8 686.5 242.8 686.5 209.4 699.5 209.4 693.7 242.8"/>
          <rect class="hseries-cls-11" x="697.2" y="240.6" width="266.4" height="2.2"/>
          <path class="hseries-cls-12" d="M893.4,231l-7.9,10.4c-.7.9-1.7,1.4-2.9,1.4h-104.4c-1.1,0-2.2-.5-2.9-1.4l-7.9-10.4h126,0Z"/>
          <rect class="hseries-cls-13" x="734.9" y="170" width="213.9" height="11.2"/>
          <polygon class="hseries-cls-22" points="949.6 242.8 949.6 231 965 231 967 242.8 949.6 242.8"/>
          <polygon class="hseries-cls-22" points="711.2 242.8 711.2 231 695.8 231 693.7 242.8 711.2 242.8"/>
          <path class="hseries-cls-18" d="M948.8,177.7v-7.6h25.5v7.6c0,2-1.6,3.6-3.6,3.6h-18.3c-2,0-3.6-1.6-3.6-3.6h0Z"/>
          <path class="hseries-cls-18" d="M686.5,177.7v-7.6h48.4v7.6c0,2-1.6,3.6-3.6,3.6h-41.2c-2,0-3.6-1.6-3.6-3.6h0Z"/>
          <path class="hseries-cls-17" d="M734.9,177.7v-7.6h213.9v7.6c0,2-1.6,3.6-3.6,3.6h-206.7c-2,0-3.6-1.6-3.6-3.6h0Z"/>
          <polygon class="hseries-cls-15" points="967 242.8 961.3 209.4 949.2 209.4 949.2 242.8 967 242.8"/>
          <polygon class="hseries-cls-15" points="711.6 209.4 699.5 209.4 693.7 242.8 711.6 242.8 711.6 209.4"/>
          <rect class="hseries-cls-13" x="711.6" y="209.3" width="237.6" height="33.4"/>
          <rect class="hseries-cls-13" x="795.8" y="209.3" width="69.1" height="33.4"/>
        </g>
        <rect class="hseries-cls-14" x="686.5" y="170" width="287.7" height="72.7"/>
      </g>
      <path class="hseries-cls-19" d="M683.7,170.1v73.7h293.5v-73.6h-293.5ZM911.9,180.7h7.7l2.8,4.8-3.3,5.8h-6.7l-3.3-5.8,2.8-4.8h0ZM906.8,186.9l3.3,5.8-3.3,5.8h-6.7l-3.3-5.8,3.3-5.8h6.7ZM811.6,206.9l-3.3,5.8h-6.7l-3.3-5.8,3.3-5.8h6.7l3.3,5.8ZM810.6,199.8l3.3-5.8h6.7l3.3,5.8-3.3,5.8h-6.7l-3.3-5.8ZM813.9,208.2h6.7l3.3,5.8-3.3,5.8h-6.7l-3.3-5.8,3.3-5.8ZM822.9,206.9l3.3-5.8h6.7l3.3,5.8-3.3,5.8h-6.7l-3.3-5.8ZM835.2,199.8l3.3-5.8h6.6l3.3,5.8-3.3,5.8h-6.6l-3.3-5.8ZM838.6,208.2h6.6l3.3,5.8-3.3,5.8h-6.6l-3.3-5.8,3.3-5.8ZM847.5,206.9l3.3-5.8h6.7l3.3,5.8-3.3,5.8h-6.7l-3.3-5.8ZM859.9,199.8l3.3-5.8h6.6l3.3,5.8-3.3,5.8h-6.6l-3.3-5.8ZM863.2,208.2h6.6l3.3,5.8-3.3,5.8h-6.6l-3.3-5.8,3.3-5.8ZM872.2,206.9l3.3-5.8h6.7l3.3,5.8-3.3,5.8h-6.7l-3.3-5.8ZM884.5,199.8l3.3-5.8h6.7l3.3,5.8-3.3,5.8h-6.7l-3.3-5.8ZM887.8,208.2h6.7l3.3,5.8-3.3,5.8h-6.7l-3.3-5.8,3.3-5.8ZM896.8,206.9l3.3-5.8h6.7l3.3,5.8-3.3,5.8h-6.7l-3.3-5.8ZM887.3,180.7h7.7l2.8,4.8-3.3,5.8h-6.7l-3.3-5.8,2.8-4.8h0ZM882.2,186.9l3.3,5.8-3.3,5.8h-6.7l-3.3-5.8,3.3-5.8h6.7ZM862.7,180.7h7.7l2.8,4.8-3.3,5.8h-6.7l-3.3-5.8,2.8-4.8h0ZM857.5,186.9l3.3,5.8-3.3,5.8h-6.7l-3.3-5.8,3.3-5.8h6.7ZM838,180.7h7.7l2.8,4.8-3.3,5.8h-6.7l-3.3-5.8,2.8-4.8h0ZM832.9,186.9l3.3,5.8-3.3,5.8h-6.7l-3.3-5.8,3.3-5.8h6.7ZM813.4,180.7h7.7l2.8,4.8-3.3,5.8h-6.6l-3.3-5.8,2.8-4.8h0ZM808.3,186.9l3.3,5.8-3.3,5.8h-6.7l-3.3-5.8,3.3-5.8h6.7ZM788.8,180.7h7.7l2.8,4.8-3.3,5.8h-6.6l-3.3-5.8,2.8-4.8h0ZM789.3,194h6.7l3.3,5.8-3.3,5.8h-6.7l-3.3-5.8,3.3-5.8ZM789.3,208.2h6.7l3.3,5.8-3.3,5.8h-6.7l-3.3-5.8,3.3-5.8ZM726.2,233.1h-11.2v-8.6h11.2v8.6ZM726.2,189.3h-11.2v-8.6h11.2v8.6ZM767.5,233.1h-11v-8.6h11v8.6ZM767.5,189.3h-11v-8.6h11v8.6ZM796.5,233.1h-7.7l-2.8-4.8,3.3-5.8h6.6l3.3,5.8-2.8,4.8h0ZM801.6,226.9l-3.3-5.8,3.3-5.8h6.7l3.3,5.8-3.3,5.8h-6.7ZM821.1,233.1h-7.7l-2.8-4.8,3.3-5.8h6.6l3.3,5.8-2.8,4.8h0ZM826.2,226.9l-3.3-5.8,3.3-5.8h6.7l3.3,5.8-3.3,5.8h-6.7ZM845.7,233.1h-7.7l-2.8-4.8,3.3-5.8h6.7l3.3,5.8-2.8,4.8h0ZM850.9,226.9l-3.3-5.8,3.3-5.8h6.7l3.3,5.8-3.3,5.8h-6.7ZM870.4,233.1h-7.7l-2.8-4.8,3.3-5.8h6.7l3.3,5.8-2.8,4.8h0ZM875.5,226.9l-3.3-5.8,3.3-5.8h6.7l3.3,5.8-3.3,5.8h-6.7ZM895,233.1h-7.7l-2.8-4.8,3.3-5.8h6.7l3.3,5.8-2.8,4.8h0ZM900.1,226.9l-3.3-5.8,3.3-5.8h6.7l3.3,5.8-3.3,5.8h-6.7ZM919.6,233.1h-7.7l-2.8-4.8,3.3-5.8h6.7l3.3,5.8-2.8,4.8h0ZM919.1,219.8h-6.7l-3.3-5.8,3.3-5.8h6.7l3.3,5.8-3.3,5.8ZM919.1,205.5h-6.7l-3.3-5.8,3.3-5.8h6.7l3.3,5.8-3.3,5.8ZM941.6,233.1h-8.6v-8.6h8.6v8.6ZM941.6,189.3h-8.6v-8.6h8.6v8.6Z"/>
      <rect class="hseries-cls-9" x="726.2" y="180.7" width="30.3" height="52.3"/>
      <rect class="tint-target hseries-cls-7" x="722" y="190.8" width="33.8" height="32.1"/>
      <g>
        <rect class="tint-target hseries-cls-7" x="755.7" y="190.8" width="224" height="32.1"/>
        <rect class="tint-target hseries-cls-18" x="929.3" y="197.5" width="43.2" height="18.7" rx="4.4" ry="4.4"/>
      </g>
      <g>
        <polygon class="hseries-cls-6" points="941.6 188.9 941.6 180.7 715 180.7 715 233.1 941.6 233.1 941.6 224.9 977.1 224.9 977.1 244.5 683.7 244.5 683.7 169.3 977.1 169.3 977.1 188.9 941.6 188.9"/>
        <g>
          <path class="hseries-cls-8" d="M969.1,230.6l-.8,5-.8-5c0-.5.2-.9.7-1s.9.2,1,.7c0,0,0,.2,0,.3"/>
          <circle class="hseries-cls-8" cx="968.3" cy="239.2" r=".5"/>
        </g>
        <path class="hseries-cls-8" d="M968.3,174c-1.8,0-3.2.8-3.2,1.9v6.3c0,1.1,1.4,1.9,3.2,1.9s3.2-.8,3.2-1.9v-6.3c0-1.1-1.4-1.9-3.2-1.9M968.3,174.8c1.5,0,2.5.6,2.5,1.2s-1,1.2-2.5,1.2-2.5-.6-2.5-1.2,1-1.2,2.5-1.2M968.3,183.4c-1.5,0-2.5-.6-2.5-1.2v-5.1c.6.4,1.5.7,2.5.7s1.9-.3,2.5-.7v5.1c0,.6-1,1.2-2.5,1.2"/>
      </g>
    </g>
    <g id="DRIVE_CAGE_12" data-name="DRIVE CAGE 11">
      <g>
        <g>
          <rect class="hseries-cls-19" x="993.3" y="230.9" width="287.7" height="9.6"/>
          <rect class="hseries-cls-12" x="1255.6" y="170" width="25.5" height="11.2"/>
          <rect class="hseries-cls-17" x="1041.7" y="170" width="213.9" height="11.2"/>
          <rect class="hseries-cls-12" x="993.3" y="170" width="48.4" height="11.2"/>
          <rect class="hseries-cls-13" x="993.3" y="181.3" width="287.7" height="28.1"/>
          <rect class="hseries-cls-12" x="993.3" y="209.3" width="287.7" height="21.6"/>
          <polygon class="hseries-cls-13" points="1268.1 209.4 1281.1 209.4 1281.1 242.8 1273.8 242.8 1271.8 231 1268.1 209.4"/>
          <polygon class="hseries-cls-13" points="1000.5 242.8 993.3 242.8 993.3 209.4 1006.3 209.4 1000.5 242.8"/>
          <rect class="hseries-cls-11" x="1004" y="240.6" width="266.4" height="2.2"/>
          <path class="hseries-cls-12" d="M1200.2,231l-7.9,10.4c-.7.9-1.7,1.4-2.9,1.4h-104.4c-1.1,0-2.2-.5-2.9-1.4l-7.9-10.4h126,0Z"/>
          <rect class="hseries-cls-13" x="1041.7" y="170" width="213.9" height="11.2"/>
          <polygon class="hseries-cls-22" points="1256.4 242.8 1256.4 231 1271.8 231 1273.8 242.8 1256.4 242.8"/>
          <polygon class="hseries-cls-22" points="1018 242.8 1018 231 1002.6 231 1000.5 242.8 1018 242.8"/>
          <path class="hseries-cls-18" d="M1255.6,177.7v-7.6h25.5v7.6c0,2-1.6,3.6-3.6,3.6h-18.3c-2,0-3.6-1.6-3.6-3.6Z"/>
          <path class="hseries-cls-18" d="M993.3,177.7v-7.6h48.4v7.6c0,2-1.6,3.6-3.6,3.6h-41.2c-2,0-3.6-1.6-3.6-3.6h0Z"/>
          <path class="hseries-cls-17" d="M1041.7,177.7v-7.6h213.9v7.6c0,2-1.6,3.6-3.6,3.6h-206.7c-2,0-3.6-1.6-3.6-3.6h0Z"/>
          <polygon class="hseries-cls-15" points="1273.8 242.8 1268.1 209.4 1256 209.4 1256 242.8 1273.8 242.8"/>
          <polygon class="hseries-cls-15" points="1018.4 209.4 1006.3 209.4 1000.5 242.8 1018.4 242.8 1018.4 209.4"/>
          <rect class="hseries-cls-13" x="1018.4" y="209.3" width="237.6" height="33.4"/>
          <rect class="hseries-cls-13" x="1102.6" y="209.3" width="69.1" height="33.4"/>
        </g>
        <rect class="hseries-cls-14" x="993.3" y="170" width="287.7" height="72.7"/>
      </g>
      <path class="hseries-cls-19" d="M990.5,170.1v73.7h293.5v-73.6h-293.5ZM1218.7,180.7h7.7l2.8,4.8-3.3,5.8h-6.7l-3.3-5.8,2.8-4.8h0ZM1213.6,186.9l3.3,5.8-3.3,5.8h-6.7l-3.3-5.8,3.3-5.8h6.7ZM1118.4,206.9l-3.3,5.8h-6.7l-3.3-5.8,3.3-5.8h6.7l3.3,5.8ZM1117.4,199.8l3.3-5.8h6.7l3.3,5.8-3.3,5.8h-6.7l-3.3-5.8ZM1120.7,208.2h6.7l3.3,5.8-3.3,5.8h-6.7l-3.3-5.8,3.3-5.8ZM1129.7,206.9l3.3-5.8h6.7l3.3,5.8-3.3,5.8h-6.7l-3.3-5.8ZM1142,199.8l3.3-5.8h6.6l3.3,5.8-3.3,5.8h-6.6l-3.3-5.8ZM1145.4,208.2h6.6l3.3,5.8-3.3,5.8h-6.6l-3.3-5.8,3.3-5.8ZM1154.3,206.9l3.3-5.8h6.7l3.3,5.8-3.3,5.8h-6.7l-3.3-5.8ZM1166.7,199.8l3.3-5.8h6.6l3.3,5.8-3.3,5.8h-6.6l-3.3-5.8ZM1170,208.2h6.6l3.3,5.8-3.3,5.8h-6.6l-3.3-5.8,3.3-5.8ZM1179,206.9l3.3-5.8h6.7l3.3,5.8-3.3,5.8h-6.7l-3.3-5.8ZM1191.3,199.8l3.3-5.8h6.7l3.3,5.8-3.3,5.8h-6.7l-3.3-5.8ZM1194.6,208.2h6.7l3.3,5.8-3.3,5.8h-6.7l-3.3-5.8,3.3-5.8ZM1203.6,206.9l3.3-5.8h6.7l3.3,5.8-3.3,5.8h-6.7l-3.3-5.8ZM1194.1,180.7h7.7l2.8,4.8-3.3,5.8h-6.7l-3.3-5.8,2.8-4.8h0ZM1188.9,186.9l3.3,5.8-3.3,5.8h-6.7l-3.3-5.8,3.3-5.8h6.7ZM1169.4,180.7h7.7l2.8,4.8-3.3,5.8h-6.7l-3.3-5.8,2.8-4.8h0ZM1164.3,186.9l3.3,5.8-3.3,5.8h-6.7l-3.3-5.8,3.3-5.8h6.7ZM1144.8,180.7h7.7l2.8,4.8-3.3,5.8h-6.7l-3.3-5.8,2.8-4.8h0ZM1139.7,186.9l3.3,5.8-3.3,5.8h-6.7l-3.3-5.8,3.3-5.8h6.7ZM1120.2,180.7h7.7l2.8,4.8-3.3,5.8h-6.6l-3.3-5.8,2.8-4.8h0ZM1115.1,186.9l3.3,5.8-3.3,5.8h-6.7l-3.3-5.8,3.3-5.8h6.7ZM1095.6,180.7h7.7l2.8,4.8-3.3,5.8h-6.6l-3.3-5.8,2.8-4.8h0ZM1096.1,194h6.7l3.3,5.8-3.3,5.8h-6.7l-3.3-5.8,3.3-5.8ZM1096.1,208.2h6.7l3.3,5.8-3.3,5.8h-6.7l-3.3-5.8,3.3-5.8ZM1033,233.1h-11.2v-8.6h11.2v8.6ZM1033,189.3h-11.2v-8.6h11.2v8.6ZM1074.3,233.1h-11v-8.6h11v8.6ZM1074.3,189.3h-11v-8.6h11v8.6ZM1103.3,233.1h-7.7l-2.8-4.8,3.3-5.8h6.6l3.3,5.8-2.8,4.8h0ZM1108.4,226.9l-3.3-5.8,3.3-5.8h6.7l3.3,5.8-3.3,5.8h-6.7ZM1127.9,233.1h-7.7l-2.8-4.8,3.3-5.8h6.6l3.3,5.8-2.8,4.8h0ZM1133,226.9l-3.3-5.8,3.3-5.8h6.7l3.3,5.8-3.3,5.8h-6.7ZM1152.5,233.1h-7.7l-2.8-4.8,3.3-5.8h6.7l3.3,5.8-2.8,4.8h0ZM1157.7,226.9l-3.3-5.8,3.3-5.8h6.7l3.3,5.8-3.3,5.8h-6.7ZM1177.2,233.1h-7.7l-2.8-4.8,3.3-5.8h6.7l3.3,5.8-2.8,4.8h0ZM1182.3,226.9l-3.3-5.8,3.3-5.8h6.7l3.3,5.8-3.3,5.8h-6.7ZM1201.8,233.1h-7.7l-2.8-4.8,3.3-5.8h6.7l3.3,5.8-2.8,4.8h0ZM1206.9,226.9l-3.3-5.8,3.3-5.8h6.7l3.3,5.8-3.3,5.8h-6.7ZM1226.4,233.1h-7.7l-2.8-4.8,3.3-5.8h6.7l3.3,5.8-2.8,4.8h0ZM1225.9,219.8h-6.7l-3.3-5.8,3.3-5.8h6.7l3.3,5.8-3.3,5.8ZM1225.9,205.5h-6.7l-3.3-5.8,3.3-5.8h6.7l3.3,5.8-3.3,5.8ZM1248.4,233.1h-8.6v-8.6h8.6v8.6ZM1248.4,189.3h-8.6v-8.6h8.6v8.6Z"/>
      <rect class="hseries-cls-9" x="1033" y="180.7" width="30.3" height="52.3"/>
      <rect class="tint-target hseries-cls-7" x="1028.8" y="190.8" width="33.8" height="32.1"/>
      <g>
        <rect class="tint-target hseries-cls-7" x="1062.5" y="190.8" width="224" height="32.1"/>
        <rect class="tint-target hseries-cls-18" x="1236.1" y="197.5" width="43.2" height="18.7" rx="4.4" ry="4.4"/>
      </g>
      <g>
        <polygon class="hseries-cls-6" points="1248.4 188.9 1248.4 180.7 1021.8 180.7 1021.8 233.1 1248.4 233.1 1248.4 224.9 1283.9 224.9 1283.9 244.5 990.5 244.5 990.5 169.3 1283.9 169.3 1283.9 188.9 1248.4 188.9"/>
        <g>
          <path class="hseries-cls-8" d="M1275.9,230.6l-.8,5-.8-5c0-.5.2-.9.7-1s.9.2,1,.7c0,0,0,.2,0,.3"/>
          <circle class="hseries-cls-8" cx="1275.1" cy="239.2" r=".5"/>
        </g>
        <path class="hseries-cls-8" d="M1275.1,174c-1.8,0-3.2.8-3.2,1.9v6.3c0,1.1,1.4,1.9,3.2,1.9s3.2-.8,3.2-1.9v-6.3c0-1.1-1.4-1.9-3.2-1.9M1275.1,174.8c1.5,0,2.5.6,2.5,1.2s-1,1.2-2.5,1.2-2.5-.6-2.5-1.2,1-1.2,2.5-1.2M1275.1,183.4c-1.5,0-2.5-.6-2.5-1.2v-5.1c.6.4,1.5.7,2.5.7s1.9-.3,2.5-.7v5.1c0,.6-1,1.2-2.5,1.2"/>
      </g>
    </g>
  </g>
  <g id="Controller_1_Indicators" data-name="Controller 1 Indicators">
    <circle id="POWER" class="hseries-cls-5" cx="15.7" cy="40.9" r="9.8"/>
    <circle id="LOCATE_ID" data-name="LOCATE ID" class="hseries-cls-5" cx="15.7" cy="129.1" r="9.8"/>
    <circle id="FAULT" class="hseries-cls-5" cx="46.4" cy="40.9" r="3.6"/>
    <circle id="LINK1_ACTIVE" data-name="LINK1 ACTIVE" class="hseries-cls-5" cx="46.4" cy="62.5" r="3.6"/>
    <circle id="LINK2_ACTIVE" data-name="LINK2 ACTIVE" class="hseries-cls-5" cx="46.4" cy="84.1" r="3.6"/>
  </g>
  <g id="Controller_2_Indicators" data-name="Controller 2 Indicators">
    <circle id="POWER-2" class="hseries-cls-5" cx="1327.9" cy="40.9" r="9.8"/>
    <circle id="LOCATE_ID-2" data-name="LOCATE ID-2" class="hseries-cls-5" cx="1327.9" cy="129.1" r="9.8"/>
    <circle id="FAULT-2" class="hseries-cls-5" cx="1358.6" cy="40.9" r="3.6"/>
    <circle id="LINK1_ACTIVE-2" data-name="LINK1 ACTIVE-2" class="hseries-cls-5" cx="1358.6" cy="62.5" r="3.6"/>
    <circle id="LINK2_ACTIVE-2" data-name="LINK2 ACTIVE-2" class="hseries-cls-5" cx="1358.6" cy="84.1" r="3.6"/>
  </g>
</svg>
