<?xml version="1.0" encoding="utf-8"?><!DOCTYPE svg PUBLIC "-//W3C//DTD SVG 1.1//EN" "http://www.w3.org/Graphics/SVG/1.1/DTD/svg11.dtd"><svg viewBox="0 0 294 90" xmlns="http://www.w3.org/2000/svg" xmlns:xlink="http://www.w3.org/1999/xlink"><style>:root>svg{display:none}:root>svg:target{display:block}</style><svg viewBox="0 0 24 24" id="dataset" xmlns="http://www.w3.org/2000/svg"><path d="M19 3H5c-1.1 0-2 .9-2 2v14c0 1.1.9 2 2 2h14c1.1 0 2-.9 2-2V5c0-1.1-.9-2-2-2zm-8 14H7v-4h4v4zm0-6H7V7h4v4zm6 6h-4v-4h4v4zm0-6h-4V7h4v4z"/></svg><svg viewBox="0 0 24 24" id="mdi-account-circle" xmlns="http://www.w3.org/2000/svg"><path d="M12 19.2c-2.5 0-4.71-1.28-6-3.2.03-2 4-3.1 6-3.1s5.97 1.1 6 3.1a7.232 7.232 0 0 1-6 3.2M12 5a3 3 0 0 1 3 3 3 3 0 0 1-3 3 3 3 0 0 1-3-3 3 3 0 0 1 3-3m0-3A10 10 0 0 0 2 12a10 10 0 0 0 10 10 10 10 0 0 0 10-10c0-5.53-4.5-10-10-10Z"/></svg><svg viewBox="0 0 24 24" id="mdi-alert" xmlns="http://www.w3.org/2000/svg"><path d="M13 14h-2V9h2m0 9h-2v-2h2M1 21h22L12 2 1 21Z"/></svg><svg viewBox="0 0 24 24" id="mdi-alert-circle" xmlns="http://www.w3.org/2000/svg"><path d="M13 13h-2V7h2m0 10h-2v-2h2M12 2A10 10 0 0 0 2 12a10 10 0 0 0 10 10 10 10 0 0 0 10-10A10 10 0 0 0 12 2Z"/></svg><svg viewBox="0 0 24 24" id="mdi-apps" xmlns="http://www.w3.org/2000/svg"><path d="M16 20h4v-4h-4m0-2h4v-4h-4m-6-2h4V4h-4m6 4h4V4h-4m-6 10h4v-4h-4m-6 4h4v-4H4m0 10h4v-4H4m6 4h4v-4h-4M4 8h4V4H4v4Z"/></svg><svg viewBox="0 0 24 24" id="mdi-arrow-up" xmlns="http://www.w3.org/2000/svg"><path d="M13 20h-2V8l-5.5 5.5-1.42-1.42L12 4.16l7.92 7.92-1.42 1.42L13 8v12Z"/></svg><svg viewBox="0 0 24 24" id="mdi-autorenew" xmlns="http://www.w3.org/2000/svg"><path d="M12 6v3l4-4-4-4v3a8 8 0 0 0-8 8c0 1.57.46 3.03 1.24 4.26L6.7 14.8A5.9 5.9 0 0 1 6 12a6 6 0 0 1 6-6m6.76 1.74L17.3 9.2c.44.84.7 1.8.7 2.8a6 6 0 0 1-6 6v-3l-4 4 4 4v-3a8 8 0 0 0 8-8c0-1.57-.46-3.03-1.24-4.26Z"/></svg><svg viewBox="0 0 24 24" id="mdi-bell" xmlns="http://www.w3.org/2000/svg"><path d="M21 19v1H3v-1l2-2v-6c0-3.1 2.03-5.83 5-6.71V4a2 2 0 0 1 2-2 2 2 0 0 1 2 2v.29c2.97.88 5 3.61 5 6.71v6l2 2m-7 2a2 2 0 0 1-2 2 2 2 0 0 1-2-2"/></svg><svg viewBox="0 0 24 24" id="mdi-book-multiple" xmlns="http://www.w3.org/2000/svg"><path d="M19 18H9a2 2 0 0 1-2-2V4a2 2 0 0 1 2-2h1v5l2-1.5L14 7V2h5a2 2 0 0 1 2 2v12a2 2 0 0 1-2 2m-2 2v2H5a2 2 0 0 1-2-2V6h2v14h12Z"/></svg><svg viewBox="0 0 24 24" id="mdi-cancel" xmlns="http://www.w3.org/2000/svg"><path d="M12 2c5.5 0 10 4.5 10 10s-4.5 10-10 10S2 17.5 2 12 6.5 2 12 2m0 2c-1.9 0-3.6.6-4.9 1.7l11.2 11.2c1-1.4 1.7-3.1 1.7-4.9 0-4.4-3.6-8-8-8m4.9 14.3L5.7 7.1C4.6 8.4 4 10.1 4 12c0 4.4 3.6 8 8 8 1.9 0 3.6-.6 4.9-1.7Z"/></svg><svg viewBox="0 0 24 24" id="mdi-chart-bar" xmlns="http://www.w3.org/2000/svg"><path d="M22 21H2V3h2v16h2v-9h4v9h2V6h4v13h2v-5h4v7Z"/></svg><svg viewBox="0 0 24 24" id="mdi-check" xmlns="http://www.w3.org/2000/svg"><path d="M21 7 9 19l-5.5-5.5 1.41-1.41L9 16.17 19.59 5.59 21 7Z"/></svg><svg viewBox="0 0 24 24" id="mdi-check-circle" xmlns="http://www.w3.org/2000/svg"><path d="M12 2C6.5 2 2 6.5 2 12s4.5 10 10 10 10-4.5 10-10S17.5 2 12 2m-2 15-5-5 1.41-1.41L10 14.17l7.59-7.59L19 8l-9 9Z"/></svg><svg viewBox="0 0 24 24" id="mdi-chevron-down" xmlns="http://www.w3.org/2000/svg"><path d="M7.41 8.58 12 13.17l4.59-4.59L18 10l-6 6-6-6 1.41-1.42Z"/></svg><svg viewBox="0 0 24 24" id="mdi-chevron-left" xmlns="http://www.w3.org/2000/svg"><path d="M15.41 16.58 10.83 12l4.58-4.59L14 6l-6 6 6 6 1.41-1.42Z"/></svg><svg viewBox="0 0 24 24" id="mdi-chevron-right" xmlns="http://www.w3.org/2000/svg"><path d="M8.59 16.58 13.17 12 8.59 7.41 10 6l6 6-6 6-1.41-1.42Z"/></svg><svg viewBox="0 0 24 24" id="mdi-clipboard-text" xmlns="http://www.w3.org/2000/svg"><path d="M17 9H7V7h10m0 6H7v-2h10m-3 6H7v-2h7M12 3a1 1 0 0 1 1 1 1 1 0 0 1-1 1 1 1 0 0 1-1-1 1 1 0 0 1 1-1m7 0h-4.18C14.4 1.84 13.3 1 12 1c-1.3 0-2.4.84-2.82 2H5a2 2 0 0 0-2 2v14a2 2 0 0 0 2 2h14a2 2 0 0 0 2-2V5a2 2 0 0 0-2-2Z"/></svg><svg viewBox="0 0 24 24" id="mdi-close" xmlns="http://www.w3.org/2000/svg"><path d="M19 6.41 17.59 5 12 10.59 6.41 5 5 6.41 10.59 12 5 17.59 6.41 19 12 13.41 17.59 19 19 17.59 13.41 12 19 6.41Z"/></svg><svg viewBox="0 0 24 24" id="mdi-close-circle" xmlns="http://www.w3.org/2000/svg"><path d="M12 2c5.53 0 10 4.47 10 10s-4.47 10-10 10S2 17.53 2 12 6.47 2 12 2m3.59 5L12 10.59 8.41 7 7 8.41 10.59 12 7 15.59 8.41 17 12 13.41 15.59 17 17 15.59 13.41 12 17 8.41 15.59 7Z"/></svg><svg viewBox="0 0 24 24" id="mdi-cog" xmlns="http://www.w3.org/2000/svg"><path d="M12 15.5A3.5 3.5 0 0 1 8.5 12 3.5 3.5 0 0 1 12 8.5a3.5 3.5 0 0 1 3.5 3.5 3.5 3.5 0 0 1-3.5 3.5m7.43-2.53c.04-.32.07-.64.07-.97 0-.33-.03-.66-.07-1l2.11-1.63c.19-.15.24-.42.12-.64l-2-3.46c-.12-.22-.39-.31-.61-.22l-2.49 1c-.52-.39-1.06-.73-1.69-.98l-.37-2.65A.506.506 0 0 0 14 2h-4c-.25 0-.46.18-.5.42l-.37 2.65c-.63.25-1.17.59-1.69.98l-2.49-1c-.22-.09-.49 0-.61.22l-2 3.46c-.13.22-.07.49.12.64L4.57 11c-.04.34-.07.67-.07 1 0 .33.03.65.07.97l-2.11 1.66c-.19.15-.25.42-.12.64l2 3.46c.12.22.39.3.61.22l2.49-1.01c.52.4 1.06.74 1.69.99l.37 2.65c.04.24.25.42.5.42h4c.25 0 .46-.18.5-.42l.37-2.65c.63-.26 1.17-.59 1.69-.99l2.49 1.01c.22.08.49 0 .61-.22l2-3.46c.12-.22.07-.49-.12-.64l-2.11-1.66Z"/></svg><svg viewBox="0 0 24 24" id="mdi-content-copy" xmlns="http://www.w3.org/2000/svg"><path d="M19 21H8V7h11m0-2H8a2 2 0 0 0-2 2v14a2 2 0 0 0 2 2h11a2 2 0 0 0 2-2V7a2 2 0 0 0-2-2m-3-4H4a2 2 0 0 0-2 2v14h2V3h12V1Z"/></svg><svg viewBox="0 0 24 24" id="mdi-copyright" xmlns="http://www.w3.org/2000/svg"><path d="M10.08 10.86c.05-.33.16-.62.3-.86.3-.56.81-.85 1.5-.86.45 0 .86.2 1.15.49.28.31.47.74.47 1.17h1.8c-.02-.47-.11-.9-.3-1.3-.15-.38-.38-.72-.68-1-1.45-1.34-4.14-1.15-5.37.37-1.29 1.67-1.32 4.59-.01 6.26 1.21 1.49 3.86 1.7 5.3.37.31-.25.56-.56.76-.92.16-.36.27-.74.28-1.15H13.5c0 .21-.07.4-.16.57-.09.19-.21.34-.34.47-.33.26-.72.4-1.14.4-.36-.01-.66-.08-.89-.23a1.41 1.41 0 0 1-.59-.64c-.5-.9-.42-2.15-.3-3.14M12 2C6.5 2 2 6.5 2 12c.53 13.27 19.5 13.26 20 0 0-5.5-4.5-10-10-10m0 18c-4.41 0-8-3.59-8-8 .44-10.61 15.56-10.61 16 0 0 4.41-3.59 8-8 8Z"/></svg><svg viewBox="0 0 24 24" id="mdi-cpu-64-bit" xmlns="http://www.w3.org/2000/svg"><path d="M9 3v2H7a2 2 0 0 0-2 2v2H3v2h2v2H3v2h2v2a2 2 0 0 0 2 2h2v2h2v-2h2v2h2v-2h2a2 2 0 0 0 2-2v-2h2v-2h-2v-2h2V9h-2V7a2 2 0 0 0-2-2h-2V3h-2v2h-2V3M8 9h3.5v1.5h-3v.75h2a1 1 0 0 1 1 1V14a1 1 0 0 1-1 1H8a1 1 0 0 1-1-1v-4a1 1 0 0 1 1-1m4.5 0H14v2h1.5V9H17v6h-1.5v-2.5h-3m-4 .25v.75H10v-.75"/></svg><svg viewBox="0 0 24 24" id="mdi-database" xmlns="http://www.w3.org/2000/svg"><path d="M12 3C7.58 3 4 4.79 4 7s3.58 4 8 4 8-1.79 8-4-3.58-4-8-4M4 9v3c0 2.21 3.58 4 8 4s8-1.79 8-4V9c0 2.21-3.58 4-8 4s-8-1.79-8-4m0 5v3c0 2.21 3.58 4 8 4s8-1.79 8-4v-3c0 2.21-3.58 4-8 4s-8-1.79-8-4Z"/></svg><svg viewBox="0 0 24 24" id="mdi-delete" xmlns="http://www.w3.org/2000/svg"><path d="M19 4h-3.5l-1-1h-5l-1 1H5v2h14M6 19a2 2 0 0 0 2 2h8a2 2 0 0 0 2-2V7H6v12Z"/></svg><svg viewBox="0 0 24 24" id="mdi-dialpad" xmlns="http://www.w3.org/2000/svg"><path d="M12 19a2 2 0 0 0-2 2 2 2 0 0 0 2 2 2 2 0 0 0 2-2 2 2 0 0 0-2-2M6 1a2 2 0 0 0-2 2 2 2 0 0 0 2 2 2 2 0 0 0 2-2 2 2 0 0 0-2-2m0 6a2 2 0 0 0-2 2 2 2 0 0 0 2 2 2 2 0 0 0 2-2 2 2 0 0 0-2-2m0 6a2 2 0 0 0-2 2 2 2 0 0 0 2 2 2 2 0 0 0 2-2 2 2 0 0 0-2-2m12-8a2 2 0 0 0 2-2 2 2 0 0 0-2-2 2 2 0 0 0-2 2 2 2 0 0 0 2 2m-6 8a2 2 0 0 0-2 2 2 2 0 0 0 2 2 2 2 0 0 0 2-2 2 2 0 0 0-2-2m6 0a2 2 0 0 0-2 2 2 2 0 0 0 2 2 2 2 0 0 0 2-2 2 2 0 0 0-2-2m0-6a2 2 0 0 0-2 2 2 2 0 0 0 2 2 2 2 0 0 0 2-2 2 2 0 0 0-2-2m-6 0a2 2 0 0 0-2 2 2 2 0 0 0 2 2 2 2 0 0 0 2-2 2 2 0 0 0-2-2m0-6a2 2 0 0 0-2 2 2 2 0 0 0 2 2 2 2 0 0 0 2-2 2 2 0 0 0-2-2Z"/></svg><svg viewBox="0 0 24 24" id="mdi-dns" xmlns="http://www.w3.org/2000/svg"><path d="M7 9a2 2 0 0 1-2-2 2 2 0 0 1 2-2 2 2 0 0 1 2 2 2 2 0 0 1-2 2m13-6H4a1 1 0 0 0-1 1v6a1 1 0 0 0 1 1h16a1 1 0 0 0 1-1V4a1 1 0 0 0-1-1M7 19a2 2 0 0 1-2-2 2 2 0 0 1 2-2 2 2 0 0 1 2 2 2 2 0 0 1-2 2m13-6H4a1 1 0 0 0-1 1v6a1 1 0 0 0 1 1h16a1 1 0 0 0 1-1v-6a1 1 0 0 0-1-1Z"/></svg><svg viewBox="0 0 24 24" id="mdi-dots-vertical" xmlns="http://www.w3.org/2000/svg"><path d="M12 16a2 2 0 0 1 2 2 2 2 0 0 1-2 2 2 2 0 0 1-2-2 2 2 0 0 1 2-2m0-6a2 2 0 0 1 2 2 2 2 0 0 1-2 2 2 2 0 0 1-2-2 2 2 0 0 1 2-2m0-6a2 2 0 0 1 2 2 2 2 0 0 1-2 2 2 2 0 0 1-2-2 2 2 0 0 1 2-2Z"/></svg><svg viewBox="0 0 24 24" id="mdi-download" xmlns="http://www.w3.org/2000/svg"><path d="M5 20h14v-2H5m14-9h-4V3H9v6H5l7 7 7-7Z"/></svg><svg viewBox="0 0 24 24" id="mdi-emoticon" xmlns="http://www.w3.org/2000/svg"><path d="M12 2C6.47 2 2 6.5 2 12a10 10 0 0 0 10 10 10 10 0 0 0 10-10A10 10 0 0 0 12 2m3.5 6A1.5 1.5 0 0 1 17 9.5a1.5 1.5 0 0 1-1.5 1.5A1.5 1.5 0 0 1 14 9.5 1.5 1.5 0 0 1 15.5 8m-7 0A1.5 1.5 0 0 1 10 9.5 1.5 1.5 0 0 1 8.5 11 1.5 1.5 0 0 1 7 9.5 1.5 1.5 0 0 1 8.5 8m3.5 9.5c-2.33 0-4.31-1.46-5.11-3.5h10.22c-.81 2.04-2.78 3.5-5.11 3.5Z"/></svg><svg viewBox="0 0 24 24" id="mdi-eye" xmlns="http://www.w3.org/2000/svg"><path d="M12 9a3 3 0 0 0-3 3 3 3 0 0 0 3 3 3 3 0 0 0 3-3 3 3 0 0 0-3-3m0 8a5 5 0 0 1-5-5 5 5 0 0 1 5-5 5 5 0 0 1 5 5 5 5 0 0 1-5 5m0-12.5C7 4.5 2.73 7.61 1 12c1.73 4.39 6 7.5 11 7.5s9.27-3.11 11-7.5c-1.73-4.39-6-7.5-11-7.5Z"/></svg><svg viewBox="0 0 24 24" id="mdi-eye-off" xmlns="http://www.w3.org/2000/svg"><path d="M11.83 9 15 12.16V12a3 3 0 0 0-3-3h-.17m-4.3.8 1.55 1.55c-.05.21-.08.42-.08.65a3 3 0 0 0 3 3c.22 0 .44-.03.65-.08l1.55 1.55c-.67.33-1.41.53-2.2.53a5 5 0 0 1-5-5c0-.79.2-1.53.53-2.2M2 4.27l2.28 2.28.45.45C3.08 8.3 1.78 10 1 12c1.73 4.39 6 7.5 11 7.5 1.55 0 3.03-.3 4.38-.84l.43.42L19.73 22 21 20.73 3.27 3M12 7a5 5 0 0 1 5 5c0 .64-.13 1.26-.36 1.82l2.93 2.93c1.5-1.25 2.7-2.89 3.43-4.75-1.73-4.39-6-7.5-11-7.5-1.4 0-2.74.25-4 .7l2.17 2.15C10.74 7.13 11.35 7 12 7Z"/></svg><svg viewBox="0 0 24 24" id="mdi-file" xmlns="http://www.w3.org/2000/svg"><path d="M13 9V3.5L18.5 9M6 2c-1.11 0-2 .89-2 2v16a2 2 0 0 0 2 2h12a2 2 0 0 0 2-2V8l-6-6H6Z"/></svg><svg viewBox="0 0 24 24" id="mdi-folder" xmlns="http://www.w3.org/2000/svg"><path d="M10 4H4c-1.11 0-2 .89-2 2v12a2 2 0 0 0 2 2h16a2 2 0 0 0 2-2V8a2 2 0 0 0-2-2h-8l-2-2Z"/></svg><svg viewBox="0 0 24 24" id="mdi-folder-account" xmlns="http://www.w3.org/2000/svg"><path d="M19 17h-8v-1c0-1.33 2.67-2 4-2s4 .67 4 2m-4-7a2 2 0 0 1 2 2 2 2 0 0 1-2 2 2 2 0 0 1-2-2 2 2 0 0 1 2-2m5-3h-8l-2-2H4c-1.11 0-2 .89-2 2v12a2 2 0 0 0 2 2h16a2 2 0 0 0 2-2V8a2 2 0 0 0-2-2Z"/></svg><svg viewBox="0 0 24 24" id="mdi-folder-lock" xmlns="http://www.w3.org/2000/svg"><path d="M13 20H4a2 2 0 0 1-2-2V6c0-1.11.89-2 2-2h6l2 2h8a2 2 0 0 1 2 2v3.04A4.911 4.911 0 0 0 19 10c-2.6 0-4.8 2.06-4.8 4.5v.24c-.7.6-1.2 1.5-1.2 2.46V20m10-2.7v3.5c0 .6-.6 1.2-1.3 1.2h-5.5c-.6 0-1.2-.6-1.2-1.3v-3.5c0-.6.6-1.2 1.2-1.2v-1.5c0-1.4 1.4-2.5 2.8-2.5s2.8 1.1 2.8 2.5V16c.6 0 1.2.6 1.2 1.3m-2.5-2.8c0-.8-.7-1.3-1.5-1.3s-1.5.5-1.5 1.3V16h3v-1.5Z"/></svg><svg viewBox="0 0 24 24" id="mdi-folder-open" xmlns="http://www.w3.org/2000/svg"><path d="M19 20H4a2 2 0 0 1-2-2V6c0-1.11.89-2 2-2h6l2 2h7a2 2 0 0 1 2 2H4v10l2.14-8h17.07l-2.28 8.5c-.23.87-1.01 1.5-1.93 1.5Z"/></svg><svg viewBox="0 0 24 24" id="mdi-folder-plus" xmlns="http://www.w3.org/2000/svg"><path d="M13 19c0 .34.04.67.09 1H4a2 2 0 0 1-2-2V6c0-1.11.89-2 2-2h6l2 2h8a2 2 0 0 1 2 2v5.81c-.88-.51-1.9-.81-3-.81-3.31 0-6 2.69-6 6m7-1v-3h-2v3h-3v2h3v3h2v-3h3v-2h-3Z"/></svg><svg viewBox="0 0 24 24" id="mdi-harddisk" xmlns="http://www.w3.org/2000/svg"><path d="M6 2h12a2 2 0 0 1 2 2v16a2 2 0 0 1-2 2H6a2 2 0 0 1-2-2V4a2 2 0 0 1 2-2m6 2a6 6 0 0 0-6 6c0 3.31 2.69 6 6.1 6l-.88-2.23a1.01 1.01 0 0 1 .37-1.37l.86-.5a1.01 1.01 0 0 1 1.37.37l1.92 2.42A5.977 5.977 0 0 0 18 10a6 6 0 0 0-6-6m0 5a1 1 0 0 1 1 1 1 1 0 0 1-1 1 1 1 0 0 1-1-1 1 1 0 0 1 1-1m-5 9a1 1 0 0 0-1 1 1 1 0 0 0 1 1 1 1 0 0 0 1-1 1 1 0 0 0-1-1m5.09-4.73 2.49 6.31 2.59-1.5-4.22-5.31-.86.5Z"/></svg><svg viewBox="0 0 24 24" id="mdi-heart" xmlns="http://www.w3.org/2000/svg"><path d="m12 21.35-1.45-1.32C5.4 15.36 2 12.27 2 8.5 2 5.41 4.42 3 7.5 3c1.74 0 3.41.81 4.5 2.08C13.09 3.81 14.76 3 16.5 3 19.58 3 22 5.41 22 8.5c0 3.77-3.4 6.86-8.55 11.53L12 21.35Z"/></svg><svg viewBox="0 0 24 24" id="mdi-help-circle-outline" xmlns="http://www.w3.org/2000/svg"><path d="M11 18h2v-2h-2v2m1-16A10 10 0 0 0 2 12a10 10 0 0 0 10 10 10 10 0 0 0 10-10A10 10 0 0 0 12 2m0 18c-4.41 0-8-3.59-8-8s3.59-8 8-8 8 3.59 8 8-3.59 8-8 8m0-14a4 4 0 0 0-4 4h2a2 2 0 0 1 2-2 2 2 0 0 1 2 2c0 2-3 1.75-3 5h2c0-2.25 3-2.5 3-5a4 4 0 0 0-4-4Z"/></svg><svg viewBox="0 0 24 24" id="mdi-home" xmlns="http://www.w3.org/2000/svg"><path d="M10 20v-6h4v6h5v-8h3L12 3 2 12h3v8h5Z"/></svg><svg viewBox="0 0 24 24" id="mdi-hub" xmlns="http://www.w3.org/2000/svg"><path d="M8.4 18.2c.4.5.6 1.1.6 1.8 0 1.7-1.3 3-3 3s-3-1.3-3-3 1.3-3 3-3c.4 0 .8.1 1.2.3l1.4-1.8c-.9-1-1.3-2.4-1.1-3.7l-2-.7c-.5.8-1.4 1.4-2.5 1.4-1.7 0-3-1.3-3-3s1.3-3 3-3 3 1.3 3 3v.2l2 .7c.6-1.2 1.8-2.1 3.2-2.3V5.9C10 5.6 9 4.4 9 3c0-1.7 1.3-3 3-3s3 1.3 3 3c0 1.4-1 2.6-2.2 2.9v2.2c1.4.2 2.6 1.1 3.2 2.3l2-.7v-.2c0-1.7 1.3-3 3-3s3 1.3 3 3-1.3 3-3 3c-1.1 0-2-.6-2.5-1.4l-2 .7c.2 1.3-.2 2.7-1.1 3.7l1.4 1.8c.4-.2.8-.3 1.2-.3 1.7 0 3 1.3 3 3s-1.3 3-3 3-3-1.3-3-3c0-.7.2-1.3.6-1.8l-1.4-1.8c-1.4.8-3 .8-4.4 0l-1.4 1.8Z"/></svg><svg viewBox="0 0 24 24" id="mdi-information" xmlns="http://www.w3.org/2000/svg"><path d="M13 9h-2V7h2m0 10h-2v-6h2m-1-9A10 10 0 0 0 2 12a10 10 0 0 0 10 10 10 10 0 0 0 10-10A10 10 0 0 0 12 2Z"/></svg><svg viewBox="0 0 24 24" id="mdi-key" xmlns="http://www.w3.org/2000/svg"><path d="M7 14c-1.1 0-2-.9-2-2s.9-2 2-2 2 .9 2 2-.9 2-2 2m5.6-4c-.8-2.3-3-4-5.6-4-3.3 0-6 2.7-6 6s2.7 6 6 6c2.6 0 4.8-1.7 5.6-4H16v4h4v-4h3v-4H12.6Z"/></svg><svg viewBox="0 0 24 24" id="mdi-laptop" xmlns="http://www.w3.org/2000/svg"><path d="M4 6h16v10H4m16 2a2 2 0 0 0 2-2V6a2 2 0 0 0-2-2H4c-1.11 0-2 .89-2 2v10a2 2 0 0 0 2 2H0v2h24v-2h-4Z"/></svg><svg viewBox="0 0 24 24" id="mdi-loading" xmlns="http://www.w3.org/2000/svg"><path d="M12 4V2A10 10 0 0 0 2 12h2a8 8 0 0 1 8-8Z"/></svg><svg viewBox="0 0 24 24" id="mdi-lock" xmlns="http://www.w3.org/2000/svg"><path d="M12 17a2 2 0 0 0 2-2 2 2 0 0 0-2-2 2 2 0 0 0-2 2 2 2 0 0 0 2 2m6-9a2 2 0 0 1 2 2v10a2 2 0 0 1-2 2H6a2 2 0 0 1-2-2V10a2 2 0 0 1 2-2h1V6a5 5 0 0 1 5-5 5 5 0 0 1 5 5v2h1m-6-5a3 3 0 0 0-3 3v2h6V6a3 3 0 0 0-3-3Z"/></svg><svg viewBox="0 0 24 24" id="mdi-logout" xmlns="http://www.w3.org/2000/svg"><path d="m17 7-1.41 1.41L18.17 11H8v2h10.17l-2.58 2.58L17 17l5-5M4 5h8V3H4c-1.1 0-2 .9-2 2v14c0 1.1.9 2 2 2h8v-2H4V5Z"/></svg><svg viewBox="0 0 24 24" id="mdi-magnify" xmlns="http://www.w3.org/2000/svg"><path d="M9.5 3A6.5 6.5 0 0 1 16 9.5c0 1.61-.59 3.09-1.56 4.23l.27.27h.79l5 5-1.5 1.5-5-5v-.79l-.27-.27A6.516 6.516 0 0 1 9.5 16 6.5 6.5 0 0 1 3 9.5 6.5 6.5 0 0 1 9.5 3m0 2C7 5 5 7 5 9.5S7 14 9.5 14 14 12 14 9.5 12 5 9.5 5Z"/></svg><svg viewBox="0 0 24 24" id="mdi-memory" xmlns="http://www.w3.org/2000/svg"><path d="M17 17H7V7h10m4 4V9h-2V7a2 2 0 0 0-2-2h-2V3h-2v2h-2V3H9v2H7c-1.11 0-2 .89-2 2v2H3v2h2v2H3v2h2v2a2 2 0 0 0 2 2h2v2h2v-2h2v2h2v-2h2a2 2 0 0 0 2-2v-2h2v-2h-2v-2m-6 2h-2v-2h2m2-2H9v6h6V9Z"/></svg><svg viewBox="0 0 24 24" id="mdi-menu" xmlns="http://www.w3.org/2000/svg"><path d="M3 6h18v2H3V6m0 5h18v2H3v-2m0 5h18v2H3v-2Z"/></svg><svg viewBox="0 0 24 24" id="mdi-minus" xmlns="http://www.w3.org/2000/svg"><path d="M19 13H5v-2h14v2Z"/></svg><svg viewBox="0 0 24 24" id="mdi-nas" xmlns="http://www.w3.org/2000/svg"><path d="M4 5c-1.11 0-2 .89-2 2v10c0 1.11.89 2 2 2h16c1.11 0 2-.89 2-2V7c0-1.11-.89-2-2-2H4m.5 2a1 1 0 0 1 1 1 1 1 0 0 1-1 1 1 1 0 0 1-1-1 1 1 0 0 1 1-1M7 7h13v10H7V7m1 1v8h3V8H8m4 0v8h3V8h-3m4 0v8h3V8h-3M9 9h1v1H9V9m4 0h1v1h-1V9m4 0h1v1h-1V9Z"/></svg><svg viewBox="0 0 24 24" id="mdi-network" xmlns="http://www.w3.org/2000/svg"><path d="M17 3a2 2 0 0 1 2 2v10a2 2 0 0 1-2 2h-4v2h1a1 1 0 0 1 1 1h7v2h-7a1 1 0 0 1-1 1h-4a1 1 0 0 1-1-1H2v-2h7a1 1 0 0 1 1-1h1v-2H7a2 2 0 0 1-2-2V5a2 2 0 0 1 2-2h10Z"/></svg><svg viewBox="0 0 24 24" id="mdi-open-in-new" xmlns="http://www.w3.org/2000/svg"><path d="M14 3v2h3.59l-9.83 9.83 1.41 1.41L19 6.41V10h2V3m-2 16H5V5h7V3H5a2 2 0 0 0-2 2v14a2 2 0 0 0 2 2h14a2 2 0 0 0 2-2v-7h-2v7Z"/></svg><svg viewBox="0 0 24 24" id="mdi-package-variant-closed" xmlns="http://www.w3.org/2000/svg"><path d="M21 16.5c0 .38-.21.71-.53.88l-7.9 4.44c-.16.12-.36.18-.57.18-.21 0-.41-.06-.57-.18l-7.9-4.44A.991.991 0 0 1 3 16.5v-9c0-.38.21-.71.53-.88l7.9-4.44c.16-.12.36-.18.57-.18.21 0 .41.06.57.18l7.9 4.44c.32.17.53.5.53.88v9M12 4.15l-1.89 1.07L16 8.61l1.96-1.11L12 4.15M6.04 7.5 12 10.85l1.96-1.1-5.88-3.4L6.04 7.5M5 15.91l6 3.38v-6.71L5 9.21v6.7m14 0v-6.7l-6 3.37v6.71l6-3.38Z"/></svg><svg viewBox="0 0 24 24" id="mdi-pencil" xmlns="http://www.w3.org/2000/svg"><path d="M20.71 7.04c.39-.39.39-1.04 0-1.41l-2.34-2.34c-.37-.39-1.02-.39-1.41 0l-1.84 1.83 3.75 3.75M3 17.25V21h3.75L17.81 9.93l-3.75-3.75L3 17.25Z"/></svg><svg viewBox="0 0 24 24" id="mdi-plus" xmlns="http://www.w3.org/2000/svg"><path d="M19 13h-6v6h-2v-6H5v-2h6V5h2v6h6v2Z"/></svg><svg viewBox="0 0 24 24" id="mdi-power" xmlns="http://www.w3.org/2000/svg"><path d="m16.56 5.44-1.45 1.45A5.969 5.969 0 0 1 18 12a6 6 0 0 1-6 6 6 6 0 0 1-6-6c0-2.17 1.16-4.06 2.88-5.12L7.44 5.44A7.961 7.961 0 0 0 4 12a8 8 0 0 0 8 8 8 8 0 0 0 8-8c0-2.72-1.36-5.12-3.44-6.56M13 3h-2v10h2"/></svg><svg viewBox="0 0 24 24" id="mdi-refresh" xmlns="http://www.w3.org/2000/svg"><path d="M17.65 6.35A7.958 7.958 0 0 0 12 4a8 8 0 0 0-8 8 8 8 0 0 0 8 8c3.73 0 6.84-2.55 7.73-6h-2.08A5.99 5.99 0 0 1 12 18a6 6 0 0 1-6-6 6 6 0 0 1 6-6c1.66 0 3.14.69 4.22 1.78L13 11h7V4l-2.35 2.35Z"/></svg><svg viewBox="0 0 24 24" id="mdi-security" xmlns="http://www.w3.org/2000/svg"><path d="M12 12h7c-.53 4.11-3.28 7.78-7 8.92V12H5V6.3l7-3.11M12 1 3 5v6c0 5.55 3.84 10.73 9 12 5.16-1.27 9-6.45 9-12V5l-9-4Z"/></svg><svg viewBox="0 0 24 24" id="mdi-server" xmlns="http://www.w3.org/2000/svg"><path d="M4 1h16a1 1 0 0 1 1 1v4a1 1 0 0 1-1 1H4a1 1 0 0 1-1-1V2a1 1 0 0 1 1-1m0 8h16a1 1 0 0 1 1 1v4a1 1 0 0 1-1 1H4a1 1 0 0 1-1-1v-4a1 1 0 0 1 1-1m0 8h16a1 1 0 0 1 1 1v4a1 1 0 0 1-1 1H4a1 1 0 0 1-1-1v-4a1 1 0 0 1 1-1M9 5h1V3H9v2m0 8h1v-2H9v2m0 8h1v-2H9v2M5 3v2h2V3H5m0 8v2h2v-2H5m0 8v2h2v-2H5Z"/></svg><svg viewBox="0 0 24 24" id="mdi-share-variant" xmlns="http://www.w3.org/2000/svg"><path d="M18 16.08c-.76 0-1.44.3-1.96.77L8.91 12.7c.05-.23.09-.46.09-.7 0-.24-.04-.47-.09-.7l7.05-4.11c.54.5 1.25.81 2.04.81a3 3 0 0 0 3-3 3 3 0 0 0-3-3 3 3 0 0 0-3 3c0 .24.04.47.09.7L8.04 9.81C7.5 9.31 6.79 9 6 9a3 3 0 0 0-3 3 3 3 0 0 0 3 3c.79 0 1.5-.31 2.04-.81l7.12 4.15c-.05.21-.08.43-.08.66 0 1.61 1.31 2.91 2.92 2.91 1.61 0 2.92-1.3 2.92-2.91A2.92 2.92 0 0 0 18 16.08Z"/></svg><svg viewBox="0 0 24 24" id="mdi-star" xmlns="http://www.w3.org/2000/svg"><path d="M12 17.27 18.18 21l-1.64-7.03L22 9.24l-7.19-.62L12 2 9.19 8.62 2 9.24l5.45 4.73L5.82 21 12 17.27Z"/></svg><svg viewBox="0 0 24 24" id="mdi-star-outline" xmlns="http://www.w3.org/2000/svg"><path d="m12 15.39-3.76 2.27.99-4.28-3.32-2.88 4.38-.37L12 6.09l1.71 4.04 4.38.37-3.32 2.88.99 4.28M22 9.24l-7.19-.61L12 2 9.19 8.63 2 9.24l5.45 4.73L5.82 21 12 17.27 18.18 21l-1.64-7.03L22 9.24Z"/></svg><svg viewBox="0 0 24 24" id="mdi-text-search-variant" xmlns="http://www.w3.org/2000/svg"><path d="M9 6v2H2V6h7m0 5v2H2v-2h7m9 5v2H2v-2h16m1.31-4.5c.44-.68.69-1.5.69-2.39 0-2.5-2-4.5-4.5-4.5s-4.5 2-4.5 4.5 2 4.5 4.5 4.5c.87 0 1.69-.25 2.38-.68L21 16l1.39-1.39-3.08-3.11m-3.81.11c-1.38 0-2.5-1.11-2.5-2.5s1.12-2.5 2.5-2.5a2.5 2.5 0 0 1 0 5Z"/></svg><svg viewBox="0 0 24 24" id="mdi-tune" xmlns="http://www.w3.org/2000/svg"><path d="M3 17v2h6v-2H3M3 5v2h10V5H3m10 16v-2h8v-2h-8v-2h-2v6h2M7 9v2H3v2h4v2h2V9H7m14 4v-2H11v2h10m-6-4h2V7h4V5h-4V3h-2v6Z"/></svg><svg viewBox="0 0 24 24" id="mdi-update" xmlns="http://www.w3.org/2000/svg"><path d="M21 10.12h-6.78l2.74-2.82c-2.73-2.7-7.15-2.8-9.88-.1a6.887 6.887 0 0 0 0 9.8c2.73 2.7 7.15 2.7 9.88 0 1.36-1.35 2.04-2.92 2.04-4.9h2c0 1.98-.88 4.55-2.64 6.29-3.51 3.48-9.21 3.48-12.72 0-3.5-3.47-3.53-9.11-.02-12.58a8.987 8.987 0 0 1 12.65 0L21 3v7.12M12.5 8v4.25l3.5 2.08-.72 1.21L11 13V8h1.5Z"/></svg><svg viewBox="0 0 24 24" id="mdi-view-dashboard" xmlns="http://www.w3.org/2000/svg"><path d="M13 3v6h8V3m-8 18h8V11h-8M3 21h8v-6H3m0-2h8V3H3v10Z"/></svg><svg viewBox="0 -960 960 960" fill="#D9D9D9" id="tn-cloud-off" xmlns="http://www.w3.org/2000/svg"><path d="M792-56 686-160H260q-92 0-156-64T40-380q0-77 47.5-137T210-594q3-8 6-15.5t6-16.5L56-792l56-56 736 736-56 56ZM260-240h346L284-562q-2 11-3 21t-1 21h-20q-58 0-99 41t-41 99q0 58 41 99t99 41Zm185-161Zm419 191-58-56q17-14 25.5-32.5T840-340q0-42-29-71t-71-29h-60v-80q0-83-58.5-141.5T480-720q-27 0-52 6.5T380-693l-58-58q35-24 74.5-36.5T480-800q117 0 198.5 81.5T760-520q69 8 114.5 59.5T920-340q0 39-15 72.5T864-210ZM593-479Z"/></svg><svg fill="none" viewBox="0 0 24 24" id="tn-dataset" xmlns="http://www.w3.org/2000/svg"><path d="M6 8c-.28 0-.52-.1-.71-.29A.973.973 0 0 1 5 7c0-.28.1-.52.29-.71C5.48 6.1 5.72 6 6 6h12c.28 0 .52.1.71.29.19.19.29.43.29.71 0 .28-.1.52-.29.71-.19.19-.43.29-.71.29H6Zm2-3c-.28 0-.52-.1-.71-.29A.973.973 0 0 1 7 4c0-.28.1-.52.29-.71C7.48 3.1 7.72 3 8 3h8c.28 0 .52.1.71.29.19.19.29.43.29.71 0 .28-.1.52-.29.71-.19.19-.43.29-.71.29H8ZM3 9l2 12h14l2-12H3Zm11.71 6.1c-.19.19-.43.29-.71.29h-4c-.28 0-.52-.1-.71-.29a.973.973 0 0 1-.29-.71c0-.28.1-.52.29-.71.19-.19.43-.29.71-.29h4c.28 0 .52.1.71.29.19.19.29.43.29.71 0 .28-.1.52-.29.71Z" fill="currentColor"/></svg><svg viewBox="0 0 24 24" id="tn-dataset-root" xmlns="http://www.w3.org/2000/svg"><path d="M3 3h6v4H3V3m12 7h6v4h-6v-4m0 7h6v4h-6v-4m-2-4H7v5h6v2H5V9h2v2h6v2Z"/></svg><svg viewBox="0 0 17.3 9.9" style="enable-background:new 0 0 17.3 9.9" xml:space="preserve" id="tn-enclosure" xmlns="http://www.w3.org/2000/svg"><path d="M17.2 9.9h-2s-.1-.1-.1-.2V.2c0-.1 0-.2.1-.2h2s.1.1.1.2v9.6s0 .1-.1.1zM2.1 9.9h-2c-.1 0-.1-.1-.1-.2V.2C0 .1 0 0 .1 0h2s.1.1.1.2v9.6l-.1.1zM8.2 2.8H2.5V0h5.9v2.7c0 .1-.1.1-.2.1zM14.5 2.8H8.8V0h5.9v2.7c0 .1-.1.1-.2.1zM8.2 6.3H2.5V3.5h5.9v2.7c0 .1-.1.1-.2.1zM14.5 6.3H8.8V3.5h5.9v2.7c0 .1-.1.1-.2.1zM8.2 9.8H2.5V7h5.9v2.7c0 .1-.1.1-.2.1zM14.5 9.8H8.8V7h5.9v2.7c0 .1-.1.1-.2.1z"/></svg><svg viewBox="0 0 32 32" xml:space="preserve" style="fill-rule:evenodd;clip-rule:evenodd;stroke-linejoin:round;stroke-miterlimit:2" id="tn-ha-disabled" xmlns="http://www.w3.org/2000/svg"><path d="M17.372 29.333H4a2.68 2.68 0 0 1-2.667-2.666V5.333A2.68 2.68 0 0 1 4 2.667h24a2.68 2.68 0 0 1 2.667 2.666v12.328H28V5.333H17.333v21.334h.039v2.666ZM20 8h5.333v2H20V8Zm0 4h5.333v2H20v-2ZM4 5.333v21.334h10.667V5.333H4Zm2.667 12h2.666v5.334H6.667v-5.334Zm0-9.333H12v2H6.667V8Zm0 4H12v2H6.667v-2Z"/><path d="m20.41 19 2.13 2.12-1.42 1.42L19 20.41l-2.12 2.13-1.41-1.42L17.59 19l-2.12-2.12 1.41-1.41L19 17.59l2.12-2.12 1.42 1.41L20.41 19" style="fill-rule:nonzero" transform="translate(-8.292 -8.336) scale(1.78654)"/></svg><svg viewBox="0 0 24 24" id="tn-ha-enabled" xmlns="http://www.w3.org/2000/svg"><path d="M3 2h18a2 2 0 0 1 2 2v16a2 2 0 0 1-2 2H3a2 2 0 0 1-2-2V4a2 2 0 0 1 2-2m10 2v16h8V4h-8M3 4v16h8V4H3m2 9h2v4H5v-4m0-7h4v1.5H5V6m0 3h4v1.5H5V9m10 4h2v4h-2v-4m0-7h4v1.5h-4V6m0 3h4v1.5h-4V9Z"/></svg><svg viewBox="0 0 32 32" xml:space="preserve" style="fill-rule:evenodd;clip-rule:evenodd;stroke-linejoin:round;stroke-miterlimit:2" id="tn-ha-reconnecting" xmlns="http://www.w3.org/2000/svg"><path d="M17.372 29.333H4a2.68 2.68 0 0 1-2.667-2.666V5.333A2.68 2.68 0 0 1 4 2.667h24a2.68 2.68 0 0 1 2.667 2.666v12.328H28V5.333H17.333v21.334h.039v2.666ZM20 8h5.333v2H20V8Zm0 4h5.333v2H20v-2ZM4 5.333v21.334h10.667V5.333H4Zm2.667 12h2.666v5.334H6.667v-5.334Zm0-9.333H12v2H6.667V8Zm0 4H12v2H6.667v-2Z"/><path d="m19 12-2.25 2.25L19 16.5V15a2.5 2.5 0 0 1 2.5 2.5c0 .4-.09.78-.26 1.12l1.09 1.09c.42-.63.67-1.39.67-2.21 0-2.21-1.79-4-4-4V12m-3.33 3.29c-.42.63-.67 1.39-.67 2.21 0 2.21 1.79 4 4 4V23l2.25-2.25L19 18.5V20a2.5 2.5 0 0 1-2.5-2.5c0-.4.09-.78.26-1.12l-1.09-1.09Z" style="fill-rule:nonzero" transform="rotate(45 29.103 22.275) scale(1.55361)"/></svg><svg viewBox="126.7 15 49 59" id="tn-hdd"><path d="M132.044 15.622h37.985a4.546 4.546 0 0 1 4.546 4.546V68.68a4.546 4.546 0 0 1-4.546 4.546h-37.985a4.546 4.546 0 0 1-4.546-4.546V20.168a4.546 4.546 0 0 1 4.546-4.546Zm19.178 6.82c-9.516 0-17.23 7.714-17.23 17.23s7.714 17.23 17.23 17.23c.258 0 .516-.006.771-.017l-3.232-6.883 6.094-4.375 6.139 8.238c4.505-3.108 7.458-8.306 7.458-14.193 0-9.516-7.714-17.23-17.23-17.23Zm-16.008 39.049a3.491 3.491 0 1 0 0 6.982 3.491 3.491 0 0 0 0-6.982Zm19.142-21.819a3.134 3.134 0 1 1-6.268 0 3.134 3.134 0 0 1 6.268 0Zm4.758 27.671 6.597-3.803-11.286-15.143-3.146 2.259 7.835 16.687Z" style="fill:#cdcdcd"/></svg><svg viewBox="115 15.3 60 70" id="tn-hdd-mirror"><path d="M132.044 15.622h37.985a4.546 4.546 0 0 1 4.546 4.546V68.68a4.546 4.546 0 0 1-4.546 4.546h-37.985a4.546 4.546 0 0 1-4.546-4.546V20.168a4.546 4.546 0 0 1 4.546-4.546Zm19.178 6.82c-9.516 0-17.23 7.714-17.23 17.23s7.714 17.23 17.23 17.23c.258 0 .516-.006.771-.017l-3.232-6.883 6.094-4.375 6.139 8.238c4.505-3.108 7.458-8.306 7.458-14.193 0-9.516-7.714-17.23-17.23-17.23Zm-16.008 39.049a3.491 3.491 0 1 0 0 6.982 3.491 3.491 0 0 0 0-6.982Zm19.142-21.819a3.134 3.134 0 1 1-6.268 0 3.134 3.134 0 0 1 6.268 0Zm4.758 27.671 6.597-3.803-11.286-15.143-3.146 2.259Zm-40.048-37.714h3.558v49.512h36.317v2.503a3.38 3.38 0 0 1-3.379 3.379h-36.496a3.38 3.38 0 0 1-3.379-3.379V33.008a3.38 3.38 0 0 1 3.379-3.379Z" style="fill:#cdcdcd"/></svg><svg viewBox="0 0 23.999 24" id="tn-iscsi-share" xmlns="http://www.w3.org/2000/svg"><path d="M14.4 24H9.6a1.2 1.2 0 0 1-1.2-1.2H0v-2.4h8.4a1.2 1.2 0 0 1 1.2-1.2h1.2v-2.4H3.6a2.4 2.4 0 0 1-2.4-2.4v-12A2.4 2.4 0 0 1 3.6 0h7.2l2.4 2.4h7.2a2.4 2.4 0 0 1 2.4 2.4v9.6a2.4 2.4 0 0 1-2.4 2.4h-7.2v2.4h1.2a1.2 1.2 0 0 1 1.2 1.2H24v2.4h-8.4a1.2 1.2 0 0 1-1.2 1.2Zm.463-12.445-.1.8.324.063a8.921 8.921 0 0 0 1.692.18 2.228 2.228 0 0 0 1.508-.481 1.833 1.833 0 0 0 .553-1.454 1.483 1.483 0 0 0-.378-1.121 3.2 3.2 0 0 0-1.3-.612 5.2 5.2 0 0 1-1.193-.432.652.652 0 0 1-.27-.589c0-.531.385-.8 1.143-.8.345 0 .928.047 1.782.144l.081-.81-.315-.054a9.9 9.9 0 0 0-1.638-.162 2.392 2.392 0 0 0-1.508.427 1.518 1.518 0 0 0-.544 1.264 1.571 1.571 0 0 0 .432 1.224 3.088 3.088 0 0 0 1.314.607 3.853 3.853 0 0 1 1.134.405.664.664 0 0 1 .252.572c0 .657-.375.99-1.116.99a15.275 15.275 0 0 1-1.854-.162Zm-2.655-5.319a2.056 2.056 0 0 0-1.827.724 4.573 4.573 0 0 0-.486 2.435 4.731 4.731 0 0 0 .482 2.457 2.025 2.025 0 0 0 1.831.747 8.441 8.441 0 0 0 1.755-.2l-.027-.828a10.21 10.21 0 0 1-1.638.135 1.155 1.155 0 0 1-1.089-.481 4.013 4.013 0 0 1-.279-1.809 3.906 3.906 0 0 1 .288-1.809 1.178 1.178 0 0 1 1.1-.482 9.358 9.358 0 0 1 1.62.144l.036-.81a7.881 7.881 0 0 0-1.767-.223ZM5.08 11.555l-.1.8.324.063a8.921 8.921 0 0 0 1.692.18 2.229 2.229 0 0 0 1.508-.481 1.833 1.833 0 0 0 .553-1.454 1.483 1.483 0 0 0-.378-1.121 3.2 3.2 0 0 0-1.3-.612 5.2 5.2 0 0 1-1.193-.432.652.652 0 0 1-.27-.589c0-.531.385-.8 1.143-.8.347 0 .929.047 1.782.144l.081-.81-.315-.054a9.9 9.9 0 0 0-1.638-.162 2.391 2.391 0 0 0-1.507.427 1.516 1.516 0 0 0-.545 1.264 1.571 1.571 0 0 0 .432 1.224 3.088 3.088 0 0 0 1.314.607 3.841 3.841 0 0 1 1.134.405.664.664 0 0 1 .252.572c0 .657-.375.99-1.116.99a15.275 15.275 0 0 1-1.854-.162Zm14.841-5.22V12.5h1V6.335ZM2.965 8v4.5h.981V8Zm0-1.8v1.035h.981V6.2Z"/></svg><svg viewBox="0 0 24 17.59" id="tn-layout-full" xmlns="http://www.w3.org/2000/svg"><g stroke="#000" data-name="Layout 0"><path stroke="none" d="M0 0h24v17.59H0z"/><path fill="none" d="M.5.5h23v16.59H.5z"/></g></svg><svg viewBox="0 0 23.004 16.59" id="tn-layout-half-and-quarters" xmlns="http://www.w3.org/2000/svg"><g data-name="Layout 2"><path data-name="Rectangle 275" d="M0 0h23v7.43H0zM0 8.8h10.82v7.79H0zM12.184 8.8h10.82v7.79h-10.82z"/></g></svg><svg viewBox="0 0 23 16.593" id="tn-layout-halves" xmlns="http://www.w3.org/2000/svg"><g data-name="Layout 4"><path data-name="Rectangle 275" d="M23 16.593H0v-7.43h23zM23 7.43H0V0h23z"/></g></svg><svg viewBox="0 0 23.004 16.59" id="tn-layout-quarters" xmlns="http://www.w3.org/2000/svg"><g data-name="Layout 1"><path data-name="Rectangle 275" d="M0 8.8h10.82v7.79H0zM12.18 8.8H23v7.79H12.18zM0 0h10.82v7.43H0zM12.184 0h10.82v7.43h-10.82z"/></g></svg><svg viewBox="0 0 23.004 16.58" id="tn-layout-quarters-and-half" xmlns="http://www.w3.org/2000/svg"><g data-name="Layout 3"><path data-name="Rectangle 275" d="M23 16.58H0V9.15h23zM23.003 7.79h-10.82V0h10.82zM10.82 7.79H0V0h10.82z"/></g></svg><svg viewBox="0 0 24 24" id="tn-network-upload-download" xmlns="http://www.w3.org/2000/svg"><path d="m8.123.426 5.147 5.153-3.861-.031v9.015H6.824V5.548H2.98L8.123.426zM14.537 9.409l2.579-.016v9.015h3.877l-5.154 5.138-5.153-5.154h3.845l.006-8.983z" fill="#124b64"/></svg><svg viewBox="0 0 24 24" id="tn-network-upload-download-both" xmlns="http://www.w3.org/2000/svg"><path d="m8.123.426 5.147 5.153-3.861-.031v9.015H6.824V5.548H2.98L8.123.426zM14.537 9.409l2.579-.016v9.015h3.877l-5.154 5.138-5.153-5.154h3.845l.006-8.983z" fill="#33a9db"/></svg><svg viewBox="0 0 24 24" id="tn-network-upload-download-disabled" xmlns="http://www.w3.org/2000/svg"><path d="M14.767 17.85.457 3.54l1.548-1.537 20.03 20.042L20.5 23.58l-5.732-5.732zM8.11.404l-2.3 2.358 3.604 3.604v-.842l3.772.017L8.11.404z"/><path d="m6.83 9.902 2.584 2.61v2.038H6.82l.01-4.648zM14.538 9.448l2.585-.02v4.633l-2.598-2.578.013-2.035zM18.19 21.26l-2.367 2.332-5.166-5.185h3.857v-.825l3.675 3.677z"/></svg><svg viewBox="0 0 24 24" id="tn-network-upload-download-down" xmlns="http://www.w3.org/2000/svg"><path d="m8.123.426 5.147 5.153-3.861-.031v9.015H6.824V5.548H2.98L8.123.426z" fill="#124b64"/><path d="m14.537 9.409 2.579-.016v9.015h3.877l-5.154 5.138-5.153-5.154h3.845l.006-8.983z" fill="#33a9db"/></svg><svg viewBox="0 0 24 24" id="tn-network-upload-download-up" xmlns="http://www.w3.org/2000/svg"><path d="m8.123.426 5.147 5.153-3.861-.031v9.015H6.824V5.548H2.98L8.123.426z" fill="#33a9db"/><path d="m14.537 9.409 2.579-.016v9.015h3.877l-5.154 5.138-5.153-5.154h3.845l.006-8.983z" fill="#124b64"/></svg><svg viewBox="0 0 23.999 24" id="tn-nfs-share" xmlns="http://www.w3.org/2000/svg"><path d="M14.4 24H9.6a1.2 1.2 0 0 1-1.2-1.2H0v-2.4h8.4a1.2 1.2 0 0 1 1.2-1.2h1.2v-2.4H3.6a2.4 2.4 0 0 1-2.4-2.4v-12A2.4 2.4 0 0 1 3.6 0h7.2l2.4 2.4h7.2a2.4 2.4 0 0 1 2.4 2.4v9.6a2.4 2.4 0 0 1-2.4 2.4h-7.2v2.4h1.2a1.2 1.2 0 0 1 1.2 1.2H24v2.4h-8.4a1.2 1.2 0 0 1-1.2 1.2Zm1.147-12.445-.1.8.324.063a8.913 8.913 0 0 0 1.692.18 2.229 2.229 0 0 0 1.508-.481 1.833 1.833 0 0 0 .553-1.454 1.482 1.482 0 0 0-.378-1.121 3.2 3.2 0 0 0-1.3-.612 5.2 5.2 0 0 1-1.193-.432.652.652 0 0 1-.27-.589c0-.531.385-.8 1.143-.8.346 0 .929.047 1.782.144l.081-.81-.315-.054a9.9 9.9 0 0 0-1.638-.162 2.391 2.391 0 0 0-1.507.427 1.516 1.516 0 0 0-.545 1.264 1.571 1.571 0 0 0 .432 1.224 3.091 3.091 0 0 0 1.314.607 3.859 3.859 0 0 1 1.134.405.666.666 0 0 1 .252.572c0 .657-.375.99-1.116.99a15.275 15.275 0 0 1-1.854-.162Zm-4.554-5.22V12.5h1v-2.34h2.349v-.873h-2.349V7.208h2.826v-.873Zm-6.174 0V12.5h1V7.209h.126l1.917 5.292h1.71V6.336h-1v5.283h-.135L6.565 6.336Z"/></svg><svg viewBox="0 0 24 24" xml:space="preserve" style="fill-rule:evenodd;clip-rule:evenodd;stroke-linejoin:round;stroke-miterlimit:2" id="tn-nvme-share" xmlns="http://www.w3.org/2000/svg"><path d="M14.4 24H9.6c-.66 0-1.2-.54-1.2-1.2H0v-2.4h8.4c0-.66.54-1.2 1.2-1.2h1.2v-2.4H3.6c-1.32 0-2.4-1.08-2.4-2.4v-12C1.2 1.08 2.28 0 3.6 0h7.2l2.4 2.4h7.2c1.32 0 2.4 1.08 2.4 2.4v9.6c0 1.32-1.08 2.4-2.4 2.4h-7.2v2.4h1.2c.66 0 1.2.54 1.2 1.2H24v2.4h-8.4c0 .66-.54 1.2-1.2 1.2Zm6.74-12.26c-.36.03-.71.05-1.04.05-.34 0-.57-.09-.7-.25-.12-.16-.19-.41-.19-.76h2.22l.05-.65c0-1.27-.5-1.91-1.51-1.91-1.03 0-1.55.74-1.55 2.22 0 .75.12 1.29.35 1.63.23.34.61.51 1.14.51.42 0 .9-.07 1.45-.19l-.02-.68-.2.03Zm-.43-1.66H19.2c.01-.39.07-.68.19-.85.12-.17.32-.26.58-.26.27 0 .46.09.57.25.12.16.17.45.17.86Zm-8.14 2.41h.8V7.8h.11l1.16 4.45h.83l1.15-4.45h.11v4.69h.8V6.77h-1.38l-1.1 4.47-1.09-4.47h-1.39v5.72Zm-9.3 0h.8V7.58h.1l1.52 4.91h1.36V6.77h-.79v4.9h-.11l-1.49-4.9H3.27v5.72Zm7.69-5.72-.97 4.9h-.36l-.97-4.9h-.83l1.2 5.72h1.56l1.21-5.72h-.84Z"/></svg><svg viewBox="0 0 24 24" xml:space="preserve" style="fill-rule:evenodd;clip-rule:evenodd;stroke-linejoin:round;stroke-miterlimit:2" id="tn-replication" xmlns="http://www.w3.org/2000/svg"><path d="M61.03 19.16v13.01L33.19 48.25V35.24l27.84-16.08ZM27.86 35.24v13L0 32.17v-13l12.59 7.26s.03.02.05.03l15.23 8.79-.01-.01Zm13.93-11.11-11.26 6.51-11.28-6.51 11.28-6.51 11.26 6.51Zm16.59-9.58-11.27 6.51-13.92-8.05V0l25.19 14.55ZM27.86 0v13.01l-13.93 8.04-11.28-6.5L27.86 0Z" style="fill-rule:nonzero" transform="matrix(.18611 0 0 .18611 1.277 11.062)"/><path d="M61.03 19.16v13.01L33.19 48.25V35.24l27.84-16.08ZM27.86 35.24v13L0 32.17v-13l12.59 7.26s.03.02.05.03l15.23 8.79-.01-.01Zm13.93-11.11-11.26 6.51-11.28-6.51 11.28-6.51 11.26 6.51Zm16.59-9.58-11.27 6.51-13.92-8.05V0l25.19 14.55ZM27.86 0v13.01l-13.93 8.04-11.28-6.5L27.86 0Z" style="fill-rule:nonzero" transform="matrix(.18611 0 0 .18611 11.791 4.31)"/></svg><svg viewBox="0 0 23.999 24" id="tn-smb-share" xmlns="http://www.w3.org/2000/svg"><path d="M14.4 24H9.6a1.2 1.2 0 0 1-1.2-1.2H0v-2.4h8.4a1.2 1.2 0 0 1 1.2-1.2h1.2v-2.4H3.6a2.4 2.4 0 0 1-2.4-2.4v-12A2.4 2.4 0 0 1 3.6 0h7.2l2.4 2.4h7.2a2.4 2.4 0 0 1 2.4 2.4v9.6a2.4 2.4 0 0 1-2.4 2.4h-7.2v2.4h1.2a1.2 1.2 0 0 1 1.2 1.2H24v2.4h-8.4a1.2 1.2 0 0 1-1.2 1.2ZM3.518 11.555l-.1.8.324.063a8.921 8.921 0 0 0 1.692.18 2.229 2.229 0 0 0 1.508-.481 1.833 1.833 0 0 0 .553-1.454 1.483 1.483 0 0 0-.378-1.121 3.2 3.2 0 0 0-1.3-.612 5.2 5.2 0 0 1-1.193-.432.652.652 0 0 1-.27-.589c0-.531.385-.8 1.143-.8.346 0 .928.047 1.782.144l.081-.81-.315-.054a9.9 9.9 0 0 0-1.638-.162 2.391 2.391 0 0 0-1.508.427 1.518 1.518 0 0 0-.544 1.264 1.571 1.571 0 0 0 .432 1.224 3.094 3.094 0 0 0 1.314.607 3.841 3.841 0 0 1 1.134.405.664.664 0 0 1 .252.572c0 .657-.375.99-1.116.99a15.275 15.275 0 0 1-1.854-.162Zm12.708-5.22V12.5h2.412c1.3 0 1.962-.587 1.962-1.746a1.383 1.383 0 0 0-.882-1.431 1.354 1.354 0 0 0 .553-.522 1.79 1.79 0 0 0 .176-.864 1.489 1.489 0 0 0-.468-1.219 2.211 2.211 0 0 0-1.413-.383ZM13.67 7.442h.135V12.5h1.008V6.335h-1.746L11.69 11.15l-1.377-4.815H8.576V12.5h1V7.442h.135l1.458 4.806h1.044l1.458-4.805Zm4.914 4.194h-1.359V9.809h1.341a1.227 1.227 0 0 1 .72.2.808.808 0 0 1 .288.707.887.887 0 0 1-.248.711 1.145 1.145 0 0 1-.743.208Zm-.036-2.673h-1.323V7.2h1.287c.609 0 .918.288.918.855a.794.794 0 0 1-.882.908Z"/></svg><svg viewBox="126.7 15.3 49 59" id="tn-ssd"><path d="M132.935 15.223h7.25v4.5a4.02 4.02 0 0 0 4.021 4.021h13.025a4.02 4.02 0 0 0 4.021-4.021v-4.5h7.251a5.566 5.566 0 0 1 5.566 5.566v48.115a5.566 5.566 0 0 1-5.566 5.566h-35.568a5.566 5.566 0 0 1-5.566-5.566V20.789a5.566 5.566 0 0 1 5.566-5.566Zm10.493.275h7.492a.86.86 0 0 1 .859.859v3.85a.86.86 0 0 1-.859.859h-7.492a.86.86 0 0 1-.859-.859v-3.85a.86.86 0 0 1 .859-.859Zm11.675 0h2.458c.602 0 1.09.488 1.09 1.09v3.414a1.09 1.09 0 0 1-1.09 1.09h-2.458a1.09 1.09 0 0 1-1.09-1.09v-3.414c0-.602.488-1.09 1.09-1.09Zm-19.251 23.43V59.34a4.925 4.925 0 0 0 4.925 4.925h19.885a4.925 4.925 0 0 0 4.925-4.925V38.928a4.925 4.925 0 0 0-4.925-4.925h-19.885a4.925 4.925 0 0 0-4.925 4.925Zm4.254-2.254h21.227c1.052 0 1.904.852 1.904 1.904V59.69a1.903 1.903 0 0 1-1.904 1.904h-21.227a1.903 1.903 0 0 1-1.904-1.904V38.578c0-1.052.852-1.904 1.904-1.904Zm27.584-16.807a2.138 2.138 0 1 0 0 4.275 2.138 2.138 0 0 0 0-4.275Zm0 45.683a2.138 2.138 0 1 0 0 4.275 2.138 2.138 0 0 0 0-4.275Zm-33.942 0a2.138 2.138 0 1 0 0 4.275 2.138 2.138 0 0 0 0-4.275Zm0-45.683a2.138 2.138 0 1 0 0 4.275 2.138 2.138 0 0 0 0-4.275Z" style="fill:#d8d8d8"/></svg><svg viewBox="115 15.3 60 71" id="tn-ssd-mirror"><path d="M132.895 15.383h7.25v4.5a4.02 4.02 0 0 0 4.021 4.021h13.025a4.02 4.02 0 0 0 4.021-4.021v-4.5h7.251a5.566 5.566 0 0 1 5.566 5.566v48.115a5.566 5.566 0 0 1-5.566 5.566h-35.568a5.566 5.566 0 0 1-5.566-5.566V20.949a5.566 5.566 0 0 1 5.566-5.566Zm10.493.275h7.492a.86.86 0 0 1 .859.859v3.85a.86.86 0 0 1-.859.859h-7.492a.86.86 0 0 1-.859-.859v-3.85a.86.86 0 0 1 .859-.859Zm11.675 0h2.458c.602 0 1.09.488 1.09 1.09v3.414a1.09 1.09 0 0 1-1.09 1.09h-2.458a1.09 1.09 0 0 1-1.09-1.09v-3.414c0-.602.488-1.09 1.09-1.09Zm-19.251 23.43V59.5a4.925 4.925 0 0 0 4.925 4.925h19.885a4.925 4.925 0 0 0 4.925-4.925V39.088a4.925 4.925 0 0 0-4.925-4.925h-19.885a4.925 4.925 0 0 0-4.925 4.925Zm4.254-2.254h21.227c1.052 0 1.904.852 1.904 1.904V59.85a1.903 1.903 0 0 1-1.904 1.904h-21.227a1.903 1.903 0 0 1-1.904-1.904V38.738c0-1.052.852-1.904 1.904-1.904Zm27.584-16.807a2.138 2.138 0 1 0 0 4.275 2.138 2.138 0 0 0 0-4.275Zm0 45.683a2.138 2.138 0 1 0 0 4.275 2.138 2.138 0 0 0 0-4.275Zm-33.942 0a2.138 2.138 0 1 0 0 4.275 2.138 2.138 0 0 0 0-4.275Zm0-45.683a2.138 2.138 0 1 0 0 4.275 2.138 2.138 0 0 0 0-4.275Zm-14.84 11.05h3.558v49.512h36.317v2.503a3.38 3.38 0 0 1-3.379 3.379h-36.496a3.38 3.38 0 0 1-3.379-3.379V34.456a3.38 3.38 0 0 1 3.379-3.379Z" style="fill:#d8d8d8"/></svg><svg viewBox="0 0 24 24" xml:space="preserve" style="fill-rule:evenodd;clip-rule:evenodd;stroke-linejoin:round;stroke-miterlimit:2" id="tn-true-cloud" xmlns="http://www.w3.org/2000/svg"><path d="M6.5 20c-1.52 0-2.817-.523-3.89-1.57C1.537 17.377 1 16.093 1 14.58c0-1.3.39-2.46 1.17-3.48a5.188 5.188 0 0 1 3.08-1.95c.42-1.533 1.253-2.773 2.5-3.72A6.841 6.841 0 0 1 12 4c1.953 0 3.607.68 4.96 2.04C18.32 7.393 19 9.047 19 11c1.153.133 2.107.633 2.86 1.5a4.366 4.366 0 0 1 1.14 3c0 1.253-.437 2.317-1.31 3.19-.873.873-1.937 1.31-3.19 1.31m-12-2h12c.7 0 1.29-.243 1.77-.73.487-.48.73-1.07.73-1.77s-.243-1.29-.73-1.77c-.48-.487-1.07-.73-1.77-.73H17v-2c0-1.38-.487-2.56-1.46-3.54C14.567 6.487 13.387 6 12 6c-1.38 0-2.56.487-3.54 1.46C7.487 8.44 7 9.62 7 11h-.5c-.967 0-1.79.343-2.47 1.03A3.346 3.346 0 0 0 3 14.5c0 .967.343 1.8 1.03 2.5.68.667 1.503 1 2.47 1" style="fill-rule:nonzero"/><path d="M61.03 19.16v13.01L33.19 48.25V35.24l27.84-16.08ZM27.86 35.24v13L0 32.17v-13l12.59 7.26s.03.02.05.03l15.23 8.79-.01-.01Zm13.93-11.11-11.26 6.51-11.28-6.51 11.28-6.51 11.26 6.51Zm16.59-9.58-11.27 6.51-13.92-8.05V0l25.19 14.55ZM27.86 0v13.01l-13.93 8.04-11.28-6.5L27.86 0Z" style="fill-rule:nonzero" transform="matrix(.13512 0 0 .13512 7.72 10.217)"/></svg><svg viewBox="0 0 62.856 71.149" id="tn-truecommand-logo-mark" xmlns="http://www.w3.org/2000/svg"><path data-name="logoMark &lt;CompoundPathItem&gt;" d="M51.304 47.443 32.538 58.27h-3.58L10.192 47.433V25.772l1.785-3.104 16.98-9.798h3.581l16.97 9.798 1.796 3.103v-.612l11.552-6.674L30.806 0 0 17.78v35.58l30.805 17.79 31.73-18.32-11.231-8.2Z"/><path data-name="logoMark &lt;CompoundPathItem&gt;" d="m32.539 49.519 18.765-10.836v-4.141L32.54 45.367Zm16.97-26.85-7.588 4.39-8.957-5.18-.425-.239v4.1l5.864 3.384-5.864 3.384v4.1l18.765-10.836ZM10.193 38.682l8.469 4.889.041.02 10.255 5.927v-4.152L10.193 34.532Zm9.372-11.624-7.587-4.39-1.785 3.103 8.469 4.899.041.02 10.255 5.917v-4.173l-5.74-3.311 5.74-3.31V21.64l-.696.404Z"/><path data-name="logoMark &lt;PathItem&gt;" d="M32.539 12.87v12.87l-1.723-.996-1.858 1.069V12.87h3.581zM32.539 32.508v25.761h-3.581V32.435l1.858 1.069 1.723-.996z"/><path data-name="logoMark &lt;PathItem&gt;" d="m0 17.78 11.977 4.888 16.981-9.798h3.581l16.97 9.798 1.795 2.491 11.552-6.674L30.805 0 0 17.78z"/><path data-name="logoMark &lt;PathItem&gt;" d="m0 53.359 10.192-5.926V25.772l1.785-3.104L0 17.78v35.579z"/></svg><svg viewBox="0 0 62.856 71.149" id="tn-truecommand-logo-mark-color" xmlns="http://www.w3.org/2000/svg"><path data-name="logoMark &lt;PathItem&gt;" style="fill:none" d="M28.961 9.106 7.388 24.743l2.8 27.732 18.773 8.943 22.345-13.973V19.963L28.961 9.106z"/><path data-name="logoMark &lt;CompoundPathItem&gt;" d="M51.304 47.443 32.538 58.27h-3.58L10.192 47.433V25.772l1.785-3.104 16.98-9.798h3.581l16.97 9.798 1.796 3.103v-.612l11.552-6.674L30.806 0 0 17.78v35.58l30.805 17.79 31.73-18.32-11.231-8.2Z" style="fill:#0095d5"/><path data-name="logoMark &lt;PathItem&gt;" style="fill:#aeadae" d="m38.403 29.124-7.587 4.38-7.598-4.38 7.598-4.38 7.587 4.38z"/><path data-name="logoMark &lt;CompoundPathItem&gt;" d="m32.539 49.519 18.765-10.836v-4.141L32.54 45.367Zm16.97-26.85-7.588 4.39-8.957-5.18-.425-.239v4.1l5.864 3.384-5.864 3.384v4.1l18.765-10.836ZM10.193 38.682l8.469 4.889.041.02 10.255 5.927v-4.152L10.193 34.532Zm9.372-11.624-7.587-4.39-1.785 3.103 8.469 4.899.041.02 10.255 5.917v-4.173l-5.74-3.311 5.74-3.31V21.64l-.696.404Z" style="fill:#0095d5"/><path data-name="logoMark &lt;PathItem&gt;" style="fill:#0095d5" d="M32.539 12.87v12.87l-1.723-.996-1.858 1.069V12.87h3.581zM32.539 32.508v25.761h-3.581V32.435l1.858 1.069 1.723-.996z"/><path data-name="logoMark &lt;PathItem&gt;" style="fill:#31beec" d="m0 17.78 11.977 4.888 16.981-9.798h3.581l16.97 9.798 1.795 2.491 11.552-6.674L30.805 0 0 17.78z"/><path data-name="logoMark &lt;PathItem&gt;" style="fill:#31beec" d="m0 53.359 10.192-5.926V25.772l1.785-3.104L0 17.78v35.579z"/></svg><svg fill="none" viewBox="0 0 43.494 28.99" id="tn-truenas-connect-logo" xmlns="http://www.w3.org/2000/svg"><g style="fill:#000"><path d="M34.436 10.874A12.849 12.849 0 0 0 21.755.004 14.536 14.536 0 0 0 9.073 7.25 10.404 10.404 0 0 0 .015 18.12c0 6.003 4.866 10.87 10.87 10.87h23.551a9.058 9.058 0 0 0 9.058-9.058 9.67 9.67 0 0 0-9.058-9.058Z" style="fill:#fff;fill-opacity:1" class="ckfills"/></g><g style="fill:#000"><path d="M34.319 14.237v5.358l-11.47 6.626v-5.358ZM20.654 20.863v5.358L9.175 19.594v-5.357l5.187 2.99a.076.076 0 0 0 .019.012ZM26.392 16.283l-4.641 2.685-4.644-2.68 4.644-2.681ZM33.226 12.339l-4.643 2.68-5.734-3.314V6.343ZM20.654 6.343v5.362l-5.741 3.311-4.644-2.677Z" class="ckfills"/></g></svg><svg viewBox="0 0 294 49" id="tn-truenas-logo" xmlns="http://www.w3.org/2000/svg"><path d="M108.63 3.46v4.67H96.05V44.8H90.9V8.13H78.32V3.46h30.31Zm16.23 17.85c-1.26-1.74-2.82-2.52-5.03-2.52-3.66 0-6.41 2.76-6.41 7.25v18.75h-4.79V14.84h4.79v2.94c1.26-2.1 3.29-3.42 6.95-3.42 4.07 0 6.65 1.38 8.57 4.07l-4.07 2.88h-.01Zm31.1 23.48h-4.79v-2.94c-1.5 2.28-3.59 3.41-8.03 3.41-6.41 0-10.9-3.36-10.9-11.74V14.84h4.79v18.63c0 6.05 3.29 7.37 6.83 7.37 4.49 0 7.31-3.18 7.31-7.31V14.84h4.79V44.8v-.01Zm28.39-4.55c-2.1 3.66-5.27 5.03-10.48 5.03-8.03 0-12.82-5.21-12.82-13.54v-3.95c0-8.51 4.01-13.42 11.86-13.42s11.86 4.85 11.86 13.42v3.12h-18.93v.84c0 5.15 2.46 9.23 7.67 9.23 3.89 0 5.87-1.14 7.13-3.35l3.72 2.64-.01-.02ZM165.84 26.7h14.08c-.24-5.03-2.46-8.03-7.01-8.03s-6.77 3.06-7.07 8.03Zm56.31-23.24V44.8h-6.17l-16.83-28.1v28.1h-6.71V3.46h5.99l17.01 28.46V3.46h6.71Zm4.67 41.33L241.2 3.45h6.59l14.38 41.34h-7.37l-2.82-8.57h-14.92l-2.82 8.57h-7.43.01Zm12.17-14.55h11.02l-5.51-16.72-5.51 16.72Zm48.82-16.78c-2.04-2.82-4.25-4.49-8.93-4.49-4.25 0-6.77 1.92-6.77 5.39 0 3.95 3.12 5.51 8.87 6.77 8.33 1.8 12.64 4.91 12.64 12.34 0 6.17-4.13 11.86-14.08 11.86-7.07 0-12.04-2.16-15.46-6.77l5.45-3.77c2.46 2.94 4.91 4.49 9.65 4.49 5.69 0 7.49-2.52 7.49-5.51 0-3.3-1.86-5.33-9.05-6.89-7.97-1.68-12.46-5.51-12.46-12.52 0-6.23 4.07-11.44 13.78-11.44 6.59 0 11.2 2.22 14.14 6.77l-5.27 3.77Zm-226.78 5.7v13.01L33.19 48.25V35.24l27.84-16.08ZM27.86 35.24v13L0 32.17v-13l12.59 7.26s.03.02.05.03l15.23 8.79-.01-.01Zm13.93-11.11-11.26 6.51-11.28-6.51 11.28-6.51 11.26 6.51Zm16.59-9.58-11.27 6.51-13.92-8.05V0l25.19 14.55ZM27.86 0v13.01l-13.93 8.04-11.28-6.5L27.86 0Z"/></svg><svg viewBox="0 0 294 49" id="tn-truenas-logo-ce" xmlns="http://www.w3.org/2000/svg"><path d="M108.63 3.46v4.67H96.05V44.8H90.9V8.13H78.32V3.46h30.31Zm16.23 17.85c-1.26-1.74-2.82-2.52-5.03-2.52-3.66 0-6.41 2.76-6.41 7.25v18.75h-4.79V14.84h4.79v2.94c1.26-2.1 3.29-3.42 6.95-3.42 4.07 0 6.65 1.38 8.57 4.07l-4.07 2.88h-.01Zm31.1 23.48h-4.79v-2.94c-1.5 2.28-3.59 3.41-8.03 3.41-6.41 0-10.9-3.36-10.9-11.74V14.84h4.79v18.63c0 6.05 3.29 7.37 6.83 7.37 4.49 0 7.31-3.18 7.31-7.31V14.84h4.79V44.8v-.01Zm28.39-4.55c-2.1 3.66-5.27 5.03-10.48 5.03-8.03 0-12.82-5.21-12.82-13.54v-3.95c0-8.51 4.01-13.42 11.86-13.42s11.86 4.85 11.86 13.42v3.12h-18.93v.84c0 5.15 2.46 9.23 7.67 9.23 3.89 0 5.87-1.14 7.13-3.35l3.72 2.64-.01-.02ZM165.84 26.7h14.08c-.24-5.03-2.46-8.03-7.01-8.03s-6.77 3.06-7.07 8.03Zm56.31-23.24V44.8h-6.17l-16.83-28.1v28.1h-6.71V3.46h5.99l17.01 28.46V3.46h6.71Zm4.67 41.33L241.2 3.45h6.59l14.38 41.34h-7.37l-2.82-8.57h-14.92l-2.82 8.57h-7.43.01Zm12.17-14.55h11.02l-5.51-16.72-5.51 16.72Zm48.82-16.78c-2.04-2.82-4.25-4.49-8.93-4.49-4.25 0-6.77 1.92-6.77 5.39 0 3.95 3.12 5.51 8.87 6.77 8.33 1.8 12.64 4.91 12.64 12.34 0 6.17-4.13 11.86-14.08 11.86-7.07 0-12.04-2.16-15.46-6.77l5.45-3.77c2.46 2.94 4.91 4.49 9.65 4.49 5.69 0 7.49-2.52 7.49-5.51 0-3.3-1.86-5.33-9.05-6.89-7.97-1.68-12.46-5.51-12.46-12.52 0-6.23 4.07-11.44 13.78-11.44 6.59 0 11.2 2.22 14.14 6.77l-5.27 3.77Zm-226.78 5.7v13.01L33.19 48.25V35.24l27.84-16.08ZM27.86 35.24v13L0 32.17v-13l12.59 7.26s.03.02.05.03l15.23 8.79-.01-.01Zm13.93-11.11-11.26 6.51-11.28-6.51 11.28-6.51 11.26 6.51Zm16.59-9.58-11.27 6.51-13.92-8.05V0l25.19 14.55ZM27.86 0v13.01l-13.93 8.04-11.28-6.5L27.86 0Z"/></svg><svg viewBox="0 0 293.68 83.01" id="tn-truenas-logo-ce-color" xmlns="http://www.w3.org/2000/svg"><path fill="#0a95d3" d="M108.63 3.46v4.67H96.05V44.8H90.9V8.13H78.32V3.46h30.31Zm16.23 17.85c-1.26-1.74-2.82-2.52-5.03-2.52-3.66 0-6.41 2.76-6.41 7.25v18.75h-4.79V14.84h4.79v2.94c1.26-2.1 3.29-3.42 6.95-3.42 4.07 0 6.65 1.38 8.57 4.07l-4.07 2.88h-.01Zm31.1 23.48h-4.79v-2.94c-1.5 2.28-3.59 3.41-8.03 3.41-6.41 0-10.9-3.36-10.9-11.74V14.84h4.79v18.63c0 6.05 3.29 7.37 6.83 7.37 4.49 0 7.31-3.18 7.31-7.31V14.84h4.79V44.8v-.01Zm28.39-4.55c-2.1 3.66-5.27 5.03-10.48 5.03-8.03 0-12.82-5.21-12.82-13.54v-3.95c0-8.51 4.01-13.42 11.86-13.42s11.86 4.85 11.86 13.42v3.12h-18.93v.84c0 5.15 2.46 9.23 7.67 9.23 3.89 0 5.87-1.14 7.13-3.35l3.72 2.64-.01-.02ZM165.84 26.7h14.08c-.24-5.03-2.46-8.03-7.01-8.03s-6.77 3.06-7.07 8.03Zm56.31-23.24V44.8h-6.17l-16.83-28.1v28.1h-6.71V3.46h5.99l17.01 28.46V3.46h6.71Zm4.67 41.33L241.2 3.45h6.59l14.38 41.34h-7.37l-2.82-8.57h-14.92l-2.82 8.57h-7.43.01Zm12.17-14.55h11.02l-5.51-16.72-5.51 16.72Zm48.82-16.78c-2.04-2.82-4.25-4.49-8.93-4.49-4.25 0-6.77 1.92-6.77 5.39 0 3.95 3.12 5.51 8.87 6.77 8.33 1.8 12.64 4.91 12.64 12.34 0 6.17-4.13 11.86-14.08 11.86-7.07 0-12.04-2.16-15.46-6.77l5.45-3.77c2.46 2.94 4.91 4.49 9.65 4.49 5.69 0 7.49-2.52 7.49-5.51 0-3.3-1.86-5.33-9.05-6.89-7.97-1.68-12.46-5.51-12.46-12.52 0-6.23 4.07-11.44 13.78-11.44 6.59 0 11.2 2.22 14.14 6.77l-5.27 3.77Z"/><a xmlns:xlink="http://www.w3.org/1999/xlink" xlink:href="39.967"><path fill="#35beeb" d="M61.03 19.16v13.01L33.19 48.25V35.24l27.84-16.08z"/></a><a xmlns:xlink="http://www.w3.org/1999/xlink" xlink:href="56.178"><path fill="#0a95d3" d="M27.86 35.24v13L0 32.17v-13l12.59 7.26s.03.02.05.03l15.23 8.79-.01-.01Z"/></a><a xmlns:xlink="http://www.w3.org/1999/xlink" xlink:href="31.995"><path fill="#afadae" d="m41.79 24.13-11.26 6.51-11.28-6.51 11.28-6.51 11.26 6.51z"/></a><a xmlns:xlink="http://www.w3.org/1999/xlink" xlink:href="56.178"><path fill="#0a95d3" d="m58.38 14.55-11.27 6.51-13.92-8.05V0l25.19 14.55z"/></a><a xmlns:xlink="http://www.w3.org/1999/xlink" xlink:href="39.967"><path fill="#35beeb" d="M27.86 0v13.01l-13.93 8.04-11.28-6.5L27.86 0z"/></a><path fill="#0a95d3" d="M118.29 64.97c-.51-.31-1.08-.46-1.73-.46s-1.22.15-1.73.46c-.51.31-.91.75-1.2 1.34-.29.59-.44 1.32-.44 2.18s.15 1.59.44 2.18.69 1.04 1.2 1.34c.51.31 1.08.46 1.73.46s1.22-.15 1.73-.46c.51-.3.91-.75 1.2-1.34.29-.59.44-1.32.44-2.18s-.15-1.59-.44-2.18c-.29-.59-.69-1.04-1.2-1.34Zm115.1.08c-.55-.3-1.23-.45-2.05-.45h-1.95v7.8h1.84c.85 0 1.56-.15 2.13-.46.56-.31.99-.75 1.27-1.33s.42-1.29.42-2.13-.14-1.54-.42-2.11c-.28-.58-.69-1.02-1.24-1.32Zm36.32-.08c-.51-.31-1.08-.46-1.73-.46s-1.22.15-1.73.46c-.51.31-.91.75-1.2 1.34s-.44 1.32-.44 2.18.15 1.59.44 2.18.69 1.04 1.2 1.34c.51.31 1.08.46 1.73.46s1.22-.15 1.73-.46c.51-.3.91-.75 1.2-1.34s.44-1.32.44-2.18-.15-1.59-.44-2.18c-.29-.59-.69-1.04-1.2-1.34Z"/><path fill="#0a95d3" d="M90.68 54.01v29h203v-29h-203Zm10.09 16.67c.29.59.7 1.04 1.21 1.34.51.3 1.08.45 1.72.45.35 0 .69-.05 1.01-.14s.61-.23.87-.41.48-.4.66-.66.31-.56.37-.9h1.71c-.09.53-.27 1-.53 1.44s-.59.81-1 1.13a4.5 4.5 0 0 1-1.39.73c-.52.17-1.09.26-1.71.26-.97 0-1.83-.22-2.59-.65a4.612 4.612 0 0 1-1.79-1.87c-.44-.81-.65-1.78-.65-2.91s.22-2.1.66-2.91 1.04-1.44 1.79-1.87c.75-.43 1.62-.65 2.59-.65.59 0 1.15.08 1.67.24s.98.39 1.39.7c.41.31.75.68 1.02 1.13.27.44.45.95.55 1.52h-1.71c-.07-.34-.19-.65-.37-.91s-.4-.48-.66-.67c-.26-.18-.55-.32-.87-.41-.32-.09-.66-.14-1.01-.14-.65 0-1.22.15-1.73.46s-.91.76-1.2 1.35c-.29.59-.44 1.32-.44 2.17s.15 1.59.44 2.18h-.01Zm20.18.73c-.44.81-1.04 1.44-1.8 1.87-.76.44-1.62.65-2.59.65s-1.83-.22-2.59-.65c-.76-.43-1.36-1.06-1.8-1.87-.44-.81-.66-1.78-.66-2.91s.22-2.1.66-2.91 1.04-1.44 1.8-1.87c.76-.43 1.63-.65 2.59-.65s1.83.22 2.59.65c.76.44 1.36 1.06 1.8 1.87s.66 1.78.66 2.91-.22 2.1-.66 2.91Zm15.66 2.38H135v-7.66h-.1l-3.3 7.65h-1.33l-3.3-7.65h-.1v7.67h-1.61V63.21h2.05l3.57 8.23h.13l3.57-8.23h2.05V73.8l-.02-.01Zm15.37 0h-1.61v-7.66h-.1l-3.3 7.65h-1.33l-3.3-7.65h-.1v7.67h-1.61V63.21h2.05l3.57 8.23h.13l3.57-8.23H152V73.8l-.02-.01Zm12.9-3.62c0 .74-.18 1.4-.55 1.97-.37.57-.89 1.02-1.55 1.34s-1.45.49-2.35.49-1.67-.16-2.34-.49c-.67-.33-1.19-.77-1.55-1.34-.37-.57-.55-1.23-.55-1.97v-6.96h1.69v6.84c0 .48.11.9.34 1.28.22.37.54.66.95.88.41.21.9.32 1.47.32s1.06-.11 1.47-.32.73-.5.95-.88c.22-.37.33-.8.33-1.28v-6.84h1.7v6.96h-.01Zm13.04 3.62h-1.55l-5.69-7.77h-.1v7.77h-1.69V63.2h1.56l5.7 7.78h.1V63.2h1.67v10.59Zm5.69 0h-1.69V63.2h1.69v10.59Zm12.11-9.21h-3.49v9.21h-1.68v-9.21h-3.49V63.2h8.67v1.38h-.01Zm8.34 5.05v4.16h-1.68v-4.16l-4.06-6.43h1.92l2.93 4.81h.12l2.93-4.81h1.92l-4.06 6.43h-.02Zm19.9 4.16h-7.09V63.2h7.02v1.38h-5.33v3.23h4.97v1.37h-4.97v3.24h5.4v1.38-.01Zm12.12-2.47c-.42.79-1.04 1.4-1.84 1.83-.8.43-1.77.64-2.91.64h-3.63V63.2h3.74c1.1 0 2.04.21 2.83.63.79.42 1.39 1.03 1.81 1.81.42.79.63 1.73.63 2.83s-.21 2.05-.64 2.84l.01.01Zm5.96 2.47h-1.69V63.2h1.69v10.59Zm12.12-9.21h-3.49v9.21h-1.68v-9.21h-3.49V63.2h8.67v1.38h-.01Zm5.14 9.21h-1.69V63.2h1.69v10.59Zm13.07-2.38c-.44.81-1.04 1.44-1.8 1.87-.76.44-1.62.65-2.59.65s-1.83-.22-2.59-.65a4.7 4.7 0 0 1-1.8-1.87c-.44-.81-.66-1.78-.66-2.91s.22-2.1.66-2.91 1.04-1.44 1.8-1.87c.76-.44 1.62-.65 2.59-.65s1.83.22 2.59.65c.76.44 1.36 1.06 1.8 1.87s.66 1.78.66 2.91-.22 2.1-.66 2.91Zm13.34 2.38h-1.55l-5.69-7.77h-.1v7.77h-1.69V63.2h1.56l5.7 7.78h.1V63.2h1.67v10.59Z"/></svg><svg viewBox="0 0 294 90" id="tn-truenas-logo-enterprise" xmlns="http://www.w3.org/2000/svg"><g clip-path="url(#coa)"><path d="M108.63 3.46v4.67H96.05V44.8H90.9V8.13H78.32V3.46h30.31Zm16.23 17.85c-1.26-1.74-2.82-2.52-5.03-2.52-3.66 0-6.41 2.76-6.41 7.25v18.75h-4.79V14.84h4.79v2.94c1.26-2.1 3.29-3.42 6.95-3.42 4.07 0 6.65 1.38 8.57 4.07l-4.07 2.88h-.01Zm31.1 23.48h-4.79v-2.94c-1.5 2.28-3.59 3.41-8.03 3.41-6.41 0-10.9-3.36-10.9-11.74V14.84h4.79v18.63c0 6.05 3.29 7.37 6.83 7.37 4.49 0 7.31-3.18 7.31-7.31V14.84h4.79V44.8v-.01Zm28.39-4.55c-2.1 3.66-5.27 5.03-10.48 5.03-8.03 0-12.82-5.21-12.82-13.54v-3.95c0-8.51 4.01-13.42 11.86-13.42s11.86 4.85 11.86 13.42v3.12h-18.93v.84c0 5.15 2.46 9.23 7.67 9.23 3.89 0 5.87-1.14 7.13-3.35l3.72 2.64-.01-.02ZM165.84 26.7h14.08c-.24-5.03-2.46-8.03-7.01-8.03s-6.77 3.06-7.07 8.03Zm56.31-23.24V44.8h-6.17l-16.83-28.1v28.1h-6.71V3.46h5.99l17.01 28.46V3.46h6.71Zm4.67 41.33L241.2 3.45h6.59l14.38 41.34h-7.37l-2.82-8.57h-14.92l-2.82 8.57h-7.43.01Zm12.17-14.55h11.02l-5.51-16.72-5.51 16.72Zm48.82-16.78c-2.04-2.82-4.25-4.49-8.93-4.49-4.25 0-6.77 1.92-6.77 5.39 0 3.95 3.12 5.51 8.87 6.77 8.33 1.8 12.64 4.91 12.64 12.34 0 6.17-4.13 11.86-14.08 11.86-7.07 0-12.04-2.16-15.46-6.77l5.45-3.77c2.46 2.94 4.91 4.49 9.65 4.49 5.69 0 7.49-2.52 7.49-5.51 0-3.3-1.86-5.33-9.05-6.89-7.97-1.68-12.46-5.51-12.46-12.52 0-6.23 4.07-11.44 13.78-11.44 6.59 0 11.2 2.22 14.14 6.77l-5.27 3.77Zm-226.78 5.7v13.01L33.19 48.25V35.24l27.84-16.08ZM27.86 35.24v13L0 32.17v-13l12.59 7.26s.03.02.05.03l15.23 8.79-.01-.01Zm13.93-11.11-11.26 6.51-11.28-6.51 11.28-6.51 11.26 6.51Zm16.59-9.58-11.27 6.51-13.92-8.05V0l25.19 14.55ZM27.86 0v13.01l-13.93 8.04-11.28-6.5L27.86 0Zm203.53 71.03c.61-.26 1.06-.65 1.35-1.15.29-.5.43-1.11.43-1.82s-.14-1.33-.43-1.85-.74-.92-1.35-1.2c-.61-.28-1.42-.42-2.41-.42h-3.78v6.84h3.82c.97 0 1.77-.13 2.38-.4h-.01Zm-40.74 0c.61-.26 1.06-.65 1.35-1.15.29-.5.43-1.11.43-1.82s-.14-1.33-.43-1.85-.74-.92-1.35-1.2c-.61-.28-1.42-.42-2.41-.42h-3.78v6.84h3.82c.97 0 1.77-.13 2.38-.4h-.01Zm20.45-5.97c-.61-.31-1.42-.47-2.42-.47h-3.78v7.38h3.82c.98 0 1.78-.16 2.39-.48.61-.32 1.06-.76 1.35-1.32.29-.56.43-1.19.43-1.91s-.14-1.35-.43-1.9c-.29-.55-.74-.99-1.35-1.3h-.01Z"/><path d="M90.89 54.11v35h203v-35h-203Zm20.73 26.91H98.99V62.15h12.52v2.45h-9.5v5.75h8.85v2.44h-8.85v5.78h9.62v2.45h-.01Zm22.77 0h-2.77l-10.15-13.84h-.19v13.84h-3.01V62.15h2.79l10.16 13.86h.19V62.15h2.98v18.87Zm21.6-16.42h-6.23v16.42h-3V64.6h-6.22v-2.45h15.45v2.45Zm18.78 16.42h-12.63V62.15h12.52v2.45h-9.5v5.75h8.85v2.44h-8.85v5.78h9.62v2.45h-.01Zm18.02 0-4.06-7.15h-4.28v7.14h-3.01V62.14h7.12c1.55 0 2.83.25 3.86.76 1.02.5 1.79 1.2 2.3 2.09.51.89.76 1.91.76 3.07s-.26 2.17-.77 3.05c-.51.88-1.28 1.56-2.3 2.04-.19.09-.39.16-.6.23l4.42 7.64h-3.44Zm22.35-9.63c-.51.92-1.28 1.66-2.3 2.19-1.02.54-2.31.81-3.86.81h-4.09v6.64h-3.01V62.16H209c1.55 0 2.84.27 3.86.8s1.78 1.26 2.29 2.19c.51.92.76 1.96.76 3.12 0 1.16-.26 2.2-.77 3.13v-.01Zm18.39 9.63-4.06-7.15h-4.28v7.14h-3.01V62.14h7.12c1.55 0 2.83.25 3.86.76 1.02.5 1.79 1.2 2.3 2.09.51.89.76 1.91.76 3.07s-.26 2.17-.77 3.05c-.51.88-1.28 1.56-2.3 2.04-.19.09-.39.16-.6.23l4.42 7.64h-3.44Zm12.1 0h-3.01V62.15h3.01v18.87Zm20.33-2.37c-.58.83-1.42 1.48-2.52 1.96s-2.43.72-3.99.72-2.79-.22-3.88-.67c-1.09-.45-1.95-1.09-2.56-1.91-.62-.83-.96-1.81-1.02-2.94h3.02c.06.68.29 1.25.71 1.7.41.45.94.79 1.59 1 .65.22 1.36.33 2.13.33.85 0 1.61-.13 2.28-.38.67-.25 1.19-.61 1.57-1.07.38-.46.58-.99.58-1.61 0-.56-.17-1.02-.5-1.37-.33-.36-.79-.65-1.35-.88-.57-.23-1.21-.44-1.93-.62l-2.36-.61c-1.6-.41-2.86-1.02-3.8-1.82-.93-.8-1.4-1.86-1.4-3.17 0-1.09.31-2.04.94-2.85.62-.81 1.47-1.44 2.53-1.89 1.07-.45 2.27-.68 3.61-.68 1.34 0 2.55.22 3.58.67 1.04.45 1.85 1.06 2.45 1.85.6.78.91 1.68.94 2.7h-2.9c-.1-.87-.53-1.55-1.29-2.03-.75-.48-1.7-.72-2.85-.72-.82 0-1.53.12-2.12.36-.6.24-1.06.57-1.39 1-.33.43-.49.9-.49 1.43 0 .45.11.84.34 1.16.22.33.52.6.89.82.37.22.76.4 1.18.54.42.14.83.26 1.22.35l1.95.48c.64.15 1.29.35 1.96.6.67.25 1.29.58 1.86 1 .57.41 1.03.92 1.39 1.53.35.61.53 1.34.53 2.18 0 1.07-.29 2.02-.87 2.85l-.03-.01Zm19.84 2.37h-12.63V62.15h12.52v2.45h-9.5v5.75h8.85v2.44h-8.85v5.78h9.62v2.45h-.01Z"/></g><defs><clipPath id="coa"><path d="M0 0h293.89v89.11H0z"/></clipPath></defs></svg><svg viewBox="0 0 293.89 89.11" id="tn-truenas-logo-enterprise-color" xmlns="http://www.w3.org/2000/svg"><path fill="#0a95d3" d="M108.63 3.46v4.67H96.05V44.8H90.9V8.13H78.32V3.46h30.31Zm16.23 17.85c-1.26-1.74-2.82-2.52-5.03-2.52-3.66 0-6.41 2.76-6.41 7.25v18.75h-4.79V14.84h4.79v2.94c1.26-2.1 3.29-3.42 6.95-3.42 4.07 0 6.65 1.38 8.57 4.07l-4.07 2.88h-.01Zm31.1 23.48h-4.79v-2.94c-1.5 2.28-3.59 3.41-8.03 3.41-6.41 0-10.9-3.36-10.9-11.74V14.84h4.79v18.63c0 6.05 3.29 7.37 6.83 7.37 4.49 0 7.31-3.18 7.31-7.31V14.84h4.79V44.8v-.01Zm28.39-4.55c-2.1 3.66-5.27 5.03-10.48 5.03-8.03 0-12.82-5.21-12.82-13.54v-3.95c0-8.51 4.01-13.42 11.86-13.42s11.86 4.85 11.86 13.42v3.12h-18.93v.84c0 5.15 2.46 9.23 7.67 9.23 3.89 0 5.87-1.14 7.13-3.35l3.72 2.64-.01-.02ZM165.84 26.7h14.08c-.24-5.03-2.46-8.03-7.01-8.03s-6.77 3.06-7.07 8.03Zm56.31-23.24V44.8h-6.17l-16.83-28.1v28.1h-6.71V3.46h5.99l17.01 28.46V3.46h6.71Zm4.67 41.33L241.2 3.45h6.59l14.38 41.34h-7.37l-2.82-8.57h-14.92l-2.82 8.57h-7.43.01Zm12.17-14.55h11.02l-5.51-16.72-5.51 16.72Zm48.82-16.78c-2.04-2.82-4.25-4.49-8.93-4.49-4.25 0-6.77 1.92-6.77 5.39 0 3.95 3.12 5.51 8.87 6.77 8.33 1.8 12.64 4.91 12.64 12.34 0 6.17-4.13 11.86-14.08 11.86-7.07 0-12.04-2.16-15.46-6.77l5.45-3.77c2.46 2.94 4.91 4.49 9.65 4.49 5.69 0 7.49-2.52 7.49-5.51 0-3.3-1.86-5.33-9.05-6.89-7.97-1.68-12.46-5.51-12.46-12.52 0-6.23 4.07-11.44 13.78-11.44 6.59 0 11.2 2.22 14.14 6.77l-5.27 3.77Z"/><a xmlns:xlink="http://www.w3.org/1999/xlink" xlink:href="39.967"><path fill="#35beeb" d="M61.03 19.16v13.01L33.19 48.25V35.24l27.84-16.08z"/></a><a xmlns:xlink="http://www.w3.org/1999/xlink" xlink:href="56.178"><path fill="#0a95d3" d="M27.86 35.24v13L0 32.17v-13l12.59 7.26s.03.02.05.03l15.23 8.79-.01-.01Z"/></a><a xmlns:xlink="http://www.w3.org/1999/xlink" xlink:href="31.995"><path fill="#afadae" d="m41.79 24.13-11.26 6.51-11.28-6.51 11.28-6.51 11.26 6.51z"/></a><a xmlns:xlink="http://www.w3.org/1999/xlink" xlink:href="56.178"><path fill="#0a95d3" d="m58.38 14.55-11.27 6.51-13.92-8.05V0l25.19 14.55z"/></a><a xmlns:xlink="http://www.w3.org/1999/xlink" xlink:href="39.967"><path fill="#35beeb" d="M27.86 0v13.01l-13.93 8.04-11.28-6.5L27.86 0z"/></a><path fill="#0a95d3" d="M231.39 71.03c.61-.26 1.06-.65 1.35-1.15.29-.5.43-1.11.43-1.82s-.14-1.33-.43-1.85-.74-.92-1.35-1.2-1.42-.42-2.41-.42h-3.78v6.84h3.82c.97 0 1.77-.13 2.38-.4h-.01Zm-40.74 0c.61-.26 1.06-.65 1.35-1.15.29-.5.43-1.11.43-1.82s-.14-1.33-.43-1.85-.74-.92-1.35-1.2-1.42-.42-2.41-.42h-3.78v6.84h3.82c.97 0 1.77-.13 2.38-.4h-.01Zm20.45-5.97c-.61-.31-1.42-.47-2.42-.47h-3.78v7.38h3.82c.98 0 1.78-.16 2.39-.48s1.06-.76 1.35-1.32c.29-.56.43-1.19.43-1.91s-.14-1.35-.43-1.9-.74-.99-1.35-1.3h-.01Z"/><path fill="#0a95d3" d="M90.89 54.11v35h203v-35h-203Zm20.73 26.91H98.99V62.15h12.52v2.45h-9.5v5.75h8.85v2.44h-8.85v5.78h9.62v2.45h-.01Zm22.77 0h-2.77l-10.15-13.84h-.19v13.84h-3.01V62.15h2.79l10.16 13.86h.19V62.15h2.98v18.87Zm21.6-16.42h-6.23v16.42h-3V64.6h-6.22v-2.45h15.45v2.45Zm18.78 16.42h-12.63V62.15h12.52v2.45h-9.5v5.75h8.85v2.44h-8.85v5.78h9.62v2.45h-.01Zm18.02 0-4.06-7.15h-4.28v7.14h-3.01V62.14h7.12c1.55 0 2.83.25 3.86.76 1.02.5 1.79 1.2 2.3 2.09.51.89.76 1.91.76 3.07s-.26 2.17-.77 3.05c-.51.88-1.28 1.56-2.3 2.04-.19.09-.39.16-.6.23l4.42 7.64h-3.44Zm22.35-9.63c-.51.92-1.28 1.66-2.3 2.19-1.02.54-2.31.81-3.86.81h-4.09v6.64h-3.01V62.16H209c1.55 0 2.84.27 3.86.8s1.78 1.26 2.29 2.19c.51.92.76 1.96.76 3.12s-.26 2.2-.77 3.13v-.01Zm18.39 9.63-4.06-7.15h-4.28v7.14h-3.01V62.14h7.12c1.55 0 2.83.25 3.86.76 1.02.5 1.79 1.2 2.3 2.09.51.89.76 1.91.76 3.07s-.26 2.17-.77 3.05-1.28 1.56-2.3 2.04c-.19.09-.39.16-.6.23l4.42 7.64h-3.44Zm12.1 0h-3.01V62.15h3.01v18.87Zm20.33-2.37c-.58.83-1.42 1.48-2.52 1.96s-2.43.72-3.99.72-2.79-.22-3.88-.67c-1.09-.45-1.95-1.09-2.56-1.91-.62-.83-.96-1.81-1.02-2.94h3.02c.06.68.29 1.25.71 1.7.41.45.94.79 1.59 1 .65.22 1.36.33 2.13.33.85 0 1.61-.13 2.28-.38s1.19-.61 1.57-1.07.58-.99.58-1.61c0-.56-.17-1.02-.5-1.37-.33-.36-.79-.65-1.35-.88-.57-.23-1.21-.44-1.93-.62l-2.36-.61c-1.6-.41-2.86-1.02-3.8-1.82-.93-.8-1.4-1.86-1.4-3.17 0-1.09.31-2.04.94-2.85.62-.81 1.47-1.44 2.53-1.89 1.07-.45 2.27-.68 3.61-.68s2.55.22 3.58.67c1.04.45 1.85 1.06 2.45 1.85.6.78.91 1.68.94 2.7h-2.9c-.1-.87-.53-1.55-1.29-2.03-.75-.48-1.7-.72-2.85-.72-.82 0-1.53.12-2.12.36-.6.24-1.06.57-1.39 1s-.49.9-.49 1.43c0 .45.11.84.34 1.16.22.33.52.6.89.82.37.22.76.4 1.18.54.42.14.83.26 1.22.35l1.95.48c.64.15 1.29.35 1.96.6.67.25 1.29.58 1.86 1 .57.41 1.03.92 1.39 1.53.35.61.53 1.34.53 2.18 0 1.07-.29 2.02-.87 2.85l-.03-.01Zm19.84 2.37h-12.63V62.15h12.52v2.45h-9.5v5.75h8.85v2.44h-8.85v5.78h9.62v2.45h-.01Z"/></svg><svg viewBox="0 0 62 49" id="tn-truenas-logo-mark" xmlns="http://www.w3.org/2000/svg"><path d="M61.03 19.16v13.01L33.19 48.25V35.24l27.84-16.08ZM27.86 35.24v13L0 32.17v-13l12.59 7.26s.03.02.05.03l15.23 8.79-.01-.01Zm13.93-11.11-11.26 6.51-11.28-6.51 11.28-6.51 11.26 6.51Zm16.59-9.58-11.27 6.51-13.92-8.05V0l25.19 14.55ZM27.86 0v13.01l-13.93 8.04-11.28-6.5L27.86 0Z"/></svg><svg viewBox="0 0 62 49" id="tn-truenas-logo-mark-color" xmlns="http://www.w3.org/2000/svg"><path fill="#35BEEB" d="M61.03 19.16v13.01L33.19 48.25V35.24l27.84-16.08Z"/><path fill="#0A95D3" d="M27.86 35.24v13L0 32.17v-13l12.59 7.26s.03.02.05.03l15.23 8.79-.01-.01Z"/><path fill="#AFADAE" d="m41.79 24.13-11.26 6.51-11.28-6.51 11.28-6.51 11.26 6.51Z"/><path fill="#0A95D3" d="m58.38 14.55-11.27 6.51-13.92-8.05V0l25.19 14.55Z"/><path fill="#35BEEB" d="M27.86 0v13.01l-13.93 8.04-11.28-6.5L27.86 0Z"/></svg><svg viewBox="0 0 216 44" id="tn-truenas-logo-type" xmlns="http://www.w3.org/2000/svg"><path d="M30.63 1.46v4.67H18.05V42.8H12.9V6.13H.32V1.46h30.31Zm16.23 17.85c-1.26-1.74-2.82-2.52-5.03-2.52-3.66 0-6.41 2.76-6.41 7.25v18.75h-4.79V12.84h4.79v2.94c1.26-2.1 3.29-3.42 6.95-3.42 4.07 0 6.65 1.38 8.57 4.07l-4.07 2.88h-.01Zm31.1 23.48h-4.79v-2.94c-1.5 2.28-3.59 3.41-8.03 3.41-6.41 0-10.9-3.36-10.9-11.74V12.84h4.79v18.63c0 6.05 3.29 7.37 6.83 7.37 4.49 0 7.31-3.18 7.31-7.31V12.84h4.79V42.8v-.01Zm28.39-4.55c-2.1 3.66-5.27 5.03-10.48 5.03-8.03 0-12.82-5.21-12.82-13.54v-3.95c0-8.51 4.01-13.42 11.86-13.42s11.86 4.85 11.86 13.42v3.12H87.84v.84c0 5.15 2.46 9.23 7.67 9.23 3.89 0 5.87-1.14 7.13-3.35l3.72 2.64-.01-.02ZM87.84 24.7h14.08c-.24-5.03-2.46-8.03-7.01-8.03s-6.77 3.06-7.07 8.03Zm56.31-23.24V42.8h-6.17l-16.83-28.1v28.1h-6.71V1.46h5.99l17.01 28.46V1.46h6.71Zm4.67 41.33L163.2 1.45h6.59l14.38 41.34h-7.37l-2.82-8.57h-14.92l-2.82 8.57h-7.43.01Zm12.17-14.55h11.02l-5.51-16.72-5.51 16.72Zm48.82-16.78c-2.04-2.82-4.25-4.49-8.93-4.49-4.25 0-6.77 1.92-6.77 5.39 0 3.95 3.12 5.51 8.87 6.77 8.33 1.8 12.64 4.91 12.64 12.34 0 6.17-4.13 11.86-14.08 11.86-7.07 0-12.04-2.16-15.46-6.77l5.45-3.77c2.46 2.94 4.91 4.49 9.65 4.49 5.69 0 7.49-2.52 7.49-5.51 0-3.3-1.86-5.33-9.05-6.89-7.97-1.68-12.46-5.51-12.46-12.52 0-6.23 4.07-11.44 13.78-11.44 6.59 0 11.2 2.22 14.14 6.77l-5.27 3.77Z"/></svg><svg viewBox="0 0 216 44" id="tn-truenas-logo-type-color" xmlns="http://www.w3.org/2000/svg"><path fill="#0A95D3" d="M30.63 1.46v4.67H18.05V42.8H12.9V6.13H.32V1.46h30.31Zm16.23 17.85c-1.26-1.74-2.82-2.52-5.03-2.52-3.66 0-6.41 2.76-6.41 7.25v18.75h-4.79V12.84h4.79v2.94c1.26-2.1 3.29-3.42 6.95-3.42 4.07 0 6.65 1.38 8.57 4.07l-4.07 2.88h-.01Zm31.1 23.48h-4.79v-2.94c-1.5 2.28-3.59 3.41-8.03 3.41-6.41 0-10.9-3.36-10.9-11.74V12.84h4.79v18.63c0 6.05 3.29 7.37 6.83 7.37 4.49 0 7.31-3.18 7.31-7.31V12.84h4.79V42.8v-.01Zm28.39-4.55c-2.1 3.66-5.27 5.03-10.48 5.03-8.03 0-12.82-5.21-12.82-13.54v-3.95c0-8.51 4.01-13.42 11.86-13.42s11.86 4.85 11.86 13.42v3.12H87.84v.84c0 5.15 2.46 9.23 7.67 9.23 3.89 0 5.87-1.14 7.13-3.35l3.72 2.64-.01-.02ZM87.84 24.7h14.08c-.24-5.03-2.46-8.03-7.01-8.03s-6.77 3.06-7.07 8.03Zm56.31-23.24V42.8h-6.17l-16.83-28.1v28.1h-6.71V1.46h5.99l17.01 28.46V1.46h6.71Zm4.67 41.33L163.2 1.45h6.59l14.38 41.34h-7.37l-2.82-8.57h-14.92l-2.82 8.57h-7.43.01Zm12.17-14.55h11.02l-5.51-16.72-5.51 16.72Zm48.82-16.78c-2.04-2.82-4.25-4.49-8.93-4.49-4.25 0-6.77 1.92-6.77 5.39 0 3.95 3.12 5.51 8.87 6.77 8.33 1.8 12.64 4.91 12.64 12.34 0 6.17-4.13 11.86-14.08 11.86-7.07 0-12.04-2.16-15.46-6.77l5.45-3.77c2.46 2.94 4.91 4.49 9.65 4.49 5.69 0 7.49-2.52 7.49-5.51 0-3.3-1.86-5.33-9.05-6.89-7.97-1.68-12.46-5.51-12.46-12.52 0-6.23 4.07-11.44 13.78-11.44 6.59 0 11.2 2.22 14.14 6.77l-5.27 3.77Z"/></svg><svg viewBox="0 0 24 24" id="tn-two-factor-auth" xmlns="http://www.w3.org/2000/svg"><path d="M2 7v2h4v2H4a2 2 0 0 0-2 2v4h6v-2H4v-2h2a2 2 0 0 0 2-2V9a2 2 0 0 0-2-2H2m7 0v10h2v-4h3v-2h-3V9h4V7H9m9 0a2 2 0 0 0-2 2v8h2v-3h2v3h2V9a2 2 0 0 0-2-2h-2m0 2h2v3h-2V9Z"/></svg></svg>