<svg width="24" height="24" viewBox="0 0 24 24" fill="none" xmlns="http://www.w3.org/2000/svg">
  <path d="M6 8C5.72 8 5.48 7.9 5.29 7.71C5.1 7.52 5 7.28 5 7C5 6.72 5.1 6.48 5.29 6.29C5.48 6.1 5.72 6 6 6H18C18.28 6 18.52 6.1 18.71 6.29C18.9 6.48 19 6.72 19 7C19 7.28 18.9 7.52 18.71 7.71C18.52 7.9 18.28 8 18 8H6ZM8 5C7.72 5 7.48 4.9 7.29 4.71C7.1 4.52 7 4.28 7 4C7 3.72 7.1 3.48 7.29 3.29C7.48 3.1 7.72 3 8 3H16C16.28 3 16.52 3.1 16.71 3.29C16.9 3.48 17 3.72 17 4C17 4.28 16.9 4.52 16.71 4.71C16.52 4.9 16.28 5 16 5H8ZM3 9L5 21H19L21 9H3ZM14.71 15.1C14.52 15.29 14.28 15.39 14 15.39H10C9.72 15.39 9.48 15.29 9.29 15.1C9.1 14.91 9 14.67 9 14.39C9 14.11 9.1 13.87 9.29 13.68C9.48 13.49 9.72 13.39 10 13.39H14C14.28 13.39 14.52 13.49 14.71 13.68C14.9 13.87 15 14.11 15 14.39C15 14.67 14.9 14.91 14.71 15.1Z" fill="currentColor"/>
</svg>
