<svg width="20" height="20" viewBox="0 0 20 20" fill="none" xmlns="http://www.w3.org/2000/svg">
<g clip-path="url(#clip0_82_5819)">
<mask id="mask0_82_5819" style="mask-type:luminance" maskUnits="userSpaceOnUse" x="0" y="0" width="20" height="20">
<path d="M20 0H0V20H20V0Z" fill="white"/>
<path d="M8.13867 8.2294C7.90711 7.82951 7.39747 7.68149 6.99284 7.90469L2.96196 10.121C2.16295 10.5604 1.6665 11.3999 1.6665 12.3117V13.8332V13.836C1.6665 15.6999 1.6665 15.8005 2.02946 16.5131C2.34897 17.1401 2.85915 17.6502 3.48616 17.9698C4.1992 18.3331 5.13332 18.3335 7.00016 18.3335H12.9995C14.8663 18.3335 15.8005 18.3331 16.5135 17.9698C17.1405 17.6502 17.6507 17.1401 17.9703 16.5131C18.3332 15.8005 18.3332 14.8674 18.3332 13.0026V12.9999V8.86904C18.3331 8.24465 17.6739 7.84353 17.1238 8.13907C15.0577 9.24921 12.3262 10.7862 11.0675 11.4976C10.6813 11.716 10.1918 11.5951 9.95592 11.2193C9.49017 10.4774 8.72934 9.24979 8.13867 8.2294Z" fill="black"/>
</mask>
<g mask="url(#mask0_82_5819)">
<path d="M2.5 7.00008C2.5 5.13324 2.5 4.19981 2.86331 3.48678C3.18289 2.85957 3.69282 2.34964 4.32003 2.03006C5.03307 1.66675 5.96649 1.66675 7.83333 1.66675H12.1667C14.0335 1.66675 14.9669 1.66675 15.68 2.03006C16.3072 2.34964 16.8171 2.85957 17.1367 3.48678C17.5 4.19981 17.5 5.13324 17.5 7.00008V9.66675C17.5 11.5336 17.5 12.467 17.1367 13.1801C16.8171 13.8072 16.3072 14.3172 15.68 14.6367C14.9669 15.0001 14.0335 15.0001 12.1667 15.0001H7.83333C5.96649 15.0001 5.03307 15.0001 4.32003 14.6367C3.69282 14.3172 3.18289 13.8072 2.86331 13.1801C2.5 12.467 2.5 11.5336 2.5 9.66675V7.00008Z" fill="white"/>
</g>
<mask id="mask1_82_5819" style="mask-type:luminance" maskUnits="userSpaceOnUse" x="1" y="7" width="18" height="12">
<path d="M8.13867 8.2294C7.90711 7.82951 7.39747 7.68149 6.99284 7.90469L2.96196 10.121C2.16295 10.5604 1.6665 11.3999 1.6665 12.3117V13.8332V13.836C1.6665 15.6999 1.6665 15.8005 2.02946 16.5131C2.34897 17.1401 2.85915 17.6502 3.48616 17.9698C4.1992 18.3331 5.13332 18.3335 7.00016 18.3335H12.9995C14.8663 18.3335 15.8005 18.3331 16.5135 17.9698C17.1405 17.6502 17.6507 17.1401 17.9703 16.5131C18.3332 15.8005 18.3332 14.8674 18.3332 13.0026V12.9999V8.86904C18.3331 8.24465 17.6739 7.84353 17.1238 8.13907C15.0577 9.24921 12.3262 10.7862 11.0675 11.4976C10.6813 11.716 10.1918 11.5951 9.95592 11.2193C9.49017 10.4774 8.72934 9.24979 8.13867 8.2294Z" fill="white"/>
</mask>
<g mask="url(#mask1_82_5819)">
<g filter="url(#filter0_f_82_5819)">
<path d="M2.5 7.00008C2.5 5.13324 2.5 4.19981 2.86331 3.48678C3.18289 2.85957 3.69282 2.34964 4.32003 2.03006C5.03307 1.66675 5.96649 1.66675 7.83333 1.66675H12.1667C14.0335 1.66675 14.9669 1.66675 15.68 2.03006C16.3072 2.34964 16.8171 2.85957 17.1367 3.48678C17.5 4.19981 17.5 5.13324 17.5 7.00008V9.66675C17.5 11.5336 17.5 12.467 17.1367 13.1801C16.8171 13.8072 16.3072 14.3172 15.68 14.6367C14.9669 15.0001 14.0335 15.0001 12.1667 15.0001H7.83333C5.96649 15.0001 5.03307 15.0001 4.32003 14.6367C3.69282 14.3172 3.18289 13.8072 2.86331 13.1801C2.5 12.467 2.5 11.5336 2.5 9.66675V7.00008Z" fill="white"/>
</g>
</g>
<path d="M8.13867 8.2294C7.90711 7.82951 7.39747 7.68149 6.99284 7.90469L2.96196 10.121C2.16295 10.5604 1.6665 11.3999 1.6665 12.3117V13.8332V13.836C1.6665 15.6999 1.6665 15.8005 2.02946 16.5131C2.34897 17.1401 2.85915 17.6502 3.48616 17.9698C4.1992 18.3331 5.13332 18.3335 7.00016 18.3335H12.9995C14.8663 18.3335 15.8005 18.3331 16.5135 17.9698C17.1405 17.6502 17.6507 17.1401 17.9703 16.5131C18.3332 15.8005 18.3332 14.8674 18.3332 13.0026V12.9999V8.86904C18.3331 8.24465 17.6739 7.84353 17.1238 8.13907C15.0577 9.24921 12.3262 10.7862 11.0675 11.4976C10.6813 11.716 10.1918 11.5951 9.95592 11.2193C9.49017 10.4774 8.72934 9.24979 8.13867 8.2294Z" fill="url(#paint0_linear_82_5819)"/>
<path d="M12.9995 17.7085V18.3335H7.00016V17.7085H12.9995ZM17.7082 13.0024V8.86904C17.7081 8.70838 17.5451 8.62238 17.4193 8.69004C15.3597 9.79663 12.6338 11.3307 11.3752 12.042C10.7017 12.4227 9.84259 12.2135 9.42692 11.5514C8.96042 10.8081 8.19402 9.57313 7.5975 8.54271C7.53216 8.42996 7.3942 8.39688 7.29476 8.45154L7.29395 8.45238L3.26319 10.6684C2.66401 10.9978 2.29161 11.6277 2.2915 12.3115V13.0024C2.2915 13.945 2.29183 14.6153 2.33464 15.1394C2.37684 15.6557 2.45711 15.9756 2.5861 16.229C2.84566 16.7385 3.26065 17.1535 3.77018 17.4131C4.0239 17.5424 4.34435 17.6223 4.86149 17.6646C5.38611 17.7075 6.05651 17.7085 7.00016 17.7085V18.3335L5.764 18.3279C4.7707 18.3121 4.13399 18.2535 3.62289 18.0341L3.48616 17.9698C2.93751 17.6901 2.47831 17.2647 2.15804 16.7425L2.02946 16.5131C1.6665 15.8005 1.6665 14.867 1.6665 13.0024V12.3115C1.6666 11.4567 2.10275 10.6653 2.8156 10.2078L2.96208 10.1207L6.99284 7.90469C7.39747 7.68149 7.90711 7.82951 8.13867 8.2294C8.72934 9.24979 9.49017 10.4774 9.95592 11.2193C10.1772 11.5718 10.6213 11.6998 10.9943 11.5342L11.0675 11.4976C12.0116 10.964 13.7842 9.96588 15.4833 9.03179L17.1238 8.13907C17.6739 7.84353 18.3331 8.24465 18.3332 8.86904V13.0024C18.3332 14.867 18.3332 15.8005 17.9703 16.5131L17.8417 16.7425C17.5213 17.2647 17.0622 17.6901 16.5135 17.9698L16.3768 18.0341C15.6798 18.3334 14.7494 18.3335 12.9995 18.3335V17.7085C13.9432 17.7085 14.6136 17.7075 15.1382 17.6646C15.6553 17.6223 15.9758 17.5424 16.2295 17.4131C16.739 17.1535 17.154 16.7385 17.4136 16.229C17.5426 15.9756 17.6228 15.6557 17.665 15.1394C17.7078 14.6153 17.7082 13.945 17.7082 13.0024Z" fill="url(#paint1_linear_82_5819)"/>
</g>
<defs>
<filter id="filter0_f_82_5819" x="-0.833333" y="-1.66659" width="21.6667" height="19.9999" filterUnits="userSpaceOnUse" color-interpolation-filters="sRGB">
<feFlood flood-opacity="0" result="BackgroundImageFix"/>
<feBlend mode="normal" in="SourceGraphic" in2="BackgroundImageFix" result="shape"/>
<feGaussianBlur stdDeviation="1.66667" result="effect1_foregroundBlur_82_5819"/>
</filter>
<linearGradient id="paint0_linear_82_5819" x1="9.99735" y1="18.3445" x2="9.99735" y2="7.93733" gradientUnits="userSpaceOnUse">
<stop stop-color="white" stop-opacity="0.4"/>
<stop offset="0.02" stop-color="#F3EDFF" stop-opacity="0.44"/>
<stop offset="0.12" stop-color="#CEB4FF" stop-opacity="0.59"/>
<stop offset="0.22" stop-color="#AE82FF" stop-opacity="0.72"/>
<stop offset="0.32" stop-color="#945AFF" stop-opacity="0.82"/>
<stop offset="0.44" stop-color="#803BFF" stop-opacity="0.9"/>
<stop offset="0.57" stop-color="#7125FF" stop-opacity="0.96"/>
<stop offset="0.73" stop-color="#6918FF" stop-opacity="0.99"/>
<stop offset="1" stop-color="#6715FF"/>
</linearGradient>
<linearGradient id="paint1_linear_82_5819" x1="13" y1="10.4783" x2="13" y2="22.4783" gradientUnits="userSpaceOnUse">
<stop stop-color="white" stop-opacity="0.4"/>
<stop offset="0.02" stop-color="#F3EDFF" stop-opacity="0.44"/>
<stop offset="0.12" stop-color="#CEB4FF" stop-opacity="0.59"/>
<stop offset="0.22" stop-color="#AE82FF" stop-opacity="0.72"/>
<stop offset="0.32" stop-color="#945AFF" stop-opacity="0.82"/>
<stop offset="0.44" stop-color="#803BFF" stop-opacity="0.9"/>
<stop offset="0.57" stop-color="#7125FF" stop-opacity="0.96"/>
<stop offset="0.73" stop-color="#6918FF" stop-opacity="0.99"/>
<stop offset="1" stop-color="#6715FF"/>
</linearGradient>
<clipPath id="clip0_82_5819">
<rect width="20" height="20" fill="white"/>
</clipPath>
</defs>
</svg>
