<svg width="20" height="20" viewBox="0 0 20 20" fill="none" xmlns="http://www.w3.org/2000/svg">
  <path d="M5.8 7.5C5.8 5.567 7.367 4 9.3 4H10.7C12.633 4 14.2 5.567 14.2 7.5V8.2H5.8V7.5Z" fill="white"/>
  <rect x="4.4" y="7.8" width="11.2" height="8" rx="3.2" fill="white"/>
  <circle cx="8" cy="10.6" r=".8" fill="#6715FF"/>
  <circle cx="12" cy="10.6" r=".8" fill="#6715FF"/>
  <path d="M8.4 13.1C9.45 13.7 10.55 13.7 11.6 13.1" stroke="#6715FF" stroke-width="1.2" stroke-linecap="round"/>
  <path d="M10 2.5V4.2" stroke="white" stroke-width="1.4" stroke-linecap="round"/>
  <circle cx="10" cy="2.35" r="1" fill="url(#harbor_assistant_active_ping)"/>
  <circle cx="14.2" cy="14" r="2.25" fill="url(#harbor_assistant_active_lens)" fill-opacity=".85"/>
  <circle cx="14.2" cy="14" r="1.2" fill="#6715FF" fill-opacity=".18"/>
  <path d="M15.65 15.45L18 17.8" stroke="white" stroke-width="1.35" stroke-linecap="round"/>
  <defs>
    <linearGradient id="harbor_assistant_active_ping" x1="10" y1="1.35" x2="10" y2="3.35" gradientUnits="userSpaceOnUse">
      <stop stop-color="white"/>
      <stop offset="1" stop-color="#CEB4FF"/>
    </linearGradient>
    <linearGradient id="harbor_assistant_active_lens" x1="12.2" y1="12" x2="17.1" y2="17" gradientUnits="userSpaceOnUse">
      <stop stop-color="white" stop-opacity=".95"/>
      <stop offset="1" stop-color="#CEB4FF"/>
    </linearGradient>
  </defs>
</svg>
