<?xml version="1.0" encoding="UTF-8" standalone="no"?>
<!DOCTYPE svg PUBLIC "-//W3C//DTD SVG 1.1//EN" "http://www.w3.org/Graphics/SVG/1.1/DTD/svg11.dtd">
<svg width="100%" height="100%" viewBox="0 0 32 32" version="1.1" xmlns="http://www.w3.org/2000/svg" xmlns:xlink="http://www.w3.org/1999/xlink" xml:space="preserve" xmlns:serif="http://www.serif.com/" style="fill-rule:evenodd;clip-rule:evenodd;stroke-linejoin:round;stroke-miterlimit:2;">
    <g transform="matrix(1.33333,0,0,1.33333,0,0)">
        <path d="M13.029,22L3,22C1.903,22 1,21.097 1,20L1,4C1,2.903 1.903,2 3,2L21,2C22.097,2 23,2.903 23,4L23,13.246L21,13.246L21,4L13,4L13,20L13.029,20L13.029,22ZM15,6L19,6L19,7.5L15,7.5L15,6ZM15,9L19,9L19,10.5L15,10.5L15,9ZM3,4L3,20L11,20L11,4L3,4ZM5,13L7,13L7,17L5,17L5,13ZM5,6L9,6L9,7.5L5,7.5L5,6ZM5,9L9,9L9,10.5L5,10.5L5,9Z"/>
      <g transform="matrix(1.33991,0,0,1.33991,-6.21874,-6.25177)">
            <path d="M20.41,19L22.54,21.12L21.12,22.54L19,20.41L16.88,22.54L15.47,21.12L17.59,19L15.47,16.88L16.88,15.47L19,17.59L21.12,15.47L22.54,16.88L20.41,19" style="fill-rule:nonzero;"/>
        </g>
    </g>
</svg>
