<?xml version="1.0" encoding="UTF-8" standalone="no"?>
<!DOCTYPE svg PUBLIC "-//W3C//DTD SVG 1.1//EN" "http://www.w3.org/Graphics/SVG/1.1/DTD/svg11.dtd">
<svg width="100%" height="100%" viewBox="0 0 32 32" version="1.1" xmlns="http://www.w3.org/2000/svg" xmlns:xlink="http://www.w3.org/1999/xlink" xml:space="preserve" xmlns:serif="http://www.serif.com/" style="fill-rule:evenodd;clip-rule:evenodd;stroke-linejoin:round;stroke-miterlimit:2;">
    <g transform="matrix(1.33333,0,0,1.33333,0,0)">
        <path d="M13.029,22L3,22C1.903,22 1,21.097 1,20L1,4C1,2.903 1.903,2 3,2L21,2C22.097,2 23,2.903 23,4L23,13.246L21,13.246L21,4L13,4L13,20L13.029,20L13.029,22ZM15,6L19,6L19,7.5L15,7.5L15,6ZM15,9L19,9L19,10.5L15,10.5L15,9ZM3,4L3,20L11,20L11,4L3,4ZM5,13L7,13L7,17L5,17L5,13ZM5,6L9,6L9,7.5L5,7.5L5,6ZM5,9L9,9L9,10.5L5,10.5L5,9Z"/>
      <g transform="matrix(0.823927,0.823927,-0.823927,0.823927,18.206,-10.5412)">
            <path d="M19,12L16.75,14.25L19,16.5L19,15C20.38,15 21.5,16.12 21.5,17.5C21.5,17.9 21.41,18.28 21.24,18.62L22.33,19.71C22.75,19.08 23,18.32 23,17.5C23,15.29 21.21,13.5 19,13.5L19,12M15.67,15.29C15.25,15.92 15,16.68 15,17.5C15,19.71 16.79,21.5 19,21.5L19,23L21.25,20.75L19,18.5L19,20C17.62,20 16.5,18.88 16.5,17.5C16.5,17.1 16.59,16.72 16.76,16.38L15.67,15.29Z" style="fill-rule:nonzero;"/>
        </g>
    </g>
</svg>
