<svg xmlns="http://www.w3.org/2000/svg" width="144" height="144" viewBox="0 0 38.1 38.1"><path d="m57.78 42.333-1.113 2.19-13.65 26.837a82.485 82.485 0 0 0 19.91-6.468c1.729-.815 3.377-1.707 5.006-2.608l-9.037-17.76ZM57.783 27.072l1.113-2.186L71.546.104A69.505 69.505 0 0 0 45.9 3.784l10.767 21.101z" data-name="logoMark &lt;PathItem&gt;" style="fill:#0096d6" transform="matrix(.26458 0 0 .26458 5.967 9.444)"/><path d="m53.698 34.83-.294-.573L39.064 6.35c-1.031.432-2.063.86-3.091 1.345C9.699 20.074-5.56 42.917 1.886 58.713 6.562 68.64 19.12 73.365 34.31 72.473l19.094-37.07ZM31.225 61.865h-6.338V28.557h6.338zm-3.15-38.866a3.249 3.249 0 0 1-3.25-3.248v-.009l.002-.007-.002-.017v-.015a3.2 3.2 0 0 1 3.203-3.2h.015l.017.001h.008l.008-.001a3.248 3.248 0 0 1 0 6.496z" data-name="logoMark &lt;CompoundPathItem&gt;" style="fill:#0096d6" transform="matrix(.26458 0 0 .26458 5.967 9.444)"/><path d="M79.15 1.186 62.166 34.257l-.29.57.294.575L74.09 58.55c19.198-12.85 29.235-31.281 22.923-44.673-3.064-6.5-9.528-10.752-17.865-12.69Z" data-name="logoMark &lt;PathItem&gt;" style="fill:#0096d6" transform="matrix(.26458 0 0 .26458 5.967 9.444)"/><path d="m61.877 34.827.29-.57L79.15 1.187c-.389-.092-.758-.205-1.154-.284a46.354 46.354 0 0 0-5.183-.726c-.416-.037-.846-.046-1.267-.073L58.896 24.886l-1.113 2.186-1.116-2.186L45.9 3.784c-.372.123-.743.226-1.116.356q-2.326.797-4.653 1.747c-.355.147-.711.314-1.066.463l14.34 27.907.293.573-.294.572L34.31 72.474c.45-.027.892-.041 1.347-.078q2.899-.23 5.911-.738c.477-.08.969-.208 1.449-.298l13.65-26.836 1.114-2.19 1.115 2.19 9.037 17.76c.335-.185.697-.347 1.027-.539q2.15-1.221 4.17-2.533c.33-.213.635-.444.961-.662l-11.92-23.148zM31.225 61.864V28.558h-6.338v33.306h1.16zM28.1 16.445h-.009l-.007.001a3.326 3.326 0 0 0-3.315 3.312l-.001.008-.001.009a3.33 3.33 0 1 0 3.333-3.33z" data-name="logoMark &lt;PathItem&gt;" style="fill:#fff" transform="matrix(.26458 0 0 .26458 5.967 9.444)"/></svg>
