<svg xmlns="http://www.w3.org/2000/svg" xml:space="preserve" style="enable-background:new 0 0 378 144" viewBox="0 0 378 144"><path d="M50.55 50.18h-.04c-1.77 0-3.2 1.43-3.2 3.2v.04a3.265 3.265 0 0 1 3.24-3.24zM144.88 77.33l-9.31-2.43c-2.25-.6-3.77-2.66-3.77-5.12.01-2.85 2.27-5.27 4.94-5.29h13.14v-3.33h-13.13c-5.03.01-8.97 3.79-8.97 8.62 0 4 2.77 7.31 7.07 8.43l9.04 2.29c2.52.64 4.07 2.65 4.05 5.26-.01 2.85-2.27 5.26-4.93 5.28h-14.53v3.34H143c5.03 0 8.96-3.79 8.96-8.62 0-3.94-2.85-7.33-7.08-8.43zM206.06 77.34l-9.32-2.44c-2.26-.6-3.77-2.66-3.77-5.12.01-2.85 2.27-5.27 4.94-5.29h13.13v-3.33h-13.13c-5.03 0-8.96 3.79-8.96 8.62 0 4 2.77 7.31 7.07 8.43l9.04 2.29c2.53.64 4.08 2.66 4.05 5.26-.01 2.84-2.27 5.26-4.93 5.28h-14.53v3.33h14.52c5.03 0 8.97-3.79 8.97-8.61-.01-3.94-2.85-7.33-7.08-8.42zM224.51 61.17V45.78l-4.03 1.28v38.77c0 4.79 3.94 8.54 8.96 8.55h3.4v-3.34h-3.4c-2.72-.01-4.93-2.35-4.93-5.21V64.49h8.34v-3.33h-8.34zM244.45 81.48l.17-.04 13.01-3.16c3.93-.9 6.99-4.64 6.98-8.49 0-4.83-3.94-8.61-8.96-8.62h-6.26c-5.03 0-8.97 3.79-8.97 8.62v11.95c0 7.09 5.53 12.65 12.58 12.65h10.22v-3.34H253c-4.71 0-8.55-3.87-8.55-8.62v-.95zm0-3.84v-7.85c0-2.9 2.22-5.27 4.94-5.29h6.26c2.67.02 4.92 2.44 4.93 5.28.01 2.57-1.53 4.62-3.85 5.12l-11.33 2.78-.68.17-.27.06v-.27zM336.58 77.34l-9.32-2.44c-2.26-.6-3.77-2.66-3.77-5.12.01-2.85 2.26-5.27 4.93-5.28h13.13v-3.33h-13.13c-5.03 0-8.96 3.79-8.96 8.62 0 3.99 2.77 7.31 7.07 8.43l9.04 2.29c2.52.65 4.07 2.67 4.04 5.26-.01 2.84-2.27 5.26-4.93 5.28h-14.53v3.33h14.53c5.02 0 8.96-3.79 8.96-8.61.02-3.95-2.82-7.34-7.06-8.43zM177.51 61.17h-.04v24.87c0 4.21-4.38 5.11-6.92 5.12-2.54-.01-6.92-.91-6.92-5.12V61.17h-4.02v24.6c0 7.15 6.1 9.06 10.92 9.08h.06c2.29-.01 4.86-.45 6.93-1.67v5.2c0 4.75-3.87 8.62-8.62 8.62h-7.37v3.33h7.23c7.04 0 12.77-5.58 12.79-12.44V61.12h-4.03v.05zM300.99 60.85h-.06c-3.15.01-6.83.84-9.01 3.4-2.18-2.56-5.86-3.39-9.01-3.4h-.06c-2.26.01-4.81.45-6.87 1.64v-2.83l-4.03 1.28-.01 33.59h4.03l.02-24.99c.09-4.1 4.39-4.99 6.9-5 2.53 0 6.92.91 6.92 5.11v24.87H294.05V69.66c0-4.2 4.38-5.11 6.92-5.11s6.92.91 6.92 5.11v24.87h4.02v-24.6c0-7.15-6.1-9.06-10.92-9.08zM80.27 76.01l-1.11 2.19-13.65 26.84a82.334 82.334 0 0 0 19.91-6.47c1.73-.81 3.38-1.71 5.01-2.61L81.39 78.2l-1.12-2.19zM80.28 60.75l1.11-2.19 12.65-24.78c-7.8-.48-16.62.71-25.65 3.68l10.77 21.1 1.12 2.19z" class="st2"/><path d="m76.19 68.5-.29-.57-14.34-27.91c-1.03.43-2.06.86-3.09 1.34-26.28 12.39-41.54 35.23-34.09 51.03 4.68 9.93 17.23 14.65 32.42 13.76l19.1-37.07.29-.58zM53.72 95.54h-6.34V62.23h6.34v33.31zm-3.15-38.87a3.25 3.25 0 0 1-3.25-3.25V53.36c0-1.77 1.43-3.2 3.2-3.2H50.58c1.79 0 3.24 1.45 3.25 3.25a3.267 3.267 0 0 1-3.26 3.26zM101.64 34.86 84.66 67.93l-.29.57.29.57 11.92 23.15c19.2-12.85 29.24-31.28 22.92-44.67-3.06-6.5-9.52-10.75-17.86-12.69zM344.55 61.81h1.82v4.87h.74v-4.87h1.82v-.66h-4.38zM353.95 61.15 352.63 65c-.13.39-.23.68-.29.89-.06-.18-.14-.45-.26-.82l-1.31-3.91h-1.1v5.53h.71v-4.71l1.6 4.71h.66l1.61-4.63v4.63h.71v-5.53h-1.01z" class="st2"/></svg>
