<svg xmlns="http://www.w3.org/2000/svg" width="376.444" height="142.618" viewBox="0 0 99.601 37.734"><path d="m122.384 43.66-9.315-2.431a5.158 5.158 0 0 1-3.766-5.118 5.226 5.226 0 0 1 4.938-5.287l13.135-.004v-3.332h-13.13a8.716 8.716 0 0 0-8.967 8.623c0 3.995 2.775 7.308 7.07 8.431l9.039 2.295a5.159 5.159 0 0 1 4.046 5.259 5.222 5.222 0 0 1-4.934 5.282h-14.529v3.336h14.525a8.709 8.709 0 0 0 8.962-8.623c.005-3.941-2.838-7.332-7.074-8.432z" style="fill:#fff" transform="matrix(.26458 0 0 .26458 5.82 8.722)"/><path d="m183.567 43.663-9.32-2.44a5.145 5.145 0 0 1-3.766-5.115 5.223 5.223 0 0 1 4.939-5.287l13.133-.002v-3.326H175.42a8.707 8.707 0 0 0-8.964 8.615c0 3.998 2.772 7.307 7.068 8.434l9.037 2.29a5.364 5.364 0 0 1-.885 10.546H167.15v3.332h14.523a8.71 8.71 0 0 0 8.966-8.614c0-3.951-2.842-7.337-7.072-8.433zM202.021 27.492V12.108l-4.029 1.28v38.775a8.689 8.689 0 0 0 8.964 8.551h3.404v-3.336h-3.404a5.098 5.098 0 0 1-4.935-5.215V30.82h8.339v-3.328h-8.339zM221.96 47.81l.169-.041 13.007-3.164a9.119 9.119 0 0 0 6.983-8.494 8.709 8.709 0 0 0-8.962-8.618h-6.256a8.709 8.709 0 0 0-8.966 8.618v11.953a12.49 12.49 0 0 0 12.577 12.65h10.217v-3.336h-10.217a8.598 8.598 0 0 1-8.551-8.623zm0-3.848v-7.851a5.157 5.157 0 0 1 4.94-5.291l6.257.004a5.218 5.218 0 0 1 4.933 5.284 4.984 4.984 0 0 1-3.854 5.12l-11.326 2.784-.678.167-.271.064zM314.09 43.663l-9.317-2.44a5.143 5.143 0 0 1-3.765-5.115 5.215 5.215 0 0 1 4.932-5.284l13.133-.004v-3.33H305.94a8.706 8.706 0 0 0-8.96 8.618c0 3.993 2.771 7.307 7.066 8.434l9.044 2.29a5.365 5.365 0 0 1-.887 10.546h-14.531v3.332h14.527a8.706 8.706 0 0 0 8.961-8.614c.002-3.946-2.837-7.337-7.07-8.433zM155.013 27.492h-.045v24.87c0 4.21-4.381 5.11-6.916 5.12-2.537-.01-6.92-.91-6.92-5.12v-24.87h-4.025l-.004 24.604c0 7.147 6.097 9.058 10.918 9.075v.005c.009 0 .018-.005.031-.005h.028a14.03 14.03 0 0 0 6.934-1.674v5.204a8.627 8.627 0 0 1-8.618 8.619h-7.369v3.332h7.229a12.649 12.649 0 0 0 12.786-12.44V27.445h-4.029zM278.5 27.176v-.003c-.01 0-.018.003-.03.003h-.029c-3.145.01-6.827.841-9.011 3.399-2.181-2.558-5.864-3.388-9.012-3.399v-.003c-.01 0-.018.003-.027.003h-.032a14.104 14.104 0 0 0-6.871 1.639v-2.827l-4.027 1.28-.015 33.587h4.026l.016-24.989c.09-4.096 4.39-4.992 6.903-4.997 2.534.005 6.915.91 6.915 5.115v24.87h4.247v-24.87c0-4.205 4.381-5.11 6.917-5.115 2.538.005 6.92.91 6.92 5.115v24.87h4.023l.005-24.6c0-7.148-6.097-9.06-10.917-9.078z" data-name="fullLogo" style="fill:#fff" transform="matrix(.26458 0 0 .26458 5.82 8.722)"/><path d="m57.78 42.333-1.113 2.19-13.65 26.837a82.485 82.485 0 0 0 19.91-6.468c1.729-.815 3.377-1.707 5.006-2.608l-9.037-17.76ZM57.783 27.072l1.113-2.186L71.546.104A69.505 69.505 0 0 0 45.9 3.784l10.767 21.101z" data-name="logoMark &lt;PathItem&gt;" style="fill:#0096d6" transform="matrix(.26458 0 0 .26458 5.82 8.722)"/><path d="m53.698 34.83-.294-.573L39.064 6.35c-1.031.432-2.063.86-3.091 1.345C9.699 20.074-5.56 42.917 1.886 58.713 6.562 68.64 19.12 73.365 34.31 72.473l19.094-37.07ZM31.225 61.865h-6.338V28.557h6.338zm-3.15-38.866a3.249 3.249 0 0 1-3.25-3.248v-.009l.002-.007-.002-.017v-.015a3.2 3.2 0 0 1 3.203-3.2h.015l.017.001h.008l.008-.001a3.248 3.248 0 0 1 0 6.496z" data-name="logoMark &lt;CompoundPathItem&gt;" style="fill:#0096d6" transform="matrix(.26458 0 0 .26458 5.82 8.722)"/><path d="M79.15 1.186 62.166 34.257l-.29.57.294.575L74.09 58.55c19.198-12.85 29.235-31.281 22.923-44.673-3.064-6.5-9.528-10.752-17.865-12.69Z" data-name="logoMark &lt;PathItem&gt;" style="fill:#0096d6" transform="matrix(.26458 0 0 .26458 5.82 8.722)"/><path d="m61.877 34.827.29-.57L79.15 1.187c-.389-.092-.758-.205-1.154-.284a46.354 46.354 0 0 0-5.183-.726c-.416-.037-.846-.046-1.267-.073L58.896 24.886l-1.113 2.186-1.116-2.186L45.9 3.784c-.372.123-.743.226-1.116.356q-2.326.797-4.653 1.747c-.355.147-.711.314-1.066.463l14.34 27.907.293.573-.294.572L34.31 72.474c.45-.027.892-.041 1.347-.078q2.899-.23 5.911-.738c.477-.08.969-.208 1.449-.298l13.65-26.836 1.114-2.19 1.115 2.19 9.037 17.76c.335-.185.697-.347 1.027-.539q2.15-1.221 4.17-2.533c.33-.213.635-.444.961-.662l-11.92-23.148zM31.225 61.864V28.558h-6.338v33.306h1.16zM28.1 16.445h-.009l-.007.001a3.326 3.326 0 0 0-3.315 3.312l-.001.008-.001.009a3.33 3.33 0 1 0 3.333-3.33z" data-name="logoMark &lt;PathItem&gt;" style="fill:#fff" transform="matrix(.26458 0 0 .26458 5.82 8.722)"/><path d="M323.88 28.134v4.874h.732v-4.874h1.828v-.653h-4.382v.653zM331.459 27.48l-1.323 3.847c-.135.39-.231.684-.294.886q-.084-.272-.263-.818l-1.31-3.914h-1.101v5.527h.705v-4.706l1.6 4.706h.659l1.606-4.625v4.625h.706v-5.527z" data-name="fullLogo" style="fill:#fff" transform="matrix(.26458 0 0 .26458 5.82 8.722)"/></svg>
