<svg xmlns="http://www.w3.org/2000/svg" xml:space="preserve" width="144" height="144"><path d="M50.55 50.18h-.04c-1.77 0-3.2 1.43-3.2 3.2v.04a3.265 3.265 0 0 1 3.24-3.24zM80.27 76.01l-1.11 2.19-13.65 26.84a82.334 82.334 0 0 0 19.91-6.47c1.73-.81 3.38-1.71 5.01-2.61L81.39 78.2ZM80.28 60.75l1.11-2.19 12.65-24.78c-7.8-.48-16.62.71-25.65 3.68l10.77 21.1z" class="st2"/><path d="m76.19 68.5-.29-.57-14.34-27.91c-1.03.43-2.06.86-3.09 1.34-26.28 12.39-41.54 35.23-34.09 51.03 4.68 9.93 17.23 14.65 32.42 13.76l19.1-37.07ZM53.72 95.54h-6.34V62.23h6.34zm-3.15-38.87a3.25 3.25 0 0 1-3.25-3.25V53.36c0-1.77 1.43-3.2 3.2-3.2H50.58c1.79 0 3.24 1.45 3.25 3.25a3.267 3.267 0 0 1-3.26 3.26zM101.64 34.86 84.66 67.93l-.29.57.29.57 11.92 23.15c19.2-12.85 29.24-31.28 22.92-44.67-3.06-6.5-9.52-10.75-17.86-12.69zM347.11 61.81h1.82v-.66h-4.38v.66h1.82v4.87h.74zM353.95 61.15 352.63 65c-.13.39-.23.68-.29.89-.06-.18-.14-.45-.26-.82l-1.31-3.91h-1.1v5.53h.71v-4.71l1.6 4.71h.66l1.61-4.63v4.63h.71v-5.53h-1.01z" class="st2"/></svg>