<svg width="240" height="240" xmlns="http://www.w3.org/2000/svg">
  <path d="m14.76674,17.84909l-14.30914,-14.30914l1.54752,-1.53662l20.03061,20.04151l-1.53662,1.53662l-5.73237,-5.73237z"/>
  <path d="m8.10983,0.40417l-2.29984,2.35768l3.60388,3.60388l0,-0.84203l3.77229,0.01684l-5.07633,-5.13637z"/>
  <path d="m6.82995,9.90225l2.58392,2.61028l0,2.03771l-2.59344,0l0.00952,-4.64799z" />
  <path d="m14.53827,9.44802l2.58501,-0.02014l0,4.63336l-2.59871,-2.57856l0.0137,-2.03465l0,-0.00001z" />
  <path d="m18.18945,21.25942l-2.36598,2.33226l-5.16685,-5.18479l3.85719,0l0,-0.82526l3.67564,3.67779z" />
</svg>