<?xml version="1.0" encoding="UTF-8" standalone="no"?>
<!DOCTYPE svg PUBLIC "-//W3C//DTD SVG 1.1//EN" "http://www.w3.org/Graphics/SVG/1.1/DTD/svg11.dtd">
<svg width="100%" height="100%" viewBox="0 0 24 24" version="1.1" xmlns="http://www.w3.org/2000/svg" xmlns:xlink="http://www.w3.org/1999/xlink" xml:space="preserve" xmlns:serif="http://www.serif.com/" style="fill-rule:evenodd;clip-rule:evenodd;stroke-linejoin:round;stroke-miterlimit:2;">
    <g id="iscsi-share" transform="matrix(1,0,0,1,3542,-3160.5)">
        <path d="M-3527.6,3184.5L-3532.4,3184.5C-3533.06,3184.5 -3533.6,3183.96 -3533.6,3183.3L-3542,3183.3L-3542,3180.9L-3533.6,3180.9C-3533.6,3180.24 -3533.06,3179.7 -3532.4,3179.7L-3531.2,3179.7L-3531.2,3177.3L-3538.4,3177.3C-3539.72,3177.3 -3540.8,3176.22 -3540.8,3174.9L-3540.8,3162.9C-3540.8,3161.58 -3539.72,3160.5 -3538.4,3160.5L-3531.2,3160.5L-3528.8,3162.9L-3521.6,3162.9C-3520.28,3162.9 -3519.2,3163.98 -3519.2,3165.3L-3519.2,3174.9C-3519.2,3176.22 -3520.28,3177.3 -3521.6,3177.3L-3528.8,3177.3L-3528.8,3179.7L-3527.6,3179.7C-3526.94,3179.7 -3526.4,3180.24 -3526.4,3180.9L-3518,3180.9L-3518,3183.3L-3526.4,3183.3C-3526.4,3183.96 -3526.94,3184.5 -3527.6,3184.5ZM-3520.86,3172.24C-3521.22,3172.27 -3521.57,3172.29 -3521.9,3172.29C-3522.24,3172.29 -3522.47,3172.2 -3522.6,3172.04C-3522.72,3171.88 -3522.79,3171.63 -3522.79,3171.28L-3520.57,3171.28L-3520.52,3170.63C-3520.52,3169.36 -3521.02,3168.72 -3522.03,3168.72C-3523.06,3168.72 -3523.58,3169.46 -3523.58,3170.94C-3523.58,3171.69 -3523.46,3172.23 -3523.23,3172.57C-3523,3172.91 -3522.62,3173.08 -3522.09,3173.08C-3521.67,3173.08 -3521.19,3173.01 -3520.64,3172.89L-3520.66,3172.21L-3520.86,3172.24ZM-3521.29,3170.58L-3522.8,3170.58C-3522.79,3170.19 -3522.73,3169.9 -3522.61,3169.73C-3522.49,3169.56 -3522.29,3169.47 -3522.03,3169.47C-3521.76,3169.47 -3521.57,3169.56 -3521.46,3169.72C-3521.34,3169.88 -3521.29,3170.17 -3521.29,3170.58ZM-3529.43,3172.99L-3528.63,3172.99L-3528.63,3168.3L-3528.52,3168.3L-3527.36,3172.75L-3526.53,3172.75L-3525.38,3168.3L-3525.27,3168.3L-3525.27,3172.99L-3524.47,3172.99L-3524.47,3167.27L-3525.85,3167.27L-3526.95,3171.74L-3528.04,3167.27L-3529.43,3167.27L-3529.43,3172.99ZM-3538.73,3172.99L-3537.93,3172.99L-3537.93,3168.08L-3537.83,3168.08L-3536.31,3172.99L-3534.95,3172.99L-3534.95,3167.27L-3535.74,3167.27L-3535.74,3172.17L-3535.85,3172.17L-3537.34,3167.27L-3538.73,3167.27L-3538.73,3172.99ZM-3531.04,3167.27L-3532.01,3172.17L-3532.37,3172.17L-3533.34,3167.27L-3534.17,3167.27L-3532.97,3172.99L-3531.41,3172.99L-3530.2,3167.27L-3531.04,3167.27Z"/>
    </g>
</svg>
