<?xml version="1.0" encoding="UTF-8" standalone="no"?>
<!DOCTYPE svg PUBLIC "-//W3C//DTD SVG 1.1//EN" "http://www.w3.org/Graphics/SVG/1.1/DTD/svg11.dtd">
<svg width="100%" height="100%" viewBox="0 0 24 24" version="1.1" xmlns="http://www.w3.org/2000/svg" xmlns:xlink="http://www.w3.org/1999/xlink" xml:space="preserve" xmlns:serif="http://www.serif.com/" style="fill-rule:evenodd;clip-rule:evenodd;stroke-linejoin:round;stroke-miterlimit:2;">
    <g transform="matrix(0.186114,0,0,0.186114,7.04646,15.6216)">
        <g transform="matrix(1,0,0,1,-31,-24.5)">
            <path d="M61.03,19.16L61.03,32.17L33.19,48.25L33.19,35.24L61.03,19.16ZM27.86,35.24L27.86,48.24L0,32.17L0,19.17L12.59,26.43C12.59,26.43 12.62,26.45 12.64,26.46L27.87,35.25L27.86,35.24ZM41.79,24.13L30.53,30.64L19.25,24.13L30.53,17.62L41.79,24.13ZM58.38,14.55L47.11,21.06L33.19,13.01L33.19,0L58.38,14.55ZM27.86,0L27.86,13.01L13.93,21.05L2.65,14.55L27.86,0Z" style="fill-rule:nonzero;"/>
        </g>
    </g>
    <g transform="matrix(0.186114,0,0,0.186114,17.5609,8.86895)">
        <g transform="matrix(1,0,0,1,-31,-24.5)">
            <path d="M61.03,19.16L61.03,32.17L33.19,48.25L33.19,35.24L61.03,19.16ZM27.86,35.24L27.86,48.24L0,32.17L0,19.17L12.59,26.43C12.59,26.43 12.62,26.45 12.64,26.46L27.87,35.25L27.86,35.24ZM41.79,24.13L30.53,30.64L19.25,24.13L30.53,17.62L41.79,24.13ZM58.38,14.55L47.11,21.06L33.19,13.01L33.19,0L58.38,14.55ZM27.86,0L27.86,13.01L13.93,21.05L2.65,14.55L27.86,0Z" style="fill-rule:nonzero;"/>
        </g>
    </g>
</svg>
