<svg aria-labelledby="ix-ssd-mirror" role="img" viewBox="115 15.3 60 71">
    <path d="M 132.895 15.383 L 140.145 15.383 L 140.145 19.883 C 140.145 22.104 141.945 23.904 144.166 23.904 L 157.191 23.904 C 159.412 23.904 161.212 22.104 161.212 19.883 L 161.212 15.383 L 168.463 15.383 C 171.537 15.383 174.029 17.875 174.029 20.949 L 174.029 69.064 C 174.029 72.138 171.537 74.63 168.463 74.63 L 132.895 74.63 C 129.821 74.63 127.329 72.138 127.329 69.064 L 127.329 20.949 C 127.329 17.875 129.821 15.383 132.895 15.383 Z M 143.388 15.658 L 150.88 15.658 C 151.354 15.658 151.739 16.043 151.739 16.517 L 151.739 20.367 C 151.739 20.841 151.354 21.226 150.88 21.226 L 143.388 21.226 C 142.914 21.226 142.529 20.841 142.529 20.367 L 142.529 16.517 C 142.529 16.043 142.914 15.658 143.388 15.658 Z M 155.063 15.658 L 157.521 15.658 C 158.123 15.658 158.611 16.146 158.611 16.748 L 158.611 20.162 C 158.611 20.764 158.123 21.252 157.521 21.252 L 155.063 21.252 C 154.461 21.252 153.973 20.764 153.973 20.162 L 153.973 16.748 C 153.973 16.146 154.461 15.658 155.063 15.658 Z M 135.812 39.088 L 135.812 59.5 C 135.812 62.22 138.017 64.425 140.737 64.425 L 160.622 64.425 C 163.342 64.425 165.547 62.22 165.547 59.5 L 165.547 39.088 C 165.547 36.368 163.342 34.163 160.622 34.163 L 140.737 34.163 C 138.017 34.163 135.812 36.368 135.812 39.088 Z M 140.066 36.834 L 161.293 36.834 C 162.345 36.834 163.197 37.686 163.197 38.738 L 163.197 59.85 C 163.197 60.902 162.345 61.754 161.293 61.754 L 140.066 61.754 C 139.014 61.754 138.162 60.902 138.162 59.85 L 138.162 38.738 C 138.162 37.686 139.014 36.834 140.066 36.834 Z M 167.65 20.027 C 166.469 20.027 165.512 20.984 165.512 22.165 C 165.512 23.346 166.469 24.303 167.65 24.303 C 168.831 24.303 169.788 23.346 169.788 22.165 C 169.788 20.984 168.831 20.027 167.65 20.027 Z M 167.65 65.71 C 166.469 65.71 165.512 66.667 165.512 67.848 C 165.512 69.029 166.469 69.986 167.65 69.986 C 168.831 69.986 169.788 69.029 169.788 67.848 C 169.788 66.667 168.831 65.71 167.65 65.71 Z M 133.708 65.71 C 132.527 65.71 131.57 66.667 131.57 67.848 C 131.57 69.029 132.527 69.986 133.708 69.986 C 134.889 69.986 135.846 69.029 135.846 67.848 C 135.846 66.667 134.889 65.71 133.708 65.71 Z M 133.708 20.027 C 132.527 20.027 131.57 20.984 131.57 22.165 C 131.57 23.346 132.527 24.303 133.708 24.303 C 134.889 24.303 135.846 23.346 135.846 22.165 C 135.846 20.984 134.889 20.027 133.708 20.027 Z M 118.868 31.077 L 122.426 31.077 L 122.426 80.589 L 158.743 80.589 L 158.743 83.092 C 158.743 84.958 157.23 86.471 155.364 86.471 L 118.868 86.471 C 117.002 86.471 115.489 84.958 115.489 83.092 L 115.489 34.456 C 115.489 32.59 117.002 31.077 118.868 31.077 Z" style="fill: rgb(216, 216, 216);"></path>
</svg>
