<svg xmlns="http://www.w3.org/2000/svg" viewBox="0 0 294 90">
  <g clip-path="url(#a)">
    <path
      d="M108.63 3.46v4.67H96.05V44.8H90.9V8.13H78.32V3.46h30.31Zm16.23 17.85c-1.26-1.74-2.82-2.52-5.03-2.52-3.66 0-6.41 2.76-6.41 7.25v18.75h-4.79V14.84h4.79v2.94c1.26-2.1 3.29-3.42 6.95-3.42 4.07 0 6.65 1.38 8.57 4.07l-4.07 2.88h-.01Zm31.1 23.48h-4.79v-2.94c-1.5 2.28-3.59 3.41-8.03 3.41-6.41 0-10.9-3.36-10.9-11.74V14.84h4.79v18.63c0 6.05 3.29 7.37 6.83 7.37 4.49 0 7.31-3.18 7.31-7.31V14.84h4.79V44.8v-.01Zm28.39-4.55c-2.1 3.66-5.27 5.03-10.48 5.03-8.03 0-12.82-5.21-12.82-13.54v-3.95c0-8.51 4.01-13.42 11.86-13.42s11.86 4.85 11.86 13.42v3.12h-18.93v.84c0 5.15 2.46 9.23 7.67 9.23 3.89 0 5.87-1.14 7.13-3.35l3.72 2.64-.01-.02ZM165.84 26.7h14.08c-.24-5.03-2.46-8.03-7.01-8.03s-6.77 3.06-7.07 8.03Zm56.31-23.24V44.8h-6.17l-16.83-28.1v28.1h-6.71V3.46h5.99l17.01 28.46V3.46h6.71Zm4.67 41.33L241.2 3.45h6.59l14.38 41.34h-7.37l-2.82-8.57h-14.92l-2.82 8.57h-7.43.01Zm12.17-14.55h11.02l-5.51-16.72-5.51 16.72Zm48.82-16.78c-2.04-2.82-4.25-4.49-8.93-4.49-4.25 0-6.77 1.92-6.77 5.39 0 3.95 3.12 5.51 8.87 6.77 8.33 1.8 12.64 4.91 12.64 12.34 0 6.17-4.13 11.86-14.08 11.86-7.07 0-12.04-2.16-15.46-6.77l5.45-3.77c2.46 2.94 4.91 4.49 9.65 4.49 5.69 0 7.49-2.52 7.49-5.51 0-3.3-1.86-5.33-9.05-6.89-7.97-1.68-12.46-5.51-12.46-12.52 0-6.23 4.07-11.44 13.78-11.44 6.59 0 11.2 2.22 14.14 6.77l-5.27 3.77ZM61.03 19.16v13.01L33.19 48.25V35.24l27.84-16.08ZM27.86 35.24v13L0 32.17v-13l12.59 7.26s.03.02.05.03l15.23 8.79-.01-.01ZM41.79 24.13l-11.26 6.51-11.28-6.51 11.28-6.51 11.26 6.51ZM58.38 14.55l-11.27 6.51-13.92-8.05V0l25.19 14.55ZM27.86 0v13.01l-13.93 8.04-11.28-6.5L27.86 0ZM231.39 71.03c.61-.26 1.06-.65 1.35-1.15.29-.5.43-1.11.43-1.82s-.14-1.33-.43-1.85-.74-.92-1.35-1.2c-.61-.28-1.42-.42-2.41-.42h-3.78v6.84h3.82c.97 0 1.77-.13 2.38-.4h-.01Zm-40.74 0c.61-.26 1.06-.65 1.35-1.15.29-.5.43-1.11.43-1.82s-.14-1.33-.43-1.85-.74-.92-1.35-1.2c-.61-.28-1.42-.42-2.41-.42h-3.78v6.84h3.82c.97 0 1.77-.13 2.38-.4h-.01Zm20.45-5.97c-.61-.31-1.42-.47-2.42-.47h-3.78v7.38h3.82c.98 0 1.78-.16 2.39-.48.61-.32 1.06-.76 1.35-1.32.29-.56.43-1.19.43-1.91s-.14-1.35-.43-1.9c-.29-.55-.74-.99-1.35-1.3h-.01Z" />
    <path
      d="M90.89 54.11v35h203v-35h-203Zm20.73 26.91H98.99V62.15h12.52v2.45h-9.5v5.75h8.85v2.44h-8.85v5.78h9.62v2.45h-.01Zm22.77 0h-2.77l-10.15-13.84h-.19v13.84h-3.01V62.15h2.79l10.16 13.86h.19V62.15h2.98v18.87Zm21.6-16.42h-6.23v16.42h-3V64.6h-6.22v-2.45h15.45v2.45Zm18.78 16.42h-12.63V62.15h12.52v2.45h-9.5v5.75h8.85v2.44h-8.85v5.78h9.62v2.45h-.01Zm18.02 0-4.06-7.15h-4.28v7.14h-3.01V62.14h7.12c1.55 0 2.83.25 3.86.76 1.02.5 1.79 1.2 2.3 2.09.51.89.76 1.91.76 3.07s-.26 2.17-.77 3.05c-.51.88-1.28 1.56-2.3 2.04-.19.09-.39.16-.6.23l4.42 7.64h-3.44Zm22.35-9.63c-.51.92-1.28 1.66-2.3 2.19-1.02.54-2.31.81-3.86.81h-4.09v6.64h-3.01V62.16H209c1.55 0 2.84.27 3.86.8s1.78 1.26 2.29 2.19c.51.92.76 1.96.76 3.12 0 1.16-.26 2.2-.77 3.13v-.01Zm18.39 9.63-4.06-7.15h-4.28v7.14h-3.01V62.14h7.12c1.55 0 2.83.25 3.86.76 1.02.5 1.79 1.2 2.3 2.09.51.89.76 1.91.76 3.07s-.26 2.17-.77 3.05c-.51.88-1.28 1.56-2.3 2.04-.19.09-.39.16-.6.23l4.42 7.64h-3.44Zm12.1 0h-3.01V62.15h3.01v18.87Zm20.33-2.37c-.58.83-1.42 1.48-2.52 1.96s-2.43.72-3.99.72-2.79-.22-3.88-.67c-1.09-.45-1.95-1.09-2.56-1.91-.62-.83-.96-1.81-1.02-2.94h3.02c.06.68.29 1.25.71 1.7.41.45.94.79 1.59 1 .65.22 1.36.33 2.13.33.85 0 1.61-.13 2.28-.38.67-.25 1.19-.61 1.57-1.07.38-.46.58-.99.58-1.61 0-.56-.17-1.02-.5-1.37-.33-.36-.79-.65-1.35-.88-.57-.23-1.21-.44-1.93-.62l-2.36-.61c-1.6-.41-2.86-1.02-3.8-1.82-.93-.8-1.4-1.86-1.4-3.17 0-1.09.31-2.04.94-2.85.62-.81 1.47-1.44 2.53-1.89 1.07-.45 2.27-.68 3.61-.68 1.34 0 2.55.22 3.58.67 1.04.45 1.85 1.06 2.45 1.85.6.78.91 1.68.94 2.7h-2.9c-.1-.87-.53-1.55-1.29-2.03-.75-.48-1.7-.72-2.85-.72-.82 0-1.53.12-2.12.36-.6.24-1.06.57-1.39 1-.33.43-.49.9-.49 1.43 0 .45.11.84.34 1.16.22.33.52.6.89.82.37.22.76.4 1.18.54.42.14.83.26 1.22.35l1.95.48c.64.15 1.29.35 1.96.6.67.25 1.29.58 1.86 1 .57.41 1.03.92 1.39 1.53.35.61.53 1.34.53 2.18 0 1.07-.29 2.02-.87 2.85l-.03-.01Zm19.84 2.37h-12.63V62.15h12.52v2.45h-9.5v5.75h8.85v2.44h-8.85v5.78h9.62v2.45h-.01Z" />
  </g>
  <defs>
    <clipPath id="a">
      <path d="M0 0h293.89v89.11H0z" />
    </clipPath>
  </defs>
</svg>
