<?xml version="1.0" encoding="UTF-8" standalone="no"?>
<!DOCTYPE svg PUBLIC "-//W3C//DTD SVG 1.1//EN" "http://www.w3.org/Graphics/SVG/1.1/DTD/svg11.dtd">
<svg width="100%" height="100%" viewBox="0 0 24 24" version="1.1" xmlns="http://www.w3.org/2000/svg" xmlns:xlink="http://www.w3.org/1999/xlink" xml:space="preserve" xmlns:serif="http://www.serif.com/" style="fill-rule:evenodd;clip-rule:evenodd;stroke-linejoin:round;stroke-miterlimit:2;">
    <path d="M6.5,20C4.98,20 3.683,19.477 2.61,18.43C1.537,17.377 1,16.093 1,14.58C1,13.28 1.39,12.12 2.17,11.1C2.957,10.08 3.983,9.43 5.25,9.15C5.67,7.617 6.503,6.377 7.75,5.43C9.003,4.477 10.42,4 12,4C13.953,4 15.607,4.68 16.96,6.04C18.32,7.393 19,9.047 19,11C20.153,11.133 21.107,11.633 21.86,12.5C22.62,13.353 23,14.353 23,15.5C23,16.753 22.563,17.817 21.69,18.69C20.817,19.563 19.753,20 18.5,20M6.5,18L18.5,18C19.2,18 19.79,17.757 20.27,17.27C20.757,16.79 21,16.2 21,15.5C21,14.8 20.757,14.21 20.27,13.73C19.79,13.243 19.2,13 18.5,13L17,13L17,11C17,9.62 16.513,8.44 15.54,7.46C14.567,6.487 13.387,6 12,6C10.62,6 9.44,6.487 8.46,7.46C7.487,8.44 7,9.62 7,11L6.5,11C5.533,11 4.71,11.343 4.03,12.03C3.343,12.71 3,13.533 3,14.5C3,15.467 3.343,16.3 4.03,17C4.71,17.667 5.533,18 6.5,18" style="fill-rule:nonzero;"/>
    <g transform="matrix(0.135117,0,0,0.135117,11.9087,13.5272)">
        <g transform="matrix(1,0,0,1,-31,-24.5)">
            <path d="M61.03,19.16L61.03,32.17L33.19,48.25L33.19,35.24L61.03,19.16ZM27.86,35.24L27.86,48.24L0,32.17L0,19.17L12.59,26.43C12.59,26.43 12.62,26.45 12.64,26.46L27.87,35.25L27.86,35.24ZM41.79,24.13L30.53,30.64L19.25,24.13L30.53,17.62L41.79,24.13ZM58.38,14.55L47.11,21.06L33.19,13.01L33.19,0L58.38,14.55ZM27.86,0L27.86,13.01L13.93,21.05L2.65,14.55L27.86,0Z" style="fill-rule:nonzero;"/>
        </g>
    </g>
</svg>
