<svg viewBox="0 0 294 83" xmlns="http://www.w3.org/2000/svg"><g clip-path="url(#a)"><path d="M108.63 3.46v4.67H96.05V44.8H90.9V8.13H78.32V3.46h30.31ZM124.86 21.31c-1.26-1.74-2.82-2.52-5.03-2.52-3.66 0-6.41 2.76-6.41 7.25v18.75h-4.79V14.84h4.79v2.94c1.26-2.1 3.29-3.42 6.95-3.42 4.07 0 6.65 1.38 8.57 4.07l-4.07 2.88h-.01ZM155.96 44.79h-4.79v-2.94c-1.5 2.28-3.59 3.41-8.03 3.41-6.41 0-10.9-3.36-10.9-11.74V14.84h4.79v18.63c0 6.05 3.29 7.37 6.83 7.37 4.49 0 7.31-3.18 7.31-7.31V14.84h4.79V44.8v-.01ZM184.35 40.24c-2.1 3.66-5.27 5.03-10.48 5.03-8.03 0-12.82-5.21-12.82-13.54v-3.95c0-8.51 4.01-13.42 11.86-13.42s11.86 4.85 11.86 13.42v3.12h-18.93v.84c0 5.15 2.46 9.23 7.67 9.23 3.89 0 5.87-1.14 7.13-3.35l3.72 2.64-.01-.02ZM165.84 26.7h14.08c-.24-5.03-2.46-8.03-7.01-8.03s-6.77 3.06-7.07 8.03ZM222.15 3.46V44.8h-6.17l-16.83-28.1v28.1h-6.71V3.46h5.99l17.01 28.46V3.46h6.71ZM226.82 44.79 241.2 3.45h6.59l14.38 41.34h-7.37l-2.82-8.57h-14.92l-2.82 8.57h-7.43.01Zm12.17-14.55h11.02l-5.51-16.72-5.51 16.72ZM287.81 13.46c-2.04-2.82-4.25-4.49-8.93-4.49-4.25 0-6.77 1.92-6.77 5.39 0 3.95 3.12 5.51 8.87 6.77 8.33 1.8 12.64 4.91 12.64 12.34 0 6.17-4.13 11.86-14.08 11.86-7.07 0-12.04-2.16-15.46-6.77l5.45-3.77c2.46 2.94 4.91 4.49 9.65 4.49 5.69 0 7.49-2.52 7.49-5.51 0-3.3-1.86-5.33-9.05-6.89-7.97-1.68-12.46-5.51-12.46-12.52 0-6.23 4.07-11.44 13.78-11.44 6.59 0 11.2 2.22 14.14 6.77l-5.27 3.77ZM61.03 19.16v13.01L33.19 48.25V35.24l27.84-16.08ZM27.86 35.24v13L0 32.17v-13l12.59 7.26s.03.02.05.03l15.23 8.79-.01-.01ZM41.79 24.13l-11.26 6.51-11.28-6.51 11.28-6.51 11.26 6.51ZM58.38 14.55l-11.27 6.51-13.92-8.05V0l25.19 14.55ZM27.86 0v13.01l-13.93 8.04-11.28-6.5L27.86 0ZM118.29 64.97c-.51-.31-1.08-.46-1.73-.46-.65 0-1.22.15-1.73.46-.51.31-.91.75-1.2 1.34-.29.59-.44 1.32-.44 2.18 0 .86.15 1.59.44 2.18.29.59.69 1.04 1.2 1.34.51.31 1.08.46 1.73.46.65 0 1.22-.15 1.73-.46.51-.3.91-.75 1.2-1.34.29-.59.44-1.32.44-2.18 0-.86-.15-1.59-.44-2.18-.29-.59-.69-1.04-1.2-1.34ZM233.39 65.05c-.55-.3-1.23-.45-2.05-.45h-1.95v7.8h1.84c.85 0 1.56-.15 2.13-.46.56-.31.99-.75 1.27-1.33.28-.58.42-1.29.42-2.13 0-.84-.14-1.54-.42-2.11-.28-.58-.69-1.02-1.24-1.32ZM269.71 64.97c-.51-.31-1.08-.46-1.73-.46-.65 0-1.22.15-1.73.46-.51.31-.91.75-1.2 1.34-.29.59-.44 1.32-.44 2.18 0 .86.15 1.59.44 2.18.29.59.69 1.04 1.2 1.34.51.31 1.08.46 1.73.46.65 0 1.22-.15 1.73-.46.51-.3.91-.75 1.2-1.34.29-.59.44-1.32.44-2.18 0-.86-.15-1.59-.44-2.18-.29-.59-.69-1.04-1.2-1.34Z"/><path d="M90.68 54.01v29h203v-29h-203Zm10.09 16.67c.29.59.7 1.04 1.21 1.34.51.3 1.08.45 1.72.45.35 0 .69-.05 1.01-.14.32-.09.61-.23.87-.41.26-.18.48-.4.66-.66.18-.26.31-.56.37-.9h1.71c-.09.53-.27 1-.53 1.44-.26.44-.59.81-1 1.13a4.5 4.5 0 0 1-1.39.73c-.52.17-1.09.26-1.71.26-.97 0-1.83-.22-2.59-.65a4.612 4.612 0 0 1-1.79-1.87c-.44-.81-.65-1.78-.65-2.91 0-1.13.22-2.1.66-2.91.44-.81 1.04-1.44 1.79-1.87.75-.43 1.62-.65 2.59-.65.59 0 1.15.08 1.67.24.52.16.98.39 1.39.7.41.31.75.68 1.02 1.13.27.44.45.95.55 1.52h-1.71a2.46 2.46 0 0 0-.37-.91c-.18-.26-.4-.48-.66-.67-.26-.18-.55-.32-.87-.41-.32-.09-.66-.14-1.01-.14-.65 0-1.22.15-1.73.46-.51.31-.91.76-1.2 1.35-.29.59-.44 1.32-.44 2.17 0 .85.15 1.59.44 2.18h-.01Zm20.18.73c-.44.81-1.04 1.44-1.8 1.87-.76.44-1.62.65-2.59.65-.97 0-1.83-.22-2.59-.65-.76-.43-1.36-1.06-1.8-1.87-.44-.81-.66-1.78-.66-2.91 0-1.13.22-2.1.66-2.91.44-.81 1.04-1.44 1.8-1.87.76-.43 1.63-.65 2.59-.65s1.83.22 2.59.65a4.7 4.7 0 0 1 1.8 1.87c.44.81.66 1.78.66 2.91 0 1.13-.22 2.1-.66 2.91Zm15.66 2.38H135v-7.66h-.1l-3.3 7.65h-1.33l-3.3-7.65h-.1v7.67h-1.61V63.21h2.05l3.57 8.23h.13l3.57-8.23h2.05V73.8l-.02-.01Zm15.37 0h-1.61v-7.66h-.1l-3.3 7.65h-1.33l-3.3-7.65h-.1v7.67h-1.61V63.21h2.05l3.57 8.23h.13l3.57-8.23H152V73.8l-.02-.01Zm12.9-3.62c0 .74-.18 1.4-.55 1.97-.37.57-.89 1.02-1.55 1.34-.66.32-1.45.49-2.35.49-.9 0-1.67-.16-2.34-.49-.67-.33-1.19-.77-1.55-1.34-.37-.57-.55-1.23-.55-1.97v-6.96h1.69v6.84c0 .48.11.9.34 1.28.22.37.54.66.95.88.41.21.9.32 1.47.32s1.06-.11 1.47-.32c.41-.21.73-.5.95-.88.22-.37.33-.8.33-1.28v-6.84h1.7v6.96h-.01Zm13.04 3.62h-1.55l-5.69-7.77h-.1v7.77h-1.69V63.2h1.56l5.7 7.78h.1V63.2h1.67v10.59Zm5.69 0h-1.69V63.2h1.69v10.59Zm12.11-9.21h-3.49v9.21h-1.68v-9.21h-3.49V63.2h8.67v1.38h-.01Zm8.34 5.05v4.16h-1.68v-4.16l-4.06-6.43h1.92l2.93 4.81h.12l2.93-4.81h1.92l-4.06 6.43h-.02Zm19.9 4.16h-7.09V63.2h7.02v1.38h-5.33v3.23h4.97v1.37h-4.97v3.24h5.4v1.38-.01Zm12.12-2.47c-.42.79-1.04 1.4-1.84 1.83-.8.43-1.77.64-2.91.64h-3.63V63.2h3.74c1.1 0 2.04.21 2.83.63.79.42 1.39 1.03 1.81 1.81.42.79.63 1.73.63 2.83s-.21 2.05-.64 2.84l.01.01Zm5.96 2.47h-1.69V63.2h1.69v10.59Zm12.12-9.21h-3.49v9.21h-1.68v-9.21h-3.49V63.2h8.67v1.38h-.01Zm5.14 9.21h-1.69V63.2h1.69v10.59Zm13.07-2.38c-.44.81-1.04 1.44-1.8 1.87-.76.44-1.62.65-2.59.65-.97 0-1.83-.22-2.59-.65a4.7 4.7 0 0 1-1.8-1.87c-.44-.81-.66-1.78-.66-2.91 0-1.13.22-2.1.66-2.91.44-.81 1.04-1.44 1.8-1.87.76-.44 1.62-.65 2.59-.65.97 0 1.83.22 2.59.65a4.7 4.7 0 0 1 1.8 1.87c.44.81.66 1.78.66 2.91 0 1.13-.22 2.1-.66 2.91Zm13.34 2.38h-1.55l-5.69-7.77h-.1v7.77h-1.69V63.2h1.56l5.7 7.78h.1V63.2h1.67v10.59Z"/></g><defs><clipPath id="a"><path d="M0 0h293.68v83.01H0z"/></clipPath></defs></svg>