<svg xmlns="http://www.w3.org/2000/svg" viewBox="0 0 512 163" width="100%" height="100%">
  <path d="M71.955 20.108v11.093H42.092v87.03H29.863V31.2H0V20.108Zm38.533 42.379c-2.987-4.126-6.683-5.974-11.943-5.974-8.678 0-15.216 6.542-15.216 17.207v44.51H71.951V47.128h11.378v6.97c2.983-4.979 7.82-8.109 16.494-8.109 9.67 0 15.784 3.271 20.334 9.672zm73.805 55.743h-11.379v-6.966c-3.555 5.403-8.528 8.105-19.052 8.105-15.216 0-25.881-7.964-25.881-27.874V47.128h11.374v44.226c0 14.364 7.82 17.491 16.212 17.491 10.665 0 17.347-7.537 17.347-17.35V47.128h11.379zm67.4-10.808c-4.978 8.676-12.515 11.947-24.885 11.947-19.057 0-30.436-12.372-30.436-32.138v-9.387c0-20.192 9.529-31.855 28.159-31.855 18.77 0 28.158 11.52 28.158 31.854v7.397H207.75v1.991c0 12.229 5.832 21.898 18.202 21.898 9.243 0 13.938-2.7 16.921-7.962zm-43.942-32.138h33.418c-.568-11.945-5.828-19.055-16.638-19.055-10.948 0-16.071 7.253-16.78 19.055zm133.672-55.176v98.123h-14.647l-39.96-66.695v66.695h-15.93V20.108h14.22l40.388 67.548V20.11Zm11.084 98.122 34.132-98.122h15.643l34.127 98.123H418.92l-6.687-20.335h-35.409l-6.683 20.335zm28.868-34.554h26.167L394.458 44Zm115.897-39.819c-4.837-6.683-10.097-10.665-21.19-10.665-10.096 0-16.07 4.55-16.07 12.797 0 9.388 7.397 13.084 21.049 16.07 19.766 4.267 30.004 11.661 30.004 29.295 0 14.648-9.815 28.156-33.418 28.156-16.78 0-28.586-5.119-36.691-16.068l12.942-8.96c5.828 6.97 11.66 10.665 22.894 10.665 13.51 0 17.775-5.971 17.775-13.081 0-7.822-4.405-12.656-21.47-16.354-18.917-3.983-29.582-13.084-29.582-29.723 0-14.788 9.67-27.16 32.709-27.16 15.643 0 26.594 5.262 33.559 16.07zM42.571 144.17a5.704 5.704 0 0 0-5.282-2.658c-2.518 0-4.007 1.135-4.007 3.19 0 2.34 1.844 3.263 5.247 4.006 4.928 1.064 7.481 2.908 7.481 7.304 0 3.652-2.446 7.019-8.331 7.019-4.183 0-7.126-1.276-9.147-4.006l3.226-2.233a6.55 6.55 0 0 0 5.708 2.658c3.367 0 4.431-1.489 4.431-3.26 0-1.95-1.099-3.155-5.353-4.078-4.715-.992-7.373-3.26-7.373-7.41 0-3.687 2.41-6.77 8.153-6.77 3.9 0 6.63 1.312 8.367 4.006zm24.206 1.667c-.638-2.978-2.232-4.324-4.928-4.324-3.26 0-5.033 2.125-5.033 7.409v3.119c0 5.21 1.772 7.41 5.033 7.41 2.801 0 4.29-1.347 4.928-4.325h3.935c-.815 5.495-4.005 7.905-8.863 7.905-5.46 0-9.146-3.297-9.146-10.99v-3.12c0-7.693 3.687-10.99 9.146-10.99 4.858 0 8.084 2.588 8.899 7.905zm8.501 16.876 8.508-24.463h3.9l8.509 24.463h-4.36l-1.667-5.07H81.34l-1.665 5.07zm7.197-8.617h6.523l-3.261-9.89zm24.169 5.07h10.884v3.546h-14.997V138.25h4.113zm32.255-20.916v3.58h-10.884v6.453h9.82v3.544h-9.82v7.339h10.884v3.546h-14.997V138.25Z"/>
</svg>
