<svg viewBox="0 0 294 49" fill="none" xmlns="http://www.w3.org/2000/svg">
<path d="M108.63 3.45999V8.12999H96.05V44.8H90.9V8.12999H78.32V3.45999H108.63Z" fill="#0A95D3"/>
<path d="M124.86 21.31C123.6 19.57 122.04 18.79 119.83 18.79C116.17 18.79 113.42 21.55 113.42 26.04V44.79H108.63V14.84H113.42V17.78C114.68 15.68 116.71 14.36 120.37 14.36C124.44 14.36 127.02 15.74 128.94 18.43L124.87 21.31H124.86Z" fill="#0A95D3"/>
<path d="M155.96 44.79H151.17V41.85C149.67 44.13 147.58 45.26 143.14 45.26C136.73 45.26 132.24 41.9 132.24 33.52V14.84H137.03V33.47C137.03 39.52 140.32 40.84 143.86 40.84C148.35 40.84 151.17 37.66 151.17 33.53V14.84H155.96V44.8V44.79Z" fill="#0A95D3"/>
<path d="M184.35 40.24C182.25 43.9 179.08 45.27 173.87 45.27C165.84 45.27 161.05 40.06 161.05 31.73V27.78C161.05 19.27 165.06 14.36 172.91 14.36C180.76 14.36 184.77 19.21 184.77 27.78V30.9H165.84V31.74C165.84 36.89 168.3 40.97 173.51 40.97C177.4 40.97 179.38 39.83 180.64 37.62L184.36 40.26L184.35 40.24ZM165.84 26.7H179.92C179.68 21.67 177.46 18.67 172.91 18.67C168.36 18.67 166.14 21.73 165.84 26.7Z" fill="#0A95D3"/>
<path d="M222.15 3.45999V44.8H215.98L199.15 16.7V44.8H192.44V3.45999H198.43L215.44 31.92V3.45999H222.15Z" fill="#0A95D3"/>
<path d="M226.82 44.79L241.2 3.45001H247.79L262.17 44.79H254.8L251.98 36.22H237.06L234.24 44.79H226.81H226.82ZM238.99 30.24H250.01L244.5 13.52L238.99 30.24Z" fill="#0A95D3"/>
<path d="M287.81 13.46C285.77 10.64 283.56 8.97001 278.88 8.97001C274.63 8.97001 272.11 10.89 272.11 14.36C272.11 18.31 275.23 19.87 280.98 21.13C289.31 22.93 293.62 26.04 293.62 33.47C293.62 39.64 289.49 45.33 279.54 45.33C272.47 45.33 267.5 43.17 264.08 38.56L269.53 34.79C271.99 37.73 274.44 39.28 279.18 39.28C284.87 39.28 286.67 36.76 286.67 33.77C286.67 30.47 284.81 28.44 277.62 26.88C269.65 25.2 265.16 21.37 265.16 14.36C265.16 8.13001 269.23 2.92001 278.94 2.92001C285.53 2.92001 290.14 5.14001 293.08 9.69001L287.81 13.46Z" fill="#0A95D3"/>
<path d="M61.03 19.16V32.17L33.19 48.25V35.24L61.03 19.16Z" fill="#35BEEB"/>
<path d="M27.86 35.24V48.24L0 32.17V19.17L12.59 26.43C12.59 26.43 12.62 26.45 12.64 26.46L27.87 35.25L27.86 35.24Z" fill="#0A95D3"/>
<path d="M41.79 24.13L30.53 30.64L19.25 24.13L30.53 17.62L41.79 24.13Z" fill="#AFADAE"/>
<path d="M58.38 14.55L47.11 21.06L33.19 13.01V0L58.38 14.55Z" fill="#0A95D3"/>
<path d="M27.86 0V13.01L13.93 21.05L2.64999 14.55L27.86 0Z" fill="#35BEEB"/>
</svg>
