<svg xmlns="http://www.w3.org/2000/svg" viewBox="0 0 754.615 163.031"><path d="m119.546 38.499-17.927 10.354-17.991-10.384 17.949-10.354 17.969 10.384zM146.014 23.208l-17.978 10.388-22.214-12.833V.004l40.192 23.204zM97.332 0v20.763L75.134 33.566 57.156 23.187 97.332 0zM44.43 107.52.007 81.867 0 61.117l20.033 11.568c.05.03.106.063.161.093l24.223 13.987ZM66.648 69.063 48.7 79.43 30.713 69.046l17.961-10.362 17.974 10.379zM44.395 51.353l-22.176 12.79L4.241 53.764l40.146-23.17.008 20.759zM93.1 53.785 75.16 64.148 52.945 51.319V30.603L72.91 42.128c.05.034.106.064.161.094ZM150.298 91.923v20.759L146.282 115l-40.422 23.339v-20.75l22.448-12.964 8.486-4.903 13.504-7.799zM119.584 99.857l-17.969 10.38-17.987-10.384 17.987-10.379 17.969 10.383zM97.37 61.363v20.758l-4.054 2.339-18.182 10.49-.2-.115-17.778-10.268 18.177-10.49 8.491-4.899 13.508-7.794.038-.021zM97.37 117.59v20.745l-40.4-23.323-4.05-2.339-.008-20.75.034.022 13.503 7.794 6.495 3.748c.055.034.11.068.166.098l1.83 1.057ZM203.259 61.121v20.763l-44.437 25.653V86.791l44.437-25.67zM172.546 69.059l-17.969 10.379-17.987-10.387 17.987-10.375 17.969 10.383zM199.014 53.768l-17.978 10.388-22.214-12.829V30.565l40.192 23.203zM150.332 30.56v20.763l-22.236 12.829-17.978-10.384 40.214-23.208zM146.053 84.567l-17.745 10.256h-.004l-22.423-12.948-.008-20.504 13.491 7.786 8.49 4.903 18.199 10.507zM315.505 20.108v11.093h-29.863v87.03h-12.229V31.2H243.55V20.108ZM354.038 62.487c-2.987-4.126-6.683-5.974-11.943-5.974-8.678 0-15.216 6.542-15.216 17.207v44.51h-11.378V47.128h11.378v6.97c2.983-4.979 7.82-8.109 16.494-8.109 9.67 0 15.784 3.271 20.334 9.672ZM427.843 118.23h-11.379v-6.966c-3.555 5.403-8.528 8.105-19.052 8.105-15.216 0-25.881-7.964-25.881-27.874V47.128h11.374v44.226c0 14.364 7.82 17.491 16.212 17.491 10.665 0 17.347-7.537 17.347-17.35V47.128h11.379ZM495.243 107.422c-4.978 8.676-12.515 11.947-24.885 11.947-19.057 0-30.436-12.372-30.436-32.138v-9.387c0-20.192 9.529-31.855 28.159-31.855 18.77 0 28.158 11.52 28.158 31.855v7.396H451.3v1.991c0 12.229 5.832 21.898 18.202 21.898 9.243 0 13.939-2.7 16.921-7.962Zm-43.942-32.138h33.418c-.568-11.945-5.828-19.055-16.638-19.055-10.947 0-16.071 7.253-16.78 19.055ZM584.973 20.108v98.123h-14.647l-39.96-66.695v66.695h-15.93V20.108h14.22l40.388 67.548V20.11ZM596.057 118.23l34.132-98.122h15.643l34.127 98.123H662.47l-6.687-20.335h-35.409l-6.683 20.335Zm28.868-34.554h26.167L638.008 44ZM740.822 43.857c-4.837-6.683-10.097-10.665-21.19-10.665-10.096 0-16.07 4.55-16.07 12.797 0 9.388 7.397 13.084 21.049 16.07 19.766 4.267 30.004 11.661 30.004 29.295 0 14.648-9.815 28.156-33.418 28.156-16.78 0-28.586-5.119-36.692-16.068l12.943-8.96c5.828 6.97 11.66 10.665 22.894 10.665 13.51 0 17.775-5.971 17.775-13.081 0-7.822-4.405-12.656-21.47-16.354-18.917-3.983-29.582-13.084-29.582-29.723 0-14.788 9.67-27.16 32.709-27.16 15.643 0 26.594 5.262 33.559 16.07ZM286.121 144.17a5.704 5.704 0 0 0-5.282-2.658c-2.518 0-4.007 1.135-4.007 3.19 0 2.34 1.844 3.263 5.247 4.006 4.928 1.064 7.481 2.908 7.481 7.304 0 3.652-2.446 7.019-8.331 7.019-4.183 0-7.126-1.276-9.147-4.006l3.226-2.233a6.55 6.55 0 0 0 5.708 2.658c3.367 0 4.431-1.489 4.431-3.26 0-1.95-1.099-3.155-5.353-4.078-4.715-.992-7.373-3.26-7.373-7.41 0-3.687 2.41-6.77 8.153-6.77 3.9 0 6.63 1.312 8.367 4.006ZM310.327 145.837c-.637-2.978-2.232-4.324-4.927-4.324-3.262 0-5.034 2.125-5.034 7.409v3.119c0 5.21 1.772 7.41 5.033 7.41 2.801 0 4.29-1.347 4.928-4.325h3.936c-.816 5.495-4.006 7.905-8.863 7.905-5.46 0-9.147-3.297-9.147-10.99v-3.12c0-7.693 3.687-10.99 9.147-10.99 4.857 0 8.083 2.588 8.898 7.905ZM318.828 162.713l8.508-24.463h3.9l8.509 24.463h-4.36l-1.667-5.07h-8.828l-1.665 5.07Zm7.197-8.617h6.523l-3.261-9.89ZM350.194 159.166h10.884v3.546h-14.996V138.25h4.112ZM382.449 138.25v3.58h-10.884v6.453h9.82v3.544h-9.82v7.339h10.884v3.546h-14.997V138.25Z"/></svg>
