<svg xmlns="http://www.w3.org/2000/svg" viewBox="0 0 44 29">
<path fill-rule="evenodd" d="M34.436 10.874A12.849 12.849 0 0 0 21.755.004 14.536 14.536 0 0 0 9.073 7.25 10.404 10.404 0 0 0 .015 18.12c0 6.003 4.866 10.87 10.87 10.87h23.551a9.058 9.058 0 0 0 9.058-9.058 9.67 9.67 0 0 0-9.058-9.058ZM34.319 14.237v5.358l-11.47 6.626v-5.358ZM20.654 20.863v5.358L9.175 19.594v-5.357l5.187 2.99a.076.076 0 0 0 .019.012ZM26.392 16.283l-4.641 2.685-4.644-2.68 4.644-2.681ZM33.226 12.339l-4.643 2.68-5.734-3.314V6.343ZM20.654 6.343v5.362l-5.741 3.311-4.644-2.677Z"/>
</svg>