<svg xmlns="http://www.w3.org/2000/svg" viewBox="0 0 203.26 138.339">
	<path d="m119.546 38.499-17.927 10.354-17.991-10.384 17.949-10.354 17.969 10.384zM146.014 23.208l-17.978 10.388-22.214-12.833V.004l40.192 23.204zM97.332 0v20.763L75.134 33.566 57.156 23.187 97.332 0zM44.43 107.52.007 81.867 0 61.117l20.033 11.568c.05.03.106.063.161.093l24.223 13.987ZM66.648 69.063 48.7 79.43 30.713 69.046l17.961-10.362 17.974 10.379zM44.395 51.353l-22.176 12.79L4.241 53.764l40.146-23.17.008 20.759zM93.1 53.785 75.16 64.148 52.945 51.319V30.603L72.91 42.128c.05.034.106.064.161.094ZM150.298 91.923v20.759L146.282 115l-40.422 23.339v-20.75l22.448-12.964 8.486-4.903 13.504-7.799zM119.584 99.857l-17.969 10.38-17.987-10.384 17.987-10.379 17.969 10.383zM97.37 61.363v20.758l-4.054 2.339-18.182 10.49-.2-.115-17.778-10.268 18.177-10.49 8.491-4.899 13.508-7.794.038-.021zM97.37 117.59v20.745l-40.4-23.323-4.05-2.339-.008-20.75.034.022 13.503 7.794 6.495 3.748c.055.034.11.068.166.098l1.83 1.057ZM203.259 61.121v20.763l-44.437 25.653V86.791l44.437-25.67zM172.546 69.059l-17.969 10.379-17.987-10.387 17.987-10.375 17.969 10.383zM199.014 53.768l-17.978 10.388-22.214-12.829V30.565l40.192 23.203zM150.332 30.56v20.763l-22.236 12.829-17.978-10.384 40.214-23.208zM146.053 84.567l-17.745 10.256h-.004l-22.423-12.948-.008-20.504 13.491 7.786 8.49 4.903 18.199 10.507z" />
</svg>
