<svg xmlns="http://www.w3.org/2000/svg" viewBox="0 0 62.8564 71.1493">
  <g id="full-rgb">
    <g id="logoMark">
      <polygon id="logoMark_PathItem_" data-name="logoMark &lt;PathItem&gt;" points="28.961 9.106 7.388 24.743 10.188 52.475 28.961 61.418 51.306 47.445 51.306 19.963 28.961 9.106" style="fill: none"/>
      <path id="logoMark_CompoundPathItem_" data-name="logoMark &lt;CompoundPathItem&gt;" d="M51.304,47.4432,32.5383,58.2687H28.9578L10.1922,47.4328V25.7716l1.7849-3.1034L28.9578,12.87h3.5805l16.97,9.798,1.7956,3.1034v-.6125l11.5524-6.6737L30.8051,0,0,17.78v35.58l30.8051,17.79L62.5346,52.83l-11.2306-8.2Z" style="fill: #0095d5"/>
      <polygon id="logoMark_PathItem_2" data-name="logoMark &lt;PathItem&gt;" points="38.403 29.124 30.816 33.504 23.218 29.124 30.816 24.744 38.403 29.124" style="fill: #aeadae"/>
      <path id="logoMark_CompoundPathItem_2" data-name="logoMark &lt;CompoundPathItem&gt;" d="M32.5387,49.519,51.3043,38.6832V34.542L32.5387,45.3674Zm16.97-26.8508-7.5873,4.39-8.9571-5.1792-.4257-.2387v4.1l5.8641,3.3836-5.8641,3.3837v4.1L51.3043,25.7716ZM10.1925,38.6832l8.4691,4.8886.0416.0208,10.255,5.9264V45.3674L10.1925,34.5316Zm9.3722-11.6246-7.5872-4.39-1.785,3.1034,8.4691,4.8989.0416.0208,10.255,5.9161V32.4349l-5.74-3.3109,5.74-3.3109V21.6407l-.6959.4047Z" style="fill: #0095d5"/>
      <polygon id="logoMark_PathItem_3" data-name="logoMark &lt;PathItem&gt;" points="32.539 12.87 32.539 25.74 30.816 24.744 28.958 25.813 28.958 12.87 32.539 12.87" style="fill: #0095d5"/>
      <polygon id="logoMark_PathItem_4" data-name="logoMark &lt;PathItem&gt;" points="32.539 32.508 32.539 58.269 28.958 58.269 28.958 32.435 30.816 33.504 32.539 32.508" style="fill: #0095d5"/>
      <polygon id="logoMark_PathItem_5" data-name="logoMark &lt;PathItem&gt;" points="0 17.78 11.977 22.668 11.977 22.668 28.958 12.87 32.539 12.87 49.509 22.668 51.304 25.159 62.856 18.485 30.805 0 0 17.78" style="fill: #31beec"/>
      <polygon id="logoMark_PathItem_6" data-name="logoMark &lt;PathItem&gt;" points="0 53.359 10.192 47.433 10.192 25.772 11.977 22.668 0 17.78 0 53.359" style="fill: #31beec"/>
    </g>
  </g>
</svg>
