<?xml version="1.0" encoding="UTF-8" standalone="no"?>
<!-- Generator: Adobe Illustrator 24.0.3, SVG Export Plug-In . SVG Version: 6.00 Build 0)  -->

<svg
   xmlns:dc="http://purl.org/dc/elements/1.1/"
   xmlns:cc="http://creativecommons.org/ns#"
   xmlns:rdf="http://www.w3.org/1999/02/22-rdf-syntax-ns#"
   xmlns:svg="http://www.w3.org/2000/svg"
   xmlns="http://www.w3.org/2000/svg"
   xmlns:sodipodi="http://sodipodi.sourceforge.net/DTD/sodipodi-0.dtd"
   xmlns:inkscape="http://www.inkscape.org/namespaces/inkscape"
   version="1.1"
   id="Layer_1"
   x="0px"
   y="0px"
   viewBox="0 0 504 216"
   xml:space="preserve"
   sodipodi:docname="truenas_core_logotype.svg"
   style="enable-background:new 0 0 720 216;"
   inkscape:version="0.92.4 (5da689c313, 2019-01-14)"><metadata
   id="metadata45"><rdf:RDF><cc:Work
       rdf:about=""><dc:format>image/svg+xml</dc:format><dc:type
         rdf:resource="http://purl.org/dc/dcmitype/StillImage" /></cc:Work></rdf:RDF></metadata><defs
   id="defs43" /><sodipodi:namedview
   pagecolor="#ffffff"
   bordercolor="#666666"
   borderopacity="1"
   objecttolerance="10"
   gridtolerance="10"
   guidetolerance="10"
   inkscape:pageopacity="0"
   inkscape:pageshadow="2"
   inkscape:window-width="1920"
   inkscape:window-height="1054"
   id="namedview41"
   showgrid="false"
   inkscape:zoom="0.62301587"
   inkscape:cx="572.61758"
   inkscape:cy="15.691083"
   inkscape:window-x="0"
   inkscape:window-y="0"
   inkscape:window-maximized="1"
   inkscape:current-layer="Layer_1" />
<g
   id="g38"
   transform="translate(-226,24)">
	<g
   id="g10">
		<path
   class="st0"
   d="m 525.94,166.64 c 1.68,0 3.23,0.2 4.94,0.67 1.07,0.3 1.41,0.8 1.41,1.48 0,0.74 -0.27,1.38 -0.64,1.95 -1.82,-0.98 -3.76,-1.45 -5.61,-1.45 -4.07,0 -6.75,2.89 -6.75,9.74 0,6.82 2.68,9.81 6.75,9.81 1.92,0 4.14,-0.57 5.91,-1.54 0.38,0.6 0.64,1.24 0.64,1.94 0,0.71 -0.3,1.18 -1.41,1.48 -1.72,0.5 -3.43,0.77 -5.21,0.77 -5.98,0 -9.95,-3.83 -9.95,-12.46 0,-8.66 4.07,-12.39 9.92,-12.39 z"
   id="path2"
   inkscape:connector-curvature="0" />
		<path
   class="st0"
   d="m 549.2,179.04 c 0,-8.67 3.8,-12.4 9.98,-12.4 6.22,0 10.01,3.73 10.01,12.4 0,8.64 -3.8,12.46 -10.01,12.46 -6.18,0 -9.98,-3.82 -9.98,-12.46 z m 16.77,0 c 0,-6.86 -2.48,-9.74 -6.79,-9.74 -4.27,0 -6.72,2.89 -6.72,9.74 0,6.82 2.46,9.81 6.72,9.81 4.3,0 6.79,-2.99 6.79,-9.81 z"
   id="path4"
   inkscape:connector-curvature="0" />
		<path
   class="st0"
   d="m 596.39,182.57 c -1.01,-0.91 -1.65,-1.14 -2.65,-1.14 h -2.95 v 9.74 h -3.19 v -24.2 h 7.66 c 5.34,0 8.54,2.15 8.54,6.66 0,4.46 -3.13,6.28 -6.39,6.85 v 0.11 c 0.84,0.27 1.72,0.8 2.59,1.67 2.21,2.05 3.93,5.44 4.54,8.91 h -3.46 c -0.9,-3.73 -2.41,-6.59 -4.69,-8.6 z m -1.11,-12.97 h -4.5 v 9.27 h 3.79 c 3.17,0 5.95,-1.31 5.95,-4.87 0,-2.96 -1.88,-4.4 -5.24,-4.4 z"
   id="path6"
   inkscape:connector-curvature="0" />
		<path
   class="st0"
   d="m 637.46,188.55 v 2.62 h -14.68 v -24.2 h 14.49 v 2.63 h -11.29 v 7.69 h 9.01 v 2.62 h -9.01 v 8.64 z"
   id="path8"
   inkscape:connector-curvature="0" />
	</g>
	<g
   id="g26">
		<path
   class="st0"
   d="m 259.16,84.67 v 54.67 H 243.48 V 84.67 H 228.72 V 71.45 h 45.2 v 13.23 h -14.76 z"
   id="path12"
   inkscape:connector-curvature="0" />
		<path
   class="st0"
   d="m 281.63,93.94 h 14.66 v 7.13 c 1.32,-2.55 3.36,-4.89 5.7,-6.32 2.44,-1.53 4.99,-1.93 7.84,-1.93 1.84,0 3.16,0.21 4.79,0.71 l -0.82,13.75 c -1.94,-1.02 -4.07,-1.63 -6.61,-1.63 -3.16,0 -5.5,1.12 -7.33,3.06 -3.26,3.46 -3.56,8.35 -3.56,12.21 v 18.42 h -14.66 v -45.4 z"
   id="path14"
   inkscape:connector-curvature="0" />
		<path
   class="st0"
   d="m 340.75,93.94 v 25.04 c 0,2.04 0.2,5.2 2.54,7.33 1.02,0.92 2.85,2.14 6.12,2.14 2.74,0 4.88,-0.92 6.2,-2.14 2.14,-2.04 2.44,-5.09 2.44,-7.33 V 93.94 h 14.66 v 26.47 c 0,5.2 -0.51,10.08 -5.08,14.56 -5.2,5.09 -12.83,5.91 -18.23,5.91 -5.61,0 -13.13,-0.82 -18.33,-5.91 -4.17,-4.07 -4.99,-8.65 -4.99,-13.64 V 93.94 Z"
   id="path16"
   inkscape:connector-curvature="0" />
		<path
   class="st0"
   d="m 436,119.19 h -33.9 c 0,2.44 0.91,5.7 2.74,7.74 2.24,2.44 5.29,2.85 7.54,2.85 2.14,0 4.37,-0.41 5.91,-1.33 0.2,-0.1 1.93,-1.22 3.15,-3.76 l 13.85,1.42 c -2.04,6.42 -6.12,9.77 -8.76,11.41 -4.37,2.65 -9.27,3.36 -14.35,3.36 -6.83,0 -12.83,-1.22 -18.13,-6.52 -3.97,-3.97 -6.81,-9.98 -6.81,-17.51 0,-6.52 2.34,-13.24 6.91,-17.91 5.51,-5.5 12.32,-6.52 17.42,-6.52 5.08,0 12.42,0.92 18.01,6.82 5.39,5.7 6.42,12.83 6.42,18.42 z m -13.54,-8.76 c -0.1,-0.4 -0.81,-3.26 -2.95,-5.29 -1.63,-1.53 -3.97,-2.55 -6.93,-2.55 -3.76,0 -6,1.53 -7.42,2.95 -1.12,1.22 -2.14,2.85 -2.54,4.88 h 19.84 z"
   id="path18"
   inkscape:connector-curvature="0" />
		<path
   class="st0"
   d="m 452.25,139.35 v -67.9 h 13.64 l 36.86,43.78 V 71.45 h 15.67 v 67.9 H 504.78 L 467.93,95.37 v 43.98 z"
   id="path20"
   inkscape:connector-curvature="0" />
		<path
   class="st0"
   d="m 578.54,126.52 h -25.65 l -5.2,12.83 h -16.28 l 27.38,-67.9 h 14.35 l 26.77,67.9 h -16.28 z m -4.27,-12.01 -8.35,-22.8 -8.45,22.8 z"
   id="path22"
   inkscape:connector-curvature="0" />
		<path
   class="st0"
   d="m 647.93,88.04 c -5.08,-4.58 -9.47,-4.89 -11.4,-4.89 -2.13,0 -4.78,0.31 -6.61,2.34 -1.02,1.02 -1.73,2.55 -1.73,4.28 0,1.63 0.51,2.85 1.53,3.76 1.62,1.53 3.96,2.14 8.55,3.87 l 5.1,1.94 c 2.95,1.12 6.61,2.65 9.26,5.19 3.97,3.77 5,8.66 5,12.63 0,7.03 -2.44,13.13 -6,16.8 -6.02,6.31 -14.76,6.92 -19.25,6.92 -4.88,0 -9.16,-0.71 -13.44,-2.85 -3.45,-1.73 -7.42,-4.89 -9.96,-7.44 l 8.13,-11.19 c 1.73,1.72 4.49,4.07 6.32,5.19 2.64,1.63 5.39,2.44 8.55,2.44 2.04,0 4.9,-0.4 7.13,-2.34 1.33,-1.12 2.46,-2.95 2.46,-5.5 0,-2.24 -0.92,-3.66 -2.34,-4.89 -1.83,-1.53 -6,-3.05 -7.95,-3.76 l -5.59,-1.94 c -3.17,-1.12 -6.83,-2.54 -9.47,-5.39 -3.56,-3.77 -4.07,-8.55 -4.07,-11.81 0,-6 1.83,-11.09 5.91,-15.27 4.78,-4.89 10.49,-6.21 16.79,-6.21 4.68,0 12.22,0.81 20.16,6.71 z"
   id="path24"
   inkscape:connector-curvature="0" />
	</g>
	<g
   id="g36">
		<g
   id="g30">
			<polygon
   class="st0"
   points="665.54,72.55 665.54,71.24 656.72,71.24 656.72,72.55 660.39,72.55 660.39,82.36 661.86,82.36 661.86,72.55 "
   id="polygon28" />
		</g>
		<g
   id="g34">
			<path
   class="st0"
   d="m 675.64,71.24 -2.66,7.74 c -0.27,0.78 -0.46,1.37 -0.59,1.78 -0.11,-0.36 -0.29,-0.91 -0.53,-1.64 l -2.64,-7.88 H 667 v 11.12 h 1.42 v -9.47 l 3.22,9.47 h 1.33 l 3.23,-9.31 v 9.31 h 1.42 V 71.24 Z"
   id="path32"
   inkscape:connector-curvature="0" />
		</g>
	</g>
</g>
</svg>