<?xml version="1.0" encoding="utf-8"?>
<!-- Generator: Adobe Illustrator 24.0.3, SVG Export Plug-In . SVG Version: 6.00 Build 0)  -->
<svg version="1.1" id="Layer_1" xmlns="http://www.w3.org/2000/svg" xmlns:xlink="http://www.w3.org/1999/xlink" x="0px" y="0px"
	 viewBox="0 0 720 216" style="enable-background:new 0 0 720 216;" xml:space="preserve">
<g>
	<g>
		<path class="st0" d="M198.83,186.81v3.61h-20.26v-33.38h19.98v3.62h-15.58v10.62h12.42v3.61h-12.42v11.92H198.83z"/>
		<path class="st0" d="M247.85,157.04v33.38h-3.62c-2.64-9.97-9.55-21.19-16.23-27.03v27.03h-4.26v-33.38h3.06
			c7.14,5.66,13.12,13.92,16.78,21.51v-21.51H247.85z"/>
		<path class="st0" d="M297.98,160.8H287v29.62h-4.4V160.8H271.6v-3.76h26.38V160.8z"/>
		<path class="st0" d="M341.95,186.81v3.61h-20.26v-33.38h19.98v3.62H326.1v10.62h12.42v3.61H326.1v11.92H341.95z"/>
		<path class="st0" d="M379.01,178.55c-1.39-1.25-2.27-1.58-3.66-1.58h-4.08v13.45h-4.41v-33.38h10.57c7.37,0,11.78,2.97,11.78,9.19
			c0,6.16-4.31,8.67-8.81,9.45v0.15c1.16,0.37,2.36,1.11,3.57,2.31c3.06,2.83,5.43,7.51,6.26,12.29h-4.77
			C384.25,185.27,382.17,181.33,379.01,178.55z M377.48,160.66h-6.21v12.79h5.24c4.36,0,8.2-1.8,8.2-6.72
			C384.71,162.65,382.12,160.66,377.48,160.66z"/>
		<path class="st0" d="M438.09,168.17c0,7.36-4.54,11.08-11.96,11.08h-6.3v11.17h-4.41v-33.38h10.71
			C433.55,157.04,438.09,160.75,438.09,168.17z M433.6,168.17c0-4.96-2.55-7.51-7.47-7.51h-6.3v15.01h6.3
			C431.05,175.67,433.6,173.08,433.6,168.17z"/>
		<path class="st0" d="M474.93,178.55c-1.39-1.25-2.27-1.58-3.66-1.58h-4.08v13.45h-4.41v-33.38h10.57c7.37,0,11.78,2.97,11.78,9.19
			c0,6.16-4.31,8.67-8.81,9.45v0.15c1.16,0.37,2.36,1.11,3.57,2.31c3.06,2.83,5.43,7.51,6.26,12.29h-4.77
			C480.16,185.27,478.08,181.33,474.93,178.55z M473.39,160.66h-6.21v12.79h5.24c4.36,0,8.2-1.8,8.2-6.72
			C480.62,162.65,478.03,160.66,473.39,160.66z"/>
		<path class="st0" d="M515.75,157.04v33.38h-4.41v-33.38H515.75z"/>
		<path class="st0" d="M552.54,160.42c-4.78,0-6.4,2.22-6.4,5.1c0,2.78,1.99,4.45,7.14,5.65c6.63,1.58,10.06,4.32,10.06,9.88
			c0,5.65-4.45,9.82-12.01,9.82c-3.1,0-5.84-0.51-8.02-1.34c-1.53-0.56-1.9-1.2-1.9-2.22c0-0.93,0.32-2.05,0.93-2.92
			c3.06,1.75,5.98,2.63,9.14,2.63c5,0,7.28-2.17,7.28-5.46c0-3.1-1.9-5.05-7.79-6.44c-6.08-1.39-9.37-4.27-9.37-9.09
			c0-5.15,3.43-9.46,10.99-9.46c2.83,0,4.87,0.32,7.05,0.97c1.53,0.42,1.95,1.07,1.95,2.05c0,0.97-0.37,2.09-0.93,2.92
			C558.1,161.12,555.51,160.42,552.54,160.42z"/>
		<path class="st0" d="M609.02,186.81v3.61h-20.26v-33.38h19.98v3.62h-15.58v10.62h12.42v3.61h-12.42v11.92H609.02z"/>
	</g>
	<g>
		<path class="st1" d="M87.05,43.48v75.43H65.42V43.48H45.05V25.23h62.36v18.25H87.05z"/>
		<path class="st1" d="M118.05,56.27h20.23v9.83c1.82-3.52,4.63-6.75,7.86-8.72c3.37-2.11,6.88-2.66,10.81-2.66
			c2.54,0,4.36,0.28,6.61,0.98l-1.13,18.97c-2.67-1.41-5.62-2.25-9.13-2.25c-4.36,0-7.59,1.55-10.12,4.22
			c-4.49,4.77-4.92,11.52-4.92,16.85v25.42h-20.23V56.27z"/>
		<path class="st1" d="M199.63,56.27v34.55c0,2.81,0.27,7.17,3.51,10.12c1.41,1.26,3.94,2.95,8.43,2.95c3.79,0,6.74-1.26,8.57-2.95
			c2.95-2.81,3.37-7.02,3.37-10.12V56.27h20.23v36.52c0,7.17-0.71,13.91-7.02,20.09c-7.17,7.02-17.71,8.15-25.15,8.15
			c-7.73,0-18.12-1.13-25.29-8.15c-5.76-5.62-6.88-11.94-6.88-18.82V56.27H199.63z"/>
		<path class="st1" d="M331.04,91.1h-46.77c0,3.37,1.26,7.86,3.79,10.67c3.09,3.37,7.31,3.94,10.4,3.94c2.95,0,6.03-0.57,8.15-1.83
			c0.27-0.14,2.66-1.68,4.35-5.19l19.11,1.96c-2.81,8.85-8.43,13.48-12.08,15.74c-6.03,3.65-12.78,4.63-19.8,4.63
			c-9.41,0-17.7-1.68-25-8.99c-5.48-5.47-9.41-13.77-9.41-24.16c0-8.99,3.23-18.26,9.55-24.72c7.59-7.59,17-8.99,24.02-8.99
			c7.02,0,17.14,1.26,24.86,9.41c7.44,7.86,8.84,17.7,8.84,25.42V91.1z M312.36,79.02c-0.15-0.56-1.13-4.49-4.07-7.3
			c-2.25-2.12-5.48-3.52-9.56-3.52c-5.19,0-8.28,2.11-10.25,4.07c-1.55,1.68-2.95,3.93-3.51,6.74H312.36z"/>
		<path class="st0" d="M353.48,118.91V25.23h18.82l50.85,60.4v-60.4h21.63v93.69h-18.83l-50.84-60.69v60.69H353.48z"/>
		<path class="st0" d="M527.73,101.22h-35.4l-7.16,17.7h-22.47l37.78-93.69h19.81l36.94,93.69h-22.47L527.73,101.22z M521.82,84.64
			l-11.52-31.46l-11.65,31.46H521.82z"/>
		<path class="st0" d="M623.46,48.12c-7.02-6.33-13.06-6.75-15.73-6.75c-2.95,0-6.6,0.42-9.14,3.23c-1.4,1.41-2.38,3.52-2.38,5.91
			c0,2.24,0.7,3.93,2.11,5.19c2.24,2.11,5.47,2.96,11.8,5.34l7.02,2.67c4.07,1.55,9.13,3.65,12.78,7.16
			c5.48,5.2,6.88,11.95,6.88,17.42c0,9.69-3.37,18.12-8.28,23.18c-8.29,8.71-20.37,9.55-26.55,9.55c-6.75,0-12.64-0.98-18.55-3.93
			c-4.77-2.39-10.25-6.75-13.76-10.26l11.23-15.44c2.39,2.38,6.18,5.61,8.71,7.16c3.65,2.25,7.45,3.37,11.8,3.37
			c2.81,0,6.75-0.56,9.83-3.22c1.83-1.55,3.38-4.07,3.38-7.59c0-3.09-1.26-5.05-3.23-6.75c-2.53-2.11-8.28-4.21-10.96-5.19
			l-7.73-2.67c-4.36-1.55-9.41-3.51-13.06-7.44c-4.92-5.2-5.62-11.8-5.62-16.3c0-8.28,2.54-15.31,8.15-21.06
			c6.6-6.75,14.47-8.57,23.18-8.57c6.46,0,16.85,1.12,27.81,9.26L623.46,48.12z"/>
	</g>
	<g>
		<g>
			<polygon class="st0" points="635.59,26.76 640.65,26.76 640.65,40.29 642.68,40.29 642.68,26.76 647.76,26.76 647.76,24.94 
				635.59,24.94 			"/>
		</g>
		<g>
			<path class="st0" d="M661.69,24.94l-3.68,10.68c-0.37,1.08-0.64,1.9-0.81,2.46c-0.16-0.5-0.4-1.26-0.73-2.27l-3.64-10.87h-3.06
				v15.35h1.96V27.22l4.44,13.07h1.83l4.46-12.84v12.84h1.96V24.94H661.69z"/>
		</g>
	</g>
</g>
</svg>
