<svg xmlns="http://www.w3.org/2000/svg" viewBox="0 0 605.5 683.4">
  <defs>
    <style>
      .mini3x-cls-1 {
        fill:#262626
      }
      .mini3x-cls-1,.mini3x-cls-10,.mini3x-cls-11,.mini3x-cls-12,.mini3x-cls-13,.mini3x-cls-14,.mini3x-cls-15,.mini3x-cls-16,.mini3x-cls-17,.mini3x-cls-19,.mini3x-cls-2,.mini3x-cls-21,.mini3x-cls-3,.mini3x-cls-6,.mini3x-cls-8,.mini3x-cls-9 {
        stroke-linecap:round;stroke-linejoin:round;
      }

      .mini3x-cls-1,.mini3x-cls-10,.mini3x-cls-11,.mini3x-cls-12,.mini3x-cls-13,.mini3x-cls-17,.mini3x-cls-19,
      .mini3x-cls-2,.mini3x-cls-21,.mini3x-cls-6,.mini3x-cls-8,.mini3x-cls-9 {
        stroke:#000;stroke-width:.2px;
      }

      .mini3x-cls-2,.mini3x-cls-22 {
        fill:#000;
      }

      .mini3x-cls-22,.mini3x-cls-25,.mini3x-cls-27 {
        stroke-width:0;
      }

      .mini3x-cls-3 {
        fill:#a1a3a1;
      }

      .mini3x-cls-14,.mini3x-cls-15,.mini3x-cls-16,.mini3x-cls-3 {stroke:#010101;stroke-width:.2px}

      .mini3x-cls-27 {
        fill:#fff;
      }

      #MINI_X_CHASSIS .mini3x-cls-6 {
        fill:#2d2e2d;
      }

      #MINI_X_DRIVES .mini3x-cls-6 {
        fill:#3a3b3a;
      }

      .mini3x-cls-8 {
        fill:#1e1e1e;
      }

      .mini3x-cls-9 {
        fill:#2d2d2d;
      }

      .mini3x-cls-10 {
        fill:#2b2b2b;
      }

      .mini3x-cls-25 {
        fill-rule:evenodd;
        fill:#010101;
      }

      .mini3x-cls-15 {
        fill:#010101;
      }

      .mini3x-cls-11 {
        fill:#d8d8d8;
      }

      .mini3x-cls-12 {
        fill:#353535;
      }

      .mini3x-cls-13 {
        fill:#333;
      }

      .mini3x-cls-14 {
        fill:#9b6327;
      }

      .mini3x-cls-16 {
        fill:#7f8080;
      }

      .mini3x-cls-17 {
        fill:#d6d8d6;
      }

      .mini3x-cls-19 {
        fill:#383838;
      }

      .mini3x-cls-21 {
        fill:#0d0d0d;
      }

      #Mini_X_ .tint-target {
        filter: brightness(0.75) !important;
      }
    </style>
  </defs>
  <g id="Mini_X_" data-name="Mini X+">
    <g id="MINI_X_CHASSIS" data-name="MINI X+ CHASSIS">
      <path class="mini3x-cls-6" d="M14.5.1h572.1c7.9 0 14.4 6.5 14.4 14.4v668.8H.1V14.5C.1 6.6 6.6.1 14.5.1Z"/>
      <path class="mini3x-cls-2" d="M146.8 41.2h307.7v396H146.8z"/>
      <path class="mini3x-cls-1" d="M129.5 41.2h17.3v396h-17.3z"/>
      <path class="mini3x-cls-2" d="M192 450h217.2v93.6H192z"/>
      <path class="mini3x-cls-1" d="M179.7 450h12.2v93.6h-12.2z"/>
      <rect class="mini3x-cls-13" x="502.6" y="412.2" width="50.4" height="70.2" rx="3.9" ry="3.9"/>
      <path class="mini3x-cls-27" d="m536.3 494.3 1.5 1.1c.3.2.4.6.2.8l-.2.2-1.6 1.2c-.4.3-.7.1-.7-.4v-.9H527c-.2 0-.2.2 0 .4l1.8 1.8c.3.3.7.4 1.1.4h1.7c0-.5.4-.9.8-.9h.9c.5 0 .9.4.9.9v.9c0 .5-.4.9-.8.9h-.9c-.5 0-.8-.3-.9-.8h-1.8c-.7 0-1.3-.3-1.7-.7l-2.2-2.2c-.3-.4-.7-.6-1.2-.5s-3.5 0-3.5 0c-.2 1-1.3 1.7-2.3 1.5-1-.2-1.7-1.3-1.5-2.3.2-1 1.3-1.7 2.3-1.5.7.2 1.3.7 1.5 1.4s.9 0 .9 0c.5 0 .9-.1 1.2-.5s2.2-2.2 2.2-2.2c.4-.5 1.1-.7 1.7-.7h1.8c.2-.5.6-.9 1.2-.9.7 0 1.3.6 1.3 1.3s-.6 1.3-1.3 1.3c-.6 0-1-.4-1.2-.9s-1.8 0-1.8 0c-.5 0-.9.2-1.1.5s-1.8 1.8-1.8 1.8c-.1.1-.1.3 0 .3h11.1v-.9c0-.5.4-.6.8-.3Z"/>
      <rect class="mini3x-cls-10" x="506.3" y="415.8" width="42.9" height="63" rx="3.9" ry="3.9"/>
      <path class="mini3x-cls-15" d="M519.4 429.1h16.7v36.3h-16.7z"/>
      <path class="mini3x-cls-15" d="M520.4 429.8h14.9v34.7h-14.9z"/>
      <path class="mini3x-cls-3" d="M519.8 429.4h15.9v35.7h-15.9v-35.7Zm15.4 35.2v-34.7h-14.9v34.7h14.9Z"/>
      <path class="mini3x-cls-3" d="M522.6 464.5h10.5v.8h-10.5zm-3.1-32.8h.9v31h-.9zm3.1-2.6h10.5v.8h-10.5zm12.6 2.6h.8v31h-.8z"/>
      <path style="fill:#fff;stroke:#010101;stroke-width:.2px;stroke-linecap:round;stroke-linejoin:round" d="M521.7 431.5h5.4v31.4h-5.4z"/>
      <path class="mini3x-cls-16" d="M533.2 436.3h2v5.6h-2zm0 16.2h2v5.6h-2z"/>
      <path class="mini3x-cls-14" d="M527.1 436.3h2v2.8h-2zm0 19h2v2.8h-2zm0-12.3h2v2.8h-2zm0 5.7h2v2.8h-2z"/>
      <rect class="mini3x-cls-13" x="502.6" y="524.7" width="50.4" height="70.2" rx="3.9" ry="3.9"/>
      <path class="mini3x-cls-27" d="m536.3 606.8 1.5 1.1c.3.2.4.6.2.8l-.2.2-1.6 1.2c-.4.3-.7.1-.7-.4v-.9H527c-.2 0-.2.2 0 .4l1.8 1.8c.3.3.7.4 1.1.4h1.7c0-.5.4-.9.8-.9h.9c.5 0 .9.4.9.9v.9c0 .5-.4.9-.8.9h-.9c-.5 0-.8-.3-.9-.8h-1.8c-.7 0-1.3-.3-1.7-.7l-2.2-2.2c-.3-.4-.7-.6-1.2-.5s-3.5 0-3.5 0c-.2 1-1.3 1.7-2.3 1.5-1-.2-1.7-1.3-1.5-2.3.2-1 1.3-1.7 2.3-1.5.7.2 1.3.7 1.5 1.4s.9 0 .9 0c.5 0 .9-.1 1.2-.5s2.2-2.2 2.2-2.2c.4-.5 1.1-.7 1.7-.7h1.8c.2-.5.6-.9 1.2-.9.7 0 1.3.6 1.3 1.3s-.6 1.3-1.3 1.3c-.6 0-1-.4-1.2-.9s-1.8 0-1.8 0c-.5 0-.9.2-1.1.5s-1.8 1.8-1.8 1.8c-.1.1-.1.3 0 .3h11.1v-.9c0-.5.4-.6.8-.3Z"/>
      <rect class="mini3x-cls-10" x="506.3" y="528.3" width="42.9" height="63" rx="3.9" ry="3.9"/>
      <path class="mini3x-cls-15" d="M519.4 541.7h16.7V578h-16.7z"/>
      <path class="mini3x-cls-15" d="M520.4 542.4h14.9v34.7h-14.9z"/>
      <path class="mini3x-cls-3" d="M519.8 542h15.9v35.7h-15.9V542Zm15.4 35.2v-34.7h-14.9v34.7h14.9Z"/>
      <path class="mini3x-cls-3" d="M522.6 577.1h10.5v.8h-10.5zm-3.1-32.8h.9v31h-.9zm3.1-2.6h10.5v.8h-10.5zm12.6 2.6h.8v31h-.8z"/>
      <path style="fill:white;stroke:#010101;stroke-width:.2px;stroke-linecap:round;stroke-linejoin:round" d="M521.7 544.1h5.4v31.4h-5.4z"/>
      <path class="mini3x-cls-16" d="M533.2 548.9h2v5.6h-2zm0 16.2h2v5.6h-2z"/>
      <path class="mini3x-cls-14" d="M527.1 548.9h2v2.8h-2zm0 19h2v2.8h-2zm0-12.3h2v2.8h-2zm0 5.7h2v2.8h-2z"/>
      <path class="mini3x-cls-2" d="M127.6 472.3h-9l-4.5 3.9 4.5 3.9h9l4.5-3.9-4.5-3.9zm0 181.5h-9l-4.5 3.9 4.5 3.9h9l4.5-3.9-4.5-3.9zm0-170.1h-9l-4.5 3.9 4.5 3.9h9l4.5-3.9-4.5-3.9zm0 11.3h-9l-4.5 3.9 4.5 3.9h9l4.5-3.9-4.5-3.9zm0 11.3h-9l-4.5 3.9 4.5 4h9l4.5-4-4.5-3.9zm0 11.4h-9l-4.5 3.9 4.5 3.9h9l4.5-3.9-4.5-3.9zm0 11.3h-9l-4.5 3.9 4.5 3.9h9l4.5-3.9-4.5-3.9zm0 11.4h-9l-4.5 3.9 4.5 3.9h9l4.5-3.9-4.5-3.9zm0 11.3h-9l-4.5 3.9 4.5 3.9h9l4.5-3.9-4.5-3.9zm0 11.3h-9l-4.5 3.9 4.5 4h9l4.5-4-4.5-3.9zm0 11.4h-9l-4.5 3.9 4.5 3.9h9l4.5-3.9-4.5-3.9zm0 11.3h-9l-4.5 3.9 4.5 3.9h9l4.5-3.9-4.5-3.9zm0 11.4h-9l-4.5 3.9 4.5 3.9h9l4.5-3.9-4.5-3.9zm0 11.3h-9l-4.5 3.9 4.5 3.9h9l4.5-3.9-4.5-3.9zm0 11.3h-9l-4.5 3.9 4.5 4h9l4.5-4-4.5-3.9zm0 11.4h-9l-4.5 3.9 4.5 3.9h9l4.5-3.9-4.5-3.9zm0 11.3h-9l-4.5 3.9 4.5 3.9h9l4.5-3.9-4.5-3.9zm0-181.4h-9l-4.5 3.9 4.5 3.9h9l4.5-3.9-4.5-3.9zm323.6 11.3h-9l-4.5 3.9 4.5 3.9h9l4.5-3.9-4.5-3.9zm0 181.5h-9l-4.5 3.9 4.5 3.9h9l4.5-3.9-4.5-3.9zm0-170.1h-9l-4.5 3.9 4.5 3.9h9l4.5-3.9-4.5-3.9zm0 11.3h-9l-4.5 3.9 4.5 3.9h9l4.5-3.9-4.5-3.9zm0 11.3h-9l-4.5 3.9 4.5 4h9l4.5-4-4.5-3.9zm0 11.4h-9l-4.5 3.9 4.5 3.9h9l4.5-3.9-4.5-3.9zm0 11.3h-9l-4.5 3.9 4.5 3.9h9l4.5-3.9-4.5-3.9zm0 11.4h-9l-4.5 3.9 4.5 3.9h9l4.5-3.9-4.5-3.9zm0 11.3h-9l-4.5 3.9 4.5 3.9h9l4.5-3.9-4.5-3.9zm0 11.3h-9l-4.5 3.9 4.5 4h9l4.5-4-4.5-3.9zm0 11.4h-9l-4.5 3.9 4.5 3.9h9l4.5-3.9-4.5-3.9zm0 11.3h-9l-4.5 3.9 4.5 3.9h9l4.5-3.9-4.5-3.9zm0 11.4h-9l-4.5 3.9 4.5 3.9h9l4.5-3.9-4.5-3.9zm0 11.3h-9l-4.5 3.9 4.5 3.9h9l4.5-3.9-4.5-3.9zm0 11.3h-9l-4.5 3.9 4.5 4h9l4.5-4-4.5-3.9zm0 11.4h-9l-4.5 3.9 4.5 3.9h9l4.5-3.9-4.5-3.9zm0 11.3h-9l-4.5 3.9 4.5 3.9h9l4.5-3.9-4.5-3.9zm0-181.4h-9l-4.5 3.9 4.5 3.9h9l4.5-3.9-4.5-3.9zm-305.6 17h-9.1l-4.5 3.9 4.5 3.9h9.1l4.5-3.9-4.5-3.9zm0 11.3h-9.1l-4.5 3.9 4.5 3.9h9.1l4.5-3.9-4.5-3.9zm0 11.4h-9.1l-4.5 3.9 4.5 3.9h9.1l4.5-3.9-4.5-3.9zm0 11.3h-9.1l-4.5 3.9 4.5 3.9h9.1l4.5-3.9-4.5-3.9zm0 11.4h-9.1l-4.5 3.9 4.5 3.9h9.1l4.5-3.9-4.5-3.9zm0 11.3h-9.1l-4.5 3.9 4.5 3.9h9.1l4.5-3.9-4.5-3.9zm0 11.3h-9.1l-4.5 3.9 4.5 3.9h9.1l4.5-3.9-4.5-3.9zm0 11.4h-9.1l-4.5 3.9 4.5 3.9h9.1l4.5-3.9-4.5-3.9zm0 11.3h-9.1l-4.5 3.9 4.5 3.9h9.1l4.5-3.9-4.5-3.9zm0 11.4h-9.1L132 584l4.5 3.9h9.1l4.5-3.9-4.5-3.9zm0 11.3h-9.1l-4.5 3.9 4.5 3.9h9.1l4.5-3.9-4.5-3.9zm0 11.3h-9.1l-4.5 3.9 4.5 3.9h9.1l4.5-3.9-4.5-3.9zm0 11.4h-9.1L132 618l4.5 3.9h9.1l4.5-3.9-4.5-3.9zm0 11.3h-9.1l-4.5 3.9 4.5 3.9h9.1l4.5-3.9-4.5-3.9zm0 11.4h-9.1l-4.5 3.9 4.5 3.9h9.1l4.5-3.9-4.5-3.9zm0 11.3h-9.1L132 652l4.5 3.9h9.1l4.5-3.9-4.5-3.9zm0-181.4h-9.1l-4.5 3.9 4.5 3.9h9.1l4.5-3.9-4.5-3.9zm17.9 5.6h-9l-4.5 3.9 4.5 3.9h9l4.5-3.9-4.5-3.9zm0 181.5h-9l-4.5 3.9 4.5 3.9h9l4.5-3.9-4.5-3.9zm0-170.1h-9l-4.5 3.9 4.5 3.9h9l4.5-3.9-4.5-3.9zm0 11.3h-9l-4.5 3.9 4.5 3.9h9l4.5-3.9-4.5-3.9zm0 11.3h-9l-4.5 3.9 4.5 4h9l4.5-4-4.5-3.9zm0 11.4h-9l-4.5 3.9 4.5 3.9h9l4.5-3.9-4.5-3.9zm0 11.3h-9l-4.5 3.9 4.5 3.9h9l4.5-3.9-4.5-3.9zm0 11.4h-9l-4.5 3.9 4.5 3.9h9l4.5-3.9-4.5-3.9zm0 11.3h-9l-4.5 3.9 4.5 3.9h9l4.5-3.9-4.5-3.9zm0 11.3h-9l-4.5 3.9 4.5 4h9l4.5-4-4.5-3.9zm0 11.4h-9l-4.5 3.9 4.5 3.9h9l4.5-3.9-4.5-3.9zm0 11.3h-9l-4.5 3.9 4.5 3.9h9l4.5-3.9-4.5-3.9zm0 11.4h-9L150 601l4.5 3.9h9l4.5-3.9-4.5-3.9zm0 11.3h-9l-4.5 3.9 4.5 3.9h9l4.5-3.9-4.5-3.9zm0 11.3h-9l-4.5 3.9 4.5 4h9l4.5-4-4.5-3.9zm0 11.4h-9L150 635l4.5 3.9h9l4.5-3.9-4.5-3.9zm0 11.3h-9l-4.5 3.9 4.5 3.9h9l4.5-3.9-4.5-3.9zm0-181.4h-9l-4.5 3.9 4.5 3.9h9l4.5-3.9-4.5-3.9zm18 96.4h-9l-4.5 3.9 4.5 3.9h9l4.5-3.9-4.5-3.9zm0 11.3h-9l-4.5 3.9 4.5 3.9h9l4.5-3.9-4.5-3.9zm0 11.4h-9L168 584l4.5 3.9h9l4.5-3.9-4.5-3.9zm0 11.3h-9l-4.5 3.9 4.5 3.9h9l4.5-3.9-4.5-3.9zm0 11.3h-9l-4.5 3.9 4.5 3.9h9l4.5-3.9-4.5-3.9zm0 11.4h-9L168 618l4.5 3.9h9l4.5-3.9-4.5-3.9zm0 11.3h-9l-4.5 3.9 4.5 3.9h9l4.5-3.9-4.5-3.9zm0 11.4h-9l-4.5 3.9 4.5 3.9h9l4.5-3.9-4.5-3.9zm0 11.3h-9L168 652l4.5 3.9h9l4.5-3.9-4.5-3.9zm18 5.7h-9l-4.5 3.9 4.5 3.9h9l4.5-3.9-4.5-3.9zm0-102.1h-9l-4.5 3.9 4.5 3.9h9l4.5-3.9-4.5-3.9zm0 11.3h-9l-4.5 3.9 4.5 4h9l4.5-4-4.5-3.9zm0 11.4h-9l-4.5 3.9 4.5 3.9h9l4.5-3.9-4.5-3.9zm0 11.3h-9l-4.5 3.9 4.5 3.9h9l4.5-3.9-4.5-3.9zm0 11.4h-9L186 601l4.5 3.9h9l4.5-3.9-4.5-3.9zm0 11.3h-9l-4.5 3.9 4.5 3.9h9l4.5-3.9-4.5-3.9zm0 11.3h-9l-4.5 3.9 4.5 4h9l4.5-4-4.5-3.9zm0 11.4h-9L186 635l4.5 3.9h9l4.5-3.9-4.5-3.9zm0 11.3h-9l-4.5 3.9 4.5 3.9h9l4.5-3.9-4.5-3.9zm18-85h-9l-4.6 3.9 4.6 3.9h9l4.5-3.9-4.5-3.9zm0 11.3h-9l-4.6 3.9 4.6 3.9h9l4.5-3.9-4.5-3.9zm0 11.4h-9l-4.6 3.9 4.6 3.9h9l4.5-3.9-4.5-3.9zm0 11.3h-9l-4.6 3.9 4.6 3.9h9l4.5-3.9-4.5-3.9zm0 11.3h-9l-4.6 3.9 4.6 3.9h9l4.5-3.9-4.5-3.9zm0 11.4h-9l-4.6 3.9 4.6 3.9h9l4.5-3.9-4.5-3.9zm0 11.3h-9l-4.6 3.9 4.6 3.9h9l4.5-3.9-4.5-3.9zm0 11.4h-9l-4.6 3.9 4.6 3.9h9l4.5-3.9-4.5-3.9zm0 11.3h-9l-4.6 3.9 4.6 3.9h9l4.5-3.9-4.5-3.9zm17.9 5.7h-9l-4.5 3.9 4.5 3.9h9l4.6-3.9-4.6-3.9zm0-102.1h-9l-4.5 3.9 4.5 3.9h9l4.6-3.9-4.6-3.9zm0 11.3h-9l-4.5 3.9 4.5 4h9l4.6-4-4.6-3.9zm0 11.4h-9l-4.5 3.9 4.5 3.9h9l4.6-3.9-4.6-3.9zm0 11.3h-9l-4.5 3.9 4.5 3.9h9l4.6-3.9-4.6-3.9zm0 11.4h-9l-4.5 3.9 4.5 3.9h9l4.6-3.9-4.6-3.9zm0 11.3h-9l-4.5 3.9 4.5 3.9h9l4.6-3.9-4.6-3.9zm0 11.3h-9l-4.5 3.9 4.5 4h9l4.6-4-4.6-3.9zm0 11.4h-9l-4.5 3.9 4.5 3.9h9l4.6-3.9-4.6-3.9zm0 11.3h-9l-4.5 3.9 4.5 3.9h9l4.6-3.9-4.6-3.9zm18-85h-9l-4.5 3.9 4.5 3.9h9l4.5-3.9-4.5-3.9zm0 11.3h-9l-4.5 3.9 4.5 3.9h9l4.5-3.9-4.5-3.9zm0 11.4h-9l-4.5 3.9 4.5 3.9h9l4.5-3.9-4.5-3.9zm0 11.3h-9l-4.5 3.9 4.5 3.9h9l4.5-3.9-4.5-3.9zm0 11.3h-9l-4.5 3.9 4.5 3.9h9l4.5-3.9-4.5-3.9zm0 11.4h-9l-4.5 3.9 4.5 3.9h9l4.5-3.9-4.5-3.9zm0 11.3h-9l-4.5 3.9 4.5 3.9h9l4.5-3.9-4.5-3.9zm0 11.4h-9l-4.5 3.9 4.5 3.9h9l4.5-3.9-4.5-3.9zm0 11.3h-9l-4.5 3.9 4.5 3.9h9l4.5-3.9-4.5-3.9zm18 5.7h-9l-4.5 3.9 4.5 3.9h9l4.5-3.9-4.5-3.9zm0-102.1h-9l-4.5 3.9 4.5 3.9h9l4.5-3.9-4.5-3.9zm0 11.3h-9l-4.5 3.9 4.5 4h9l4.5-4-4.5-3.9zm0 11.4h-9l-4.5 3.9 4.5 3.9h9l4.5-3.9-4.5-3.9zm0 11.3h-9l-4.5 3.9 4.5 3.9h9l4.5-3.9-4.5-3.9zm0 11.4h-9l-4.5 3.9 4.5 3.9h9l4.5-3.9-4.5-3.9zm0 11.3h-9l-4.5 3.9 4.5 3.9h9l4.5-3.9-4.5-3.9zm0 11.3h-9l-4.5 3.9 4.5 4h9l4.5-4-4.5-3.9zm0 11.4h-9l-4.5 3.9 4.5 3.9h9l4.5-3.9-4.5-3.9zm0 11.3h-9l-4.5 3.9 4.5 3.9h9l4.5-3.9-4.5-3.9zm18-85h-9l-4.5 3.9 4.5 3.9h9l4.5-3.9-4.5-3.9zm0 11.3h-9l-4.5 3.9 4.5 3.9h9l4.5-3.9-4.5-3.9zm0 11.4h-9l-4.5 3.9 4.5 3.9h9l4.5-3.9-4.5-3.9zm0 11.3h-9l-4.5 3.9 4.5 3.9h9l4.5-3.9-4.5-3.9zm0 11.3h-9l-4.5 3.9 4.5 3.9h9l4.5-3.9-4.5-3.9zm0 11.4h-9l-4.5 3.9 4.5 3.9h9l4.5-3.9-4.5-3.9zm0 11.3h-9l-4.5 3.9 4.5 3.9h9l4.5-3.9-4.5-3.9zm0 11.4h-9l-4.5 3.9 4.5 3.9h9l4.5-3.9-4.5-3.9zm0 11.3h-9l-4.5 3.9 4.5 3.9h9l4.5-3.9-4.5-3.9zm18 5.7h-9.1l-4.5 3.9 4.5 3.9h9.1l4.5-3.9-4.5-3.9zm0-102.1h-9.1l-4.5 3.9 4.5 3.9h9.1l4.5-3.9-4.5-3.9zm0 11.3h-9.1l-4.5 3.9 4.5 4h9.1l4.5-4-4.5-3.9zm0 11.4h-9.1l-4.5 3.9 4.5 3.9h9.1l4.5-3.9-4.5-3.9zm0 11.3h-9.1l-4.5 3.9 4.5 3.9h9.1l4.5-3.9-4.5-3.9zm0 11.4h-9.1l-4.5 3.9 4.5 3.9h9.1l4.5-3.9-4.5-3.9zm0 11.3h-9.1l-4.5 3.9 4.5 3.9h9.1l4.5-3.9-4.5-3.9zm0 11.3h-9.1l-4.5 3.9 4.5 4h9.1l4.5-4-4.5-3.9zm0 11.4h-9.1l-4.5 3.9 4.5 3.9h9.1l4.5-3.9-4.5-3.9zm0 11.3h-9.1l-4.5 3.9 4.5 3.9h9.1l4.5-3.9-4.5-3.9zm17.9-85h-9l-4.5 3.9 4.5 3.9h9l4.5-3.9-4.5-3.9zm0 11.3h-9l-4.5 3.9 4.5 3.9h9l4.5-3.9-4.5-3.9zm0 11.4h-9l-4.5 3.9 4.5 3.9h9l4.5-3.9-4.5-3.9zm0 11.3h-9l-4.5 3.9 4.5 3.9h9l4.5-3.9-4.5-3.9zm0 11.3h-9l-4.5 3.9 4.5 3.9h9l4.5-3.9-4.5-3.9zm0 11.4h-9l-4.5 3.9 4.5 3.9h9l4.5-3.9-4.5-3.9zm0 11.3h-9l-4.5 3.9 4.5 3.9h9l4.5-3.9-4.5-3.9zm0 11.4h-9l-4.5 3.9 4.5 3.9h9l4.5-3.9-4.5-3.9zm0 11.3h-9l-4.5 3.9 4.5 3.9h9l4.5-3.9-4.5-3.9zm18 5.7h-9l-4.5 3.9 4.5 3.9h9l4.5-3.9-4.5-3.9zm0-102.1h-9l-4.5 3.9 4.5 3.9h9l4.5-3.9-4.5-3.9zm0 11.3h-9l-4.5 3.9 4.5 4h9l4.5-4-4.5-3.9zm0 11.4h-9l-4.5 3.9 4.5 3.9h9l4.5-3.9-4.5-3.9zm0 11.3h-9l-4.5 3.9 4.5 3.9h9l4.5-3.9-4.5-3.9zm0 11.4h-9l-4.5 3.9 4.5 3.9h9l4.5-3.9-4.5-3.9zm0 11.3h-9l-4.5 3.9 4.5 3.9h9l4.5-3.9-4.5-3.9zm0 11.3h-9l-4.5 3.9 4.5 4h9l4.5-4-4.5-3.9zm0 11.4h-9l-4.5 3.9 4.5 3.9h9l4.5-3.9-4.5-3.9zm0 11.3h-9l-4.5 3.9 4.5 3.9h9l4.5-3.9-4.5-3.9zm18-85h-9l-4.5 3.9 4.5 3.9h9l4.5-3.9-4.5-3.9zm0 11.3h-9l-4.5 3.9 4.5 3.9h9l4.5-3.9-4.5-3.9zm0 11.4h-9l-4.5 3.9 4.5 3.9h9l4.5-3.9-4.5-3.9zm0 11.3h-9l-4.5 3.9 4.5 3.9h9l4.5-3.9-4.5-3.9zm0 11.3h-9l-4.5 3.9 4.5 3.9h9l4.5-3.9-4.5-3.9zm0 11.4h-9l-4.5 3.9 4.5 3.9h9l4.5-3.9-4.5-3.9zm0 11.3h-9l-4.5 3.9 4.5 3.9h9l4.5-3.9-4.5-3.9zm0 11.4h-9l-4.5 3.9 4.5 3.9h9l4.5-3.9-4.5-3.9zm0 11.3h-9l-4.5 3.9 4.5 3.9h9l4.5-3.9-4.5-3.9zm18 5.7h-9l-4.6 3.9 4.6 3.9h9l4.5-3.9-4.5-3.9zm0-102.1h-9l-4.6 3.9 4.6 3.9h9l4.5-3.9-4.5-3.9zm35.9 0h-9l-4.5 3.9 4.5 3.9h9l4.5-3.9-4.5-3.9zM379.3 563h-9l-4.6 3.9 4.6 4h9l4.5-4-4.5-3.9zm0 11.4h-9l-4.6 3.9 4.6 3.9h9l4.5-3.9-4.5-3.9zm0 11.3h-9l-4.6 3.9 4.6 3.9h9l4.5-3.9-4.5-3.9zm0 11.4h-9l-4.6 3.9 4.6 3.9h9l4.5-3.9-4.5-3.9zm0 11.3h-9l-4.6 3.9 4.6 3.9h9l4.5-3.9-4.5-3.9zm0 11.3h-9l-4.6 3.9 4.6 4h9l4.5-4-4.5-3.9zm0 11.4h-9l-4.6 3.9 4.6 3.9h9l4.5-3.9-4.5-3.9zm0 11.3h-9l-4.6 3.9 4.6 3.9h9l4.5-3.9-4.5-3.9zm18-85h-9.1l-4.5 3.9 4.5 3.9h9.1l4.5-3.9-4.5-3.9zm0 11.3h-9.1l-4.5 3.9 4.5 3.9h9.1l4.5-3.9-4.5-3.9zm0 11.4h-9.1l-4.5 3.9 4.5 3.9h9.1l4.5-3.9-4.5-3.9zm0 11.3h-9.1l-4.5 3.9 4.5 3.9h9.1l4.5-3.9-4.5-3.9zm0 11.3h-9.1l-4.5 3.9 4.5 3.9h9.1l4.5-3.9-4.5-3.9zm0 11.4h-9.1l-4.5 3.9 4.5 3.9h9.1l4.5-3.9-4.5-3.9zm0 11.3h-9.1l-4.5 3.9 4.5 3.9h9.1l4.5-3.9-4.5-3.9zm0 11.4h-9.1l-4.5 3.9 4.5 3.9h9.1l4.5-3.9-4.5-3.9zm0 11.3h-9.1l-4.5 3.9 4.5 3.9h9.1l4.5-3.9-4.5-3.9zm17.9 5.7h-9l-4.5 3.9 4.5 3.9h9l4.5-3.9-4.5-3.9zm0-90.8h-9l-4.5 3.9 4.5 4h9l4.5-4-4.5-3.9zm0 11.4h-9l-4.5 3.9 4.5 3.9h9l4.5-3.9-4.5-3.9zm0 11.3h-9l-4.5 3.9 4.5 3.9h9l4.5-3.9-4.5-3.9zm0 11.4h-9l-4.5 3.9 4.5 3.9h9l4.5-3.9-4.5-3.9zm0 11.3h-9l-4.5 3.9 4.5 3.9h9l4.5-3.9-4.5-3.9zm0 11.3h-9l-4.5 3.9 4.5 4h9l4.5-4-4.5-3.9zm0 11.4h-9l-4.5 3.9 4.5 3.9h9l4.5-3.9-4.5-3.9zm0 11.3h-9l-4.5 3.9 4.5 3.9h9l4.5-3.9-4.5-3.9zm18-164.4h-9l-4.5 3.9 4.5 3.9h9l4.5-3.9-4.5-3.9zm0 11.3h-9l-4.5 3.9 4.5 3.9h9l4.5-3.9-4.5-3.9zm0 11.4h-9l-4.5 3.9 4.5 3.9h9l4.5-3.9-4.5-3.9zm0 11.3h-9l-4.5 3.9 4.5 3.9h9l4.5-3.9-4.5-3.9zm0 11.4h-9l-4.5 3.9 4.5 3.9h9l4.5-3.9-4.5-3.9zm0 11.3h-9l-4.5 3.9 4.5 3.9h9l4.5-3.9-4.5-3.9zm0 11.3h-9l-4.5 3.9 4.5 3.9h9l4.5-3.9-4.5-3.9zm0 11.4h-9l-4.5 3.9 4.5 3.9h9l4.5-3.9-4.5-3.9zm0 11.3h-9l-4.5 3.9 4.5 3.9h9l4.5-3.9-4.5-3.9zm0 11.4h-9l-4.5 3.9 4.5 3.9h9l4.5-3.9-4.5-3.9zm0 11.3h-9l-4.5 3.9 4.5 3.9h9l4.5-3.9-4.5-3.9zm0 11.3h-9l-4.5 3.9 4.5 3.9h9l4.5-3.9-4.5-3.9zm0 11.4h-9l-4.5 3.9 4.5 3.9h9l4.5-3.9-4.5-3.9zm0 11.3h-9l-4.5 3.9 4.5 3.9h9l4.5-3.9-4.5-3.9zm0 11.4h-9l-4.5 3.9 4.5 3.9h9l4.5-3.9-4.5-3.9zm0 11.3h-9l-4.5 3.9 4.5 3.9h9l4.5-3.9-4.5-3.9zm0-181.4h-9l-4.5 3.9 4.5 3.9h9l4.5-3.9-4.5-3.9z"/>
      <path class="mini3x-cls-1" d="M518.8 319.1v45.1c-6-5.7-9.7-13.7-9.7-22.6s3.7-16.9 9.7-22.5Z"/>
      <path class="mini3x-cls-8" d="M571.1 341.7c0 17.1-13.9 31-31 31s-15.8-3.2-21.3-8.5v-45.1c5.5-5.2 13.1-8.5 21.3-8.5 17.1 0 31 13.9 31 31Z"/>
      <circle class="mini3x-cls-8" cx="527.8" cy="110.8" r="18.8"/>
      <circle class="mini3x-cls-6" cx="527.8" cy="110.8" r="17.3"/>
      <path class="mini3x-cls-1" d="M538.6 110.8c0 6-4.8 10.8-10.8 10.8s-10.8-4.8-10.8-10.8 3.9-9.8 9-10.7v1.8c-4.1.8-7.2 4.5-7.2 8.8s4 9 9 9 9-4 9-9-3.1-8-7.2-8.8v-1.8c5.1.9 9 5.3 9 10.7Z"/>
      <path class="mini3x-cls-1" d="M526.9 99.3h1.8v10.3h-1.8z"/>
      <circle class="mini3x-cls-8" cx="527.8" cy="143" r="6.2"/>
      <circle class="mini3x-cls-6" cx="527.8" cy="143" r="5.7"/>
      <circle class="mini3x-cls-17" cx="527.8" cy="167" r="3.6"/>
      <circle class="mini3x-cls-17" cx="527.8" cy="235.9" r="3.6"/>
      <circle class="mini3x-cls-17" cx="527.8" cy="218.6" r="3.6"/>
      <circle class="mini3x-cls-17" cx="527.8" cy="201.4" r="3.6"/>
      <circle class="mini3x-cls-17" cx="527.8" cy="184.2" r="3.6"/>
    </g>
    <g id="MINI_X_DRIVES" data-name="MINI X+ DRIVES">
      <g id="DRIVE_CAGE_7" data-name="MINI X+ DRIVE CAGE 6">
        <path class="mini3x-cls-21" d="M190.4 500H408v41.6H190.4z"/>
        <path class="tint-target mini3x-cls-6" d="M357.3 509.2c-3 3-4.8 7.1-4.8 11.6 0 7 4.4 13.1 10.7 15.4v5.4H190.4V500h172.8v5.4c-2.2.8-4.2 2.1-5.8 3.8Z"/>
        <rect class="mini3x-cls-1" x="246.5" y="507" width="98.9" height="9.2" rx="4.6" ry="4.6"/>
        <rect class="mini3x-cls-21" x="246.5" y="507" width="31.2" height="9.2" rx="4.6" ry="4.6"/>
        <rect class="mini3x-cls-21" x="314.2" y="507" width="31.2" height="9.2" rx="4.6" ry="4.6"/>
        <rect class="mini3x-cls-21" x="280.4" y="507" width="31.2" height="9.2" rx="4.6" ry="4.6"/>
        <rect class="mini3x-cls-1" x="246.5" y="525.4" width="98.9" height="9.2" rx="4.6" ry="4.6"/>
        <rect class="mini3x-cls-21" x="246.5" y="525.4" width="31.2" height="9.2" rx="4.6" ry="4.6"/>
        <rect class="mini3x-cls-21" x="314.2" y="525.4" width="31.2" height="9.2" rx="4.6" ry="4.6"/>
        <rect class="mini3x-cls-21" x="280.4" y="525.4" width="31.2" height="9.2" rx="4.6" ry="4.6"/>
        <path class="tint-target mini3x-cls-6" d="M408 500v41.6h-43.3v-4.9c1.4.4 2.8.6 4.4.6h4c4.5 0 8.7-1.8 11.6-4.8 3-3 4.8-7.1 4.8-11.6 0-9.1-7.4-16.5-16.5-16.5h-4c-1.5 0-3 .2-4.4.6v-4.9h43.3Z"/>
        <circle class="tint-target mini3x-cls-6" cx="369.3" cy="520.8" r="15.3"/>
        <circle class="tint-target mini3x-cls-12" cx="369.3" cy="520.8" r="12.8"/>
        <path class="mini3x-cls-17" d="M395.1 525.5h5v7.2h-5zm0-16.6h5v7.2h-5z"/>
      </g>
      <g id="DRIVE_CAGE_6" data-name="MINI X+ DRIVE CAGE 5">
        <path class="mini3x-cls-21" d="M190.4 452H408v41.6H190.4z"/>
        <path class="tint-target mini3x-cls-6" d="M357.3 461.2c-3 3-4.8 7.1-4.8 11.6 0 7 4.4 13.1 10.7 15.4v5.4H190.4V452h172.8v5.4c-2.2.8-4.2 2.1-5.8 3.8Z"/>
        <rect class="mini3x-cls-1" x="246.5" y="459.1" width="98.9" height="9.2" rx="4.6" ry="4.6"/>
        <rect class="mini3x-cls-21" x="246.5" y="459.1" width="31.2" height="9.2" rx="4.6" ry="4.6"/>
        <rect class="mini3x-cls-21" x="314.2" y="459.1" width="31.2" height="9.2" rx="4.6" ry="4.6"/>
        <rect class="mini3x-cls-21" x="280.4" y="459.1" width="31.2" height="9.2" rx="4.6" ry="4.6"/>
        <rect class="mini3x-cls-1" x="246.5" y="477.4" width="98.9" height="9.2" rx="4.6" ry="4.6"/>
        <rect class="mini3x-cls-21" x="246.5" y="477.4" width="31.2" height="9.2" rx="4.6" ry="4.6"/>
        <rect class="mini3x-cls-21" x="314.2" y="477.4" width="31.2" height="9.2" rx="4.6" ry="4.6"/>
        <rect class="mini3x-cls-21" x="280.4" y="477.4" width="31.2" height="9.2" rx="4.6" ry="4.6"/>
        <path class="tint-target mini3x-cls-6" d="M408 452v41.6h-43.3v-4.9c1.4.4 2.8.6 4.4.6h4c4.5 0 8.7-1.8 11.6-4.8 3-3 4.8-7.1 4.8-11.6 0-9.1-7.4-16.5-16.5-16.5h-4c-1.5 0-3 .2-4.4.6v-4.9h43.3Z"/>
        <circle class="tint-target mini3x-cls-6" cx="369.3" cy="472.8" r="15.3"/>
        <circle class="tint-target mini3x-cls-12" cx="369.3" cy="472.8" r="12.8"/>
        <path class="mini3x-cls-17" d="M395.1 477.5h5v7.2h-5zm0-16.5h5v7.2h-5z"/>
      </g>
      <g id="DRIVE_CAGE_5" data-name="MINI X+ DRIVE CAGE 4">
        <path class="mini3x-cls-21" d="M161.7 360.3h286.1V433H161.7z"/>
        <path class="mini3x-cls-13" transform="rotate(180 450.45 396.65)" d="M447.7 360.3h5.5V433h-5.5z"/>
        <path class="mini3x-cls-13" transform="rotate(180 155.9 364.45)" d="M150.2 360.3h11.5v8.4h-11.5z"/>
        <path class="mini3x-cls-13" transform="rotate(180 155.9 428.8)" d="M150.2 424.6h11.5v8.4h-11.5z"/>
        <path class="mini3x-cls-1" transform="rotate(180 158.8 388.1)" d="M155.9 368.6h5.8v39h-5.8z"/>
        <path class="mini3x-cls-1" transform="rotate(180 154.85 416.1)" d="M148 407.6h13.7v17.1H148z"/>
        <path class="mini3x-cls-11" d="M154.5 368.6h1.4v39h-1.4z"/>
        <path class="tint-target mini3x-cls-6" d="M367.5 377.8c-4.8 4.8-7.8 11.5-7.8 18.8 0 14 10.9 25.5 24.6 26.6v9.8H161.6v-72.7h222.7v9.8c-6.5.5-12.4 3.3-16.8 7.7Z"/>
        <path class="tint-target mini3x-cls-19" d="M161.7 360.3h24.5V433h-24.5z"/>
        <path class="mini3x-cls-2" d="M330.2 396.6c0 1.3-.5 2.4-1.3 3.3-.8.8-2 1.3-3.3 1.3H198c-2.5 0-4.6-2.1-4.6-4.6s.5-2.4 1.4-3.3c.8-.8 2-1.3 3.3-1.3h127.6c2.5 0 4.6 2.1 4.6 4.6Zm11.8 18.5c0 1.3-.5 2.4-1.3 3.3-.8.8-2 1.3-3.3 1.3H197.9c-2.5 0-4.6-2.1-4.6-4.6s.5-2.4 1.4-3.3c.8-.8 2-1.3 3.3-1.3h139.5c2.5 0 4.6 2.1 4.6 4.6Zm0-36.9c0 1.3-.5 2.4-1.3 3.3-.8.8-2 1.3-3.3 1.3H197.9c-2.5 0-4.6-2.1-4.6-4.6s.5-2.4 1.4-3.3c.8-.8 2-1.3 3.3-1.3h139.5c2.5 0 4.6 2.1 4.6 4.6Z"/>
        <path class="mini3x-cls-1" d="M234.5 373.6h3.7v9.2h-3.7zm0 18.4h3.7v9.2h-3.7zm0 18.4h3.7v9.2h-3.7zm62.6-36.8h3.7v9.2h-3.7zm0 18.4h3.7v9.2h-3.7zm0 18.4h3.7v9.2h-3.7z"/>
        <circle class="tint-target mini3x-cls-6" cx="386.4" cy="396.6" r="24.5"/>
        <circle class="tint-target mini3x-cls-12" cx="386.4" cy="396.6" r="22.3"/>
        <circle class="tint-target mini3x-cls-2" cx="386.4" cy="396.6" r="8.6"/>
        <path class="mini3x-cls-12" d="M383.9 389.2v14.9c-3.1-1-5.4-4-5.4-7.5s2.3-6.4 5.4-7.5Zm10.3 7.4c0 3.5-2.3 6.4-5.4 7.5v-14.9c3.1 1 5.4 4 5.4 7.5Z"/>
        <path class="mini3x-cls-9" d="M388.8 389.2v14.9c-.8.2-1.6.4-2.5.4s-1.7-.1-2.4-.4v-14.9c.8-.2 1.6-.4 2.4-.4s1.7.1 2.5.4Z"/>
        <circle class="mini3x-cls-2" cx="386.4" cy="396.6" r="4.2"/>
        <path class="mini3x-cls-6" d="m405.5 396.6-7.3-4.2v8.4l7.3-4.2z"/>
        <path class="tint-target mini3x-cls-6" d="M447.7 360.3V433h-61.1v-9.7h6.5c7.4 0 14-3 18.8-7.8 4.8-4.8 7.8-11.5 7.8-18.8 0-14.7-11.9-26.6-26.6-26.6h-6.5v-9.7h61.1Z"/>
        <path class="mini3x-cls-6" d="M427.3 395.2v.7c0 .2-.1.3-.2.3s-.2 0-.2-.3v-.7c0-.9-.6-1.3-1.2-1.3s-1.2.5-1.2 1.3v1h.7c.4 0 .5.2.5.6v2.4c0 .4-.2.6-.6.6H422c-.4 0-.6-.2-.6-.6v-2.4c0-.4.2-.6.6-.6h2v-1c0-1.3.8-1.9 1.7-1.9s1.7.6 1.7 1.9Zm-27.1 32.9v-1c0-1.3-.9-1.9-1.7-1.9s-1.7.6-1.7 1.9v1c-.3 0-.5.2-.5.6v2.4c0 .4.2.6.6.6h3.1c.4 0 .6-.2.6-.6v-2.4c0-.4-.1-.6-.4-.6Zm-3 0v-1c0-.9.6-1.3 1.2-1.3s1.2.5 1.2 1.3v1h-2.5Z"/>
        <circle class="mini3x-cls-2" cx="440" cy="379.3" r="5.5"/>
        <circle class="mini3x-cls-17" cx="440" cy="379.3" r="4.4"/>
        <circle class="mini3x-cls-2" cx="440" cy="393.1" r="5.5"/>
        <circle class="mini3x-cls-17" cx="440" cy="393.1" r="4.4"/>
        <path class="mini3x-cls-22" d="M440 362.4c-1.3 0-2.3.6-2.3 1.3v4.5c0 .8 1 1.3 2.3 1.3s2.3-.6 2.3-1.3v-4.5c0-.8-1-1.3-2.3-1.3Zm0 .5c1.1 0 1.8.4 1.8.8s-.7.8-1.8.8-1.8-.4-1.8-.8.7-.8 1.8-.8Zm0 6.2c-1.1 0-1.8-.4-1.8-.8v-3.6c.4.3 1.1.5 1.8.5s1.4-.2 1.8-.5v3.6c0 .4-.7.8-1.8.8Z"/>
        <path class="mini3x-cls-25" d="M440 405.4c-.8 0-1.4.6-1.4 1.4 0 .4.2.9.6 1.1.1 0 .2.2.2.4v.5h1v-.5c0-.2 0-.3.2-.4.6-.4.8-1.3.3-1.9-.3-.4-.7-.6-1.1-.6m-1.5 1.3c0-1 .8-1.8 1.8-1.8s1.8.8 1.8 1.8c0 .6-.3 1.1-.7 1.4v.5c0 .3-.2.5-.5.5h-1c-.3 0-.5-.2-.5-.5v-.5c-.5-.3-.7-.9-.7-1.4m.5 3.1c0-.1 0-.2.2-.2h1.6c.1 0 .2 0 .2.2s0 .2-.2.2h-1.6c-.1 0-.2 0-.2-.2m1-7.1c.1 0 .2 0 .2.2v1.6c0 .1 0 .2-.2.2s-.2 0-.2-.2v-1.6c0-.1 0-.2.2-.2m-4 4c0-.1 0-.2.2-.2h1.6c.1 0 .2 0 .2.2s0 .2-.2.2h-1.6c-.1 0-.2 0-.2-.2m8 0c0-.1 0-.2-.2-.2h-1.6c-.1 0-.2 0-.2.2s0 .2.2.2h1.6c.1 0 .2 0 .2-.2m-6.8-2.8h.3l1.1 1.1v.3c0 .1-.2 0-.3 0l-1.1-1.1v-.3"/>
        <path class="mini3x-cls-25" d="M442.8 409.5v-.3l-1.1-1.1h-.3c-.1 0 0 .2 0 .3l1.1 1.1h.3m0-5.6h-.3l-1.1 1.1v.3c0 .1.2 0 .3 0l1.1-1.1v-.3m-5.6 5.6v-.3l1.1-1.1h.3c.1 0 0 .2 0 .3l-1.1 1.1h-.3"/>
      </g>
      <g id="DRIVE_CAGE_4" data-name="MINI X+ DRIVE CAGE 3">
        <path class="mini3x-cls-21" d="M161.7 281.6h286.1v72.7H161.7z"/>
        <path class="mini3x-cls-13" transform="rotate(180 450.45 317.95)" d="M447.7 281.6h5.5v72.7h-5.5z"/>
        <path class="mini3x-cls-13" transform="rotate(180 155.9 285.75)" d="M150.2 281.6h11.5v8.4h-11.5z"/>
        <path class="mini3x-cls-13" transform="rotate(180 155.9 350.1)" d="M150.2 345.9h11.5v8.4h-11.5z"/>
        <path class="mini3x-cls-1" transform="rotate(180 158.8 309.4)" d="M155.9 289.9h5.8v39h-5.8z"/>
        <path class="mini3x-cls-1" transform="rotate(180 154.85 337.4)" d="M148 328.9h13.7V346H148z"/>
        <path class="mini3x-cls-11" d="M154.5 289.9h1.4v39h-1.4z"/>
        <path class="tint-target mini3x-cls-6" d="M367.5 299.1c-4.8 4.8-7.8 11.5-7.8 18.8 0 14 10.9 25.5 24.6 26.6v9.8H161.6v-72.7h222.7v9.8c-6.5.5-12.4 3.3-16.8 7.7Z"/>
        <path class="tint-target mini3x-cls-19" d="M161.7 281.6h24.5v72.7h-24.5z"/>
        <path class="mini3x-cls-2" d="M330.2 317.9c0 1.3-.5 2.4-1.3 3.3-.8.8-2 1.3-3.3 1.3H198c-2.5 0-4.6-2.1-4.6-4.6s.5-2.4 1.4-3.3c.8-.8 2-1.3 3.3-1.3h127.6c2.5 0 4.6 2.1 4.6 4.6Zm11.8 18.5c0 1.3-.5 2.4-1.3 3.3-.8.8-2 1.3-3.3 1.3H197.9c-2.5 0-4.6-2.1-4.6-4.6s.5-2.4 1.4-3.3c.8-.8 2-1.3 3.3-1.3h139.5c2.5 0 4.6 2.1 4.6 4.6Zm0-36.9c0 1.3-.5 2.4-1.3 3.3-.8.8-2 1.3-3.3 1.3H197.9c-2.5 0-4.6-2.1-4.6-4.6s.5-2.4 1.4-3.3c.8-.8 2-1.3 3.3-1.3h139.5c2.5 0 4.6 2.1 4.6 4.6Z"/>
        <path class="mini3x-cls-1" d="M234.5 294.9h3.7v9.2h-3.7zm0 18.4h3.7v9.2h-3.7zm0 18.5h3.7v9.2h-3.7zm62.6-36.9h3.7v9.2h-3.7zm0 18.4h3.7v9.2h-3.7zm0 18.5h3.7v9.2h-3.7z"/>
        <circle class="tint-target mini3x-cls-6" cx="386.4" cy="317.9" r="24.5"/>
        <circle class="tint-target mini3x-cls-12" cx="386.4" cy="317.9" r="22.3"/>
        <circle class="tint-target mini3x-cls-2" cx="386.4" cy="317.9" r="8.6"/>
        <path class="mini3x-cls-12" d="M383.9 310.5v14.9c-3.1-1-5.4-4-5.4-7.5s2.3-6.4 5.4-7.5Zm10.3 7.4c0 3.5-2.3 6.4-5.4 7.5v-14.9c3.1 1 5.4 4 5.4 7.5Z"/>
        <path class="mini3x-cls-9" d="M388.8 310.5v14.9c-.8.2-1.6.4-2.5.4s-1.7-.1-2.4-.4v-14.9c.8-.2 1.6-.4 2.4-.4s1.7.1 2.5.4Z"/>
        <circle class="mini3x-cls-2" cx="386.4" cy="317.9" r="4.2"/>
        <path class="mini3x-cls-6" d="m405.5 317.9-7.3-4.2v8.4l7.3-4.2z"/>
        <path class="tint-target mini3x-cls-6" d="M447.7 281.6v72.7h-61.1v-9.7h6.5c7.4 0 14-3 18.8-7.8 4.8-4.8 7.8-11.5 7.8-18.8 0-14.7-11.9-26.6-26.6-26.6h-6.5v-9.7h61.1Z"/>
        <path class="mini3x-cls-6" d="M427.3 316.6v.7c0 .2-.1.3-.2.3s-.2 0-.2-.3v-.7c0-.9-.6-1.3-1.2-1.3s-1.2.5-1.2 1.3v1h.7c.4 0 .5.2.5.6v2.4c0 .4-.2.6-.6.6H422c-.4 0-.6-.2-.6-.6v-2.4c0-.4.2-.6.6-.6h2v-1c0-1.3.8-1.9 1.7-1.9s1.7.6 1.7 1.9Zm-27.1 32.8v-1c0-1.3-.9-1.9-1.7-1.9s-1.7.6-1.7 1.9v1c-.3 0-.5.2-.5.6v2.4c0 .4.2.6.6.6h3.1c.4 0 .6-.2.6-.6V350c0-.4-.1-.6-.4-.6Zm-3 0v-1c0-.9.6-1.3 1.2-1.3s1.2.5 1.2 1.3v1h-2.5Z"/>
        <circle class="mini3x-cls-2" cx="440" cy="300.6" r="5.5"/>
        <circle class="mini3x-cls-17" cx="440" cy="300.6" r="4.4"/>
        <circle class="mini3x-cls-2" cx="440" cy="314.4" r="5.5"/>
        <circle class="mini3x-cls-17" cx="440" cy="314.4" r="4.4"/>
        <path class="mini3x-cls-22" d="M440 283.7c-1.3 0-2.3.6-2.3 1.3v4.5c0 .8 1 1.3 2.3 1.3s2.3-.6 2.3-1.3V285c0-.8-1-1.3-2.3-1.3Zm0 .5c1.1 0 1.8.4 1.8.8s-.7.8-1.8.8-1.8-.4-1.8-.8.7-.8 1.8-.8Zm0 6.2c-1.1 0-1.8-.4-1.8-.8V286c.4.3 1.1.5 1.8.5s1.4-.2 1.8-.5v3.6c0 .4-.7.8-1.8.8Z"/>
        <path class="mini3x-cls-25" d="M440 326.7c-.8 0-1.4.6-1.4 1.4 0 .4.2.9.6 1.1.1 0 .2.2.2.4v.5h1v-.5c0-.2 0-.3.2-.4.6-.4.8-1.3.3-1.9-.3-.4-.7-.6-1.1-.6m-1.5 1.3c0-1 .8-1.8 1.8-1.8s1.8.8 1.8 1.8c0 .6-.3 1.1-.7 1.4v.5c0 .3-.2.5-.5.5h-1c-.3 0-.5-.2-.5-.5v-.5c-.5-.3-.7-.9-.7-1.4m.5 3.1c0-.1 0-.2.2-.2h1.6c.1 0 .2 0 .2.2s0 .2-.2.2h-1.6c-.1 0-.2 0-.2-.2m1-7c.1 0 .2 0 .2.2v1.6c0 .1 0 .2-.2.2s-.2 0-.2-.2v-1.6c0-.1 0-.2.2-.2m-4 3.9c0-.1 0-.2.2-.2h1.6c.1 0 .2 0 .2.2s0 .2-.2.2h-1.6c-.1 0-.2 0-.2-.2m8 0c0-.1 0-.2-.2-.2h-1.6c-.1 0-.2 0-.2.2s0 .2.2.2h1.6c.1 0 .2 0 .2-.2m-6.8-2.8h.3l1.1 1.1v.3c0 .1-.2 0-.3 0l-1.1-1.1v-.3"/>
        <path class="mini3x-cls-25" d="M442.8 330.8v-.3l-1.1-1.1h-.3c-.1 0 0 .2 0 .3l1.1 1.1h.3m0-5.6h-.3l-1.1 1.1v.3c0 .1.2 0 .3 0l1.1-1.1v-.3m-5.6 5.6v-.3l1.1-1.1h.3c.1 0 0 .2 0 .3l-1.1 1.1h-.3"/>
      </g>
      <g id="DRIVE_CAGE_3" data-name="MINI X+ DRIVE CAGE 2">
        <path class="mini3x-cls-21" d="M161.7 202.9h286.1v72.7H161.7z"/>
        <path class="mini3x-cls-13" transform="rotate(180 450.45 239.25)" d="M447.7 202.9h5.5v72.7h-5.5z"/>
        <path class="mini3x-cls-13" transform="rotate(180 155.9 207.05)" d="M150.2 202.9h11.5v8.4h-11.5z"/>
        <path class="mini3x-cls-13" transform="rotate(180 155.9 271.4)" d="M150.2 267.2h11.5v8.4h-11.5z"/>
        <path class="mini3x-cls-1" transform="rotate(180 158.8 230.7)" d="M155.9 211.2h5.8v39h-5.8z"/>
        <path class="mini3x-cls-1" transform="rotate(180 154.85 258.7)" d="M148 250.2h13.7v17.1H148z"/>
        <path class="mini3x-cls-11" d="M154.5 211.2h1.4v39h-1.4z"/>
        <path class="tint-target mini3x-cls-6" d="M367.5 220.4c-4.8 4.8-7.8 11.5-7.8 18.8 0 14 10.9 25.5 24.6 26.6v9.8H161.6v-72.7h222.7v9.8c-6.5.5-12.4 3.3-16.8 7.7Z"/>
        <path class="tint-target mini3x-cls-19" d="M161.7 202.9h24.5v72.7h-24.5z"/>
        <path class="mini3x-cls-2" d="M330.2 239.2c0 1.3-.5 2.4-1.3 3.3-.8.8-2 1.3-3.3 1.3H198c-2.5 0-4.6-2.1-4.6-4.6s.5-2.4 1.4-3.3c.8-.8 2-1.3 3.3-1.3h127.6c2.5 0 4.6 2.1 4.6 4.6Zm11.8 18.5c0 1.3-.5 2.4-1.3 3.3-.8.8-2 1.3-3.3 1.3H197.9c-2.5 0-4.6-2.1-4.6-4.6s.5-2.4 1.4-3.3c.8-.8 2-1.3 3.3-1.3h139.5c2.5 0 4.6 2.1 4.6 4.6Zm0-36.9c0 1.3-.5 2.4-1.3 3.3-.8.8-2 1.3-3.3 1.3H197.9c-2.5 0-4.6-2.1-4.6-4.6s.5-2.4 1.4-3.3c.8-.8 2-1.3 3.3-1.3h139.5c2.5 0 4.6 2.1 4.6 4.6Z"/>
        <path class="mini3x-cls-1" d="M234.5 216.2h3.7v9.2h-3.7zm0 18.4h3.7v9.2h-3.7zm0 18.5h3.7v9.2h-3.7zm62.6-36.9h3.7v9.2h-3.7zm0 18.4h3.7v9.2h-3.7zm0 18.5h3.7v9.2h-3.7z"/>
        <circle class="tint-target mini3x-cls-6" cx="386.4" cy="239.2" r="24.5"/>
        <circle class="tint-target mini3x-cls-12" cx="386.4" cy="239.2" r="22.3"/>
        <circle class="tint-target mini3x-cls-2" cx="386.4" cy="239.2" r="8.6"/>
        <path class="mini3x-cls-12" d="M383.9 231.8v14.9c-3.1-1-5.4-4-5.4-7.5s2.3-6.4 5.4-7.5Zm10.3 7.4c0 3.5-2.3 6.4-5.4 7.5v-14.9c3.1 1 5.4 4 5.4 7.5Z"/>
        <path class="mini3x-cls-9" d="M388.8 231.8v14.9c-.8.2-1.6.4-2.5.4s-1.7-.1-2.4-.4v-14.9c.8-.2 1.6-.4 2.4-.4s1.7.1 2.5.4Z"/>
        <circle class="mini3x-cls-2" cx="386.4" cy="239.2" r="4.2"/>
        <path class="mini3x-cls-6" d="m405.5 239.2-7.3-4.2v8.4l7.3-4.2z"/>
        <path class="tint-target mini3x-cls-6" d="M447.7 202.9v72.7h-61.1v-9.7h6.5c7.4 0 14-3 18.8-7.8 4.8-4.8 7.8-11.5 7.8-18.8 0-14.7-11.9-26.6-26.6-26.6h-6.5V203h61.1Z"/>
        <path class="mini3x-cls-6" d="M427.3 237.9v.7c0 .2-.1.3-.2.3s-.2 0-.2-.3v-.7c0-.9-.6-1.3-1.2-1.3s-1.2.5-1.2 1.3v1h.7c.4 0 .5.2.5.6v2.4c0 .4-.2.6-.6.6H422c-.4 0-.6-.2-.6-.6v-2.4c0-.4.2-.6.6-.6h2v-1c0-1.3.8-1.9 1.7-1.9s1.7.6 1.7 1.9Zm-27.1 32.8v-1c0-1.3-.9-1.9-1.7-1.9s-1.7.6-1.7 1.9v1c-.3 0-.5.2-.5.6v2.4c0 .4.2.6.6.6h3.1c.4 0 .6-.2.6-.6v-2.4c0-.4-.1-.6-.4-.6Zm-3 0v-1c0-.9.6-1.3 1.2-1.3s1.2.5 1.2 1.3v1h-2.5Z"/>
        <circle class="mini3x-cls-2" cx="440" cy="221.9" r="5.5"/>
        <circle class="mini3x-cls-17" cx="440" cy="221.9" r="4.4"/>
        <circle class="mini3x-cls-2" cx="440" cy="235.7" r="5.5"/>
        <circle class="mini3x-cls-17" cx="440" cy="235.7" r="4.4"/>
        <path class="mini3x-cls-22" d="M440 205c-1.3 0-2.3.6-2.3 1.3v4.5c0 .8 1 1.3 2.3 1.3s2.3-.6 2.3-1.3v-4.5c0-.8-1-1.3-2.3-1.3Zm0 .6c1.1 0 1.8.4 1.8.8s-.7.8-1.8.8-1.8-.4-1.8-.8.7-.8 1.8-.8Zm0 6.1c-1.1 0-1.8-.4-1.8-.8v-3.6c.4.3 1.1.5 1.8.5s1.4-.2 1.8-.5v3.6c0 .4-.7.8-1.8.8Z"/>
        <path class="mini3x-cls-25" d="M440 248c-.8 0-1.4.6-1.4 1.4 0 .4.2.9.6 1.1.1 0 .2.2.2.4v.5h1v-.5c0-.2 0-.3.2-.4.6-.4.8-1.3.3-1.9-.3-.4-.7-.6-1.1-.6m-1.5 1.3c0-1 .8-1.8 1.8-1.8s1.8.8 1.8 1.8c0 .6-.3 1.1-.7 1.4v.5c0 .3-.2.5-.5.5h-1c-.3 0-.5-.2-.5-.5v-.5c-.5-.3-.7-.9-.7-1.4m.5 3.1c0-.1 0-.2.2-.2h1.6c.1 0 .2 0 .2.2s0 .2-.2.2h-1.6c-.1 0-.2 0-.2-.2m1-7c.1 0 .2 0 .2.2v1.6c0 .1 0 .2-.2.2s-.2 0-.2-.2v-1.6c0-.1 0-.2.2-.2m-4 3.9c0-.1 0-.2.2-.2h1.6c.1 0 .2 0 .2.2s0 .2-.2.2h-1.6c-.1 0-.2 0-.2-.2m8 0c0-.1 0-.2-.2-.2h-1.6c-.1 0-.2 0-.2.2s0 .2.2.2h1.6c.1 0 .2 0 .2-.2m-6.8-2.8h.3l1.1 1.1v.3c0 .1-.2 0-.3 0l-1.1-1.1v-.3"/>
        <path class="mini3x-cls-25" d="M442.8 252.2v-.3l-1.1-1.1h-.3c-.1 0 0 .2 0 .3l1.1 1.1h.3m0-5.7h-.3l-1.1 1.1v.3c0 .1.2 0 .3 0l1.1-1.1v-.3m-5.6 5.7v-.3l1.1-1.1h.3c.1 0 0 .2 0 .3l-1.1 1.1h-.3"/>
      </g>
      <g id="DRIVE_CAGE_2" data-name="MINI X+ DRIVE CAGE 1">
        <path class="mini3x-cls-21" d="M161.7 124.2h286.1v72.7H161.7z"/>
        <path class="mini3x-cls-13" transform="rotate(180 450.45 160.55)" d="M447.7 124.2h5.5v72.7h-5.5z"/>
        <path class="mini3x-cls-13" transform="rotate(180 155.9 128.35)" d="M150.2 124.2h11.5v8.4h-11.5z"/>
        <path class="mini3x-cls-13" transform="rotate(180 155.9 192.7)" d="M150.2 188.5h11.5v8.4h-11.5z"/>
        <path class="mini3x-cls-1" transform="rotate(180 158.8 152)" d="M155.9 132.5h5.8v39h-5.8z"/>
        <path class="mini3x-cls-1" transform="rotate(180 154.85 180)" d="M148 171.5h13.7v17.1H148z"/>
        <path class="mini3x-cls-11" d="M154.5 132.5h1.4v39h-1.4z"/>
        <path class="tint-target mini3x-cls-6" d="M367.5 141.7c-4.8 4.8-7.8 11.5-7.8 18.8 0 14 10.9 25.5 24.6 26.6v9.8H161.6v-72.7h222.7v9.8c-6.5.5-12.4 3.3-16.8 7.7Z"/>
        <path class="tint-target mini3x-cls-19" d="M161.7 124.2h24.5v72.7h-24.5z"/>
        <path class="mini3x-cls-2" d="M330.2 160.5c0 1.3-.5 2.4-1.3 3.3-.8.8-2 1.3-3.3 1.3H198c-2.5 0-4.6-2.1-4.6-4.6s.5-2.4 1.4-3.3c.8-.8 2-1.3 3.3-1.3h127.6c2.5 0 4.6 2.1 4.6 4.6ZM342 179c0 1.3-.5 2.4-1.3 3.3-.8.8-2 1.3-3.3 1.3H197.9c-2.5 0-4.6-2.1-4.6-4.6s.5-2.4 1.4-3.3c.8-.8 2-1.3 3.3-1.3h139.5c2.5 0 4.6 2.1 4.6 4.6Zm0-36.9c0 1.3-.5 2.4-1.3 3.3-.8.8-2 1.3-3.3 1.3H197.9c-2.5 0-4.6-2.1-4.6-4.6s.5-2.4 1.4-3.3c.8-.8 2-1.3 3.3-1.3h139.5c2.5 0 4.6 2.1 4.6 4.6Z"/>
        <path class="mini3x-cls-1" d="M234.5 137.5h3.7v9.2h-3.7zm0 18.4h3.7v9.2h-3.7zm0 18.5h3.7v9.2h-3.7zm62.6-36.9h3.7v9.2h-3.7zm0 18.4h3.7v9.2h-3.7zm0 18.5h3.7v9.2h-3.7z"/>
        <circle class="tint-target mini3x-cls-6" cx="386.4" cy="160.5" r="24.5"/>
        <circle class="tint-target mini3x-cls-12" cx="386.4" cy="160.5" r="22.3"/>
        <circle class="tint-target mini3x-cls-2" cx="386.4" cy="160.5" r="8.6"/>
        <path class="mini3x-cls-12" d="M383.9 153.1V168c-3.1-1-5.4-4-5.4-7.5s2.3-6.4 5.4-7.5Zm10.3 7.4c0 3.5-2.3 6.4-5.4 7.5v-14.9c3.1 1 5.4 4 5.4 7.5Z"/>
        <path class="mini3x-cls-9" d="M388.8 153.1V168c-.8.2-1.6.4-2.5.4s-1.7-.1-2.4-.4v-14.9c.8-.2 1.6-.4 2.4-.4s1.7.1 2.5.4Z"/>
        <circle class="mini3x-cls-2" cx="386.4" cy="160.5" r="4.2"/>
        <path class="mini3x-cls-6" d="m405.5 160.5-7.3-4.1v8.3l7.3-4.2z"/>
        <path class="tint-target mini3x-cls-6" d="M447.7 124.2v72.7h-61.1v-9.7h6.5c7.4 0 14-3 18.8-7.8 4.8-4.8 7.8-11.5 7.8-18.8 0-14.7-11.9-26.6-26.6-26.6h-6.5v-9.7h61.1Z"/>
        <path class="mini3x-cls-6" d="M427.3 159.2v.7c0 .2-.1.3-.2.3s-.2 0-.2-.3v-.7c0-.9-.6-1.3-1.2-1.3s-1.2.5-1.2 1.3v1h.7c.4 0 .5.2.5.6v2.4c0 .4-.2.6-.6.6H422c-.4 0-.6-.2-.6-.6v-2.4c0-.4.2-.6.6-.6h2v-1c0-1.3.8-1.9 1.7-1.9s1.7.6 1.7 1.9ZM400.2 192v-1c0-1.3-.9-1.9-1.7-1.9s-1.7.6-1.7 1.9v1c-.3 0-.5.2-.5.6v2.4c0 .4.2.6.6.6h3.1c.4 0 .6-.2.6-.6v-2.4c0-.4-.1-.6-.4-.6Zm-3 0v-1c0-.9.6-1.3 1.2-1.3s1.2.5 1.2 1.3v1h-2.5Z"/>
        <circle class="mini3x-cls-2" cx="440" cy="143.2" r="5.5"/>
        <circle class="mini3x-cls-17" cx="440" cy="143.2" r="4.4"/>
        <circle class="mini3x-cls-2" cx="440" cy="157" r="5.5"/>
        <circle class="mini3x-cls-17" cx="440" cy="157" r="4.4"/>
        <path class="mini3x-cls-22" d="M440 126.3c-1.3 0-2.3.6-2.3 1.3v4.5c0 .8 1 1.3 2.3 1.3s2.3-.6 2.3-1.3v-4.5c0-.8-1-1.3-2.3-1.3Zm0 .6c1.1 0 1.8.4 1.8.8s-.7.8-1.8.8-1.8-.4-1.8-.8.7-.8 1.8-.8Zm0 6.1c-1.1 0-1.8-.4-1.8-.8v-3.6c.4.3 1.1.5 1.8.5s1.4-.2 1.8-.5v3.6c0 .4-.7.8-1.8.8Z"/>
        <path class="mini3x-cls-25" d="M440 169.3c-.8 0-1.4.6-1.4 1.4 0 .4.2.9.6 1.1.1 0 .2.2.2.4v.5h1v-.5c0-.2 0-.3.2-.4.6-.4.8-1.3.3-1.9-.3-.4-.7-.6-1.1-.6m-1.5 1.3c0-1 .8-1.8 1.8-1.8s1.8.8 1.8 1.8c0 .6-.3 1.1-.7 1.4v.5c0 .3-.2.5-.5.5h-1c-.3 0-.5-.2-.5-.5v-.5c-.5-.3-.7-.9-.7-1.4m.5 3.1c0-.1 0-.2.2-.2h1.6c.1 0 .2 0 .2.2s0 .2-.2.2h-1.6c-.1 0-.2 0-.2-.2m1-7c.1 0 .2 0 .2.2v1.6c0 .1 0 .2-.2.2s-.2 0-.2-.2v-1.6c0-.1 0-.2.2-.2m-4 3.9c0-.1 0-.2.2-.2h1.6c.1 0 .2 0 .2.2s0 .2-.2.2h-1.6c-.1 0-.2 0-.2-.2m8 0c0-.1 0-.2-.2-.2h-1.6c-.1 0-.2 0-.2.2s0 .2.2.2h1.6c.1 0 .2 0 .2-.2m-6.8-2.8h.3l1.1 1.1v.3c0 .1-.2 0-.3 0l-1.1-1.1v-.3"/>
        <path class="mini3x-cls-25" d="M442.8 173.5v-.3l-1.1-1.1h-.3c-.1 0 0 .2 0 .3l1.1 1.1h.3m0-5.7h-.3l-1.1 1.1v.3c0 .1.2 0 .3 0l1.1-1.1v-.3m-5.6 5.7v-.3l1.1-1.1h.3c.1 0 0 .2 0 .3l-1.1 1.1h-.3"/>
      </g>
      <g id="DRIVE_CAGE_1" data-name="MINI X+ DRIVE CAGE 0">
        <path class="mini3x-cls-21" d="M161.7 45.5h286.1v72.7H161.7z"/>
        <path class="mini3x-cls-13" transform="rotate(180 450.45 81.85)" d="M447.7 45.5h5.5v72.7h-5.5z"/>
        <path class="mini3x-cls-13" transform="rotate(180 155.9 49.65)" d="M150.2 45.5h11.5v8.4h-11.5z"/>
        <path class="mini3x-cls-13" transform="rotate(180 155.9 114.05)" d="M150.2 109.9h11.5v8.4h-11.5z"/>
        <path class="mini3x-cls-1" transform="rotate(180 158.8 73.3)" d="M155.9 53.8h5.8v39h-5.8z"/>
        <path class="mini3x-cls-1" transform="rotate(180 154.85 101.3)" d="M148 92.8h13.7v17.1H148z"/>
        <path class="mini3x-cls-11" d="M154.5 53.8h1.4v39h-1.4z"/>
        <path class="tint-target mini3x-cls-6" d="M367.5 63c-4.8 4.8-7.8 11.5-7.8 18.8 0 14 10.9 25.5 24.6 26.6v9.8H161.6V45.5h222.7v9.8c-6.5.5-12.4 3.3-16.8 7.7Z"/>
        <path class="tint-target mini3x-cls-19" d="M161.7 45.5h24.5v72.7h-24.5z"/>
        <path class="mini3x-cls-2" d="M330.2 81.8c0 1.3-.5 2.4-1.3 3.3-.8.8-2 1.3-3.3 1.3H198c-2.5 0-4.6-2.1-4.6-4.6s.5-2.4 1.4-3.3c.8-.8 2-1.3 3.3-1.3h127.6c2.5 0 4.6 2.1 4.6 4.6Zm11.8 18.5c0 1.3-.5 2.4-1.3 3.3-.8.8-2 1.3-3.3 1.3H197.9c-2.5 0-4.6-2.1-4.6-4.6s.5-2.4 1.4-3.3c.8-.8 2-1.3 3.3-1.3h139.5c2.5 0 4.6 2.1 4.6 4.6Zm0-36.9c0 1.3-.5 2.4-1.3 3.3-.8.8-2 1.3-3.3 1.3H197.9c-2.5 0-4.6-2.1-4.6-4.6s.5-2.4 1.4-3.3c.8-.8 2-1.3 3.3-1.3h139.5c2.5 0 4.6 2.1 4.6 4.6Z"/>
        <path class="mini3x-cls-1" d="M234.5 58.8h3.7V68h-3.7zm0 18.4h3.7v9.2h-3.7zm0 18.5h3.7v9.2h-3.7zm62.6-36.9h3.7V68h-3.7zm0 18.4h3.7v9.2h-3.7zm0 18.5h3.7v9.2h-3.7z"/>
        <circle class="tint-target mini3x-cls-6" cx="386.4" cy="81.8" r="24.5"/>
        <circle class="tint-target mini3x-cls-12" cx="386.4" cy="81.8" r="22.3"/>
        <circle class="tint-target mini3x-cls-2" cx="386.4" cy="81.8" r="8.6"/>
        <path class="mini3x-cls-12" d="M383.9 74.4v14.9c-3.1-1-5.4-4-5.4-7.5s2.3-6.4 5.4-7.5Zm10.3 7.4c0 3.5-2.3 6.4-5.4 7.5V74.4c3.1 1 5.4 4 5.4 7.5Z"/>
        <path class="mini3x-cls-9" d="M388.8 74.4v14.9c-.8.2-1.6.4-2.5.4s-1.7-.1-2.4-.4V74.4c.8-.2 1.6-.4 2.4-.4s1.7.1 2.5.4Z"/>
        <circle class="mini3x-cls-2" cx="386.4" cy="81.8" r="4.2"/>
        <path class="mini3x-cls-6" d="m405.5 81.8-7.3-4.1V86l7.3-4.2z"/>
        <path class="tint-target mini3x-cls-6" d="M447.7 45.5v72.7h-61.1v-9.7h6.5c7.4 0 14-3 18.8-7.8 4.8-4.8 7.8-11.5 7.8-18.8 0-14.7-11.9-26.6-26.6-26.6h-6.5v-9.7h61.1Z"/>
        <path class="mini3x-cls-6" d="M427.3 80.5v.7c0 .2-.1.3-.2.3s-.2 0-.2-.3v-.7c0-.9-.6-1.3-1.2-1.3s-1.2.5-1.2 1.3v1h.7c.4 0 .5.2.5.6v2.4c0 .4-.2.6-.6.6H422c-.4 0-.6-.2-.6-.6v-2.4c0-.4.2-.6.6-.6h2v-1c0-1.3.8-1.9 1.7-1.9s1.7.6 1.7 1.9Zm-27.1 32.8v-1c0-1.3-.9-1.9-1.7-1.9s-1.7.6-1.7 1.9v1c-.3 0-.5.2-.5.6v2.4c0 .4.2.6.6.6h3.1c.4 0 .6-.2.6-.6v-2.4c0-.4-.1-.6-.4-.6Zm-3 0v-1c0-.9.6-1.3 1.2-1.3s1.2.5 1.2 1.3v1h-2.5Z"/>
        <circle class="mini3x-cls-2" cx="440" cy="64.5" r="5.5"/>
        <circle class="mini3x-cls-17" cx="440" cy="64.5" r="4.4"/>
        <circle class="mini3x-cls-2" cx="440" cy="78.3" r="5.5"/>
        <circle class="mini3x-cls-17" cx="440" cy="78.3" r="4.4"/>
        <path class="mini3x-cls-22" d="M440 47.6c-1.3 0-2.3.6-2.3 1.3v4.5c0 .8 1 1.3 2.3 1.3s2.3-.6 2.3-1.3v-4.5c0-.8-1-1.3-2.3-1.3Zm0 .6c1.1 0 1.8.4 1.8.8s-.7.8-1.8.8-1.8-.4-1.8-.8.7-.8 1.8-.8Zm0 6.1c-1.1 0-1.8-.4-1.8-.8v-3.6c.4.3 1.1.5 1.8.5s1.4-.2 1.8-.5v3.6c0 .4-.7.8-1.8.8Z"/>
        <path class="mini3x-cls-25" d="M440 90.6c-.8 0-1.4.6-1.4 1.4 0 .4.2.9.6 1.1.1 0 .2.2.2.4v.5h1v-.5c0-.2 0-.3.2-.4.6-.4.8-1.3.3-1.9-.3-.4-.7-.6-1.1-.6m-1.5 1.4c0-1 .8-1.8 1.8-1.8s1.8.8 1.8 1.8c0 .6-.3 1.1-.7 1.4v.5c0 .3-.2.5-.5.5h-1c-.3 0-.5-.2-.5-.5v-.5c-.5-.3-.7-.9-.7-1.4m.5 3c0-.1 0-.2.2-.2h1.6c.1 0 .2 0 .2.2s0 .2-.2.2h-1.6c-.1 0-.2 0-.2-.2m1-7c.1 0 .2 0 .2.2v1.6c0 .1 0 .2-.2.2s-.2 0-.2-.2v-1.6c0-.1 0-.2.2-.2m-4 3.9c0-.1 0-.2.2-.2h1.6c.1 0 .2 0 .2.2s0 .2-.2.2h-1.6c-.1 0-.2 0-.2-.2m8 0c0-.1 0-.2-.2-.2h-1.6c-.1 0-.2 0-.2.2s0 .2.2.2h1.6c.1 0 .2 0 .2-.2m-6.8-2.8h.3l1.1 1.1v.3c0 .1-.2 0-.3 0l-1.1-1.1v-.3"/>
        <path class="mini3x-cls-25" d="M442.8 94.8v-.3l-1.1-1.1h-.3c-.1 0 0 .2 0 .3l1.1 1.1h.3m0-5.7h-.3l-1.1 1.1v.3c0 .1.2 0 .3 0l1.1-1.1v-.3m-5.6 5.7v-.3l1.1-1.1h.3c.1 0 0 .2 0 .3l-1.1 1.1h-.3"/>
      </g>
    </g>
  </g>
</svg>
